<svg xmlns="http://www.w3.org/2000/svg" width="48.3" height="40.8"><style>.st0{opacity:.3;enable-background:new}.st2{fill:#2d3134}.st3{opacity:6.000000e-02;enable-background:new}.st4{fill:#a9abb0}.st5{fill:#808285}.st6{opacity:.39;enable-background:new}.st7{fill:#e5e5e5}.st8{fill:#cc291f}.st9{fill:#656565}.st11{fill:#fff}.st13{opacity:.2;enable-background:new}.st14{fill:#36c}.st15{opacity:.11}.st15,.st16,.st18{enable-background:new}.st16{opacity:.29}.st18{fill:#fff;opacity:.4}</style><g id="i2032_1_"><path class="st0" d="M5166.8-5671.4l-127.2 63.6 353.2 175.9 127.2-63.6z" transform="matrix(-.1 0 0 .1 552 584)"/><path fill="none" stroke="#2d3134" stroke-width=".105" stroke-miterlimit="10" d="M3.35 22.33l1.17.84"/><path d="M5093.4-5607.5l105.8-29.4-73-42-43.3 37.2zm248.9 126.7l105.8-29.4-73-42-43.3 37.2z" transform="matrix(-.1 0 0 .1 552 584)"/><path class="st2" d="M5129.9-5623.3c-6.2-3.1-11.9-3.5-16.1-1.6l-11.7 5.8c-4.5 2-7.3 6.6-7.3 13.3 0 12.9 10.5 28.6 23.4 35 6.4 3.2 12.2 3.5 16.4 1.5 0 0 11.6-5.8 12.6-6.4 3.8-2.3 6.1-6.6 6.1-12.6 0-12.9-10.5-28.6-23.4-35z" transform="matrix(-.1 0 0 .1 552 584)"/><path class="st3" d="M5134.9-5569.4c1.7-.8 11.4-5.7 12.3-6.2 3.8-2.3 6.1-6.6 6.1-12.6 0-5.2-1.7-10.8-4.6-16.1l-11.7 5.8c2.9 5.3 4.6 10.9 4.6 16.1 0 6.4-2.5 10.9-6.7 13z" transform="matrix(-.1 0 0 .1 552 584)"/><path class="st4" d="M5135.8-5585.5c0 9.7-7.8 13.6-17.5 8.8-9.7-4.8-17.6-16.6-17.6-26.3s7.8-13.6 17.5-8.8c9.7 4.8 17.6 16.6 17.6 26.3z" transform="matrix(-.1 0 0 .1 552 584)"/><path class="st5" d="M5119.7-5577.4c-9.7-4.8-17.5-16.6-17.5-26.3 0-4.8 1.9-8.1 5-9.7-3.9 1.2-6.4 4.9-6.4 10.3 0 9.7 7.8 21.4 17.5 26.3 4.9 2.5 9.4 2.6 12.5 1-3 1-6.9.5-11.1-1.6z" transform="matrix(-.1 0 0 .1 552 584)"/><path class="st2" d="M5127-5591.2c0 4-3.3 5.7-7.3 3.6-4-2-7.3-6.9-7.3-11 0-4 3.3-5.7 7.3-3.6 4.1 2.1 7.3 7 7.3 11z" transform="matrix(-.1 0 0 .1 552 584)"/><path class="st3" d="M5127-5591.2c0 4-3.3 5.7-7.3 3.6-4-2-7.3-6.9-7.3-11 0-4 3.3-5.7 7.3-3.6 4.1 2.1 7.3 7 7.3 11z" transform="matrix(-.1 0 0 .1 552 584)"/><path class="st2" d="M5125.6-5590.5c0 4-3.3 5.7-7.3 3.6-4-2-7.3-6.9-7.3-11s3.3-5.7 7.3-3.6c4 2 7.3 6.9 7.3 11z" transform="matrix(-.1 0 0 .1 552 584)"/><path class="st6" d="M5141.6-5582.4c0 12.9-10.5 18.1-23.4 11.7-12.9-6.4-23.4-22.1-23.4-35 0-12.9 10.5-18.1 23.4-11.7 13 6.4 23.4 22.1 23.4 35z" transform="matrix(-.1 0 0 .1 552 584)"/><path class="st2" d="M5378.5-5499.9c-6.2-3.1-11.9-3.5-16.1-1.6l-11.7 5.8c-4.5 2-7.3 6.6-7.3 13.3 0 12.9 10.5 28.6 23.4 35 6.4 3.2 12.2 3.5 16.4 1.5 0 0 11.6-5.8 12.6-6.4 3.8-2.3 6.1-6.6 6.1-12.6 0-12.9-10.5-28.6-23.4-35z" transform="matrix(-.1 0 0 .1 552 584)"/><path class="st3" d="M5383.5-5446c1.7-.8 11.4-5.7 12.3-6.2 3.8-2.3 6.1-6.6 6.1-12.6 0-5.2-1.7-10.8-4.6-16.1l-11.7 5.8c2.9 5.3 4.6 10.9 4.6 16.1 0 6.3-2.6 10.8-6.7 13z" transform="matrix(-.1 0 0 .1 552 584)"/><path class="st4" d="M5384.4-5462.1c0 9.7-7.8 13.6-17.5 8.8-9.7-4.8-17.5-16.6-17.5-26.3s7.8-13.6 17.5-8.8c9.6 4.8 17.5 16.6 17.5 26.3z" transform="matrix(-.1 0 0 .1 552 584)"/><path class="st5" d="M5368.3-5454c-9.7-4.8-17.5-16.6-17.5-26.3 0-4.8 1.9-8.1 5-9.7-3.9 1.2-6.4 4.9-6.4 10.3 0 9.7 7.8 21.4 17.5 26.3 4.9 2.5 9.4 2.6 12.5 1-3 1-6.9.5-11.1-1.6z" transform="matrix(-.1 0 0 .1 552 584)"/><path class="st2" d="M5375.6-5467.8c0 4-3.3 5.7-7.3 3.6-4-2-7.3-6.9-7.3-11 0-4 3.3-5.7 7.3-3.6 4 2 7.3 6.9 7.3 11z" transform="matrix(-.1 0 0 .1 552 584)"/><path class="st3" d="M5375.6-5467.8c0 4-3.3 5.7-7.3 3.6-4-2-7.3-6.9-7.3-11 0-4 3.3-5.7 7.3-3.6 4 2 7.3 6.9 7.3 11z" transform="matrix(-.1 0 0 .1 552 584)"/><path class="st2" d="M5374.1-5467.1c0 4-3.3 5.7-7.3 3.6-4-2-7.3-6.9-7.3-11 0-4 3.3-5.7 7.3-3.6 4.1 2 7.3 6.9 7.3 11z" transform="matrix(-.1 0 0 .1 552 584)"/><path class="st6" d="M5390.2-5459c0 12.9-10.5 18.1-23.4 11.7-12.9-6.5-23.4-22.1-23.4-35s10.5-18.1 23.4-11.7c12.9 6.4 23.4 22.1 23.4 35z" transform="matrix(-.1 0 0 .1 552 584)"/><path class="st7" d="M5482.4-5603.3l-40.6-64.8-28.3-37.4c-3.2-4.2-7.2-7.6-11.9-9.9l-242.8-122.9c-4.6-2.3-9.9-2.3-14.5-.1l-74.8 37.3c-3.8 1.9-6.7 5.1-8.1 9.1l-7.3 20.7-11.6 75.9v62.1l50.9 25.9v-1.5c0-15.5 12.6-21.8 28-14 15.5 7.7 28 26.6 28 42.1 0 .7 0 1.3-.1 1.9l193 98.2c-.2-1.6-.4-3.2-.4-4.7 0-15.5 12.6-21.8 28-14 15.1 7.5 27.3 25.5 28 40.8l4.9.9 113.8-54.8v-37.4c.1-7-34.2-53.4-34.2-53.4z" transform="matrix(-.1 0 0 .1 552 584)"/><path class="st2" d="M5348.6-5615.9s23.4-9.7 50.6-22.7c27.1-13.1 45.8-25.2 45.8-25.2l37.4 60.6s-25 18.4-49.8 30.8c-24.8 12.4-55.1 21.6-55.1 21.6l-28.9-65.1z" transform="matrix(-.1 0 0 .1 552 584)"/><path class="st8" d="M5398.7-5638.6c24.8-11.9 42.8-23.2 45.8-25.1l-2.7-4.3-1.4-1.8c-3.2 2-20.8 13-44.9 24.6-26.7 12.9-50.1 22.6-50.4 22.7l2.8 6.8c.3-.2 23.9-10 50.8-22.9z" transform="matrix(-.1 0 0 .1 552 584)"/><path class="st9" d="M5351.4-5614.8c6.3-2.6 26.3-11.2 48.7-22 22.1-10.7 38.9-20.8 44.2-24.2l33 53.3c-5.9 4.2-27.1 19.1-47.9 29.5-20.9 10.5-46.1 18.7-52.9 20.9l-25.1-57.5z" transform="matrix(-.1 0 0 .1 552 584)"/><path class="st2" d="M5312.5-5619.8l-4.3 38.5c-.2 2 .8 3.9 2.5 4.8l55 29.4 1.6-5.8-24.5-59-23.3-11.6c-3-1.6-6.6.3-7 3.7z" transform="matrix(-.1 0 0 .1 552 584)"/><path class="st9" d="M5311.7-5578.4c-1-.5-1.6-1.6-1.4-2.7l4.3-38.5c.2-1.6 1.5-2.4 2.7-2.4.4 0 .8.1 1.2.3l22.6 11.3 23.9 57.6-.7 2.6-52.6-28.2z" transform="matrix(-.1 0 0 .1 552 584)"/><path class="st2" d="M5300.1-5626.1l-4.7 33.7c-.2 1.7-2.1 2.7-3.6 1.9l-45-21.9c-3.2-1.6-5-5-4.5-8.6l5-34.1c.2-1.7 2.1-2.7 3.6-1.9l44.8 22.4c3.1 1.5 4.9 5 4.4 8.5z" transform="matrix(-.1 0 0 .1 552 584)"/><path class="st9" d="M5292.9-5592.4h-.2l-45-21.9c-2.4-1.2-3.7-3.7-3.4-6.4l5-34.1c0-.3.3-.4.4-.4h.2l44.8 22.4c2.3 1.2 3.7 3.7 3.3 6.3l-4.7 33.7c-.1.3-.3.4-.4.4z" transform="matrix(-.1 0 0 .1 552 584)"/><path d="M37 17.68l-7.53 3.67a.38.38 0 0 1-.54-.28l-.46-3.13c-.03-.23.08-.46.29-.56l7.36-3.65c.23-.11.5.03.54.27l.63 3.1c.04.24-.08.48-.29.58z" opacity=".3" fill="none" stroke="#000" stroke-width=".105" stroke-miterlimit="10"/><path class="st0" d="M5335.6-5627.3l.3-.7-280.5-141.6-.4.7 188.4 95.1-10 71.1v63.4h.8v-63.3l9.9-70.8v-.1l64.1 32.4-9.9 71.3v63.4h.7v-63.4l10-70.9z" transform="matrix(-.1 0 0 .1 552 584)"/><path class="st2" d="M5482.4-5621.5v10.9c0 1.9 2.1 3 3.6 1.9l.5-.4c2.5-1.8 4-4.7 4-7.7v-10.9c0-1.9-2.2-3-3.7-1.8l-.8.6c-2.2 1.7-3.6 4.4-3.6 7.4zm-51.9 123.1s21-8.9 36.9-16.9c21.1-10.5 34.8-19.9 34.8-19.9l-1.8 18.7s-17.2 11.3-30.6 18c-15.9 8-35.6 15.3-35.6 15.3l-3.7-15.2zm-26.3-54.6l3.2 6.3s19.5-9 35.8-16.9c16.3-7.9 31.6-17.4 31.6-17.4l-4.5-4.2s-16.9 9.2-29.2 15.5c-12.3 6.3-36.9 16.7-36.9 16.7z" transform="matrix(-.1 0 0 .1 552 584)"/><path class="st11" d="M5396.3-5497.9v23s8.1 3.7 14.4 2.7c6.3-1 17.4-4.8 17.4-4.8l-3.9-20.9s-9 3.4-16.3 3.4c-7.3 0-11.6-3.4-11.6-3.4z" transform="matrix(-.1 0 0 .1 552 584)"/><path class="st0" d="M5418.2-5486.9c5.6 5.1 9.9 9.9 9.9 9.9l-3.9-20.9s-7.6 2.9-14.6 3.4c-.6 0 3.8 3.3 8.6 7.6z" transform="matrix(-.1 0 0 .1 552 584)"/><path class="st11" d="M5506.4-5539.1l-.7 22.7s6.7-5.9 8.2-8.1c1.5-2.1 2.7-4.2 2.7-4.2v-21.3l-10.2 10.9z" transform="matrix(-.1 0 0 .1 552 584)"/><path class="st0" d="M5506.4-5539.1l-.7 22.7s2.1-6.3 5.4-15.3c2.4-6.6 5.6-18.3 5.6-18.3l-10.3 10.9z" transform="matrix(-.1 0 0 .1 552 584)"/><path d="M5407.9-5494.5c-7.4 0-11.6-3.4-11.6-3.4v23s6.1 2.8 11.9 2.9l-.3-22.5zm-33.8-21.6v.6c0 1.4.8 2.7 2 3.3l2.9 1.5c1.2.6 2.6-.3 2.6-1.6v-.6c0-1.4-.8-2.7-2-3.3l-2.9-1.5c-1.2-.6-2.6.3-2.6 1.6z" transform="matrix(-.1 0 0 .1 552 584)" fill="#f90"/><path class="st2" d="M5350.6-5562.6l.7-.3c2.4-.8 4.9 1 4.9 3.5v11.4c0 3.1-1.9 6-4.9 7.1l-.9.3c-2.4.9-5.1-.9-5.1-3.5v-11.5c.1-3.1 2.2-6 5.3-7z" transform="matrix(-.1 0 0 .1 552 584)"/><path class="st13" d="M5352.3-5615.2c21.3 5 45.7 7.8 71.7 7.8 18 0 35.2-1.4 51.2-3.9l-30.8-49.7c-5.4 3.3-22.1 13.5-44.2 24.2-21.5 10.4-40.9 18.7-47.9 21.6z" transform="matrix(-.1 0 0 .1 552 584)"/><path class="st2" d="M5290.7-5690.2l71.1-36.6-23.2-11.6-72.1 35.6z" transform="matrix(-.1 0 0 .1 552 584)"/><path class="st14" d="M5288.6-5722.8l-16.4 8.2c-2.9 1.4-4.7 4.4-4.7 7.6 0 3.2 1.8 6.2 4.7 7.6l12.5 6.3c2.4 1.2 5.2 1.2 7.6 0l17.3-8.6v-10.5l-21-10.6zm68.5-17.9l-12.5-6.3c-2.4-1.2-5.2-1.2-7.6 0l-17.3 8.6 21.1 10.5v10.5l16.4-8.2c2.9-1.4 4.7-4.4 4.7-7.6-.1-3.1-1.9-6.1-4.8-7.5z" transform="matrix(-.1 0 0 .1 552 584)"/><path class="st7" d="M5319.6-5738.4l-31 15.6 21.1 10.5v10.5l31-15.5v-10.5z" transform="matrix(-.1 0 0 .1 552 584)"/><path class="st15" d="M5309.7-5712.3v10.5l31-15.5v-10.5zm31-15.5v10.5l16.4-8.2c2.9-1.4 4.7-4.4 4.7-7.6 0-1.7-.5-3.2-1.4-4.6l-19.7 9.9z" transform="matrix(-.1 0 0 .1 552 584)"/><path class="st15" d="M5288.6-5701.8v9.5c1.3 0 2.6-.3 3.8-.9l17.3-8.6v-10.5l-21.1 10.5z" transform="matrix(-.1 0 0 .1 552 584)"/><path class="st16" d="M5268.9-5711.6c-.9 1.3-1.4 2.9-1.4 4.6 0 3.2 1.8 6.2 4.7 7.6l12.5 6.3c1.2.6 2.5.9 3.8.9v-9.5l-19.6-9.9z" transform="matrix(-.1 0 0 .1 552 584)"/><path d="M5269.6-5711.2l19 9.4 21.1-10.5-21.1 8.4zm71.1-16.6l17.9-9.5 1.1-1.1-17.9-9.5 15.8 9.5z" transform="matrix(-.1 0 0 .1 552 584)" opacity=".8" fill="#fff"/><path class="st0" d="M5415.4-5492.1c0 1.8-1.4 3.9-3.2 4.8-1.8.9-3.2.2-3.2-1.6s1.4-3.9 3.2-4.8c1.8-.9 3.2-.2 3.2 1.6zm100.7-50.3c.2 1.4-.8 3.4-2.1 4.3-1.4.9-2.6.5-2.8-1-.2-1.4.8-3.4 2.1-4.3 1.4-.9 2.7-.4 2.8 1zm-91.1 56.1c0 4.1-3.3 9-7.3 11-4.1 2-7.3.4-7.3-3.7s3.3-9 7.3-11 7.3-.3 7.3 3.7z" transform="matrix(-.1 0 0 .1 552 584)"/><path class="st18" d="M5420.6-5481.9c0 2.1-1.7 4.6-3.8 5.6-2.1 1-3.8.2-3.8-1.9s1.7-4.6 3.8-5.6c2.1-1 3.8-.2 3.8 1.9z" transform="matrix(-.1 0 0 .1 552 584)"/><path class="st0" d="M5515.7-5532.9c.5 2.7-1 6.5-3.5 8.4s-4.9 1.2-5.4-1.5 1-6.5 3.5-8.4c2.4-1.9 4.9-1.2 5.4 1.5z" transform="matrix(-.1 0 0 .1 552 584)"/><path class="st18" d="M5513.4-5529.4c.3 1.4-.5 3.3-1.8 4.3s-2.5.6-2.8-.8c-.3-1.4.5-3.3 1.8-4.3 1.3-.9 2.5-.6 2.8.8z" transform="matrix(-.1 0 0 .1 552 584)"/><path class="st13" d="M5315.7-5560.3c0 2.4-1.9 3.4-4.3 2.2-2.4-1.2-4.3-4.1-4.3-6.5 0-2.4 1.9-3.4 4.3-2.2 2.4 1.2 4.3 4.1 4.3 6.5z" transform="matrix(-.1 0 0 .1 552 584)"/><path class="st7" d="M5304.5-5567.6l-1.8 2.1s13.6 8.8 14.8 7.1-13-9.2-13-9.2z" transform="matrix(-.1 0 0 .1 552 584)"/><path class="st13" d="M5290.5-5573.7c0 2.4-1.9 3.4-4.3 2.2-2.4-1.2-4.3-4.1-4.3-6.5s1.9-3.4 4.3-2.2c2.4 1.2 4.3 4.1 4.3 6.5z" transform="matrix(-.1 0 0 .1 552 584)"/><path class="st7" d="M5279.3-5581.1l-1.8 2.1s13.6 8.8 14.8 7.1c1.2-1.7-13-9.2-13-9.2z" transform="matrix(-.1 0 0 .1 552 584)"/><path d="M5327.7-5651.7l93-44.2-7.3-9.6c-1.5-2-3.3-3.8-5.2-5.5l-90 43.7c2.3 1.9 5.9 8.3 9.5 15.6z" opacity=".3" fill="#fff" transform="matrix(-.1 0 0 .1 552 584)"/><path class="st8" d="M5047.6-5728.6l-3.2 21.2 55.1 68.5 279.9 139.7-18.7-27-251.1-125.3zm442.8 160.1l2.2-1.2 9.7 10.3-2.3 1.2-2.1-2.4-4.2 2.2.4 3.3-2.3 1.2-1.4-14.6zm6 6.1l-3.5-3.9.6 5.3 2.9-1.4zm-7.7 10l-4.4-9.7 2.3 10.8-2 1-6.5-8.7 4.4 9.7-2 1-5.6-12.4 3.2-1.6 5.7 7.5-1.9-9.4 3.2-1.6 5.6 12.4-2 1zm-10.3 5.2l-3.6 1.8c-1.4.7-2.2 1.1-2.6 1.2-.6.2-1.2.3-1.7.1-.5-.1-1-.4-1.5-.8s-.8-.9-1.1-1.5c-.3-.7-.4-1.4-.3-2.1.1-.7.4-1.3 1-1.9-.6 0-1.1-.2-1.6-.5s-.9-.8-1.1-1.4c-.2-.5-.4-1.1-.3-1.6 0-.5.1-1 .3-1.4.2-.4.5-.8.9-1.1s1-.6 1.8-1.1l4.2-2.2 5.6 12.5zm-8-8.6c-1 .5-1.6.8-1.8 1-.3.2-.5.5-.6.8-.1.3 0 .7.2 1.1.2.4.4.7.8.8.3.1.7.1 1.1 0 .2-.1.7-.3 1.6-.8l1.4-.7-1.3-2.9-1.4.7zm1.7 5.2c-1 .5-1.6.9-1.8 1.1-.2.3-.4.6-.4.9 0 .3 0 .7.2 1.1.2.4.5.7.8.9.3.2.6.2 1 .1.2-.1.7-.3 1.5-.7l2-1-1.5-3.3-1.8.9zm-6.9 3.1c.6 1.4 1 2.5 1.2 3.2.1.5.1 1.1 0 1.7-.1.6-.4 1.2-.8 1.7s-1.1 1.1-2.1 1.6c-.8.4-1.6.6-2.2.7-.6.1-1.2-.1-1.7-.4-.5-.3-.9-.7-1.3-1.2-.4-.6-.9-1.6-1.6-3.1l-2.9-6.5 2.1-1.1 3.1 6.8c.4 1 .8 1.7 1 2.1.3.4.6.7 1 .8.4.1 1 0 1.6-.3.6-.3 1-.7 1.2-1.2.2-.5.2-1 .1-1.6-.1-.3-.4-1-.9-2.1l-3-6.7 2.1-1.1 3.1 6.7zm-15.5 15l-.9-2.1 5.3-2.7-4.6-10.2 2.1-1.1 5.6 12.3-7.5 3.8zm-12.4-8.9l2.2-1.2 9.7 10.3-2.3 1.2-2.1-2.4-4.2 2.2.4 3.3-2.3 1.2-1.4-14.6zm6 6.2l-3.5-3.9.6 5.3 2.9-1.4zm-7.7 10l-3.7-8.1-.6 10.2-2.1 1.1-5.6-12.4 2-1 3.7 8.3.6-10.5 2.1-1.1 5.6 12.4-2 1.1zm-15.7 4.8c.6.2 1.2.2 1.7-.1.8-.4 1.2-1 1.4-2 .2-.9-.1-2.1-.8-3.7-.7-1.5-1.4-2.4-2.2-2.8s-1.6-.4-2.3 0c-.6.3-1 .7-1.2 1.3-.2.6-.3 1.2-.1 1.9l-2.4.5c-.2-1.1-.2-2.1 0-2.8.4-1.3 1.2-2.3 2.5-2.9 1.5-.8 2.9-.8 4.3-.1 1.4.7 2.6 2 3.5 4.1.9 1.9 1.1 3.7.7 5.3-.4 1.6-1.3 2.7-2.7 3.4-1.1.6-2.2.7-3.2.4s-2-1-2.9-2.2l1.7-1.8c.8.8 1.4 1.3 2 1.5zm-11.6 9.1l-.9-2.1 5.9-3-1.5-3.4-5.3 2.7-.9-2.1 5.3-2.7-1.2-2.7-5.7 2.9-.9-2.1 7.8-4 5.6 12.4-8.2 4.1z" transform="matrix(-.1 0 0 .1 552 584)"/><path class="st14" d="M5353.5-5636.9l-2 1-1.6-1.7-3.6 1.8v2.5l-1.9 1 .2-11 1.9-1 7 7.4zm-4.7-1.9l-2.5-2.8v4l2.5-1.2zm5.6 1.5l-3.3-9.2 2.7-1.4 3.9 5.5-.7-7.1 2.7-1.4 3.3 9.2-1.7.8-2.6-7.3.8 8.1-1.8.9-4.4-6.4 2.6 7.3-1.5 1zm7.3-14.5l3.6-1.8c.7-.4 1.3-.6 1.6-.7.4-.1.7-.1 1.1-.1.3.1.7.2 1 .4.3.2.5.5.7.9.2.4.2.9.1 1.4-.1.5-.3.9-.6 1.3.6-.1 1.1 0 1.6.2.4.2.8.6.9 1.2.2.4.2.9.2 1.4s-.2.9-.4 1.3-.6.8-1.1 1c-.3.2-1 .6-2.2 1.2l-3.1 1.5-3.4-9.2zm2.3.6l.8 2.1 1.2-.6c.7-.4 1.2-.6 1.3-.7.3-.2.5-.4.6-.7.1-.3.1-.6 0-.9-.1-.3-.3-.5-.5-.6-.2-.1-.5-.1-.8 0-.2.1-.7.3-1.6.7l-1 .7zm1.4 3.7l.9 2.5 1.7-.8c.7-.3 1.1-.6 1.2-.7.3-.2.4-.4.5-.7.1-.3.1-.6 0-.9-.1-.3-.3-.5-.5-.6-.2-.1-.4-.2-.7-.1-.3 0-.8.3-1.7.7l-1.4.6zm5.4-8.9l1.8-.9 1.8 5c.3.8.5 1.3.6 1.5.2.3.5.5.9.6.4.1.8 0 1.3-.3s.9-.6 1.1-.9c.2-.3.2-.7.2-1-.1-.3-.2-.9-.5-1.6l-1.9-5.1 1.8-.9 1.8 4.8c.4 1.1.6 1.9.7 2.4s0 1-.1 1.4c-.2.4-.4.9-.8 1.3a5 5 0 0 1-1.6 1.1c-.9.4-1.6.7-2.1.7s-1-.1-1.3-.3c-.4-.2-.7-.5-.9-.8-.3-.5-.7-1.2-1-2.2l-1.8-4.8zm12.5 4.7l-3.3-9.1 1.8-.9 2.8 7.6 4.5-2.3.6 1.6-6.4 3.1zm15.9-7.9l-2 1-1.6-1.7-3.6 1.8v2.5l-1.9 1 .2-11 1.9-1 7 7.4zm-4.7-2l-2.5-2.8v4l2.5-1.2zm5.7 1.5l-3.3-9.2 1.8-.9 5.9 4.3-2.2-6.2 1.7-.8 3.3 9.2-1.8.9-5.8-4.2 2.2 6-1.8.9zm13.7-10.8l2-.3c.1 1.1-.1 2.1-.5 2.9-.5.8-1.2 1.4-2.1 1.9-1.2.6-2.3.7-3.4.2s-1.9-1.4-2.4-2.9c-.6-1.5-.6-2.9-.1-4.2.5-1.2 1.3-2.2 2.6-2.8 1.1-.6 2.1-.7 3.1-.3.6.2 1.1.6 1.5 1.2l-1.7 1.3c-.3-.4-.6-.7-1.1-.8-.4-.1-.9 0-1.4.2-.7.3-1.1.8-1.4 1.5-.2.7-.2 1.6.2 2.7.4 1.2.9 1.9 1.5 2.2.6.3 1.2.3 1.9-.1.5-.2.8-.6 1.1-1.1.2-.2.2-.8.2-1.6zm4.5 1.7l-3.3-9.2 6.7-3.3.6 1.6-4.9 2.4.7 2 4.5-2.3.6 1.6-4.5 2.3.9 2.5 5.1-2.5.6 1.6-7 3.3zm-287.2-33.5l-7.1-15.8-12.9 1v-14.9l-14.2-7.1v14.9l-13-13.9-7.1 8.7 13 13.9-13 1 7.1 15.9 13-1v14.9l14.2 7.1v-14.9l12.9 13.9 7.1-8.7-12.9-14z" transform="matrix(-.1 0 0 .1 552 584)"/><path class="st8" d="M5056.1-5776.9l261.9 131.3-5.9-11.2-253.5-127.1z" transform="matrix(-.1 0 0 .1 552 584)"/><path class="st16" d="M5407.9-5494.5s-10.7-18.6-17.7-28.9c-7.6-11.2-14.5-19.7-18.7-27.9-4.2-8.3-30.8-72-30.8-72s-16.3-38.7-22.4-44c-5.3-4.6-207.3-106.7-253.7-130.1-1.4 1.6-2.5 3.4-3.2 5.4l-7.3 20.7-11.6 75.9v62.1l50.9 25.9v-1.5c0-15.5 12.6-21.8 28-14 15.5 7.7 28 26.6 28 42.1 0 .7 0 1.3-.1 1.9l193 98.2c-.2-1.6-.4-3.2-.4-4.7 0-15.5 12.6-21.8 28-14 15.1 7.5 27.3 25.5 28 40.8l4.9.9 5.4-2.6-.3-34.2z" transform="matrix(-.1 0 0 .1 552 584)"/><path class="st2" d="M5041.7-5657.4l3.7 1.8 2.7 25.3-4.8-1.6-6.3-6.3v-7.9l2.6-2.6zm348.5 180.5s11.6 4.8 18.7 4.5 35.8-8.7 61.9-22.1c26.1-13.4 42.1-26.1 45.8-34.2v25.6s-13.2 18.2-46.9 33.7c-33.7 15.5-51.1 21.1-57.9 20.3-6.8-.8-19.1-6.4-19.1-6.4l-2.5-21.4z" transform="matrix(-.1 0 0 .1 552 584)"/><path class="st7" d="M5456.3-5477.9v9.7l32.2-17.1v-8.9z" transform="matrix(-.1 0 0 .1 552 584)"/></g></svg>