<svg xmlns="http://www.w3.org/2000/svg" width="128" height="90"><style>.st0{fill:#9c3}.st1{opacity:.3;enable-background:new}.st2{fill:#825012}.st3{fill:#539b00}.st4{opacity:.2;fill:#fff;enable-background:new}.st5{fill:#cc291f}.st6,.st7{opacity:.2;enable-background:new}.st7{opacity:.5}.st8{fill:#fbd7c7}</style><g id="i2074_1_"><path class="st0" d="M8-622l64 32-64 32-64-32z" transform="translate(56 648)"/><path class="st0" d="M8-622l64 32-64 32-64-32z" transform="translate(56 648)"/><path class="st0" d="M8-622l64 32-64 32-64-32z" transform="translate(56 648)"/><path class="st0" d="M8-622l64 32-64 32-64-32z" transform="translate(56 648)"/><g transform="translate(56 648)"><ellipse class="st1" cx="40.5" cy="-591" rx="7.5" ry="4"/><path class="st2" d="M42-613v22c0 .6-.7 1-1.5 1s-1.5-.4-1.5-1v-22h3z"/><circle class="st3" cx="50.5" cy="-610.7" r="5.5"/><circle class="st3" cx="49" cy="-617" r="9"/><path class="st2" d="M40-600.6c-2.6 0-3-.9-3-3.4v-8h-1v10c0 1.7 1.3 3 3 3h1v-1.6zm1 1.4c1.7 0 3-.4 3-2.1v-9.7h1v10c0 1.7-1.3 3-3 3h-1v-1.2z"/><path class="st2" d="M37-602.2c-1.7 0-2-1.3-2-2.1v-9.7h-1v10c0 1.7 1.3 3 3 3v-1.2z"/><circle class="st3" cx="34.1" cy="-611.1" r="7.6"/><circle class="st3" cx="29.1" cy="-616.1" r="5.1"/><circle class="st3" cx="33" cy="-620" r="8"/><circle class="st3" cx="39" cy="-624" r="8"/><circle class="st3" cx="48.5" cy="-625.5" r="4.5"/><path class="st4" d="M39.5-628c2.4 0 4.3 1.9 4.5 4.2.5-.1 1-.2 1.5-.2 2.5 0 4.6 1.6 5.3 3.9.1-.4.2-.9.2-1.4 0-2.5-2-4.5-4.5-4.5-.5 0-1 .1-1.5.3-.1-1.8-1.6-3.3-3.5-3.3-1 0-1.9.4-2.5 1h.5z"/><circle class="st3" cx="43.2" cy="-609.6" r="7.8"/><path class="st1" d="M55.9-611.5c-.4 2.6-2.7 4.6-5.4 4.6h-.1c-.2.6-.5 1.1-.8 1.6.3 0 .6.1.9.1 3 0 5.5-2.5 5.5-5.5 0-.2 0-.5-.1-.8z"/><path class="st1" d="M43.6-603.5c-2.5 0-4.7-1.1-6.3-2.7-1.1.6-2.4.9-3.7.9-2.8 0-5.3-1.4-6.8-3.5 1 3.1 3.8 5.4 7.2 5.4 1.2 0 2.3-.3 3.4-.8 1.4 1.5 3.4 2.5 5.7 2.5 3.4 0 6.3-2.2 7.3-5.2-1.5 2-4 3.4-6.8 3.4zm-16.1-11.2c-1.5-.5-2.6-1.6-3.2-3.1-.2.5-.3 1.1-.3 1.7 0 1.9 1 3.5 2.6 4.4.1-1.1.4-2.1.9-3z"/><circle class="st5" cx="39.5" cy="-627.5" r="1.5"/><circle class="st5" cx="33.5" cy="-625.5" r="1.5"/><circle class="st5" cx="37.5" cy="-620.5" r="1.5"/><circle class="st5" cx="29.5" cy="-613.5" r="1.5"/><circle class="st5" cx="29.5" cy="-619.5" r="1.5"/><circle class="st5" cx="34.5" cy="-615.5" r="1.5"/><circle class="st5" cx="41.5" cy="-608.5" r="1.5"/><circle class="st5" cx="46.5" cy="-618.5" r="1.5"/><circle class="st5" cx="43.5" cy="-613.5" r="1.5"/><circle class="st5" cx="45.5" cy="-624.5" r="1.5"/><circle class="st5" cx="53.5" cy="-619.5" r="1.5"/><circle class="st5" cx="49.5" cy="-609.5" r="1.5"/><circle class="st5" cx="54.5" cy="-613.5" r="1.5"/><circle class="st5" cx="32.5" cy="-608.5" r="1.5"/><path class="st4" d="M33.1-623c2.2 0 4.1 1.3 4.9 3.1.3-.1.7-.1 1.1-.1 1.8 0 3.4.9 4.4 2.2-.4-1.8-2-3.2-3.9-3.2h-.1c-.5-2.3-2.5-4-4.9-4-2 0-3.7 1.2-4.5 2.9.8-.6 1.9-.9 3-.9zm6.9 10c1.2 0 2.3.3 3.3.8 1.2-1.1 2.9-1.8 4.7-1.8 1.6 0 3.1.5 4.2 1.4-1.1-2-3.3-3.4-5.7-3.4-1.6 0-3.1.6-4.2 1.6-.7-.4-1.5-.6-2.3-.6-2.4 0-4.4 1.7-4.9 4 1.3-1.2 3-2 4.9-2z"/></g><g transform="translate(56 648)"><ellipse class="st1" cx="8.5" cy="-607" rx="7.5" ry="4"/><path class="st2" d="M10-629v22c0 .6-.7 1-1.5 1s-1.5-.4-1.5-1v-22h3z"/><circle class="st3" cx="18.5" cy="-626.7" r="5.5"/><circle class="st3" cx="17" cy="-633" r="9"/><path class="st2" d="M8-616.6c-2.6 0-3-.9-3-3.4v-8H4v10c0 1.7 1.3 3 3 3h1v-1.6zm1 1.4c1.7 0 3-.4 3-2.1v-9.7h1v10c0 1.7-1.3 3-3 3H9v-1.2z"/><path class="st2" d="M5-618.2c-1.7 0-2-1.3-2-2.1v-9.7H2v10c0 1.7 1.3 3 3 3v-1.2z"/><circle class="st3" cx="2.1" cy="-627.1" r="7.6"/><circle class="st3" cx="-2.9" cy="-632.1" r="5.1"/><circle class="st3" cx="1" cy="-636" r="8"/><circle class="st3" cx="7" cy="-640" r="8"/><circle class="st3" cx="16.5" cy="-641.5" r="4.5"/><path class="st4" d="M7.5-644c2.4 0 4.3 1.9 4.5 4.2.5-.1 1-.2 1.5-.2 2.5 0 4.6 1.6 5.3 3.9.1-.4.2-.9.2-1.4 0-2.5-2-4.5-4.5-4.5-.5 0-1 .1-1.5.3-.1-1.8-1.6-3.3-3.5-3.3-1 0-1.9.4-2.5 1h.5z"/><circle class="st3" cx="11.2" cy="-625.6" r="7.8"/><path class="st1" d="M23.9-627.5c-.4 2.6-2.7 4.6-5.4 4.6h-.1c-.2.6-.5 1.1-.8 1.6.3 0 .6.1.9.1 3 0 5.5-2.5 5.5-5.5 0-.2 0-.5-.1-.8z"/><path class="st1" d="M11.6-619.5c-2.5 0-4.7-1.1-6.3-2.7-1.1.6-2.4.9-3.7.9-2.8 0-5.3-1.4-6.8-3.5 1 3.1 3.8 5.4 7.2 5.4 1.2 0 2.3-.3 3.4-.8 1.4 1.5 3.4 2.5 5.7 2.5 3.4 0 6.3-2.2 7.3-5.2-1.5 2-4 3.4-6.8 3.4zm-16.1-11.2c-1.5-.5-2.6-1.6-3.2-3.1-.2.5-.3 1.1-.3 1.7 0 1.9 1 3.5 2.6 4.4.1-1.1.4-2.1.9-3z"/><circle class="st5" cx="7.5" cy="-643.5" r="1.5"/><circle class="st5" cx="1.5" cy="-641.5" r="1.5"/><circle class="st5" cx="5.5" cy="-636.5" r="1.5"/><circle class="st5" cx="-1.5" cy="-630.5" r="1.5"/><circle class="st5" cx="-2.5" cy="-635.5" r="1.5"/><circle class="st5" cx="4.5" cy="-631.5" r="1.5"/><circle class="st5" cx="9.5" cy="-624.5" r="1.5"/><circle class="st5" cx="14.5" cy="-634.5" r="1.5"/><circle class="st5" cx="11.5" cy="-629.5" r="1.5"/><circle class="st5" cx="13.5" cy="-640.5" r="1.5"/><circle class="st5" cx="21.5" cy="-635.5" r="1.5"/><circle class="st5" cx="17.5" cy="-625.5" r="1.5"/><circle class="st5" cx="22.5" cy="-629.5" r="1.5"/><circle class="st5" cx=".5" cy="-624.5" r="1.5"/><path class="st4" d="M1.1-639c2.2 0 4.1 1.3 4.9 3.1.3-.1.7-.1 1.1-.1 1.8 0 3.4.9 4.4 2.2-.4-1.8-2-3.2-3.9-3.2h-.1c-.5-2.3-2.5-4-4.9-4-2 0-3.7 1.2-4.5 2.9.8-.6 1.9-.9 3-.9zM8-629c1.2 0 2.3.3 3.3.8 1.2-1.1 2.9-1.8 4.7-1.8 1.6 0 3.1.5 4.2 1.4-1.1-2-3.3-3.4-5.7-3.4-1.6 0-3.1.6-4.2 1.6-.7-.4-1.5-.6-2.3-.6-2.4 0-4.4 1.7-4.9 4 1.3-1.2 3-2 4.9-2z"/></g><g transform="translate(56 648)"><ellipse class="st1" cx="7.5" cy="-575" rx="7.5" ry="4"/><path class="st2" d="M6-597v22c0 .6.7 1 1.5 1s1.5-.4 1.5-1v-22H6z"/><circle class="st3" cx="-2.5" cy="-594.7" r="5.5"/><circle class="st3" cx="-1" cy="-601" r="9"/><path class="st2" d="M8-584.6c2.6 0 3-.9 3-3.4v-8h1v10c0 1.7-1.3 3-3 3H8v-1.6zm-1 1.4c-1.7 0-3-.4-3-2.1v-9.7H3v10c0 1.7 1.3 3 3 3h1v-1.2z"/><path class="st2" d="M11-586.2c1.7 0 2-1.3 2-2.1v-9.7h1v10c0 1.7-1.3 3-3 3v-1.2z"/><circle class="st3" cx="13.9" cy="-595.1" r="7.6"/><circle class="st3" cx="18.9" cy="-600.1" r="5.1"/><circle class="st3" cx="15" cy="-604" r="8"/><circle class="st3" cx="9" cy="-608" r="8"/><circle class="st3" cx="-.5" cy="-609.5" r="4.5"/><path class="st4" d="M8.5-612c-2.4 0-4.3 1.9-4.5 4.2-.5-.1-1-.2-1.5-.2-2.5 0-4.6 1.6-5.3 3.9-.1-.5-.2-.9-.2-1.4 0-2.5 2-4.5 4.5-4.5.5 0 1 .1 1.5.3.1-1.8 1.6-3.3 3.5-3.3 1 0 1.9.4 2.5 1h-.5z"/><circle class="st3" cx="4.8" cy="-593.6" r="7.8"/><path class="st1" d="M-7.9-595.5c.4 2.6 2.7 4.6 5.4 4.6h.1c.2.6.5 1.1.8 1.6-.3 0-.6.1-.9.1-3 0-5.5-2.5-5.5-5.5 0-.2 0-.5.1-.8z"/><path class="st1" d="M4.4-587.5c2.5 0 4.7-1.1 6.3-2.7 1.1.6 2.4.9 3.7.9 2.8 0 5.3-1.4 6.8-3.5-1 3.1-3.8 5.4-7.2 5.4-1.2 0-2.3-.3-3.4-.8-1.4 1.5-3.4 2.5-5.7 2.5-3.4 0-6.3-2.2-7.3-5.2 1.5 2 4 3.4 6.8 3.4zm16.1-11.2c1.5-.5 2.6-1.6 3.2-3.1.2.5.3 1.1.3 1.7 0 1.9-1 3.5-2.6 4.4-.1-1.1-.4-2.1-.9-3z"/><circle class="st5" cx="8.5" cy="-611.5" r="1.5"/><circle class="st5" cx="14.5" cy="-609.5" r="1.5"/><circle class="st5" cx="10.5" cy="-604.5" r="1.5"/><circle class="st5" cx="18.5" cy="-597.5" r="1.5"/><circle class="st5" cx="18.5" cy="-603.5" r="1.5"/><circle class="st5" cx="13.5" cy="-599.5" r="1.5"/><circle class="st5" cx="6.5" cy="-592.5" r="1.5"/><circle class="st5" cx="1.5" cy="-602.5" r="1.5"/><circle class="st5" cx="4.5" cy="-597.5" r="1.5"/><circle class="st5" cx="2.5" cy="-608.5" r="1.5"/><circle class="st5" cx="-5.5" cy="-603.5" r="1.5"/><circle class="st5" cx="-1.5" cy="-593.5" r="1.5"/><circle class="st5" cx="-6.5" cy="-597.5" r="1.5"/><circle class="st5" cx="15.5" cy="-592.5" r="1.5"/><path class="st4" d="M14.9-607c-2.2 0-4.1 1.3-4.9 3.1-.4-.1-.7-.1-1.1-.1-1.8 0-3.4.9-4.4 2.2.4-1.8 2-3.2 3.9-3.2h.1c.5-2.3 2.5-4 4.9-4 2 0 3.7 1.2 4.5 2.9-.8-.6-1.9-.9-3-.9zM8-597c-1.2 0-2.3.3-3.3.8-1.2-1.1-2.9-1.8-4.7-1.8-1.6 0-3.1.5-4.2 1.4 1.1-2 3.3-3.4 5.7-3.4 1.6 0 3.1.6 4.2 1.6.7-.4 1.4-.6 2.3-.6 2.4 0 4.4 1.7 4.9 4-1.3-1.2-3-2-4.9-2z"/></g><g transform="translate(56 648)"><ellipse class="st1" cx="-23.5" cy="-591" rx="7.5" ry="4"/><path class="st2" d="M-25-613v22c0 .6.7 1 1.5 1s1.5-.4 1.5-1v-22h-3z"/><circle class="st3" cx="-33.5" cy="-610.7" r="5.5"/><circle class="st3" cx="-33" cy="-617" r="9"/><path class="st2" d="M-23-600.6c2.6 0 3-.9 3-3.4v-8h1v10c0 1.7-1.3 3-3 3h-1v-1.6zm-1 1.4c-1.7 0-3-.4-3-2.1v-9.7h-1v10c0 1.7 1.3 3 3 3h1v-1.2z"/><path class="st2" d="M-20-602.2c1.7 0 2-1.3 2-2.1v-9.7h1v10c0 1.7-1.3 3-3 3v-1.2z"/><circle class="st3" cx="-17.1" cy="-611.1" r="7.6"/><circle class="st3" cx="-12.1" cy="-616.1" r="5.1"/><circle class="st3" cx="-15" cy="-619" r="8"/><circle class="st3" cx="-22" cy="-624" r="8"/><circle class="st3" cx="-31.5" cy="-625.5" r="4.5"/><path class="st4" d="M-22.5-628c-2.4 0-4.3 1.9-4.5 4.2-.5-.1-1-.2-1.5-.2-2.5 0-4.6 1.6-5.3 3.9-.1-.5-.2-.9-.2-1.4 0-2.5 2-4.5 4.5-4.5.5 0 1 .1 1.5.3.1-1.8 1.6-3.3 3.5-3.3 1 0 1.9.4 2.5 1h-.5z"/><circle class="st3" cx="-26.2" cy="-609.6" r="7.8"/><path class="st1" d="M-38.9-611.5c.4 2.6 2.7 4.6 5.4 4.6h.1c.2.6.5 1.1.8 1.6-.3 0-.6.1-.9.1-3 0-5.5-2.5-5.5-5.5 0-.2 0-.5.1-.8z"/><path class="st1" d="M-26.6-603.5c2.5 0 4.7-1.1 6.3-2.7 1.1.6 2.4.9 3.7.9 2.8 0 5.3-1.4 6.8-3.5-1 3.1-3.8 5.4-7.2 5.4-1.2 0-2.3-.3-3.4-.8-1.4 1.5-3.4 2.5-5.7 2.5-3.4 0-6.3-2.2-7.3-5.2 1.5 2 4 3.4 6.8 3.4zm16.1-11.2c1.5-.5 2.6-1.6 3.2-3.1.2.5.3 1.1.3 1.7 0 1.9-1 3.5-2.6 4.4-.1-1.1-.4-2.1-.9-3z"/><circle class="st5" cx="-31.5" cy="-625.5" r="1.5"/><circle class="st5" cx="-16.5" cy="-625.5" r="1.5"/><circle class="st5" cx="-20.5" cy="-620.5" r="1.5"/><circle class="st5" cx="-12.5" cy="-613.5" r="1.5"/><circle class="st5" cx="-12.5" cy="-619.5" r="1.5"/><circle class="st5" cx="-17.5" cy="-615.5" r="1.5"/><circle class="st5" cx="-22.5" cy="-610.5" r="1.5"/><circle class="st5" cx="-26.5" cy="-618.5" r="1.5"/><circle class="st5" cx="-26.5" cy="-613.5" r="1.5"/><circle class="st5" cx="-26.5" cy="-623.5" r="1.5"/><circle class="st5" cx="-37.5" cy="-618.5" r="1.5"/><circle class="st5" cx="-31.5" cy="-609.5" r="1.5"/><circle class="st5" cx="-33.5" cy="-615.5" r="1.5"/><circle class="st5" cx="-17.5" cy="-607.5" r="1.5"/><path class="st4" d="M-16.1-623c-2.2 0-4.1 1.3-4.9 3.1-.4-.1-.7-.1-1.1-.1-1.8 0-3.4.9-4.4 2.2.4-1.8 2-3.2 3.9-3.2h.1c.5-2.3 2.5-4 4.9-4 2 0 3.7 1.2 4.5 2.9-.8-.6-1.9-.9-3-.9zm-6.9 10c-1.2 0-2.3.3-3.3.8-1.2-1.1-2.9-1.8-4.7-1.8-1.6 0-3.1.5-4.2 1.4 1.1-2 3.3-3.4 5.7-3.4 1.6 0 3.1.6 4.2 1.6.7-.4 1.4-.6 2.3-.6 2.4 0 4.4 1.7 4.9 4-1.3-1.2-3-2-4.9-2z"/></g></g><g id="i2112_1_"><path class="st6" d="M-489.5-6311.1c7.9-5.9 3.8-14.9-15.3-20.6-19.1-5.7-17.4-8.8-37.7-6.1-20.3 2.7-16.1 15.1 9.4 24.3 22.8 8.2 26.8 15.1 43.6 2.4z" transform="matrix(.1 0 0 .1 136 696)"/><path class="st2" d="M-536.5-6340.5c-1.7 2.2-2.5 3.4-6.3 4.1-3.8.8-8.9 1.3-10.3 4.5-1.4 3.1.4 5.3 3.1 5.9s9.1.5 13.5-.8c4.3-1.3 5.7-2.1 5.7-2.1l1.1.8s9.2-1.4 10.1-2.4c.9-1 .1-8.9.1-8.9l-17-1.1z" transform="matrix(.1 0 0 .1 136 696)"/><path class="st7" d="M-541.6-6327.6c-7.9 1.1-10.4-.3-11.8-3.1-.5 2.4 1.2 4.1 3.5 4.7 2.7.6 9.1.5 13.5-.8 4.3-1.3 5.7-2.1 5.7-2.1l1.1.8s9.2-1.4 10.1-2.4c.4-.4.4-2 .4-3.8-1 .7-2.4 1.4-4 1.8-3.9 1-9.9 3.7-18.5 4.9z" transform="matrix(.1 0 0 .1 136 696)"/><path class="st2" d="M-503-6324.8c-1.7 3.6-2.9 6.2-5 8-2.1 1.7-4 5-3.6 8.4.4 3.4 6.6 4 9.8 3.1 3.2-.9 5.6-2.9 7.2-5.7.7-1.3 1.4-2.7 1.4-2.7l1.1.1s2.7-3.2 3.1-4.1c.4-.8.3-5.8.3-5.8l-14.3-1.3z" transform="matrix(.1 0 0 .1 136 696)"/><path class="st7" d="M-494.7-6311.1c.7-1.3 1.4-2.7 1.4-2.7l1.1.1s2.7-3.2 3.1-4.1c.2-.4.2-1.8.3-3.1-1.6 2.1-4.1 5.4-5.5 8-2.2 4.1-6.7 6.1-11.2 6.2-3.1.1-5.1-1.3-6.2-2.8v1.1c.4 3.4 6.6 4 9.8 3.1 3.3-.9 5.6-2.9 7.2-5.8z" transform="matrix(.1 0 0 .1 136 696)"/><path class="st5" d="M-502.5-6490.9c-3-2.1-8.9-5.3-12.7-7-3.8-1.7-12.8-4.2-14.5-7.1-2.3-3.8-3-8-2.7-11.5.1-1.6.1-2.4-2.5-3.4s-4.3-.4-5.1 2.4c-1 3.1-1.9 12.1-.4 16s11.4 12.4 13 14.4c1.6 2 4.6 6.9 3.3 10.3-1.3 3.4-3.9 10.5-3.7 16.8s-.4 20.5-.4 20.5l34.1-.2s-1.1-7.3 1.2-12.8c2.4-5.5 8.6-11.5 7.9-20.2-.7-8.7-4.7-9.3-7.6-11.3-2.9-2-9.9-6.9-9.9-6.9z" transform="matrix(.1 0 0 .1 136 696)"/><path class="st8" d="M-535.3-6526.7c1.1-1.8 4.8-3.1 6.2-3 1.4.1 2.7.3 3.1.9.7 1-.2 2.8-.8 4-1.3 3-2.7 4.5-3.5 4.4s-1.9 1.3-2.2 2c-.3.7-.8 3.1-3.7 2.6-2.9-.5-2.8-1.7-2.4-3.1.6-1.3 2.3-6.1 3.3-7.8z" transform="matrix(.1 0 0 .1 136 696)"/><path d="M-509.7-6494.3s-6.7 5.5-8.8 8.6c-2.1 3.1-6.9 15.4-6.9 15.4h-1.4s-1.1 3.6-1.2 6.7c-.2 3.1.1 16.2-.5 21.9-.6 5.7-1 12.7-2.4 18.6-1.4 5.9-5.4 28.6-5.2 46.5.3 17.2-2.2 35.5-1.4 37.1s6.3 4.5 11.4 5.2c5.1.7 8.2.7 8.7-2.4.5-3.1.6-16.3.7-21.4.1-5.1-1.9-14.6-1.2-19s4.4-21 4.4-21 .4 12.7 1.5 18.9c1.1 6.2 5.2 13.8 5.5 19.9.4 6.1.7 33.4 1.1 34.8.5 1.4 6 4.6 9.8 4.6 3.8 0 8.9-1.4 9.3-3.5s1.7-16.2.4-27.1c-1.3-11-3.3-16.3-3.6-23.5-.3-7.2.7-44.9.5-49.6-.2-4.7-3.2-13.3-3.8-16.6-.7-3.3-.6-2.7-.6-2.7s-4.5-.2-6.8-.6c-2.3-.4-5.3-1.1-5.7-3.2-.4-2.1 2.2-16.5 2.2-16.5l-3-1.1s4.6-9.1 8.5-12.5c3.8-3.3 10.4-4 10.4-4l-2.7-2.3s-4.9.5-9.1 3.3c-4.2 2.8-10.3 14-10.3 14l-11.7-3.6s3.6-11 6.7-15.4 8.6-7.6 8.6-7.6l-3.4-1.9z" fill="#06547a" transform="matrix(.1 0 0 .1 136 696)"/><path class="st2" d="M-512.9-6520.5c.4-.7 3.6 1.6 5.6 2.6 2.4 1.1 6-1.2 8-1.9s6-3.4 9.4-.9 3.8 8.2 5.5 10.8c1.7 2.6 1.7 4.3.3 6.3s-3 4.6-3 4.6-.4-6.3-5.7-7.8c-10.4-2.9-20.1-13.7-20.1-13.7z" transform="matrix(.1 0 0 .1 136 696)"/><path class="st2" d="M-512.9-6520.8c-1.8-.2-1.7 12.2 2.4 16.5 4.1 4.3 15.4 14.5 18.4 15.8s6 .5 6-.8-.3-.3-.6-4.1 2.8-9-4.8-13-9-4.2-12.5-6.9-6.4-7.1-8.9-7.5z" transform="matrix(.1 0 0 .1 136 696)"/><path class="st6" d="M-512.9-6520.8c-1.8-.2-1.7 12.2 2.4 16.5 4.1 4.3 15.4 14.5 18.4 15.8s6 .5 6-.8-.3-.3-.6-4.1 2.8-9-4.8-13-9-4.2-12.5-6.9-6.4-7.1-8.9-7.5z" transform="matrix(.1 0 0 .1 136 696)"/><path class="st8" d="M-492.4-6497.9c.6-1.9-.7-2.5-2.4-2.2-1.7.3-3.8 1.6-4.1.9-.4-.8.3-2.2.2-3.2-.1-1-.6-1.6-.7-2.9-.2-1.1 1-2.3 1.3-3.7-.2-.1-.3-.2-.5-.2-3.1-1.5-5.9-3.9-7.6-5-1.7 1.2-2.7 3-4 5.5-2.1 4.1-5.3 12.9-4.6 14.8s4.2 3 4.2 3 .8 3.2 0 6.2c-.8 2.9-4.7 8.6-4.8 9.5-.1.9 8.2-4.3 11.8-5.1 3.6-.8 9.8-4 9.6-4.7-.3-.7-2.2-2.5-1.4-5.5.2-.8.8-1.7 1.6-2.8v-.1c-.2-.8.7-2.6 1.4-4.5z" transform="matrix(.1 0 0 .1 136 696)"/><path d="M-488.9-6501.1c-.8-1.6-1.1-2.6-2.9-3.9-1.8-1.2-2.8-2.3-6.4-4-.3 1.4-1.5 2.6-1.3 3.7.2 1.3.7 2 .7 2.9.1 1-.6 2.4-.2 3.2.4.7 2.4-.6 4.1-.9 1.7-.3 3.1.3 2.4 2.2-.6 1.9-1.5 3.7-1.5 4.5v.1c.4.3 3.5-3.5 5-5.5 0 0 0-.1.1-.1.3-.8.3-1.6 0-2.2z" fill="#762c07" transform="matrix(.1 0 0 .1 136 696)"/><path class="st8" d="M-520.2-6494.4c-.3-.6-1-1.7-.4-5.3.5-3.6.4-5-.4-6.3s-1.5-4-2.5-4-1.5 1-1.1 2.1c.4 1.1 1.1 2.3.9 2.8s-1.9-1-2.9-2.9c-1-1.8-2.1-7.1-3.1-7.1s-3.1 1.5-3.8 4.1-.4 7.2 0 8.8c.4 1.6 4 4.7 5 6.8s2.4 5.1 2.4 5.1l5.9-4.1z" transform="matrix(.1 0 0 .1 136 696)"/><path class="st5" d="M-528.1-6492.8s1.8-2.2 4.1-2.7 3.8-1.1 4.7.3c.9 1.4 1.5 4.7 5.3 9.2s8.2 10.6 8.2 10.6 1.5.4 4.7-.9 6.9-3.5 11.2-2.5c4.2 1 6.8 3 5.8 9.3s-5 12.9-12.9 11c-7.9-1.8-17.3-4.8-18.2-7.3-.9-2.5-6.8-12.4-9.4-18.4-2.3-5.1-3.5-8.6-3.5-8.6z" transform="matrix(.1 0 0 .1 136 696)"/></g></svg>