<svg xmlns="http://www.w3.org/2000/svg" width="157.2" height="192"><style>.st0{fill:#e5e5e5}.st1{fill:#39c}.st2{opacity:.15}.st2,.st3,.st4,.st5{enable-background:new}.st3{opacity:.3}.st3,.st4,.st5{fill:#fff}.st4{opacity:.2}.st5{opacity:.7}.st6{fill:#2d3134}.st7{opacity:.39}.st10,.st11,.st7,.st8,.st9{enable-background:new}.st8{opacity:6.000000e-02}.st9{opacity:.25}.st10{opacity:.11}.st11{opacity:.29}.st12{fill:#656565}.st13{opacity:.2;enable-background:new}.st15{fill:#999}.st16{opacity:.1;enable-background:new}.st17{fill:#762c07}</style><g id="i1235_1_"><path class="st0" d="M-1034.8-744l-64 32v128l64 32 64-32v-128z" transform="translate(1128 744)"/><path class="st1" d="M-970.8-650l-64 32v-14l64-32z" transform="translate(1128 744)"/><path class="st2" d="M-970.8-661l-64 32v-3l64-32z" transform="translate(1128 744)"/><path class="st2" d="M-970.8-663l-64 32v-1l64-32z" transform="translate(1128 744)"/><path class="st3" d="M-975.8-648.5l-4 2v-13l4-2z" transform="translate(1128 744)"/><path class="st4" d="M-970.8-651l-4 2v-13l4-2z" transform="translate(1128 744)"/><path class="st3" d="M-980.8-646l-4 2v-13l4-2z" transform="translate(1128 744)"/><path class="st4" d="M-985.8-643.5l-4 2v-13l4-2zm-5 2.5l-4 2v-13l4-2z" transform="translate(1128 744)"/><path class="st3" d="M-1015.8-628.5l-4 2v-13l4-2zm-5 2.5l-4 2v-13l4-2z" transform="translate(1128 744)"/><path class="st1" d="M-970.8-666l-64 32v-14l64-32z" transform="translate(1128 744)"/><path class="st2" d="M-970.8-677l-64 32v-3l64-32z" transform="translate(1128 744)"/><path class="st2" d="M-970.8-679l-64 32v-1l64-32z" transform="translate(1128 744)"/><path class="st3" d="M-995.8-654.5l-4 2v-13l4-2z" transform="translate(1128 744)"/><path class="st4" d="M-990.8-657l-4 2v-13l4-2z" transform="translate(1128 744)"/><path class="st3" d="M-1000.8-652l-4 2v-13l4-2z" transform="translate(1128 744)"/><path class="st4" d="M-1005.8-649.5l-4 2v-13l4-2zm-5 2.5l-4 2v-13l4-2z" transform="translate(1128 744)"/><path class="st1" d="M-970.8-682l-64 32v-14l64-32z" transform="translate(1128 744)"/><path class="st2" d="M-970.8-693l-64 32v-3l64-32z" transform="translate(1128 744)"/><path class="st2" d="M-970.8-695l-64 32v-1l64-32z" transform="translate(1128 744)"/><path class="st3" d="M-985.8-675.5l-4 2v-13l4-2z" transform="translate(1128 744)"/><path class="st4" d="M-990.8-673l-4 2v-13l4-2zm-5 2.5l-4 2v-13l4-2z" transform="translate(1128 744)"/><path class="st3" d="M-1025.8-655.5l-4 2v-13l4-2zm-5 2.5l-4 2v-13l4-2z" transform="translate(1128 744)"/><path class="st1" d="M-970.8-698l-64 32v-14l64-32z" transform="translate(1128 744)"/><path class="st2" d="M-970.8-709l-64 32v-3l64-32z" transform="translate(1128 744)"/><path class="st2" d="M-970.8-711l-64 32v-1l64-32z" transform="translate(1128 744)"/><path class="st3" d="M-980.8-694l-4 2v-13l4-2z" transform="translate(1128 744)"/><path class="st4" d="M-975.8-696.5l-4 2v-13l4-2z" transform="translate(1128 744)"/><path class="st3" d="M-1005.8-681.5l-4 2v-13l4-2z" transform="translate(1128 744)"/><path class="st4" d="M-1010.8-679l-4 2v-13l4-2zm-5 2.5l-4 2v-13l4-2z" transform="translate(1128 744)"/><path class="st5" d="M-1029.8-619.5l-1 .5v-63l1-.5zm5-2.5l-1 .5v-63l1-.5zm5-2.5l-1 .5v-63l1-.5zm5-2.5l-1 .5v-63l1-.5zm5-2.5l-1 .5v-63l1-.5zm5-2.5l-1 .5v-63l1-.5zm5-2.5l-1 .5v-63l1-.5zm5-2.5l-1 .5v-63l1-.5zm5-2.5l-1 .5v-63l1-.5zm5-2.5l-1 .5v-63l1-.5zm5-2.5l-1 .5v-63l1-.5zm5-2.5l-1 .5v-63l1-.5z" transform="translate(1128 744)"/><path class="st0" d="M-970.8-648l-64 32v-3l64-32zm0-16l-64 32v-3l64-32zm0-16l-64 32v-3l64-32zm0-16l-64 32v-3l64-32z" transform="translate(1128 744)"/><path class="st1" d="M-1034.8-618l-64-32v-14l64 32z" transform="translate(1128 744)"/><path class="st2" d="M-1034.8-629l-64-32v-3l64 32z" transform="translate(1128 744)"/><path class="st2" d="M-1034.8-631l-64-32v-1l64 32z" transform="translate(1128 744)"/><path class="st4" d="M-1034.8-619l-4-2v-13l4 2zm-5-2.5l-4-2v-13l4 2zm-5-2.5l-4-2v-13l4 2z" transform="translate(1128 744)"/><path class="st3" d="M-1079.8-641.5l-4-2v-13l4 2zm5 2.5l-4-2v-13l4 2zm-10-5l-4-2v-13l4 2z" transform="translate(1128 744)"/><path class="st1" d="M-1034.8-634l-64-32v-14l64 32z" transform="translate(1128 744)"/><path class="st2" d="M-1034.8-645l-64-32v-3l64 32z" transform="translate(1128 744)"/><path class="st2" d="M-1034.8-647l-64-32v-1l64 32z" transform="translate(1128 744)"/><path class="st3" d="M-1059.8-647.5l-4-2v-13l4 2z" transform="translate(1128 744)"/><path class="st4" d="M-1054.8-645l-4-2v-13l4 2z" transform="translate(1128 744)"/><path class="st3" d="M-1064.8-650l-4-2v-13l4 2z" transform="translate(1128 744)"/><path class="st4" d="M-1084.8-660l-4-2v-13l4 2zm-5-2.5l-4-2v-13l4 2z" transform="translate(1128 744)"/><path class="st1" d="M-1034.8-650l-64-32v-14l64 32z" transform="translate(1128 744)"/><path class="st2" d="M-1034.8-661l-64-32v-3l64 32z" transform="translate(1128 744)"/><path class="st2" d="M-1034.8-663l-64-32v-1l64 32z" transform="translate(1128 744)"/><path class="st3" d="M-1044.8-656l-4-2v-13l4 2z" transform="translate(1128 744)"/><path class="st4" d="M-1049.8-658.5l-4-2v-13l4 2zm-5-2.5l-4-2v-13l4 2z" transform="translate(1128 744)"/><path class="st3" d="M-1089.8-678.5l-4-2v-13l4 2zm-5-2.5l-4-2v-13l4 2z" transform="translate(1128 744)"/><path class="st1" d="M-1034.8-666l-64-32v-14l64 32z" transform="translate(1128 744)"/><path class="st2" d="M-1034.8-677l-64-32v-3l64 32z" transform="translate(1128 744)"/><path class="st2" d="M-1034.8-679l-64-32v-1l64 32z" transform="translate(1128 744)"/><path class="st3" d="M-1039.8-669.5l-4-2v-13l4 2z" transform="translate(1128 744)"/><path class="st4" d="M-1034.8-667l-4-2v-13l4 2z" transform="translate(1128 744)"/><path class="st3" d="M-1069.8-684.5l-4-2v-13l4 2zm5 2.5l-4-2v-13l4 2z" transform="translate(1128 744)"/><path class="st4" d="M-1074.8-687l-4-2v-13l4 2zm-5-2.5l-4-2v-13l4 2z" transform="translate(1128 744)"/><path class="st5" d="M-1093.8-646.5l-1-.5v-63l1 .5zm5 2.5l-1-.5v-63l1 .5zm5 2.5l-1-.5v-63l1 .5zm5 2.5l-1-.5v-63l1 .5zm5 2.5l-1-.5v-63l1 .5zm5 2.5l-1-.5v-63l1 .5zm5 2.5l-1-.5v-63l1 .5zm5 2.5l-1-.5v-63l1 .5zm5 2.5l-1-.5v-63l1 .5zm5 2.5l-1-.5v-63l1 .5zm5 2.5l-1-.5v-63l1 .5zm5 2.5l-1-.5v-63l1 .5z" transform="translate(1128 744)"/><path class="st0" d="M-1034.8-616l-64-32v-3l64 32zm0-16l-64-32v-3l64 32zm0-16l-64-32v-3l64 32zm0-16l-64-32v-3l64 32z" transform="translate(1128 744)"/><path class="st2" d="M-1034.8-580.2l-64-32.1v-.7l64 32z" transform="translate(1128 744)"/><path class="st1" d="M-1034.8-586l-64-32v-15l64 32z" transform="translate(1128 744)"/><path class="st2" d="M-1034.8-597l-64-32v-4l64 32z" transform="translate(1128 744)"/><path class="st2" d="M-1034.8-599l-64-32v-2l64 32z" transform="translate(1128 744)"/><path class="st1" d="M-1034.8-602l-64-32v-14l64 32z" transform="translate(1128 744)"/><path class="st2" d="M-1034.8-613l-64-32v-3l64 32z" transform="translate(1128 744)"/><path class="st2" d="M-1034.8-615l-64-32v-1l64 32z" transform="translate(1128 744)"/><path class="st6" d="M-1034.8-581l-64-32v-6l64 32z" transform="translate(1128 744)"/><path class="st1" d="M-1083.8-576.5l-11-5.5v-27l11 5.5zm15 7.5l-11-5.5v-27l11 5.5zm15 7.5l-11-5.5v-27l11 5.5zm15 7.5l-11-5.5v-27l11 5.5z" transform="translate(1128 744)"/><path class="st2" d="M-1083.8-599.5l-11-5.5v-4l11 5.5zm15 7.5l-11-5.5v-4l11 5.5zm15 7.5l-11-5.5v-4l11 5.5zm15 7.5l-11-5.5v-4l11 5.5z" transform="translate(1128 744)"/><path class="st2" d="M-1083.8-601.5l-11-5.5v-2l11 5.5zm15 7.5l-11-5.5v-2l11 5.5zm15 7.5l-11-5.5v-2l11 5.5zm15 7.5l-11-5.5v-2l11 5.5z" transform="translate(1128 744)"/><path class="st2" d="M-1083.8-602.5l-11-5.5v-1l11 5.5zm15 7.5l-11-5.5v-1l11 5.5zm15 7.5l-11-5.5v-1l11 5.5zm15 7.5l-11-5.5v-1l11 5.5z" transform="translate(1128 744)"/><path class="st5" d="M-1093.8-616.5l-1-.5v-29l1 .5zm5 2.5l-1-.5v-29l1 .5zm5 2.5l-1-.5v-29l1 .5zm5 2.5l-1-.5v-29l1 .5zm5 2.5l-1-.5v-29l1 .5zm5 2.5l-1-.5v-29l1 .5zm5 2.5l-1-.5v-29l1 .5zm5 2.5l-1-.5v-29l1 .5zm5 2.5l-1-.5v-29l1 .5zm5 2.5l-1-.5v-29l1 .5zm5 2.5l-1-.5v-29l1 .5zm5 2.5l-1-.5v-29l1 .5zm-45-2.5l-3-1.5v-12l-1-.5v12l-3-1.5v-12l-1-.5v12l-3-1.5v1l3 1.5v14l1 .5v-14l3 1.5v14l1 .5v-14l3 1.5zm15 7.5l-3-1.5v-12l-1-.5v12l-3-1.5v-12l-1-.5v12l-3-1.5v1l3 1.5v14l1 .5v-14l3 1.5v14l1 .5v-14l3 1.5zm15 7.5l-3-1.5v-12l-1-.5v12l-3-1.5v-12l-1-.5v12l-3-1.5v1l3 1.5v14l1 .5v-14l3 1.5v14l1 .5v-14l3 1.5zm15 7.5l-3-1.5v-12l-1-.5v12l-3-1.5v-12l-1-.5v12l-3-1.5v1l3 1.5v14l1 .5v-14l3 1.5v14l1 .5v-14l3 1.5z" transform="translate(1128 744)"/><path class="st0" d="M-1034.8-600l-64-32v-3l64 32z" transform="translate(1128 744)"/><path class="st4" d="M-1039.8-589.5l-4-2v-13l4 2z" transform="translate(1128 744)"/><path class="st3" d="M-1034.8-587l-4-2v-13l4 2z" transform="translate(1128 744)"/><path class="st4" d="M-1044.8-592l-4-2v-13l4 2z" transform="translate(1128 744)"/><path class="st3" d="M-1049.8-594.5l-4-2v-13l4 2zm-30-15l-4-2v-13l4 2zm-5-2.5l-4-2v-13l4 2zm25-3.5l-4-2v-13l4 2z" transform="translate(1128 744)"/><path class="st4" d="M-1054.8-613l-4-2v-13l4 2z" transform="translate(1128 744)"/><path class="st3" d="M-1064.8-618l-4-2v-13l4 2z" transform="translate(1128 744)"/><path class="st4" d="M-1069.8-620.5l-4-2v-13l4 2zm-5-2.5l-4-2v-13l4 2z" transform="translate(1128 744)"/><path class="st2" d="M-970.8-612.3l-64 32.1v-.8l64-32z" transform="translate(1128 744)"/><path class="st1" d="M-970.8-618l-64 32v-15l64-32z" transform="translate(1128 744)"/><path class="st2" d="M-970.8-629l-64 32v-4l64-32z" transform="translate(1128 744)"/><path class="st2" d="M-970.8-631l-64 32v-2l64-32z" transform="translate(1128 744)"/><path class="st1" d="M-970.8-634l-64 32v-14l64-32z" transform="translate(1128 744)"/><path class="st2" d="M-970.8-645l-64 32v-3l64-32z" transform="translate(1128 744)"/><path class="st2" d="M-970.8-647l-64 32v-1l64-32z" transform="translate(1128 744)"/><path class="st6" d="M-970.8-613l-64 32v-6l64-32z" transform="translate(1128 744)"/><path class="st1" d="M-1019.8-559.5l-11 5.5v-27l11-5.5zm15-7.5l-11 5.5v-27l11-5.5zm15-7.5l-11 5.5v-27l11-5.5zm15-7.5l-11 5.5v-27l11-5.5z" transform="translate(1128 744)"/><path class="st2" d="M-1019.8-582.5l-11 5.5v-4l11-5.5zm15-7.5l-11 5.5v-4l11-5.5zm15-7.5l-11 5.5v-4l11-5.5zm15-7.5l-11 5.5v-4l11-5.5z" transform="translate(1128 744)"/><path class="st2" d="M-1019.8-584.5l-11 5.5v-2l11-5.5zm15-7.5l-11 5.5v-2l11-5.5zm15-7.5l-11 5.5v-2l11-5.5zm15-7.5l-11 5.5v-2l11-5.5z" transform="translate(1128 744)"/><path class="st2" d="M-1019.8-585.5l-11 5.5v-1l11-5.5zm15-7.5l-11 5.5v-1l11-5.5zm15-7.5l-11 5.5v-1l11-5.5zm15-7.5l-11 5.5v-1l11-5.5z" transform="translate(1128 744)"/><path class="st5" d="M-1029.8-589.5l-1 .5v-29l1-.5zm5-2.5l-1 .5v-29l1-.5zm5-2.5l-1 .5v-29l1-.5zm5-2.5l-1 .5v-29l1-.5zm5-2.5l-1 .5v-29l1-.5zm5-2.5l-1 .5v-29l1-.5zm5-2.5l-1 .5v-29l1-.5zm5-2.5l-1 .5v-29l1-.5zm5-2.5l-1 .5v-29l1-.5zm5-2.5l-1 .5v-29l1-.5zm5-2.5l-1 .5v-29l1-.5zm5-2.5l-1 .5v-29l1-.5zm-45 42.5l-3 1.5v-12l-1 .5v12l-3 1.5v-12l-1 .5v12l-3 1.5v1l3-1.5v14l1-.5v-14l3-1.5v14l1-.5v-14l3-1.5zm15-7.5l-3 1.5v-12l-1 .5v12l-3 1.5v-12l-1 .5v12l-3 1.5v1l3-1.5v14l1-.5v-14l3-1.5v14l1-.5v-14l3-1.5zm15-7.5l-3 1.5v-12l-1 .5v12l-3 1.5v-12l-1 .5v12l-3 1.5v1l3-1.5v14l1-.5v-14l3-1.5v14l1-.5v-14l3-1.5zm15-7.5l-3 1.5v-12l-1 .5v12l-3 1.5v-12l-1 .5v12l-3 1.5v1l3-1.5v14l1-.5v-14l3-1.5v14l1-.5v-14l3-1.5z" transform="translate(1128 744)"/><path class="st0" d="M-970.8-632l-64 32v-3l64-32z" transform="translate(1128 744)"/><path class="st4" d="M-975.8-616.5l-4 2v-13l4-2z" transform="translate(1128 744)"/><path class="st3" d="M-970.8-619l-4 2v-13l4-2z" transform="translate(1128 744)"/><path class="st4" d="M-980.8-614l-4 2v-13l4-2z" transform="translate(1128 744)"/><path class="st3" d="M-995.8-606.5l-4 2v-13l4-2zm-5 2.5l-4 2v-13l4-2zm-20 10l-4 2v-13l4-2zm25-28.5l-4 2v-13l4-2z" transform="translate(1128 744)"/><path class="st4" d="M-990.8-625l-4 2v-13l4-2z" transform="translate(1128 744)"/><path class="st3" d="M-1000.8-620l-4 2v-13l4-2z" transform="translate(1128 744)"/><path class="st4" d="M-1005.8-617.5l-4 2v-13l4-2zm-5 2.5l-4 2v-13l4-2z" transform="translate(1128 744)"/><path class="st3" d="M-1025.8-607.5l-4 2v-13l4-2zm-5 2.5l-4 2v-13l4-2z" transform="translate(1128 744)"/><path class="st7" d="M-1034.8-680v128l64-32v-128z" transform="translate(1128 744)"/><path class="st8" d="M-1098.8-712v128l64 32v-128z" transform="translate(1128 744)"/><path class="st9" d="M-1089.9-712l55.1-27.5 55.1 27.5-55.1 27.5z" transform="translate(1128 744)"/><path class="st7" d="M-1034.8-737.5v-2l-55.1 27.5 2 1z" transform="translate(1128 744)"/><path class="st8" d="M-1034.8-737.5l53.1 26.5 2-1-55.1-27.5z" transform="translate(1128 744)"/><path class="st0" d="M-1040.8-731l-12 6v4l12 6 12-6v-4z" transform="translate(1128 744)"/><path class="st7" d="M-1028.8-721l-12 6v-4l12-6z" transform="translate(1128 744)"/><path class="st8" d="M-1052.8-721l12 6v-4l-12-6z" transform="translate(1128 744)"/><path class="st0" d="M-1016.8-724l-20 10v6l20 10 20-10v-6z" transform="translate(1128 744)"/><path class="st7" d="M-996.8-708l-20 10v-6l20-10z" transform="translate(1128 744)"/><path class="st8" d="M-1036.8-708l20 10v-6l-20-10z" transform="translate(1128 744)"/><path class="st9" d="M-1016.8-720l12 6-12 6-12-6z" transform="translate(1128 744)"/></g><g transform="matrix(.1 0 0 .1 1096 872)" id="i2286_1_"><path class="st6" d="M-10866.8-7275.8l-5.2-2.6v-2l9.1-4.5 5.2 2.6v1.9z"/><path class="st10" d="M-10872-7280.4v2l5.2 2.6v-2z"/><path class="st1" d="M-10857.7-7282.3v1.9l-9.1 4.6v-2z"/><path class="st11" d="M-10857.7-7282.3v1.9l-9.1 4.6v-2z"/><path class="st1" d="M-10922.4-7309.2l-1.3-.6c5.9-10.8 14.6-27.7 15-29.9.2-.8-.1-1.1-.2-1.2-.5-.6-1.7-.8-2-.8l.1-2.3c.2 0 2.4.1 3.6 1.7.5.6.9 1.6.6 3.1-.5 3.3-14.3 27.3-15.8 30zm107.2 55.5c-.2 0-.4 0-.5-.1l-45.5-22.2c-.6-.3-.9-1.1-.6-1.7.3-.6 1.1-.9 1.7-.6l40.5 19.7-34.1-42.6c-.4-.5-.3-1.3.2-1.8.5-.4 1.3-.3 1.8.2l37.6 46.9c.4.5.4 1.1 0 1.6-.3.4-.7.6-1.1.6z"/><ellipse transform="rotate(-26.556 -10813.32 -7255.117)" class="st12" cx="-10813.2" cy="-7255.5" rx="4.5" ry="7.7"/><ellipse transform="rotate(-26.556 -10813.32 -7255.117)" class="st13" cx="-10813.2" cy="-7255.5" rx="4.5" ry="7.7"/><path class="st12" d="M-10857.7-7266.2c-3.8 0-8.2-3.6-10.9-9-3.4-6.8-2.9-13.6 1.2-15.7.7-.4 1.5-.5 2.4-.5 3.8 0 8.2 3.6 10.9 9 3.4 6.8 2.9 13.6-1.2 15.7-.8.3-1.6.5-2.4.5zm-7.3-23.9c-.6 0-1.2.1-1.8.4-3.3 1.7-3.6 7.9-.6 13.9 2.4 4.9 6.4 8.3 9.7 8.3.6 0 1.2-.1 1.8-.4 3.3-1.7 3.6-7.9.6-13.9-2.4-4.9-6.4-8.3-9.7-8.3z"/><path class="st12" d="M-10858.1-7268.3c-3 0-6.7-3.2-9-7.8-2.9-5.7-2.7-11.4.4-13 .5-.3 1.1-.4 1.7-.4 3 0 6.7 3.2 9 7.8 2.9 5.7 2.7 11.4-.4 13-.6.3-1.1.4-1.7.4zm-6.9-20.1c-.4 0-.8.1-1.2.3-2.5 1.3-2.5 6.6 0 11.6 2.1 4.2 5.5 7.3 8.1 7.3.4 0 .8-.1 1.2-.3 2.5-1.3 2.5-6.6 0-11.6-2.1-4.3-5.5-7.3-8.1-7.3z"/><ellipse transform="rotate(-26.556 -10861.813 -7277.92)" class="st12" cx="-10861.7" cy="-7278.3" rx="2.9" ry="4.6"/><path class="st13" d="M-10857.7-7266.2c-3.8 0-8.2-3.6-10.9-9-3.4-6.8-2.9-13.6 1.2-15.7.7-.4 1.5-.5 2.4-.5 3.8 0 8.2 3.6 10.9 9 3.4 6.8 2.9 13.6-1.2 15.7-.8.3-1.6.5-2.4.5zm-7.3-23.9c-.6 0-1.2.1-1.8.4-3.3 1.7-3.6 7.9-.6 13.9 2.4 4.9 6.4 8.3 9.7 8.3.6 0 1.2-.1 1.8-.4 3.3-1.7 3.6-7.9.6-13.9-2.4-4.9-6.4-8.3-9.7-8.3z"/><path class="st13" d="M-10858.1-7268.3c-3 0-6.7-3.2-9-7.8-2.9-5.7-2.7-11.4.4-13 .5-.3 1.1-.4 1.7-.4 3 0 6.7 3.2 9 7.8 2.9 5.7 2.7 11.4-.4 13-.6.3-1.1.4-1.7.4zm-6.9-20.1c-.4 0-.8.1-1.2.3-2.5 1.3-2.5 6.6 0 11.6 2.1 4.2 5.5 7.3 8.1 7.3.4 0 .8-.1 1.2-.3 2.5-1.3 2.5-6.6 0-11.6-2.1-4.3-5.5-7.3-8.1-7.3z"/><ellipse transform="rotate(-26.556 -10861.813 -7277.92)" class="st13" cx="-10861.7" cy="-7278.3" rx="2.9" ry="4.6"/><path d="M-10809.2-7257.5c-1.2-2.5-3.1-4-4.8-4.9l-46.9-27.7h-.1l-1-.5c-1-.5-2.1-.7-3-.7-.9 0-1.6.2-2.4.5-4.1 2-4.6 8.9-1.2 15.7 2.1 4.1 5.1 7.2 8.1 8.4l47.7 18c1.1.5 2.1.6 3 .1 2.2-1.1 2.5-5.1.6-8.9z" fill="none" stroke="#2d3134" stroke-width=".976" stroke-miterlimit="10"/><path class="st13" d="M-10948.5-7278.4l6.7-3.6 141.4 71.3-6.7 3.6z"/><path class="st12" d="M-10838.4-7244c-9.3-18.6-8.7-38.1.9-45.1-.9.2-1.8.6-2.6 1-11.5 5.7-12.8 26.5-2.8 46.3 9.9 19.8 27.2 31.2 38.7 25.5.7-.3 1.3-.7 1.9-1.2-11.4 3.1-26.9-8.1-36.1-26.5z"/><path class="st13" d="M-10838.4-7244c-9.3-18.6-8.7-38.1.9-45.1-.9.2-1.8.6-2.6 1-11.5 5.7-12.8 26.5-2.8 46.3 9.9 19.8 27.2 31.2 38.7 25.5.7-.3 1.3-.7 1.9-1.2-11.4 3.1-26.9-8.1-36.1-26.5z"/><path class="st6" d="M-10817.1-7218.2h-.2l3.3-37 1.9-25.8.2.1-1.8 25.7z"/><path class="st6" d="M-10798.4-7218.5l-15.6-36.7-14.3-35.1.2-.1 14.4 35.2 15.5 36.7z"/><path class="st6" d="M-10831.1-7230.1l-.2-.2 17.4-25 10.3-14.3.2.1-10.4 14.4z"/><path class="st6" d="M-10792.9-7233.7l-21-21.4-30.4-27.4.2-.2 30.3 27.4 21.1 21.4z"/><path class="st6" d="M-10793.5-7246.4l-20.4-8.7-33.2-13.7v-.2l33.3 13.7 20.4 8.7z"/><path class="st6" d="M-10813.8-7255.1l-30.7-.4v-.2l30.7.4 19.4-.1v.3z"/><path class="st6" d="M-10839.2-7241.5l-.1-.2 25.4-13.6 13.6-7.5.1.2-13.6 7.5z"/><ellipse transform="rotate(-26.556 -10814.123 -7254.905)" class="st15" cx="-10814" cy="-7255.3" rx="2.1" ry="3.6"/><path class="st15" d="M-10824.3-7252.9l8.5-4.3c1.2-.6 1.8.3 2.4 1.5.6 1.2.9 2.2-.3 2.8l-8.5 4.3-2.1-4.3z"/><path class="st13" d="M-10813.2-7255.2c-.1.2-.3.4-.7.6l-8.5 4.3-1.4-2.9-.5.3 2.1 4.3 8.5-4.3c1-.5.9-1.4.5-2.3z"/><path class="st6" d="M-10823.9-7222.6h-.2l.1-28 1.8-35.2.3.1-1.8 35.1z"/><path class="st6" d="M-10812.1-7216.8l-11.8-33.7-9.3-39.1.2-.1 9.3 39.1 11.8 33.8z"/><path class="st6" d="M-10835.6-7234l-.2-.1 11.9-16.5 14.8-23.6.1.1-14.7 23.6z"/><path class="st6" d="M-10802-7217.7l-21.9-32.8-18.4-34.9.2-.1 18.4 34.9 21.9 32.8z"/><path class="st6" d="M-10795.1-7224.5l-28.8-26-23.9-26.4.1-.1 23.9 26.4 28.8 25.9z"/><path class="st6" d="M-10793.2-7236.5l-30.7-14-24.6-13 .2-.2 24.5 13 30.7 14z"/><path class="st6" d="M-10844.2-7248.2v-.3l20.3-2.2 27.5-4 .1.2-27.5 4.1z"/><path class="st6" d="M-10794.7-7265.9c-11.1-22.2-31.3-34.7-45-27.8-13.8 6.9-15.9 30.5-4.8 52.7 11.1 22.2 31.3 34.7 45 27.8 13.7-6.9 15.9-30.5 4.8-52.7zm-9.5 49.6c-11.5 5.7-28.8-5.7-38.7-25.5-9.9-19.8-8.6-40.5 2.8-46.3 11.5-5.7 28.8 5.7 38.7 25.5 9.9 19.8 8.7 40.6-2.8 46.3z"/><path class="st15" d="M-10810.7-7214.3c-5.4 0-11.6-2.7-17.4-7.5-6-4.9-11.2-11.8-15.2-19.8-10-20-8.6-41.1 3.1-46.9 2-1 4.3-1.5 6.7-1.5 5.4 0 11.6 2.7 17.4 7.5 6 4.9 11.2 11.8 15.2 19.8 10 20 8.6 41.1-3.1 46.9-2 .9-4.3 1.5-6.7 1.5zm-22.9-74.8c-2.3 0-4.4.5-6.3 1.4-11.2 5.6-12.4 26.1-2.6 45.6 7.9 15.7 20.9 26.7 31.8 26.7 2.3 0 4.4-.5 6.3-1.4 11.2-5.6 12.4-26.1 2.6-45.6-7.9-15.7-20.9-26.7-31.8-26.7z"/><ellipse transform="rotate(-26.556 -10823.913 -7250.091)" class="st15" cx="-10823.8" cy="-7250.5" rx="2.1" ry="3.6"/><path class="st12" d="M-10946.7-7298.3c-9.3-18.6-8.7-38.1.9-45.1-.9.2-1.8.6-2.6 1-11.5 5.7-12.8 26.5-2.8 46.3 9.9 19.8 27.2 31.2 38.7 25.5.7-.3 1.3-.7 1.9-1.2-11.4 3-26.9-8.1-36.1-26.5z"/><path class="st13" d="M-10946.7-7298.3c-9.3-18.6-8.7-38.1.9-45.1-.9.2-1.8.6-2.6 1-11.5 5.7-12.8 26.5-2.8 46.3 9.9 19.8 27.2 31.2 38.7 25.5.7-.3 1.3-.7 1.9-1.2-11.4 3-26.9-8.1-36.1-26.5z"/><path class="st6" d="M-10925.4-7272.5h-.2l3.3-37 1.9-25.8h.2l-1.8 25.8z"/><path class="st6" d="M-10906.7-7272.8l-15.6-36.7-14.3-35.1.2-.1 14.3 35.1 15.6 36.7z"/><path class="st6" d="M-10939.4-7284.5l-.2-.1 17.4-25 10.3-14.3.2.1-10.4 14.3z"/><path class="st6" d="M-10901.2-7288l-21-21.4-30.4-27.4.2-.2 30.3 27.4 21.1 21.4z"/><path class="st6" d="M-10901.8-7300.7l-20.4-8.7-33.3-13.7.1-.2 33.3 13.7 20.4 8.7z"/><path class="st6" d="M-10922.2-7309.4l-30.6-.4v-.2l30.6.4 19.5-.1v.2z"/><path class="st6" d="M-10947.5-7295.8l-.2-.2 25.5-13.6 13.6-7.5.1.2-13.6 7.5z"/><ellipse transform="rotate(-26.556 -10922.419 -7309.211)" class="st15" cx="-10922.3" cy="-7309.6" rx="2.1" ry="3.6"/><path class="st15" d="M-10932.6-7307.2l8.5-4.3c1.2-.6 1.8.3 2.4 1.5.6 1.2.9 2.2-.3 2.8l-8.5 4.3-2.1-4.3z"/><path class="st13" d="M-10921.5-7309.5c-.1.2-.3.4-.7.6l-8.5 4.3-1.4-2.9-.5.3 2.1 4.3 8.5-4.3c1-.6.9-1.4.5-2.3z"/><path class="st6" d="M-10932.2-7277h-.2l.1-27.9 1.8-35.2h.3l-1.8 35.2z"/><path class="st6" d="M-10920.4-7271.1l-11.9-33.7-9.2-39.1.2-.1 9.3 39.1 11.8 33.8z"/><path class="st6" d="M-10943.9-7288.3l-.2-.1 11.9-16.5 14.7-23.6.2.1-14.7 23.6z"/><path class="st6" d="M-10910.3-7272l-21.9-32.8-18.4-34.9.2-.1 18.4 34.9 21.9 32.8z"/><path class="st6" d="M-10903.4-7278.8l-28.8-26-23.9-26.4.1-.2 23.9 26.4 28.8 26z"/><path class="st6" d="M-10901.5-7290.8l-30.7-14-24.6-13 .1-.2 24.6 13 30.7 13.9z"/><path class="st6" d="M-10952.5-7302.5v-.3l20.3-2.2 27.5-4v.2l-27.4 4z"/><path class="st6" d="M-10903-7320.2c-11.1-22.2-31.3-34.7-45.1-27.8s-15.9 30.5-4.8 52.7c11.1 22.2 31.3 34.7 45 27.8 13.8-6.9 16-30.5 4.9-52.7zm-9.5 49.6c-11.5 5.7-28.8-5.7-38.7-25.5-9.9-19.8-8.6-40.5 2.8-46.3 11.5-5.7 28.8 5.7 38.7 25.5 9.9 19.8 8.7 40.5-2.8 46.3z"/><path class="st15" d="M-10919-7268.7c-5.4 0-11.6-2.7-17.4-7.5-6-4.9-11.2-11.8-15.2-19.8-10-20-8.6-41.1 3.1-46.9 2-1 4.3-1.5 6.7-1.5 5.4 0 11.6 2.7 17.4 7.5 6 4.9 11.2 11.8 15.2 19.8 10 20 8.6 41.1-3.1 46.9-2 1-4.3 1.5-6.7 1.5zm-22.9-74.7c-2.3 0-4.4.5-6.3 1.4-11.2 5.6-12.4 26.1-2.6 45.6 7.9 15.7 20.9 26.7 31.8 26.7 2.3 0 4.4-.5 6.3-1.4 11.2-5.6 12.4-26.1 2.6-45.6-7.9-15.7-20.9-26.7-31.8-26.7z"/><ellipse transform="rotate(-26.556 -10932.21 -7304.396)" class="st15" cx="-10932.1" cy="-7304.8" rx="2.1" ry="3.6"/><path class="st1" d="M-10843.2-7328.7c.4-.2.7-.2.9-.1l4.4 2.2c.3.1.4.4.4.8 0 .8-.6 1.7-1.4 2-.4.2-.7.2-1 .1 0 0-4.4-2.2-4.5-2.3-.2-.1-.4-.4-.4-.7.3-.7.9-1.6 1.6-2z"/><path class="st10" d="M-10839.7-7323.6c-.1 0-4.4-2.2-4.5-2.3-.2-.1-.4-.4-.4-.7 0-.3.1-.6.3-.9l4.4 2.2c-.2.3-.3.6-.3.9.1.4.3.6.5.8z"/><path class="st10" d="M-10840.1-7324.4c0 .8.6 1.1 1.4.7.8-.4 1.4-1.3 1.4-2 0-.8-.6-1.1-1.4-.7-.8.3-1.4 1.3-1.4 2z"/><path class="st1" d="M-10861.9-7280.8c-.7-.4-1.4-.4-1.9-.2l-6 3.1c-.5.2-.8.8-.8 1.5 0 1.5 1.2 3.3 2.7 4.1.7.4 1.4.4 1.9.2 0 0 6-3.1 6.2-3.2.4-.3.7-.8.7-1.5-.1-1.4-1.3-3.3-2.8-4z"/><path class="st13" d="M-10866-7272.2c.2-.1 6-3.1 6.1-3.1.4-.3.7-.8.7-1.5 0-.6-.2-1.3-.5-1.9l-6 3.1c.3.6.5 1.3.5 1.9 0 .8-.3 1.3-.8 1.5z"/><path class="st16" d="M-10865.2-7273.7c0 1.5-1.2 2.1-2.7 1.4-1.5-.7-2.7-2.6-2.7-4.1s1.2-2.1 2.7-1.4c1.5.7 2.7 2.7 2.7 4.1z"/><path class="st17" d="M-10889.2-7374.3c-.5-.2-.9-.3-1.2-.1l-10.2 5c-.3.2-.6.5-.6 1 0 1 .8 2.2 1.8 2.6.5.2.9.3 1.2.1 0 0 10.2-5 10.3-5 .3-.2.5-.5.5-1 0-.9-.8-2.1-1.8-2.6z"/><path class="st13" d="M-10898.1-7365.7c.1-.1 10.2-5 10.2-5 .3-.2.5-.5.5-1 0-.4-.1-.8-.3-1.2l-10.2 5c.2.4.3.8.3 1.2 0 .5-.2.9-.5 1z"/><path class="st10" d="M-10897.6-7366.7c0 1-.8 1.4-1.8.9s-1.7-1.6-1.7-2.6.8-1.4 1.8-.9 1.7 1.7 1.7 2.6z"/><path class="st17" d="M-10898.3-7370.6c-.7-.3-1.3-.4-1.7-.2l-1.9.9c-.5.2-.8.7-.8 1.4 0 1.4 1.1 3 2.5 3.7.7.3 1.3.4 1.7.2 0 0 1.9-.9 2-1 .4-.2.6-.7.6-1.3 0-1.4-1.1-3-2.4-3.7z"/><path class="st13" d="M-10898.4-7364.6c.2-.1 1.8-.9 1.9-1 .4-.2.6-.7.6-1.3 0-.5-.2-1.1-.5-1.7l-1.9.9c.3.6.5 1.2.5 1.7.1.7-.2 1.2-.6 1.4z"/><path class="st16" d="M-10897.7-7366c0 1.4-1.1 1.9-2.5 1.2s-2.5-2.3-2.5-3.7 1.1-1.9 2.5-1.2 2.5 2.3 2.5 3.7z"/><path class="st12" d="M-10923.9-7353.4c-.6 0-1.2-.3-1.5-.9-.4-.8-.1-1.9.8-2.3l23.4-11.7c.8-.4 1.9-.1 2.3.8.4.8.1 1.9-.8 2.3l-23.5 11.6c-.2.1-.5.2-.7.2z"/><path class="st13" d="M-10899-7367.6l-.1-.1c-.2.3-.4.6-.8.8l-23.4 11.7c-.2.1-.5.2-.8.2-.6 0-1.1-.3-1.4-.8-.2.5-.2 1 0 1.5.3.6.9.9 1.5.9.3 0 .5-.1.8-.2l23.4-11.7c.9-.4 1.2-1.4.8-2.3z"/><path class="st17" d="M-10917.2-7361.2c-.7-.3-1.3-.4-1.7-.2l-1.9.9c-.5.2-.8.7-.8 1.4 0 1.4 1.1 3 2.5 3.7.7.3 1.3.4 1.7.2 0 0 1.9-.9 2-1 .4-.2.6-.7.6-1.3 0-1.3-1.1-3-2.4-3.7z"/><path class="st13" d="M-10917.3-7355.2c.2-.1 1.8-.9 1.9-1 .4-.2.6-.7.6-1.3 0-.5-.2-1.1-.5-1.7l-1.8 1c.3.6.5 1.2.5 1.7 0 .6-.3 1.1-.7 1.3z"/><path class="st16" d="M-10916.6-7356.5c0 1.4-1.1 1.9-2.5 1.2s-2.5-2.3-2.5-3.7 1.1-1.9 2.5-1.2 2.5 2.3 2.5 3.7z"/><path class="st17" d="M-10919.3-7359.4c-.5-.2-.9-.3-1.2-.1l-10.2 5c-.3.2-.6.5-.6 1 0 1 .8 2.2 1.8 2.6.5.2.9.3 1.2.1 0 0 10.2-5 10.3-5 .3-.2.5-.5.5-1-.1-1-.9-2.2-1.8-2.6z"/><path class="st13" d="M-10928.3-7350.8c.1-.1 10.2-5 10.2-5 .3-.2.5-.5.5-1 0-.4-.1-.8-.3-1.2l-10.2 5c.2.4.3.8.3 1.2 0 .5-.2.8-.5 1z"/><path class="st16" d="M-10927.8-7351.8c0 1-.8 1.4-1.8.9s-1.8-1.7-1.8-2.6.8-1.4 1.8-.9 1.8 1.6 1.8 2.6z"/><path transform="rotate(-69.714 -10856.668 -7296.396)" class="st1" d="M-10876.3-7298.5h39.3v3.6h-39.3z"/><path class="st1" d="M-10932.1-7304.7c-.4-.1-.6-.6-.4-1 1.9-4.7 12-29.8 13.4-32.1 2.8-4.8 7.9-6 8.1-6l.5 2.2-.3-1.1.3 1.1s-4.3 1.1-6.6 5c-1.1 1.9-10.3 22.7-14 31.5-.2.4-.6.6-1 .4zm63.9 26.1l-37.7-73.3c-.4-.9-.1-1.9.8-2.4.9-.4 1.9-.1 2.4.8l37.8 73.3-3.3 1.6z"/><path class="st1" d="M-10909.3-7341.6l-3.1-1 6.6-18.9 2.9 1.7z"/><path class="st1" d="M-10908.6-7363.5c.4-.2.7-.2.9-.1l4.4 2.2c.3.1.4.4.4.8 0 .7-.6 1.7-1.3 2-.4.2-.7.2-.9.1 0 0-4.4-2.2-4.5-2.3-.2-.1-.4-.4-.4-.7.1-.7.7-1.6 1.4-2zm52.6 60.6l-50.3-49.5c-.7-.7-.7-1.8 0-2.5s1.8-.7 2.5 0l50.3 49.4-2.5 2.6zm32 54c-.2 0-.4-.1-.6-.2l-44.3-25c-.6-.4-.8-1.1-.5-1.8.4-.6 1.1-.8 1.8-.5l40.2 22.6-27.1-47.6c-.4-.6-.1-1.4.5-1.8.6-.4 1.4-.1 1.8.5l29.5 51.7c.3.5.2 1.1-.2 1.5-.4.5-.8.6-1.1.6z"/><ellipse transform="rotate(-70.409 -10849.902 -7315.234)" class="st1" cx="-10849.9" cy="-7315.1" rx=".7" ry="1.8"/><path class="st12" d="M-10849.9-7314.7c-.7-.2-1.2-.6-1-1.2l5.1-13.9c.2-.7 1-1 1.7-.8.7.2 1 1 .8 1.7l-5.1 13.9c-.3.4-.9.5-1.5.3z"/><path class="st13" d="M-10849.9-7314.7c-.7-.2-1.2-.6-1-1.2l5.1-13.9c.2-.7 1-1 1.7-.8.7.2 1 1 .8 1.7l-5.1 13.9c-.3.4-.9.5-1.5.3z"/><path class="st17" d="M-10857.3-7340.3c.6-3.8 9.8.6 13 2.5 3.2 1.9 11 1.9 13.7 5.1 2.4 3-3.2 11.2-10.4 10.3-7.2-.9-8-7.8-9.2-9.5-1.3-1.8-7.5-5.6-7.1-8.4z"/><path class="st13" d="M-10841-7324.7c-7.2-.9-8-7.8-9.2-9.5-1-1.4-5.6-4.3-6.8-6.8-.1.2-.2.4-.3.7-.5 2.8 5.8 6.6 7.1 8.3 1.2 1.7 2 8.6 9.2 9.5 6.6.8 12-6.1 10.8-9.5-.9 3.6-5.4 8-10.8 7.3z"/><path class="st6" d="M-10863.4-7270.3c-.1 0-.2-.1-.3-.2-.1-.2-.1-.4.1-.5l.5-.3-6.8-.7c-.1 0-.2-.1-.3-.2-.1-.1 0-.2 0-.3l1.4-2.3c.1-.2.3-.2.5-.1s.2.3.1.5l-1.1 1.9 7.2.8c.1 0 .3.1.3.3 0 .1 0 .3-.1.4l-1.3.9c-.1-.2-.2-.2-.2-.2z"/><path class="st6" d="M-10869.9-7262.8l-5.2-2.6v-2l9.1-4.5 5.2 2.6v1.9z"/><path class="st10" d="M-10875.1-7267.4v2l5.2 2.6v-2z"/><path class="st1" d="M-10860.8-7269.3v1.9l-9.1 4.6v-2z"/><path class="st11" d="M-10860.8-7269.3v1.9l-9.1 4.6v-2z"/></g></svg>