<svg xmlns="http://www.w3.org/2000/svg" width="92.8" height="51.2"><style>.st1{fill:#06547a}.st2,.st3{opacity:.11;enable-background:new}.st3{opacity:.29}.st4{fill:#2d3134}.st5{fill:#999}.st6{opacity:.15;enable-background:new}.st7{fill:#656565}.st8{opacity:.2;enable-background:new}.st9{fill:#2d3134}.st10,.st9{opacity:.3;enable-background:new}.st10,.st12{fill:#fff}</style><g id="i1850_1_"><path opacity=".3" d="M-7280-3472l141-70 767 384-140 70z" transform="matrix(.1 0 0 .1 728 360)"/><path class="st1" d="M-6733-3296l-4 2v31l162 81 4-2v-31z" transform="matrix(.1 0 0 .1 728 360)"/><path class="st2" d="M-6737-3294v31l162 81v-31z" transform="matrix(.1 0 0 .1 728 360)"/><path class="st3" d="M-6571-3215v31l-4 2v-31z" transform="matrix(.1 0 0 .1 728 360)"/><path class="st4" d="M-6793-3283l36-18-12 20-36 18z" transform="matrix(.1 0 0 .1 728 360)"/><path class="st3" d="M-6793-3283l36-18-12 20-36 18z" transform="matrix(.1 0 0 .1 728 360)"/><path class="st4" d="M-6738.6-3290.4c-7.5-3.7-14.2-4.2-19.2-1.9l-14 7c-5.4 2.4-8.8 7.9-8.8 15.9 0 15.5 12.5 34.3 28 42 7.6 3.8 14.6 4.2 19.6 1.8 0 0 13.9-6.9 15.1-7.6 4.5-2.7 7.3-7.9 7.3-15.2 0-15.4-12.6-34.2-28-42z" transform="matrix(.1 0 0 .1 728 360)"/><path class="st3" d="M-6732.7-3225.8c2-1 13.7-6.8 14.8-7.5 4.5-2.7 7.3-7.9 7.3-15.2 0-6.2-2.1-13-5.5-19.3l-14 7c3.4 6.4 5.5 13.1 5.5 19.3 0 7.8-3.1 13.2-8.1 15.7z" transform="matrix(.1 0 0 .1 728 360)"/><path class="st5" d="M-6734.7-3246.6c0 9.9-8 13.9-17.9 8.9-9.9-4.9-17.9-17-17.9-26.8s8-13.9 17.9-8.9c9.8 4.9 17.9 16.9 17.9 26.8z" transform="matrix(.1 0 0 .1 728 360)"/><path class="st6" d="M-6751.1-3238.3c-9.9-4.9-17.9-17-17.9-26.8 0-4.9 1.9-8.3 5.1-9.9-4 1.3-6.6 5-6.6 10.6 0 9.9 8 21.9 17.9 26.8 5 2.5 9.6 2.7 12.8 1-3.1.9-7 .4-11.3-1.7z" transform="matrix(.1 0 0 .1 728 360)"/><path class="st4" d="M-6743.7-3252.4c0 4.1-3.3 5.8-7.5 3.7-4.1-2.1-7.5-7.1-7.5-11.2s3.3-5.8 7.5-3.7c4.2 2 7.5 7 7.5 11.2z" transform="matrix(.1 0 0 .1 728 360)"/><path class="st3" d="M-6743.7-3252.4c0 4.1-3.3 5.8-7.5 3.7-4.1-2.1-7.5-7.1-7.5-11.2s3.3-5.8 7.5-3.7c4.2 2 7.5 7 7.5 11.2z" transform="matrix(.1 0 0 .1 728 360)"/><path class="st4" d="M-6745.2-3251.7c0 4.1-3.3 5.8-7.5 3.7-4.1-2.1-7.5-7.1-7.5-11.2s3.3-5.8 7.5-3.7c4.2 2 7.5 7 7.5 11.2z" transform="matrix(.1 0 0 .1 728 360)"/><path class="st2" d="M-6724.6-3241.4c0 15.5-12.5 21.7-28 14-15.5-7.7-28-26.5-28-42s12.5-21.7 28-14c15.4 7.8 28 26.6 28 42z" transform="matrix(.1 0 0 .1 728 360)"/><path class="st4" d="M-6758-3280.9c-7.5-3.7-14.2-4.2-19.2-1.9l-14 7c-5.4 2.4-8.8 7.9-8.8 15.9 0 15.5 12.5 34.3 28 42 7.6 3.8 14.6 4.2 19.6 1.8 0 0 13.9-6.9 15.1-7.6 4.5-2.7 7.3-7.9 7.3-15.2 0-15.5-12.5-34.3-28-42z" transform="matrix(.1 0 0 .1 728 360)"/><path class="st3" d="M-6752.1-3216.3c2-1 13.7-6.8 14.8-7.5 4.5-2.7 7.3-7.9 7.3-15.2 0-6.2-2.1-13-5.5-19.3l-14 7c3.4 6.4 5.5 13.1 5.5 19.3 0 7.7-3.1 13.1-8.1 15.7z" transform="matrix(.1 0 0 .1 728 360)"/><path class="st5" d="M-6754.1-3237.2c0 9.9-8 13.9-17.9 8.9-9.9-4.9-17.9-17-17.9-26.8s8-13.9 17.9-8.9 17.9 17 17.9 26.8z" transform="matrix(.1 0 0 .1 728 360)"/><path class="st6" d="M-6770.5-3228.8c-9.9-4.9-17.9-17-17.9-26.8 0-4.9 1.9-8.3 5.1-9.9-4 1.3-6.6 5-6.6 10.6 0 9.9 8 21.9 17.9 26.8 5 2.5 9.6 2.7 12.8 1-3.1.9-7 .4-11.3-1.7z" transform="matrix(.1 0 0 .1 728 360)"/><path class="st4" d="M-6763.1-3243c0 4.1-3.3 5.8-7.5 3.7-4.1-2.1-7.5-7.1-7.5-11.2s3.3-5.8 7.5-3.7c4.2 2.1 7.5 7.1 7.5 11.2z" transform="matrix(.1 0 0 .1 728 360)"/><path class="st3" d="M-6763.1-3243c0 4.1-3.3 5.8-7.5 3.7-4.1-2.1-7.5-7.1-7.5-11.2s3.3-5.8 7.5-3.7c4.2 2.1 7.5 7.1 7.5 11.2z" transform="matrix(.1 0 0 .1 728 360)"/><path class="st4" d="M-6764.5-3242.3c0 4.1-3.3 5.8-7.5 3.7-4.1-2.1-7.5-7.1-7.5-11.2s3.3-5.8 7.5-3.7c4.2 2.1 7.5 7.1 7.5 11.2z" transform="matrix(.1 0 0 .1 728 360)"/><path class="st2" d="M-6744-3231.9c0 15.5-12.5 21.7-28 14-15.5-7.7-28-26.5-28-42s12.5-21.7 28-14c15.5 7.7 28 26.5 28 42z" transform="matrix(.1 0 0 .1 728 360)"/><path class="st4" d="M-6793-3283l36-18 36 18-36 18z" transform="matrix(.1 0 0 .1 728 360)"/><path class="st4" d="M-6743-3240l36-18-14-25-36 18z" transform="matrix(.1 0 0 .1 728 360)"/><path class="st3" d="M-6743-3240l36-18-14-25-36 18z" transform="matrix(.1 0 0 .1 728 360)"/><path class="st4" d="M-6735-3254l36-18-12 20-36 18z" transform="matrix(.1 0 0 .1 728 360)"/><path class="st3" d="M-6735-3254l36-18-12 20-36 18z" transform="matrix(.1 0 0 .1 728 360)"/><path class="st4" d="M-6680.6-3261.4c-7.5-3.7-14.2-4.2-19.2-1.9l-14 7c-5.4 2.4-8.8 7.9-8.8 15.9 0 15.5 12.5 34.3 28 42 7.6 3.8 14.6 4.2 19.6 1.8 0 0 13.9-6.9 15.1-7.6 4.5-2.7 7.3-7.9 7.3-15.2 0-15.4-12.6-34.2-28-42z" transform="matrix(.1 0 0 .1 728 360)"/><path class="st3" d="M-6674.7-3196.8c2-1 13.7-6.8 14.8-7.5 4.5-2.7 7.3-7.9 7.3-15.2 0-6.2-2.1-13-5.5-19.3l-14 7c3.4 6.4 5.5 13.1 5.5 19.3 0 7.8-3.1 13.2-8.1 15.7z" transform="matrix(.1 0 0 .1 728 360)"/><path class="st5" d="M-6676.7-3217.6c0 9.9-8 13.9-17.9 8.9-9.9-4.9-17.9-17-17.9-26.8s8-13.9 17.9-8.9c9.8 4.9 17.9 16.9 17.9 26.8z" transform="matrix(.1 0 0 .1 728 360)"/><path class="st6" d="M-6693.1-3209.3c-9.9-4.9-17.9-17-17.9-26.8 0-4.9 1.9-8.3 5.1-9.9-4 1.3-6.6 5-6.6 10.6 0 9.9 8 21.9 17.9 26.8 5 2.5 9.6 2.7 12.8 1-3.1.9-7 .4-11.3-1.7z" transform="matrix(.1 0 0 .1 728 360)"/><path class="st4" d="M-6685.7-3223.4c0 4.1-3.3 5.8-7.5 3.7-4.1-2.1-7.5-7.1-7.5-11.2s3.3-5.8 7.5-3.7c4.2 2 7.5 7 7.5 11.2z" transform="matrix(.1 0 0 .1 728 360)"/><path class="st3" d="M-6685.7-3223.4c0 4.1-3.3 5.8-7.5 3.7-4.1-2.1-7.5-7.1-7.5-11.2s3.3-5.8 7.5-3.7c4.2 2 7.5 7 7.5 11.2z" transform="matrix(.1 0 0 .1 728 360)"/><path class="st4" d="M-6687.2-3222.7c0 4.1-3.3 5.8-7.5 3.7-4.1-2.1-7.5-7.1-7.5-11.2s3.3-5.8 7.5-3.7c4.2 2 7.5 7 7.5 11.2z" transform="matrix(.1 0 0 .1 728 360)"/><path class="st2" d="M-6666.6-3212.4c0 15.5-12.5 21.7-28 14-15.5-7.7-28-26.5-28-42s12.5-21.7 28-14c15.4 7.8 28 26.6 28 42z" transform="matrix(.1 0 0 .1 728 360)"/><path class="st4" d="M-6700-3251.9c-7.5-3.7-14.2-4.2-19.2-1.9l-14 7c-5.4 2.4-8.8 7.9-8.8 15.9 0 15.5 12.5 34.3 28 42 7.6 3.8 14.6 4.2 19.6 1.8 0 0 13.9-6.9 15.1-7.6 4.5-2.7 7.3-7.9 7.3-15.2 0-15.5-12.5-34.3-28-42z" transform="matrix(.1 0 0 .1 728 360)"/><path class="st3" d="M-6694.1-3187.3c2-1 13.7-6.8 14.8-7.5 4.5-2.7 7.3-7.9 7.3-15.2 0-6.2-2.1-13-5.5-19.3l-14 7c3.4 6.4 5.5 13.1 5.5 19.3 0 7.7-3.1 13.1-8.1 15.7z" transform="matrix(.1 0 0 .1 728 360)"/><path class="st5" d="M-6696.1-3208.2c0 9.9-8 13.9-17.9 8.9-9.9-4.9-17.9-17-17.9-26.8s8-13.9 17.9-8.9 17.9 17 17.9 26.8z" transform="matrix(.1 0 0 .1 728 360)"/><path class="st6" d="M-6712.5-3199.8c-9.9-4.9-17.9-17-17.9-26.8 0-4.9 1.9-8.3 5.1-9.9-4 1.3-6.6 5-6.6 10.6 0 9.9 8 21.9 17.9 26.8 5 2.5 9.6 2.7 12.8 1-3.1.9-7 .4-11.3-1.7z" transform="matrix(.1 0 0 .1 728 360)"/><path class="st4" d="M-6705.1-3214c0 4.1-3.3 5.8-7.5 3.7-4.1-2.1-7.5-7.1-7.5-11.2s3.3-5.8 7.5-3.7c4.2 2.1 7.5 7.1 7.5 11.2z" transform="matrix(.1 0 0 .1 728 360)"/><path class="st3" d="M-6705.1-3214c0 4.1-3.3 5.8-7.5 3.7-4.1-2.1-7.5-7.1-7.5-11.2s3.3-5.8 7.5-3.7c4.2 2.1 7.5 7.1 7.5 11.2z" transform="matrix(.1 0 0 .1 728 360)"/><path class="st4" d="M-6706.5-3213.3c0 4.1-3.3 5.8-7.5 3.7-4.1-2.1-7.5-7.1-7.5-11.2s3.3-5.8 7.5-3.7c4.2 2.1 7.5 7.1 7.5 11.2z" transform="matrix(.1 0 0 .1 728 360)"/><path class="st2" d="M-6686-3202.9c0 15.5-12.5 21.7-28 14-15.5-7.7-28-26.5-28-42s12.5-21.7 28-14c15.5 7.7 28 26.5 28 42z" transform="matrix(.1 0 0 .1 728 360)"/><path class="st4" d="M-6735-3254l36-18 36 18-36 18z" transform="matrix(.1 0 0 .1 728 360)"/><path class="st4" d="M-6685-3211l36-18-14-25-36 18z" transform="matrix(.1 0 0 .1 728 360)"/><path class="st3" d="M-6685-3211l36-18-14-25-36 18z" transform="matrix(.1 0 0 .1 728 360)"/><path class="st5" d="M-6639-3236l-20 10v27l52 26 20-10v-27z" transform="matrix(.1 0 0 .1 728 360)"/><path class="st4" d="M-6625-3229l-4-2-20 10v27l4 2v-27zm28 14l-4-2-20 10v27l4 2v-27z" transform="matrix(.1 0 0 .1 728 360)"/><path class="st3" d="M-6587-3210v27l-20 10v-27z" transform="matrix(.1 0 0 .1 728 360)"/><path class="st2" d="M-6659-3226v27l52 26v-27z" transform="matrix(.1 0 0 .1 728 360)"/><path class="st1" d="M-6674-3225l-10 5v31l62 31 10-5v-31z" transform="matrix(.1 0 0 .1 728 360)"/><path class="st2" d="M-6684-3220v31l62 31v-31z" transform="matrix(.1 0 0 .1 728 360)"/><path class="st3" d="M-6612-3194v31l-10 5v-31z" transform="matrix(.1 0 0 .1 728 360)"/><path class="st1" d="M-6482-3259l-140 70v31l24 12 140-70v-31z" transform="matrix(.1 0 0 .1 728 360)"/><path class="st2" d="M-6622-3189v31l24 12v-31z" transform="matrix(.1 0 0 .1 728 360)"/><path class="st3" d="M-6458-3247v31l-140 70v-31z" transform="matrix(.1 0 0 .1 728 360)"/><path class="st4" d="M-7206-3491l36-18-12 20-36 18z" transform="matrix(.1 0 0 .1 728 360)"/><path class="st3" d="M-7206-3491l36-18-12 20-36 18z" transform="matrix(.1 0 0 .1 728 360)"/><path class="st4" d="M-7151.6-3498.4c-7.5-3.7-14.2-4.2-19.2-1.9l-14 7c-5.4 2.4-8.8 7.9-8.8 15.9 0 15.5 12.5 34.3 28 42 7.6 3.8 14.6 4.2 19.6 1.8 0 0 13.9-6.9 15.1-7.6 4.5-2.7 7.3-7.9 7.3-15.2 0-15.4-12.6-34.2-28-42z" transform="matrix(.1 0 0 .1 728 360)"/><path class="st3" d="M-7145.7-3433.8c2-1 13.7-6.8 14.8-7.5 4.5-2.7 7.3-7.9 7.3-15.2 0-6.2-2.1-13-5.5-19.3l-14 7c3.4 6.4 5.5 13.1 5.5 19.3 0 7.8-3.1 13.2-8.1 15.7z" transform="matrix(.1 0 0 .1 728 360)"/><path class="st5" d="M-7147.7-3454.6c0 9.9-8 13.9-17.9 8.9s-17.9-17-17.9-26.8 8-13.9 17.9-8.9c9.8 4.9 17.9 16.9 17.9 26.8z" transform="matrix(.1 0 0 .1 728 360)"/><path class="st6" d="M-7164.1-3446.3c-9.9-4.9-17.9-17-17.9-26.8 0-4.9 1.9-8.3 5.1-9.9-4 1.3-6.6 5-6.6 10.6 0 9.9 8 21.9 17.9 26.8 5 2.5 9.6 2.7 12.8 1-3.1.9-7 .4-11.3-1.7z" transform="matrix(.1 0 0 .1 728 360)"/><path class="st4" d="M-7156.7-3460.4c0 4.1-3.3 5.8-7.5 3.7-4.1-2.1-7.5-7.1-7.5-11.2s3.3-5.8 7.5-3.7c4.2 2 7.5 7 7.5 11.2z" transform="matrix(.1 0 0 .1 728 360)"/><path class="st3" d="M-7156.7-3460.4c0 4.1-3.3 5.8-7.5 3.7-4.1-2.1-7.5-7.1-7.5-11.2s3.3-5.8 7.5-3.7c4.2 2 7.5 7 7.5 11.2z" transform="matrix(.1 0 0 .1 728 360)"/><path class="st4" d="M-7158.2-3459.7c0 4.1-3.3 5.8-7.5 3.7-4.1-2.1-7.5-7.1-7.5-11.2s3.3-5.8 7.5-3.7c4.2 2 7.5 7 7.5 11.2z" transform="matrix(.1 0 0 .1 728 360)"/><path class="st2" d="M-7137.6-3449.4c0 15.5-12.5 21.7-28 14-15.5-7.7-28-26.5-28-42s12.5-21.7 28-14c15.5 7.7 28 26.6 28 42z" transform="matrix(.1 0 0 .1 728 360)"/><path class="st4" d="M-7171-3488.9c-7.5-3.7-14.2-4.2-19.2-1.9l-14 7c-5.4 2.4-8.8 7.9-8.8 15.9 0 15.5 12.5 34.3 28 42 7.6 3.8 14.6 4.2 19.6 1.8 0 0 13.9-6.9 15.1-7.6 4.5-2.7 7.3-7.9 7.3-15.2 0-15.5-12.5-34.3-28-42z" transform="matrix(.1 0 0 .1 728 360)"/><path class="st3" d="M-7165.1-3424.3c2-1 13.7-6.8 14.8-7.5 4.5-2.7 7.3-7.9 7.3-15.2 0-6.2-2.1-13-5.5-19.3l-14 7c3.4 6.4 5.5 13.1 5.5 19.3 0 7.7-3.1 13.1-8.1 15.7z" transform="matrix(.1 0 0 .1 728 360)"/><path class="st5" d="M-7167.1-3445.2c0 9.9-8 13.9-17.9 8.9-9.9-4.9-17.9-17-17.9-26.8 0-9.9 8-13.9 17.9-8.9s17.9 17 17.9 26.8z" transform="matrix(.1 0 0 .1 728 360)"/><path class="st6" d="M-7183.5-3436.8c-9.9-4.9-17.9-17-17.9-26.8 0-4.9 1.9-8.3 5.1-9.9-4 1.3-6.6 5-6.6 10.6 0 9.9 8 21.9 17.9 26.8 5 2.5 9.6 2.7 12.8 1-3.1.9-7 .4-11.3-1.7z" transform="matrix(.1 0 0 .1 728 360)"/><path class="st4" d="M-7176.1-3451c0 4.1-3.3 5.8-7.5 3.7-4.1-2.1-7.5-7.1-7.5-11.2s3.3-5.8 7.5-3.7c4.2 2.1 7.5 7.1 7.5 11.2z" transform="matrix(.1 0 0 .1 728 360)"/><path class="st3" d="M-7176.1-3451c0 4.1-3.3 5.8-7.5 3.7-4.1-2.1-7.5-7.1-7.5-11.2s3.3-5.8 7.5-3.7c4.2 2.1 7.5 7.1 7.5 11.2z" transform="matrix(.1 0 0 .1 728 360)"/><path class="st4" d="M-7177.5-3450.3c0 4.1-3.3 5.8-7.5 3.7-4.1-2.1-7.5-7.1-7.5-11.2s3.3-5.8 7.5-3.7 7.5 7.1 7.5 11.2z" transform="matrix(.1 0 0 .1 728 360)"/><path class="st2" d="M-7157-3439.9c0 15.5-12.5 21.7-28 14-15.5-7.7-28-26.5-28-42s12.5-21.7 28-14c15.5 7.7 28 26.5 28 42z" transform="matrix(.1 0 0 .1 728 360)"/><path class="st4" d="M-7206-3491l36-18 36 18-36 18z" transform="matrix(.1 0 0 .1 728 360)"/><path class="st4" d="M-7156-3448l36-18-14-25-36 18z" transform="matrix(.1 0 0 .1 728 360)"/><path class="st3" d="M-7156-3448l36-18-14-25-36 18z" transform="matrix(.1 0 0 .1 728 360)"/><path class="st4" d="M-7147-3460.6l36-18-12 20-36 18z" transform="matrix(.1 0 0 .1 728 360)"/><path class="st3" d="M-7147-3460.6l36-18-12 20-36 18z" transform="matrix(.1 0 0 .1 728 360)"/><path class="st4" d="M-7092.6-3468c-7.5-3.7-14.2-4.2-19.2-1.9l-14 7c-5.4 2.4-8.8 7.9-8.8 15.9 0 15.5 12.5 34.3 28 42 7.6 3.8 14.6 4.2 19.6 1.8 0 0 13.9-6.9 15.1-7.6 4.5-2.7 7.3-7.9 7.3-15.2 0-15.4-12.6-34.2-28-42z" transform="matrix(.1 0 0 .1 728 360)"/><path class="st3" d="M-7086.7-3403.4c2-1 13.7-6.8 14.8-7.5 4.5-2.7 7.3-7.9 7.3-15.2 0-6.2-2.1-13-5.5-19.3l-14 7c3.4 6.4 5.5 13.1 5.5 19.3 0 7.8-3.1 13.2-8.1 15.7z" transform="matrix(.1 0 0 .1 728 360)"/><path class="st5" d="M-7088.7-3424.2c0 9.9-8 13.9-17.9 8.9s-17.9-17-17.9-26.8 8-13.9 17.9-8.9 17.9 16.9 17.9 26.8z" transform="matrix(.1 0 0 .1 728 360)"/><path class="st6" d="M-7105.1-3415.9c-9.9-4.9-17.9-17-17.9-26.8 0-4.9 1.9-8.3 5.1-9.9-4 1.3-6.6 5-6.6 10.6 0 9.9 8 21.9 17.9 26.8 5 2.5 9.6 2.7 12.8 1-3.1.9-7 .4-11.3-1.7z" transform="matrix(.1 0 0 .1 728 360)"/><path class="st4" d="M-7097.7-3430c0 4.1-3.3 5.8-7.5 3.7-4.1-2.1-7.5-7.1-7.5-11.2s3.3-5.8 7.5-3.7c4.2 2 7.5 7 7.5 11.2z" transform="matrix(.1 0 0 .1 728 360)"/><path class="st3" d="M-7097.7-3430c0 4.1-3.3 5.8-7.5 3.7-4.1-2.1-7.5-7.1-7.5-11.2s3.3-5.8 7.5-3.7c4.2 2 7.5 7 7.5 11.2z" transform="matrix(.1 0 0 .1 728 360)"/><path class="st4" d="M-7099.2-3429.3c0 4.1-3.3 5.8-7.5 3.7-4.2-2.1-7.5-7.1-7.5-11.2s3.3-5.8 7.5-3.7c4.2 2.1 7.5 7 7.5 11.2z" transform="matrix(.1 0 0 .1 728 360)"/><path class="st2" d="M-7078.6-3419c0 15.5-12.5 21.7-28 14s-28-26.5-28-42 12.5-21.7 28-14 28 26.6 28 42z" transform="matrix(.1 0 0 .1 728 360)"/><path class="st4" d="M-7112-3458.5c-7.5-3.7-14.2-4.2-19.2-1.9l-14 7c-5.4 2.4-8.8 7.9-8.8 15.9 0 15.5 12.5 34.3 28 42 7.6 3.8 14.6 4.2 19.6 1.8 0 0 13.9-6.9 15.1-7.6 4.5-2.7 7.3-7.9 7.3-15.2 0-15.5-12.5-34.3-28-42z" transform="matrix(.1 0 0 .1 728 360)"/><path class="st3" d="M-7106.1-3393.9c2-1 13.7-6.8 14.8-7.5 4.5-2.7 7.3-7.9 7.3-15.2 0-6.2-2.1-13-5.5-19.3l-14 7c3.4 6.4 5.5 13.1 5.5 19.3 0 7.7-3.1 13.1-8.1 15.7z" transform="matrix(.1 0 0 .1 728 360)"/><path class="st5" d="M-7108.1-3414.7c0 9.9-8 13.9-17.9 8.9s-17.9-17-17.9-26.8 8-13.9 17.9-8.9c9.9 4.9 17.9 16.9 17.9 26.8z" transform="matrix(.1 0 0 .1 728 360)"/><path class="st6" d="M-7124.5-3406.4c-9.9-4.9-17.9-17-17.9-26.8 0-4.9 1.9-8.3 5.1-9.9-4 1.3-6.6 5-6.6 10.6 0 9.9 8 21.9 17.9 26.8 5 2.5 9.6 2.7 12.8 1-3.1.9-7 .4-11.3-1.7z" transform="matrix(.1 0 0 .1 728 360)"/><path class="st4" d="M-7117.1-3420.6c0 4.1-3.3 5.8-7.5 3.7-4.1-2.1-7.5-7.1-7.5-11.2s3.3-5.8 7.5-3.7c4.2 2.1 7.5 7.1 7.5 11.2z" transform="matrix(.1 0 0 .1 728 360)"/><path class="st3" d="M-7117.1-3420.6c0 4.1-3.3 5.8-7.5 3.7-4.1-2.1-7.5-7.1-7.5-11.2s3.3-5.8 7.5-3.7c4.2 2.1 7.5 7.1 7.5 11.2z" transform="matrix(.1 0 0 .1 728 360)"/><path class="st4" d="M-7118.5-3419.9c0 4.1-3.3 5.8-7.5 3.7-4.2-2.1-7.5-7.1-7.5-11.2s3.3-5.8 7.5-3.7c4.1 2.1 7.5 7.1 7.5 11.2z" transform="matrix(.1 0 0 .1 728 360)"/><path class="st2" d="M-7098-3409.5c0 15.5-12.5 21.7-28 14s-28-26.5-28-42 12.5-21.7 28-14 28 26.5 28 42z" transform="matrix(.1 0 0 .1 728 360)"/><path class="st4" d="M-7147-3460.6l36-18 36 18-36 18z" transform="matrix(.1 0 0 .1 728 360)"/><path class="st4" d="M-7097-3417.6l36-18-14-25-36 18z" transform="matrix(.1 0 0 .1 728 360)"/><path class="st3" d="M-7097-3417.6l36-18-14-25-36 18z" transform="matrix(.1 0 0 .1 728 360)"/><path class="st4" d="M-7088-3431l36-18-12 20-36 18z" transform="matrix(.1 0 0 .1 728 360)"/><path class="st3" d="M-7088-3431l36-18-12 20-36 18z" transform="matrix(.1 0 0 .1 728 360)"/><path class="st4" d="M-7033.6-3438.4c-7.5-3.7-14.2-4.2-19.2-1.9l-14 7c-5.4 2.4-8.8 7.9-8.8 15.9 0 15.5 12.5 34.3 28 42 7.6 3.8 14.6 4.2 19.6 1.8 0 0 13.9-6.9 15.1-7.6 4.5-2.7 7.3-7.9 7.3-15.2 0-15.4-12.6-34.2-28-42z" transform="matrix(.1 0 0 .1 728 360)"/><path class="st3" d="M-7027.7-3373.8c2-1 13.7-6.8 14.8-7.5 4.5-2.7 7.3-7.9 7.3-15.2 0-6.2-2.1-13-5.5-19.3l-14 7c3.4 6.4 5.5 13.1 5.5 19.3 0 7.8-3.1 13.2-8.1 15.7z" transform="matrix(.1 0 0 .1 728 360)"/><path class="st5" d="M-7029.7-3394.6c0 9.9-8 13.9-17.9 8.9-9.9-4.9-17.9-17-17.9-26.8 0-9.9 8-13.9 17.9-8.9 9.8 4.9 17.9 16.9 17.9 26.8z" transform="matrix(.1 0 0 .1 728 360)"/><path class="st6" d="M-7046.1-3386.3c-9.9-4.9-17.9-17-17.9-26.8 0-4.9 1.9-8.3 5.1-9.9-4 1.3-6.6 5-6.6 10.6 0 9.9 8 21.9 17.9 26.8 5 2.5 9.6 2.7 12.8 1-3.1.9-7 .4-11.3-1.7z" transform="matrix(.1 0 0 .1 728 360)"/><path class="st4" d="M-7038.7-3400.4c0 4.1-3.3 5.8-7.5 3.7-4.1-2.1-7.5-7.1-7.5-11.2s3.3-5.8 7.5-3.7c4.2 2 7.5 7 7.5 11.2z" transform="matrix(.1 0 0 .1 728 360)"/><path class="st3" d="M-7038.7-3400.4c0 4.1-3.3 5.8-7.5 3.7-4.1-2.1-7.5-7.1-7.5-11.2s3.3-5.8 7.5-3.7c4.2 2 7.5 7 7.5 11.2z" transform="matrix(.1 0 0 .1 728 360)"/><path class="st4" d="M-7040.2-3399.7c0 4.1-3.3 5.8-7.5 3.7-4.1-2.1-7.5-7.1-7.5-11.2s3.3-5.8 7.5-3.7c4.2 2 7.5 7 7.5 11.2z" transform="matrix(.1 0 0 .1 728 360)"/><path class="st2" d="M-7019.6-3389.4c0 15.5-12.5 21.7-28 14-15.5-7.7-28-26.5-28-42s12.5-21.7 28-14c15.5 7.7 28 26.6 28 42z" transform="matrix(.1 0 0 .1 728 360)"/><path class="st4" d="M-7053-3428.9c-7.5-3.7-14.2-4.2-19.2-1.9l-14 7c-5.4 2.4-8.8 7.9-8.8 15.9 0 15.5 12.5 34.3 28 42 7.6 3.8 14.6 4.2 19.6 1.8 0 0 13.9-6.9 15.1-7.6 4.5-2.7 7.3-7.9 7.3-15.2 0-15.5-12.5-34.3-28-42z" transform="matrix(.1 0 0 .1 728 360)"/><path class="st3" d="M-7047.1-3364.3c2-1 13.7-6.8 14.8-7.5 4.5-2.7 7.3-7.9 7.3-15.2 0-6.2-2.1-13-5.5-19.3l-14 7c3.4 6.4 5.5 13.1 5.5 19.3 0 7.7-3.1 13.1-8.1 15.7z" transform="matrix(.1 0 0 .1 728 360)"/><path class="st5" d="M-7049.1-3385.2c0 9.9-8 13.9-17.9 8.9-9.9-4.9-17.9-17-17.9-26.8s8-13.9 17.9-8.9 17.9 17 17.9 26.8z" transform="matrix(.1 0 0 .1 728 360)"/><path class="st6" d="M-7065.5-3376.8c-9.9-4.9-17.9-17-17.9-26.8 0-4.9 1.9-8.3 5.1-9.9-4 1.3-6.6 5-6.6 10.6 0 9.9 8 21.9 17.9 26.8 5 2.5 9.6 2.7 12.8 1-3.1.9-7 .4-11.3-1.7z" transform="matrix(.1 0 0 .1 728 360)"/><path class="st4" d="M-7058.1-3391c0 4.1-3.3 5.8-7.5 3.7-4.1-2.1-7.5-7.1-7.5-11.2s3.3-5.8 7.5-3.7c4.2 2.1 7.5 7.1 7.5 11.2z" transform="matrix(.1 0 0 .1 728 360)"/><path class="st3" d="M-7058.1-3391c0 4.1-3.3 5.8-7.5 3.7-4.1-2.1-7.5-7.1-7.5-11.2s3.3-5.8 7.5-3.7c4.2 2.1 7.5 7.1 7.5 11.2z" transform="matrix(.1 0 0 .1 728 360)"/><path class="st4" d="M-7059.5-3390.3c0 4.1-3.3 5.8-7.5 3.7-4.1-2.1-7.5-7.1-7.5-11.2s3.3-5.8 7.5-3.7c4.1 2.1 7.5 7.1 7.5 11.2z" transform="matrix(.1 0 0 .1 728 360)"/><path class="st2" d="M-7039-3379.9c0 15.5-12.5 21.7-28 14-15.5-7.7-28-26.5-28-42s12.5-21.7 28-14c15.5 7.7 28 26.5 28 42z" transform="matrix(.1 0 0 .1 728 360)"/><path class="st4" d="M-7088-3431l36-18 36 18-36 18z" transform="matrix(.1 0 0 .1 728 360)"/><path class="st4" d="M-7038-3388l36-18-14-25-36 18z" transform="matrix(.1 0 0 .1 728 360)"/><path class="st3" d="M-7038-3388l36-18-14-25-36 18z" transform="matrix(.1 0 0 .1 728 360)"/><path class="st4" d="M-7140-3590l-140 70v10l42 21h20l140-70z" transform="matrix(.1 0 0 .1 728 360)"/><path class="st2" d="M-7280-3520v10l42 21h20z" transform="matrix(.1 0 0 .1 728 360)"/><path class="st4" d="M-6892-3466l-140 70 20 20 184 92h20l140-70z" transform="matrix(.1 0 0 .1 728 360)"/><path class="st2" d="M-7032-3396l20 20 184 92h20z" transform="matrix(.1 0 0 .1 728 360)"/><path class="st4" d="M-7140-3600l-140 70v10l620 310 140-70v-10z" transform="matrix(.1 0 0 .1 728 360)"/><path class="st2" d="M-7280-3530v10l620 310v-10z" transform="matrix(.1 0 0 .1 728 360)"/><path class="st6" d="M-7160-3590l-8 4 620 310 8-4zm-92 46l-8 4 620 310 8-4z" transform="matrix(.1 0 0 .1 728 360)"/><path class="st3" d="M-6520-3290v10l-140 70v-10z" transform="matrix(.1 0 0 .1 728 360)"/><path class="st4" d="M-6548-3276l-84 42v9.9l64 32.1 84-42v-10z" transform="matrix(.1 0 0 .1 728 360)"/><path class="st2" d="M-6632-3234v10l64 32v-10z" transform="matrix(.1 0 0 .1 728 360)"/><path class="st3" d="M-6484-3244v10l-84 42v-10z" transform="matrix(.1 0 0 .1 728 360)"/><path class="st4" d="M-6359-3276.6h-1v-30.7c0-1.1-.6-2.1-1.5-2.7s-2.1-.6-3-.1l-2.3 1.1-.4-.9 2.3-1.1c1.3-.6 2.8-.6 4 .2 1.2.8 2 2.1 2 3.5v30.7h-.1z" transform="matrix(.1 0 0 .1 728 360)"/><path class="st4" d="M-6365.3-3301v20.9c0 1.9 2.1 3 3.6 1.9l.5-.4c2.5-1.8 4-4.7 4-7.7v-21c0-1.9-2.2-3-3.7-1.8l-.8.6c-2.2 1.8-3.6 4.6-3.6 7.5zm-182.7 125.3c-7.5-3.7-14.2-4.2-19.2-1.9l-14 7c-5.4 2.4-8.8 7.9-8.8 15.9 0 15.5 12.5 34.3 28 42 7.6 3.8 14.6 4.2 19.6 1.8 0 0 13.9-6.9 15.1-7.6 4.5-2.7 7.3-7.9 7.3-15.2 0-15.5-12.5-34.3-28-42z" transform="matrix(.1 0 0 .1 728 360)"/><path class="st3" d="M-6542.1-3111.1c2-1 13.7-6.8 14.8-7.5 4.5-2.7 7.3-7.9 7.3-15.2 0-6.2-2.1-13-5.5-19.3l-14 7c3.4 6.4 5.5 13.1 5.5 19.3 0 7.8-3.1 13.1-8.1 15.7z" transform="matrix(.1 0 0 .1 728 360)"/><path class="st5" d="M-6544.1-3131.9c0 9.9-8 13.9-17.9 8.9-9.9-4.9-17.9-17-17.9-26.8 0-9.9 8-13.9 17.9-8.9 9.9 4.9 17.9 16.9 17.9 26.8z" transform="matrix(.1 0 0 .1 728 360)"/><path class="st6" d="M-6560.5-3123.6c-9.9-4.9-17.9-17-17.9-26.8 0-4.9 1.9-8.3 5.1-9.9-4 1.3-6.6 5-6.6 10.6 0 9.9 8 21.9 17.9 26.8 5 2.5 9.6 2.7 12.8 1-3.1.9-7 .4-11.3-1.7z" transform="matrix(.1 0 0 .1 728 360)"/><path class="st4" d="M-6553.1-3137.8c0 4.1-3.3 5.8-7.5 3.7-4.1-2.1-7.5-7.1-7.5-11.2s3.3-5.8 7.5-3.7c4.2 2.1 7.5 7.1 7.5 11.2z" transform="matrix(.1 0 0 .1 728 360)"/><path class="st3" d="M-6553.1-3137.8c0 4.1-3.3 5.8-7.5 3.7-4.1-2.1-7.5-7.1-7.5-11.2s3.3-5.8 7.5-3.7c4.2 2.1 7.5 7.1 7.5 11.2z" transform="matrix(.1 0 0 .1 728 360)"/><path class="st4" d="M-6554.5-3137.1c0 4.1-3.3 5.8-7.5 3.7-4.1-2.1-7.5-7.1-7.5-11.2s3.3-5.8 7.5-3.7c4.1 2.1 7.5 7.1 7.5 11.2z" transform="matrix(.1 0 0 .1 728 360)"/><path class="st2" d="M-6534-3126.7c0 15.5-12.5 21.7-28 14s-28-26.5-28-42 12.5-21.7 28-14 28 26.5 28 42z" transform="matrix(.1 0 0 .1 728 360)"/><path class="st1" d="M-6354-3217l-126-63-140 70v15l18 9s38.4 18.8 41 20c8.6 4.1 16.1 7.8 23.6 16.9 8.6 10.5 12.8 26.5 12.5 36.6l30.9 15.5 140-70v-50z" transform="matrix(.1 0 0 .1 728 360)"/><path class="st6" d="M-6466.5-3259.1l86-43c1.9-1 4.2 0 4.9 2l14.7 44.1-105.6-3.1z" transform="matrix(.1 0 0 .1 728 360)"/><path class="st1" d="M-6480-3382.7l-140 70v100.7l126 63 140-70v-15c0-23.7-3.2-47.3-9.5-70.1l-6.5-23.6-110-55z" transform="matrix(.1 0 0 .1 728 360)"/><path class="st7" d="M-6488.4-3196.7c-1.5 0-2.7-1.1-2.9-2.5-1.6-12.2-4.1-24.4-7.3-36.2l-4.8-17.3c-.4-1.3.3-2.8 1.5-3.4l125.6-62.8c.4-.2.8-.3 1.3-.3 1.3 0 2.5.9 2.8 2.1l3.9 14.3c3.6 13.2 6.2 26.8 7.7 40.4.1 1.2-.5 2.4-1.6 2.9l-125 62.5c-.3.2-.8.3-1.2.3z" transform="matrix(.1 0 0 .1 728 360)"/><path class="st4" d="M-6375.1-3318.2c.9 0 1.6.6 1.9 1.4l3.9 14.3c3.6 13.1 6.2 26.7 7.7 40.2.1.8-.3 1.6-1.1 1.9l-125 62.5c-.3.1-.6.2-.9.2-.8 0-1.8-.6-1.9-1.7-1.6-12.3-4.1-24.5-7.4-36.3l-4.8-17.3c-.2-.9.2-1.8 1-2.2l125.8-62.8c.2-.2.5-.2.8-.2m0-2c-.6 0-1.2.1-1.7.4l-125.6 62.8c-1.7.8-2.5 2.7-2 4.5l4.8 17.3c3.3 11.9 5.7 23.9 7.3 36.1.3 2 2 3.4 3.9 3.4.6 0 1.2-.1 1.7-.4l125-62.5c1.5-.7 2.3-2.3 2.2-3.9-1.5-13.7-4.1-27.2-7.8-40.5l-3.9-14.3c-.6-1.8-2.2-2.9-3.9-2.9z" transform="matrix(.1 0 0 .1 728 360)"/><path class="st4" d="M-6359.6-3262.5c-.5-4.3-.8-6.2-.4-2.8.2 1.6-.7 3.2-2.2 3.9l-125 62.5c-2.2 1.1-4.8-.1-5.5-2.3l.3 2.1c.4 2.7 3.2 4.2 5.6 3l125-62.5c1.5-.7 2.4-2.3 2.2-3.9z" transform="matrix(.1 0 0 .1 728 360)"/><path class="st7" d="M-6503.7-3197.5c-.3 0-.7-.1-1-.2l-20.2-10.1c-2.5-1.3-4.1-3.8-4.1-6.7 0-4.4-2.4-8.4-6.4-10.3l-31.2-15.6c-.7-.4-1.2-1.1-1.2-1.9v-35.1c0-1.3 1.1-2.2 2.2-2.2.3 0 .7.1 1 .2l45.9 23c2.8 1.4 4.9 4 5.8 7l4.6 16.6c3 10.7 5.2 21.8 6.8 32.8.1.6-.1 1.3-.5 1.7-.4.5-1 .8-1.7.8z" transform="matrix(.1 0 0 .1 728 360)"/><path class="st4" d="M-6565.6-3278.6c.2 0 .4 0 .5.1l45.9 23c2.6 1.3 4.5 3.6 5.3 6.4l4.6 16.6c2.9 10.7 5.2 21.7 6.8 32.7.1.4-.1.8-.3.9-.2.3-.6.4-.9.4-.2 0-.4 0-.5-.1l-20.2-10.1c-2.2-1.1-3.6-3.3-3.6-5.8 0-4.8-2.7-9.1-6.9-11.2l-31.2-15.6c-.4-.2-.7-.6-.7-1.1v-35.1c0-.7.7-1.1 1.2-1.1m0-2c-1.7 0-3.2 1.3-3.2 3.2v35.1c0 1.2.7 2.3 1.8 2.8l31.2 15.6c3.6 1.8 5.8 5.4 5.8 9.4 0 3.2 1.8 6.1 4.7 7.5l20.2 10.1c.5.2 1 .3 1.4.3 1.8 0 3.4-1.6 3.2-3.6-1.6-11.1-3.8-22.1-6.8-32.9l-4.6-16.6c-.9-3.3-3.2-6.1-6.3-7.7l-45.9-23c-.5-.1-1-.2-1.5-.2z" transform="matrix(.1 0 0 .1 728 360)"/><path class="st8" d="M-6454.5-3251c35 0 67.6-4.8 94.7-13.1-1.5-13.1-4.1-26.1-7.6-38.9l-3.9-14.3c-.7-2.4-3.3-3.6-5.5-2.5l-125.6 62.8c-1.1.5-1.8 1.5-2.1 2.6 15.9 2.2 32.6 3.4 50 3.4z" transform="matrix(.1 0 0 .1 728 360)"/><path class="st4" d="M-6371.2-3307.4c1-.5 1.7-1.4 2-2.4l-2.1-7.6c-.7-2.4-3.3-3.6-5.5-2.5l-125.6 62.9c-1.7.8-2.5 2.7-2 4.5l2.3 8.4c1.1.7 2.6.9 3.9.2l127-63.5z" transform="matrix(.1 0 0 .1 728 360)"/><path class="st2" d="M-6620-3210v15l18 9s38.4 18.8 41 20c8.6 4.1 16.1 7.8 23.6 16.9 8.6 10.5 12.8 26.5 12.5 36.6l30.9 15.5v-50l-126-63z" transform="matrix(.1 0 0 .1 728 360)"/><path class="st9" d="M-6569-3231.5v5l10 5v-5z" transform="matrix(.1 0 0 .1 728 360)"/><path class="st10" d="M-6559-3219l-10-5v-2.5l10 5z" transform="matrix(.1 0 0 .1 728 360)"/><path class="st4" d="M-6421-3257.5c-.8-.7-1.9-.6-2.6.2l-34.2 38.9c-.7.8-.6 1.9.2 2.6.8.7 1.9.6 2.6-.2l9.2-10.5v9h2.3v-11.5h-.1l22.9-26c.5-.7.4-1.8-.3-2.5zm32.9-18c-.8-.7-1.9-.6-2.6.2l-34.2 38.9c-.7.8-.6 1.9.2 2.6.8.7 1.9.6 2.6-.2l8.2-9.3v9.9h2.3v-12.6l23.8-27c.5-.7.4-1.9-.3-2.5z" transform="matrix(.1 0 0 .1 728 360)"/><g transform="matrix(.1 0 0 .1 728 360)"><path opacity=".2" fill="none" stroke="#000" stroke-width=".849" stroke-miterlimit="10" d="M-6354-3249l-6.8 3.4-35.2 88-56 28-35.2-52.8-6.8 3.4"/><path class="st4" d="M-6378.9-3211.5l10-25.1-110.2 55.1 10 15.1zm-75.7 66.8l5.7 8.6 49.8-24.9 5.7-14.3zm64.7-39.3l5.5-13.8-79.2 39.6 5.5 8.3zm7.7 3.1l-5.5 13.8 33.7-16.9v-11z"/><path class="st8" d="M-6354-3224v-20l-3.7 1.8-10 25.1z"/><path class="st12" d="M-6354-3202v-11l-19.2 9.6-5.5 13.8z"/><path class="st8" d="M-6480.3-3160.8l-10-15.1-3.7 1.9v20z"/><path class="st4" d="M-6494-3125v11l33.7-16.8-5.5-8.3z"/><path class="st12" d="M-6469.3-3144.3l-5.5-8.3-19.2 9.6v11zm96.3-32.2l17-8.5v-7l-17 8.5zm-67 49.5l36-18v-7l-36 18zm-52 10l17-8.5v-7l-17 8.5z"/><ellipse transform="rotate(-50.856 -6478.511 -3126.48)" class="st9" cx="-6478.8" cy="-3126.6" rx="2.6" ry="1.7"/><ellipse transform="rotate(-50.856 -6480.926 -3126.472)" class="st9" cx="-6481.2" cy="-3126.6" rx="2.6" ry="1.7"/><ellipse transform="rotate(-50.856 -6477.317 -3144.283)" class="st9" cx="-6477.6" cy="-3144.4" rx="4.4" ry="2.9"/><ellipse transform="rotate(-50.856 -6481.376 -3144.302)" class="st9" cx="-6481.7" cy="-3144.5" rx="4.4" ry="2.9"/><ellipse transform="rotate(-50.856 -6370.323 -3198.275)" class="st9" cx="-6370.6" cy="-3198.4" rx="4.4" ry="2.9"/><ellipse transform="rotate(-50.856 -6366.382 -3202.294)" class="st9" cx="-6366.7" cy="-3202.4" rx="4.4" ry="2.9"/><ellipse transform="rotate(-50.856 -6486.51 -3122.48)" class="st9" cx="-6486.8" cy="-3122.6" rx="2.6" ry="1.7"/><ellipse transform="rotate(-50.856 -6488.926 -3122.473)" class="st9" cx="-6489.2" cy="-3122.6" rx="2.6" ry="1.7"/><ellipse transform="rotate(-50.856 -6358.517 -3186.47)" class="st9" cx="-6358.8" cy="-3186.6" rx="2.6" ry="1.7"/><ellipse transform="rotate(-50.856 -6360.932 -3186.463)" class="st9" cx="-6361.2" cy="-3186.6" rx="2.6" ry="1.7"/><ellipse transform="rotate(-50.856 -6366.517 -3182.47)" class="st9" cx="-6366.8" cy="-3182.6" rx="2.6" ry="1.7"/><ellipse transform="rotate(-50.856 -6368.932 -3182.464)" class="st9" cx="-6369.2" cy="-3182.6" rx="2.6" ry="1.7"/><path d="M-6493-3134l6-3v-5l-6 3zm132-66l6-3v-5l-6 3z" fill="#f90"/></g><path class="st1" d="M-6480-3419l-140 70v36l84 42 140-70c0-11.5-22.9-31.4-31.4-39l-52.6-39z" transform="matrix(.1 0 0 .1 728 360)"/><path class="st2" d="M-6620-3349v36l84 42c0-11.5-22.9-31.4-31.4-39l-52.6-39z" transform="matrix(.1 0 0 .1 728 360)"/><path class="st4" d="M-6513-3199c-1.1 0-2.2-.3-3.1-.9-1.8-1.1-2.8-3-2.8-5.1v-32.3c0-2.3 1.3-4.3 3.3-5.3l3.7-1.8.4.9-3.7 1.8c-1.7.8-2.7 2.5-2.7 4.4v32.3c0 1.7.9 3.3 2.4 4.2 1.5.9 3.3 1 4.8.2l.6-.3.4.9-.6.3c-.9.4-1.8.7-2.7.7z" transform="matrix(.1 0 0 .1 728 360)"/><path class="st4" d="M-6518.7-3238.1l.7-.3c2.4-.8 4.9 1 4.9 3.5v21.4c0 3.1-1.9 6-4.9 7.1l-.9.3c-2.4.9-5.1-.9-5.1-3.5v-21.4c.2-3.2 2.2-6.1 5.3-7.1z" transform="matrix(.1 0 0 .1 728 360)"/><path class="st9" d="M-6602-3203l2 1v-100.7l-2-1z" transform="matrix(.1 0 0 .1 728 360)"/><path class="st10" d="M-6604-3204l2 1v-100.7l-2-1z" transform="matrix(.1 0 0 .1 728 360)"/><path class="st3" d="M-6494-3097l140-70v-50l-140 70zm124-230.7l-140 70 6.5 23.6c6.3 22.8 9.5 46.4 9.5 70.1v15l140-70v-15c0-23.7-3.2-47.3-9.5-70.1l-6.5-23.6z" transform="matrix(.1 0 0 .1 728 360)"/><path class="st2" d="M-6510-3257.7l-110-55v100.7l126 63v-15c0-23.7-3.2-47.3-9.5-70.1l-6.5-23.6z" transform="matrix(.1 0 0 .1 728 360)"/><path class="st9" d="M-6512-3106l-2-1v-50l2 1z" transform="matrix(.1 0 0 .1 728 360)"/><path class="st10" d="M-6510-3105l-2-1v-50l2 1z" transform="matrix(.1 0 0 .1 728 360)"/></g></svg>