<svg xmlns="http://www.w3.org/2000/svg" width="92.9" height="61.3"><style>.st1{fill:#2d3134}.st2{opacity:.29;enable-background:new}.st3{fill:#999}.st4,.st5{opacity:.15;enable-background:new}.st5{opacity:.11}.st6{fill:#06547a}.st8,.st9{opacity:.3;fill:#2d3134;enable-background:new}.st9{fill:#fff}</style><g id="i1712_1_"><path opacity=".3" d="M-5280-4642.4l141-70 749 375-140 70z" transform="matrix(.1 0 0 .1 528 488)"/><path class="st1" d="M-5209-4676.1c-7.5-3.7-14.2-4.2-19.2-1.9l-14 7c-5.4 2.4-8.8 7.9-8.8 15.9 0 15.5 12.5 34.3 28 42 7.6 3.8 14.6 4.2 19.6 1.8 0 0 13.9-6.9 15.1-7.6 4.5-2.7 7.3-7.9 7.3-15.2 0-15.5-12.5-34.3-28-42z" transform="matrix(.1 0 0 .1 528 488)"/><path class="st2" d="M-5203.1-4611.5c2-1 13.7-6.8 14.8-7.5 4.5-2.7 7.3-7.9 7.3-15.2 0-6.2-2.1-13-5.5-19.3l-14 7c3.4 6.4 5.5 13.1 5.5 19.3 0 7.8-3.1 13.1-8.1 15.7z" transform="matrix(.1 0 0 .1 528 488)"/><path class="st3" d="M-5205.1-4632.3c0 9.9-8 13.9-17.9 8.9-9.9-4.9-17.9-17-17.9-26.8s8-13.9 17.9-8.9c9.9 4.9 17.9 16.9 17.9 26.8z" transform="matrix(.1 0 0 .1 528 488)"/><path class="st4" d="M-5221.5-4624c-9.9-4.9-17.9-17-17.9-26.8 0-4.9 1.9-8.3 5.1-9.9-4 1.3-6.6 5-6.6 10.6 0 9.9 8 21.9 17.9 26.8 5 2.5 9.6 2.7 12.8 1-3.1.9-7 .4-11.3-1.7z" transform="matrix(.1 0 0 .1 528 488)"/><path class="st1" d="M-5214.1-4638.2c0 4.1-3.3 5.8-7.5 3.7-4.1-2.1-7.5-7.1-7.5-11.2s3.3-5.8 7.5-3.7c4.2 2.1 7.5 7.1 7.5 11.2z" transform="matrix(.1 0 0 .1 528 488)"/><path class="st2" d="M-5214.1-4638.2c0 4.1-3.3 5.8-7.5 3.7-4.1-2.1-7.5-7.1-7.5-11.2s3.3-5.8 7.5-3.7c4.2 2.1 7.5 7.1 7.5 11.2z" transform="matrix(.1 0 0 .1 528 488)"/><path class="st1" d="M-5215.5-4637.5c0 4.1-3.3 5.8-7.5 3.7-4.1-2.1-7.5-7.1-7.5-11.2s3.3-5.8 7.5-3.7c4.1 2.1 7.5 7.1 7.5 11.2z" transform="matrix(.1 0 0 .1 528 488)"/><path class="st5" d="M-5195-4627.1c0 15.5-12.5 21.7-28 14-15.5-7.7-28-26.5-28-42s12.5-21.7 28-14c15.5 7.7 28 26.5 28 42z" transform="matrix(.1 0 0 .1 528 488)"/><path class="st6" d="M-5053-4714.4l-140 70v31l32 16 140-70v-31z" transform="matrix(.1 0 0 .1 528 488)"/><path class="st5" d="M-5193-4644.4v31l32 16v-31z" transform="matrix(.1 0 0 .1 528 488)"/><path class="st2" d="M-5021-4698.4v31l-140 70v-31z" transform="matrix(.1 0 0 .1 528 488)"/><path class="st6" d="M-5021-4698.4l-10 5v31l52 26 10-5v-31z" transform="matrix(.1 0 0 .1 528 488)"/><path class="st5" d="M-5031-4693.4v31l52 26v-31z" transform="matrix(.1 0 0 .1 528 488)"/><path class="st2" d="M-4969-4672.4v31l-10 5v-31z" transform="matrix(.1 0 0 .1 528 488)"/><path class="st3" d="M-5037-4686.4l-20 10v27l44 22 20-10v-27z" transform="matrix(.1 0 0 .1 528 488)"/><path class="st1" d="M-5023-4679.4l-4-2-20 10v27l4 2v-27zm20 10l-4-2-20 10v27l4 2v-27z" transform="matrix(.1 0 0 .1 528 488)"/><path class="st2" d="M-4993-4664.4v27l-20 10v-27z" transform="matrix(.1 0 0 .1 528 488)"/><path class="st5" d="M-5057-4676.4v27l44 22v-27z" transform="matrix(.1 0 0 .1 528 488)"/><path class="st6" d="M-5067-4675.4l-4 2v31l156 78 4-2v-31z" transform="matrix(.1 0 0 .1 528 488)"/><path class="st5" d="M-5071-4673.4v31l156 78v-31z" transform="matrix(.1 0 0 .1 528 488)"/><path class="st2" d="M-4911-4597.4v31l-4 2v-31z" transform="matrix(.1 0 0 .1 528 488)"/><path class="st6" d="M-5071-4671.4l-36 18v31l24 12 36-18v-31z" transform="matrix(.1 0 0 .1 528 488)"/><path class="st5" d="M-5107-4653.4v31l24 12v-31z" transform="matrix(.1 0 0 .1 528 488)"/><path class="st2" d="M-5047-4659.4v31l-36 18v-31z" transform="matrix(.1 0 0 .1 528 488)"/><path class="st6" d="M-5111-4653.4l-4 2v31l156 78 4-2v-31z" transform="matrix(.1 0 0 .1 528 488)"/><path class="st5" d="M-5115-4651.4v31l156 78v-31z" transform="matrix(.1 0 0 .1 528 488)"/><path class="st2" d="M-4955-4575.4v31l-4 2v-31z" transform="matrix(.1 0 0 .1 528 488)"/><path class="st3" d="M-5125-4642.4l-20 10v27l44 22 20-10v-27z" transform="matrix(.1 0 0 .1 528 488)"/><path class="st1" d="M-5111-4635.4l-4-2-20 10v27l4 2v-27zm20 10l-4-2-20 10v27l4 2v-27z" transform="matrix(.1 0 0 .1 528 488)"/><path class="st2" d="M-5081-4620.4v27l-20 10v-27z" transform="matrix(.1 0 0 .1 528 488)"/><path class="st5" d="M-5145-4632.4v27l44 22v-27z" transform="matrix(.1 0 0 .1 528 488)"/><path class="st6" d="M-5151-4633.4l-10 5v31l52 26 10-5v-31z" transform="matrix(.1 0 0 .1 528 488)"/><path class="st5" d="M-5161-4628.4v31l52 26v-31z" transform="matrix(.1 0 0 .1 528 488)"/><path class="st2" d="M-5099-4607.4v31l-10 5v-31z" transform="matrix(.1 0 0 .1 528 488)"/><path class="st1" d="M-5101-4606.8l36-18-12 20-36 18z" transform="matrix(.1 0 0 .1 528 488)"/><path class="st2" d="M-5101-4606.8l36-18-12 20-36 18z" transform="matrix(.1 0 0 .1 528 488)"/><path class="st1" d="M-5046.6-4614.2c-7.5-3.7-14.2-4.2-19.2-1.9l-14 7c-5.4 2.4-8.8 7.9-8.8 15.9 0 15.5 12.5 34.3 28 42 7.6 3.8 14.6 4.2 19.6 1.8 0 0 13.9-6.9 15.1-7.6 4.5-2.7 7.3-7.9 7.3-15.2 0-15.4-12.6-34.2-28-42z" transform="matrix(.1 0 0 .1 528 488)"/><path class="st2" d="M-5040.7-4549.6c2-1 13.7-6.8 14.8-7.5 4.5-2.7 7.3-7.9 7.3-15.2 0-6.2-2.1-13-5.5-19.3l-14 7c3.4 6.4 5.5 13.1 5.5 19.3 0 7.8-3.1 13.2-8.1 15.7z" transform="matrix(.1 0 0 .1 528 488)"/><path class="st3" d="M-5042.7-4570.4c0 9.9-8 13.9-17.9 8.9-9.9-4.9-17.9-17-17.9-26.8s8-13.9 17.9-8.9c9.8 4.9 17.9 16.9 17.9 26.8z" transform="matrix(.1 0 0 .1 528 488)"/><path class="st4" d="M-5059.1-4562.1c-9.9-4.9-17.9-17-17.9-26.8 0-4.9 1.9-8.3 5.1-9.9-4 1.3-6.6 5-6.6 10.6 0 9.9 8 21.9 17.9 26.8 5 2.5 9.6 2.7 12.8 1-3.1.9-7 .4-11.3-1.7z" transform="matrix(.1 0 0 .1 528 488)"/><path class="st1" d="M-5051.7-4576.3c0 4.1-3.3 5.8-7.5 3.7-4.1-2.1-7.5-7.1-7.5-11.2s3.3-5.8 7.5-3.7c4.2 2.1 7.5 7.1 7.5 11.2z" transform="matrix(.1 0 0 .1 528 488)"/><path class="st2" d="M-5051.7-4576.3c0 4.1-3.3 5.8-7.5 3.7-4.1-2.1-7.5-7.1-7.5-11.2s3.3-5.8 7.5-3.7c4.2 2.1 7.5 7.1 7.5 11.2z" transform="matrix(.1 0 0 .1 528 488)"/><path class="st1" d="M-5053.2-4575.6c0 4.1-3.3 5.8-7.5 3.7-4.1-2.1-7.5-7.1-7.5-11.2s3.3-5.8 7.5-3.7c4.2 2.1 7.5 7.1 7.5 11.2z" transform="matrix(.1 0 0 .1 528 488)"/><path class="st5" d="M-5032.6-4565.2c0 15.5-12.5 21.7-28 14-15.5-7.7-28-26.5-28-42s12.5-21.7 28-14c15.4 7.8 28 26.6 28 42z" transform="matrix(.1 0 0 .1 528 488)"/><path class="st1" d="M-5066-4604.7c-7.5-3.7-14.2-4.2-19.2-1.9l-14 7c-5.4 2.4-8.8 7.9-8.8 15.9 0 15.5 12.5 34.3 28 42 7.6 3.8 14.6 4.2 19.6 1.8 0 0 13.9-6.9 15.1-7.6 4.5-2.7 7.3-7.9 7.3-15.2 0-15.5-12.5-34.3-28-42z" transform="matrix(.1 0 0 .1 528 488)"/><path class="st2" d="M-5060.1-4540.1c2-1 13.7-6.8 14.8-7.5 4.5-2.7 7.3-7.9 7.3-15.2 0-6.2-2.1-13-5.5-19.3l-14 7c3.4 6.4 5.5 13.1 5.5 19.3 0 7.7-3.1 13.1-8.1 15.7z" transform="matrix(.1 0 0 .1 528 488)"/><path class="st3" d="M-5062.1-4561c0 9.9-8 13.9-17.9 8.9-9.9-4.9-17.9-17-17.9-26.8s8-13.9 17.9-8.9 17.9 17 17.9 26.8z" transform="matrix(.1 0 0 .1 528 488)"/><path class="st4" d="M-5078.5-4552.6c-9.9-4.9-17.9-17-17.9-26.8 0-4.9 1.9-8.3 5.1-9.9-4 1.3-6.6 5-6.6 10.6 0 9.9 8 21.9 17.9 26.8 5 2.5 9.6 2.7 12.8 1-3.1.9-7 .4-11.3-1.7z" transform="matrix(.1 0 0 .1 528 488)"/><path class="st1" d="M-5071.1-4566.8c0 4.1-3.3 5.8-7.5 3.7-4.1-2.1-7.5-7.1-7.5-11.2s3.3-5.8 7.5-3.7c4.2 2.1 7.5 7.1 7.5 11.2z" transform="matrix(.1 0 0 .1 528 488)"/><path class="st2" d="M-5071.1-4566.8c0 4.1-3.3 5.8-7.5 3.7-4.1-2.1-7.5-7.1-7.5-11.2s3.3-5.8 7.5-3.7c4.2 2.1 7.5 7.1 7.5 11.2z" transform="matrix(.1 0 0 .1 528 488)"/><path class="st1" d="M-5072.5-4566.1c0 4.1-3.3 5.8-7.5 3.7s-7.5-7.1-7.5-11.2 3.3-5.8 7.5-3.7c4.1 2.1 7.5 7.1 7.5 11.2z" transform="matrix(.1 0 0 .1 528 488)"/><path class="st5" d="M-5052-4555.7c0 15.5-12.5 21.7-28 14-15.5-7.7-28-26.5-28-42s12.5-21.7 28-14c15.5 7.7 28 26.5 28 42z" transform="matrix(.1 0 0 .1 528 488)"/><path class="st1" d="M-5101-4606.8l36-18 36 18-36 18z" transform="matrix(.1 0 0 .1 528 488)"/><path class="st1" d="M-5051-4563.8l36-18-14-25-36 18z" transform="matrix(.1 0 0 .1 528 488)"/><path class="st2" d="M-5051-4563.8l36-18-14-25-36 18z" transform="matrix(.1 0 0 .1 528 488)"/><path class="st1" d="M-5043-4576.8l36-18-12 20-36 18z" transform="matrix(.1 0 0 .1 528 488)"/><path class="st2" d="M-5043-4576.8l36-18-12 20-36 18z" transform="matrix(.1 0 0 .1 528 488)"/><path class="st1" d="M-4988.6-4584.2c-7.5-3.7-14.2-4.2-19.2-1.9l-14 7c-5.4 2.4-8.8 7.9-8.8 15.9 0 15.5 12.5 34.3 28 42 7.6 3.8 14.6 4.2 19.6 1.8 0 0 13.9-6.9 15.1-7.6 4.5-2.7 7.3-7.9 7.3-15.2 0-15.4-12.6-34.2-28-42z" transform="matrix(.1 0 0 .1 528 488)"/><path class="st2" d="M-4982.7-4519.6c2-1 13.7-6.8 14.8-7.5 4.5-2.7 7.3-7.9 7.3-15.2 0-6.2-2.1-13-5.5-19.3l-14 7c3.4 6.4 5.5 13.1 5.5 19.3 0 7.8-3.1 13.2-8.1 15.7z" transform="matrix(.1 0 0 .1 528 488)"/><path class="st3" d="M-4984.7-4540.4c0 9.9-8 13.9-17.9 8.9-9.9-4.9-17.9-17-17.9-26.8s8-13.9 17.9-8.9c9.8 4.9 17.9 16.9 17.9 26.8z" transform="matrix(.1 0 0 .1 528 488)"/><path class="st4" d="M-5001.1-4532.1c-9.9-4.9-17.9-17-17.9-26.8 0-4.9 1.9-8.3 5.1-9.9-4 1.3-6.6 5-6.6 10.6 0 9.9 8 21.9 17.9 26.8 5 2.5 9.6 2.7 12.8 1-3.1.9-7 .4-11.3-1.7z" transform="matrix(.1 0 0 .1 528 488)"/><path class="st1" d="M-4993.7-4546.3c0 4.1-3.3 5.8-7.5 3.7-4.1-2.1-7.5-7.1-7.5-11.2s3.3-5.8 7.5-3.7c4.2 2.1 7.5 7.1 7.5 11.2z" transform="matrix(.1 0 0 .1 528 488)"/><path class="st2" d="M-4993.7-4546.3c0 4.1-3.3 5.8-7.5 3.7-4.1-2.1-7.5-7.1-7.5-11.2s3.3-5.8 7.5-3.7c4.2 2.1 7.5 7.1 7.5 11.2z" transform="matrix(.1 0 0 .1 528 488)"/><path class="st1" d="M-4995.2-4545.6c0 4.1-3.3 5.8-7.5 3.7-4.1-2.1-7.5-7.1-7.5-11.2s3.3-5.8 7.5-3.7c4.2 2.1 7.5 7.1 7.5 11.2z" transform="matrix(.1 0 0 .1 528 488)"/><path class="st5" d="M-4974.6-4535.2c0 15.5-12.5 21.7-28 14-15.5-7.7-28-26.5-28-42s12.5-21.7 28-14c15.4 7.8 28 26.6 28 42z" transform="matrix(.1 0 0 .1 528 488)"/><path class="st1" d="M-5008-4574.7c-7.5-3.7-14.2-4.2-19.2-1.9l-14 7c-5.4 2.4-8.8 7.9-8.8 15.9 0 15.5 12.5 34.3 28 42 7.6 3.8 14.6 4.2 19.6 1.8 0 0 13.9-6.9 15.1-7.6 4.5-2.7 7.3-7.9 7.3-15.2 0-15.5-12.5-34.3-28-42z" transform="matrix(.1 0 0 .1 528 488)"/><path class="st2" d="M-5002.1-4510.1c2-1 13.7-6.8 14.8-7.5 4.5-2.7 7.3-7.9 7.3-15.2 0-6.2-2.1-13-5.5-19.3l-14 7c3.4 6.4 5.5 13.1 5.5 19.3 0 7.7-3.1 13.1-8.1 15.7z" transform="matrix(.1 0 0 .1 528 488)"/><path class="st3" d="M-5004.1-4531c0 9.9-8 13.9-17.9 8.9-9.9-4.9-17.9-17-17.9-26.8s8-13.9 17.9-8.9 17.9 17 17.9 26.8z" transform="matrix(.1 0 0 .1 528 488)"/><path class="st4" d="M-5020.5-4522.6c-9.9-4.9-17.9-17-17.9-26.8 0-4.9 1.9-8.3 5.1-9.9-4 1.3-6.6 5-6.6 10.6 0 9.9 8 21.9 17.9 26.8 5 2.5 9.6 2.7 12.8 1-3.1.9-7 .4-11.3-1.7z" transform="matrix(.1 0 0 .1 528 488)"/><path class="st1" d="M-5013.1-4536.8c0 4.1-3.3 5.8-7.5 3.7-4.1-2.1-7.5-7.1-7.5-11.2s3.3-5.8 7.5-3.7c4.2 2.1 7.5 7.1 7.5 11.2z" transform="matrix(.1 0 0 .1 528 488)"/><path class="st2" d="M-5013.1-4536.8c0 4.1-3.3 5.8-7.5 3.7-4.1-2.1-7.5-7.1-7.5-11.2s3.3-5.8 7.5-3.7c4.2 2.1 7.5 7.1 7.5 11.2z" transform="matrix(.1 0 0 .1 528 488)"/><path class="st1" d="M-5014.5-4536.1c0 4.1-3.3 5.8-7.5 3.7s-7.5-7.1-7.5-11.2 3.3-5.8 7.5-3.7c4.1 2.1 7.5 7.1 7.5 11.2z" transform="matrix(.1 0 0 .1 528 488)"/><path class="st5" d="M-4994-4525.7c0 15.5-12.5 21.7-28 14-15.5-7.7-28-26.5-28-42s12.5-21.7 28-14c15.5 7.7 28 26.5 28 42z" transform="matrix(.1 0 0 .1 528 488)"/><path class="st1" d="M-5043-4576.8l36-18 36 18-36 18z" transform="matrix(.1 0 0 .1 528 488)"/><path class="st1" d="M-4993-4533.8l36-18-14-25-36 18z" transform="matrix(.1 0 0 .1 528 488)"/><path class="st2" d="M-4993-4533.8l36-18-14-25-36 18z" transform="matrix(.1 0 0 .1 528 488)"/><path class="st1" d="M-4743-4428l36-18-12 20-36 18z" transform="matrix(.1 0 0 .1 528 488)"/><path class="st2" d="M-4743-4428l36-18-12 20-36 18z" transform="matrix(.1 0 0 .1 528 488)"/><path class="st1" d="M-4688.6-4435.4c-7.5-3.7-14.2-4.2-19.2-1.9l-14 7c-5.4 2.4-8.8 7.9-8.8 15.9 0 15.5 12.5 34.3 28 42 7.6 3.8 14.6 4.2 19.6 1.8 0 0 13.9-6.9 15.1-7.6 4.5-2.7 7.3-7.9 7.3-15.2 0-15.5-12.6-34.3-28-42z" transform="matrix(.1 0 0 .1 528 488)"/><path class="st2" d="M-4682.7-4370.8c2-1 13.7-6.8 14.8-7.5 4.5-2.7 7.3-7.9 7.3-15.2 0-6.2-2.1-13-5.5-19.3l-14 7c3.4 6.4 5.5 13.1 5.5 19.3 0 7.7-3.1 13.1-8.1 15.7z" transform="matrix(.1 0 0 .1 528 488)"/><path class="st3" d="M-4684.7-4391.7c0 9.9-8 13.9-17.9 8.9-9.9-4.9-17.9-17-17.9-26.8s8-13.9 17.9-8.9c9.8 5 17.9 17 17.9 26.8z" transform="matrix(.1 0 0 .1 528 488)"/><path class="st4" d="M-4701.1-4383.3c-9.9-4.9-17.9-17-17.9-26.8 0-4.9 1.9-8.3 5.1-9.9-4 1.3-6.6 5-6.6 10.6 0 9.9 8 21.9 17.9 26.8 5 2.5 9.6 2.7 12.8 1-3.1.9-7 .4-11.3-1.7z" transform="matrix(.1 0 0 .1 528 488)"/><path class="st1" d="M-4693.7-4397.5c0 4.1-3.3 5.8-7.5 3.7-4.2-2.1-7.5-7.1-7.5-11.2s3.3-5.8 7.5-3.7c4.2 2.1 7.5 7.1 7.5 11.2z" transform="matrix(.1 0 0 .1 528 488)"/><path class="st2" d="M-4693.7-4397.5c0 4.1-3.3 5.8-7.5 3.7-4.2-2.1-7.5-7.1-7.5-11.2s3.3-5.8 7.5-3.7c4.2 2.1 7.5 7.1 7.5 11.2z" transform="matrix(.1 0 0 .1 528 488)"/><path class="st1" d="M-4695.2-4396.8c0 4.1-3.3 5.8-7.5 3.7-4.1-2.1-7.5-7.1-7.5-11.2s3.3-5.8 7.5-3.7c4.2 2.1 7.5 7.1 7.5 11.2z" transform="matrix(.1 0 0 .1 528 488)"/><path class="st5" d="M-4674.6-4386.4c0 15.5-12.5 21.7-28 14-15.5-7.7-28-26.5-28-42s12.5-21.7 28-14c15.4 7.7 28 26.5 28 42z" transform="matrix(.1 0 0 .1 528 488)"/><path class="st1" d="M-4708-4426c-7.5-3.7-14.2-4.2-19.2-1.9l-14 7c-5.4 2.4-8.8 7.9-8.8 15.9 0 15.5 12.5 34.3 28 42 7.6 3.8 14.6 4.2 19.6 1.8 0 0 13.9-6.9 15.1-7.6 4.5-2.7 7.3-7.9 7.3-15.2 0-15.4-12.5-34.2-28-42z" transform="matrix(.1 0 0 .1 528 488)"/><path class="st2" d="M-4702.1-4361.3c2-1 13.7-6.8 14.8-7.5 4.5-2.7 7.3-7.9 7.3-15.2 0-6.2-2.1-13-5.5-19.3l-14 7c3.4 6.4 5.5 13.1 5.5 19.3 0 7.7-3.1 13.1-8.1 15.7z" transform="matrix(.1 0 0 .1 528 488)"/><path class="st3" d="M-4704.1-4382.2c0 9.9-8 13.9-17.9 8.9-9.9-4.9-17.9-17-17.9-26.8 0-9.9 8-13.9 17.9-8.9s17.9 16.9 17.9 26.8z" transform="matrix(.1 0 0 .1 528 488)"/><path class="st4" d="M-4720.5-4373.9c-9.9-4.9-17.9-17-17.9-26.8 0-4.9 1.9-8.3 5.1-9.9-4 1.3-6.6 5-6.6 10.6 0 9.9 8 21.9 17.9 26.8 5 2.5 9.6 2.7 12.8 1-3.1.9-7 .5-11.3-1.7z" transform="matrix(.1 0 0 .1 528 488)"/><path class="st1" d="M-4713.1-4388c0 4.1-3.3 5.8-7.5 3.7-4.1-2.1-7.5-7.1-7.5-11.2s3.3-5.8 7.5-3.7c4.2 2.1 7.5 7.1 7.5 11.2z" transform="matrix(.1 0 0 .1 528 488)"/><path class="st2" d="M-4713.1-4388c0 4.1-3.3 5.8-7.5 3.7-4.1-2.1-7.5-7.1-7.5-11.2s3.3-5.8 7.5-3.7c4.2 2.1 7.5 7.1 7.5 11.2z" transform="matrix(.1 0 0 .1 528 488)"/><path class="st1" d="M-4714.5-4387.3c0 4.1-3.3 5.8-7.5 3.7s-7.5-7.1-7.5-11.2 3.3-5.8 7.5-3.7 7.5 7.1 7.5 11.2z" transform="matrix(.1 0 0 .1 528 488)"/><path class="st5" d="M-4694-4376.9c0 15.5-12.5 21.7-28 14-15.5-7.7-28-26.5-28-42s12.5-21.7 28-14c15.5 7.7 28 26.5 28 42z" transform="matrix(.1 0 0 .1 528 488)"/><path class="st1" d="M-4743-4428l36-18 36 18-36 18z" transform="matrix(.1 0 0 .1 528 488)"/><path class="st1" d="M-4693-4385l36-18-14-25-36 18z" transform="matrix(.1 0 0 .1 528 488)"/><path class="st2" d="M-4693-4385l36-18-14-25-36 18z" transform="matrix(.1 0 0 .1 528 488)"/><path class="st1" d="M-4684-4397.6l36-18-12 20-36 18z" transform="matrix(.1 0 0 .1 528 488)"/><path class="st2" d="M-4684-4397.6l36-18-12 20-36 18z" transform="matrix(.1 0 0 .1 528 488)"/><path class="st1" d="M-4629.6-4405c-7.5-3.7-14.2-4.2-19.2-1.9l-14 7c-5.4 2.4-8.8 7.9-8.8 15.9 0 15.5 12.5 34.3 28 42 7.6 3.8 14.6 4.2 19.6 1.8 0 0 13.9-6.9 15.1-7.6 4.5-2.7 7.3-7.9 7.3-15.2 0-15.5-12.6-34.3-28-42z" transform="matrix(.1 0 0 .1 528 488)"/><path class="st2" d="M-4623.7-4340.4c2-1 13.7-6.8 14.8-7.5 4.5-2.7 7.3-7.9 7.3-15.2 0-6.2-2.1-13-5.5-19.3l-14 7c3.4 6.4 5.5 13.1 5.5 19.3 0 7.7-3.1 13.1-8.1 15.7z" transform="matrix(.1 0 0 .1 528 488)"/><path class="st3" d="M-4625.7-4361.3c0 9.9-8 13.9-17.9 8.9-9.9-4.9-17.9-17-17.9-26.8 0-9.9 8-13.9 17.9-8.9 9.8 5 17.9 17 17.9 26.8z" transform="matrix(.1 0 0 .1 528 488)"/><path class="st4" d="M-4642.1-4352.9c-9.9-4.9-17.9-17-17.9-26.8 0-4.9 1.9-8.3 5.1-9.9-4 1.3-6.6 5-6.6 10.6 0 9.9 8 21.9 17.9 26.8 5 2.5 9.6 2.7 12.8 1-3.1.9-7 .4-11.3-1.7z" transform="matrix(.1 0 0 .1 528 488)"/><path class="st1" d="M-4634.7-4367.1c0 4.1-3.3 5.8-7.5 3.7-4.1-2.1-7.5-7.1-7.5-11.2s3.3-5.8 7.5-3.7c4.2 2.1 7.5 7.1 7.5 11.2z" transform="matrix(.1 0 0 .1 528 488)"/><path class="st2" d="M-4634.7-4367.1c0 4.1-3.3 5.8-7.5 3.7-4.1-2.1-7.5-7.1-7.5-11.2s3.3-5.8 7.5-3.7c4.2 2.1 7.5 7.1 7.5 11.2z" transform="matrix(.1 0 0 .1 528 488)"/><path class="st1" d="M-4636.2-4366.4c0 4.1-3.3 5.8-7.5 3.7-4.1-2.1-7.5-7.1-7.5-11.2s3.3-5.8 7.5-3.7c4.2 2.1 7.5 7.1 7.5 11.2z" transform="matrix(.1 0 0 .1 528 488)"/><path class="st5" d="M-4615.6-4356c0 15.5-12.5 21.7-28 14s-28-26.5-28-42 12.5-21.7 28-14c15.4 7.7 28 26.5 28 42z" transform="matrix(.1 0 0 .1 528 488)"/><path class="st1" d="M-4649-4395.5c-7.5-3.7-14.2-4.2-19.2-1.9l-14 7c-5.4 2.4-8.8 7.9-8.8 15.9 0 15.5 12.5 34.3 28 42 7.6 3.8 14.6 4.2 19.6 1.8 0 0 13.9-6.9 15.1-7.6 4.5-2.7 7.3-7.9 7.3-15.2 0-15.5-12.5-34.3-28-42z" transform="matrix(.1 0 0 .1 528 488)"/><path class="st2" d="M-4643.1-4330.9c2-1 13.7-6.8 14.8-7.5 4.5-2.7 7.3-7.9 7.3-15.2 0-6.2-2.1-13-5.5-19.3l-14 7c3.4 6.4 5.5 13.1 5.5 19.3 0 7.7-3.1 13.1-8.1 15.7z" transform="matrix(.1 0 0 .1 528 488)"/><path class="st3" d="M-4645.1-4351.8c0 9.9-8 13.9-17.9 8.9s-17.9-17-17.9-26.8c0-9.9 8-13.9 17.9-8.9 9.9 4.9 17.9 16.9 17.9 26.8z" transform="matrix(.1 0 0 .1 528 488)"/><path class="st4" d="M-4661.5-4343.5c-9.9-4.9-17.9-17-17.9-26.8 0-4.9 1.9-8.3 5.1-9.9-4 1.3-6.6 5-6.6 10.6 0 9.9 8 21.9 17.9 26.8 5 2.5 9.6 2.7 12.8 1-3.1.9-7 .5-11.3-1.7z" transform="matrix(.1 0 0 .1 528 488)"/><path class="st1" d="M-4654.1-4357.6c0 4.1-3.3 5.8-7.5 3.7-4.1-2.1-7.5-7.1-7.5-11.2s3.3-5.8 7.5-3.7c4.2 2.1 7.5 7.1 7.5 11.2z" transform="matrix(.1 0 0 .1 528 488)"/><path class="st2" d="M-4654.1-4357.6c0 4.1-3.3 5.8-7.5 3.7-4.1-2.1-7.5-7.1-7.5-11.2s3.3-5.8 7.5-3.7c4.2 2.1 7.5 7.1 7.5 11.2z" transform="matrix(.1 0 0 .1 528 488)"/><path class="st1" d="M-4655.5-4356.9c0 4.1-3.3 5.8-7.5 3.7-4.2-2.1-7.5-7.1-7.5-11.2s3.3-5.8 7.5-3.7 7.5 7.1 7.5 11.2z" transform="matrix(.1 0 0 .1 528 488)"/><path class="st5" d="M-4635-4346.5c0 15.5-12.5 21.7-28 14s-28-26.5-28-42 12.5-21.7 28-14 28 26.5 28 42z" transform="matrix(.1 0 0 .1 528 488)"/><path class="st1" d="M-4684-4397.6l36-18 36 18-36 18z" transform="matrix(.1 0 0 .1 528 488)"/><path class="st1" d="M-4634-4354.6l36-18-14-25-36 18z" transform="matrix(.1 0 0 .1 528 488)"/><path class="st2" d="M-4634-4354.6l36-18-14-25-36 18z" transform="matrix(.1 0 0 .1 528 488)"/><path class="st1" d="M-4625-4368l36-18-12 20-36 18z" transform="matrix(.1 0 0 .1 528 488)"/><path class="st2" d="M-4625-4368l36-18-12 20-36 18z" transform="matrix(.1 0 0 .1 528 488)"/><path class="st1" d="M-4570.6-4375.4c-7.5-3.7-14.2-4.2-19.2-1.9l-14 7c-5.4 2.4-8.8 7.9-8.8 15.9 0 15.5 12.5 34.3 28 42 7.6 3.8 14.6 4.2 19.6 1.8 0 0 13.9-6.9 15.1-7.6 4.5-2.7 7.3-7.9 7.3-15.2 0-15.5-12.6-34.3-28-42z" transform="matrix(.1 0 0 .1 528 488)"/><path class="st2" d="M-4564.7-4310.8c2-1 13.7-6.8 14.8-7.5 4.5-2.7 7.3-7.9 7.3-15.2 0-6.2-2.1-13-5.5-19.3l-14 7c3.4 6.4 5.5 13.1 5.5 19.3 0 7.7-3.1 13.1-8.1 15.7z" transform="matrix(.1 0 0 .1 528 488)"/><path class="st3" d="M-4566.7-4331.7c0 9.9-8 13.9-17.9 8.9-9.9-4.9-17.9-17-17.9-26.8 0-9.9 8-13.9 17.9-8.9 9.8 5 17.9 17 17.9 26.8z" transform="matrix(.1 0 0 .1 528 488)"/><path class="st4" d="M-4583.1-4323.3c-9.9-4.9-17.9-17-17.9-26.8 0-4.9 1.9-8.3 5.1-9.9-4 1.3-6.6 5-6.6 10.6 0 9.9 8 21.9 17.9 26.8 5 2.5 9.6 2.7 12.8 1-3.1.9-7 .4-11.3-1.7z" transform="matrix(.1 0 0 .1 528 488)"/><path class="st1" d="M-4575.7-4337.5c0 4.1-3.3 5.8-7.5 3.7-4.2-2.1-7.5-7.1-7.5-11.2s3.3-5.8 7.5-3.7c4.2 2.1 7.5 7.1 7.5 11.2z" transform="matrix(.1 0 0 .1 528 488)"/><path class="st2" d="M-4575.7-4337.5c0 4.1-3.3 5.8-7.5 3.7-4.2-2.1-7.5-7.1-7.5-11.2s3.3-5.8 7.5-3.7c4.2 2.1 7.5 7.1 7.5 11.2z" transform="matrix(.1 0 0 .1 528 488)"/><path class="st1" d="M-4577.2-4336.8c0 4.1-3.3 5.8-7.5 3.7-4.1-2.1-7.5-7.1-7.5-11.2s3.3-5.8 7.5-3.7c4.2 2.1 7.5 7.1 7.5 11.2z" transform="matrix(.1 0 0 .1 528 488)"/><path class="st5" d="M-4556.6-4326.4c0 15.5-12.5 21.7-28 14-15.5-7.7-28-26.5-28-42s12.5-21.7 28-14c15.4 7.7 28 26.5 28 42z" transform="matrix(.1 0 0 .1 528 488)"/><path class="st1" d="M-4590-4366c-7.5-3.7-14.2-4.2-19.2-1.9l-14 7c-5.4 2.4-8.8 7.9-8.8 15.9 0 15.5 12.5 34.3 28 42 7.6 3.8 14.6 4.2 19.6 1.8 0 0 13.9-6.9 15.1-7.6 4.5-2.7 7.3-7.9 7.3-15.2 0-15.4-12.5-34.2-28-42z" transform="matrix(.1 0 0 .1 528 488)"/><path class="st2" d="M-4584.1-4301.3c2-1 13.7-6.8 14.8-7.5 4.5-2.7 7.3-7.9 7.3-15.2 0-6.2-2.1-13-5.5-19.3l-14 7c3.4 6.4 5.5 13.1 5.5 19.3 0 7.7-3.1 13.1-8.1 15.7z" transform="matrix(.1 0 0 .1 528 488)"/><path class="st3" d="M-4586.1-4322.2c0 9.9-8 13.9-17.9 8.9-9.9-4.9-17.9-17-17.9-26.8 0-9.9 8-13.9 17.9-8.9 9.9 4.9 17.9 16.9 17.9 26.8z" transform="matrix(.1 0 0 .1 528 488)"/><path class="st4" d="M-4602.5-4313.9c-9.9-4.9-17.9-17-17.9-26.8 0-4.9 1.9-8.3 5.1-9.9-4 1.3-6.6 5-6.6 10.6 0 9.9 8 21.9 17.9 26.8 5 2.5 9.6 2.7 12.8 1-3.1.9-7 .5-11.3-1.7z" transform="matrix(.1 0 0 .1 528 488)"/><path class="st1" d="M-4595.1-4328c0 4.1-3.3 5.8-7.5 3.7-4.1-2.1-7.5-7.1-7.5-11.2s3.3-5.8 7.5-3.7c4.2 2.1 7.5 7.1 7.5 11.2z" transform="matrix(.1 0 0 .1 528 488)"/><path class="st2" d="M-4595.1-4328c0 4.1-3.3 5.8-7.5 3.7-4.1-2.1-7.5-7.1-7.5-11.2s3.3-5.8 7.5-3.7c4.2 2.1 7.5 7.1 7.5 11.2z" transform="matrix(.1 0 0 .1 528 488)"/><path class="st1" d="M-4596.5-4327.3c0 4.1-3.3 5.8-7.5 3.7s-7.5-7.1-7.5-11.2 3.3-5.8 7.5-3.7 7.5 7.1 7.5 11.2z" transform="matrix(.1 0 0 .1 528 488)"/><path class="st5" d="M-4576-4316.9c0 15.5-12.5 21.7-28 14-15.5-7.7-28-26.5-28-42s12.5-21.7 28-14c15.5 7.7 28 26.5 28 42z" transform="matrix(.1 0 0 .1 528 488)"/><path class="st1" d="M-4625-4368l36-18 36 18-36 18z" transform="matrix(.1 0 0 .1 528 488)"/><path class="st1" d="M-4575-4325l36-18-14-25-36 18z" transform="matrix(.1 0 0 .1 528 488)"/><path class="st2" d="M-4575-4325l36-18-14-25-36 18z" transform="matrix(.1 0 0 .1 528 488)"/><path class="st6" d="M-5140-4782.4l-140 70v50l28.9 14.4v-2.9c.5-9.6 4.7-19.4 12.5-21.2 7.5-1.7 15 2.2 23.6 6.6 2.6 1.3 43 22 43 22l18 9 140-70v-15l-126-62.9z" transform="matrix(.1 0 0 .1 528 488)"/><path class="st6" d="M-5124-4877.4l-140 70-6.5 17.4c-6.3 16.6-9.5 36.9-9.5 60.6v15l126 63 140-70v-101l-110-55z" transform="matrix(.1 0 0 .1 528 488)"/><path class="st2" d="M-5154-4634.4l140-70v-15l-140 70zm0-17l140-70v-101l-140 70z" transform="matrix(.1 0 0 .1 528 488)"/><path d="M-5208.3-4733.7c-.1 0-.2 0-.3-.1l-35-17.6c-1.2-.6-2.2-.9-3.2-.9-2.6 0-4.1 2-4.1 5.4 0 1.7-.5 2.5-1.5 2.5-.5 0-1.1-.2-1.7-.5l-14.4-7.1c-2-1-4.3-5.2-4-6.8 1.5-9.5 3.8-18.2 6.8-25.9l4.6-12.1c.4-1.1 1.1-1.6 2.2-1.6.8 0 1.7.3 2.7.8l43.9 22c1.8.9 4 4.6 4 6.5v35.1c.1.2 0 .3 0 .3z" fill="#656565" transform="matrix(.1 0 0 .1 528 488)"/><path class="st1" d="M-5258.9-4797.4c.4 0 1.2.1 2.3.7l43.9 22c1.4.7 3.5 4 3.5 5.6v33.8l-33.9-17c-1.3-.6-2.5-1-3.6-1-1.6 0-3 .7-3.9 2-.8 1.1-1.2 2.6-1.2 4.4 0 1-.3 1.4-.3 1.5h-.2c-.2 0-.6-.1-1.3-.4l-14.4-7.1c-1.7-.9-3.7-4.6-3.5-5.8 1.5-9.4 3.8-18 6.7-25.7l4.6-12.1c.3-.7.7-.9 1.3-.9m0-2c-1.5 0-2.6.8-3.1 2.2l-4.6 12.1c-3 7.8-5.3 16.6-6.8 26.1-.4 2.2 2.3 6.7 4.6 7.9l14.4 7.1c.8.4 1.6.6 2.2.6 1.6 0 2.5-1.2 2.5-3.5 0-2.8 1.1-4.4 3.1-4.4.8 0 1.7.3 2.7.8l35 17.6c.3.2.6.2.8.2.6 0 .9-.5.9-1.3v-35.1c0-2.4-2.5-6.4-4.6-7.4l-43.9-22c-1.2-.6-2.3-.9-3.2-.9z" transform="matrix(.1 0 0 .1 528 488)"/><path class="st5" d="M-5154-4649.4v15l-18-9s-40.4-20.7-43-22c-8.6-4.5-16.1-8.3-23.6-6.6-8.6 2-12.8 13.7-12.5 24.1l-28.9-14.5v-50l126 63z" transform="matrix(.1 0 0 .1 528 488)"/><path class="st8" d="M-5207-4722.9v5l-10-5v-5z" transform="matrix(.1 0 0 .1 528 488)"/><path class="st9" d="M-5217-4720.4l10 5v-2.5l-10-5z" transform="matrix(.1 0 0 .1 528 488)"/><path class="st8" d="M-5172-4660.4l-2-1v-100.7l2 1z" transform="matrix(.1 0 0 .1 528 488)"/><path class="st9" d="M-5170-4659.4l-2-1v-100.7l2 1z" transform="matrix(.1 0 0 .1 528 488)"/><path class="st8" d="M-5264-4654.4l-2-1v-50l2 1z" transform="matrix(.1 0 0 .1 528 488)"/><path class="st9" d="M-5262-4653.4l-2-1v-50l2 1z" transform="matrix(.1 0 0 .1 528 488)"/><path class="st1" d="M-5265.7-4748.2c-1.1 0-2.2-.3-3.1-.9-1.8-1.1-2.8-3-2.8-5.1v-32.2c0-2.3 1.3-4.3 3.3-5.3l3.7-1.8.4.9-3.7 1.8c-1.7.8-2.7 2.5-2.7 4.4v32.3c0 1.7.9 3.3 2.4 4.2s3.3 1 4.8.2l.6-.3.4.9-.6.3c-.8.4-1.7.6-2.7.6z" transform="matrix(.1 0 0 .1 528 488)"/><path class="st1" d="M-5271.4-4787.3l.7-.3c2.4-.8 4.9 1 4.9 3.5v21.4c0 3.1-1.9 6-4.9 7.1l-.9.3c-2.4.9-5.1-.9-5.1-3.5v-21.5c.2-3 2.2-5.9 5.3-7z" transform="matrix(.1 0 0 .1 528 488)"/><path class="st5" d="M-5264-4807.4l110 55v101l-126-63v-15c0-23.7 3.2-44.1 9.5-60.6l6.5-17.4z" transform="matrix(.1 0 0 .1 528 488)"/><path class="st6" d="M-5082.6-4879.9c-3-.3-5.5.2-7.5 1.5h-.1l-138.6 69.3c-.3.1-.6.3-.9.5l-.4.2-.1.1c-3.8 2.4-5.8 7.5-5.8 14.9l82 41 140-70v-36l-68.6-21.5z" transform="matrix(.1 0 0 .1 528 488)"/><path class="st5" d="M-5154-4788.4v36l-82-41c0-11.5 4.9-17.5 13.4-16.5l68.6 21.5z" transform="matrix(.1 0 0 .1 528 488)"/><path class="st2" d="M-5154-4788.4v36l140-70v-36z" transform="matrix(.1 0 0 .1 528 488)"/><path class="st6" d="M-5018-4723.4l-10-5v-118l10-5z" transform="matrix(.1 0 0 .1 528 488)"/><path class="st5" d="M-5018-4723.4l-10-5v-118l10-5z" transform="matrix(.1 0 0 .1 528 488)"/><path class="st6" d="M-5018-4723.4l-10-5-122 61v10z" transform="matrix(.1 0 0 .1 528 488)"/><path class="st1" d="M-4392-4386.4l-140 70 19 19 22 11 140-70v-10z" transform="matrix(.1 0 0 .1 528 488)"/><path d="M-4356-4363.9v9.5l-10 5v-9.5zm-15 7.5v9.5l-10 5v-9.5zm-90 45v9.5l-10 5v-9.5zm-15 7.5v9.5l-10 5v-9.5z" transform="matrix(.1 0 0 .1 528 488)" fill="#cc291f"/><path class="st5" d="M-4532-4316.4l19 19 22 11v-10z" transform="matrix(.1 0 0 .1 528 488)"/><path fill="#fff" d="M-4396-4343.4v9l-50 25v-9z" transform="matrix(.1 0 0 .1 528 488)"/><path class="st2" d="M-4351-4366.4v10l-140 70v-10z" transform="matrix(.1 0 0 .1 528 488)"/><path class="st1" d="M-5031-4688.4l-74 37v10l620 310 74-37v-10z" transform="matrix(.1 0 0 .1 528 488)"/><path class="st5" d="M-5105-4651.4v10l620 310v-10z" transform="matrix(.1 0 0 .1 528 488)"/><path class="st1" d="M-4837-4609.4l-140 70 20 20 184 92h20l140-70z" transform="matrix(.1 0 0 .1 528 488)"/><path class="st5" d="M-4977-4539.4l20 20 184 92h20z" transform="matrix(.1 0 0 .1 528 488)"/><path class="st1" d="M-4971-4686.4l-140 70v10l620 310 140-70v-10z" transform="matrix(.1 0 0 .1 528 488)"/><path class="st5" d="M-5111-4616.4v10l620 310v-10z" transform="matrix(.1 0 0 .1 528 488)"/><path class="st4" d="M-4991-4676.4l-8 4 620 310 8-4zm-92 46l-8 4 620 310 8-4z" transform="matrix(.1 0 0 .1 528 488)"/><path class="st2" d="M-4351-4376.4v10l-140 70v-10z" transform="matrix(.1 0 0 .1 528 488)"/></g></svg>