<svg xmlns="http://www.w3.org/2000/svg" width="86.2" height="59.4"><style>.st0{fill:#e5e5e5}.st1{fill:#2d3134}.st2,.st3{opacity:.11;enable-background:new}.st3{opacity:.1}.st5{fill:#762c07}.st6{opacity:.29;enable-background:new}.st7{fill:#656565}.st8{opacity:.2;enable-background:new}.st10{fill:#fff}.st11{fill:#2d3134;stroke:#999;stroke-width:1.8939;stroke-miterlimit:10}.st14{opacity:.15;enable-background:new}</style><g transform="matrix(.1 0 0 .1 824 1216)" id="i1952_1_"><path class="st0" d="M-8194.2-11973.7s31.6 78.3 66.9 109.2c35.3 30.9 493.8 265.8 519.6 274.5 54.8 18.5 212.6-57.8 226.6-100.2 3.5-10.7 4.4-18.9-3.8-27.8-8.2-8.9-610.4-305.6-610.4-305.6l-198.9 49.9z"/><path transform="rotate(-26.955 -7880.111 -12072.009)" class="st1" d="M-7882.3-12093.4h3.8v41.8h-3.8z"/><path transform="rotate(-34.48 -7971.534 -12098.427)" class="st1" d="M-7973.2-12129.9h3.8v63.6h-3.8z"/><path transform="rotate(-31.163 -8049.718 -12116.913)" class="st1" d="M-8051.4-12148h3.8v61.6h-3.8z"/><path transform="rotate(-34.805 -8111.985 -12126.702)" class="st1" d="M-8113.7-12158.4h3.8v63h-3.8z"/><path transform="rotate(-36.407 -8179.2 -12132.178)" class="st1" d="M-8180.9-12163.2h3.8v62.8h-3.8z"/><path class="st2" d="M-8194.2-11973.7s31.6 78.3 66.9 109.2c35.3 30.9 493.8 265.8 519.6 274.5 54.8 18.5 212.6-57.8 226.6-100.2 3.5-10.7 4.4-18.9-3.8-27.8-8.2-8.9-610.4-305.6-610.4-305.6l-198.9 49.9z"/><path class="st2" d="M-8194.2-11973.7s31.6 78.3 66.9 109.2c35.3 30.9 493.8 265.8 519.6 274.5 54.8 18.5 212.6-57.8 226.6-100.2 3.5-10.7 4.4-18.9-3.8-27.8-8.2-8.9-610.4-305.6-610.4-305.6l-198.9 49.9z"/><path class="st3" d="M-8194.2-11973.7s31.6 78.3 66.9 109.2c35.3 30.9 493.8 265.8 519.6 274.5 54.8 18.5 212.6-57.8 226.6-100.2 3.5-10.7 4.4-18.9-3.8-27.8-8.2-8.9-610.4-305.6-610.4-305.6l-198.9 49.9z"/><path d="M-8190.1-11959.8s36.9 58.7 77.7 87.1c40.7 28.4 479.9 258.4 520.5 263.3 67.2 8 201.5-60.6 209.6-97.1 7.3-33.2-175.2-146.3-293.6-196.5-118.4-50.2-514.2-56.8-514.2-56.8z" fill="none"/><path class="st5" d="M-7556.4-11843.3l-254.1 131c104.7 53.9 200.6 100.6 218.6 102.8 67.2 8 201.5-60.6 209.6-97.1 5-23-81.2-84.4-174.1-136.7z"/><path class="st0" d="M-7482.8-11803.8l53.1 82.6s15.2 3.8 23.4 0 4.6-16.9 4.6-16.9l-48.9-79.7-32.2 14zm-161.5 86.9l61.2 80s-1.5 13.4-23 13.1c-20.8-.3-34-4.3-34-4.3l-47.8-73.5 43.6-15.3z"/><path class="st6" d="M-7482.8-11803.8l53.1 82.6s15.2 3.8 23.4 0 4.6-16.9 4.6-16.9l-48.9-79.7-32.2 14zm-161.5 86.9l61.2 80s-1.5 13.4-23 13.1c-20.8-.3-34-4.3-34-4.3l-47.8-73.5 43.6-15.3z"/><path class="st7" d="M-7734.6-11743.9l126.9-66.3v-68.2l-231.1 8.2z"/><path class="st7" d="M-7734.6-11743.9l126.9-66.3v-68.2l-231.1 8.2z"/><path class="st6" d="M-7734.6-11743.9l126.9-66.3v-68.2l-231.1 8.2z"/><path class="st8" d="M-7665.7-11779.9l58-30.3v-68.2l-231.1 8.2z"/><path class="st0" d="M-7453.2-11820.5c-68.2-36.5-436.5-233-501.1-253-71.4-22.1-234.2-47.3-269-32.2-25.9 11.3 8.2 105.4 80.8 155.3 63.1 43.4 370.4 205 449.7 246.5 11.8 6.2 25.8 6.5 37.9 1l8.5-3.9c4.9-2.3 5.1-9.2.3-11.7l-96.1-46.3s-.5-.7-1.3-1.8l1.3-.6s-6.3-17.7-14.5-34.1c-5.4-10.9-19.8-32.3-28.8-45.5l123.8 41.1 82.3-41.9 87.9 40.7c11.1 5.5 24.2 5.3 35.2-.4l3.1-1.6c4.6-2.5 4.6-9.1 0-11.6z"/><path class="st0" d="M-8084.4-11956.1s39.1-46.7 91.5-66.9c50.7-19.5 72.6-22.7 104.8-29 32.2-6.3 127.5-25.5 198.9 6.9 61.9 28.1 204.5 101.6 204.5 101.6l-4.4 30.9 31.9 18.9-187.9 93.4-159.6-53s28.4 40.4 36.6 56.8c8.2 16.4 14.5 34.1 14.5 34.1l-330.8-193.7z"/><path class="st7" d="M-7886-12046.6l-.9.2c-3.1.6-6.1 1.2-9 1.7-15.1 2.9-28.4 5.5-44.8 10-36 17.2-66.5 42.2-86.5 60.9 24.1-4.1 52.1-7.6 77-7.6 5.5 0 10.7.2 15.6.5 10-12.6 37.2-36.8 67-55.7 9.7-6.2 19.8-11.2 29.5-15.4-18.6 2.4-38.4 3.5-47.9 5.4z"/><path d="M-7919.5-12039.9c-6.7 1.5-13.6 3.2-21.2 5.3-36 17.2-66.5 42.2-86.5 60.9 5-.8 10.1-1.6 15.3-2.4 23.2-20.8 55.2-45.6 92.4-63.8z" opacity=".5"/><path class="st1" d="M-7849.8-12048.8c-6.6 3.3-13 6.8-18.9 10.5-29.4 18.7-56.1 42.2-66.9 55.3-4.6-.3-9.6-.5-14.7-.5-19.8 0-43.7 2.2-71 6.6 19.3-17.6 47.9-40.2 81.2-56.2 16.2-4.5 29.3-7 44.5-10h.2c2.9-.6 5.8-1.1 8.8-1.7l.9-.2c5.2-1 13.4-1.8 23-2.7 4.1-.2 8.5-.6 12.9-1.1m11.6-3.2c-18.5 2.4-38.4 3.5-47.9 5.4l-.9.2c-3.1.6-6.1 1.2-9 1.7-15.1 2.9-28.4 5.5-44.8 10-36 17.2-66.5 42.2-86.5 60.9 24.1-4.1 52.1-7.6 77-7.6 5.5 0 10.7.2 15.6.5 10-12.6 37.2-36.8 67-55.7 9.8-6.2 19.9-11.3 29.5-15.4z"/><path class="st7" d="M-8031-11950.4l202.7 89s-31.7-57.3-106.1-81c-43-13.6-96.6-8-96.6-8z"/><path class="st10" d="M-8022.8-11951c-5.2.3-8.2.6-8.2.6l202.7 89s-1.2-2.2-3.7-5.9l-190.8-83.7z"/><path class="st8" d="M-7886-12046.6l-.9.2c-3.1.6-6.1 1.2-9 1.7-14.9 2.9-28.1 5.4-44.1 9.9 11 10.6 18.9 22.8 22.8 36.1 13.1-11.9 30.8-25.9 49.7-37.9 9.7-6.2 19.8-11.2 29.5-15.4-18.7 2.4-38.5 3.5-48 5.4z"/><path class="st7" d="M-7988.4-11920.1l166.7 73.4 19.7 39.5z"/><path class="st1" d="M-7938.2-11939.8c60 19.1 92.2 60 102.4 75.2l7.4 3.3s-31.7-57.3-106.1-81c-43-13.7-96.6-8-96.6-8s60.1.1 92.9 10.5zm112.7 95.6l16.2 32.6 7.3 4.4-19.7-39.5-166.7-73.4z"/><path class="st10" d="M-7649.2-11814l1.7 6.1-324.3-160.2z"/><path class="st7" d="M-7687.3-12070.2c-28.3-16.7-52.1-21.8-52.1-21.8s-56.3 1.4-101.8 20.8c-45.5 19.4-71.5 65.8-71.5 65.8l19.4 33.6s26.5-40.7 68.2-60.6 99.9-29.8 99.9-29.8l107.5 53c0 .1-36-41.1-69.6-61z"/><path class="st2" d="M-7739.4-12091.9l14.2 29.8 107.5 53s-36-41.2-69.6-61.1c-28.2-16.7-52.1-21.7-52.1-21.7z"/><path class="st0" d="M-7687.9-11701.6c-1.6-.6-3.2-1.4-4.8-2.2-79.3-41.6-386.6-203.2-449.7-246.6-57-39.1-90.2-105.5-89.4-137.8-.1.4-.1.9-.2 1.4-1 20.2 27.2 91 37.9 117.1 2.9 7 6.4 13.6 10.7 19.8 12.4 18 31.7 47.3 73.3 75.7 34.3 23.4 345.4 189.5 469.9 246l-47.7-73.4z"/><ellipse transform="rotate(-49.789 -8060.508 -11877.534)" class="st11" cx="-8060.3" cy="-11877.8" rx="9.6" ry="16.6"/><ellipse transform="rotate(-40.191 -8155.3 -11942.586)" cx="-8155.6" cy="-11942.2" rx="7.9" ry="16.6" fill="#2d3134" stroke="#999" stroke-width="1.72" stroke-miterlimit="10"/><ellipse transform="rotate(-50.808 -7955.86 -11820.193)" class="st11" cx="-7955.6" cy="-11819.7" rx="9.6" ry="16.6"/><path class="st1" d="M-7806.5-11815.5c-22.2-14-60.8-33.7-105.5-56.4-31.1-15.8-65.4-33.3-99-51.3l-.3-.6-.4.2c-47-25.3-92.6-51.7-125.8-76.4-37.1-27.6-62.1-56.3-77.6-81.2-1.6-3.8-3.1-7.5-4.2-10.9l1 2.5 3.5-1.4-8.9-22.3c-.1-1.4-.1-2.7 0-3.9.3-4.9 1.7-8.3 3.9-9.6 15.6-8.7 89.9 1 168 12.8 82.1 12.4 182.8 58.1 183.8 58.6l3.5-2.6c-1-.5-104.1-47.2-186.8-59.7-91-13.8-154.8-21.2-170.4-12.4-2.7 1.5-4.5 4.5-5.3 8.7l-8.7-21.9h-.1c.8-3.9 2.3-6.7 4.7-8.1 17.2-10.6 108.2-2.9 194.9 16.7 94.1 21.1 191.7 64.2 192.7 64.7l4.9-2.1c-1-.4-102.3-45.1-196.7-66.3-79.4-17.9-177.7-28.7-197.8-16.2-4.2 2.6-6.6 8-6.9 15.5-.5 12.2 4.7 31.4 17.8 54l12.3 43.7 4.8 2.6-9-31.5c8.1 16 20.1 33.8 36.2 51.7l5.8 24.4 5 3.7-5.6-22.4c12.3 12.9 26.8 25.9 43.6 38.2.9.7 1.9 1.4 2.9 2.1l6.8 23.4 4.7 2.9-6.5-22.8c16.2 11.3 35.5 23.6 56.4 36.2l8.3 22.3 5.1 3.3-8.2-22.5c18 10.7 37.1 21.6 56.2 32.3l10.1 21.8 5 3-9.5-21.7c26.7 14.8 53.3 29 77.1 41.4l11.4 22.2 5.6 2.8-11.2-21.9c45.1 23.5 79.1 40.2 82.5 41.9l12 27 5.4 2.9-22.5-50.8c11.4 6.2 21.2 11.8 28.9 16.7 58.1 36.7 79.5 54.6 85.4 83.3 0 .1 4.3 2.4 4.3 2.4-5.2-32-26.5-50.3-87.6-89zm-421-296.9c.2 3.8.9 8 2 12.6-6.6-13.7-9.9-25.5-10.6-34.3l8.6 21.7zm27.3 58.9c5.6 6.9 12 13.9 19 21l1.5 6.2c-8-9.3-14.8-18.4-20.5-27.2zm25.8 33.2l-1.7-7.2c10.6 10.2 22.6 20.5 36.3 30.7 2.7 2 5.5 4 8.4 6.1l3.5 12.2c-18.3-13.5-33.7-27.7-46.5-41.8zm51.5 45.4l-3.6-12.4c16.2 11.3 34.6 22.8 54.2 34.3l5.4 14.4c-20.9-12.7-40.2-25-56-36.3zm61.2 39.4l-5.4-14.5c17.1 9.9 35 19.8 53.1 29.6l7.9 17c-19-10.6-37.8-21.4-55.6-32.1zm61.3 35.3l-8-17.2c25.1 13.4 50.5 26.5 74.6 38.7l10.2 19.9c-24-12.6-50.5-26.7-76.8-41.4zm165.7 86.8c-11.3-5.6-43.2-21.5-83.1-42.3l-10.3-20c4.8 2.5 9.6 4.9 14.3 7.3 26.5 13.5 50.8 25.8 70.8 36.6l8.3 18.4z"/><path class="st2" d="M-7687.9-11701.6c-1.6-.6-3.2-1.4-4.8-2.2-79.3-41.6-386.6-203.2-449.7-246.6-57-39.1-90.2-105.5-89.4-137.8-.1.4-.1.9-.2 1.4-1 20.2 27.2 91 37.9 117.1 2.9 7 6.4 13.6 10.7 19.8 12.4 18 31.7 47.3 73.3 75.7 34.3 23.4 345.4 189.5 469.9 246l-47.7-73.4z"/><path class="st1" d="M-7665.5-11636.9c-128.2-58.2-412.7-212-446.2-234.9-31.4-21.4-50.1-43.2-62.9-60.5-.5-.7-7.3-13.1-7.3-13.1-4.4-6.4-14.9-30.7-14.9-30.7l1.2 1.8c2.8 6.7 10.4 16.8 14.5 22.8l1.5 2.2c12.6 18.2 31.5 45.8 71.1 72.8 33.4 22.8 337.5 185.7 465.5 243.8l2.9 4.5-25.4-8.7z"/><path class="st0" d="M-7607.7-11861.4l124.9 57.6 53.1 82.6-178-89z"/><ellipse cx="-8121.6" cy="-12061.2" rx="33.5" ry="16.7" fill="#2d3134" stroke="#999" stroke-width="3.788" stroke-miterlimit="10"/><path class="st5" d="M-7725.1-12062.1s-51.6 6.6-99.9 29.8c-44.7 21.5-65 57.3-65 57.3l49.4 17 24.6 13.3 138.3-68.2v-26.5l-47.4-22.7z"/><path class="st6" d="M-7677.8-12039.4v26.5l-138.3 68.2-24.6-13.2z"/><path class="st7" d="M-7791.4-11923.9s-47.8-41-73.9-56.8c-18.4-11.2-47.3-24.6-47.3-24.6l19.4 33.6 101.8 47.8z"/><path class="st2" d="M-7791.4-11923.9s-47.8-41-73.9-56.8c-18.4-11.2-47.3-24.6-47.3-24.6l19.4 33.6 101.8 47.8z"/><path class="st0" d="M-7687.3-11917.9l-37.8 18.7-60.7-30.1 39.8-17.3z"/><path class="st2" d="M-7687.3-11917.9l-37.8 18.7-60.7-30.1 39.8-17.3z"/><path class="st0" d="M-7687.3-11917.9l-62.5-30.6v-37.9l3.8-1.8 62.5 30.5v37.9z"/><path class="st2" d="M-7749.8-11986.4v37.9l62.5 30.6v-37.9z"/><path class="st6" d="M-7683.5-11957.7v37.9l-3.8 1.9v-37.9z"/><path class="st0" d="M-7725.1-11899.2l-3.8-1.9v-37.9l37.8-18.9 3.8 1.8v37.9z"/><path class="st2" d="M-7728.9-11939v37.9l3.8 1.9v-37.9z"/><path class="st6" d="M-7687.3-11956.1v37.9l-37.8 19v-37.9z"/><path class="st0" d="M-7728.9-11897.3l-60.6-30.3v-37.9l3.7-1.9 60.7 30.3v37.9z"/><path class="st2" d="M-7789.5-11965.5v37.9l60.6 30.3v-37.9z"/><path class="st6" d="M-7725.1-11937.1v37.9l-3.8 1.9v-37.9z"/><path class="st5" d="M-7626.7-12014.8l-49.2 24.7v26.5l41.4 20.7-92.5 45.6 49.2 24.6 166.7-83.4z"/><path class="st2" d="M-7675.9-11990.1v26.5l41.7 20.8 26.5-13.3z"/><path class="st5" d="M-7666.4-11878.4l-11.4-5.7v-18.9l136.4-68.2 11.3 5.7v18.9z"/><path class="st2" d="M-7677.8-11903v18.9l11.4 5.7v-18.9z"/><path class="st6" d="M-7530.1-11965.5v18.9l-136.3 68.2v-18.9z"/><path class="st3" d="M-7384.9-11718c-.1-.1-.3-.3-.6-.5 2.7 4.7 3.9 8.7 3.1 12-8 36.5-142.4 105.1-209.6 97.1-.4 0-.8-.1-1.3-.2v22.3c63.9 4.2 199.2-63.7 212.1-102.9 3.7-10.8 4.5-19-3.7-27.8z"/><path class="st14" d="M-8135.3-11945.6c-2.6-1.7-5.1-3.3-7.2-4.8-57-39.1-90.2-105.5-89.4-137.8-.1.4-.1.9-.2 1.4-1 20.2 27.2 91 37.9 117.1 2.9 7 6.4 13.6 10.7 19.8 10.5 15.2 25.9 38.5 55.5 62.5l-7.3-58.2z"/><path class="st14" d="M-8127.9-11887.4c-29.7-24-45-47.3-55.5-62.5-.2-.2-.3-.5-.5-.7 12.1 25.6 33.6 65.9 56.6 86 .7.6 1.5 1.3 2.5 2l-3.1-24.8z"/><path d="M-7495.9-11671.9c-3.6-2.7-9.9-3.6-13.8-1.3-3.3 1.9-5.2 5.1-5.2 8.8v18.3c0 1 .8 1.9 1.9 1.9 1 0 1.9-.8 1.9-1.9v-18.3c0-2.5 1.4-4.6 3.8-5.8 2.5-1.2 6.5-.5 8.8 1.1 4 2.8 6.4 7.3 6.4 12.2v4.6l-26.6 13.3v-2.7c0-5.9-2.8-11.5-7.5-14.9-3.6-2.7-9.9-3.6-13.8-1.3-3.3 1.9-5.2 5.1-5.2 8.8v18.3c0 1 .8 1.9 1.9 1.9s1.9-.8 1.9-1.9v-18.3c0-2.5 1.4-4.6 3.8-5.8 2.5-1.2 6.5-.5 8.8 1.1 4 2.8 6.4 7.3 6.4 12.2v74c0 1 .8 1.9 1.9 1.9s1.9-.8 1.9-1.9v-10.4l26.5-13.3v8.3c0 1 .8 1.9 1.9 1.9 1 0 1.9-.8 1.9-1.9v-74c-.1-5.9-2.9-11.4-7.6-14.9zm3.7 57.5l-26.5 13.3v-14.7l26.5-13.3v14.7zm0-33.7v14.7l-26.5 13.3v-14.7l26.5-13.3zm-26.5 65.9v-14.7l26.5-13.3v14.7l-26.5 13.3z" fill="#999"/><path class="st6" d="M-7489-11912.5l-80.1 37.3 4.9 2.5-16.2 2.8-34.1 15.9-23.1 22.5-17.9-3.3 10.5 34.7 187.8-93.5z"/><path class="st2" d="M-7482.8-11803.8l-81.6-36.4-43.3 21.5v8.5l178 89z"/><path class="st0" d="M-7477-11946.6l-117.5 58.7 30.3 15.2v3.8l117.5-58.7v-3.8z"/><path class="st6" d="M-7446.7-11927.6v-3.8l-117.5 58.7v3.8z"/><path class="st0" d="M-7564.2-11872.7v3.8l-35.9 5.7-34.1 30.3-3.8 1.8 36-35z"/><path class="st6" d="M-7564.2-11872.7v3.8l-35.9 5.7-34.1 30.3-3.8 1.8 36-35z"/><path class="st2" d="M-7768.1-11796.3c-8.2-16.4-36.6-56.8-36.6-56.8l159.6 53-10.4-34.7 18 3.3 35.5-34.6 37.9-6.6-30.4-15.2s-76.2 17-85.2 17-53-23.7-83.8-38.8c-30.8-15.2-105.6-57.8-163.8-64.9-58.2-7.1-157 18.5-157 18.5l330.8 193.8c-.1.1-6.4-17.6-14.6-34z"/><path class="st6" d="M-7785.5-11846.8l-19.2-6.4s28.4 40.4 36.6 56.8c8.2 16.4 14.5 34.1 14.5 34.1l11.4-4.9s-6.3-17.7-14.5-34.1c-5.5-10.8-19.8-32.3-28.8-45.5z"/><path class="st14" d="M-7527-11858.8l-118 58.7-134-44.5-4.9.3 70.1 89 102.3 39.8 94.7-49.3-9.5-58.7 32.2-18.9z"/></g></svg>