<svg xmlns="http://www.w3.org/2000/svg" width="128" height="128"><style>.st0{fill:#999}.st1{fill:#f8ebcb}.st3,.st4{opacity:.39;enable-background:new}.st4{opacity:6.000000e-02}.st5{fill:#656565}.st6{opacity:.15}.st6,.st7,.st8{enable-background:new}.st7{fill:#fff;opacity:.5}.st8{opacity:.1}.st9{fill:#7fadb9}.st10{fill:#39c}.st11,.st12{opacity:.4;enable-background:new}.st12{opacity:.2}.st12,.st13{fill:#fff}.st14{fill:#cc291f}</style><g id="i2122_1_"><path class="st0" d="M-368-560l64-32-64-32-64 32z" transform="translate(432 688)"/><path class="st0" d="M-368-560l64-32-64-32-64 32z" transform="translate(432 688)"/><path class="st1" d="M-368-627l61-30.5-61-30.5-61 30.5z" transform="translate(432 688)"/><path opacity=".2" fill="#202426" d="M-423-657.5l55-27.5 55 27.5-55 27.5z" transform="translate(432 688)"/><path class="st3" d="M-368-683v-2l-55 27.5 2 1z" transform="translate(432 688)"/><path class="st4" d="M-368-683l53 26.5 2-1-55-27.5z" transform="translate(432 688)"/><path class="st1" d="M-366-678l-24 12v2l12 6 24-12v-2z" transform="translate(432 688)"/><path class="st3" d="M-354-670l-24 12v-2l24-12z" transform="translate(432 688)"/><path class="st4" d="M-390-664l12 6v-2l-12-6z" transform="translate(432 688)"/><path class="st5" d="M-367-674c-2.8 0-5 1.1-5 2.5s2.2 2.5 5 2.5 5-1.1 5-2.5-2.2-2.5-5-2.5zm0 4c-1.7 0-3-.7-3-1.5s1.3-1.5 3-1.5 3 .7 3 1.5-1.3 1.5-3 1.5zm-10 1c-2.8 0-5 1.1-5 2.5s2.2 2.5 5 2.5 5-1.1 5-2.5-2.2-2.5-5-2.5zm0 4c-1.7 0-3-.7-3-1.5s1.3-1.5 3-1.5 3 .7 3 1.5-1.3 1.5-3 1.5z" transform="translate(432 688)"/><path class="st1" d="M-348-669l-24 12v2l12 6 24-12v-2z" transform="translate(432 688)"/><path class="st3" d="M-336-661l-24 12v-2l24-12z" transform="translate(432 688)"/><path class="st4" d="M-372-655l12 6v-2l-12-6z" transform="translate(432 688)"/><path class="st5" d="M-349-665c-2.8 0-5 1.1-5 2.5s2.2 2.5 5 2.5 5-1.1 5-2.5-2.2-2.5-5-2.5zm0 4c-1.7 0-3-.7-3-1.5s1.3-1.5 3-1.5 3 .7 3 1.5-1.3 1.5-3 1.5zm-10 1c-2.8 0-5 1.1-5 2.5s2.2 2.5 5 2.5 5-1.1 5-2.5-2.2-2.5-5-2.5zm0 4c-1.7 0-3-.7-3-1.5s1.3-1.5 3-1.5 3 .7 3 1.5-1.3 1.5-3 1.5z" transform="translate(432 688)"/><path class="st1" d="M-307-593.5l-2 1-1-.5-56 28v1l-2 1v-64l61-30.5z" transform="translate(432 688)"/><path class="st6" d="M-307-614.5l-61 30.5v-1l61-30.5z" transform="translate(432 688)"/><path class="st7" d="M-307-615.5l-61 30.5v-1l61-30.5z" transform="translate(432 688)"/><path class="st6" d="M-307-655.5l-61 30.5v-1l61-30.5z" transform="translate(432 688)"/><path class="st7" d="M-307-656.5l-61 30.5v-1l61-30.5z" transform="translate(432 688)"/><path class="st6" d="M-365-587.5l-1 .5v-39l1-.5zm56-28l-1 .5v-39l1-.5z" transform="translate(432 688)"/><path class="st8" d="M-309-592.5l-1-.5v-20l1-.5z" transform="translate(432 688)"/><path class="st7" d="M-357-592.5l-7 3.5v-1l7-3.5z" transform="translate(432 688)"/><path class="st9" d="M-360.5-602.7c-1.4.6-2.5 2.3-2.5 3.7v8.5l5-2.5v-8.5c0-1.4-1.1-1.9-2.5-1.2z" transform="translate(432 688)"/><path class="st10" d="M-360.5-602.7c-1.4.6-2.5 2.3-2.5 3.7v8.5l5-2.5v-8.5c0-1.4-1.1-1.9-2.5-1.2zm-1.5 3.2c0-.7.4-1.4 1-1.9v2.9l-1 .5v-1.5zm0 2.5l1-.5v2l-1 .5v-2zm0 5v-2l1-.5v2l-1 .5zm3-1.5l-1 .5v-2l1-.5v2zm0-3l-1 .5v-2l1-.5v2zm0-3l-1 .5v-2.9c.6-.1 1 .3 1 .9v1.5z" transform="translate(432 688)"/><path class="st11" d="M-359.3-603c.2.3.3.6.3 1v8.5l-4 2v1l5-2.5v-8.5c0-.9-.5-1.5-1.3-1.5z" transform="translate(432 688)"/><path class="st7" d="M-349-596.5l-7 3.5v-1l7-3.5z" transform="translate(432 688)"/><path class="st9" d="M-352.5-606.7c-1.4.6-2.5 2.3-2.5 3.7v8.5l5-2.5v-8.5c0-1.4-1.1-1.9-2.5-1.2z" transform="translate(432 688)"/><path class="st10" d="M-352.5-606.7c-1.4.6-2.5 2.3-2.5 3.7v8.5l5-2.5v-8.5c0-1.4-1.1-1.9-2.5-1.2zm-1.5 3.2c0-.7.4-1.4 1-1.9v2.9l-1 .5v-1.5zm0 2.5l1-.5v2l-1 .5v-2zm0 5v-2l1-.5v2l-1 .5zm3-1.5l-1 .5v-2l1-.5v2zm0-3l-1 .5v-2l1-.5v2zm0-3l-1 .5v-2.9c.6-.1 1 .3 1 .9v1.5z" transform="translate(432 688)"/><path class="st11" d="M-351.3-607c.2.3.3.6.3 1v8.5l-4 2v1l5-2.5v-8.5c0-.9-.5-1.5-1.3-1.5z" transform="translate(432 688)"/><path class="st7" d="M-319-611.5l-7 3.5v-1l7-3.5z" transform="translate(432 688)"/><path class="st9" d="M-322.5-621.7c-1.4.7-2.5 2.4-2.5 3.7v8.5l5-2.5v-8.5c0-1.4-1.1-1.9-2.5-1.2z" transform="translate(432 688)"/><path class="st10" d="M-322.5-621.7c-1.4.7-2.5 2.4-2.5 3.7v8.5l5-2.5v-8.5c0-1.4-1.1-1.9-2.5-1.2zm-1.5 3.2c0-.7.4-1.4 1-1.9v2.9l-1 .5v-1.5zm0 2.5l1-.5v2l-1 .5v-2zm0 5v-2l1-.5v2l-1 .5zm3-1.5l-1 .5v-2l1-.5v2zm0-3l-1 .5v-2l1-.5v2zm0-3l-1 .5v-2.9c.6-.1 1 .3 1 .9v1.5z" transform="translate(432 688)"/><path class="st11" d="M-321.3-622c.2.3.3.6.3 1v8.5l-4 2v1l5-2.5v-8.5c0-.9-.5-1.5-1.3-1.5z" transform="translate(432 688)"/><path class="st7" d="M-311-615.5l-7 3.5v-1l7-3.5z" transform="translate(432 688)"/><path class="st9" d="M-314.5-625.7c-1.4.7-2.5 2.4-2.5 3.7v8.5l5-2.5v-8.5c0-1.4-1.1-1.9-2.5-1.2z" transform="translate(432 688)"/><path class="st10" d="M-314.5-625.7c-1.4.7-2.5 2.4-2.5 3.7v8.5l5-2.5v-8.5c0-1.4-1.1-1.9-2.5-1.2zm-1.5 3.2c0-.7.4-1.4 1-1.9v2.9l-1 .5v-1.5zm0 2.5l1-.5v2l-1 .5v-2zm0 5v-2l1-.5v2l-1 .5zm3-1.5l-1 .5v-2l1-.5v2zm0-3l-1 .5v-2l1-.5v2zm0-3l-1 .5v-2.9c.6-.1 1 .3 1 .9v1.5z" transform="translate(432 688)"/><path class="st11" d="M-313.3-626c.2.3.3.6.3 1v8.5l-4 2v1l5-2.5v-8.5c0-.9-.5-1.5-1.3-1.5z" transform="translate(432 688)"/><path class="st7" d="M-338-602l-7 3.5v-1l7-3.5z" transform="translate(432 688)"/><path class="st9" d="M-341.5-612.2c-1.4.7-2.5 2.4-2.5 3.7v8.5l5-2.5v-8.5c0-1.4-1.1-1.9-2.5-1.2z" transform="translate(432 688)"/><path class="st10" d="M-341.5-612.2c-1.4.7-2.5 2.4-2.5 3.7v8.5l5-2.5v-8.5c0-1.4-1.1-1.9-2.5-1.2zm-1.5 3.2c0-.7.4-1.4 1-1.9v2.9l-1 .5v-1.5zm0 2.5l1-.5v2l-1 .5v-2zm0 5v-2l1-.5v2l-1 .5zm3-1.5l-1 .5v-2l1-.5v2zm0-3l-1 .5v-2l1-.5v2zm0-3l-1 .5v-2.9c.6-.1 1 .3 1 .9v1.5z" transform="translate(432 688)"/><path class="st11" d="M-340.3-612.5c.2.3.3.6.3 1v8.5l-4 2v1l5-2.5v-8.5c0-.9-.5-1.5-1.3-1.5z" transform="translate(432 688)"/><path class="st7" d="M-330-606l-7 3.5v-1l7-3.5z" transform="translate(432 688)"/><path class="st9" d="M-333.5-616.2c-1.4.7-2.5 2.4-2.5 3.7v8.5l5-2.5v-8.5c0-1.4-1.1-1.9-2.5-1.2z" transform="translate(432 688)"/><path class="st10" d="M-333.5-616.2c-1.4.7-2.5 2.4-2.5 3.7v8.5l5-2.5v-8.5c0-1.4-1.1-1.9-2.5-1.2zm-1.5 3.2c0-.7.4-1.4 1-1.9v2.9l-1 .5v-1.5zm0 2.5l1-.5v2l-1 .5v-2zm0 5v-2l1-.5v2l-1 .5zm3-1.5l-1 .5v-2l1-.5v2zm0-3l-1 .5v-2l1-.5v2zm0-3l-1 .5v-2.9c.6-.1 1 .3 1 .9v1.5z" transform="translate(432 688)"/><path class="st11" d="M-332.3-616.5c.2.3.3.6.3 1v8.5l-4 2v1l5-2.5v-8.5c0-.9-.5-1.5-1.3-1.5z" transform="translate(432 688)"/><path class="st10" d="M-310-593l-56 28v-17l56-28z" transform="translate(432 688)"/><path class="st7" d="M-357-606.5l-7 3.5v-1l7-3.5z" transform="translate(432 688)"/><path class="st9" d="M-360.5-616.7c-1.4.6-2.5 2.3-2.5 3.7v8.5l5-2.5v-8.5c0-1.4-1.1-1.9-2.5-1.2z" transform="translate(432 688)"/><path class="st10" d="M-360.5-616.7c-1.4.6-2.5 2.3-2.5 3.7v8.5l5-2.5v-8.5c0-1.4-1.1-1.9-2.5-1.2zm-1.5 3.2c0-.7.4-1.4 1-1.9v2.9l-1 .5v-1.5zm0 2.5l1-.5v2l-1 .5v-2zm0 5v-2l1-.5v2l-1 .5zm3-1.5l-1 .5v-2l1-.5v2zm0-3l-1 .5v-2l1-.5v2zm0-3l-1 .5v-2.9c.6-.1 1 .3 1 .9v1.5z" transform="translate(432 688)"/><path class="st11" d="M-359.3-617c.2.3.3.6.3 1v8.5l-4 2v1l5-2.5v-8.5c0-.9-.5-1.5-1.3-1.5z" transform="translate(432 688)"/><path class="st7" d="M-349-610.5l-7 3.5v-1l7-3.5z" transform="translate(432 688)"/><path class="st9" d="M-352.5-620.7c-1.4.6-2.5 2.3-2.5 3.7v8.5l5-2.5v-8.5c0-1.4-1.1-1.9-2.5-1.2z" transform="translate(432 688)"/><path class="st10" d="M-352.5-620.7c-1.4.6-2.5 2.3-2.5 3.7v8.5l5-2.5v-8.5c0-1.4-1.1-1.9-2.5-1.2zm-1.5 3.2c0-.7.4-1.4 1-1.9v2.9l-1 .5v-1.5zm0 2.5l1-.5v2l-1 .5v-2zm0 5v-2l1-.5v2l-1 .5zm3-1.5l-1 .5v-2l1-.5v2zm0-3l-1 .5v-2l1-.5v2zm0-3l-1 .5v-2.9c.6-.1 1 .3 1 .9v1.5z" transform="translate(432 688)"/><path class="st11" d="M-351.3-621c.2.3.3.6.3 1v8.5l-4 2v1l5-2.5v-8.5c0-.9-.5-1.5-1.3-1.5z" transform="translate(432 688)"/><path class="st7" d="M-319-625.5l-7 3.5v-1l7-3.5z" transform="translate(432 688)"/><path class="st9" d="M-322.5-635.7c-1.4.7-2.5 2.4-2.5 3.7v8.5l5-2.5v-8.5c0-1.4-1.1-1.9-2.5-1.2z" transform="translate(432 688)"/><path class="st10" d="M-322.5-635.7c-1.4.7-2.5 2.4-2.5 3.7v8.5l5-2.5v-8.5c0-1.4-1.1-1.9-2.5-1.2zm-1.5 3.2c0-.7.4-1.4 1-1.9v2.9l-1 .5v-1.5zm0 2.5l1-.5v2l-1 .5v-2zm0 5v-2l1-.5v2l-1 .5zm3-1.5l-1 .5v-2l1-.5v2zm0-3l-1 .5v-2l1-.5v2zm0-3l-1 .5v-2.9c.6-.1 1 .3 1 .9v1.5z" transform="translate(432 688)"/><path class="st11" d="M-321.3-636c.2.3.3.6.3 1v8.5l-4 2v1l5-2.5v-8.5c0-.9-.5-1.5-1.3-1.5z" transform="translate(432 688)"/><path class="st7" d="M-311-629.5l-7 3.5v-1l7-3.5z" transform="translate(432 688)"/><path class="st9" d="M-314.5-639.7c-1.4.7-2.5 2.4-2.5 3.7v8.5l5-2.5v-8.5c0-1.4-1.1-1.9-2.5-1.2z" transform="translate(432 688)"/><path class="st10" d="M-314.5-639.7c-1.4.7-2.5 2.4-2.5 3.7v8.5l5-2.5v-8.5c0-1.4-1.1-1.9-2.5-1.2zm-1.5 3.2c0-.7.4-1.4 1-1.9v2.9l-1 .5v-1.5zm0 2.5l1-.5v2l-1 .5v-2zm0 5v-2l1-.5v2l-1 .5zm3-1.5l-1 .5v-2l1-.5v2zm0-3l-1 .5v-2l1-.5v2zm0-3l-1 .5v-2.9c.6-.1 1 .3 1 .9v1.5z" transform="translate(432 688)"/><path class="st11" d="M-313.3-640c.2.3.3.6.3 1v8.5l-4 2v1l5-2.5v-8.5c0-.9-.5-1.5-1.3-1.5z" transform="translate(432 688)"/><path class="st7" d="M-338-616l-7 3.5v-1l7-3.5z" transform="translate(432 688)"/><path class="st9" d="M-341.5-626.2c-1.4.7-2.5 2.4-2.5 3.7v8.5l5-2.5v-8.5c0-1.4-1.1-1.9-2.5-1.2z" transform="translate(432 688)"/><path class="st10" d="M-341.5-626.2c-1.4.7-2.5 2.4-2.5 3.7v8.5l5-2.5v-8.5c0-1.4-1.1-1.9-2.5-1.2zm-1.5 3.2c0-.7.4-1.4 1-1.9v2.9l-1 .5v-1.5zm0 2.5l1-.5v2l-1 .5v-2zm0 5v-2l1-.5v2l-1 .5zm3-1.5l-1 .5v-2l1-.5v2zm0-3l-1 .5v-2l1-.5v2zm0-3l-1 .5v-2.9c.6-.1 1 .3 1 .9v1.5z" transform="translate(432 688)"/><path class="st11" d="M-340.3-626.5c.2.3.3.6.3 1v8.5l-4 2v1l5-2.5v-8.5c0-.9-.5-1.5-1.3-1.5z" transform="translate(432 688)"/><path class="st7" d="M-330-620l-7 3.5v-1l7-3.5z" transform="translate(432 688)"/><path class="st9" d="M-333.5-630.2c-1.4.7-2.5 2.4-2.5 3.7v8.5l5-2.5v-8.5c0-1.4-1.1-1.9-2.5-1.2z" transform="translate(432 688)"/><path class="st10" d="M-333.5-630.2c-1.4.7-2.5 2.4-2.5 3.7v8.5l5-2.5v-8.5c0-1.4-1.1-1.9-2.5-1.2zm-1.5 3.2c0-.7.4-1.4 1-1.9v2.9l-1 .5v-1.5zm0 2.5l1-.5v2l-1 .5v-2zm0 5v-2l1-.5v2l-1 .5zm3-1.5l-1 .5v-2l1-.5v2zm0-3l-1 .5v-2l1-.5v2zm0-3l-1 .5v-2.9c.6-.1 1 .3 1 .9v1.5z" transform="translate(432 688)"/><path class="st11" d="M-332.3-630.5c.2.3.3.6.3 1v8.5l-4 2v1l5-2.5v-8.5c0-.9-.5-1.5-1.3-1.5z" transform="translate(432 688)"/><path class="st7" d="M-357-620.5l-7 3.5v-1l7-3.5z" transform="translate(432 688)"/><path class="st9" d="M-360.5-627.7c-1.4.6-2.5 2.3-2.5 3.7v5.5l5-2.5v-5.5c0-1.4-1.1-1.9-2.5-1.2z" transform="translate(432 688)"/><path class="st10" d="M-360.5-627.7c-1.4.6-2.5 2.3-2.5 3.7v5.5l5-2.5v-5.5c0-1.4-1.1-1.9-2.5-1.2zm-.5 7.2l-1 .5v-2l1-.5v2zm0-3l-1 .5v-1.5c0-.7.4-1.4 1-1.9v2.9zm2 2l-1 .5v-2l1-.5v2zm0-3l-1 .5v-2.9c.6-.1 1 .3 1 .9v1.5z" transform="translate(432 688)"/><path class="st11" d="M-359.3-628c.2.3.3.6.3 1v5.5l-4 2v1l5-2.5v-5.5c0-.9-.5-1.5-1.3-1.5z" transform="translate(432 688)"/><path class="st7" d="M-349-624.5l-7 3.5v-1l7-3.5z" transform="translate(432 688)"/><path class="st9" d="M-352.5-631.7c-1.4.6-2.5 2.3-2.5 3.7v5.5l5-2.5v-5.5c0-1.4-1.1-1.9-2.5-1.2z" transform="translate(432 688)"/><path class="st10" d="M-352.5-631.7c-1.4.6-2.5 2.3-2.5 3.7v5.5l5-2.5v-5.5c0-1.4-1.1-1.9-2.5-1.2zm-.5 7.2l-1 .5v-2l1-.5v2zm0-3l-1 .5v-1.5c0-.7.4-1.4 1-1.9v2.9zm2 2l-1 .5v-2l1-.5v2zm0-3l-1 .5v-2.9c.6-.1 1 .3 1 .9v1.5z" transform="translate(432 688)"/><path class="st11" d="M-351.3-632c.2.3.3.6.3 1v5.5l-4 2v1l5-2.5v-5.5c0-.9-.5-1.5-1.3-1.5z" transform="translate(432 688)"/><path class="st7" d="M-338-630l-7 3.5v-1l7-3.5z" transform="translate(432 688)"/><path class="st9" d="M-341.5-637.2c-1.4.7-2.5 2.4-2.5 3.7v5.5l5-2.5v-5.5c0-1.4-1.1-1.9-2.5-1.2z" transform="translate(432 688)"/><path class="st10" d="M-341.5-637.2c-1.4.7-2.5 2.4-2.5 3.7v5.5l5-2.5v-5.5c0-1.4-1.1-1.9-2.5-1.2zm-.5 7.2l-1 .5v-2l1-.5v2zm0-3l-1 .5v-1.5c0-.7.4-1.4 1-1.9v2.9zm2 2l-1 .5v-2l1-.5v2zm0-3l-1 .5v-2.9c.6-.1 1 .3 1 .9v1.5z" transform="translate(432 688)"/><path class="st11" d="M-340.3-637.5c.2.3.3.6.3 1v5.5l-4 2v1l5-2.5v-5.5c0-.9-.5-1.5-1.3-1.5z" transform="translate(432 688)"/><path class="st7" d="M-330-634l-7 3.5v-1l7-3.5z" transform="translate(432 688)"/><path class="st9" d="M-333.5-641.2c-1.4.7-2.5 2.4-2.5 3.7v5.5l5-2.5v-5.5c0-1.4-1.1-1.9-2.5-1.2z" transform="translate(432 688)"/><path class="st10" d="M-333.5-641.2c-1.4.7-2.5 2.4-2.5 3.7v5.5l5-2.5v-5.5c0-1.4-1.1-1.9-2.5-1.2zm-.5 7.2l-1 .5v-2l1-.5v2zm0-3l-1 .5v-1.5c0-.7.4-1.4 1-1.9v2.9zm2 2l-1 .5v-2l1-.5v2zm0-3l-1 .5v-2.9c.6-.1 1 .3 1 .9v1.5z" transform="translate(432 688)"/><path class="st11" d="M-332.3-641.5c.2.3.3.6.3 1v5.5l-4 2v1l5-2.5v-5.5c0-.9-.5-1.5-1.3-1.5z" transform="translate(432 688)"/><path class="st7" d="M-319-639.5l-7 3.5v-1l7-3.5z" transform="translate(432 688)"/><path class="st9" d="M-322.5-646.7c-1.4.7-2.5 2.4-2.5 3.7v5.5l5-2.5v-5.5c0-1.4-1.1-1.9-2.5-1.2z" transform="translate(432 688)"/><path class="st10" d="M-322.5-646.7c-1.4.7-2.5 2.4-2.5 3.7v5.5l5-2.5v-5.5c0-1.4-1.1-1.9-2.5-1.2zm-.5 7.2l-1 .5v-2l1-.5v2zm0-3l-1 .5v-1.5c0-.7.4-1.4 1-1.9v2.9zm2 2l-1 .5v-2l1-.5v2zm0-3l-1 .5v-2.9c.6-.1 1 .3 1 .9v1.5z" transform="translate(432 688)"/><path class="st11" d="M-321.3-647c.2.3.3.6.3 1v5.5l-4 2v1l5-2.5v-5.5c0-.9-.5-1.5-1.3-1.5z" transform="translate(432 688)"/><path class="st7" d="M-311-643.5l-7 3.5v-1l7-3.5z" transform="translate(432 688)"/><path class="st9" d="M-314.5-650.7c-1.4.7-2.5 2.4-2.5 3.7v5.5l5-2.5v-5.5c0-1.4-1.1-1.9-2.5-1.2z" transform="translate(432 688)"/><path class="st10" d="M-314.5-650.7c-1.4.7-2.5 2.4-2.5 3.7v5.5l5-2.5v-5.5c0-1.4-1.1-1.9-2.5-1.2zm-.5 7.2l-1 .5v-2l1-.5v2zm0-3l-1 .5v-1.5c0-.7.4-1.4 1-1.9v2.9zm2 2l-1 .5v-2l1-.5v2zm0-3l-1 .5v-2.9c.6-.1 1 .3 1 .9v1.5z" transform="translate(432 688)"/><path class="st11" d="M-313.3-651c.2.3.3.6.3 1v5.5l-4 2v1l5-2.5v-5.5c0-.9-.5-1.5-1.3-1.5z" transform="translate(432 688)"/><path class="st6" d="M-365-565.5l-1 .5v-20l1-.5z" transform="translate(432 688)"/><path class="st6" d="M-345-575.5l-21 10.5v-4l21-10.5z" transform="translate(432 688)"/><path class="st6" d="M-345-578.5l-21 10.5v-1l21-10.5zm35-14.5l-20 10v-4l20-10z" transform="translate(432 688)"/><path class="st6" d="M-310-596l-20 10v-1l20-10z" transform="translate(432 688)"/><path class="st7" d="M-345-588.5l1-.5v13l-1 .5z" transform="translate(432 688)"/><path class="st6" d="M-346-588l1-.5v13l-1 .5zm16-8l1-.5v13l-1 .5zm19-9.5l1-.5v13l-1 .5zm-6 3l1-.5v9l-1 .5zm-7 3.5l1-.5v9l-1 .5zm-29 14.5l1-.5v9l-1 .5zm-7 3.5l1-.5v9l-1 .5z" transform="translate(432 688)"/><path class="st7" d="M-338-592l1-.5v13l-1 .5zm7-3.5l1-.5v13l-1 .5z" transform="translate(432 688)"/><path class="st6" d="M-331-582.5v-12l-6 3v2zm14-13v-6l-6 3v1zm6-1v-8l-5 2.5v1.3zm-35 15.5v-6l-6 3v1z" transform="translate(432 688)"/><path class="st12" d="M-344-576l6-3-6-5z" transform="translate(432 688)"/><path class="st13" d="M-306.5-603.7c-.8.4-1.5.1-1.5-.8v-1.5l3-1.5v1.5c0 .8-.7 1.8-1.5 2.3z" transform="translate(432 688)"/><path class="st14" d="M-309.5-602.2c-.8.4-1.5.1-1.5-.8v-1.5l3-1.5v1.5c0 .8-.7 1.8-1.5 2.3z" transform="translate(432 688)"/><path class="st13" d="M-312-610l3-1.5 4 4-3 1.5z" transform="translate(432 688)"/><path class="st14" d="M-315-608.5l3-1.5 4 4-3 1.5z" transform="translate(432 688)"/><path class="st13" d="M-312.5-600.7c-.8.4-1.5.1-1.5-.8v-1.5l3-1.5v1.5c0 .8-.7 1.8-1.5 2.3z" transform="translate(432 688)"/><path class="st14" d="M-315.5-599.2c-.8.4-1.5.1-1.5-.8v-1.5l3-1.5v1.5c0 .8-.7 1.8-1.5 2.3z" transform="translate(432 688)"/><path class="st13" d="M-318-607l3-1.5 4 4-3 1.5z" transform="translate(432 688)"/><path class="st14" d="M-321-605.5l3-1.5 4 4-3 1.5z" transform="translate(432 688)"/><path class="st13" d="M-318.5-597.7c-.8.4-1.5.1-1.5-.8v-1.5l3-1.5v1.5c0 .8-.7 1.8-1.5 2.3z" transform="translate(432 688)"/><path class="st14" d="M-321.5-596.2c-.8.4-1.5.1-1.5-.8v-1.5l3-1.5v1.5c0 .8-.7 1.8-1.5 2.3z" transform="translate(432 688)"/><path class="st13" d="M-324-604l3-1.5 4 4-3 1.5z" transform="translate(432 688)"/><path class="st14" d="M-327-602.5l3-1.5 4 4-3 1.5z" transform="translate(432 688)"/><path class="st13" d="M-324.5-594.7c-.8.4-1.5.1-1.5-.8v-1.5l3-1.5v1.5c0 .8-.7 1.8-1.5 2.3z" transform="translate(432 688)"/><path class="st14" d="M-327.5-593.2c-.8.4-1.5.1-1.5-.8v-1.5l3-1.5v1.5c0 .8-.7 1.8-1.5 2.3z" transform="translate(432 688)"/><path class="st13" d="M-330-601l3-1.5 4 4-3 1.5z" transform="translate(432 688)"/><path class="st14" d="M-333-599.5l3-1.5 4 4-3 1.5z" transform="translate(432 688)"/><path class="st13" d="M-330.5-591.7c-.8.4-1.5.1-1.5-.8v-1.5l3-1.5v1.5c0 .8-.7 1.8-1.5 2.3z" transform="translate(432 688)"/><path class="st14" d="M-333.5-590.2c-.8.4-1.5 0-1.5-.8v-1.5l3-1.5v1.5c0 .8-.7 1.8-1.5 2.3z" transform="translate(432 688)"/><path class="st13" d="M-336-598l3-1.5 4 4-3 1.5z" transform="translate(432 688)"/><path class="st14" d="M-339-596.5l3-1.5 4 4-3 1.5z" transform="translate(432 688)"/><path class="st13" d="M-336.5-588.7c-.8.4-1.5.1-1.5-.8v-1.5l3-1.5v1.5c0 .8-.7 1.8-1.5 2.3z" transform="translate(432 688)"/><path class="st14" d="M-339.5-587.2c-.8.4-1.5.1-1.5-.8v-1.5l3-1.5v1.5c0 .8-.7 1.8-1.5 2.3z" transform="translate(432 688)"/><path class="st13" d="M-342-595l3-1.5 4 4-3 1.5z" transform="translate(432 688)"/><path class="st14" d="M-345-593.5l3-1.5 4 4-3 1.5z" transform="translate(432 688)"/><path class="st13" d="M-342.5-585.7c-.8.4-1.5.1-1.5-.8v-1.5l3-1.5v1.5c0 .8-.7 1.8-1.5 2.3z" transform="translate(432 688)"/><path class="st14" d="M-345.5-584.2c-.8.4-1.5.1-1.5-.8v-1.5l3-1.5v1.5c0 .8-.7 1.8-1.5 2.3z" transform="translate(432 688)"/><path class="st13" d="M-348-592l3-1.5 4 4-3 1.5z" transform="translate(432 688)"/><path class="st14" d="M-351-590.5l3-1.5 4 4-3 1.5z" transform="translate(432 688)"/><path class="st13" d="M-348.5-582.7c-.8.4-1.5.1-1.5-.8v-1.5l3-1.5v1.5c0 .8-.7 1.8-1.5 2.3z" transform="translate(432 688)"/><path class="st14" d="M-351.5-581.2c-.8.4-1.5.1-1.5-.8v-1.5l3-1.5v1.5c0 .8-.7 1.8-1.5 2.3z" transform="translate(432 688)"/><path class="st13" d="M-354-589l3-1.5 4 4-3 1.5z" transform="translate(432 688)"/><path class="st14" d="M-357-587.5l3-1.5 4 4-3 1.5z" transform="translate(432 688)"/><path class="st13" d="M-354.5-579.7c-.8.4-1.5.1-1.5-.8v-1.5l3-1.5v1.5c0 .8-.7 1.8-1.5 2.3z" transform="translate(432 688)"/><path class="st14" d="M-357.5-578.2c-.8.4-1.5.1-1.5-.8v-1.5l3-1.5v1.5c0 .8-.7 1.8-1.5 2.3z" transform="translate(432 688)"/><path class="st13" d="M-360-586l3-1.5 4 4-3 1.5z" transform="translate(432 688)"/><path class="st14" d="M-363-584.5l3-1.5 4 4-3 1.5z" transform="translate(432 688)"/><path class="st13" d="M-360.5-576.7c-.8.4-1.5.1-1.5-.8v-1.5l3-1.5v1.5c0 .8-.7 1.8-1.5 2.3z" transform="translate(432 688)"/><path class="st14" d="M-363.5-575.2c-.8.4-1.5.1-1.5-.8v-1.5l3-1.5v1.5c0 .8-.7 1.8-1.5 2.3z" transform="translate(432 688)"/><path class="st13" d="M-366-583l3-1.5 4 4-3 1.5z" transform="translate(432 688)"/><path class="st14" d="M-366-583l4 4-3 1.5-1-.5z" transform="translate(432 688)"/><path class="st3" d="M-365-577.5l-1-.5v-5l57-28.5 2 2v-48l-61 30.5v64l2-1v-1l56-28 1 .5 2-1v-10.1c.2 0 .3-.1.5-.2.8-.4 1.5-1.4 1.5-2.2v-1.5l-60 30z" transform="translate(432 688)"/><path class="st4" d="M-365-577.5s-.9-5.6-1-5.5 0 5 0 5l1 .5z" transform="translate(432 688)"/><path class="st1" d="M-429-593.5l2 1 1-.5 56 28v1l2 1v-64l-61-30.5z" transform="translate(432 688)"/><path class="st6" d="M-429-614.5l61 30.5v-1l-61-30.5z" transform="translate(432 688)"/><path class="st7" d="M-429-615.5l61 30.5v-1l-61-30.5z" transform="translate(432 688)"/><path class="st6" d="M-429-655.5l61 30.5v-1l-61-30.5z" transform="translate(432 688)"/><path class="st7" d="M-429-656.5l61 30.5v-1l-61-30.5z" transform="translate(432 688)"/><path class="st6" d="M-371-587.5l1 .5v-39l-1-.5zm-56-28l1 .5v-39l-1-.5z" transform="translate(432 688)"/><path class="st8" d="M-427-592.5l1-.5v-20l-1-.5z" transform="translate(432 688)"/><path class="st7" d="M-418-612l-7-3.5v-1l7 3.5z" transform="translate(432 688)"/><path class="st9" d="M-421.5-625.7c-1.4-.7-2.5-.2-2.5 1.2v8.5l5 2.5v-8.5c0-1.4-1.1-3.1-2.5-3.7z" transform="translate(432 688)"/><path class="st10" d="M-421.5-625.7c-1.4-.7-2.5-.2-2.5 1.2v8.5l5 2.5v-8.5c0-1.4-1.1-3.1-2.5-3.7zm-1.5 1.7c0-.7.4-1 1-.9v2.9l-1-.5v-1.5zm0 2.5l1 .5v2l-1-.5v-2zm0 5v-2l1 .5v2l-1-.5zm3 1.5l-1-.5v-2l1 .5v2zm0-3l-1-.5v-2l1 .5v2zm0-3l-1-.5v-2.9c.6.5 1 1.3 1 1.9v1.5z" transform="translate(432 688)"/><path class="st11" d="M-420.3-624.8c.2.5.3.9.3 1.3v8.5l-4-2v1l5 2.5v-8.5c0-.9-.5-2-1.3-2.8z" transform="translate(432 688)"/><path class="st7" d="M-410-608l-7-3.5v-1l7 3.5z" transform="translate(432 688)"/><path class="st9" d="M-413.5-621.7c-1.4-.7-2.5-.1-2.5 1.3v8.4l5 2.5v-8.5c0-1.4-1.1-3.1-2.5-3.7z" transform="translate(432 688)"/><path class="st10" d="M-413.5-621.7c-1.4-.7-2.5-.1-2.5 1.3v8.4l5 2.5v-8.5c0-1.4-1.1-3.1-2.5-3.7zm-1.5 1.7c0-.7.4-1 1-.9v2.9l-1-.5v-1.5zm0 2.5l1 .5v2l-1-.5v-2zm0 5v-2l1 .5v2l-1-.5zm3 1.5l-1-.5v-2l1 .5v2zm0-3l-1-.5v-2l1 .5v2zm0-3l-1-.5v-2.9c.6.5 1 1.3 1 1.9v1.5z" transform="translate(432 688)"/><path class="st11" d="M-412.3-620.8c.2.5.3.9.3 1.3v8.5l-4-2v1l5 2.5v-8.5c0-.9-.5-2-1.3-2.8z" transform="translate(432 688)"/><path class="st7" d="M-380-593l-7-3.5v-1l7 3.5z" transform="translate(432 688)"/><path class="st9" d="M-383.5-606.7c-1.4-.7-2.5-.1-2.5 1.3v8.4l5 2.5v-8.5c0-1.4-1.1-3.1-2.5-3.7z" transform="translate(432 688)"/><path class="st10" d="M-383.5-606.7c-1.4-.7-2.5-.1-2.5 1.3v8.4l5 2.5v-8.5c0-1.4-1.1-3.1-2.5-3.7zm-1.5 1.7c0-.7.4-1 1-.9v2.9l-1-.5v-1.5zm0 2.5l1 .5v2l-1-.5v-2zm0 5v-2l1 .5v2l-1-.5zm3 1.5l-1-.5v-2l1 .5v2zm0-3l-1-.5v-2l1 .5v2zm0-3l-1-.5v-2.9c.6.5 1 1.3 1 1.9v1.5z" transform="translate(432 688)"/><path class="st11" d="M-382.3-605.8c.2.5.3.9.3 1.3v8.5l-4-2v1l5 2.5v-8.5c0-.9-.5-2-1.3-2.8z" transform="translate(432 688)"/><path class="st7" d="M-372-589l-7-3.5v-1l7 3.5z" transform="translate(432 688)"/><path class="st9" d="M-375.5-602.7c-1.4-.7-2.5-.1-2.5 1.3v8.4l5 2.5v-8.5c0-1.4-1.1-3.1-2.5-3.7z" transform="translate(432 688)"/><path class="st10" d="M-375.5-602.7c-1.4-.7-2.5-.1-2.5 1.3v8.4l5 2.5v-8.5c0-1.4-1.1-3.1-2.5-3.7zm-1.5 1.7c0-.7.4-1 1-.9v2.9l-1-.5v-1.5zm0 2.5l1 .5v2l-1-.5v-2zm0 5v-2l1 .5v2l-1-.5zm3 1.5l-1-.5v-2l1 .5v2zm0-3l-1-.5v-2l1 .5v2zm0-3l-1-.5v-2.9c.6.5 1 1.3 1 1.9v1.5z" transform="translate(432 688)"/><path class="st11" d="M-374.3-601.8c.2.5.3.9.3 1.3v8.5l-4-2v1l5 2.5v-8.5c0-.9-.5-2-1.3-2.8z" transform="translate(432 688)"/><path class="st7" d="M-399-602.5l-7-3.5v-1l7 3.5z" transform="translate(432 688)"/><path class="st9" d="M-402.5-616.2c-1.4-.7-2.5-.2-2.5 1.2v8.5l5 2.5v-8.5c0-1.4-1.1-3.1-2.5-3.7z" transform="translate(432 688)"/><path class="st10" d="M-402.5-616.2c-1.4-.7-2.5-.2-2.5 1.2v8.5l5 2.5v-8.5c0-1.4-1.1-3.1-2.5-3.7zm-1.5 1.7c0-.7.4-1 1-.9v2.9l-1-.5v-1.5zm0 2.5l1 .5v2l-1-.5v-2zm0 5v-2l1 .5v2l-1-.5zm3 1.5l-1-.5v-2l1 .5v2zm0-3l-1-.5v-2l1 .5v2zm0-3l-1-.5v-2.9c.6.5 1 1.3 1 1.9v1.5z" transform="translate(432 688)"/><path class="st11" d="M-401.3-615.3c.2.5.3.9.3 1.3v8.5l-4-2v1l5 2.5v-8.5c0-.9-.5-2-1.3-2.8z" transform="translate(432 688)"/><path class="st7" d="M-391-598.5l-7-3.5v-1l7 3.5z" transform="translate(432 688)"/><path class="st9" d="M-394.5-612.2c-1.4-.7-2.5-.2-2.5 1.2v8.5l5 2.5v-8.5c0-1.4-1.1-3.1-2.5-3.7z" transform="translate(432 688)"/><path class="st10" d="M-394.5-612.2c-1.4-.7-2.5-.2-2.5 1.2v8.5l5 2.5v-8.5c0-1.4-1.1-3.1-2.5-3.7zm-1.5 1.7c0-.7.4-1 1-.9v2.9l-1-.5v-1.5zm0 2.5l1 .5v2l-1-.5v-2zm0 5v-2l1 .5v2l-1-.5zm3 1.5l-1-.5v-2l1 .5v2zm0-3l-1-.5v-2l1 .5v2zm0-3l-1-.5v-2.9c.6.5 1 1.3 1 1.9v1.5z" transform="translate(432 688)"/><path class="st11" d="M-393.3-611.3c.2.5.3.9.3 1.3v8.5l-4-2v1l5 2.5v-8.5c0-.9-.5-2-1.3-2.8z" transform="translate(432 688)"/><path class="st10" d="M-426-593l56 28v-17l-56-28z" transform="translate(432 688)"/><path class="st7" d="M-418-626l-7-3.5v-1l7 3.5z" transform="translate(432 688)"/><path class="st9" d="M-421.5-639.7c-1.4-.7-2.5-.2-2.5 1.2v8.5l5 2.5v-8.5c0-1.4-1.1-3.1-2.5-3.7z" transform="translate(432 688)"/><path class="st10" d="M-421.5-639.7c-1.4-.7-2.5-.2-2.5 1.2v8.5l5 2.5v-8.5c0-1.4-1.1-3.1-2.5-3.7zm-1.5 1.7c0-.7.4-1 1-.9v2.9l-1-.5v-1.5zm0 2.5l1 .5v2l-1-.5v-2zm0 5v-2l1 .5v2l-1-.5zm3 1.5l-1-.5v-2l1 .5v2zm0-3l-1-.5v-2l1 .5v2zm0-3l-1-.5v-2.9c.6.5 1 1.3 1 1.9v1.5z" transform="translate(432 688)"/><path class="st11" d="M-420.3-638.8c.2.5.3.9.3 1.3v8.5l-4-2v1l5 2.5v-8.5c0-.9-.5-2-1.3-2.8z" transform="translate(432 688)"/><path class="st7" d="M-410-622l-7-3.5v-1l7 3.5z" transform="translate(432 688)"/><path class="st9" d="M-413.5-635.7c-1.4-.7-2.5-.1-2.5 1.3v8.4l5 2.5v-8.5c0-1.4-1.1-3.1-2.5-3.7z" transform="translate(432 688)"/><path class="st10" d="M-413.5-635.7c-1.4-.7-2.5-.1-2.5 1.3v8.4l5 2.5v-8.5c0-1.4-1.1-3.1-2.5-3.7zm-1.5 1.7c0-.7.4-1 1-.9v2.9l-1-.5v-1.5zm0 2.5l1 .5v2l-1-.5v-2zm0 5v-2l1 .5v2l-1-.5zm3 1.5l-1-.5v-2l1 .5v2zm0-3l-1-.5v-2l1 .5v2zm0-3l-1-.5v-2.9c.6.5 1 1.3 1 1.9v1.5z" transform="translate(432 688)"/><path class="st11" d="M-412.3-634.8c.2.5.3.9.3 1.3v8.5l-4-2v1l5 2.5v-8.5c0-.9-.5-2-1.3-2.8z" transform="translate(432 688)"/><path class="st7" d="M-380-607l-7-3.5v-1l7 3.5z" transform="translate(432 688)"/><path class="st9" d="M-383.5-620.7c-1.4-.7-2.5-.1-2.5 1.3v8.4l5 2.5v-8.5c0-1.4-1.1-3.1-2.5-3.7z" transform="translate(432 688)"/><path class="st10" d="M-383.5-620.7c-1.4-.7-2.5-.1-2.5 1.3v8.4l5 2.5v-8.5c0-1.4-1.1-3.1-2.5-3.7zm-1.5 1.7c0-.7.4-1 1-.9v2.9l-1-.5v-1.5zm0 2.5l1 .5v2l-1-.5v-2zm0 5v-2l1 .5v2l-1-.5zm3 1.5l-1-.5v-2l1 .5v2zm0-3l-1-.5v-2l1 .5v2zm0-3l-1-.5v-2.9c.6.5 1 1.3 1 1.9v1.5z" transform="translate(432 688)"/><path class="st11" d="M-382.3-619.8c.2.5.3.9.3 1.3v8.5l-4-2v1l5 2.5v-8.5c0-.9-.5-2-1.3-2.8z" transform="translate(432 688)"/><path class="st7" d="M-372-603l-7-3.5v-1l7 3.5z" transform="translate(432 688)"/><path class="st9" d="M-375.5-616.7c-1.4-.7-2.5-.1-2.5 1.3v8.4l5 2.5v-8.5c0-1.4-1.1-3.1-2.5-3.7z" transform="translate(432 688)"/><path class="st10" d="M-375.5-616.7c-1.4-.7-2.5-.1-2.5 1.3v8.4l5 2.5v-8.5c0-1.4-1.1-3.1-2.5-3.7zm-1.5 1.7c0-.7.4-1 1-.9v2.9l-1-.5v-1.5zm0 2.5l1 .5v2l-1-.5v-2zm0 5v-2l1 .5v2l-1-.5zm3 1.5l-1-.5v-2l1 .5v2zm0-3l-1-.5v-2l1 .5v2zm0-3l-1-.5v-2.9c.6.5 1 1.3 1 1.9v1.5z" transform="translate(432 688)"/><path class="st11" d="M-374.3-615.8c.2.5.3.9.3 1.3v8.5l-4-2v1l5 2.5v-8.5c0-.9-.5-2-1.3-2.8z" transform="translate(432 688)"/><path class="st7" d="M-399-616.5l-7-3.5v-1l7 3.5z" transform="translate(432 688)"/><path class="st9" d="M-402.5-630.2c-1.4-.7-2.5-.2-2.5 1.2v8.5l5 2.5v-8.5c0-1.4-1.1-3.1-2.5-3.7z" transform="translate(432 688)"/><path class="st10" d="M-402.5-630.2c-1.4-.7-2.5-.2-2.5 1.2v8.5l5 2.5v-8.5c0-1.4-1.1-3.1-2.5-3.7zm-1.5 1.7c0-.7.4-1 1-.9v2.9l-1-.5v-1.5zm0 2.5l1 .5v2l-1-.5v-2zm0 5v-2l1 .5v2l-1-.5zm3 1.5l-1-.5v-2l1 .5v2zm0-3l-1-.5v-2l1 .5v2zm0-3l-1-.5v-2.9c.6.5 1 1.3 1 1.9v1.5z" transform="translate(432 688)"/><path class="st11" d="M-401.3-629.3c.2.5.3.9.3 1.3v8.5l-4-2v1l5 2.5v-8.5c0-.9-.5-2-1.3-2.8z" transform="translate(432 688)"/><path class="st7" d="M-391-612.5l-7-3.5v-1l7 3.5z" transform="translate(432 688)"/><path class="st9" d="M-394.5-626.2c-1.4-.7-2.5-.2-2.5 1.2v8.5l5 2.5v-8.5c0-1.4-1.1-3.1-2.5-3.7z" transform="translate(432 688)"/><path class="st10" d="M-394.5-626.2c-1.4-.7-2.5-.2-2.5 1.2v8.5l5 2.5v-8.5c0-1.4-1.1-3.1-2.5-3.7zm-1.5 1.7c0-.7.4-1 1-.9v2.9l-1-.5v-1.5zm0 2.5l1 .5v2l-1-.5v-2zm0 5v-2l1 .5v2l-1-.5zm3 1.5l-1-.5v-2l1 .5v2zm0-3l-1-.5v-2l1 .5v2zm0-3l-1-.5v-2.9c.6.5 1 1.3 1 1.9v1.5z" transform="translate(432 688)"/><path class="st11" d="M-393.3-625.3c.2.5.3.9.3 1.3v8.5l-4-2v1l5 2.5v-8.5c0-.9-.5-2-1.3-2.8z" transform="translate(432 688)"/><path class="st7" d="M-418-640l-7-3.5v-1l7 3.5z" transform="translate(432 688)"/><path class="st9" d="M-421.5-650.7c-1.4-.7-2.5-.2-2.5 1.2v5.5l5 2.5v-5.5c0-1.4-1.1-3.1-2.5-3.7z" transform="translate(432 688)"/><path class="st10" d="M-421.5-650.7c-1.4-.7-2.5-.2-2.5 1.2v5.5l5 2.5v-5.5c0-1.4-1.1-3.1-2.5-3.7zm-.5 6.7l-1-.5v-2l1 .5v2zm0-3l-1-.5v-1.5c0-.7.4-1 1-.9v2.9zm2 4l-1-.5v-2l1 .5v2zm0-3l-1-.5v-2.9c.6.5 1 1.3 1 1.9v1.5z" transform="translate(432 688)"/><path class="st11" d="M-420.3-649.8c.2.5.3.9.3 1.3v5.5l-4-2v1l5 2.5v-5.5c0-.9-.5-2-1.3-2.8z" transform="translate(432 688)"/><path class="st7" d="M-410-636l-7-3.5v-1l7 3.5z" transform="translate(432 688)"/><path class="st9" d="M-413.5-646.7c-1.4-.7-2.5-.1-2.5 1.3v5.4l5 2.5v-5.5c0-1.4-1.1-3.1-2.5-3.7z" transform="translate(432 688)"/><path class="st10" d="M-413.5-646.7c-1.4-.7-2.5-.1-2.5 1.3v5.4l5 2.5v-5.5c0-1.4-1.1-3.1-2.5-3.7zm-.5 6.7l-1-.5v-2l1 .5v2zm0-3l-1-.5v-1.5c0-.7.4-1 1-.9v2.9zm2 4l-1-.5v-2l1 .5v2zm0-3l-1-.5v-2.9c.6.5 1 1.3 1 1.9v1.5z" transform="translate(432 688)"/><path class="st11" d="M-412.3-645.8c.2.5.3.9.3 1.3v5.5l-4-2v1l5 2.5v-5.5c0-.9-.5-2-1.3-2.8z" transform="translate(432 688)"/><path class="st7" d="M-399-630.5l-7-3.5v-1l7 3.5z" transform="translate(432 688)"/><path class="st9" d="M-402.5-641.2c-1.4-.7-2.5-.2-2.5 1.2v5.5l5 2.5v-5.5c0-1.4-1.1-3.1-2.5-3.7z" transform="translate(432 688)"/><path class="st10" d="M-402.5-641.2c-1.4-.7-2.5-.2-2.5 1.2v5.5l5 2.5v-5.5c0-1.4-1.1-3.1-2.5-3.7zm-.5 6.7l-1-.5v-2l1 .5v2zm0-3l-1-.5v-1.5c0-.7.4-1 1-.9v2.9zm2 4l-1-.5v-2l1 .5v2zm0-3l-1-.5v-2.9c.6.5 1 1.3 1 1.9v1.5z" transform="translate(432 688)"/><path class="st11" d="M-401.3-640.3c.2.5.3.9.3 1.3v5.5l-4-2v1l5 2.5v-5.5c0-.9-.5-2-1.3-2.8z" transform="translate(432 688)"/><path class="st7" d="M-391-626.5l-7-3.5v-1l7 3.5z" transform="translate(432 688)"/><path class="st9" d="M-394.5-637.2c-1.4-.7-2.5-.2-2.5 1.2v5.5l5 2.5v-5.5c0-1.4-1.1-3.1-2.5-3.7z" transform="translate(432 688)"/><path class="st10" d="M-394.5-637.2c-1.4-.7-2.5-.2-2.5 1.2v5.5l5 2.5v-5.5c0-1.4-1.1-3.1-2.5-3.7zm-.5 6.7l-1-.5v-2l1 .5v2zm0-3l-1-.5v-1.5c0-.7.4-1 1-.9v2.9zm2 4l-1-.5v-2l1 .5v2zm0-3l-1-.5v-2.9c.6.5 1 1.3 1 1.9v1.5z" transform="translate(432 688)"/><path class="st11" d="M-393.3-636.3c.2.5.3.9.3 1.3v5.5l-4-2v1l5 2.5v-5.5c0-.9-.5-2-1.3-2.8z" transform="translate(432 688)"/><path class="st7" d="M-380-621l-7-3.5v-1l7 3.5z" transform="translate(432 688)"/><path class="st9" d="M-383.5-631.7c-1.4-.7-2.5-.1-2.5 1.3v5.4l5 2.5v-5.5c0-1.4-1.1-3.1-2.5-3.7z" transform="translate(432 688)"/><path class="st10" d="M-383.5-631.7c-1.4-.7-2.5-.1-2.5 1.3v5.4l5 2.5v-5.5c0-1.4-1.1-3.1-2.5-3.7zm-.5 6.7l-1-.5v-2l1 .5v2zm0-3l-1-.5v-1.5c0-.7.4-1 1-.9v2.9zm2 4l-1-.5v-2l1 .5v2zm0-3l-1-.5v-2.9c.6.5 1 1.3 1 1.9v1.5z" transform="translate(432 688)"/><path class="st11" d="M-382.3-630.8c.2.5.3.9.3 1.3v5.5l-4-2v1l5 2.5v-5.5c0-.9-.5-2-1.3-2.8z" transform="translate(432 688)"/><path class="st7" d="M-372-617l-7-3.5v-1l7 3.5z" transform="translate(432 688)"/><path class="st9" d="M-375.5-627.7c-1.4-.7-2.5-.1-2.5 1.3v5.4l5 2.5v-5.5c0-1.4-1.1-3.1-2.5-3.7z" transform="translate(432 688)"/><path class="st10" d="M-375.5-627.7c-1.4-.7-2.5-.1-2.5 1.3v5.4l5 2.5v-5.5c0-1.4-1.1-3.1-2.5-3.7zm-.5 6.7l-1-.5v-2l1 .5v2zm0-3l-1-.5v-1.5c0-.7.4-1 1-.9v2.9zm2 4l-1-.5v-2l1 .5v2zm0-3l-1-.5v-2.9c.6.5 1 1.3 1 1.9v1.5z" transform="translate(432 688)"/><path class="st11" d="M-374.3-626.8c.2.5.3.9.3 1.3v5.5l-4-2v1l5 2.5v-5.5c0-.9-.5-2-1.3-2.8z" transform="translate(432 688)"/><path class="st6" d="M-371-565.5l1 .5v-20l-1-.5z" transform="translate(432 688)"/><path class="st6" d="M-391-575.5l21 10.5v-4l-21-10.5z" transform="translate(432 688)"/><path class="st6" d="M-391-578.5l21 10.5v-1l-21-10.5zm-35-14.5l20 10v-4l-20-10z" transform="translate(432 688)"/><path class="st6" d="M-426-596l20 10v-1l-20-10z" transform="translate(432 688)"/><path class="st7" d="M-391-588.5l-1-.5v13l1 .5z" transform="translate(432 688)"/><path class="st6" d="M-390-588l-1-.5v13l1 .5zm-16-8l-1-.5v13l1 .5zm-19-9.5l-1-.5v13l1 .5zm6 3l-1-.5v9l1 .5zm7 3.5l-1-.5v9l1 .5zm29 14.5l-1-.5v9l1 .5zm7 3.5l-1-.5v9l1 .5z" transform="translate(432 688)"/><path class="st7" d="M-398-592l-1-.5v13l1 .5zm-7-3.5l-1-.5v13l1 .5z" transform="translate(432 688)"/><path class="st6" d="M-392-576v-12l-6-3v2zm15 1.5v-6l-6-3v1zm6 5v-8l-5-2.5v1.3zm-36-20v-6l-5-2.5v1z" transform="translate(432 688)"/><path class="st12" d="M-405-582.5l6 3-6-11z" transform="translate(432 688)"/><path class="st13" d="M-429.5-603.7c.8.4 1.5 0 1.5-.8v-1.5l-3-1.5v1.5c0 .8.7 1.8 1.5 2.3z" transform="translate(432 688)"/><path class="st14" d="M-426.5-602.2c.8.4 1.5 0 1.5-.8v-1.5l-3-1.5v1.5c0 .8.7 1.8 1.5 2.3z" transform="translate(432 688)"/><path class="st13" d="M-424-610l-3-1.5-4 4 3 1.5z" transform="translate(432 688)"/><path class="st14" d="M-421-608.5l-3-1.5-4 4 3 1.5z" transform="translate(432 688)"/><path class="st13" d="M-423.5-600.7c.8.4 1.5.1 1.5-.8v-1.5l-3-1.5v1.5c0 .8.7 1.8 1.5 2.3z" transform="translate(432 688)"/><path class="st14" d="M-420.5-599.2c.8.4 1.5.1 1.5-.8v-1.5l-3-1.5v1.5c0 .8.7 1.8 1.5 2.3z" transform="translate(432 688)"/><path class="st13" d="M-418-607l-3-1.5-4 4 3 1.5z" transform="translate(432 688)"/><path class="st14" d="M-415-605.5l-3-1.5-4 4 3 1.5z" transform="translate(432 688)"/><path class="st13" d="M-417.5-597.7c.8.4 1.5.1 1.5-.8v-1.5l-3-1.5v1.5c0 .8.7 1.8 1.5 2.3z" transform="translate(432 688)"/><path class="st14" d="M-414.5-596.2c.8.4 1.5.1 1.5-.8v-1.5l-3-1.5v1.5c0 .8.7 1.8 1.5 2.3z" transform="translate(432 688)"/><path class="st13" d="M-412-604l-3-1.5-4 4 3 1.5z" transform="translate(432 688)"/><path class="st14" d="M-409-602.5l-3-1.5-4 4 3 1.5z" transform="translate(432 688)"/><path class="st13" d="M-411.5-594.7c.8.4 1.5.1 1.5-.8v-1.5l-3-1.5v1.5c0 .8.7 1.8 1.5 2.3z" transform="translate(432 688)"/><path class="st14" d="M-408.5-593.2c.8.4 1.5.1 1.5-.8v-1.5l-3-1.5v1.5c0 .8.7 1.8 1.5 2.3z" transform="translate(432 688)"/><path class="st13" d="M-406-601l-3-1.5-4 4 3 1.5z" transform="translate(432 688)"/><path class="st14" d="M-403-599.5l-3-1.5-4 4 3 1.5z" transform="translate(432 688)"/><path class="st13" d="M-405.5-591.7c.8.4 1.5.1 1.5-.8v-1.5l-3-1.5v1.5c0 .8.7 1.8 1.5 2.3z" transform="translate(432 688)"/><path class="st14" d="M-402.5-590.2c.8.4 1.5.1 1.5-.8v-1.5l-3-1.5v1.5c0 .8.7 1.8 1.5 2.3z" transform="translate(432 688)"/><path class="st13" d="M-400-598l-3-1.5-4 4 3 1.5z" transform="translate(432 688)"/><path class="st14" d="M-397-596.5l-3-1.5-4 4 3 1.5z" transform="translate(432 688)"/><path class="st13" d="M-399.5-588.7c.8.4 1.5.1 1.5-.8v-1.5l-3-1.5v1.5c0 .8.7 1.8 1.5 2.3z" transform="translate(432 688)"/><path class="st14" d="M-396.5-587.2c.8.4 1.5.1 1.5-.8v-1.5l-3-1.5v1.5c0 .8.7 1.8 1.5 2.3z" transform="translate(432 688)"/><path class="st13" d="M-394-595l-3-1.5-4 4 3 1.5z" transform="translate(432 688)"/><path class="st14" d="M-391-593.5l-3-1.5-4 4 3 1.5z" transform="translate(432 688)"/><path class="st13" d="M-393.5-585.7c.8.4 1.5.1 1.5-.8v-1.5l-3-1.5v1.5c0 .8.7 1.8 1.5 2.3z" transform="translate(432 688)"/><path class="st14" d="M-390.5-584.2c.8.4 1.5.1 1.5-.8v-1.5l-3-1.5v1.5c0 .8.7 1.8 1.5 2.3z" transform="translate(432 688)"/><path class="st13" d="M-388-592l-3-1.5-4 4 3 1.5z" transform="translate(432 688)"/><path class="st14" d="M-385-590.5l-3-1.5-4 4 3 1.5z" transform="translate(432 688)"/><path class="st13" d="M-387.5-582.7c.8.4 1.5.1 1.5-.8v-1.5l-3-1.5v1.5c0 .8.7 1.8 1.5 2.3z" transform="translate(432 688)"/><path class="st14" d="M-384.5-581.2c.8.4 1.5.1 1.5-.8v-1.5l-3-1.5v1.5c0 .8.7 1.8 1.5 2.3z" transform="translate(432 688)"/><path class="st13" d="M-382-589l-3-1.5-4 4 3 1.5z" transform="translate(432 688)"/><path class="st14" d="M-379-587.5l-3-1.5-4 4 3 1.5z" transform="translate(432 688)"/><path class="st13" d="M-381.5-579.7c.8.4 1.5.1 1.5-.8v-1.5l-3-1.5v1.5c0 .8.7 1.8 1.5 2.3z" transform="translate(432 688)"/><path class="st14" d="M-378.5-578.2c.8.4 1.5.1 1.5-.8v-1.5l-3-1.5v1.5c0 .8.7 1.8 1.5 2.3z" transform="translate(432 688)"/><path class="st13" d="M-376-586l-3-1.5-4 4 3 1.5z" transform="translate(432 688)"/><path class="st14" d="M-373-584.5l-3-1.5-4 4 3 1.5z" transform="translate(432 688)"/><path class="st13" d="M-375.5-576.7c.8.4 1.5.1 1.5-.8v-1.5l-3-1.5v1.5c0 .8.7 1.8 1.5 2.3z" transform="translate(432 688)"/><path class="st14" d="M-372.5-575.2c.8.4 1.5.1 1.5-.8v-1.5l-3-1.5v1.5c0 .8.7 1.8 1.5 2.3z" transform="translate(432 688)"/><path class="st13" d="M-370-583l-3-1.5-4 4 3 1.5z" transform="translate(432 688)"/><path class="st14" d="M-370-583l-4 4 3 1.5 1-.5z" transform="translate(432 688)"/><path class="st4" d="M-371-577.5l1-.5v-5l-57-28.5-2 2v-48l61 30.5v64l-2-1v-1l-56-28-1 .5-2-1v-10.1c-.2 0-.3-.1-.5-.2-.8-.4-1.5-1.4-1.5-2.2v-1.5l60 30z" transform="translate(432 688)"/><path class="st3" d="M-371-577.5s.9-5.6 1-5.5 0 5 0 5l-1 .5z" transform="translate(432 688)"/></g></svg>