<svg xmlns="http://www.w3.org/2000/svg" width="128" height="192"><style>.st0{fill:#e5e5e5}.st1{fill:#39c}.st2,.st3{opacity:.45;fill:#262626;enable-background:new}.st3{opacity:.15}.st4{opacity:.2;fill:#fff}.st4,.st5,.st6,.st7{enable-background:new}.st5{fill:#262626;opacity:.25}.st6{opacity:.39}.st7{opacity:6.000000e-02}.st9{fill:#656565}</style><g id="i2121_1_"><path class="st0" d="M-464-792l-64 32v128l64 32 64-32v-128z" transform="translate(528 792)"/><path class="st1" d="M-475-653.5l6 3v-8l-6-3z" transform="translate(528 792)"/><path class="st2" d="M-474-661v7l5 2.5v1l-6-3v-8z" transform="translate(528 792)"/><path class="st1" d="M-487-659.5l6 3v-8l-6-3z" transform="translate(528 792)"/><path class="st3" d="M-481-659v-5.5l-6-3z" transform="translate(528 792)"/><path class="st2" d="M-486-667v7l5 2.5v1l-6-3v-8z" transform="translate(528 792)"/><path class="st1" d="M-499-665.5l6 3v-8l-6-3z" transform="translate(528 792)"/><path class="st2" d="M-498-673v7l5 2.5v1l-6-3v-8z" transform="translate(528 792)"/><path class="st1" d="M-511-671.5l6 3v-8l-6-3z" transform="translate(528 792)"/><path class="st2" d="M-510-679v7l5 2.5v1l-6-3v-8z" transform="translate(528 792)"/><path class="st1" d="M-523-677.5l6 3v-8l-6-3z" transform="translate(528 792)"/><path class="st4" d="M-523-677.5l6 3-6-11z" transform="translate(528 792)"/><path class="st2" d="M-522-685v7l5 2.5v1l-6-3v-8z" transform="translate(528 792)"/><path class="st1" d="M-475-639.5l6 3v-8l-6-3z" transform="translate(528 792)"/><path class="st2" d="M-474-647v7l5 2.5v1l-6-3v-8z" transform="translate(528 792)"/><path class="st1" d="M-487-645.5l6 3v-8l-6-3z" transform="translate(528 792)"/><path class="st2" d="M-486-653v7l5 2.5v1l-6-3v-8z" transform="translate(528 792)"/><path class="st1" d="M-499-651.5l6 3v-8l-6-3z" transform="translate(528 792)"/><path class="st2" d="M-498-659v7l5 2.5v1l-6-3v-8z" transform="translate(528 792)"/><path class="st1" d="M-511-657.5l6 3v-8l-6-3z" transform="translate(528 792)"/><path class="st2" d="M-510-665v7l5 2.5v1l-6-3v-8z" transform="translate(528 792)"/><path class="st1" d="M-523-663.5l6 3v-8l-6-3z" transform="translate(528 792)"/><path class="st2" d="M-522-671v7l5 2.5v1l-6-3v-8z" transform="translate(528 792)"/><path class="st1" d="M-475-625.5l6 3v-8l-6-3z" transform="translate(528 792)"/><path class="st2" d="M-474-633v7l5 2.5v1l-6-3v-8z" transform="translate(528 792)"/><path class="st1" d="M-487-631.5l6 3v-8l-6-3z" transform="translate(528 792)"/><path class="st3" d="M-481-631v-5.5l-6-3z" transform="translate(528 792)"/><path class="st2" d="M-486-639v7l5 2.5v1l-6-3v-8z" transform="translate(528 792)"/><path class="st1" d="M-499-637.5l6 3v-8l-6-3z" transform="translate(528 792)"/><path class="st2" d="M-498-645v7l5 2.5v1l-6-3v-8z" transform="translate(528 792)"/><path class="st1" d="M-511-643.5l6 3v-8l-6-3z" transform="translate(528 792)"/><path class="st2" d="M-510-651v7l5 2.5v1l-6-3v-8z" transform="translate(528 792)"/><path class="st1" d="M-523-649.5l6 3v-8l-6-3z" transform="translate(528 792)"/><path class="st2" d="M-522-657v7l5 2.5v1l-6-3v-8z" transform="translate(528 792)"/><path class="st1" d="M-475-611.5l6 3v-8l-6-3z" transform="translate(528 792)"/><path class="st2" d="M-474-619v7l5 2.5v1l-6-3v-8z" transform="translate(528 792)"/><path class="st1" d="M-487-617.5l6 3v-8l-6-3z" transform="translate(528 792)"/><path class="st2" d="M-486-625v7l5 2.5v1l-6-3v-8z" transform="translate(528 792)"/><path class="st1" d="M-499-623.5l6 3v-8l-6-3z" transform="translate(528 792)"/><path class="st2" d="M-498-631v7l5 2.5v1l-6-3v-8z" transform="translate(528 792)"/><path class="st1" d="M-511-629.5l6 3v-8l-6-3z" transform="translate(528 792)"/><path class="st4" d="M-511-629.5l6 3-6-11z" transform="translate(528 792)"/><path class="st2" d="M-510-637v7l5 2.5v1l-6-3v-8z" transform="translate(528 792)"/><path class="st1" d="M-523-635.5l6 3v-8l-6-3z" transform="translate(528 792)"/><path class="st2" d="M-522-643v7l5 2.5v1l-6-3v-8z" transform="translate(528 792)"/><path class="st1" d="M-475-709.5l6 3v-8l-6-3z" transform="translate(528 792)"/><path class="st3" d="M-469-706.5v-8l-6-3z" transform="translate(528 792)"/><path class="st2" d="M-474-717v7l5 2.5v1l-6-3v-8z" transform="translate(528 792)"/><path class="st1" d="M-487-715.5l6 3v-8l-6-3z" transform="translate(528 792)"/><path class="st2" d="M-486-723v7l5 2.5v1l-6-3v-8z" transform="translate(528 792)"/><path class="st1" d="M-499-721.5l6 3v-8l-6-3z" transform="translate(528 792)"/><path class="st2" d="M-498-729v7l5 2.5v1l-6-3v-8z" transform="translate(528 792)"/><path class="st1" d="M-511-727.5l6 3v-8l-6-3z" transform="translate(528 792)"/><path class="st2" d="M-510-735v7l5 2.5v1l-6-3v-8z" transform="translate(528 792)"/><path class="st1" d="M-523-733.5l6 3v-8l-6-3z" transform="translate(528 792)"/><path class="st2" d="M-522-741v7l5 2.5v1l-6-3v-8z" transform="translate(528 792)"/><path class="st1" d="M-475-723.5l6 3v-8l-6-3z" transform="translate(528 792)"/><path class="st2" d="M-474-731v7l5 2.5v1l-6-3v-8z" transform="translate(528 792)"/><path class="st1" d="M-487-729.5l6 3v-8l-6-3z" transform="translate(528 792)"/><path class="st2" d="M-486-737v7l5 2.5v1l-6-3v-8z" transform="translate(528 792)"/><path class="st1" d="M-499-735.5l6 3v-8l-6-3z" transform="translate(528 792)"/><path class="st2" d="M-498-743v7l5 2.5v1l-6-3v-8z" transform="translate(528 792)"/><path class="st1" d="M-511-741.5l6 3v-8l-6-3z" transform="translate(528 792)"/><path class="st3" d="M-505-741v-5.5l-6-3z" transform="translate(528 792)"/><path class="st2" d="M-510-749v7l5 2.5v1l-6-3v-8z" transform="translate(528 792)"/><path class="st1" d="M-523-747.5l6 3v-8l-6-3z" transform="translate(528 792)"/><path class="st2" d="M-522-755v7l5 2.5v1l-6-3v-8z" transform="translate(528 792)"/><path class="st1" d="M-475-695.5l6 3v-8l-6-3z" transform="translate(528 792)"/><path class="st2" d="M-474-703v7l5 2.5v1l-6-3v-8z" transform="translate(528 792)"/><path class="st1" d="M-487-701.5l6 3v-8l-6-3z" transform="translate(528 792)"/><path class="st2" d="M-486-709v7l5 2.5v1l-6-3v-8z" transform="translate(528 792)"/><path class="st1" d="M-499-707.5l6 3v-8l-6-3z" transform="translate(528 792)"/><path class="st2" d="M-498-715v7l5 2.5v1l-6-3v-8z" transform="translate(528 792)"/><path class="st1" d="M-511-713.5l6 3v-8l-6-3z" transform="translate(528 792)"/><path class="st3" d="M-505-710.5v-8l-6-3z" transform="translate(528 792)"/><path class="st2" d="M-510-721v7l5 2.5v1l-6-3v-8z" transform="translate(528 792)"/><path class="st1" d="M-523-719.5l6 3v-8l-6-3z" transform="translate(528 792)"/><path class="st2" d="M-522-727v7l5 2.5v1l-6-3v-8z" transform="translate(528 792)"/><path class="st1" d="M-475-681.5l6 3v-8l-6-3z" transform="translate(528 792)"/><path class="st2" d="M-474-689v7l5 2.5v1l-6-3v-8z" transform="translate(528 792)"/><path class="st1" d="M-487-687.5l6 3v-8l-6-3z" transform="translate(528 792)"/><path class="st2" d="M-486-695v7l5 2.5v1l-6-3v-8z" transform="translate(528 792)"/><path class="st1" d="M-499-693.5l6 3v-8l-6-3z" transform="translate(528 792)"/><path class="st2" d="M-498-701v7l5 2.5v1l-6-3v-8z" transform="translate(528 792)"/><path class="st1" d="M-511-699.5l6 3v-8l-6-3z" transform="translate(528 792)"/><path class="st2" d="M-510-707v7l5 2.5v1l-6-3v-8z" transform="translate(528 792)"/><path class="st1" d="M-523-705.5l6 3v-8l-6-3z" transform="translate(528 792)"/><path class="st2" d="M-522-713v7l5 2.5v1l-6-3v-8z" transform="translate(528 792)"/><path class="st1" d="M-475-667.5l6 3v-8l-6-3z" transform="translate(528 792)"/><path class="st2" d="M-474-675v7l5 2.5v1l-6-3v-8z" transform="translate(528 792)"/><path class="st1" d="M-487-673.5l6 3v-8l-6-3z" transform="translate(528 792)"/><path class="st2" d="M-486-681v7l5 2.5v1l-6-3v-8z" transform="translate(528 792)"/><path class="st1" d="M-499-679.5l6 3v-8l-6-3z" transform="translate(528 792)"/><path class="st4" d="M-499-679.5l6 3-6-8.5z" transform="translate(528 792)"/><path class="st2" d="M-498-687v7l5 2.5v1l-6-3v-8z" transform="translate(528 792)"/><path class="st1" d="M-511-685.5l6 3v-8l-6-3z" transform="translate(528 792)"/><path class="st2" d="M-510-693v7l5 2.5v1l-6-3v-8z" transform="translate(528 792)"/><path class="st1" d="M-523-691.5l6 3v-8l-6-3z" transform="translate(528 792)"/><path class="st2" d="M-522-699v7l5 2.5v1l-6-3v-8z" transform="translate(528 792)"/><path class="st5" d="M-479-607.5l2 1v-128l-2-1zm12 6l3 1.5v-128l-3-1.5zm-24-12l2 1v-128l-2-1zm-12-6l2 1v-128l-2-1zm-12-6l2 1v-128l-2-1zm-13-6.4l3 1.4v-128l-3-1.4z" transform="translate(528 792)"/><path class="st1" d="M-453-653.5l-6 3v-8l6-3z" transform="translate(528 792)"/><path class="st4" d="M-453-653.5l-6 3v-5.5z" transform="translate(528 792)"/><path class="st2" d="M-454-661v7l-5 2.5v1l6-3v-8z" transform="translate(528 792)"/><path class="st1" d="M-441-659.5l-6 3v-8l6-3z" transform="translate(528 792)"/><path class="st2" d="M-442-667v7l-5 2.5v1l6-3v-8z" transform="translate(528 792)"/><path class="st1" d="M-429-665.5l-6 3v-8l6-3z" transform="translate(528 792)"/><path class="st3" d="M-429-665.5l-6-5 6-3z" transform="translate(528 792)"/><path class="st2" d="M-430-673v7l-5 2.5v1l6-3v-8z" transform="translate(528 792)"/><path class="st1" d="M-417-671.5l-6 3v-8l6-3z" transform="translate(528 792)"/><path class="st2" d="M-418-679v7l-5 2.5v1l6-3v-8z" transform="translate(528 792)"/><path class="st1" d="M-405-677.5l-6 3v-8l6-3z" transform="translate(528 792)"/><path class="st2" d="M-406-685v7l-5 2.5v1l6-3v-8z" transform="translate(528 792)"/><path class="st1" d="M-453-639.5l-6 3v-8l6-3z" transform="translate(528 792)"/><path class="st2" d="M-454-647v7l-5 2.5v1l6-3v-8z" transform="translate(528 792)"/><path class="st1" d="M-441-645.5l-6 3v-8l6-3z" transform="translate(528 792)"/><path class="st2" d="M-442-653v7l-5 2.5v1l6-3v-8z" transform="translate(528 792)"/><path class="st1" d="M-429-651.5l-6 3v-8l6-3z" transform="translate(528 792)"/><path class="st2" d="M-430-659v7l-5 2.5v1l6-3v-8z" transform="translate(528 792)"/><path class="st1" d="M-417-657.5l-6 3v-8l6-3z" transform="translate(528 792)"/><path class="st2" d="M-418-665v7l-5 2.5v1l6-3v-8z" transform="translate(528 792)"/><path class="st1" d="M-405-663.5l-6 3v-8l6-3z" transform="translate(528 792)"/><path class="st2" d="M-406-671v7l-5 2.5v1l6-3v-8z" transform="translate(528 792)"/><path class="st1" d="M-453-625.5l-6 3v-8l6-3z" transform="translate(528 792)"/><path class="st2" d="M-454-633v7l-5 2.5v1l6-3v-8z" transform="translate(528 792)"/><path class="st1" d="M-441-631.5l-6 3v-8l6-3z" transform="translate(528 792)"/><path class="st2" d="M-442-639v7l-5 2.5v1l6-3v-8z" transform="translate(528 792)"/><path class="st1" d="M-429-637.5l-6 3v-8l6-3z" transform="translate(528 792)"/><path class="st2" d="M-430-645v7l-5 2.5v1l6-3v-8z" transform="translate(528 792)"/><path class="st1" d="M-417-643.5l-6 3v-8l6-3z" transform="translate(528 792)"/><path class="st2" d="M-418-651v7l-5 2.5v1l6-3v-8z" transform="translate(528 792)"/><path class="st1" d="M-405-649.5l-6 3v-8l6-3z" transform="translate(528 792)"/><path class="st4" d="M-405-649.5l-6 3v-5.5z" transform="translate(528 792)"/><path class="st2" d="M-406-657v7l-5 2.5v1l6-3v-8z" transform="translate(528 792)"/><path class="st1" d="M-453-611.5l-6 3v-8l6-3z" transform="translate(528 792)"/><path class="st2" d="M-454-619v7l-5 2.5v1l6-3v-8z" transform="translate(528 792)"/><path class="st1" d="M-441-617.5l-6 3v-8l6-3z" transform="translate(528 792)"/><path class="st2" d="M-442-625v7l-5 2.5v1l6-3v-8z" transform="translate(528 792)"/><path class="st1" d="M-429-623.5l-6 3v-8l6-3z" transform="translate(528 792)"/><path class="st3" d="M-429-623.5l-6-5 6-3z" transform="translate(528 792)"/><path class="st2" d="M-430-631v7l-5 2.5v1l6-3v-8z" transform="translate(528 792)"/><path class="st1" d="M-417-629.5l-6 3v-8l6-3z" transform="translate(528 792)"/><path class="st2" d="M-418-637v7l-5 2.5v1l6-3v-8z" transform="translate(528 792)"/><path class="st1" d="M-405-635.5l-6 3v-8l6-3z" transform="translate(528 792)"/><path class="st2" d="M-406-643v7l-5 2.5v1l6-3v-8z" transform="translate(528 792)"/><path class="st1" d="M-453-709.5l-6 3v-8l6-3z" transform="translate(528 792)"/><path class="st3" d="M-453-713l-6-1.5 6-3z" transform="translate(528 792)"/><path class="st2" d="M-454-717v7l-5 2.5v1l6-3v-8z" transform="translate(528 792)"/><path class="st1" d="M-441-715.5l-6 3v-8l6-3z" transform="translate(528 792)"/><path class="st2" d="M-442-723v7l-5 2.5v1l6-3v-8z" transform="translate(528 792)"/><path class="st1" d="M-429-721.5l-6 3v-8l6-3z" transform="translate(528 792)"/><path class="st2" d="M-430-729v7l-5 2.5v1l6-3v-8z" transform="translate(528 792)"/><path class="st1" d="M-417-727.5l-6 3v-8l6-3z" transform="translate(528 792)"/><path class="st2" d="M-418-735v7l-5 2.5v1l6-3v-8z" transform="translate(528 792)"/><path class="st1" d="M-405-733.5l-6 3v-8l6-3z" transform="translate(528 792)"/><path class="st2" d="M-406-741v7l-5 2.5v1l6-3v-8z" transform="translate(528 792)"/><path class="st1" d="M-453-723.5l-6 3v-8l6-3z" transform="translate(528 792)"/><path class="st2" d="M-454-731v7l-5 2.5v1l6-3v-8z" transform="translate(528 792)"/><path class="st1" d="M-441-729.5l-6 3v-8l6-3z" transform="translate(528 792)"/><path class="st4" d="M-441-729.5l-6 3v-8z" transform="translate(528 792)"/><path class="st2" d="M-442-737v7l-5 2.5v1l6-3v-8z" transform="translate(528 792)"/><path class="st1" d="M-429-735.5l-6 3v-8l6-3z" transform="translate(528 792)"/><path class="st2" d="M-430-743v7l-5 2.5v1l6-3v-8z" transform="translate(528 792)"/><path class="st1" d="M-417-741.5l-6 3v-8l6-3z" transform="translate(528 792)"/><path class="st2" d="M-418-749v7l-5 2.5v1l6-3v-8z" transform="translate(528 792)"/><path class="st1" d="M-405-747.5l-6 3v-8l6-3z" transform="translate(528 792)"/><path class="st2" d="M-406-755v7l-5 2.5v1l6-3v-8z" transform="translate(528 792)"/><path class="st1" d="M-453-695.5l-6 3v-8l6-3z" transform="translate(528 792)"/><path class="st2" d="M-454-703v7l-5 2.5v1l6-3v-8z" transform="translate(528 792)"/><path class="st1" d="M-441-701.5l-6 3v-8l6-3z" transform="translate(528 792)"/><path class="st2" d="M-442-709v7l-5 2.5v1l6-3v-8z" transform="translate(528 792)"/><path class="st1" d="M-429-707.5l-6 3v-8l6-3z" transform="translate(528 792)"/><path class="st2" d="M-430-715v7l-5 2.5v1l6-3v-8z" transform="translate(528 792)"/><path class="st1" d="M-417-713.5l-6 3v-8l6-3z" transform="translate(528 792)"/><path class="st2" d="M-418-721v7l-5 2.5v1l6-3v-8z" transform="translate(528 792)"/><path class="st1" d="M-405-719.5l-6 3v-8l6-3z" transform="translate(528 792)"/><path class="st2" d="M-406-727v7l-5 2.5v1l6-3v-8z" transform="translate(528 792)"/><path class="st1" d="M-453-681.5l-6 3v-8l6-3z" transform="translate(528 792)"/><path class="st2" d="M-454-689v7l-5 2.5v1l6-3v-8z" transform="translate(528 792)"/><path class="st1" d="M-441-687.5l-6 3v-8l6-3z" transform="translate(528 792)"/><path class="st2" d="M-442-695v7l-5 2.5v1l6-3v-8z" transform="translate(528 792)"/><path class="st1" d="M-429-693.5l-6 3v-8l6-3z" transform="translate(528 792)"/><path class="st2" d="M-430-701v7l-5 2.5v1l6-3v-8z" transform="translate(528 792)"/><path class="st1" d="M-417-699.5l-6 3v-8l6-3z" transform="translate(528 792)"/><path class="st3" d="M-417-699.5l-6-5 6-3z" transform="translate(528 792)"/><path class="st2" d="M-418-707v7l-5 2.5v1l6-3v-8z" transform="translate(528 792)"/><path class="st1" d="M-405-705.5l-6 3v-8l6-3z" transform="translate(528 792)"/><path class="st3" d="M-405-709l-6-1.5 6-3z" transform="translate(528 792)"/><path class="st2" d="M-406-713v7l-5 2.5v1l6-3v-8z" transform="translate(528 792)"/><path class="st1" d="M-453-667.5l-6 3v-8l6-3z" transform="translate(528 792)"/><path class="st2" d="M-454-675v7l-5 2.5v1l6-3v-8z" transform="translate(528 792)"/><path class="st1" d="M-441-673.5l-6 3v-8l6-3z" transform="translate(528 792)"/><path class="st2" d="M-442-681v7l-5 2.5v1l6-3v-8z" transform="translate(528 792)"/><path class="st1" d="M-429-679.5l-6 3v-8l6-3z" transform="translate(528 792)"/><path class="st2" d="M-430-687v7l-5 2.5v1l6-3v-8z" transform="translate(528 792)"/><path class="st1" d="M-417-685.5l-6 3v-8l6-3z" transform="translate(528 792)"/><path class="st2" d="M-418-693v7l-5 2.5v1l6-3v-8z" transform="translate(528 792)"/><path class="st1" d="M-405-691.5l-6 3v-8l6-3z" transform="translate(528 792)"/><path class="st2" d="M-406-699v7l-5 2.5v1l6-3v-8z" transform="translate(528 792)"/><path class="st5" d="M-449-607.5l-2 1v-128l2-1zm-12 6l-3 1.5v-128l3-1.5zm24-12l-2 1v-128l2-1zm12-6l-2 1v-128l2-1zm12-6l-2 1v-128l2-1zm13-6.4l-3 1.4v-128l3-1.4z" transform="translate(528 792)"/><path class="st6" d="M-400-632l-64 32v-128l64-31.9z" transform="translate(528 792)"/><path class="st7" d="M-528-632l64 32v-128l-64-32z" transform="translate(528 792)"/><path opacity=".25" fill="#202426" d="M-512-760l48-24 48 24-48 24z" transform="translate(528 792)"/><path class="st6" d="M-464-782.3v-1.7l-48 24 1.7.9z" transform="translate(528 792)"/><path class="st7" d="M-464-782.3l46.3 23.2 1.7-.9-48-24z" transform="translate(528 792)"/><path class="st0" d="M-464-780l-24 12v2l12 6 24-12v-2z" transform="translate(528 792)"/><path class="st6" d="M-452-772l-24 12v-2l24-12z" transform="translate(528 792)"/><path class="st7" d="M-488-766l12 6v-2l-12-6z" transform="translate(528 792)"/><path class="st9" d="M-465-776c-2.8 0-5 1.1-5 2.5s2.2 2.5 5 2.5 5-1.1 5-2.5-2.2-2.5-5-2.5zm0 4c-1.7 0-3-.7-3-1.5s1.3-1.5 3-1.5 3 .7 3 1.5-1.3 1.5-3 1.5zm-10 1c-2.8 0-5 1.1-5 2.5s2.2 2.5 5 2.5 5-1.1 5-2.5-2.2-2.5-5-2.5zm0 4c-1.7 0-3-.7-3-1.5s1.3-1.5 3-1.5 3 .7 3 1.5-1.3 1.5-3 1.5z" transform="translate(528 792)"/><path class="st0" d="M-448-782l-16 8v16l20 10 16-8v-16z" transform="translate(528 792)"/><path class="st6" d="M-428-756l-16 8v-16l16-8z" transform="translate(528 792)"/><path class="st7" d="M-464-758l20 10v-16l-20-10z" transform="translate(528 792)"/><path class="st9" d="M-458-764v9l6 3v-9z" transform="translate(528 792)"/><path class="st2" d="M-457-755v-8.5l-1-.5v9l6 3v-.5z" transform="translate(528 792)"/></g></svg>