<svg xmlns="http://www.w3.org/2000/svg" width="131" height="128"><style>.st0{opacity:.3;enable-background:new}.st1{fill:#825012}.st2{fill:#539b00}.st3{opacity:.2;fill:#fff;enable-background:new}.st5{fill:#e5e5e5}.st6{opacity:6.000000e-02}.st6,.st7,.st8,.st9{enable-background:new}.st7{opacity:.39}.st8{opacity:.2}.st9{opacity:.4}.st10{fill:#fbd7c7}.st11{fill:#baa794}</style><g transform="translate(656 856)" id="i2151_1_"><ellipse class="st0" cx="-642.5" cy="-801" rx="7.5" ry="4"/><path class="st1" d="M-644-828v27c0 .6.7 1 1.5 1s1.5-.4 1.5-1v-27h-3z"/><circle class="st2" cx="-649.5" cy="-832.5" r="6.5"/><circle class="st2" cx="-645" cy="-841" r="9"/><path class="st1" d="M-642-812.6c2.6 0 3-.9 3-3.4v-8h1v10c0 1.7-1.3 3-3 3h-1v-1.6zm0-.6c-1.7 0-3-.4-3-2.1v-9.7h-1v10c0 1.7 1.3 3 3 3h1v-1.2zm-2-21c-1.7 0-3-.4-3-2.1v-2.7h-1v3c0 1.7 1.3 3 3 3h1v-1.2z"/><circle class="st2" cx="-637.5" cy="-825.5" r="7.5"/><circle class="st2" cx="-633" cy="-829" r="6"/><path class="st1" d="M-638-826.2c1.7 0 3-.4 3-2.1v-2.7h1v3c0 1.7-1.3 3-3 3h-1v-1.2zm-7-15.4h1v9.6h-1z"/><circle class="st2" cx="-636" cy="-839" r="8"/><circle class="st2" cx="-641" cy="-848" r="8"/><path class="st3" d="M-640.5-840c2.2 0 4.1 1.3 4.9 3.1.3-.1.7-.1 1.1-.1 1.8 0 3.4.9 4.4 2.2-.4-1.8-2-3.2-3.9-3.2h-.1c-.5-2.3-2.5-4-4.9-4-2 0-3.7 1.2-4.5 2.9.8-.6 1.9-.9 3-.9z"/><circle class="st2" cx="-650" cy="-840.6" r="3.6"/><path class="st3" d="M-650-840.5c0-2.5 1.7-4.6 4-5.3.2-2.9 2.6-5.2 5.5-5.2 1.7 0 3.3.8 4.3 2.1-.6-2.4-2.8-4.1-5.3-4.1-2.9 0-5.3 2.2-5.5 5.1-2.3.5-4 2.5-4 4.9 0 1.1.4 2.2 1 3v-.5z"/><circle class="st2" cx="-644.7" cy="-825.2" r="9.3"/><circle class="st2" cx="-632.7" cy="-831.2" r="3.3"/><path class="st0" d="M-627-829c0-.4 0-.8-.1-1.2-.6 3.8-3.9 6.7-7.9 6.7h-.4c.7.3 1.6.5 2.4.5.7 0 1.3-.1 1.9-.3-1.4 1.4-3.3 2.3-5.4 2.3-1 0-2-.2-2.9-.6-1.6 1.6-3.9 2.6-6.3 2.6-3.5 0-6.6-2-8.1-4.8.7 4.4 4.5 7.8 9.1 7.8 2.2 0 4.3-.8 5.9-2.1.4.1.8.1 1.3.1 3.5 0 6.5-2.4 7.3-5.7 1.9-1 3.2-3 3.2-5.3z"/><path class="st3" d="M-647.5-830c.8 0 1.5.1 2.2.4.9-1.4 2.5-2.4 4.3-2.4 1 0 1.9.3 2.7.8-.7-1.7-2.3-2.8-4.2-2.8-1.6 0-3 .8-3.8 2h-.7c-2.9 0-5.4 2.1-5.9 4.9 1.2-1.8 3.2-2.9 5.4-2.9z"/><path class="st0" d="M-652-829.5c-1.9-.8-3.4-2.4-3.9-4.5 0 .5-.1 1-.1 1.5 0 2.4 1.3 4.4 3.2 5.6.1-.9.4-1.8.8-2.6z"/></g><g transform="translate(664 896)" id="i2152_1_"><ellipse class="st0" cx="-642.5" cy="-817" rx="5.6" ry="3"/><path class="st1" d="M-642-830c.6 0 1 .4 1 1v12c0 .6-.4 1-1 1s-1-.4-1-1v-12c0-.6.4-1 1-1z"/><path class="st2" d="M-640.5-820c-1.4 0-2.5-1.1-2.5-2.5v-16c0-1.4 1.1-2.5 2.5-2.5s2.5 1.1 2.5 2.5v16c0 1.4-1.1 2.5-2.5 2.5z"/><path class="st2" d="M-637.5-825c-1.4 0-2.5-1.1-2.5-2.5v-16c0-1.4 1.1-2.5 2.5-2.5s2.5 1.1 2.5 2.5v16c0 1.4-1.1 2.5-2.5 2.5z"/><path class="st2" d="M-638.5-828c-1.4 0-2.5-1.1-2.5-2.5v-16c0-1.4 1.1-2.5 2.5-2.5s2.5 1.1 2.5 2.5v16c0 1.4-1.1 2.5-2.5 2.5z"/><path class="st2" d="M-640.8-855c-1.3.1-2.2 1.3-2.2 2.6 0 .3-.2.5-.5.4-.5-.1-1-.1-1.6.2-1.2.5-1.9 1.8-1.9 3.1v1.3c0 .2-.2.4-.4.4s-.4 0-.6.1c-1.2.2-2 1.3-2 2.5v15.8c0 .8.4 1.6 1 2.1s1 1.3 1 2.1v.9c0 1.4 1.1 2.5 2.5 2.5h1c1.4 0 2.5-1.1 2.5-2.5v-5.1c.6-.6 1-1.5 1-2.4v-8.1c.3.1.6.1 1 0 1.2-.2 2-1.4 2-2.6v-10.9c0-1.4-1.3-2.6-2.8-2.4z"/><path class="st2" d="M-642-828.6c.6-.6 1-1.5 1-2.4v-2c0 .9-.4 1.8-1 2.4v2z"/><path d="M-640.5-822c-1.1 0-2-.7-2.3-1.6-.4.4-1 .6-1.7.6h-1c-1.4 0-2.5-1.1-2.5-2.5v2c0 1.4 1.1 2.5 2.5 2.5h1c.6 0 1.2-.2 1.7-.6.4 1 1.3 1.6 2.3 1.6 1.4 0 2.5-1.1 2.5-2.5v-2c0 1.4-1.1 2.5-2.5 2.5zm3-5c-.2 0-.3 0-.5-.1v2c.2 0 .3.1.5.1 1.4 0 2.5-1.1 2.5-2.5v-2c0 1.4-1.1 2.5-2.5 2.5zm-3-4h-1c-.5.6-1.2 1-2 1-1.4 0-2.5-1.1-2.5-2.5v2c0 1.4 1.1 2.5 2.5 2.5.8 0 1.5-.4 2-1h1c1.4 0 2.5-1.1 2.5-2.5v-2c0 1.4-1.1 2.5-2.5 2.5zm0-8c-.2 0-.3 0-.5-.1v2c.2 0 .3.1.5.1 1.4 0 2.5-1.1 2.5-2.5v-2c0 1.4-1.1 2.5-2.5 2.5z"/><path class="st3" d="M-641-850c-1.1 0-2 .9-2 2v.3h-1.2c-1.1 0-2 .9-2 2v1.4c-.9.2-1.6 1-1.6 2v2c0-1 .7-1.8 1.6-2v-1.4c0-1.1.9-2 2-2h1.2v-.3c0-1.1.9-2 2-2s2 .9 2 2v-2c0-1.1-.9-2-2-2z"/><path class="st0" d="M-648-825.5v-.9c0-.8-.3-1.6-1-2.1-.6-.5-1-1.3-1-2.1v2c0 .8.4 1.6 1 2.1s1 1.3 1 2.1v-1.1z"/></g><g transform="translate(688 912)" id="i2153_1_"><ellipse class="st0" cx="-642.5" cy="-839" rx="6.5" ry="2"/><path class="st1" d="M-644-842h3v4h-3z"/><circle class="st2" cx="-637" cy="-843.9" r="3.8"/><circle class="st2" cx="-639.1" cy="-848.9" r="5.3"/><circle class="st2" cx="-644.4" cy="-845.4" r="5.3"/><circle class="st2" cx="-647.3" cy="-847.8" r="3.5"/><path class="st1" d="M-644.9-850.9c-1 0-1.8-.3-1.8-1.2v-1.5h-.6v1.8c0 1 .8 1.8 1.8 1.8h.6v-.9z"/><circle class="st2" cx="-645.1" cy="-844.1" r="5.7"/><path class="st0" d="M-645.1-839.8c-2.9 0-5.3-2.2-5.7-5v.7c0 3.2 2.6 5.7 5.7 5.7s5.7-2.6 5.7-5.7v-.7c-.4 2.8-2.8 5-5.7 5z"/><circle class="st2" cx="-643.2" cy="-851.3" r="4.7"/><circle class="st2" cx="-639.4" cy="-852.8" r="2.6"/><path class="st3" d="M-647.8-848.9c1.3 0 2.4.7 2.9 1.8.2 0 .4-.1.6-.1 1.1 0 2 .5 2.6 1.3-.2-1.1-1.2-1.9-2.3-1.9h-.1c-.3-1.3-1.5-2.4-2.9-2.4-1.2 0-2.2.7-2.7 1.7.6-.2 1.2-.4 1.9-.4z"/><path class="st1" d="M-643.2-850.5c.1.1.3.2.4.3h.2v-1.7c-.2 0-.4 0-.6-.1v1.5z"/><path class="st3" d="M-642.9-853.6c1.4 0 2.5 1.1 2.6 2.5.3-.1.6-.1.9-.1 1.5 0 2.7 1 3.1 2.3.1-.3.1-.5.1-.8 0-1.5-1.2-2.6-2.6-2.6-.3 0-.6.1-.9.2-.1-1.1-1-1.9-2-1.9-.6 0-1.1.2-1.5.6.1-.2.2-.2.3-.2z"/><path class="st0" d="M-633.8-848.1c-1 1.1-2.4 1.8-4 1.8h-.4c.6.6.9 1.4 1 2.3 1.8-.6 3.1-2.2 3.4-4.1zm-1.5 6c.2.4.3.9.3 1.4 1-.6 1.7-1.7 1.8-2.9-.5.7-1.2 1.3-2.1 1.5z"/><circle class="st2" cx="-639.8" cy="-843.8" r="5.4"/><path class="st3" d="M-642-845.4c.7 0 1.4.2 1.9.5.7-.7 1.7-1.1 2.8-1.1.9 0 1.8.3 2.5.8-.6-1.2-1.9-2-3.4-2-1 0-1.8.3-2.5.9-.4-.2-.9-.3-1.3-.3-1.4 0-2.6 1-2.9 2.4.8-.8 1.8-1.2 2.9-1.2z"/><path class="st0" d="M-639.2-839.5c-2.2 0-4.1-1.2-5.2-3-.2 0-.2 4.1 4.6 4.1 2.1 0 3.9-1.2 4.8-2.9-1.1 1.1-2.6 1.8-4.2 1.8z"/><path class="st1" d="M-640-848.6c0 1-.9 1.2-2 1.2v.4h.6c1 0 1.4-.4 1.4-1.4v-1.2 1z"/></g><g id="i2235_1_"><path class="st0" d="M-653-849.5l-4 2 14 7 4-2z" transform="translate(728 952)"/><path class="st5" d="M-652.2-855.3l-1-.5c-.1-.1-.3-.1-.4 0l-3.5 1.8c-.6.2-.9.8-.9 1.4v4.6l1 .5 4.7-2.9.1-4.9z" transform="translate(728 952)"/><path class="st5" d="M-657-847.5v-4.6c0-.6.3-1.2.9-1.4l3.5-1.8c.3-.1.6.1.6.4v4.9l-5 2.5z" transform="translate(728 952)"/><path class="st6" d="M-658-848l1 .5v-4.6l-1-.5z" transform="translate(728 952)"/><path class="st7" d="M-657-847.5v-4.6c0-.6.3-1.2.9-1.4l3.5-1.8c.3-.1.6.1.6.4v4.9l-5 2.5z" transform="translate(728 952)"/><path class="st1" d="M-652-853.5l-5 2.5v1l14 7v-1l5-2.5z" transform="translate(728 952)"/><path class="st6" d="M-643-844l-14-7v1l14 7z" transform="translate(728 952)"/><path class="st0" d="M-641.8-844.6l-14-7-.2.1 14 7zm1-.5l-14-7-.2.1 14 7zm1-.5l-14-7-.2.1 14 7zm1-.5l-14-7-.2.1 14 7z" transform="translate(728 952)"/><path class="st5" d="M-637.2-847.8l-1-.5c-.1-.1-.3-.1-.4 0l-3.5 1.8c-.5.3-.9.8-.9 1.4v4.6l1 .5 4.7-2.9.1-4.9z" transform="translate(728 952)"/><path class="st5" d="M-642-840v-4.6c0-.6.3-1.2.9-1.4l3.5-1.8c.3-.1.6.1.6.4v4.9l-5 2.5z" transform="translate(728 952)"/><path class="st6" d="M-643-840.5l1 .5v-4.6l-1-.5z" transform="translate(728 952)"/><path class="st7" d="M-642-840v-4.6c0-.6.3-1.2.9-1.4l3.5-1.8c.3-.1.6.1.6.4v4.9l-5 2.5z" transform="translate(728 952)"/></g><g id="i2236_1_"><path class="st0" d="M-653-849.5l-4 2 14 7 4-2z" transform="translate(760 968)"/><path class="st5" d="M-652.2-855.3l-1-.5c-.1-.1-.3-.1-.4 0l-3.5 1.8c-.6.2-.9.8-.9 1.4v4.6l1 .5 4.7-2.9.1-4.9z" transform="translate(760 968)"/><path class="st5" d="M-657-847.5v-4.6c0-.6.3-1.2.9-1.4l3.5-1.8c.3-.1.6.1.6.4v4.9l-5 2.5z" transform="translate(760 968)"/><path class="st6" d="M-658-848l1 .5v-4.6l-1-.5z" transform="translate(760 968)"/><path class="st7" d="M-657-847.5v-4.6c0-.6.3-1.2.9-1.4l3.5-1.8c.3-.1.6.1.6.4v4.9l-5 2.5z" transform="translate(760 968)"/><path class="st1" d="M-652-853.5l-5 2.5v1l14 7v-1l5-2.5z" transform="translate(760 968)"/><path class="st6" d="M-643-844l-14-7v1l14 7z" transform="translate(760 968)"/><path class="st0" d="M-641.8-844.6l-14-7-.2.1 14 7zm1-.5l-14-7-.2.1 14 7zm1-.5l-14-7-.2.1 14 7zm1-.5l-14-7-.2.1 14 7z" transform="translate(760 968)"/><path class="st5" d="M-637.2-847.8l-1-.5c-.1-.1-.3-.1-.4 0l-3.5 1.8c-.5.3-.9.8-.9 1.4v4.6l1 .5 4.7-2.9.1-4.9z" transform="translate(760 968)"/><path class="st5" d="M-642-840v-4.6c0-.6.3-1.2.9-1.4l3.5-1.8c.3-.1.6.1.6.4v4.9l-5 2.5z" transform="translate(760 968)"/><path class="st6" d="M-643-840.5l1 .5v-4.6l-1-.5z" transform="translate(760 968)"/><path class="st7" d="M-642-840v-4.6c0-.6.3-1.2.9-1.4l3.5-1.8c.3-.1.6.1.6.4v4.9l-5 2.5z" transform="translate(760 968)"/></g><g transform="translate(744 960)" id="i2237_1_"><path class="st5" d="M-650-852c-1.7 0-3 .7-3 1.5v6c0 .8 1.3 1.5 3 1.5s3-.7 3-1.5v-6c0-.8-1.3-1.5-3-1.5z"/><path class="st8" d="M-650-849c-1.7 0-3-.7-3-1.5v6c0 .8 1.3 1.5 3 1.5s3-.7 3-1.5v-6c0 .8-1.3 1.5-3 1.5z"/><ellipse class="st9" cx="-650" cy="-850.5" rx="2.3" ry=".9"/></g><g transform="translate(736 896)" id="i2239_1_"><ellipse class="st0" cx="-641.5" cy="-801" rx="7.5" ry="4"/><path class="st1" d="M-640-825v24c0 .6-.7 1-1.5 1s-1.5-.4-1.5-1v-24h3z"/><circle class="st2" cx="-632.5" cy="-826.5" r="6.5"/><circle class="st2" cx="-636" cy="-835" r="9"/><path class="st1" d="M-642-812.6c-2.6 0-3-.9-3-3.4v-8h-1v10c0 1.7 1.3 3 3 3h1v-1.6zm1 1.4c1.7 0 3-.4 3-2.1v-9.7h1v10c0 1.7-1.3 3-3 3h-1v-1.2z"/><path class="st1" d="M-645-814.2c-1.7 0-2-1.3-2-2.1v-9.7h-1v10c0 1.7 1.3 3 3 3v-1.2z"/><circle class="st2" cx="-646" cy="-825" r="9"/><circle class="st2" cx="-651" cy="-829" r="6"/><path class="st1" d="M-646-825.2c-1.7 0-3-.4-3-2.1v-2.7h-1v3c0 1.7 1.3 3 3 3h1v-1.2z"/><circle class="st2" cx="-647" cy="-837" r="8"/><circle class="st2" cx="-643" cy="-841" r="8"/><circle class="st2" cx="-636.5" cy="-843.5" r="4.5"/><path class="st3" d="M-650.9-835c2.2 0 4.1 1.3 4.9 3.1.3-.1.7-.1 1.1-.1 1.8 0 3.4.9 4.4 2.2-.4-1.8-2-3.2-3.9-3.2h-.1c-.5-2.3-2.5-4-4.9-4-2 0-3.7 1.2-4.5 2.9.8-.6 1.9-.9 3-.9z"/><path class="st1" d="M-643-837.6c.2.2.5.4.7.6h.3v-3c-.3 0-.7-.1-1-.2v2.6z"/><path class="st3" d="M-642.5-845c2.4 0 4.3 1.9 4.5 4.2.5-.1 1-.2 1.5-.2 2.5 0 4.6 1.6 5.3 3.9.1-.4.2-.9.2-1.4 0-2.5-2-4.5-4.5-4.5-.5 0-1 .1-1.5.3-.1-1.8-1.6-3.3-3.5-3.3-1 0-1.9.4-2.5 1h.5z"/><path class="st0" d="M-627.1-833.6c-1.7 1.9-4.1 3.1-6.8 3.1h-.6c1 1.1 1.6 2.4 1.7 3.9 2.9-1.1 5.2-3.8 5.7-7zm-2.4 10.3c.3.7.4 1.5.5 2.3 1.7-1.1 2.9-2.9 3-5-.8 1.3-2.1 2.2-3.5 2.7zm-21.8-11.7c-1.6-1.4-2.7-3.5-2.7-5.9-.6 1.1-1 2.5-1 3.9 0 1.1.2 2.1.6 3.1.9-.7 2-1 3.1-1.1z"/><path class="st1" d="M-636-833.4c0 1.7-1.3 2.1-3 2.1v1.3h1c1.7 0 3-1.3 3-3v-2c-.3 0-.7-.1-1-.2v1.8z"/><circle class="st2" cx="-638.2" cy="-822.2" r="9.3"/><path class="st3" d="M-642-825c1.2 0 2.3.3 3.3.8 1.2-1.1 2.9-1.8 4.7-1.8 1.6 0 3.1.5 4.2 1.4-1.1-2-3.3-3.4-5.7-3.4-1.6 0-3.1.6-4.2 1.6-.7-.4-1.5-.6-2.3-.6-2.4 0-4.4 1.7-4.9 4 1.3-1.2 3-2 4.9-2z"/><path class="st0" d="M-637.2-815c-3.8 0-7-2-8.8-5h-.9c-3.5 0-6.5-2-8-4.9 0 4.9 4 8.9 8.9 8.9h.9c1.7 1.9 4.1 3 6.8 3 3.6 0 6.6-2 8.2-4.9-1.8 1.8-4.4 2.9-7.1 2.9z"/></g><g id="i2240_1_"><path class="st0" d="M-653-849.5l-4 2 14 7 4-2z" transform="translate(768 944)"/><path class="st5" d="M-652.2-855.3l-1-.5c-.1-.1-.3-.1-.4 0l-3.5 1.8c-.6.2-.9.8-.9 1.4v4.6l1 .5 4.7-2.9.1-4.9z" transform="translate(768 944)"/><path class="st5" d="M-657-847.5v-4.6c0-.6.3-1.2.9-1.4l3.5-1.8c.3-.1.6.1.6.4v4.9l-5 2.5z" transform="translate(768 944)"/><path class="st6" d="M-658-848l1 .5v-4.6l-1-.5z" transform="translate(768 944)"/><path class="st7" d="M-657-847.5v-4.6c0-.6.3-1.2.9-1.4l3.5-1.8c.3-.1.6.1.6.4v4.9l-5 2.5z" transform="translate(768 944)"/><path class="st1" d="M-652-853.5l-5 2.5v1l14 7v-1l5-2.5z" transform="translate(768 944)"/><path class="st6" d="M-643-844l-14-7v1l14 7z" transform="translate(768 944)"/><path class="st0" d="M-641.8-844.6l-14-7-.2.1 14 7zm1-.5l-14-7-.2.1 14 7zm1-.5l-14-7-.2.1 14 7zm1-.5l-14-7-.2.1 14 7z" transform="translate(768 944)"/><path class="st5" d="M-637.2-847.8l-1-.5c-.1-.1-.3-.1-.4 0l-3.5 1.8c-.5.3-.9.8-.9 1.4v4.6l1 .5 4.7-2.9.1-4.9z" transform="translate(768 944)"/><path class="st5" d="M-642-840v-4.6c0-.6.3-1.2.9-1.4l3.5-1.8c.3-.1.6.1.6.4v4.9l-5 2.5z" transform="translate(768 944)"/><path class="st6" d="M-643-840.5l1 .5v-4.6l-1-.5z" transform="translate(768 944)"/><path class="st7" d="M-642-840v-4.6c0-.6.3-1.2.9-1.4l3.5-1.8c.3-.1.6.1.6.4v4.9l-5 2.5z" transform="translate(768 944)"/></g><g transform="translate(760 928)" id="i2241_1_"><path class="st5" d="M-650-852c-1.7 0-3 .7-3 1.5v6c0 .8 1.3 1.5 3 1.5s3-.7 3-1.5v-6c0-.8-1.3-1.5-3-1.5z"/><path class="st8" d="M-650-849c-1.7 0-3-.7-3-1.5v6c0 .8 1.3 1.5 3 1.5s3-.7 3-1.5v-6c0 .8-1.3 1.5-3 1.5z"/><ellipse class="st9" cx="-650" cy="-850.5" rx="2.3" ry=".9"/></g><g id="i2332_1_"><path class="st8" d="M-6513.4-8350.7c-11.2 7.2-11.7 13.7 0 19.9 12.8 6.9 21.3 3.1 31.3-2.5s11.2-12.7-3.5-18.6c-11.9-4.7-19.4-4.2-27.8 1.2z" transform="matrix(.1 0 0 .1 728 944)"/><path class="st10" d="M-6512.4-8382.9c.5 6 1.5 16 1.2 22.4-.3 7-1.1 11-2 15-.9 4.2-6.2 7.7-2.4 8.7 3.8.9 8.8-.9 10.2-5.1 1.4-4.2 7-9.6 7.5-11.4s-3.8-4.5-3.9-7.5c-.1-3 .8-9.3 2.4-14.6 1.6-5.3.8-7.9.8-7.9l-13.8.4z" transform="matrix(.1 0 0 .1 728 944)"/><path class="st11" d="M-6512.2-8353.4s5 1.4 7.7-.4c2.6-1.8 3.5-5.1 3.5-5.1s3 2.1 3.5 5.1-1.3 9.3-1.3 9.3l-2 2-3.1-1s-1.1 5.7-4.3 7.5c-3.5 1.9-9.8 1-10.2-.8-.7-3.2 2.4-4.2 3.7-6.3 1.3-2.1 2.5-10.3 2.5-10.3z" transform="matrix(.1 0 0 .1 728 944)"/><path class="st9" d="M-6518.4-8337.4c0 .2 0 .4.1.6.4 1.8 6.7 2.7 10.2.8 3.3-1.8 4.3-7.5 4.3-7.5l3.1 1 2-2s1.3-4.6 1.4-7.9c-.4.8-1.1 1.5-2.1 2.1-3.4 2-3.9 3.3-5.1 6.7-1.1 3-1.6 6.1-5.7 7.2-2.5.8-6.3.3-8.2-1z" transform="matrix(.1 0 0 .1 728 944)"/><path class="st10" d="M-6497.8-8380.1c0 2 1.6 16.8 1.2 22-.4 5.2-1.1 12.5-3.2 16.4-2.1 3.9-7.1 6.8-4.2 8.4 2.9 1.6 10.1 1.8 12.2-2.8 2.1-4.6 8-12.5 6.7-14.6-1.3-2.1-3.5-4.3-2.4-10.2 1.2-5.9 4.7-14.6 5.1-16.9.3-2.3-15.4-2.3-15.4-2.3z" transform="matrix(.1 0 0 .1 728 944)"/><path class="st1" d="M-6499.7-8459.5l4.5 2s-2.4 3.5-2.2 8.1c.2 4.6 3.5 5.2 3.1 11.4-.4 6.2-2.6 8.8-4.7 11.9-1.9 2.8-14 13.3-15 18.4-1.4 7.1-.5 32.3 0 33.2s10.6 5.1 20.1 6.6c9.6 1.4 14.8-3.7 14.8-3.7s1.7-13.9 2-16.5c.3-2.6.3-4.5 5.1-5.9 4.9-1.4 18.4-6 20.3-17.7 2-11.7-1.5-19.7-4.1-25.5-2.6-5.8.2-23.5-.5-27.8-.7-4.3-3-7.1-9.4-9.6-5.7-2.3-13.1-4.1-18.5-4.3-5.4-.3-11.7-1.5-13.4 7.1-1.4 8.1-2.1 12.3-2.1 12.3z" transform="matrix(.1 0 0 .1 728 944)"/><path class="st10" d="M-6469.3-8451.2l10 .6s-.8 16.5-1.2 18.5-2 4.5-6.3 11c-3.8 5.8-12.6 13.8-13.4 15.7-.8 2-2.1 4-4.5 4.9-2.4.9-3.3 1.6-4.4 3-1 1.3-2.8 3-5.8 2.2s-4.1-2.8-2.3-5.1c1.8-2.4 3.5-6 5.2-6.5s5.1-.8 5.9-1.2c1.2-.6 5.2-5.9 6.7-9.8 3.3-9.1 9.3-13.8 9.8-16.9.6-3.1.3-16.4.3-16.4z" transform="matrix(.1 0 0 .1 728 944)"/><path d="M-6469.1-8442.7l-.4-12.2s-3.8 13.5-10.2 12.2c-6.4-1.3-5.9-13.8-5.9-13.8s-3.3 8.8-7.9 9.4c-1.8.3-2.9-.1-3.6-.6.6 2.3 2.1 3.6 2.7 6.3 3.6 1.3 7.3-4.9 7.3-4.9s.5 8.3 7.5 8.7c6.8.4 10.5-5.1 10.5-5.1z" opacity=".15" transform="matrix(.1 0 0 .1 728 944)"/><path class="st11" d="M-6498.2-8348.3s3.8 1.4 6.2 0c2.4-1.4 4.7-6.7 4.7-6.7s2.8 1.2 2.8 5.1c-.1 3.9-.7 4.7-.7 6.4s.3 3 .3 3l-1.6 1.6-3.1-.8s-1.1 6.1-4 8c-3.9 2.7-10.5 1.4-12.3-.5-1-1.1-.8-3.3 1.7-5 2.4-1.7 4.5-5.2 4.9-6.7l1.1-4.4z" transform="matrix(.1 0 0 .1 728 944)"/><path class="st9" d="M-6489.6-8339.7l3.1.8 1.6-1.6s-.3-1.3-.3-3c0-1.6.6-2.4.7-6.4v-.4c-1.1 3-3 4.4-5.1 8.2-1.9 3.5-1.2 7.9-6.3 10.2-3.6 1.7-8.8-.3-10.4-1.4.1.4.3.7.5.9 1.8 1.9 8.4 3.1 12.3.5 2.8-1.7 3.9-7.8 3.9-7.8z" transform="matrix(.1 0 0 .1 728 944)"/><path class="st10" d="M-6474.2-8504.6c-6.7-1.8-13 1.8-14.2 10.2-1.2 8.4.1 16 2.4 17.7s2.9 3.7 2.8 5.5c-.1 1.8-.8 4.3-.8 4.3s9.1-4.2 12.2-5.1c3.1-.9 5-1.8 5-1.8s-3.7-4-3.4-8.1c.1-1.9 9.5-19-4-22.7z" transform="matrix(.1 0 0 .1 728 944)"/><path d="M-6488.8-8495.9c.9 1.3 9.4-.8 10.2 2 2.2 7.2 6.8 7.3 6.8 7.3s1-3.1 2.3-2.6.7 2.2.2 3.7c-.6 1.6-1.3 2.8.2 3 3 .5 8-11 5.5-17.5-2.5-6.6-8.3-6.1-8.3-6.1s-6.1-4.9-12.3-.1c-5.9 4.5-5.4 9.1-4.6 10.3z" fill="#999" transform="matrix(.1 0 0 .1 728 944)"/><path class="st10" d="M-6499.1-8459.2l3.8 1.6s-2.4 6.3-2 8.8c.5 2.7 2.1 5.4 2.1 5.4s.6 1.1-.1 4.5c-.4 1.8-1.1 6.2-3.1 11.4-2.1 5.2-5.1 10-5.3 11.7-.1 1.7-.4 2.1-1.6 3.5-1.2 1.4-2.9 1.4-3.1 2.4-.2 1 .1 3.9-.8 5.1-.9 1.2-4.4 1.3-4.8 1s-1.9-6.7-1.1-8.1c.8-1.4 4.5-2.5 5.1-3.9.7-1.4 3.3-11.3 4.1-15.3.8-3.9 1.4-10.4 3.5-15.4 2.1-4.9 3.3-12.7 3.3-12.7z" transform="matrix(.1 0 0 .1 728 944)"/></g></svg>