<svg xmlns="http://www.w3.org/2000/svg" width="99.8" height="93"><style>.st0{opacity:.3;enable-background:new}.st1{fill:#e5e5e5}.st2,.st3{opacity:6.000000e-02;enable-background:new}.st3{opacity:.39}.st4{fill:#825012}.st5,.st6{opacity:.2;enable-background:new}.st6{opacity:.4}.st7{fill:#999}.st8{fill:#fc0}.st10{opacity:.2;fill:#fff;enable-background:new}.st11{fill:#539b00}.st12{fill:#262626}.st13{fill:#fff}.st14{fill:#06547a}.st15{fill:#fbd7c7}.st16{fill:#cc291f}.st17{fill:#baa794}</style><g id="i1773_1_"><path class="st0" d="M-1122.2-449.5l-4 2 14 7 4-2z" transform="translate(1184 520)"/><path class="st1" d="M-1121.4-455.3l-1-.5c-.1-.1-.3-.1-.4 0l-3.5 1.8c-.6.2-.9.8-.9 1.4v4.6l1 .5 4.7-2.9.1-4.9z" transform="translate(1184 520)"/><path class="st1" d="M-1126.2-447.5v-4.6c0-.6.3-1.2.9-1.4l3.5-1.8c.3-.1.6.1.6.4v4.9l-5 2.5z" transform="translate(1184 520)"/><path class="st2" d="M-1127.2-448l1 .5v-4.6l-1-.5z" transform="translate(1184 520)"/><path class="st3" d="M-1126.2-447.5v-4.6c0-.6.3-1.2.9-1.4l3.5-1.8c.3-.1.6.1.6.4v4.9l-5 2.5z" transform="translate(1184 520)"/><path class="st4" d="M-1121.2-453.5l-5 2.5v1l14 7v-1l5-2.5z" transform="translate(1184 520)"/><path class="st2" d="M-1112.2-444l-14-7v1l14 7z" transform="translate(1184 520)"/><path class="st0" d="M-1111-444.6l-14-7-.2.1 14 7zm1-.5l-14-7-.2.1 14 7zm1-.5l-14-7-.2.1 14 7zm1-.5l-14-7-.2.1 14 7z" transform="translate(1184 520)"/><path class="st1" d="M-1106.4-447.8l-1-.5c-.1-.1-.3-.1-.4 0l-3.5 1.8c-.5.3-.9.8-.9 1.4v4.6l1 .5 4.7-2.9.1-4.9z" transform="translate(1184 520)"/><path class="st1" d="M-1111.2-440v-4.6c0-.6.3-1.2.9-1.4l3.5-1.8c.3-.1.6.1.6.4v4.9l-5 2.5z" transform="translate(1184 520)"/><path class="st2" d="M-1112.2-440.5l1 .5v-4.6l-1-.5z" transform="translate(1184 520)"/><path class="st3" d="M-1111.2-440v-4.6c0-.6.3-1.2.9-1.4l3.5-1.8c.3-.1.6.1.6.4v4.9l-5 2.5z" transform="translate(1184 520)"/></g><g id="i1772_1_"><path class="st0" d="M-1122.2-449.5l-4 2 14 7 4-2z" transform="translate(1200 528)"/><path class="st1" d="M-1121.4-455.3l-1-.5c-.1-.1-.3-.1-.4 0l-3.5 1.8c-.6.2-.9.8-.9 1.4v4.6l1 .5 4.7-2.9.1-4.9z" transform="translate(1200 528)"/><path class="st1" d="M-1126.2-447.5v-4.6c0-.6.3-1.2.9-1.4l3.5-1.8c.3-.1.6.1.6.4v4.9l-5 2.5z" transform="translate(1200 528)"/><path class="st2" d="M-1127.2-448l1 .5v-4.6l-1-.5z" transform="translate(1200 528)"/><path class="st3" d="M-1126.2-447.5v-4.6c0-.6.3-1.2.9-1.4l3.5-1.8c.3-.1.6.1.6.4v4.9l-5 2.5z" transform="translate(1200 528)"/><path class="st4" d="M-1121.2-453.5l-5 2.5v1l14 7v-1l5-2.5z" transform="translate(1200 528)"/><path class="st2" d="M-1112.2-444l-14-7v1l14 7z" transform="translate(1200 528)"/><path class="st0" d="M-1111-444.6l-14-7-.2.1 14 7zm1-.5l-14-7-.2.1 14 7zm1-.5l-14-7-.2.1 14 7zm1-.5l-14-7-.2.1 14 7z" transform="translate(1200 528)"/><path class="st1" d="M-1106.4-447.8l-1-.5c-.1-.1-.3-.1-.4 0l-3.5 1.8c-.5.3-.9.8-.9 1.4v4.6l1 .5 4.7-2.9.1-4.9z" transform="translate(1200 528)"/><path class="st1" d="M-1111.2-440v-4.6c0-.6.3-1.2.9-1.4l3.5-1.8c.3-.1.6.1.6.4v4.9l-5 2.5z" transform="translate(1200 528)"/><path class="st2" d="M-1112.2-440.5l1 .5v-4.6l-1-.5z" transform="translate(1200 528)"/><path class="st3" d="M-1111.2-440v-4.6c0-.6.3-1.2.9-1.4l3.5-1.8c.3-.1.6.1.6.4v4.9l-5 2.5z" transform="translate(1200 528)"/></g><g transform="translate(1216 536)" id="i1414_1_"><path class="st1" d="M-1119.2-452c-1.7 0-3 .7-3 1.5v6c0 .8 1.3 1.5 3 1.5s3-.7 3-1.5v-6c0-.8-1.3-1.5-3-1.5z"/><path class="st5" d="M-1119.2-449c-1.7 0-3-.7-3-1.5v6c0 .8 1.3 1.5 3 1.5s3-.7 3-1.5v-6c0 .8-1.3 1.5-3 1.5z"/><ellipse class="st6" cx="-1119.2" cy="-450.5" rx="2.3" ry=".9"/></g><g transform="translate(1152 472)" id="i1415_1_"><ellipse class="st7" cx="-1119.2" cy="-421.7" rx="1.5" ry=".8"/><path class="st7" d="M-1119.2-449l4-2-4-4-4 4zm1 3.7h-2v23.5c0 .3.4.5 1 .5s1-.2 1-.5v-23.5z"/><path class="st5" d="M-1118.2-445.3h-2v23.5c0 .3.4.5 1 .5s1-.2 1-.5v-23.5z"/><path class="st7" d="M-1119.2-421c-.8 0-1.5-.3-1.5-.8v10c0 .5.7.8 1.5.8s1.5-.3 1.5-.8v-10c0 .5-.7.8-1.5.8z"/><path class="st5" d="M-1119.2-421c-.8 0-1.5-.3-1.5-.8v10c0 .5.7.8 1.5.8s1.5-.3 1.5-.8v-10c0 .5-.7.8-1.5.8z"/><path class="st7" d="M-1119.2-449l-4-2 2 7 2 1 2-1 2-7z"/><path class="st8" d="M-1118.7-448.7l2.7-1.3-1.6 5.7-1.1.5z"/><path opacity=".15" d="M-1118.2-449l2.2-1-1.6 5.7z"/><path class="st8" d="M-1120.8-444.3l-1.6-5.7 2.7 1.3v4.9z"/><path class="st10" d="M-1120.8-444.3l-1.6-5.7 2.7 6.2z"/><path class="st3" d="M-1119.2-443l2-1 2-7-4 2z"/><path class="st2" d="M-1119.2-443l-2-1-2-7 4 2z"/><circle class="st7" cx="-1119.2" cy="-455" r="1"/></g><g transform="translate(1168 456)" id="i1416_1_"><ellipse class="st0" cx="-1111.7" cy="-401" rx="7.5" ry="4"/><path class="st4" d="M-1113.2-428v27c0 .6.7 1 1.5 1s1.5-.4 1.5-1v-27h-3z"/><circle class="st11" cx="-1118.7" cy="-432.5" r="6.5"/><circle class="st11" cx="-1114.2" cy="-441" r="9"/><path class="st4" d="M-1111.2-412.6c2.6 0 3-.9 3-3.4v-8h1v10c0 1.7-1.3 3-3 3h-1v-1.6zm0-.6c-1.7 0-3-.4-3-2.1v-9.7h-1v10c0 1.7 1.3 3 3 3h1v-1.2zm-2-21c-1.7 0-3-.4-3-2.1v-2.7h-1v3c0 1.7 1.3 3 3 3h1v-1.2z"/><circle class="st11" cx="-1106.7" cy="-425.5" r="7.5"/><circle class="st11" cx="-1102.2" cy="-429" r="6"/><path class="st4" d="M-1107.2-426.2c1.7 0 3-.4 3-2.1v-2.7h1v3c0 1.7-1.3 3-3 3h-1v-1.2zm-7-15.4h1v9.6h-1z"/><circle class="st11" cx="-1105.2" cy="-439" r="8"/><circle class="st11" cx="-1110.2" cy="-448" r="8"/><path class="st10" d="M-1109.7-440c2.2 0 4.1 1.3 4.9 3.1.3-.1.7-.1 1.1-.1 1.8 0 3.4.9 4.4 2.2-.4-1.8-2-3.2-3.9-3.2h-.1c-.5-2.3-2.5-4-4.9-4-2 0-3.7 1.2-4.5 2.9.8-.6 1.9-.9 3-.9z"/><circle class="st11" cx="-1119.2" cy="-440.6" r="3.6"/><path class="st10" d="M-1119.2-440.5c0-2.5 1.7-4.6 4-5.3.2-2.9 2.6-5.2 5.5-5.2 1.7 0 3.3.8 4.3 2.1-.6-2.4-2.8-4.1-5.3-4.1-2.9 0-5.3 2.2-5.5 5.1-2.3.5-4 2.5-4 4.9 0 1.1.4 2.2 1 3v-.5z"/><circle class="st11" cx="-1113.9" cy="-425.2" r="9.3"/><circle class="st11" cx="-1101.9" cy="-431.2" r="3.3"/><path class="st0" d="M-1096.2-429c0-.4 0-.8-.1-1.2-.6 3.8-3.9 6.7-7.9 6.7h-.4c.7.3 1.6.5 2.4.5.7 0 1.3-.1 1.9-.3-1.4 1.4-3.3 2.3-5.4 2.3-1 0-2-.2-2.9-.6-1.6 1.6-3.9 2.6-6.3 2.6-3.5 0-6.6-2-8.1-4.8.7 4.4 4.5 7.8 9.1 7.8 2.2 0 4.3-.8 5.9-2.1.4.1.8.1 1.3.1 3.5 0 6.5-2.4 7.3-5.7 1.9-1 3.2-3 3.2-5.3z"/><path class="st10" d="M-1116.7-430c.8 0 1.5.1 2.2.4.9-1.4 2.5-2.4 4.3-2.4 1 0 1.9.3 2.7.8-.7-1.7-2.3-2.8-4.2-2.8-1.6 0-3 .8-3.8 2h-.7c-2.9 0-5.4 2.1-5.9 4.9 1.2-1.8 3.2-2.9 5.4-2.9z"/><path class="st0" d="M-1121.2-429.5c-1.9-.8-3.4-2.4-3.9-4.5 0 .5-.1 1-.1 1.5 0 2.4 1.3 4.4 3.2 5.6.1-.9.4-1.8.8-2.6z"/></g><g transform="translate(1120 496)" id="i1418_1_"><ellipse class="st0" cx="-1111.7" cy="-439" rx="6.5" ry="2"/><path class="st4" d="M-1113.2-442h3v4h-3z"/><circle class="st11" cx="-1106.2" cy="-443.9" r="3.8"/><circle class="st11" cx="-1108.3" cy="-448.9" r="5.3"/><circle class="st11" cx="-1113.6" cy="-445.4" r="5.3"/><circle class="st11" cx="-1116.5" cy="-447.8" r="3.5"/><path class="st4" d="M-1114.1-450.9c-1 0-1.8-.3-1.8-1.2v-1.5h-.6v1.8c0 1 .8 1.8 1.8 1.8h.6v-.9z"/><circle class="st11" cx="-1114.3" cy="-444.1" r="5.7"/><path class="st0" d="M-1114.3-439.8c-2.9 0-5.3-2.2-5.7-5v.7c0 3.2 2.6 5.7 5.7 5.7s5.7-2.6 5.7-5.7v-.7c-.4 2.8-2.8 5-5.7 5z"/><circle class="st11" cx="-1112.4" cy="-451.3" r="4.7"/><circle class="st11" cx="-1108.6" cy="-452.8" r="2.6"/><path class="st10" d="M-1117-448.9c1.3 0 2.4.7 2.9 1.8.2 0 .4-.1.6-.1 1.1 0 2 .5 2.6 1.3-.2-1.1-1.2-1.9-2.3-1.9h-.1c-.3-1.3-1.5-2.4-2.9-2.4-1.2 0-2.2.7-2.7 1.7.6-.2 1.2-.4 1.9-.4z"/><path class="st4" d="M-1112.4-450.5c.1.1.3.2.4.3h.2v-1.7c-.2 0-.4 0-.6-.1v1.5z"/><path class="st10" d="M-1112.1-453.6c1.4 0 2.5 1.1 2.6 2.5.3-.1.6-.1.9-.1 1.5 0 2.7 1 3.1 2.3.1-.3.1-.5.1-.8 0-1.5-1.2-2.6-2.6-2.6-.3 0-.6.1-.9.2-.1-1.1-1-1.9-2-1.9-.6 0-1.1.2-1.5.6.1-.2.2-.2.3-.2z"/><path class="st0" d="M-1103-448.1c-1 1.1-2.4 1.8-4 1.8h-.4c.6.6.9 1.4 1 2.3 1.8-.6 3.1-2.2 3.4-4.1zm-1.5 6c.2.4.3.9.3 1.4 1-.6 1.7-1.7 1.8-2.9-.5.7-1.2 1.3-2.1 1.5z"/><circle class="st11" cx="-1109" cy="-443.8" r="5.4"/><path class="st10" d="M-1111.2-445.4c.7 0 1.4.2 1.9.5.7-.7 1.7-1.1 2.8-1.1.9 0 1.8.3 2.5.8-.6-1.2-1.9-2-3.4-2-1 0-1.8.3-2.5.9-.4-.2-.9-.3-1.3-.3-1.4 0-2.6 1-2.9 2.4.8-.8 1.8-1.2 2.9-1.2z"/><path class="st0" d="M-1108.4-439.5c-2.2 0-4.1-1.2-5.2-3-.2 0-.2 4.1 4.6 4.1 2.1 0 3.9-1.2 4.8-2.9-1.1 1.1-2.6 1.8-4.2 1.8z"/><path class="st4" d="M-1109.2-448.6c0 1-.9 1.2-2 1.2v.4h.6c1 0 1.4-.4 1.4-1.4v-1.2 1z"/></g><g id="i1425_1_"><path class="st5" d="M-11250.9-4424.4c8.8 4.6 19.7 1.3 24.8-1.3 5.1-2.6 8.3-.3 9.5 1.9 1.2 2.2 3.3 10 9.1 12.3s12.3 2.3 19.7-5c7.5-7.3 14.5-5.5 18.6-3.5 4.1 2 8 8.2 9.7 9.1 1.8.9 1.1-2.8 3.4-1.8 2.4 1.1 8.5 5.1 12 2.7 3.4-2.5-4.7-7.5-9.8-9.8-24.6-11-9-14.8-20.3-22.6-11.3-7.8-20.3 2.7-28.3-2.6s-17-3.4-24.7 1.4c-7.7 4.8-36.9 12.3-23.7 19.2z" transform="matrix(.1 0 0 .1 1168 504)"/><path class="st12" d="M-11217.4-4431c-3.6 2.1-12.3 6.9-16.2 7.3-4.8.5-7.4-1.6-8.3-5.1-1.4-5.2 18.2-13.5 18.2-13.5l6.3 11.3z" transform="matrix(.1 0 0 .1 1168 504)"/><path class="st13" d="M-11219.2-4432.3c-4.5 2-12.3 7.5-16.9 6-4.5-1.6-4.6-4.4-3.4-6.7 2.4-4.6 17.4-7.2 17.4-7.2l2.9 7.9z" transform="matrix(.1 0 0 .1 1168 504)"/><path class="st12" d="M-11225-4438.2c1.7-.2 1.3 2.9.4 3.9s-7.6 4.5-11.5 6.1c-3.9 1.6-10.3 3-13.5 2.5-3.2-.5-3.4-3.7-1.9-4.9 1.6-1.2 6.4-2.4 9.2-5.7 2-2.4 4.6-6.5 4.6-6.5l12.7 4.6z" transform="matrix(.1 0 0 .1 1168 504)"/><path class="st13" d="M-11226.9-4436.9c-2.1 1-7.6 4.6-12.4 6.1s-9.6 2.2-11.6.9c-1.3-.9 3.8-1.7 6.5-4 3.8-3.1 5.1-6.6 5.1-6.6l12.4 3.6z" transform="matrix(.1 0 0 .1 1168 504)"/><path class="st14" d="M-11213.5-4448.9c-3-.3-8.1 1.1-9.9 6.2-1.8 5.1-1.2 9.7 1 10.6 2.2.9 3.5.1 4.4 1.5s3.3 7 4.5 10.1 3.2 6.4 5.5 8 6.2 2.7 10.2.4c4-2.4 8-6.5 11.6-8.8 4.7-3 14.9-12.6 17.2-16.3 2.3-3.7 2.1-6.2 2.1-6.2l-24.4-10.8s-9.5 9.1-9.7 10.2 2.2 3.3 1.9 4.6c-.3 1.3-.6 2-.6 2s-7.7-10.9-13.8-11.5z" transform="matrix(.1 0 0 .1 1168 504)"/><path class="st14" d="M-11191.7-4451.8l-9 8.1s-2.3-1.2-3.7-3c-1.6-2.1-5.7-12.6-5.7-12.6s-3.6 7-4.7 9.8c-1.1 2.8-7.6 8.8-7.8 10.5-.2 1.7-.1 3.4-1.9 3.6-1.8.2-14.1-.2-16.6-1.8-1.9-1.2-.7-5.1 2.5-7.1 2-1.3 2.8-3.3 3.8-6.2 1-2.8 3.7-4.9 5.5-8.6 1.8-3.7 7.3-20.2 9.3-24.4 2-4 6.5-9.2 13-4.9 6.8 4.5 7.9 5.7 11.6 10.2 3.5 4.2 7.3 9.2 7.3 9.2l-3.6 17.2z" transform="matrix(.1 0 0 .1 1168 504)"/><path class="st5" d="M-11191.7-4451.8l-9 8.1s-2.3-1.2-3.7-3c-1.6-2.1-5.7-12.6-5.7-12.6s-3.6 7-4.7 9.8c-1.1 2.8-7.6 8.8-7.8 10.5-.2 1.7-.1 3.4-1.9 3.6-1.8.2-14.1-.2-16.6-1.8-1.9-1.2-.7-5.1 2.5-7.1 2-1.3 2.8-3.3 3.8-6.2 1-2.8 3.7-4.9 5.5-8.6 1.8-3.7 7.3-20.2 9.3-24.4 2-4 6.5-9.2 13-4.9 6.8 4.5 7.9 5.7 11.6 10.2 3.5 4.2 7.3 9.2 7.3 9.2l-3.6 17.2z" transform="matrix(.1 0 0 .1 1168 504)"/><path class="st15" d="M-11184.1-4500.8c-5 .1-13.4-1.6-17.7-2.6s-7.6-1.7-9.5 2.6c-1.9 4.3-6.6 19.9-7 21.5-.4 1.6-1.9 8.3-2.1 10.5-.1 1.3.8 5 1.5 5.7.7.7 1.4 0 1.5.4.2.3.9 3.1 1.7 3.5.8.3 1.3-.4 1.6-.2.3.2.8 2.2 2 2.1 1-.1.8-.8.8-.8s.9 1.5 1.8 1.2c1.2-.4-.1-3.1-.3-5.6-.2-3.2.1-4.4.1-4.4s1.1-.3 1.3-1.3c.2-1 .5-5.5-.2-6.7-.7-1.2-2.6-2.9-2.6-3.9s1.1-4.6 3.7-8c2.6-3.4 3.5-6.5 3.5-6.5s3.8 2.1 9.1 3.8c5.3 1.6 10.5 2.6 10.5 2.6l.3-13.9z" transform="matrix(.1 0 0 .1 1168 504)"/><path class="st1" d="M-11176.1-4499.3c-3.3-.8-4.1-1.9-7.5-2.2-3.4-.3-4.2-.2-4.9.9s-1.5 5-1 8.5 1.8 5.2 2 7.2.2 5 .9 8.2c.6 3.2 1.3 4.9 1.3 4.9s-2 .9-3.3 1.6c-1.4.7-2.5 7-3.9 10.4-1.4 3.4-3.5 5.7.6 11.2 4.5 5.9 9.7 12.4 16.2 12.9 4 .3 6.4.1 7.6-1.9 1.3-2 2.2-5.3 3.2-6.4s12.1-11.1 13.2-13.6c1.1-2.5.3-2.7 1.9-4.5 1.6-1.8 3.5-7.4 2.6-11.2-.9-3.8-6.7-12.4-10.3-16.8-8.1-9.6-18.6-9.2-18.6-9.2z" transform="matrix(.1 0 0 .1 1168 504)"/><path class="st15" d="M-11163.2-4495.4s.1 1.3 1.5 2.2c1.4.9 4.6 3.8 4.7 6.2s-6.3 9.7-11.6 9.3c-5.3-.4-7.5-7.3-7.4-8.6.1-1.3 5.4-9.6 5.4-9.6l7.4.5z" transform="matrix(.1 0 0 .1 1168 504)"/><path class="st15" d="M-11160.6-4499.4s1.6 1-1 3.9c-2.6 2.8-3.3 1.9-3.3 1.9s-.7 3.8-4.5 5.6c-3.8 1.8-9.9 4.9-12.3 2.4-2.2-2.3-1.7-11.4-1.2-16.7.5-5.3 4.3-12.2 10-13.8 5.2-1.4 13 .9 13.9 7.2.9 6.3-1.6 9.5-1.6 9.5z" transform="matrix(.1 0 0 .1 1168 504)"/><path class="st4" d="M-11160.6-4499.4s2.5-3.2 1.6-9.5c-.9-6.3-8.7-8.6-13.9-7.2-2.5.7-4.6 2.4-6.2 4.5.3 1.2-.7 3.6 1.4 4.9 2.4 1.4 5.2-.7 8.2.8s2 9.3 2 9.3l2.2-.1s.6-2 2.2-2.6c1.1-.5 1.9-.4 2.5-.1z" transform="matrix(.1 0 0 .1 1168 504)"/><path class="st15" d="M-11163.1-4463.9s3.6 2.8 6.7 3.1c3.1.3 6.2-.8 6.2-.8s-1.2 5.9-1.4 8.8c-.2 2.9 0 7.5-1.4 11.4s-5.6 17.2-5.2 17.9c.3.7 8.8 4.2 10.3 5s4.1 2.7 4.2 3.2c0 .1 0 .4-.5.7 1 .8 2.8 2.1 2.2 2.8-.5.6-1.1.6-1.5.4.1.1 1.2.9.8 1.5-.7.8-2.5-.1-3.4-.7.3.3.3.7-.2 1.2-.6.6-2.8-.3-4.1-1.1-1.3-.8-7.3-4.1-7.3-4.1s.7 1.6.5 2.8c-.2 1.2-1.4 1.3-1.9.8s-2.2-3.6-2.7-3.9c-.5-.3-1.3-1.6-1.2-2.3.1-.7-.1-1.5-.7-2.9s-.9-2-.5-6.5c.5-4.5.2-10.7 1.3-15.3.7-3.2 1.6-5.2 1.4-6.2-.1-1-1.7-5.8-1.8-9.8-.1-3.1.2-6 .2-6z" transform="matrix(.1 0 0 .1 1168 504)"/></g><g id="i1426_1_"><path class="st5" d="M-11188-4340.7c15.2-8 9.8-10.5 3.9-13.9-5.9-3.3-14.3-1.8-22.4 2.1s-16.6 7.7-4.6 12.6 16 2.9 23.1-.8z" transform="matrix(.1 0 0 .1 1184 512)"/><path class="st12" d="M-11185.2-4355.9c.9 3.4 0 6.7-.7 8.8-.8 2.3-2.9 6.4-7.5 6.2-4.6-.1-6.3-3.2-5.3-9.9s12.6-8.5 13.5-5.1z" transform="matrix(.1 0 0 .1 1184 512)"/><path class="st13" d="M-11185.8-4354.6c.5 2.3-.2 8.5-4.6 11.3-3.7 2.4-6.9.5-7.3-1.1-.4-1.6.9-10.8 1.4-11.6.4-.8 10-.9 10.5 1.4z" transform="matrix(.1 0 0 .1 1184 512)"/><path class="st12" d="M-11191.4-4348.9c.5 1.3 1.1 1.8-1.1 3.4-2 1.4-5.4 4.4-8.4 4.6-3 .2-11.7-1.8-12.2-2.4-.5-.6-.1-1.9.8-2.2.8-.3 20.9-3.4 20.9-3.4z" transform="matrix(.1 0 0 .1 1184 512)"/><path class="st13" d="M-11205.1-4351.9c-1.7.8-2 2.6-3.7 2.9s-3.4 1.3-3.7 2.6c-.3 1-.1 1.4 2.1 1.9s7.3 1.9 10 1c2.7-.9 8.4-4.2 8.4-4.7s-7.9-6.2-13.1-3.7z" transform="matrix(.1 0 0 .1 1184 512)"/><path class="st16" d="M-11172.9-4422.8c-9 .8-25.8 4.7-28.9 9.6-3.1 4.8-1.3 10.1-.3 14.8 1 4.7 3.5 27.2 3.4 32.6-.1 5.4-2.5 12.8.8 13.6 3.3.8 9.4 3.4 11.3 1 1.8-2.4 4.6-10.2 4.3-11.5-.3-1.3-1.8-.5-3.4-13.9-1.7-14.3-1.8-20.9-1.8-20.9s14.1-3.2 22.4-6.3c17-6.3 1.1-19.8-7.8-19z" transform="matrix(.1 0 0 .1 1184 512)"/><path class="st5" d="M-11172.9-4422.8c-9 .8-25.8 4.7-28.9 9.6-3.1 4.8-1.3 10.1-.3 14.8 1 4.7 3.5 27.2 3.4 32.6-.1 5.4-2.5 12.8.8 13.6 3.3.8 9.4 3.4 11.3 1 1.8-2.4 4.6-10.2 4.3-11.5-.3-1.3-1.8-.5-3.4-13.9-1.7-14.3-1.8-20.9-1.8-20.9s14.1-3.2 22.4-6.3c17-6.3 1.1-19.8-7.8-19z" transform="matrix(.1 0 0 .1 1184 512)"/><path class="st16" d="M-11156.7-4416.9c-6.4 2.3-18.2 6.4-22.4 7.9-4.2 1.5-10.2 2.5-12 6.9-1.8 4.5-.1 15.6-4.2 26.3-4.1 10.7-11.5 24.5-11.5 24.5s2.4-.7 4.5 1.2c2.1 1.8 5.1 3.8 8.5 3.5 3.4-.3 4.2-1.6 4.2-1.6s-1.3-4.8.7-9 6.9-14.1 9.3-22.6c2.4-8.5 1.7-12.6 2.6-13 .9-.4 11.4-1.4 20.7-3.1 9.4-1.7 13-8.8 13-17s-3.1-10.7-3.1-10.7l-10.3 6.7z" transform="matrix(.1 0 0 .1 1184 512)"/><path class="st15" d="M-11176.6-4463.4c.1 3.4.6 15.9-1.8 21.5s-4.2 12.5-6.2 15.8c-2 3.3-4.5 7.8-4.8 8.7-.3.9-.6 1.7.4 2.8s1.7 1.1 1.9 1.5c.2.4.7 1.3 3.3 2 2.6.7 3.3.8 3.7.1.4-.7-1.9-1.5-2.3-1.8-.4-.2-.5-.7-.1-1.8s1.1-3.8 1.1-5.2c0-1.4-.3-1.6.6-2.9.9-1.3 3.9-6.6 5.5-9.1 1.7-2.5 3.7-6.4 4-8.1.3-1.7 1-22.2 1-22.2l-6.3-1.3z" transform="matrix(.1 0 0 .1 1184 512)"/><path class="st8" d="M-11168.7-4473c-2.7-.1-5.6.5-7.3 3.7-1.8 3.2-1.5 5.2-1.5 5.2s.7.7 1.4 1c.7.3 1 .3 1 .3s-4.8 6.1-5.4 9.8c-.7 4.3 3.1 6 3.6 6.8.5.8 1.8 13.4 1.8 16.6-.1 3.1 0 6.6 0 6.6s-1.3 6.6 5 6.9c5.9.3 8.7.6 12.9 1.9 4.5 1.4 7 1.3 9.8 0 2.8-1.3 4.1-4.9 4.1-4.9s-2.7-5.2-3.5-7.3c-1-2.3-1.8-7.3-1.5-11.4.3-4 3.4-15.3 3-21.8-.5-6.5-5.9-10.1-5.9-10.1l-17.5-3.3z" transform="matrix(.1 0 0 .1 1184 512)"/><path class="st5" d="M-11180.6-4450.9c2.4 7.1 17.2 11 20.8 5.1-10.3 4.6-19.6-3.6-20.8-5.1z" transform="matrix(.1 0 0 .1 1184 512)"/><path class="st15" d="M-11157.3-4455s-2.5 7.7-3 12c-.5 4.4-.5 9.7-1.6 11.4-1.1 1.8-3.2 4.5-4.8 8.3-1.7 3.8-2.7 7.3-3.6 7.3-.9 0-2.6-.5-3.4-.4-2.8.2-3.9 1.4-4.4 2.2-.5.8-.6 1.5-.1 2.6s1.7 1.6 3 1.5c1.2-.1 7.4-1.2 8.3-2.4.9-1.2 7.4-9.6 8.6-10.9 1.2-1.2 3.3-2.9 3.8-5.7.5-2.8 3.2-12.9 4-16s2.3-7.6 2.3-7.6-1.9.7-5.1-.2-4-2.1-4-2.1zm-10.4-17.3s-7.3 8.2-1.1 11.6c6.2 3.4 14.7-9.4 14.7-9.4s-2.6-2.1-4-4.8c-1.4-2.8-9.6 2.6-9.6 2.6z" transform="matrix(.1 0 0 .1 1184 512)"/><path class="st4" d="M-11158.8-4499.6c-2.8-.5-8.7-1-12.8 4.1-4.1 5.2-3.2 12.6-2.5 15.8 1.2 5.3-2.6 7.5-2.6 7.5s1.1 4.1 7.3 1.7c6.2-2.4 10.6-29.1 10.6-29.1z" transform="matrix(.1 0 0 .1 1184 512)"/><path class="st15" d="M-11168.9-4491.7s-2.2 1.6-3.4 5.5c-.5 1.9-1.2 12.9.8 14.5 2.2 1.8 5.4 1 7.4 0s4.7-1.3 6.2-3.9c.8-1.2-2.5-22.4-11-16.1z" transform="matrix(.1 0 0 .1 1184 512)"/><path class="st4" d="M-11163.1-4498.2c-4.5 3-7.2 5-4.4 10.8 2.8 5.9 8.3 10.4 6.6 13.8-1.7 3.4-4.7 5-4.7 5s2.9 5.4 11.4 4c8.2-1.4 9.1-4.3 9.5-5.6.7-2.1-2.9-5.7-3.3-10.2-.3-4.5-.6-17.5-8-19.3-4.4-1-6.2 1-7.1 1.5z" transform="matrix(.1 0 0 .1 1184 512)"/></g><g id="i1429_1_"><path class="st5" d="M-11178.5-4332c13.8-9.3 1.8-19.8-17.5-23.2-8.4-1.5-31.9-23-53-9.7-17 10.8 18.3 26.1 27 30.1 12 5.6 26.8 14 43.5 2.8z" transform="matrix(.1 0 0 .1 1200 520)"/><path class="st4" d="M-11192-4352.5l12.3-.4s2.4 3.3 1.8 5.9c-.6 2.6-4.4 6.8-5.3 8.6-.9 1.8-2.6 7.5-7.7 8.8-5.1 1.3-11.7.9-12.6-2.4-.7-2.6 9.9-15 10.4-16.1.4-1 1.1-4.4 1.1-4.4z" transform="matrix(.1 0 0 .1 1200 520)"/><path class="st6" d="M-11183.2-4338.4c.9-1.8 4.6-5.9 5.3-8.6.2-.9.1-2-.2-2.9-.5 1.3-1.2 3.2-2.1 4.2-1.5 1.6-4.5 7.9-6.2 10.9-2.2 3.9-12.7 6.7-17 2.2-.1.3-.1.5 0 .7.9 3.3 7.5 3.7 12.6 2.4 5-1.4 6.7-7.1 7.6-8.9z" transform="matrix(.1 0 0 .1 1200 520)"/><path class="st4" d="M-11232.3-4366.1c-4.5 2.8-12.6 4.8-15.2 6.2-2.9 1.6-4.7 7.5 1.3 7.9s15.9-3.9 19.3-3.9c3.4 0 9.7-1.1 10.5-3 .9-1.9-.4-6.9-.4-6.9l-15.5-.3z" transform="matrix(.1 0 0 .1 1200 520)"/><path class="st17" d="M-11177.3-4435.6s-15 4.7-22.2 7.9c-7.2 3.2-18.3 6.7-21.7 11.4-3.3 4.7-4.6 14.6-5.6 19.9-1 5.4-4.3 18.5-6.4 24.6-1.1 3.3-3 6.1-2.8 7.1s8.7 1.8 13.1 2c5.1.2 7 .2 8.6-1.2 1-.9 3.3-14.5 5.2-21.8 2-7.3 4.1-16.5 4.1-16.5s5.2-.6 11.9-1.7c7-1.2 25.5-6.2 28.8-8.1 3.3-2 3.1-17.9 3.1-17.9l-16.1-5.7z" transform="matrix(.1 0 0 .1 1200 520)"/><path class="st5" d="M-11177.3-4435.6s-15 4.7-22.2 7.9c-7.2 3.2-18.3 6.7-21.7 11.4-3.3 4.7-4.6 14.6-5.6 19.9-1 5.4-4.3 18.5-6.4 24.6-1.1 3.3-3 6.1-2.8 7.1s8.7 1.8 13.1 2c5.1.2 7 .2 8.6-1.2 1-.9 3.3-14.5 5.2-21.8 2-7.3 4.1-16.5 4.1-16.5s5.2-.6 11.9-1.7c7-1.2 25.5-6.2 28.8-8.1 3.3-2 3.1-17.9 3.1-17.9l-16.1-5.7z" transform="matrix(.1 0 0 .1 1200 520)"/><path class="st15" d="M-11176.7-4478.7l7.2 3.9s-5.8 15.3-7.3 18.8c-.8 1.9-2.5 6.5-5.8 11.6-3.4 5.2-7.6 9.8-8.1 11.6-.5 1.8-.9 2.2-2.4 3.5-1.6 1.3-2.5 1.7-4.1 2.6-.9.5-3 3.4-4.2 4.5-1.2 1.1-6.3 1.6-6.9-.9-.4-1.8 3.4-6.5 4.5-7.9 1.2-1.4 5.3-1.8 6.3-3.2 1-1.4 5.9-11.6 7.6-15.6 1.7-4.1 3.7-10.9 7-15.8s6.2-13.1 6.2-13.1z" transform="matrix(.1 0 0 .1 1200 520)"/><path class="st17" d="M-11170-4430l-.1 7.5s-4.3 3.7-9.3 8.5c-4.9 4.7-10.7 10.4-12.5 12.2-1.8 1.8-3.3 2.6-3.9 6.5-.6 3.9.2 31.2.1 36-.1 4.5-.1 10.7 1 11.7 1.2 1 6.2 1.3 10.6.7 5-.7 7.6-1.6 8-2.6.4-1 .5-15.6.9-21.9.4-6.3-.3-16.7-.3-16.7s9-3.3 14.3-5.5c5.3-2.2 22.7-7 26.3-13.7 3.5-6.7 2.3-14.3 1.4-19-.7-3.9-2.9-5.9-2.9-5.9l-33.6 2.2z" transform="matrix(.1 0 0 .1 1200 520)"/><path class="st6" d="M-11216.4-4358.8c.1-.2.2-.5.2-.8-2.9 1.3-7.8 2.1-11.3 2.2-3 .1-13.1 4-18 4-2.3 0-3.8-.8-4.8-1.6.2 1.5 1.3 2.8 4 3 6 .4 15.9-3.9 19.3-3.9 3.5.1 9.8-1 10.6-2.9z" transform="matrix(.1 0 0 .1 1200 520)"/><path class="st15" d="M-11152.4-4423.8c-.7 1.3-1.2 2.2-1.7 2.4-1.5.5-7.8 1.1-9.9 3.1-2.2 2-4.2 3.8-4.5 5-.3 1.2-1.9 4.7-1.1 5.8.7 1.1 1-1.1 2.3-1.9 1.3-.8 5.2-3.4 9.3-3.9s6-1.2 7.4-2.8c.5-.5 2.2-2.3 4.4-4.6l-6.2-3.1z" transform="matrix(.1 0 0 .1 1200 520)"/><path class="st1" d="M-11129.4-4466c-.3-3.8.1-7.1-.3-9.2-1.2-6.4-7.4-14.2-15.7-16.3-5.7-1.4-23.4-.3-23.4-.3-.4.1-3.9 3.7-5.8 6.8-1.8 3-4.2 9.3-4.2 9.3-1 1.9-4.7 9.4-5.9 11.7-1.2 2.4-5.8 10.6-6.9 13.4-1.1 2.8-3.6 11-4.4 12.3-.8 1.3-2 3-2 3l8.3 3.3 1.1-2.1s5.6-7.1 7.7-10.2c2-2.9 3-7.2 3.9-9.2-1.1 3.6-2.7 9.8-3.5 14-.9 4.9-1.3 7-.7 8.1.7 1.2 3.3 5.4 14.3 6 4.1.2 9.1.2 13.8.1l-.5 1.6-1.1 1.6s2.9 2 3.8 3.3c.9 1.3 1.3 2.9 1.3 2.9l1.7-1.7s5.4-4.4 7.3-6c.9-.7 1.8-1.8 2.2-2.4 1.1-.1 1.3-.1 1.7-.1 2.6-.2 3.8-.7 3.8-.7s.2-3.4.5-7.9c2.3-2.1 4.8-4.9 5.2-8.9.4-3.4-2-19.6-2.2-22.4z" transform="matrix(.1 0 0 .1 1200 520)"/><path class="st5" d="M-11145.9-4461.9c-.4 5.1.8 12.1.8 13.8 0 1.7-2 3.4-5.8 8.1-3.7 4.6-7.2 14-7.6 14.9 1.8 0 3.6 0 5.4-.1.3-.9 2.1-6.3 4-10.2 2.1-4.3 6.8-10.8 6.8-10.8s-.9-2.5-1.4-4.9c-.7-2.7-2.2-10.8-2.2-10.8zm13 35.2s.2-3.4.5-7.9c0 0-1.4 2.2-2.2 3.5-.8 1.2-3.8 5.2-3.8 5.2 1.1-.1 1.3-.1 1.7-.1 2.7-.3 3.8-.7 3.8-.7z" transform="matrix(.1 0 0 .1 1200 520)"/><path class="st15" d="M-11169.4-4513.2c-3.1 4.2-1.7 14.9-1.3 17.6.4 2.6 1.1 5.5 3 6.2 1.9.7 3.2 1.5 3.6 2.7.7 2.3-.7 5.8.7 6.6 1.4.8 6.5-.4 12.2-3.4 5.3-2.8 8.1-6.3 7.3-7.2-.8-.9-5.1-1.6-5-4.7.1-3.1 3.1-7.9 3.2-12.4-.1-10.3-16.6-15.1-23.7-5.4z" transform="matrix(.1 0 0 .1 1200 520)"/><path class="st7" d="M-11156.2-4517c5.6 3.1-3.8 6.9-1.6 9 1.9 1.8 1.9 7.3 2.9 9 1.2 2.1 2.4-2.3 3.5-3.4 1-1 2.8-1.2 3.3.3s-.4 3.7-.5 4.3c1.6-.3 3.7-5.7 3.3-11.4-.4-6.8-10.1-13.3-20.7-7.3-2.1 1.2-2.8 2.5-1.7 1.6 2.1-1.6 8-4.1 11.5-2.1z" transform="matrix(.1 0 0 .1 1200 520)"/></g><g transform="translate(1200 472)" id="i1741_1_"><ellipse class="st0" cx="-1111.7" cy="-417" rx="5.6" ry="3"/><path class="st4" d="M-1111.2-430c.6 0 1 .4 1 1v12c0 .6-.4 1-1 1s-1-.4-1-1v-12c0-.6.4-1 1-1z"/><path class="st11" d="M-1109.7-420c-1.4 0-2.5-1.1-2.5-2.5v-16c0-1.4 1.1-2.5 2.5-2.5s2.5 1.1 2.5 2.5v16c0 1.4-1.1 2.5-2.5 2.5z"/><path class="st11" d="M-1106.7-425c-1.4 0-2.5-1.1-2.5-2.5v-16c0-1.4 1.1-2.5 2.5-2.5s2.5 1.1 2.5 2.5v16c0 1.4-1.1 2.5-2.5 2.5z"/><path class="st11" d="M-1107.7-428c-1.4 0-2.5-1.1-2.5-2.5v-16c0-1.4 1.1-2.5 2.5-2.5s2.5 1.1 2.5 2.5v16c0 1.4-1.1 2.5-2.5 2.5z"/><path class="st11" d="M-1110-455c-1.3.1-2.2 1.3-2.2 2.6 0 .3-.2.5-.5.4-.5-.1-1-.1-1.6.2-1.2.5-1.9 1.8-1.9 3.1v1.3c0 .2-.2.4-.4.4s-.4 0-.6.1c-1.2.2-2 1.3-2 2.5v15.8c0 .8.4 1.6 1 2.1s1 1.3 1 2.1v.9c0 1.4 1.1 2.5 2.5 2.5h1c1.4 0 2.5-1.1 2.5-2.5v-5.1c.6-.6 1-1.5 1-2.4v-8.1c.3.1.6.1 1 0 1.2-.2 2-1.4 2-2.6v-10.9c0-1.4-1.3-2.6-2.8-2.4z"/><path class="st11" d="M-1111.2-428.6c.6-.6 1-1.5 1-2.4v-2c0 .9-.4 1.8-1 2.4v2z"/><path d="M-1109.7-422c-1.1 0-2-.7-2.3-1.6-.4.4-1 .6-1.7.6h-1c-1.4 0-2.5-1.1-2.5-2.5v2c0 1.4 1.1 2.5 2.5 2.5h1c.6 0 1.2-.2 1.7-.6.4 1 1.3 1.6 2.3 1.6 1.4 0 2.5-1.1 2.5-2.5v-2c0 1.4-1.1 2.5-2.5 2.5zm3-5c-.2 0-.3 0-.5-.1v2c.2 0 .3.1.5.1 1.4 0 2.5-1.1 2.5-2.5v-2c0 1.4-1.1 2.5-2.5 2.5zm-3-4h-1c-.5.6-1.2 1-2 1-1.4 0-2.5-1.1-2.5-2.5v2c0 1.4 1.1 2.5 2.5 2.5.8 0 1.5-.4 2-1h1c1.4 0 2.5-1.1 2.5-2.5v-2c0 1.4-1.1 2.5-2.5 2.5zm0-8c-.2 0-.3 0-.5-.1v2c.2 0 .3.1.5.1 1.4 0 2.5-1.1 2.5-2.5v-2c0 1.4-1.1 2.5-2.5 2.5z"/><path class="st10" d="M-1110.2-450c-1.1 0-2 .9-2 2v.3h-1.2c-1.1 0-2 .9-2 2v1.4c-.9.2-1.6 1-1.6 2v2c0-1 .7-1.8 1.6-2v-1.4c0-1.1.9-2 2-2h1.2v-.3c0-1.1.9-2 2-2s2 .9 2 2v-2c0-1.1-.9-2-2-2z"/><path class="st0" d="M-1117.2-425.5v-.9c0-.8-.3-1.6-1-2.1-.6-.5-1-1.3-1-2.1v2c0 .8.4 1.6 1 2.1s1 1.3 1 2.1v-1.1z"/></g></svg>