<svg xmlns="http://www.w3.org/2000/svg" width="198.8" height="108"><style>.st0{fill:#999}.st1{opacity:.2;enable-background:new}.st2{fill:#fc0}.st4,.st7{enable-background:new}.st4{fill:#fff;opacity:.2}.st7{opacity:.3}.st8{fill:#825012}.st9{fill:#539b00}.st10{fill:#e5e5e5}.st11{opacity:.5;enable-background:new}.st12{fill:#39c}.st13,.st14{enable-background:new}.st13{fill:#39c;opacity:.4}.st14{opacity:.1}.st16{fill:#9c3}.st17{fill:#06547a}.st18{fill:#262626}.st19{fill:#fff}.st20{fill:#c7a190}.st22{fill:#fbd7c7}.st24{fill:#cc291f}</style><g transform="translate(968 600)" id="i1259_1_"><ellipse class="st0" cx="-914" cy="-502.7" rx="1.5" ry=".8"/><path class="st0" d="M-914-530l4-2-4-4-4 4zm1 3.7h-2v23.5c0 .3.4.5 1 .5s1-.2 1-.5v-23.5z"/><path class="st1" d="M-913-526.3h-2v23.5c0 .3.4.5 1 .5s1-.2 1-.5v-23.5z"/><path class="st0" d="M-914-502c-.8 0-1.5-.3-1.5-.8v10c0 .5.7.8 1.5.8s1.5-.3 1.5-.8v-10c0 .5-.7.8-1.5.8z"/><path class="st1" d="M-914-502c-.8 0-1.5-.3-1.5-.8v10c0 .5.7.8 1.5.8s1.5-.3 1.5-.8v-10c0 .5-.7.8-1.5.8z"/><path class="st0" d="M-914-530l-4-2 2 7 2 1 2-1 2-7z"/><path class="st2" d="M-913.5-529.7l2.7-1.3-1.6 5.7-1.1.5z"/><path opacity=".15" d="M-913-530l2.2-1-1.6 5.7z"/><path class="st2" d="M-915.6-525.3l-1.6-5.7 2.7 1.3v4.9z"/><path class="st4" d="M-915.6-525.3l-1.6-5.7 2.7 6.2z"/><path opacity=".39" d="M-914-524l2-1 2-7-4 2z"/><path opacity=".06" d="M-914-524l-2-1-2-7 4 2z"/><circle class="st0" cx="-914" cy="-536" r="1"/></g><g transform="translate(1064 576)" id="i1417_1_"><ellipse class="st7" cx="-906.5" cy="-482" rx="7.5" ry="4"/><path class="st8" d="M-908-509v27c0 .6.7 1 1.5 1s1.5-.4 1.5-1v-27h-3z"/><circle class="st9" cx="-913.5" cy="-513.5" r="6.5"/><circle class="st9" cx="-909" cy="-522" r="9"/><path class="st8" d="M-906-493.6c2.6 0 3-.9 3-3.4v-8h1v10c0 1.7-1.3 3-3 3h-1v-1.6zm0-.6c-1.7 0-3-.4-3-2.1v-9.7h-1v10c0 1.7 1.3 3 3 3h1v-1.2zm-2-21c-1.7 0-3-.4-3-2.1v-2.7h-1v3c0 1.7 1.3 3 3 3h1v-1.2z"/><circle class="st9" cx="-901.5" cy="-506.5" r="7.5"/><circle class="st9" cx="-897" cy="-510" r="6"/><path class="st8" d="M-902-507.2c1.7 0 3-.4 3-2.1v-2.7h1v3c0 1.7-1.3 3-3 3h-1v-1.2zm-7-15.4h1v9.6h-1z"/><circle class="st9" cx="-900" cy="-520" r="8"/><circle class="st9" cx="-905" cy="-529" r="8"/><path class="st4" d="M-904.5-521c2.2 0 4.1 1.3 4.9 3.1.3-.1.7-.1 1.1-.1 1.8 0 3.4.9 4.4 2.2-.4-1.8-2-3.2-3.9-3.2h-.1c-.5-2.3-2.5-4-4.9-4-2 0-3.7 1.2-4.5 2.9.8-.6 1.9-.9 3-.9z"/><circle class="st9" cx="-914" cy="-521.6" r="3.6"/><path class="st4" d="M-914-521.5c0-2.5 1.7-4.6 4-5.3.2-2.9 2.6-5.2 5.5-5.2 1.7 0 3.3.8 4.3 2.1-.6-2.4-2.8-4.1-5.3-4.1-2.9 0-5.3 2.2-5.5 5.1-2.3.5-4 2.5-4 4.9 0 1.1.4 2.2 1 3v-.5z"/><circle class="st9" cx="-908.7" cy="-506.2" r="9.3"/><circle class="st9" cx="-896.7" cy="-512.2" r="3.3"/><path class="st7" d="M-891-510c0-.4 0-.8-.1-1.2-.6 3.8-3.9 6.7-7.9 6.7h-.4c.7.3 1.6.5 2.4.5.7 0 1.3-.1 1.9-.3-1.4 1.4-3.3 2.3-5.4 2.3-1 0-2-.2-2.9-.6-1.6 1.6-3.9 2.6-6.3 2.6-3.5 0-6.6-2-8.1-4.8.7 4.4 4.5 7.8 9.1 7.8 2.2 0 4.3-.8 5.9-2.1.4.1.8.1 1.3.1 3.5 0 6.5-2.4 7.3-5.7 1.9-1 3.2-3 3.2-5.3z"/><path class="st4" d="M-911.5-511c.8 0 1.5.1 2.2.4.9-1.4 2.5-2.4 4.3-2.4 1 0 1.9.3 2.7.8-.7-1.7-2.3-2.8-4.2-2.8-1.6 0-3 .8-3.8 2h-.7c-2.9 0-5.4 2.1-5.9 4.9 1.2-1.8 3.2-2.9 5.4-2.9z"/><path class="st7" d="M-916-510.5c-1.9-.8-3.4-2.4-3.9-4.5 0 .5-.1 1-.1 1.5 0 2.4 1.3 4.4 3.2 5.6.1-.9.4-1.8.8-2.6z"/></g><g id="i1431_1_"><g transform="translate(1024 560)"><path class="st10" d="M-906-517c-8.8 0-16 3.6-16 8v4c0 4.4 7.2 8 16 8s16-3.6 16-8v-4c0-4.4-7.2-8-16-8z"/><path class="st1" d="M-906-501c-8.8 0-16-3.6-16-8v4c0 4.4 7.2 8 16 8s16-3.6 16-8v-4c0 4.4-7.2 8-16 8z"/><ellipse class="st11" cx="-906" cy="-509" rx="14" ry="6"/><path class="st12" d="M-906-513c-6.9 0-12.7 2.2-13.8 5 1.1 2.8 6.9 5 13.8 5s12.7-2.2 13.8-5c-1.1-2.8-6.9-5-13.8-5z"/><path class="st10" d="M-906-514c-1.7 0-3 .7-3 1.5v6c0 .8 1.3 1.5 3 1.5s3-.7 3-1.5v-6c0-.8-1.3-1.5-3-1.5z"/><path class="st1" d="M-906-511c-1.7 0-3-.7-3-1.5v6c0 .8 1.3 1.5 3 1.5s3-.7 3-1.5v-6c0 .8-1.3 1.5-3 1.5z"/><path class="st13" d="M-906-506.5c-1.7 0-3-.7-3-1.5v1.7c0 .8 1.3 1.5 3 1.5s3-.7 3-1.5v-1.7c0 .8-1.3 1.5-3 1.5z"/><path class="st10" d="M-900-515.9c0 3.3-2.7 5.9-6 5.9s-6-2.6-6-5.9"/><path class="st1" d="M-900-515.9c0 3.3-2.7 5.9-6 5.9s-6-2.6-6-5.9"/><path class="st14" d="M-906-510.5c-1.8 0-3.5-.7-4.7-1.7 1.1 1.4 2.8 2.2 4.7 2.2s3.6-.9 4.7-2.2c-1.2 1-2.9 1.7-4.7 1.7z"/><ellipse class="st10" cx="-906" cy="-516" rx="6" ry="3"/><ellipse class="st11" cx="-906" cy="-516" rx="4.5" ry="1.9"/><path class="st12" d="M-906-517.4c-2.3 0-4.1.7-4.5 1.6.3.9 2.2 1.6 4.5 1.6s4.1-.7 4.5-1.6c-.4-.8-2.2-1.6-4.5-1.6z"/><path class="st10" d="M-906-520.5c-1.1 0-2 .4-2 1v4c0 .6.9 1 2 1s2-.4 2-1v-4c0-.6-.9-1-2-1z"/><path class="st1" d="M-906-518.5c-1.1 0-2-.4-2-1v4c0 .6.9 1 2 1s2-.4 2-1v-4c0 .6-.9 1-2 1z"/><path class="st13" d="M-906-515.1c-1.1 0-2-.4-2-1v.8c0 .6.9 1 2 1s2-.4 2-1v-.8c0 .6-.9 1-2 1z"/><path class="st10" d="M-901-523.4c0 2.7-2.2 4.9-5 4.9s-5-2.2-5-4.9"/><path class="st1" d="M-901-523.4c0 2.7-2.2 4.9-5 4.9s-5-2.2-5-4.9"/><path class="st14" d="M-906-518.9c-1.5 0-2.9-.6-3.9-1.4.9 1.1 2.3 1.9 3.9 1.9s3-.7 3.9-1.9c-1 .8-2.4 1.4-3.9 1.4z"/><ellipse class="st10" cx="-906" cy="-523.5" rx="5" ry="2.5"/><ellipse class="st11" cx="-906" cy="-523.5" rx="3.8" ry="1.6"/><path class="st12" d="M-906-524.6c-1.9 0-3.5.6-3.7 1.3.3.8 1.8 1.3 3.7 1.3s3.5-.6 3.7-1.3c-.2-.7-1.8-1.3-3.7-1.3z"/><path class="st10" d="M-906-527.8c-.6 0-1 .2-1 .5v4.5c0 .3.4.5 1 .5s1-.2 1-.5v-4.5c0-.3-.4-.5-1-.5z"/><path class="st1" d="M-906-526.8c-.6 0-1-.2-1-.5v4.5c0 .3.4.5 1 .5s1-.2 1-.5v-4.5c0 .3-.4.5-1 .5z"/><path class="st13" d="M-906-522.8c-.6 0-1-.2-1-.5v.8c0 .3.4.5 1 .5s1-.2 1-.5v-.8c0 .2-.4.5-1 .5z"/><circle class="st10" cx="-906" cy="-527" r="2"/><ellipse class="st4" cx="-906" cy="-528.2" rx="1" ry=".7"/><path class="st14" d="M-906-525.6c-.8 0-1.6-.4-2-1.1.2.9 1 1.7 2 1.7s1.8-.7 2-1.7c-.4.7-1.2 1.1-2 1.1z"/></g><path class="st13" d="M-906-528s.1-3-2-3-2 8-2 8 .3-7.6 2.1-7.6 1.9 2.6 1.9 2.6z" transform="translate(1024 560)"/><path class="st13" d="M-906-528s0-2-1-2c-1.3 0-1 7.7-1 7.7s.1-7.2 1.1-7.2c.9 0 .9 1.5.9 1.5z" transform="translate(1024 560)"/><path class="st13" d="M-906-528s-.1-3 2-3 2 8 2 8-.3-7.6-2.1-7.6-1.9 2.6-1.9 2.6z" transform="translate(1024 560)"/><path class="st13" d="M-905-523s.9-2 3-2c3 0 1 8.3 1 8.3s1.3-7.8-1-7.8c-1.8-.1-3 1.5-3 1.5z" transform="translate(1024 560)"/><path class="st13" d="M-906-522s-.1-.7 2-.7c3 0 0 8.1 0 8.1s2.3-7.6 0-7.6c-1.8-.1-2 .2-2 .2zm-1-1s-.9-2-3-2c-3 0-1 8.3-1 8.3s-1.3-7.8 1-7.8c1.8-.1 3 1.5 3 1.5z" transform="translate(1024 560)"/><path class="st13" d="M-906-522s.1-.7-2-.7c-3 0 0 8.1 0 8.1s-2.3-7.6 0-7.6c1.8-.1 2 .2 2 .2zm0-6.1s0-1.9 1-1.9c1.3 0 1 7.7 1 7.7s-.1-7.2-1.1-7.2c-.9 0-.9 1.4-.9 1.4z" transform="translate(1024 560)"/><path class="st13" d="M-906-522s-.2-.5-.2.7.2 5.3.2 5.3.2-3.9.2-5.3-.2-.7-.2-.7zm4 7s-.1-1.5 2-1.5c3.7 0 1 10.5 1 10.5s2-10-1-10c-1.8 0-2 1-2 1z" transform="translate(1024 560)"/><path class="st13" d="M-904-514.3s0-.7 1.5-.7c2.9 0 .7 9 .7 9s1.4-8.6-.7-8.6c-1.3 0-1.5.3-1.5.3zm-6-.7s.1-1.5-2-1.5c-3.7 0-1 10.5-1 10.5s-2-10 1-10c1.8 0 2 1 2 1z" transform="translate(1024 560)"/><path class="st13" d="M-908-514.3s0-.7-1.5-.7c-2.9 0-.7 9-.7 9s-1.4-8.6.7-8.6c1.3 0 1.5.3 1.5.3zm2 .1s-.2-.9-.2.6c0 1.2.2 6.5.2 6.5s.2-5.1.2-6.5c0-1.4-.2-.6-.2-.6zm0-13.9s-.2-1.3-.2-1 .2 5.8.2 5.8.2-5.5.2-5.8-.2 1-.2 1z" transform="translate(1024 560)"/></g><g transform="translate(952 536)" id="i1739_1_"><ellipse class="st7" cx="-905.5" cy="-482" rx="7.5" ry="4"/><path class="st8" d="M-904-506v24c0 .6-.7 1-1.5 1s-1.5-.4-1.5-1v-24h3z"/><circle class="st9" cx="-896.5" cy="-507.5" r="6.5"/><circle class="st9" cx="-900" cy="-516" r="9"/><path class="st8" d="M-906-493.6c-2.6 0-3-.9-3-3.4v-8h-1v10c0 1.7 1.3 3 3 3h1v-1.6zm1 1.4c1.7 0 3-.4 3-2.1v-9.7h1v10c0 1.7-1.3 3-3 3h-1v-1.2z"/><path class="st8" d="M-909-495.2c-1.7 0-2-1.3-2-2.1v-9.7h-1v10c0 1.7 1.3 3 3 3v-1.2z"/><circle class="st9" cx="-910" cy="-506" r="9"/><circle class="st9" cx="-915" cy="-510" r="6"/><path class="st8" d="M-910-506.2c-1.7 0-3-.4-3-2.1v-2.7h-1v3c0 1.7 1.3 3 3 3h1v-1.2z"/><circle class="st9" cx="-911" cy="-518" r="8"/><circle class="st9" cx="-907" cy="-522" r="8"/><circle class="st9" cx="-900.5" cy="-524.5" r="4.5"/><path class="st4" d="M-914.9-516c2.2 0 4.1 1.3 4.9 3.1.3-.1.7-.1 1.1-.1 1.8 0 3.4.9 4.4 2.2-.4-1.8-2-3.2-3.9-3.2h-.1c-.5-2.3-2.5-4-4.9-4-2 0-3.7 1.2-4.5 2.9.8-.6 1.9-.9 3-.9z"/><path class="st8" d="M-907-518.6c.2.2.5.4.7.6h.3v-3c-.3 0-.7-.1-1-.2v2.6z"/><path class="st4" d="M-906.5-526c2.4 0 4.3 1.9 4.5 4.2.5-.1 1-.2 1.5-.2 2.5 0 4.6 1.6 5.3 3.9.1-.4.2-.9.2-1.4 0-2.5-2-4.5-4.5-4.5-.5 0-1 .1-1.5.3-.1-1.8-1.6-3.3-3.5-3.3-1 0-1.9.4-2.5 1h.5z"/><path class="st7" d="M-891.1-514.6c-1.7 1.9-4.1 3.1-6.8 3.1h-.6c1 1.1 1.6 2.4 1.7 3.9 2.9-1.1 5.2-3.8 5.7-7zm-2.4 10.3c.3.7.4 1.5.5 2.3 1.7-1.1 2.9-2.9 3-5-.8 1.3-2.1 2.2-3.5 2.7zm-21.8-11.7c-1.6-1.4-2.7-3.5-2.7-5.9-.6 1.1-1 2.5-1 3.9 0 1.1.2 2.1.6 3.1.9-.7 2-1 3.1-1.1z"/><path class="st8" d="M-900-514.4c0 1.7-1.3 2.1-3 2.1v1.3h1c1.7 0 3-1.3 3-3v-2c-.3 0-.7-.1-1-.2v1.8z"/><circle class="st9" cx="-902.2" cy="-503.2" r="9.3"/><path class="st4" d="M-906-506c1.2 0 2.3.3 3.3.8 1.2-1.1 2.9-1.8 4.7-1.8 1.6 0 3.1.5 4.2 1.4-1.1-2-3.3-3.4-5.7-3.4-1.6 0-3.1.6-4.2 1.6-.7-.4-1.5-.6-2.3-.6-2.4 0-4.4 1.7-4.9 4 1.3-1.2 3-2 4.9-2z"/><path class="st7" d="M-901.2-496c-3.8 0-7-2-8.8-5h-.9c-3.5 0-6.5-2-8-4.9 0 4.9 4 8.9 8.9 8.9h.9c1.7 1.9 4.1 3 6.8 3 3.6 0 6.6-2 8.2-4.9-1.8 1.8-4.4 2.9-7.1 2.9z"/></g><g transform="translate(1096 608)" id="i1740_1_"><ellipse class="st7" cx="-906.5" cy="-520" rx="6.5" ry="2"/><path class="st8" d="M-908-523h3v4h-3z"/><circle class="st9" cx="-901" cy="-524.9" r="3.8"/><circle class="st9" cx="-903.1" cy="-529.9" r="5.3"/><circle class="st9" cx="-908.4" cy="-526.4" r="5.3"/><circle class="st9" cx="-911.3" cy="-528.8" r="3.5"/><path class="st8" d="M-908.9-531.9c-1 0-1.8-.3-1.8-1.2v-1.5h-.6v1.8c0 1 .8 1.8 1.8 1.8h.6v-.9z"/><circle class="st9" cx="-909.1" cy="-525.1" r="5.7"/><path class="st7" d="M-909.1-520.8c-2.9 0-5.3-2.2-5.7-5v.7c0 3.2 2.6 5.7 5.7 5.7s5.7-2.6 5.7-5.7v-.7c-.4 2.8-2.8 5-5.7 5z"/><circle class="st9" cx="-907.2" cy="-532.3" r="4.7"/><circle class="st9" cx="-903.4" cy="-533.8" r="2.6"/><path class="st4" d="M-911.8-529.9c1.3 0 2.4.7 2.9 1.8.2 0 .4-.1.6-.1 1.1 0 2 .5 2.6 1.3-.2-1.1-1.2-1.9-2.3-1.9h-.1c-.3-1.3-1.5-2.4-2.9-2.4-1.2 0-2.2.7-2.7 1.7.6-.2 1.2-.4 1.9-.4z"/><path class="st8" d="M-907.2-531.5c.1.1.3.2.4.3h.2v-1.7c-.2 0-.4 0-.6-.1v1.5z"/><path class="st4" d="M-906.9-534.6c1.4 0 2.5 1.1 2.6 2.5.3-.1.6-.1.9-.1 1.5 0 2.7 1 3.1 2.3.1-.3.1-.5.1-.8 0-1.5-1.2-2.6-2.6-2.6-.3 0-.6.1-.9.2-.1-1.1-1-1.9-2-1.9-.6 0-1.1.2-1.5.6.1-.2.2-.2.3-.2z"/><path class="st7" d="M-897.8-529.1c-1 1.1-2.4 1.8-4 1.8h-.4c.6.6.9 1.4 1 2.3 1.8-.6 3.1-2.2 3.4-4.1zm-1.5 6c.2.4.3.9.3 1.4 1-.6 1.7-1.7 1.8-2.9-.5.7-1.2 1.3-2.1 1.5z"/><circle class="st9" cx="-903.8" cy="-524.8" r="5.4"/><path class="st4" d="M-906-526.4c.7 0 1.4.2 1.9.5.7-.7 1.7-1.1 2.8-1.1.9 0 1.8.3 2.5.8-.6-1.2-1.9-2-3.4-2-1 0-1.8.3-2.5.9-.4-.2-.9-.3-1.3-.3-1.4 0-2.6 1-2.9 2.4.8-.8 1.8-1.2 2.9-1.2z"/><path class="st7" d="M-903.2-520.5c-2.2 0-4.1-1.2-5.2-3-.2 0-.2 4.1 4.6 4.1 2.1 0 3.9-1.2 4.8-2.9-1.1 1.1-2.6 1.8-4.2 1.8z"/><path class="st8" d="M-904-529.6c0 1-.9 1.2-2 1.2v.4h.6c1 0 1.4-.4 1.4-1.4v-1.2 1z"/></g><g transform="translate(920 560)" id="i1742_1_"><ellipse class="st7" cx="-906.5" cy="-482" rx="7.5" ry="4"/><path class="st8" d="M-908-509v27c0 .6.7 1 1.5 1s1.5-.4 1.5-1v-27h-3z"/><circle class="st9" cx="-913.5" cy="-513.5" r="6.5"/><circle class="st9" cx="-909" cy="-522" r="9"/><path class="st8" d="M-906-493.6c2.6 0 3-.9 3-3.4v-8h1v10c0 1.7-1.3 3-3 3h-1v-1.6zm0-.6c-1.7 0-3-.4-3-2.1v-9.7h-1v10c0 1.7 1.3 3 3 3h1v-1.2zm-2-21c-1.7 0-3-.4-3-2.1v-2.7h-1v3c0 1.7 1.3 3 3 3h1v-1.2z"/><circle class="st9" cx="-901.5" cy="-506.5" r="7.5"/><circle class="st9" cx="-897" cy="-510" r="6"/><path class="st8" d="M-902-507.2c1.7 0 3-.4 3-2.1v-2.7h1v3c0 1.7-1.3 3-3 3h-1v-1.2zm-7-15.4h1v9.6h-1z"/><circle class="st9" cx="-900" cy="-520" r="8"/><circle class="st9" cx="-905" cy="-529" r="8"/><path class="st4" d="M-904.5-521c2.2 0 4.1 1.3 4.9 3.1.3-.1.7-.1 1.1-.1 1.8 0 3.4.9 4.4 2.2-.4-1.8-2-3.2-3.9-3.2h-.1c-.5-2.3-2.5-4-4.9-4-2 0-3.7 1.2-4.5 2.9.8-.6 1.9-.9 3-.9z"/><circle class="st9" cx="-914" cy="-521.6" r="3.6"/><path class="st4" d="M-914-521.5c0-2.5 1.7-4.6 4-5.3.2-2.9 2.6-5.2 5.5-5.2 1.7 0 3.3.8 4.3 2.1-.6-2.4-2.8-4.1-5.3-4.1-2.9 0-5.3 2.2-5.5 5.1-2.3.5-4 2.5-4 4.9 0 1.1.4 2.2 1 3v-.5z"/><circle class="st9" cx="-908.7" cy="-506.2" r="9.3"/><circle class="st9" cx="-896.7" cy="-512.2" r="3.3"/><path class="st7" d="M-891-510c0-.4 0-.8-.1-1.2-.6 3.8-3.9 6.7-7.9 6.7h-.4c.7.3 1.6.5 2.4.5.7 0 1.3-.1 1.9-.3-1.4 1.4-3.3 2.3-5.4 2.3-1 0-2-.2-2.9-.6-1.6 1.6-3.9 2.6-6.3 2.6-3.5 0-6.6-2-8.1-4.8.7 4.4 4.5 7.8 9.1 7.8 2.2 0 4.3-.8 5.9-2.1.4.1.8.1 1.3.1 3.5 0 6.5-2.4 7.3-5.7 1.9-1 3.2-3 3.2-5.3z"/><path class="st4" d="M-911.5-511c.8 0 1.5.1 2.2.4.9-1.4 2.5-2.4 4.3-2.4 1 0 1.9.3 2.7.8-.7-1.7-2.3-2.8-4.2-2.8-1.6 0-3 .8-3.8 2h-.7c-2.9 0-5.4 2.1-5.9 4.9 1.2-1.8 3.2-2.9 5.4-2.9z"/><path class="st7" d="M-916-510.5c-1.9-.8-3.4-2.4-3.9-4.5 0 .5-.1 1-.1 1.5 0 2.4 1.3 4.4 3.2 5.6.1-.9.4-1.8.8-2.6z"/></g><g transform="translate(1000 536)" id="i1743_1_"><ellipse class="st7" cx="-906.5" cy="-498" rx="5.6" ry="3"/><path class="st8" d="M-906-511c.6 0 1 .4 1 1v12c0 .6-.4 1-1 1s-1-.4-1-1v-12c0-.6.4-1 1-1z"/><path class="st9" d="M-904.5-501c-1.4 0-2.5-1.1-2.5-2.5v-16c0-1.4 1.1-2.5 2.5-2.5s2.5 1.1 2.5 2.5v16c0 1.4-1.1 2.5-2.5 2.5z"/><path class="st9" d="M-901.5-506c-1.4 0-2.5-1.1-2.5-2.5v-16c0-1.4 1.1-2.5 2.5-2.5s2.5 1.1 2.5 2.5v16c0 1.4-1.1 2.5-2.5 2.5z"/><path class="st9" d="M-902.5-509c-1.4 0-2.5-1.1-2.5-2.5v-16c0-1.4 1.1-2.5 2.5-2.5s2.5 1.1 2.5 2.5v16c0 1.4-1.1 2.5-2.5 2.5z"/><path class="st9" d="M-904.8-536c-1.3.1-2.2 1.3-2.2 2.6 0 .3-.2.5-.5.4-.5-.1-1-.1-1.6.2-1.2.5-1.9 1.8-1.9 3.1v1.3c0 .2-.2.4-.4.4s-.4 0-.6.1c-1.2.2-2 1.3-2 2.5v15.8c0 .8.4 1.6 1 2.1s1 1.3 1 2.1v.9c0 1.4 1.1 2.5 2.5 2.5h1c1.4 0 2.5-1.1 2.5-2.5v-5.1c.6-.6 1-1.5 1-2.4v-8.1c.3.1.6.1 1 0 1.2-.2 2-1.4 2-2.6v-10.9c0-1.4-1.3-2.6-2.8-2.4z"/><path class="st9" d="M-906-509.6c.6-.6 1-1.5 1-2.4v-2c0 .9-.4 1.8-1 2.4v2z"/><path d="M-904.5-503c-1.1 0-2-.7-2.3-1.6-.4.4-1 .6-1.7.6h-1c-1.4 0-2.5-1.1-2.5-2.5v2c0 1.4 1.1 2.5 2.5 2.5h1c.6 0 1.2-.2 1.7-.6.4 1 1.3 1.6 2.3 1.6 1.4 0 2.5-1.1 2.5-2.5v-2c0 1.4-1.1 2.5-2.5 2.5zm3-5c-.2 0-.3 0-.5-.1v2c.2 0 .3.1.5.1 1.4 0 2.5-1.1 2.5-2.5v-2c0 1.4-1.1 2.5-2.5 2.5zm-3-4h-1c-.5.6-1.2 1-2 1-1.4 0-2.5-1.1-2.5-2.5v2c0 1.4 1.1 2.5 2.5 2.5.8 0 1.5-.4 2-1h1c1.4 0 2.5-1.1 2.5-2.5v-2c0 1.4-1.1 2.5-2.5 2.5zm0-8c-.2 0-.3 0-.5-.1v2c.2 0 .3.1.5.1 1.4 0 2.5-1.1 2.5-2.5v-2c0 1.4-1.1 2.5-2.5 2.5z"/><path class="st4" d="M-905-531c-1.1 0-2 .9-2 2v.3h-1.2c-1.1 0-2 .9-2 2v1.4c-.9.2-1.6 1-1.6 2v2c0-1 .7-1.8 1.6-2v-1.4c0-1.1.9-2 2-2h1.2v-.3c0-1.1.9-2 2-2s2 .9 2 2v-2c0-1.1-.9-2-2-2z"/><path class="st7" d="M-912-506.5v-.9c0-.8-.3-1.6-1-2.1-.6-.5-1-1.3-1-2.1v2c0 .8.4 1.6 1 2.1s1 1.3 1 2.1v-1.1z"/></g><g transform="translate(936 608)" id="i1744_1_"><ellipse class="st7" cx="-906.5" cy="-520" rx="6.5" ry="2"/><path class="st8" d="M-908-523h3v4h-3z"/><circle class="st9" cx="-901" cy="-524.9" r="3.8"/><circle class="st9" cx="-903.1" cy="-529.9" r="5.3"/><circle class="st9" cx="-908.4" cy="-526.4" r="5.3"/><circle class="st9" cx="-911.3" cy="-528.8" r="3.5"/><path class="st8" d="M-908.9-531.9c-1 0-1.8-.3-1.8-1.2v-1.5h-.6v1.8c0 1 .8 1.8 1.8 1.8h.6v-.9z"/><circle class="st9" cx="-909.1" cy="-525.1" r="5.7"/><path class="st7" d="M-909.1-520.8c-2.9 0-5.3-2.2-5.7-5v.7c0 3.2 2.6 5.7 5.7 5.7s5.7-2.6 5.7-5.7v-.7c-.4 2.8-2.8 5-5.7 5z"/><circle class="st9" cx="-907.2" cy="-532.3" r="4.7"/><circle class="st9" cx="-903.4" cy="-533.8" r="2.6"/><path class="st4" d="M-911.8-529.9c1.3 0 2.4.7 2.9 1.8.2 0 .4-.1.6-.1 1.1 0 2 .5 2.6 1.3-.2-1.1-1.2-1.9-2.3-1.9h-.1c-.3-1.3-1.5-2.4-2.9-2.4-1.2 0-2.2.7-2.7 1.7.6-.2 1.2-.4 1.9-.4z"/><path class="st8" d="M-907.2-531.5c.1.1.3.2.4.3h.2v-1.7c-.2 0-.4 0-.6-.1v1.5z"/><path class="st4" d="M-906.9-534.6c1.4 0 2.5 1.1 2.6 2.5.3-.1.6-.1.9-.1 1.5 0 2.7 1 3.1 2.3.1-.3.1-.5.1-.8 0-1.5-1.2-2.6-2.6-2.6-.3 0-.6.1-.9.2-.1-1.1-1-1.9-2-1.9-.6 0-1.1.2-1.5.6.1-.2.2-.2.3-.2z"/><path class="st7" d="M-897.8-529.1c-1 1.1-2.4 1.8-4 1.8h-.4c.6.6.9 1.4 1 2.3 1.8-.6 3.1-2.2 3.4-4.1zm-1.5 6c.2.4.3.9.3 1.4 1-.6 1.7-1.7 1.8-2.9-.5.7-1.2 1.3-2.1 1.5z"/><circle class="st9" cx="-903.8" cy="-524.8" r="5.4"/><path class="st4" d="M-906-526.4c.7 0 1.4.2 1.9.5.7-.7 1.7-1.1 2.8-1.1.9 0 1.8.3 2.5.8-.6-1.2-1.9-2-3.4-2-1 0-1.8.3-2.5.9-.4-.2-.9-.3-1.3-.3-1.4 0-2.6 1-2.9 2.4.8-.8 1.8-1.2 2.9-1.2z"/><path class="st7" d="M-903.2-520.5c-2.2 0-4.1-1.2-5.2-3-.2 0-.2 4.1 4.6 4.1 2.1 0 3.9-1.2 4.8-2.9-1.1 1.1-2.6 1.8-4.2 1.8z"/><path class="st8" d="M-904-529.6c0 1-.9 1.2-2 1.2v.4h.6c1 0 1.4-.4 1.4-1.4v-1.2 1z"/></g><g transform="translate(1024 544)" id="i1749_1_"><path class="st16" d="M-906-537l16 8-16 8-16-8z"/><path class="st16" d="M-906-537l16 8-16 8-16-8z"/><path class="st16" d="M-906-537l16 8-16 8-16-8z"/><path class="st16" d="M-906-537l16 8-16 8-16-8z"/><ellipse class="st9" cx="-912" cy="-532" rx="2" ry="1"/><ellipse class="st9" cx="-915" cy="-527" rx="2" ry="1"/><ellipse class="st9" cx="-906" cy="-529" rx="2" ry="1"/><ellipse class="st9" cx="-904" cy="-534" rx="2" ry="1"/><ellipse class="st9" cx="-898" cy="-528" rx="2" ry="1"/><ellipse class="st9" cx="-906" cy="-523" rx="2" ry="1"/><ellipse class="st17" cx="-914" cy="-530.5" rx="3" ry="1.5"/><ellipse class="st2" cx="-914" cy="-530.5" rx="1" ry=".5"/><ellipse class="st17" cx="-906" cy="-534.5" rx="3" ry="1.5"/><ellipse class="st2" cx="-906" cy="-534.5" rx="1" ry=".5"/><ellipse class="st17" cx="-903" cy="-530.5" rx="3" ry="1.5"/><ellipse class="st2" cx="-903" cy="-530.5" rx="1" ry=".5"/><ellipse class="st17" cx="-896" cy="-528.5" rx="3" ry="1.5"/><ellipse class="st2" cx="-896" cy="-528.5" rx="1" ry=".5"/><ellipse class="st17" cx="-904" cy="-524.5" rx="3" ry="1.5"/><ellipse class="st2" cx="-904" cy="-524.5" rx="1" ry=".5"/><ellipse class="st17" cx="-912" cy="-526.5" rx="3" ry="1.5"/><ellipse class="st2" cx="-912" cy="-526.5" rx="1" ry=".5"/></g><g id="i1750_1_"><path class="st1" d="M9241.1-5234.2c8.8 4.6 19.7 1.3 24.8-1.3 5.1-2.6 8.3-.3 9.5 1.9 1.2 2.2 3.3 10 9.1 12.3 5.8 2.3 12.3 2.3 19.7-5 7.5-7.3 14.5-5.5 18.6-3.5 4.1 2 8 8.2 9.7 9.1 1.8.9 1.1-2.8 3.4-1.8 2.4 1.1 8.5 5.1 12 2.7 3.4-2.5-4.7-7.5-9.8-9.8-24.6-11-9-14.8-20.3-22.6s-20.3 2.7-28.3-2.6c-8-5.3-17-3.4-24.7 1.4-7.7 4.8-36.9 12.3-23.7 19.2z" transform="matrix(-.1 0 0 .1 984 576)"/><path class="st18" d="M9274.6-5240.8c-3.6 2.1-12.3 6.9-16.2 7.3-4.8.5-7.4-1.6-8.3-5.1-1.4-5.2 18.2-13.5 18.2-13.5l6.3 11.3z" transform="matrix(-.1 0 0 .1 984 576)"/><path class="st19" d="M9272.8-5242.1c-4.5 2-12.3 7.5-16.9 6-4.5-1.6-4.6-4.4-3.4-6.7 2.4-4.6 17.4-7.2 17.4-7.2l2.9 7.9z" transform="matrix(-.1 0 0 .1 984 576)"/><path class="st18" d="M9267-5248c1.7-.2 1.3 2.9.4 3.9s-7.6 4.5-11.5 6.1c-3.9 1.6-10.3 3-13.5 2.5-3.2-.5-3.4-3.7-1.9-4.9 1.6-1.2 6.4-2.4 9.2-5.7 2-2.4 4.6-6.5 4.6-6.5l12.7 4.6z" transform="matrix(-.1 0 0 .1 984 576)"/><path class="st19" d="M9265.1-5246.7c-2.1 1-7.6 4.6-12.4 6.1s-9.6 2.2-11.6.9c-1.3-.9 3.8-1.7 6.5-4 3.8-3.1 5.1-6.6 5.1-6.6l12.4 3.6z" transform="matrix(-.1 0 0 .1 984 576)"/><path class="st0" d="M9278.5-5258.7c-3-.3-8.1 1.1-9.9 6.2-1.8 5.1-1.2 9.7 1 10.6 2.2.9 3.5.1 4.4 1.5.9 1.4 3.3 7 4.5 10.1s3.2 6.4 5.5 8 6.2 2.7 10.2.4c4-2.4 8-6.5 11.6-8.8 4.7-3 14.9-12.6 17.2-16.3 2.3-3.7 2.1-6.2 2.1-6.2l-24.4-10.8s-9.5 9.1-9.7 10.2 2.2 3.3 1.9 4.6c-.3 1.3-.6 2-.6 2s-7.7-10.9-13.8-11.5z" transform="matrix(-.1 0 0 .1 984 576)"/><path class="st0" d="M9300.3-5261.6l-9 8.1s-2.3-1.2-3.7-3c-1.6-2.1-5.7-12.6-5.7-12.6s-3.6 7-4.7 9.8c-1.1 2.8-7.6 8.8-7.8 10.5-.2 1.7-.1 3.4-1.9 3.6s-14.1-.2-16.6-1.8c-1.9-1.2-.7-5.1 2.5-7.1 2-1.3 2.8-3.3 3.8-6.2 1-2.8 3.7-4.9 5.5-8.6 1.8-3.7 7.3-20.2 9.3-24.4 2-4 6.5-9.2 13-4.9 6.8 4.5 7.9 5.7 11.6 10.2 3.5 4.2 7.3 9.2 7.3 9.2l-3.6 17.2z" transform="matrix(-.1 0 0 .1 984 576)"/><path class="st1" d="M9300.3-5261.6l-9 8.1s-2.3-1.2-3.7-3c-1.6-2.1-5.7-12.6-5.7-12.6s-3.6 7-4.7 9.8c-1.1 2.8-7.6 8.8-7.8 10.5-.2 1.7-.1 3.4-1.9 3.6s-14.1-.2-16.6-1.8c-1.9-1.2-.7-5.1 2.5-7.1 2-1.3 2.8-3.3 3.8-6.2 1-2.8 3.7-4.9 5.5-8.6 1.8-3.7 7.3-20.2 9.3-24.4 2-4 6.5-9.2 13-4.9 6.8 4.5 7.9 5.7 11.6 10.2 3.5 4.2 7.3 9.2 7.3 9.2l-3.6 17.2z" transform="matrix(-.1 0 0 .1 984 576)"/><path class="st20" d="M9307.9-5310.6c-5 .1-13.4-1.6-17.7-2.6s-7.6-1.7-9.5 2.6c-1.9 4.3-6.6 19.9-7 21.5-.4 1.6-1.9 8.3-2.1 10.5-.1 1.3.8 5 1.5 5.7.7.7 1.4 0 1.5.4.2.3.9 3.1 1.7 3.5.8.3 1.3-.4 1.6-.2.3.2.8 2.2 2 2.1 1-.1.8-.8.8-.8s.9 1.5 1.8 1.2c1.2-.4-.1-3.1-.3-5.6-.2-3.2.1-4.4.1-4.4s1.1-.3 1.3-1.3c.2-1 .5-5.5-.2-6.7-.7-1.2-2.6-2.9-2.6-3.9s1.1-4.6 3.7-8 3.5-6.5 3.5-6.5 3.8 2.1 9.1 3.8c5.3 1.6 10.5 2.6 10.5 2.6l.3-13.9z" transform="matrix(-.1 0 0 .1 984 576)"/><path d="M9315.9-5309.1c-3.3-.8-4.1-1.9-7.5-2.2-3.4-.3-4.2-.2-4.9.9-.7 1.1-1.5 5-1 8.5s1.8 5.2 2 7.2.2 5 .9 8.2c.6 3.2 1.3 4.9 1.3 4.9s-2 .9-3.3 1.6c-1.4.7-2.5 7-3.9 10.4s-3.5 5.7.6 11.2c4.5 5.9 9.7 12.4 16.2 12.9 4 .3 6.4.1 7.6-1.9 1.3-2 2.2-5.3 3.2-6.4s12.1-11.1 13.2-13.6c1.1-2.5.3-2.7 1.9-4.5 1.6-1.8 3.5-7.4 2.6-11.2-.9-3.8-6.7-12.4-10.3-16.8-8.1-9.6-18.6-9.2-18.6-9.2z" fill="#28896d" transform="matrix(-.1 0 0 .1 984 576)"/><path class="st20" d="M9328.8-5305.2s.1 1.3 1.5 2.2c1.4.9 4.6 3.8 4.7 6.2s-6.3 9.7-11.6 9.3c-5.3-.4-7.5-7.3-7.4-8.6.1-1.3 5.4-9.6 5.4-9.6l7.4.5z" transform="matrix(-.1 0 0 .1 984 576)"/><path class="st20" d="M9331.4-5309.2s1.6 1-1 3.9c-2.6 2.8-3.3 1.9-3.3 1.9s-.7 3.8-4.5 5.6c-3.8 1.8-9.9 4.9-12.3 2.4-2.2-2.3-1.7-11.4-1.2-16.7.5-5.3 4.3-12.2 10-13.8 5.2-1.4 13 .9 13.9 7.2s-1.6 9.5-1.6 9.5z" transform="matrix(-.1 0 0 .1 984 576)"/><path d="M9331.4-5309.2s2.5-3.2 1.6-9.5-8.7-8.6-13.9-7.2c-2.5.7-4.6 2.4-6.2 4.5.3 1.2-.7 3.6 1.4 4.9 2.4 1.4 5.2-.7 8.2.8s2 9.3 2 9.3l2.2-.1s.6-2 2.2-2.6c1.1-.5 1.9-.4 2.5-.1z" transform="matrix(-.1 0 0 .1 984 576)"/><path class="st20" d="M9328.9-5273.7s3.6 2.8 6.7 3.1c3.1.3 6.2-.8 6.2-.8s-1.2 5.9-1.4 8.8c-.2 2.9 0 7.5-1.4 11.4s-5.6 17.2-5.2 17.9c.3.7 8.8 4.2 10.3 5 1.5.8 4.1 2.7 4.2 3.2 0 .1 0 .4-.5.7 1 .8 2.8 2.1 2.2 2.8-.5.6-1.1.6-1.5.4.1.1 1.2.9.8 1.5-.7.8-2.5-.1-3.4-.7.3.3.3.7-.2 1.2-.6.6-2.8-.3-4.1-1.1-1.3-.8-7.3-4.1-7.3-4.1s.7 1.6.5 2.8c-.2 1.2-1.4 1.3-1.9.8s-2.2-3.6-2.7-3.9-1.3-1.6-1.2-2.3c.1-.7-.1-1.5-.7-2.9s-.9-2-.5-6.5c.5-4.5.2-10.7 1.3-15.3.7-3.2 1.6-5.2 1.4-6.2-.1-1-1.7-5.8-1.8-9.8-.1-3.1.2-6 .2-6z" transform="matrix(-.1 0 0 .1 984 576)"/></g><g id="i1752_1_"><path class="st1" d="M-9093.5-5262.8c-9.9.4-17.4 3.1-25 3.6s-31.2 11.1-36.3 11.1c-5.1 0-59.6 26.6-36.7 28.1 5.4.4 17.2-2.3 21-4 3.8-1.7 14.9 8 22.2 6.3s5.7-9.9 14.1-10.7c8.4-.8 25.2 2.1 30.6-3.1 5.4-5.2 3.1-17 7.8-19.5 4.8-2.5 12.2.4 14-2.3 1.9-2.6-6.3-9.7-11.7-9.5zm-1.9 6.9c-2.5 1.5-12.7 4.6-12.7 4.6s1-2.9 6.1-5.6c5.2-2.7 12.9-.8 12.9-.8s-3.8.3-6.3 1.8z" transform="matrix(.1 0 0 .1 984 616)"/><path class="st8" d="M-9192.4-5233.8s-4.3 3.1-4.7 3.7c-.5.7 1.1 4.8 2 6.3 1 1.5 3.5 4.4 5.2 4 1.6-.4 7.7-2.7 7.7-2.7l-10.2-11.3z" transform="matrix(.1 0 0 .1 984 616)"/><path class="st11" d="M-9195.5-5231.5c-.8.6-1.5 1.2-1.6 1.4-.5.7 1.1 4.8 2 6.3 1 1.5 3.5 4.4 5.2 4 .3-.1.9-.2 1.5-.5-3.8-2.1-6.6-7.7-7.1-11.2z" transform="matrix(.1 0 0 .1 984 616)"/><path class="st22" d="M-9121.4-5326.5c1.8-1 2.7-1.9 3-3.3.3-1.4.2-10.4 5.8-14 5.6-3.6 14.8 2.7 14.7 8.9-.1 6.1-3.2 13.8-5.7 15.1-2.4 1.3-10.7-1-10.7-1l-7.1-5.7z" transform="matrix(.1 0 0 .1 984 616)"/><path d="M-9102.6-5330.8c1 .8-.2 2.8.7 2.8.9 0 1.1-1.7 1.8-2.2.8-.6 1.4-2.1 1.8-2.7.4-.6.8.2 1-1.7.2-2.9-2.8-11.3-11.7-10.8-8 .5-8.4 8.3-8.7 10.1-.3 1.8-.3 4.7-.9 5.5-.6.8-1.1 1.8-.2 1.8.9 0 1.6-.3 2.7 0s2.4 2.8 4.1 2.5c1.7-.3 4.8-2 6.1-3.4 1-1.3 2.6-2.4 3.3-1.9z" fill="#762c07" transform="matrix(.1 0 0 .1 984 616)"/><path class="st22" d="M-9111.7-5278.8s.4-.5 1.7-1.1c1.2-.5 2.6-.8 3.2-1.1.6-.3 2.9-.3 4-.4 2.1-.2 2.6 1.5.8 1.9-1.8.4-3.7 1.3-3.8 2-.1.4.4 1.1 1.3 1.5 1 .4 4.5.5 5.7.7 1.2.2 3.7 1.4 3.7 2.8-.1 1.5-2.2 2.9-4.3 3.1-2.2.1-4.6 0-6.1-.5-1.9-.6-3.4-1.2-5.4-1.5-2-.3-3.1-.9-3.1-.9l2.3-6.5zm20.5 12.7s.4 2.7 2.5 5.2 4 3.2 4.7 4.8c.8 1.6 1 3.3 2.3 2.8s2.1-4.3 1.9-5.6c-.2-1.3-.8-3.4-2-5.1-1.1-1.7-4-4.1-4-4.1l-5.4 2z" transform="matrix(.1 0 0 .1 984 616)"/><path class="st24" d="M-9122.7-5282.2c2.4.9 5.4 2 7.6 2.3 1.3.2 3.2.4 3.4.8.4.6 2 3.1 1.2 4.8-.8 1.7-1.8 3-2.5 3s-5-.1-7.2-.4-8.3-2.4-8.3-2.4l5.8-8.1z" transform="matrix(.1 0 0 .1 984 616)"/><path class="st24" d="M-9156.1-5287.6l31.3 15s4.9-11.6 7.2-14.7c4.9-6.4 9.7-10.4 11.1-9.5 1.4.8 6.8 7.8 8 9.6 2.2 3.2 4.1 9.2 4.6 11.7.5 2.4 1.9 9.6 2.4 10.2s4.1.4 5.2-.1c1.1-.5 1.8-1.7 1.8-2.3s-.2-14.4-.3-15.5c-.1-1.9-1.2-5.8-4-9.8-2.1-3.1-4.5-9.2-5.1-10.6-.6-1.5-4.6-11.3-10.4-15.8s-12.7-7.6-21.7-7.5c-9 .1-14 .6-18.6 11.2-4.6 10.6-4.2 15.6-6.3 19.5-2.1 3.9-5.2 8.6-5.2 8.6z" transform="matrix(.1 0 0 .1 984 616)"/><path class="st17" d="M-9100.5-5237.9c-1-4.5-11.3-15.8-13.6-18.6-2.5-2.9-8.5-8.8-9.7-10.1-1.1-1.3-1.9-3.4-1.3-5 .6-1.5 5.1-11 5.1-11s-6.1-2-6.9-2.9c-.8-.9 2.9-11.3 6.7-18.3 8.5-15.7 16.2-16 16.2-16l-2.6-1.9s-3.8-.1-9.8 5.9c-4.3 4.3-11 17.9-11 17.9l-13.7-5.1s3.5-13.4 6.7-18.1c3.2-4.7 8.5-6 8.5-6l-4.1-.2s-5 .1-8.5 6c-2.8 4.6-6.5 16.4-7.6 20.1-1.1 3.7-2.9 7.1-3.4 7.5s-3-.3-3-.3-4.8 7.4-7.9 11.3c-3.2 4-4.7 8.7-6.1 12.1s-2.9 12.1-5.4 14.5c-2.4 2.4-20.8 19.5-20.9 22.7 0 1 1.4 4.3 3.4 7s7.5 5.1 8.9 4.3c1.4-.8 11-10.4 12.5-13 1.5-2.5 3.4-5.2 3.4-5.2s2.2 8.7 5.9 10.1c2.4.9 4.9.6 7.8-.6 1.9-.8 24.6.1 27.1.3 3 .1 12.1.5 15.7.6 3.4.2 8.7-3.6 7.6-8zm-53-10.2l2.8-4.7 3.2 3.6-6 1.1z" transform="matrix(.1 0 0 .1 984 616)"/><path class="st22" d="M-9163.4-5243.5s-4.7.4-5.4.6c-.7.2-1.6 3-.4 6 1.2 3.1 2.7 6.6 2.7 6.6l2.1-.1s1.4 2.3 1.4 3.5c0 1.2-.1 3.9 1.9 5.4 2 1.4 10.9 5.6 13.7 3.2 2.8-2.4 2.9-5.9 1.5-7.5-1.4-1.6-5.1-5-5.1-5s-3.4 2.3-6.8.6c-3.4-1.7-5.9-6.1-5.9-8.9 0-2.8.3-4.4.3-4.4z" transform="matrix(.1 0 0 .1 984 616)"/><path class="st8" d="M-9163.4-5243.5s-4.7.4-5.4.6c-.7.2-1.6 3-.4 6 1.2 3.1 2.7 6.6 2.7 6.6l2.1-.1s1.4 2.3 1.4 3.5c0 1.2-.1 3.9 1.9 5.4 2 1.4 9.8 5.7 13.7 3.2 3.6-2.3 2.9-5.9 1.5-7.5-1.4-1.6-5.1-5-5.1-5s-3.5 2.1-6.9.3c-3.3-1.7-5.8-5.9-5.8-8.6 0-2.8.3-4.4.3-4.4z" transform="matrix(.1 0 0 .1 984 616)"/><path class="st11" d="M-9147.5-5218.3c1.4-.9 2.2-2 2.5-3.1-.9 1.5-3.4 3.3-7 2.7-4.2-.8-9.7-3.5-10.3-7.8-.4-2.8-1.2-4.4-2.9-7.9-1.5-3.2-1.2-5.8-.3-8.9-1.4.1-3 .3-3.4.4-.8.2-1.6 3-.4 6 1.2 3.1 2.7 6.6 2.7 6.6l2.1-.1s1.4 2.3 1.4 3.5c0 1.2-.1 3.9 1.9 5.4 2.1 1.4 9.9 5.7 13.7 3.2z" transform="matrix(.1 0 0 .1 984 616)"/></g></svg>