<svg xmlns="http://www.w3.org/2000/svg" width="147.9" height="127"><style>.st0{fill:#e5e5e5}.st1,.st2{opacity:.11;enable-background:new}.st2{opacity:.29}.st3{fill:#39c}.st5{fill:#656565}.st7{fill:#539b00}.st8{opacity:.3;enable-background:new}.st9{fill:#fff}.st10,.st11,.st12{enable-background:new}.st10{fill:#d9c5e0;opacity:.2}.st11{opacity:.39}.st12{opacity:6.000000e-02}.st13{fill:#825012}.st14,.st15{opacity:.2;enable-background:new}.st15{opacity:.4}.st16{fill:#cc291f}.st17{fill:#262626}.st18,.st19{opacity:.5;enable-background:new}.st19{opacity:.15}.st20{fill:#fbd7c7}.st21{fill:#762c07}.st23{fill:#999}.st25{fill:#baa794}.st27{opacity:.2;fill:#fff;enable-background:new}.st28{fill:#9c3}.st29{fill:#fc0}.st30{fill:#28896d}.st31{fill:#f90}</style><g transform="translate(1128 536)" id="i1406_1_"><path class="st0" d="M-1017-485l-32 16v4l32 16 32-16v-4z"/><path class="st1" d="M-1049-469l32 16v4l-32-16z"/><path class="st2" d="M-985-469v4l-32 16v-4z"/><path class="st3" d="M-1044-468.5l27 13.5 27-13.5-27-13.5z"/><path opacity=".2" fill="#999" d="M-1041-467l24 12 24-12-24-12z"/><path class="st2" d="M-1017-479v-4l-28 14 4 2z"/><path class="st1" d="M-1017-479l24 12 4-2-28-14z"/><path class="st3" d="M-1017-472l-4 2v4l4 2 4-2v-4z"/><path class="st5" d="M-1017-472l-4 2v4l4 2 4-2v-4z"/><path class="st1" d="M-1021-470l4 2v4l-4-2z"/><path class="st2" d="M-1013-470v4l-4 2v-4z"/><path d="M-1021-468l4 2v4l-4-2zm8 0v4l-4 2v-4z" opacity=".4" fill="#39c"/><path class="st7" d="M-1019.5-473.4c0 .7-1.2 1.3-2.6 1.3-1.4 0-2.6-.6-2.6-1.3s1.2-1.3 2.6-1.3c.6 0 .9.5.8 1 .7-.8 1.8-.1 1.8.3zm-.7 2.7c0 .4-1.3 1-1.9.2 0 .8-.7 1-1.3 1-1.5 0-2.1-.5-2.1-1.2s1.2-1.3 2.6-1.3 2.7.6 2.7 1.3z"/><ellipse class="st7" cx="-1026.3" cy="-468.1" rx="2.5" ry="1.4"/><ellipse class="st7" cx="-1026.1" cy="-463.7" rx="1.5" ry=".8"/><ellipse class="st7" cx="-1026.5" cy="-472.5" rx="1.5" ry=".8"/><ellipse class="st7" cx="-1019.1" cy="-475.8" rx="1.5" ry=".8"/><ellipse class="st7" cx="-1033.1" cy="-465.1" rx="1.5" ry=".8"/><ellipse class="st7" cx="-1028" cy="-465.6" rx="2.1" ry="1"/><ellipse class="st7" cx="-1025.6" cy="-461.8" rx=".8" ry=".4"/><ellipse class="st7" cx="-1029.8" cy="-463.6" rx=".8" ry=".4"/><ellipse class="st7" cx="-1017.4" cy="-473.7" rx=".8" ry=".4"/><ellipse class="st7" cx="-1023.3" cy="-460.3" rx=".6" ry=".2"/><ellipse class="st7" cx="-1016.3" cy="-475.7" rx=".6" ry=".2"/><ellipse class="st7" cx="-1022.6" cy="-462.2" rx=".8" ry=".3"/><path class="st7" d="M-1024.4-471.3c-.1-.1-1.4-.4-1.7-.3-.3.1-2.2.2-2.7.2s-1.2.3-1.4.8c-.2.4-.1.8.6 1.4.7.5 1.3.3 1.7.5.4.2.7.6 1.7.5 1-.1 1.8-.4 2-.5.4-.3.2-.3-.1-.2-.2.1-1-.3-1.3-.6-.3-.2-.6-.3-.5-.4s.1 0 .2.1c.2.2.7.4 1 .5.3.1.4 0 .6 0 .2 0 .8.1.6-.1s-.1-.5-.1-.9-.1-.8-.6-1z"/><path class="st8" d="M-1028.2-471c.3 0 1.2-.1 1.4-.2.2-.1.5-.1.7-.1.2 0 .6.1.6.1.2.1.3.2.4.4v.6c0 .1-.2 0-.4 0h-.4c-.1 0-.3-.1-.4-.2h-.2c-.1-.1-.1-.1-.1 0 0 0 .1.2.2.3.1.1.1.2.3.2.2.1.3.2.4.2h.1c.1 0 .1.1 0 .2s-.3.1-.6.2c-.2 0-.3.1-.5.1-.5 0-.6-.2-.8-.3-.1 0-.1-.1-.2-.1h-.4c-.2 0-.3 0-.5-.2-.3-.1-.4-.2-.4-.3v-.1c0-.2.1-.4.2-.5.1-.2.3-.3.6-.3z"/><path class="st9" d="M-1025.4-472.3c-.1 0-1.1.6-1.2 1.7-.1.4.4.2.4.2s.8-.5.9-.9c.1-.4 0-1-.1-1z"/><path class="st9" d="M-1026.7-470.3v-.6c0-.3 0-.7.1-.8.1-.2.2-.3.2-.5.1-.1.1-.3.2-.3s.2.2.3.5c.1.3.1.7-.1 1-.2.3-.3.5-.4.6 0 .3-.1.3-.3.1z"/><path class="st10" d="M-1026.7-470.3v-.6c0-.3 0-.7.1-.8.1-.2.2-.3.2-.5.1-.1.1-.3.2-.3s.2.2.3.5c.1.3.1.7-.1 1-.2.3-.3.5-.4.6 0 .3-.1.3-.3.1z"/><path class="st9" d="M-1028.6-470s1.2.3 2.1-.3c.3-.2-.2-.4-.2-.4s-.9-.2-1.3 0c-.3.3-.5.4-.6.7z"/><path class="st9" d="M-1027.1-470.4s-1.3-1-1.2-1.4c.1-.5 1.5.6 1.6.9.2.3-.4.5-.4.5zm1.5 0s.8-.7 1-1.2c.2-.5-1.7.6-1.6.9.1.3.6.3.6.3z"/><path class="st10" d="M-1028.6-470s1.2.3 2.1-.3c.3-.2-.2-.4-.2-.4s-.9-.2-1.3 0c-.3.3-.5.4-.6.7zm3-.4s.8-.7 1-1.2c.2-.5-1.7.6-1.6.9.1.3.6.3.6.3z"/><path class="st9" d="M-1027-470.7s-.7-.8-.3-1.7c0 0 .7.3.7 1.5l-.4.2z"/><path class="st10" d="M-1027-470.7s-.7-.8-.3-1.7c0 0 .7.3.7 1.5l-.4.2z"/><path class="st9" d="M-1026.7-472.2c.1 0 .3.4.4.9.1.5.2 1-.1 1.2-.3.2-.5 0-.5-.3-.1-.3-.1-.6-.1-.8.1-.2.2-1 .3-1z"/><path class="st9" d="M-1026.4-470.3l-.1-.2c.2-.2.4-.3.6-.4.2-.1.3-.1.4-.2.2-.1.3 0 .4 0-.1.1-.2.2-.4.3-.1 0-.2.1-.3.1-.3.1-.4.2-.6.4z"/><path class="st9" d="M-1025.3-471.1c-.1.1-.2.2-.4.3h-.2c-.1 0-.1 0-.2.1l-.1.1c-.1.1-.2.1-.3.2l-.1-.1c.1-.1.2-.1.3-.2.1-.1.2-.1.3-.2s.3-.1.4-.2h.3zm-1.5.8l.1-.2c-.2-.2-.3-.4-.5-.5-.1-.1-.3-.2-.3-.3-.2-.1-.3-.1-.3-.1.1.1.2.2.3.4.1 0 .2.1.3.2 0 .1.2.3.4.5zm.5.1c-.1 0-.1-.1 0 0 .1 0 .2 0 .3-.1h.9l-.1.1h-1.1z"/><path class="st9" d="M-1026.3-470.4s.1.2.1.5c.1.2.1.5 0 .7-.2.3-.2.6-.3.6s-.2-.1-.4-.4c-.1-.2-.2-.5-.1-.8.1-.2.2-.4.2-.6.2-.1.3-.1.5 0z"/><path class="st9" d="M-1024.5-469.6s-.5 0-1-.1-.9-.3-.9-.5c0-.3.2-.3.5-.3s.6.2.7.3c.1.1.3.2.4.4.2 0 .4.1.3.2z"/><path class="st7" d="M-1029.8-469.4c-.2-.1-1.5-.5-1.8-.4-.3.1-2.4.3-3 .3s-1.3.3-1.6.8c-.2.4-.1.9.6 1.5.8.6 1.4.3 1.9.5s.8.6 1.9.6c1.1-.1 2-.4 2.2-.6.5-.3.2-.4-.1-.3-.3.1-1.1-.3-1.5-.6-.3-.3-.7-.3-.6-.5.1-.1.1 0 .2.1.2.2.8.4 1.1.5s.4 0 .7 0c.3 0 .9.1.7-.1-.2-.2-.1-.6-.1-1 .1-.1 0-.5-.6-.8z"/><path class="st8" d="M-1034-469.1c.3 0 1.3-.1 1.5-.2s.5-.1.8-.1c.2 0 .6.1.7.1.3.1.4.2.4.4v.6c0 .1-.3 0-.4 0h-.4c-.1 0-.3-.1-.5-.2h-.2c-.1-.1-.1-.1-.1 0 0 0 .1.2.3.3.1.1.1.2.3.3.2.1.3.2.4.3h.1c.1 0 .1.1 0 .2s-.3.2-.6.2c-.3.2-.5.2-.7.2-.5 0-.7-.2-.9-.4-.1 0-.2-.1-.3-.1h-.4c-.2 0-.4-.1-.6-.2-.2-.1-.3-.2-.4-.4v-.1c-.1-.2.1-.4.2-.6.2-.1.5-.2.8-.3z"/><path class="st9" d="M-1033.4-470.5c.1 0 1.2.7 1.4 1.9.1.5-.5.2-.5.2s-.8-.6-1-1c-.1-.4 0-1 .1-1.1z"/><path class="st9" d="M-1032-468.2v-.7c0-.4 0-.7-.1-.9-.1-.2-.2-.4-.3-.5-.1-.2-.1-.3-.2-.3s-.2.2-.3.6c-.1.3-.1.8.1 1.1.2.3.3.6.4.7.1.1.2.2.4 0z"/><path class="st10" d="M-1032-468.2v-.7c0-.4 0-.7-.1-.9-.1-.2-.2-.4-.3-.5-.1-.2-.1-.3-.2-.3s-.2.2-.3.6c-.1.3-.1.8.1 1.1.2.3.3.6.4.7.1.1.2.2.4 0z"/><path class="st9" d="M-1029.9-467.9s-1.4.3-2.3-.3c-.4-.2.2-.4.2-.4s1-.2 1.4 0c.3.2.6.4.7.7z"/><path class="st9" d="M-1031.5-468.4s1.4-1.1 1.3-1.6c-.1-.5-1.7.7-1.8 1-.2.4.5.6.5.6zm-1.7.1s-.9-.8-1.1-1.4c-.2-.5 1.9.7 1.8 1-.1.4-.7.4-.7.4z"/><path class="st10" d="M-1029.9-467.9s-1.4.3-2.3-.3c-.4-.2.2-.4.2-.4s1-.2 1.4 0c.3.2.6.4.7.7zm-3.3-.4s-.9-.8-1.1-1.4c-.2-.5 1.9.7 1.8 1-.1.4-.7.4-.7.4z"/><path class="st9" d="M-1031.7-468.7s.8-.9.3-1.8c0 0-.8.3-.7 1.6l.4.2z"/><path class="st10" d="M-1031.7-468.7s.8-.9.3-1.8c0 0-.8.3-.7 1.6l.4.2z"/><path class="st9" d="M-1032-470.3c-.1 0-.3.5-.4 1s-.2 1.1.1 1.3c.3.2.5 0 .6-.3.1-.3.1-.7.1-.8-.2-.3-.3-1.3-.4-1.2z"/><path class="st9" d="M-1032.3-468.3l.1-.2c-.2-.2-.5-.4-.6-.5-.2-.1-.3-.2-.4-.2-.2-.1-.4 0-.4 0 .1.1.3.2.4.3.1 0 .2.1.4.1.1.2.3.3.5.5z"/><path class="st9" d="M-1033.6-469.1c.1.1.3.2.4.3.1 0 .1 0 .2.1.1 0 .1 0 .2.1 0 0 .1.1.2.1.1.1.2.1.4.3l.1-.2c-.1-.1-.2-.2-.3-.2-.1-.1-.2-.2-.3-.2-.2-.1-.3-.1-.4-.2-.3-.2-.4-.1-.5-.1zm1.8.8l-.2-.2c.2-.3.4-.4.5-.6.1-.1.3-.2.4-.3.2-.1.3-.1.4-.1-.1.1-.2.3-.3.4-.1 0-.2.1-.3.2-.2.3-.4.4-.5.6zm-.6.1c-.1 0-.2-.1-.3-.1h-.9l.1.1s.1 0 .1.1h.7s.1 0 .3-.1z"/><path class="st9" d="M-1032.4-468.4s-.1.2-.1.5c-.1.3-.1.6 0 .7.2.3.2.6.3.7.1 0 .3-.1.4-.4.1-.3.2-.6.1-.9-.2-.2-.3-.4-.3-.5-.1-.1-.3-.2-.4-.1z"/><path class="st9" d="M-1034.5-467.5s.6 0 1.1-.1c.5-.1 1-.3 1-.6s-.3-.3-.6-.3c-.3.1-.6.2-.7.3-.1.1-.3.2-.5.4l-.3.3z"/></g><g id="i1411_1_"><path class="st8" d="M1054-482.5l-4 2 14 7 4-2z" transform="matrix(-1 0 0 1 1136 520)"/><path class="st0" d="M1054.8-488.3l-1-.5c-.1-.1-.3-.1-.4 0l-3.5 1.8c-.6.2-.9.8-.9 1.4v4.6l1 .5 4.7-2.9.1-4.9z" transform="matrix(-1 0 0 1 1136 520)"/><path class="st0" d="M1050-480.5v-4.6c0-.6.3-1.2.9-1.4l3.5-1.8c.3-.1.6.1.6.4v4.9l-5 2.5z" transform="matrix(-1 0 0 1 1136 520)"/><path class="st11" d="M1049-481l1 .5v-4.6l-1-.5z" transform="matrix(-1 0 0 1 1136 520)"/><path class="st12" d="M1050-480.5v-4.6c0-.6.3-1.2.9-1.4l3.5-1.8c.3-.1.6.1.6.4v4.9l-5 2.5z" transform="matrix(-1 0 0 1 1136 520)"/><path class="st13" d="M1055-486.5l-5 2.5v1l14 7v-1l5-2.5z" transform="matrix(-1 0 0 1 1136 520)"/><path class="st11" d="M1064-477l-14-7v1l14 7z" transform="matrix(-1 0 0 1 1136 520)"/><path class="st8" d="M1065.2-477.6l-14-7-.2.1 14 7zm1-.5l-14-7-.2.1 14 7zm1-.5l-14-7-.2.1 14 7zm1-.5l-14-7-.2.1 14 7z" transform="matrix(-1 0 0 1 1136 520)"/><path class="st0" d="M1069.8-480.8l-1-.5c-.1-.1-.3-.1-.4 0l-3.5 1.8c-.5.3-.9.8-.9 1.4v4.6l1 .5 4.7-2.9.1-4.9z" transform="matrix(-1 0 0 1 1136 520)"/><path class="st0" d="M1065-473v-4.6c0-.6.3-1.2.9-1.4l3.5-1.8c.3-.1.6.1.6.4v4.9l-5 2.5z" transform="matrix(-1 0 0 1 1136 520)"/><path class="st11" d="M1064-473.5l1 .5v-4.6l-1-.5z" transform="matrix(-1 0 0 1 1136 520)"/><path class="st12" d="M1065-473v-4.6c0-.6.3-1.2.9-1.4l3.5-1.8c.3-.1.6.1.6.4v4.9l-5 2.5z" transform="matrix(-1 0 0 1 1136 520)"/><path class="st8" d="M1054-482.5l-4 2 14 7 4-2z" transform="matrix(-1 0 0 1 1120 528)"/><path class="st0" d="M1054.8-488.3l-1-.5c-.1-.1-.3-.1-.4 0l-3.5 1.8c-.6.2-.9.8-.9 1.4v4.6l1 .5 4.7-2.9.1-4.9z" transform="matrix(-1 0 0 1 1120 528)"/><path class="st0" d="M1050-480.5v-4.6c0-.6.3-1.2.9-1.4l3.5-1.8c.3-.1.6.1.6.4v4.9l-5 2.5z" transform="matrix(-1 0 0 1 1120 528)"/><path class="st11" d="M1049-481l1 .5v-4.6l-1-.5z" transform="matrix(-1 0 0 1 1120 528)"/><path class="st12" d="M1050-480.5v-4.6c0-.6.3-1.2.9-1.4l3.5-1.8c.3-.1.6.1.6.4v4.9l-5 2.5z" transform="matrix(-1 0 0 1 1120 528)"/><path class="st13" d="M1055-486.5l-5 2.5v1l14 7v-1l5-2.5z" transform="matrix(-1 0 0 1 1120 528)"/><path class="st11" d="M1064-477l-14-7v1l14 7z" transform="matrix(-1 0 0 1 1120 528)"/><path class="st8" d="M1065.2-477.6l-14-7-.2.1 14 7zm1-.5l-14-7-.2.1 14 7zm1-.5l-14-7-.2.1 14 7zm1-.5l-14-7-.2.1 14 7z" transform="matrix(-1 0 0 1 1120 528)"/><path class="st0" d="M1069.8-480.8l-1-.5c-.1-.1-.3-.1-.4 0l-3.5 1.8c-.5.3-.9.8-.9 1.4v4.6l1 .5 4.7-2.9.1-4.9z" transform="matrix(-1 0 0 1 1120 528)"/><path class="st0" d="M1065-473v-4.6c0-.6.3-1.2.9-1.4l3.5-1.8c.3-.1.6.1.6.4v4.9l-5 2.5z" transform="matrix(-1 0 0 1 1120 528)"/><path class="st11" d="M1064-473.5l1 .5v-4.6l-1-.5z" transform="matrix(-1 0 0 1 1120 528)"/><path class="st12" d="M1065-473v-4.6c0-.6.3-1.2.9-1.4l3.5-1.8c.3-.1.6.1.6.4v4.9l-5 2.5z" transform="matrix(-1 0 0 1 1120 528)"/></g><g transform="translate(1088 536)" id="i1413_1_"><path class="st0" d="M-1041-485c-1.7 0-3 .7-3 1.5v6c0 .8 1.3 1.5 3 1.5s3-.7 3-1.5v-6c0-.8-1.3-1.5-3-1.5z"/><path class="st14" d="M-1041-482c-1.7 0-3-.7-3-1.5v6c0 .8 1.3 1.5 3 1.5s3-.7 3-1.5v-6c0 .8-1.3 1.5-3 1.5z"/><ellipse class="st15" cx="-1041" cy="-483.5" rx="2.3" ry=".9"/></g><g id="i1428_1_"><path class="st9" d="M10607.7-4811.1s-3.2.8-7.1 6.8c-3.9 6-7.5 20.7-7.2 27 .3 6.3 2.4 11.1 2.4 11.1s11.7-26 16.5-30.2c4.8-4.3 10.3-11.7 10-13.5-.2-2-2.8-6.5-14.6-1.2z" transform="matrix(-.1 0 0 .1 1136 512)"/><path class="st16" d="M10605.6-4803.5l-.1 2.5s-5.1 6.1-7.1 9.7-6.5 14.2-6.5 14.2l3.8 10.3 6.2-14.4s2.6-9.1 3.7-12.5c1.1-3.4 1.8-6.5 1.8-6.5l1.5-.4-.2-2.7-1.6-.7-1.5.5z" transform="matrix(-.1 0 0 .1 1136 512)"/><path class="st5" d="M10600.2-4809.7c-3.2 1.5-6.1 3.6-8.2 6.6-2 2.9-8.9 10-15.3 14.7-6.4 4.7-27.6 21-28.2 21.5-.7.5-2.1 3.6 1.1 6.5s5.7 3.6 8.5 2 13.8-8.7 17.2-11.1c3.3-2.3 11.2-8.3 14.4-10.2 3.3-1.9 10.5-30 10.5-30z" transform="matrix(-.1 0 0 .1 1136 512)"/><path class="st5" d="M10610.8-4811.9s-4.5-2.2-8-.7-6.7 10-7.8 14.2c-1.1 4.1-4.5 10.5-5.2 13.2-.8 2.7-2.2 10.8-5.7 16.6-3.5 5.8-9.8 13.5-9.8 13.5l15.3 7.8 7.3-21.8s-3.3-9.9-.2-19.4c3.1-9.5 4.1-15.3 6.9-18.1 2.7-2.9 7.2-5.3 7.2-5.3z" transform="matrix(-.1 0 0 .1 1136 512)"/><path class="st14" d="M10601.5-4802.6l.3 2 3.8-2.9 1.6-.6 1.6.7.4 5.6 1.9-.5-2.6 1.8v-6.5l-1.8-.6-5.3 4.4zm-42.4 142.4c11.1-5.9 10.1-9 5.8-11.5-4.3-2.4-13.4 0-19.3 2.9s-16 8.3-7.3 11.9c8.7 3.5 15.6-.6 20.8-3.3z" transform="matrix(-.1 0 0 .1 1136 512)"/><path class="st17" d="M10544.5-4750.6c-3.7-1-8.4-4.7-15.6-3.7-7.2 1-7.3 5.9-3.6 9.6 3.9 3.9 8.7 5.1 13.4 5.2 4.7.1 12-.7 12-.7l-6.2-10.4z" transform="matrix(-.1 0 0 .1 1136 512)"/><path class="st18" d="M10547.5-4740.7s-11.2 1.5-16.5-1.3c-5.3-2.8-6.9-5.4-6-8.8.8-2.8 2.9-3.1 6-3.7-.7 0-1.4.1-2.1.2-7.2 1-7.3 5.9-3.6 9.6 3.9 3.9 8.7 5.1 13.4 5.2 2.7.1 6.4-.2 8.9-.4l-.1-.8z" transform="matrix(-.1 0 0 .1 1136 512)"/><path class="st17" d="M10545.4-4681.5c-.6 2.8-2.8 8.1-3.8 11.7-1.1 3.6-3.2 9.9.4 12.3 4.7 3.1 10.7-2.2 11.6-7.5.8-4.6 1-8 2-10.3 1-2.3 3.3-6.9 3.3-6.9l-13.5.7z" transform="matrix(-.1 0 0 .1 1136 512)"/><path class="st18" d="M10557.3-4682.1c-1 2.1-2.8 6.3-3.8 10.6-.8 3.3-.8 8.4-4.5 12-2.7 2.6-5.9 2.1-8.5.2.3.8.8 1.4 1.5 1.9 4.7 3.1 10.7-2.2 11.6-7.5.8-4.6 1-8 2-10.3s3.3-6.9 3.3-6.9h-1.6z" transform="matrix(-.1 0 0 .1 1136 512)"/><path class="st5" d="M10578.4-4755.4c-3.4 4.1-13.4 14.6-16.2 17.4-2.8 2.8-6.1 5.8-8.2 16.5-2.1 10.7-6.6 26.4-8.8 33-2 5.9-3.7 10.6-1.7 10.8 2 .3 6.6.7 9.2 1.6 2.6.9 6 1.6 6.9-.3.9-1.9 6-17.7 8.7-26 2.6-8.3 4.7-16.6 5.4-17.9.7-1.3 7.4-8 12.5-9.6 4-1.2 8.5-1.2 10.7-3.4 2.2-2.2 5.4-19.4 5.4-19.4l-23.9-2.7z" transform="matrix(-.1 0 0 .1 1136 512)"/><path class="st8" d="M10578.4-4755.4c-3.4 4.1-13.4 14.6-16.2 17.4-2.8 2.8-6.1 5.8-8.2 16.5-2.1 10.7-6.6 26.4-8.8 33-2 5.9-3.7 10.6-1.7 10.8 2 .3 6.6.7 9.2 1.6 2.6.9 6 1.6 6.9-.3.9-1.9 6-17.7 8.7-26 2.6-8.3 4.7-16.6 5.4-17.9.7-1.3 7.4-8 12.5-9.6 4-1.2 8.5-1.2 10.7-3.4 2.2-2.2 5.4-19.4 5.4-19.4l-23.9-2.7z" transform="matrix(-.1 0 0 .1 1136 512)"/><path class="st5" d="M10542-4752.7c1.6.1 5.7 1.2 13.7-1.6 8-2.8 27.8-9.8 29.6-10 1.7-.3 5.4-.1 9.2 4.2 3.8 4.4 14.7 16.3 17.2 17 2.5.7 7 .1 7 .1s-2 14.3-12.7 15c-10.6.7-17.3-5-19.4-8.2-2-3.2-3.8-7.4-4.5-7.7-.7-.3-13.1 3.2-20.5 4.8-7.4 1.6-10.8 2.6-13.1 2.2-2.3-.4-8.7-2.9-9.3-7.3-.7-4.3 2.8-8.5 2.8-8.5z" transform="matrix(-.1 0 0 .1 1136 512)"/><path class="st19" d="M10542-4752.7c1.6.1 5.7 1.2 13.7-1.6 8-2.8 27.8-9.8 29.6-10 1.7-.3 5.4-.1 9.2 4.2 3.8 4.4 14.7 16.3 17.2 17 2.5.7 7 .1 7 .1s-2 14.3-12.7 15c-10.6.7-17.3-5-19.4-8.2-2-3.2-3.8-7.4-4.5-7.7-.7-.3-13.1 3.2-20.5 4.8-7.4 1.6-10.8 2.6-13.1 2.2-2.3-.4-8.7-2.9-9.3-7.3-.7-4.3 2.8-8.5 2.8-8.5z" transform="matrix(-.1 0 0 .1 1136 512)"/><path class="st9" d="M10581.5-4756.4c-.4 0 .6 3.5 1.3 5.2s2.1 5 3 4.8c.9-.2.2-4.4-.6-6.1-.8-1.7-2.2-3.9-3.7-3.9z" transform="matrix(-.1 0 0 .1 1136 512)"/><path class="st20" d="M10582.5-4756.1s1.9 1.5 2.7 3.6c.8 2.2 1.1 3.5-.7 4.4-1.8.8-4.1.9-7.4 2.3-3.3 1.4-3.8 2.7-5.9 2.7-2.1 0-6.6-3.1-6.5-5.2.1-2.1 4.4-6.3 8.4-7 4-.7 9.4-.8 9.4-.8zm24.6-76.5c-3 2.8-3.3 6.9-3.5 13.4-.3 6.5-.4 9.4.8 10.5 1.3 1 2.2 1.1 2.2 1.1s.3 3.4.8 3.8 8.8-1.6 10.9-4c2.1-2.4 2.6-3.5 2.6-3.5s-.2-2 1.1-3.3c1.3-1.3 5.2-4.5 3.3-13-2.1-8.4-11.8-11-18.2-5z" transform="matrix(-.1 0 0 .1 1136 512)"/><path class="st21" d="M10604.6-4830.6s1.8.2 3.9 3.6c2.1 3.3 6.3 3.8 8.2 3.1-.3 4 2.5 6.8 2.6 7.1.1.2 1.7-3.4 3.6-2.6 1.8.8-1.5 5-1.3 5.8.2.8 5.6-3 5.8-12.1.3-9.9-16.7-18.5-22.8-4.9z" transform="matrix(-.1 0 0 .1 1136 512)"/><path class="st9" d="M10583.9-4757l-2.4.5s1.5.4 3.1 3.8c1.6 3.3 1.2 6.2 1.2 6.2l5.1-2-7-8.5z" transform="matrix(-.1 0 0 .1 1136 512)"/><path class="st5" d="M10593.3-4761.3s8-22.3 13.1-29.9c5.1-7.6 12-13.7 13.7-15.6 1.6-2 1.2-6.1 1.2-6.1s2.7 1.1 5.8 5.9c3.1 4.8 10 12.9 9.8 18.5-.2 5.6-1.2 5.9-4.1 10.3-2.9 4.4-9 14-9.9 18.7-1 4.7 0 18.7-4.3 25.4-5 7.6-9.8 6.7-9.8 6.7s2.4-5.8 2.9-9.7c.5-4.1-2.4-7-2.4-7l-5.8-5.1-15.5 3.5s-.8-4.2-2.3-7.4c-1.5-3.2-4-4.1-4-4.1l11.6-4.1z" transform="matrix(-.1 0 0 .1 1136 512)"/><path class="st9" d="M10548.4-4764c-.5.6 1 2.6 3 4.1s2.9 1.9 3.4 1.6c.5-.3.4-3.6-1.7-4.7-2.1-1.3-4.2-1.7-4.7-1z" transform="matrix(-.1 0 0 .1 1136 512)"/><path class="st20" d="M10549.7-4764.2s1.8-1 3.3.3c1.5 1.3 1.7 2.1 1.5 2.6s-.6 4.3-3.3 6.2-6.2 3.4-7.3 5.1c-1.1 1.7-2 4.3-4.2 4.4-2.1.2-3.7-2.8-3.1-6 .6-3.2 1.9-6.1 4.5-7.3 2.6-1.2 4.8-2 6.4-3.2 1.6-1.1 2.2-2.1 2.2-2.1z" transform="matrix(-.1 0 0 .1 1136 512)"/><path class="st9" d="M10549.3-4765.1l-1 1.1s2.2-.5 4 .8c1.8 1.2 2 1.9 2.3 2.7.3.7.2 2.2.2 2.2s.6-.4 1-.8c.5-.5.3-3.2-2.1-4.8-2.3-1.8-4.4-1.2-4.4-1.2z" transform="matrix(-.1 0 0 .1 1136 512)"/><path class="st14" d="M10597.3-4768.4s8.4-14 10.8-17c2.4-3 5.2-6.3 5.2-6.3l.1-2.6 4.4-.9s2.4-5.4 4.4-7.8c2-2.4 3.3-6 3.3-6s-.8 4.1-2.5 6.6-4 8-4 8l-5.1.6.4 3s-2.5 1.9-5.8 6.2c-2.5 3.2-11.2 16.2-11.2 16.2z" transform="matrix(-.1 0 0 .1 1136 512)"/></g><g id="i1430_1_"><path class="st21" d="M-10388.8-4822.3c-.6 1.9-.5 9.7-1.2 14-.8 5.2-7.1 24 2.1 18.1 9.2-5.9 7-33.5 3.1-33.7-3-.3-3.4-.3-4 1.6z" transform="matrix(.1 0 0 .1 1088 552)"/><path class="st14" d="M-10397.7-4651c-11.8 7.6-12.4 14.4 0 21 13.5 7.2 22.4 3.3 32.9-2.7s11.8-13.4-3.6-19.6c-12.6-4.9-20.5-4.4-29.3 1.3z" transform="matrix(.1 0 0 .1 1088 552)"/><path class="st20" d="M-10393.7-4775s-3.2 10.8-5.9 19.1-4.4 13.8-5.3 15.9c-.9 2.1-1.3 5.7-.8 7.3s2.3 5 3 5.7c1.7 1.6 4.4 1.2 4.8.8.4-.5.4-2.2-.3-2.9-.7-.7-2.6-3-1.4-6 1.2-3 1-4.2 1-6 0-1.5-.5-1.7.7-4.1 1.2-2.4 6.9-14.5 7.5-16.2.5-1.7-3.3-13.6-3.3-13.6z" transform="matrix(.1 0 0 .1 1088 552)"/><path class="st20" d="M-10379.8-4802.5s-9.1-4-12.3.3c-3.1 4.3-1.7 11-1.7 11s-5.4 6.1-5.4 9.4c0 3.3 5.1 6.5 5.1 6.5s.6 15.8-.3 22.3c-.9 6.5-3.8 23.3-3.1 33.9s1.6 25 1.9 29.2c.3 4.1 2.2 10 3 14.8.9 4.8 4.1 13.2.9 19.6-3.2 6.5-6.1 9.3-7.4 10.5-1.3 1.2.2 5.2 3 4.5 2.8-.7 7.2-7.1 9.9-8.1 2.7-1.1 7.2-4 6-7.7-1.2-3.7-1.7-2.2-2-5.3s2.2-16.7 1.3-22.8c-.9-6.1-3.2-7.8-3.6-8.8-.4-1.1 5.7-29.5 5.7-29.5s1.2 27.3 1.1 30.2c-.1 2.9 2.1 17.7 2.7 24.6.6 6.9 1 18.8-2 22.9-2.9 4.1-8 10.3-6 11.7s8.3 2.7 9.8-.9 5.3-11.1 6.7-13.1 1.9-3.1 1-5-1.5-5-.5-10.3c1-5.3 4.1-14.7 3.3-19.7s-3.2-8.1-2.9-11.7c.3-3.5 8.1-24.8 6.6-39.7-1.6-14.8-9-17.5-10.3-23.5s3-13.9 5.2-18.2c2.2-4.2 5.3-11.6 2.6-14.2-2.7-2.7-5.9-4.4-7.1-6.4-1.2-2-2.5-8.2-2.5-8.2l-8.7 1.7z" transform="matrix(.1 0 0 .1 1088 552)"/><path class="st16" d="M-10397.1-4646.9s-4.9 1.7-5.9 3.9c-.8 1.8-.5 3.9 1.2 5s5.2 1.3 8.2-.4c2.9-1.7 6.8-8.4 7.5-8.7.7-.3.2 3.7.2 3.7l2.1 1.1 2.3-.9s-.2-4.5.7-6c.9-1.6 2.6-3.9 2-6.9-.7-3-2.6-3.3-2.6-3.3s0 3.5-4 7.3c-3.8 3.6-5.9 9.6-9.2 9.3-4.6-.7-2.5-4.1-2.5-4.1zm16.8 6.8s-4.6 3.5-4.9 5.7c-.3 2.2-.2 3.7 2.9 4.7s7.1-.2 9-1.8c1.8-1.6 4.4-5.8 4.4-5.8l2 1.1 2.3-1.1s-.3-2.7.4-5.1c.7-2.4 1.4-4.4 1.4-7.4s-2.8-3.3-2.8-3.3 1.7 1.6-.8 5.1-4.4 11.3-8.1 11.5c-7 .5-5.8-3.6-5.8-3.6z" transform="matrix(.1 0 0 .1 1088 552)"/><path class="st17" d="M-10361.8-4746.4c-2.3-3.6-4.4-5.6-5.1-6.4-4.4-6.7 1.9-20.2 3-22.4 2.2-4.2 5.3-11.6 2.6-14.2-2.7-2.7-5.9-4.4-7.1-6.4-1.2-2-2.5-8.2-2.5-8.2l-8.9 1.6s-3.6-1.6-7-1.7c-2.2 2.1-4.9 9.8-7.4 12.7-2.5 2.8-5.4 5.4-5.4 9.6 0 3.3 4.3 6.6 4.8 7.5.3.6 2.4 6 2.3 12.3 0 2.9-6.2 26.5-7.1 30-1.9 6.8-6.1 18-5.6 19 2.1 4.2 12.6 3.2 17.4 7.6 4.8 4.4 17.8 3.7 24 1.6s9.4-5.8 9.2-6.5c-4.8-18.8-1.8-27.7-7.2-36.1z" transform="matrix(.1 0 0 .1 1088 552)"/><path class="st20" d="M-10384.6-4803.3s-8.9 14.8-2.4 16.5c6.3 1.7 16-8.7 16-8.7l-7.8-8.7-5.8.9z" transform="matrix(.1 0 0 .1 1088 552)"/><path class="st20" d="M-10382.3-4802.2s-4.3.7-4.9-.9c-.7-1.7-4.4-15.5 2.4-24.1 6.8-8.5 20.5-3.1 20.5 6 0 8.1-3.2 10.5-4.7 14.5-.9 2.5-1.6 5.8-.1 8.4s2.7 4 2.7 4-7.6 4.6-13.3 3.2-.2-4.2-1-6.6c-.7-2.2-1.6-4.5-1.6-4.5z" transform="matrix(.1 0 0 .1 1088 552)"/><path class="st19" d="M-10399.5-4781.1c3.1 5.9 12.5 10.5 26.6 7.4-.9 2.3-21.1 7.5-26.6-7.4z" transform="matrix(.1 0 0 .1 1088 552)"/><path class="st20" d="M-10371.5-4782.4c-1.1-2.9-.7-10.2 5.3-10.5 6-.3 6.7 5.7 7.2 13.6s3.5 20.7 3.7 23.3c.2 2.6-1.5 9.7-5.6 16-4.1 6.3-6.9 11.4-7.1 12.3-.2 1-1.4 4.9-3.1 6.1-.7.5-1.5 1.2-1.9 2.5-.4 1.3.5 2.4.7 2.7.3.7-.2 1.5-1.4 2.2-1.3.8-3.2-.5-4.2-1.3-.7-.5-2.5-2.1-2-4.3.4-1.6 1.7-6.6 3.7-7.8 2-1.2 3.9-2.7 4.6-4.1.7-1.4 2.2-11.9 4.8-17.2 1.4-2.9 3.1-4.8 3.1-5.9-.1-.9-6.7-24.7-7.8-27.6z" transform="matrix(.1 0 0 .1 1088 552)"/><path class="st21" d="M-10388.8-4822.3s3.5-11.5 16.4-9.1c8.1 1.5 10.4 10.5 9.6 16.7-.7 6.2-3.3 9.9-2.1 12.9 2.3 5.6 1 9.4-1.6 12.7-4.3 5.5-13.1 8.2-12.1-2.9.7-8.6-5.1-12.4-3.1-21.5 1.2-5.7-1.1-8.2-3.6-7.7-.8-1.9-1.8-2.6-3.5-1.1z" transform="matrix(.1 0 0 .1 1088 552)"/><path class="st14" d="M-10470.6-4627.5c-17.2-9.6-4.2-17 11.8-24.6 17.8-8.5 24.2-10.6 40.5-1.6 13.9 7.6 1.6 14.9-14.6 22.5-18.5 8.5-25.6 10.5-37.7 3.7z" transform="matrix(.1 0 0 .1 1088 552)"/><path class="st17" d="M-10429.9-4655.9c3.4 2.5 6.8 4 9.8 5.6s4.5 3.1 4.1 4.5c-.3 1.5-3 3.2-7.6 3-4.6-.2-12-4.4-13.4-4.5s-1.1.8-2.1.8-6.4-1-7-1.7c-.6-.7.1-5.7.1-5.7l16.1-2z" transform="matrix(.1 0 0 .1 1088 552)"/><path class="st18" d="M-10446.1-4648.2c-.3-.4-.3-1.8-.2-3.1 1.3 1.2 3.5 1.9 5.7 2 2.6.1 5.7.6 9.3 2.9 3.6 2.3 16 4.2 14.6-1.4.6.7.9 1.4.7 2.1-.3 1.5-3 3.2-7.6 3-4.6-.2-12-4.4-13.4-4.5s-1.1.8-2.1.8-6.4-1.1-7-1.8z" transform="matrix(.1 0 0 .1 1088 552)"/><path class="st5" d="M-10432.1-4734.5c.9 6.6 1.3 29.8.4 40.3-.8 10.6-.7 25.9.1 31.2.6 3.9 2.5 6 2 7.4s-5 4.6-10.2 5.2c-5.2.6-7.2-.2-7.9-2.2-.6-2-2.8-23.5-3.5-37-.6-12-1.7-45.1-1.7-45.1h20.8v.2z" transform="matrix(.1 0 0 .1 1088 552)"/><path class="st8" d="M-10432.1-4734.5c.9 6.6 1.3 29.8.4 40.3-.8 10.6-.7 25.9.1 31.2.6 3.9 2.5 6 2 7.4s-5 4.6-10.2 5.2c-5.2.6-7.2-.2-7.9-2.2-.6-2-2.8-23.5-3.5-37-.6-12-1.7-45.1-1.7-45.1h20.8v.2z" transform="matrix(.1 0 0 .1 1088 552)"/><path class="st17" d="M-10460.9-4643.8c.8 2.3 4.3 8 5 9.4.8 1.4 2.3 3.3 1.3 4.7-1 1.5-5.7 3.3-10.4 1-4.7-2.2-5.5-7.7-5.5-7.7h-.8s-1-2.3-1-3.9.3-2.6.3-2.6l11.1-.9z" transform="matrix(.1 0 0 .1 1088 552)"/><path class="st18" d="M-10470.5-4636.4h-.8s-1-2.3-1-3.9.3-2.6.3-2.6h.1c.1.2.1.4.1.6.2 1.3 2.5 8.3 3.8 10 3.4 4.4 12.6 5.4 13.5.3.3.8.4 1.6-.1 2.2-1 1.5-5.7 3.3-10.4 1-4.7-2.1-5.5-7.6-5.5-7.6z" transform="matrix(.1 0 0 .1 1088 552)"/><path class="st5" d="M-10444-4733.8c-.1 4.3-4.5 9.3-5.8 15.4-1.3 6.1-5.3 36.3-6.3 45.2-1.5 12.9-2.8 31.7-3.2 31.9-.4.1-3.7-1.9-6.9-.2s-6.8 1-7.9.2c-1-.8-.6-9.4-.2-14.6.3-5.1 1.9-43.6 1.8-48.8s-1.8-19.3-1.4-22.6c.4-3.4 2.3-7.3 2.3-7.3l27.6.8z" transform="matrix(.1 0 0 .1 1088 552)"/><path class="st19" d="M-10444-4733.8c-.1 4.3-4.5 9.3-5.8 15.4-1.3 6.1-5.3 36.3-6.3 45.2-1.5 12.9-2.8 31.7-3.2 31.9-.4.1-3.7-1.9-6.9-.2s-6.8 1-7.9.2c-1-.8-.6-9.4-.2-14.6.3-5.1 1.9-43.6 1.8-48.8s-1.8-19.3-1.4-22.6c.4-3.4 2.3-7.3 2.3-7.3l27.6.8z" transform="matrix(.1 0 0 .1 1088 552)"/><path class="st5" d="M-10433.8-4781c2.5 4 5.1 10.3 6.6 14.5 1.5 4.2 5.4 11.7 5.7 12.7.2.9.1 4.6-3.4 5.7-3.5 1-5.2 1.8-5.8.9-.5-.8-4.2-5-4.2-5l1.1-28.8z" transform="matrix(.1 0 0 .1 1088 552)"/><path class="st19" d="M-10433.8-4781c2.5 4 5.1 10.3 6.6 14.5 1.5 4.2 5.4 11.7 5.7 12.7.2.9.1 4.6-3.4 5.7-3.5 1-5.2 1.8-5.8.9-.5-.8-4.2-5-4.2-5l1.1-28.8z" transform="matrix(.1 0 0 .1 1088 552)"/><path class="st9" d="M-10446.6-4808.8c2 1.6 10.2 13.3 10.6 27.7s-3.2 21.1-3.2 21.1-10.9-29.1-16.9-35.5c-6-6.4-5.6-11.5-5.6-11.5s3.8-2.6 7.9-2.9c4.1-.3 7.2 1.1 7.2 1.1z" transform="matrix(.1 0 0 .1 1088 552)"/><path class="st14" d="M-10446.3-4798.8l-2.3 6.4-6.4-4.3 6.8 6 2.1-7.8 1-.2 3.8 4.3v-3.8c0 .3-.3 1.9-.3 1.9l-3.5-3.4-1.2.9z" transform="matrix(.1 0 0 .1 1088 552)"/><path class="st16" d="M-10443.4-4794.1l.1-3.8-1.5-1.6-1.5.7-1 2.7 2.3 2.3s2.1 18.1 2.3 20.4c.2 2.3 3.1 13 3.1 13s4.5-12.5 4.3-12.7c-.2-.2-8.1-21-8.1-21z" transform="matrix(.1 0 0 .1 1088 552)"/><path class="st20" d="M-10479.6-4725.5c.3 1 .2 2 2 3.2 1.7 1.3 3.1 3.6 3.5 5.2.4 1.6 1.7 3.5 1.9 4.7.2 1.2-.8 2-1.8 1.1-1-.8-2.9-4.5-3.9-4.8-1-.3-1.3 2.9-1.4 4-.1 1 1.5 3 2.2 4 .8 1 .1 1.9-1 1.6-1.1-.3-5.9-2.9-7.1-7.9s-.7-12-.7-12l6.3.9z" transform="matrix(.1 0 0 .1 1088 552)"/><path class="st9" d="M-10477.4-4726.3l.1 2s-3.8.9-6.9.6c-3.1-.3-3.8-1-3.8-1l.3-3 10.3 1.4z" transform="matrix(.1 0 0 .1 1088 552)"/><path class="st5" d="M-10450.2-4809.6c2.1.3 9.2-2 13.2 4.1 4.1 6 4.7 12.6 4.9 18.3.2 5.7 1.2 43 1.2 49.5 0 6.6-.1 9.5-3 10.4-3.4 1.1-5.9-1.9-6-3.8-.1-2 .3-30.7.3-30.7s5.1-12 1.8-25.8-8.5-18.4-8.5-18.4l-4.1-3.5.2-.1z" transform="matrix(.1 0 0 .1 1088 552)"/><path class="st5" d="M-10460.5-4808s-4 3.3-6.2 5.1c-2.2 1.8-12 10.5-13 11.7s-2.2 2.4-2.2 5.7c0 3.3-.4 8.4-1.7 11.9-4.1 10.6-4.3 15.2-4.6 19.8s-.9 26.6-.9 26.6 1.3 1.2 6.4 1.8c5.1.6 6.4-.1 6.4-.1s1.5-14.2 2.3-19.3c1.3-7.8 5-16.1 5-16.1s.6 3.5.3 5.6-4.1 19.3-4.9 22.1c-.8 2.7-1.7 6.1-1.7 6.1s4.2 6.6 15.6 6.1c11.4-.4 18.2-4 19.6-11 1.4-7 1.7-24.5-.1-34.3-1.8-9.8-9.7-25.6-14.9-31.4-5.2-5.8-5.4-10.3-5.4-10.3z" transform="matrix(.1 0 0 .1 1088 552)"/><path class="st14" d="M-10440.5-4761.8s-3.5-8.9-8.9-16.5c-3.8-5.2-7.8-8.6-7.8-8.6l.3-3.4-4-1.5-2.5-13.7-.5.5 1.7 14.1 4.6 1-1 3.5s5.4 4.7 9 9.2c3.8 4.8 9.1 15.4 9.1 15.4z" transform="matrix(.1 0 0 .1 1088 552)"/><path class="st20" d="M-10444.7-4829.7c3.8 2.8 4 10.3 3.9 15.4-.1 5.1-.7 9.3-1.5 9.7s-2.4.6-2.4.6.1 4.9-1.1 5.1c-1.2.3-7.8-2.8-10.9-6-3.1-3.1-3.5-3.8-3.5-3.8s-4.3-7.9-3.6-14.1c.7-6.2 8.4-14.6 19.1-6.9z" transform="matrix(.1 0 0 .1 1088 552)"/><path class="st21" d="M-10441.5-4826.6c.6 1-1.5.8-4.5 5.4-3.1 4.6-6.6 2.6-7.6 2.6-.3 2.5-2.4 2.1-4.3 4.3 0 0-.7-2.5-2.1-2.6-1.4-.1-.9 4.2-.9 4.2s-.2 1.7-1.2 2-4.7-8.8-2.8-14.7c2.9-9.4 16.5-12.6 23.4-1.2z" transform="matrix(.1 0 0 .1 1088 552)"/><path class="st9" d="M-10422.4-4753.4c-.5-.5-3.6-.4-5.3 1.3-1.7 1.7-2.2 3.6-1.9 4.1.3.5 2.4.2 4.9-1.5 2.4-1.7 2.8-3.3 2.3-3.9z" transform="matrix(.1 0 0 .1 1088 552)"/><path class="st20" d="M-10423-4753c-1.2-.4-3.1.1-4.3 1.3-1.2 1.1-1.7 2.2-1.6 3 0 .8 1 2.7 1.2 3.6.2.8 2.7 4.2 3.5 5.3.7 1.2 1.6 1.7 1.8 3.5.2 1.8.8 2.7 2.1 2.8s6.1-2.9 5.2-7.2c-.9-4.2-2.6-6.7-3.6-8.1-.5-.7-2.6-1.8-3.3-2.3-.8-.6-.5-1.8-1-1.9z" transform="matrix(.1 0 0 .1 1088 552)"/><path class="st16" d="M-10460.2-4748.5s-6.9 8.5-9.2 11.7c-2.1 2.9-3.9 6-4.4 7.9-.5 1.9 1.2 4.9 3.5 7.2 2.7 2.7 6.8 8.4 8.3 10.8 1.5 2.4 3.1 5.5 3.1 5.5l11.2-6.3s-7.3-6.6-9.7-10c-2.4-3.4-5-6.7-5-6.7l6.8-3.5-4.6-16.6z" transform="matrix(.1 0 0 .1 1088 552)"/><path class="st19" d="M-10460.2-4748.5s-6.9 8.5-9.2 11.7c-2.1 2.9-3.9 6-4.4 7.9-.5 1.9 1.2 4.9 3.5 7.2 2.7 2.7 6.8 8.4 8.3 10.8 1.5 2.4 3.1 5.5 3.1 5.5l11.2-6.3s-7.3-6.6-9.7-10c-2.4-3.4-5-6.7-5-6.7l6.8-3.5-4.6-16.6z" transform="matrix(.1 0 0 .1 1088 552)"/><path class="st16" d="M-10436.2-4744.7c2.9 1.3 12.3 6.7 13 10.6s-1.5 9.8-2 13.8c-1.6 11.8.9 20.5.9 20.5s-3.6 2.1-5.4 2.1-6.5-47-6.5-47z" transform="matrix(.1 0 0 .1 1088 552)"/><path class="st14" d="M-10456.1-4597.9c-9.2 5.6-9.9 12.4 2 18.7 13 7 20.7 5.5 30.8-.4 8.9-5.1 6.9-12.1-8.1-18.1-12.1-4.8-18.2-4.2-24.7-.2z" transform="matrix(.1 0 0 .1 1088 552)"/><path class="st20" d="M-10454.4-4707.9c-2.4 3.1-11.4 14.1-8.8 29.7 2.6 15.6 7 23.9 6.3 27.6-.8 3.7-3.6 10.7-2.9 18.5.8 9.6 3.6 19.5 3.8 22.7.2 3.2 1.3 6.2.4 8.7-.9 2.5-3 4.3-.9 6 1.8 1.4 1-.6 10.1 2.7 12.1 4.5 9.6-1.8 3.6-2.9-2.1-.4-4.1-4.7-4.7-7.6-.3-1.2-1.2-15.7-.4-22.3.8-6.6.9-16.9.8-19.9-.1-3 2.4-14.3 3.3-19.8 1.4-8.4 4-38.1 4-38.1l-14.6-5.3z" transform="matrix(.1 0 0 .1 1088 552)"/><path class="st5" d="M-10456.2-4599.6s-2.3 2.5-2.2 4.8c.1 2.3 1.8 5.6 1.8 6.9v3.2l1.7.9 1.6-.8s-.7-5.3.5-6.1c1.2-.8 4.7 1.9 7.2 2.5 2.4.6 8.2-.1 10.3-.9 2.2-.9.4-3.6-1.5-4.7-2.6-1.4-6.6-1.1-6.6-1.1s1.3.4 2.8 1.9c2.7 2.7-4.7 3.2-11.5-2.6-2.7-2.4-4.1-4-4.1-4z" transform="matrix(.1 0 0 .1 1088 552)"/><path class="st20" d="M-10446-4703.6s-5.3 12.7-5.3 18.9 4.1 8.4 4.8 10.4c.8 2 1 8.4 2.9 16s4.2 12.4 2 17.9c-3.5 8.7-2.9 16.3-1.8 26.9 1 10.6.2 16.6-.1 18.4-.4 2-3.5 3-1.9 5.4 2.2 3.2 8.3 3.6 11 4.9 3.2 1.5 7.2 2 8.1.4.9-1.5.2-3.9-3.4-3.7-3 .1-5.2-5-6.1-7.2-.9-2.2 1-9.5 2.6-21s2.1-24 2.9-28.7c.8-4.7 3.1-8.9 3.8-30.2.7-21.4-1.6-27.4-1.6-27.4l-17.9-1z" transform="matrix(.1 0 0 .1 1088 552)"/><path class="st5" d="M-10444.3-4593.9s-2.3 2-2.3 4.5 2.1 5.3 2.4 7.3.2 3.4.2 3.4l1.9.9 1.9-.8s-1.6-5.6.1-6.1c1.7-.5 6.7 3.6 9.8 3.6 3.1 0 7.2-3.9 7.2-5.3 0-1.5-3.4-3-5.4-2.9s-2.8.6-2.8.6 3 1.3 3.5 2.3c.4 1-.6 1.7-1.8 2-2.6.5-5-1.8-9.2-5.1-3.9-2.8-5.5-4.4-5.5-4.4z" transform="matrix(.1 0 0 .1 1088 552)"/><path class="st17" d="M-10452.9-4709.1s-9.2 9.7-10.3 18.3c-2.2 17.6-1.7 49.9-1.7 49.9s7.8 7.7 20 7.3c9.7-.3 16.6-3.3 16.6-3.3s3-35.7 2.9-44.9c-.1-8.1-2.5-19.7-2.5-19.7s-13-2-17.8-3.8c-4.8-1.7-7.2-3.8-7.2-3.8z" transform="matrix(.1 0 0 .1 1088 552)"/><path class="st20" d="M-10429.4-4739.2s1.5 1.1.6 7.5-.9 19.5.9 25.7c1.8 6.3 5.2 20 6.3 22.6 1.1 2.6 2.3 3.2 2.9 4.2.5.7 1.3 4.8.9 6.2-.5 1.4-2.8 5-4.7 5.6-2 .6-4.3.6-4.6-.3-.3-.9 1.7-1.2 2-2.6.3-1.4.5-6 .5-7.3 0-1.3-1.1-4.6-4.9-10.7-3.8-6.2-7-11.3-8.1-18.1-1-6.8-3.1-26.4-2.7-30.1.6-5.1 7.1-7.7 10.9-2.7z" transform="matrix(.1 0 0 .1 1088 552)"/><path class="st16" d="M-10449.3-4751c-3.5-.2-8.1-.7-10.3 1.5-2.2 2.2-2.8 4.6-1.6 9 1.2 4.4 8.1 21.8 7.5 25.4-1.2 7.7-5.9 13-5.9 13s3.7 2.4 13.3 3.6c2.6.3 9.3.8 9.3.8s2.2 7.3 2.7 9.2c1.4 5.3 1.8 10.1 1.8 10.1s5.4 1.4 8.9-.9c2.2-1.4 3.7-3.2 3.4-4-.3-.8-3-8.7-4.3-13.1-1.3-4.4-4.8-18.3-4.7-25 .1-6.7 3.5-13.8-.1-18.5-3.6-4.7-12-8.6-12-8.6l-8-2.5z" transform="matrix(.1 0 0 .1 1088 552)"/><path class="st20" d="M-10439.2-4778c3.3 1.2 4.6 4 5.1 10s-.2 9.7-.6 10.8c-.5 1-4.1 2.2-5 3.8-.9 1.5-1.6 4.7-1.1 5.3.9 1.2 1.7 1.2 1.7 1.2s-8.3 2-11.2.7c-2.9-1.3-2.8-3-2.3-3.6.6-.7 1.6-3.4 1.1-5-.6-1.5-7.4-7.7-5.3-14.9 2.7-8.6 10.8-10.7 17.6-8.3z" transform="matrix(.1 0 0 .1 1088 552)"/><path class="st13" d="M-10440.5-4753.1c2.5-1.4 4.8-9.9 4.8-9.9s.6 1.1.7 4.2c1.6-1.1 3.2-13.2-1.5-17.3-8.7-7.7-16.3-4.9-18.9-2 2.7-1 3.3-.5 3.4-.6 0 0-8.3 2.4-9.5 11.2-1.1 7.9 2.4 12 4.1 13.7 0-1.1.4-3.3.4-3.3s.3 8 6.5 9.7c8.2-2.5 9.2-10.4 9.2-10.4s1 1.4.8 4.7z" transform="matrix(.1 0 0 .1 1088 552)"/><path class="st20" d="M-10385.6-4696.1s.5 4.7 2.1 7 3.4 3.5 3.4 3.5l-.1-8.3-1.1-4.3-4.3 2.1zm50.2-3.4s.7 6.3 1.1 7.5c.3 1.2-.7 3.3-2.1 4-3.1 1.6-5.5 1.1-6.3.8-1.2-.4 2.6-12.7 2.6-12.7l4.7.4z" transform="matrix(.1 0 0 .1 1088 552)"/><path class="st0" d="M-10341.2-4761.9s7 1.1 9.7 5.3c2.7 4.2.2 14.2.4 20.6.2 6.4.2 17.5-.3 21.8s-2.2 10.6-2.2 12.4c0 1.8.4 3.3-2.4 3.5-2.8.2-5.6-.6-5.6-.6s-2.7-23.8-2.3-28.9c.5-5 2.7-34.1 2.7-34.1z" transform="matrix(.1 0 0 .1 1088 552)"/><path class="st14" d="M-10337.5-4748.6s1.2 11.1-.1 16.2c-1.3 5-2.5 9.9-1.8 13.6.7 3.7 2 9.6 1.3 14.2s-2.2 7-2.2 7l-5.9-25.3 5.4-16.4 3.3-9.3z" transform="matrix(.1 0 0 .1 1088 552)"/><path d="M-10346-4598.3c3.1 3.1 9.5 10.6 2.8 14.2-6.7 3.5-13.8 3.5-20.9 3.2-7.1-.3-25.2-3.2-28-6.3-2.8-3.2-3.9-7.9 2.8-9.1 6.7-1.2 11-5.9 20.1-5.5 9.1.4 22.4 2.7 23.2 3.5z" opacity=".3" fill="#262626" transform="matrix(.1 0 0 .1 1088 552)"/><path class="st17" d="M-10345.4-4594.3s-1.4 6.3-5.7 6.3c-4.3 0-18.7-2.2-18.7-2.2l11.4-8.7 13 4.6z" transform="matrix(.1 0 0 .1 1088 552)"/><path class="st17" d="M-10352.3-4589.4s.8 6.5-2.4 6.9c-3.2.4-14.4-1-17.6-1s-14.8-2.4-15.8-5.1c-1-2.7.4-5.7 4.7-5.7s12.2.2 13.6-.2c1.4-.4 17.5 5.1 17.5 5.1z" transform="matrix(.1 0 0 .1 1088 552)"/><path class="st17" d="M-10388.2-4591.4c0 .5.1.9.3 1.4 1 2.8 13 5.3 16.2 5.3s14.8 1.4 18.1 1c.2 0 .5-.1.7-.2-.4.7-.9 1.3-1.8 1.4-3.2.4-14.4-1-17.6-1s-14.8-2.4-15.8-5.1c-.2-1-.3-1.9-.1-2.8z" transform="matrix(.1 0 0 .1 1088 552)"/><path class="st5" d="M-10340.3-4700.3c.8 2.6-3.5 29.6-3.5 32.7s-1.8 17-1.4 21.5c.4 4.5 1.4 27.2 1.8 34.5.4 7.3-.4 18.9-2.4 20.1-2 1.2-8.7 1.2-10.6.8-2-.4-3.9-105.5-3.9-105.5l20-4.1z" transform="matrix(.1 0 0 .1 1088 552)"/><path class="st14" d="M-10340.3-4700.3c.8 2.6-3.5 29.6-3.5 32.7s-1.8 17-1.4 21.5c.4 4.5 1.4 27.2 1.8 34.5.4 7.3-.4 18.9-2.4 20.1-2 1.2-8.7 1.2-10.6.8-2-.4-3.9-105.5-3.9-105.5l20-4.1z" transform="matrix(.1 0 0 .1 1088 552)"/><path class="st5" d="M-10353.7-4694.3s-1 11.8-1 17.2c0 5.3 2.8 45 3.4 52.7.6 7.7 1.4 33.9.2 36.5-1.2 2.6-3.4 3.5-7.4 2.6-3.9-1-9.1-2.4-12.1-6.1-.8-1-2.9-2.7-2.9-2.7s3.2-5 2.6-10.5c-.6-5.5-1.2-15.4-1-19.7.2-4.3.2-10.6-1.4-16.4-1.6-5.8-5.7-17.9-6.9-35.9-1.2-17.9-.8-21.5-.8-21.5l27.3 3.8z" transform="matrix(.1 0 0 .1 1088 552)"/><path class="st20" d="M-10348.5-4763.4s-4.9.4-4.9-3.7.1-6.7.1-6.7 2.6-1.1 2.4-4.7c-.2-3.6-1.3-2.8-1.3-2.8l-19.4 1.8s-1.3.4-.3 3.9c.4 1.3 1.4 3 1.4 3.5s1 3.5 1.7 3.9 1.9 4.8 1.9 6.3-.7 3.5-.7 3.5 8.1.1 12.8-1c4.7-1.1 6.3-4 6.3-4z" transform="matrix(.1 0 0 .1 1088 552)"/><path class="st13" d="M-10353.7-4769.4c.4-.2.6-4.3.9-6.6.3-2.3 2.8-10-1.2-14.9-3.9-4.9-15.2-4.5-17.3 2.4-1.9 6.2-.7 10 1 13.5s3.5 5.2 4.1 6c.6.7 6.2 1.5 7.5 1.4 1.2 0 3.6-1.3 5-1.8z" transform="matrix(.1 0 0 .1 1088 552)"/><path class="st0" d="M-10367.4-4760.4c.6-.2 6 .6 10.5-.7 4.4-1.3 6.5-3.3 6.5-3.3s9.3 1.8 11.7 3c2.7 1.3 3.1 3.4 3.5 5.5.5 2.6.7 5.4.4 8.3-.9 9.1-4.1 11.7-5 14-.9 2.4-2.9 10.9-1.5 17.9 1.4 7 2 15.4 1.8 17.6-.2 2.2-2.4 7.7-14.7 8.3-14.5.7-26.8-4.6-26.8-4.6v-1.1s-.7 1.3-2.6 1.2c-1.9-.1-4-2.3-4-3 0-.7-.4-7.8-.7-9.4s-1.2-2.5 0-6.6 3.8-17.8 4.5-24.4c.7-6.5.9-8.8 4.1-12.6 3.3-3.7 12.3-10.1 12.3-10.1z" transform="matrix(.1 0 0 .1 1088 552)"/><path class="st14" d="M-10381-4695.4s2.1-3.1 2.4-5.1c.3-2 1-9.3 1.6-10.9.6-1.7.8-4.8 1.9-7.1 1.1-2.3 7.4-16.2 7.4-16.2s-.9 6.4-3 11.3c-.8 1.9-2.5 3.9-2.5 9.6 0 5.6-2.8 11.4-3.4 12.7-1.6 3.4-1.5 7-1.5 8-1.8-.6-2.9-1.1-2.9-1.1v-1.2z" transform="matrix(.1 0 0 .1 1088 552)"/></g><g id="i1433_1_"><path class="st14" d="M10544.4-4762.4c9.1 5.9 23.5 12.9 10.6 19.8-13.7 7.3-31.9-1.3-38.7-9.2-9.1-10.5-19.4-14-23.9-15.2-3.7-1-3.8-3.1 4.4-1.8 1.4.2 11.6 1.5 21.6 2.9 10.2 1.4 23.2 1.7 26 3.5z" transform="matrix(-.1 0 0 .1 1152 560)"/><path class="st23" d="M10536.3-4761.9s.8 2.9 2.8 4.1c2 1.2 6.1 3.4 6.5 4.3.4.9 1.4 3 3.5 2.6 2.1-.4 4.8-2.2 4.1-3.5-.7-1.3-1.7-.9-3.8-1.4-2.1-.5-5.2-2.4-6-3.7-.9-1.3-1.7-4-1.7-4l-5.4 1.6z" transform="matrix(-.1 0 0 .1 1152 560)"/><path class="st14" d="M10536.3-4761.9s.8 2.9 2.8 4.1c2 1.2 6.1 3.4 6.5 4.3.4.9 1.4 3 3.5 2.6 2.1-.4 4.8-2.2 4.1-3.5-.7-1.3-1.7-.9-3.8-1.4-2.1-.5-5.2-2.4-6-3.7-.9-1.3-1.7-4-1.7-4l-5.4 1.6z" transform="matrix(-.1 0 0 .1 1152 560)"/><path class="st23" d="M10509.4-4769.4s-8.5-1.5-12-8.3c-3.4-6.8-2-12.3-2.9-13.9s-3.1-1.2-3.6.6c-.5 1.8-1.2 13.5 4.9 19.8 6.3 6.3 13.8 7.8 13.8 7.8s1.8 6.3 5.5 8c3.7 1.7 5.1.5 5.1.5s-.9 2-.2 3.1c.7 1 8.4 3.1 9.5 4 1.1 1 2.1 3.8 4.9 2.8 2.8-1 3.7-2.1 3-3.4-.7-1.3-2.6-1.8-4-1.9-1.4-.1-6.5-2.5-6.5-2.5s2.2-2.1 2.7-3.7.3-2.7.3-2.7l6.9-2.6s1.2 5.4 1.5 9.2.5 5.6.9 7.4c.4 1.9.2 4.3 3.3 4 3.1-.3 4.3-1.1 3.9-2.3-.4-1.2-2.4-2.4-2.8-4.6-.4-2.1.1-12.9.4-14 .2-1.1 2.5-7.1 2.5-7.1l2.5-.5s1.1 7.8 1.5 11.3.7 9.2.7 10.4c0 1.2.7 2.6 2.2 2.7 1.5.2 4.6-.8 4.5-2.1-.1-1.3-2.3-3.1-2.5-4.6-.2-1.5-.5-14.8.9-19.4 1.4-4.6 2.4-7.1 2.4-7.1l-8.7-19.8s-3.5.8-7.9.7c-4.5-.1-17.8-.1-25.4 9.5-7.8 9.7-7.3 18.7-7.3 18.7z" transform="matrix(-.1 0 0 .1 1152 560)"/><path class="st0" d="M10546.3-4769.1s2.5-2.1 2.7-4.9c.2-2.8 1.8-5.1 3.2-6 1.4-1 6.2-3.4 6.2-3.4s1.3 4.3-.5 7.3-4.8 5.4-7.3 6.2c-2.5.8-4.3.8-4.3.8z" transform="matrix(-.1 0 0 .1 1152 560)"/><path class="st14" d="M10536.8-4761.8s-.7-3.1-1-5.4c-.2-2.4-.9-6-.9-6s-.9 2.1-2.8 3c-1.9.9-3.7 1.3-5.3.6-1.6-.7-5.4-2.7-5.4-2.7s5.7 3.8 6.8 6.9c1.2 3.1 1.6 6.3 1.6 6.3l7-2.7z" transform="matrix(-.1 0 0 .1 1152 560)"/><path class="st23" d="M10548.2-4793.8s-.5 2.8.7 5.7c1.3 2.9 4 5.2 5.4 6.9 1.3 1.6 2.8 3.2 5.8 2.9 3-.4 3.2-1.9 4.1-3.1.9-1.2 4.1-5.7 4.6-8.7.5-3.1.1-5.3.1-5.3s2.1-7.3.5-8.2c-1.6-.9-3.2 2.7-5.1 2.9-2 .2-2.9-.3-5.1-.2-2.2.1-5.7 1-5.7 1s-3.3-3.4-5.3-2.7c-2.4.9 0 8.8 0 8.8z" transform="matrix(-.1 0 0 .1 1152 560)"/><path d="M10559.7-4779.3c-.6 0-1.7-1-1.6-1.5.1-.5 2.9-.5 3.1.1.2.5-.9 1.4-1.5 1.4zm2.3-6.1s.3-1.8 1.8-2.4 2.1-.3 2.1-.3-.3 1.7-1.5 2.3c-1.1.6-2.4.4-2.4.4zm-4.7 0s-.6-1.8-2-2.3c-1.4-.5-2.4 0-2.4 0s.2 1.5 1.4 2 3 .3 3 .3z" transform="matrix(-.1 0 0 .1 1152 560)" fill="#2d3134"/><path class="st14" d="M10562.9-4796.5s4.8-7.5 6.4-6.9c1.2.4-.4 8-.4 8s-1.3-1.2-3-1.5c-1.6-.3-3 .4-3 .4zm-7.7-.1s-5.3-6.3-6.9-5.8c-2.2.7-.1 8.6-.1 8.6s1.6-2.1 2.9-2.6c1.3-.5 4.1-.2 4.1-.2z" transform="matrix(-.1 0 0 .1 1152 560)"/></g><g id="i1427_1_"><path class="st14" d="M-10423.4-4680.5c-11.2 7.2-11.7 13.7 0 19.9 12.8 6.9 21.3 3.1 31.3-2.5s11.2-12.7-3.5-18.6c-11.9-4.7-19.4-4.2-27.8 1.2z" transform="matrix(.1 0 0 .1 1144 552)"/><path class="st20" d="M-10422.4-4712.7c.5 6 1.5 16 1.2 22.4-.3 7-1.1 11-2 15-.9 4.2-6.2 7.7-2.4 8.7 3.8.9 8.8-.9 10.2-5.1 1.4-4.2 7-9.6 7.5-11.4.5-1.8-3.8-4.5-3.9-7.5-.1-3 .8-9.3 2.4-14.6 1.6-5.3.8-7.9.8-7.9l-13.8.4z" transform="matrix(.1 0 0 .1 1144 552)"/><path class="st25" d="M-10422.2-4683.2s5 1.4 7.7-.4c2.6-1.8 3.5-5.1 3.5-5.1s3 2.1 3.5 5.1-1.3 9.3-1.3 9.3l-2 2-3.1-1s-1.1 5.7-4.3 7.5c-3.5 1.9-9.8 1-10.2-.8-.7-3.2 2.4-4.2 3.7-6.3 1.3-2.1 2.5-10.3 2.5-10.3z" transform="matrix(.1 0 0 .1 1144 552)"/><path class="st15" d="M-10428.4-4667.2c0 .2 0 .4.1.6.4 1.8 6.7 2.7 10.2.8 3.3-1.8 4.3-7.5 4.3-7.5l3.1 1 2-2s1.3-4.6 1.4-7.9c-.4.8-1.1 1.5-2.1 2.1-3.4 2-3.9 3.3-5.1 6.7-1.1 3-1.6 6.1-5.7 7.2-2.5.8-6.3.3-8.2-1z" transform="matrix(.1 0 0 .1 1144 552)"/><path class="st20" d="M-10407.8-4709.9c0 2 1.6 16.8 1.2 22-.4 5.2-1.1 12.5-3.2 16.4-2.1 3.9-7.1 6.8-4.2 8.4s10.1 1.8 12.2-2.8c2.1-4.6 8-12.5 6.7-14.6-1.3-2.1-3.5-4.3-2.4-10.2 1.2-5.9 4.7-14.6 5.1-16.9.3-2.3-15.4-2.3-15.4-2.3z" transform="matrix(.1 0 0 .1 1144 552)"/><path class="st13" d="M-10409.7-4789.3l4.5 2s-2.4 3.5-2.2 8.1c.2 4.6 3.5 5.2 3.1 11.4-.4 6.2-2.6 8.8-4.7 11.9-1.9 2.8-14 13.3-15 18.4-1.4 7.1-.5 32.3 0 33.2s10.6 5.1 20.1 6.6c9.6 1.4 14.8-3.7 14.8-3.7s1.7-13.9 2-16.5c.3-2.6.3-4.5 5.1-5.9 4.9-1.4 18.4-6 20.3-17.7 2-11.7-1.5-19.7-4.1-25.5-2.6-5.8.2-23.5-.5-27.8-.7-4.3-3-7.1-9.4-9.6-5.7-2.3-13.1-4.1-18.5-4.3-5.4-.3-11.7-1.5-13.4 7.1-1.4 8.1-2.1 12.3-2.1 12.3z" transform="matrix(.1 0 0 .1 1144 552)"/><path class="st20" d="M-10379.3-4781l10 .6s-.8 16.5-1.2 18.5-2 4.5-6.3 11c-3.8 5.8-12.6 13.8-13.4 15.7-.8 2-2.1 4-4.5 4.9-2.4.9-3.3 1.6-4.4 3-1 1.3-2.8 3-5.8 2.2-3-.8-4.1-2.8-2.3-5.1 1.8-2.4 3.5-6 5.2-6.5s5.1-.8 5.9-1.2c1.2-.6 5.2-5.9 6.7-9.8 3.3-9.1 9.3-13.8 9.8-16.9.6-3.1.3-16.4.3-16.4z" transform="matrix(.1 0 0 .1 1144 552)"/><path class="st19" d="M-10379.1-4772.5l-.4-12.2s-3.8 13.5-10.2 12.2c-6.4-1.3-5.9-13.8-5.9-13.8s-3.3 8.8-7.9 9.4c-1.8.3-2.9-.1-3.6-.6.6 2.3 2.1 3.6 2.7 6.3 3.6 1.3 7.3-4.9 7.3-4.9s.5 8.3 7.5 8.7c6.8.4 10.5-5.1 10.5-5.1z" transform="matrix(.1 0 0 .1 1144 552)"/><path class="st25" d="M-10408.2-4678.1s3.8 1.4 6.2 0 4.7-6.7 4.7-6.7 2.8 1.2 2.8 5.1c-.1 3.9-.7 4.7-.7 6.4 0 1.7.3 3 .3 3l-1.6 1.6-3.1-.8s-1.1 6.1-4 8c-3.9 2.7-10.5 1.4-12.3-.5-1-1.1-.8-3.3 1.7-5 2.4-1.7 4.5-5.2 4.9-6.7l1.1-4.4z" transform="matrix(.1 0 0 .1 1144 552)"/><path class="st15" d="M-10399.6-4669.5l3.1.8 1.6-1.6s-.3-1.3-.3-3c0-1.6.6-2.4.7-6.4v-.4c-1.1 3-3 4.4-5.1 8.2-1.9 3.5-1.2 7.9-6.3 10.2-3.6 1.7-8.8-.3-10.4-1.4.1.4.3.7.5.9 1.8 1.9 8.4 3.1 12.3.5 2.8-1.7 3.9-7.8 3.9-7.8z" transform="matrix(.1 0 0 .1 1144 552)"/><path class="st20" d="M-10384.2-4834.4c-6.7-1.8-13 1.8-14.2 10.2-1.2 8.4.1 16 2.4 17.7 2.3 1.7 2.9 3.7 2.8 5.5-.1 1.8-.8 4.3-.8 4.3s9.1-4.2 12.2-5.1c3.1-.9 5-1.8 5-1.8s-3.7-4-3.4-8.1c.1-1.9 9.5-19-4-22.7z" transform="matrix(.1 0 0 .1 1144 552)"/><path class="st23" d="M-10398.8-4825.7c.9 1.3 9.4-.8 10.2 2 2.2 7.2 6.8 7.3 6.8 7.3s1-3.1 2.3-2.6.7 2.2.2 3.7c-.6 1.6-1.3 2.8.2 3 3 .5 8-11 5.5-17.5-2.5-6.6-8.3-6.1-8.3-6.1s-6.1-4.9-12.3-.1c-5.9 4.5-5.4 9.1-4.6 10.3z" transform="matrix(.1 0 0 .1 1144 552)"/><path class="st20" d="M-10409.1-4789l3.8 1.6s-2.4 6.3-2 8.8c.5 2.7 2.1 5.4 2.1 5.4s.6 1.1-.1 4.5c-.4 1.8-1.1 6.2-3.1 11.4-2.1 5.2-5.1 10-5.3 11.7-.1 1.7-.4 2.1-1.6 3.5s-2.9 1.4-3.1 2.4c-.2 1 .1 3.9-.8 5.1-.9 1.2-4.4 1.3-4.8 1-.4-.3-1.9-6.7-1.1-8.1.8-1.4 4.5-2.5 5.1-3.9.7-1.4 3.3-11.3 4.1-15.3.8-3.9 1.4-10.4 3.5-15.4 2.1-4.9 3.3-12.7 3.3-12.7z" transform="matrix(.1 0 0 .1 1144 552)"/></g><g transform="translate(1072 488)" id="i1738_1_"><ellipse class="st8" cx="-1033.5" cy="-450" rx="5.6" ry="3"/><path class="st13" d="M-1033-463c.6 0 1 .4 1 1v12c0 .6-.4 1-1 1s-1-.4-1-1v-12c0-.6.4-1 1-1z"/><path class="st7" d="M-1031.5-453c-1.4 0-2.5-1.1-2.5-2.5v-16c0-1.4 1.1-2.5 2.5-2.5s2.5 1.1 2.5 2.5v16c0 1.4-1.1 2.5-2.5 2.5z"/><path class="st7" d="M-1028.5-458c-1.4 0-2.5-1.1-2.5-2.5v-16c0-1.4 1.1-2.5 2.5-2.5s2.5 1.1 2.5 2.5v16c0 1.4-1.1 2.5-2.5 2.5z"/><path class="st7" d="M-1029.5-461c-1.4 0-2.5-1.1-2.5-2.5v-16c0-1.4 1.1-2.5 2.5-2.5s2.5 1.1 2.5 2.5v16c0 1.4-1.1 2.5-2.5 2.5z"/><path class="st7" d="M-1031.8-488c-1.3.1-2.2 1.3-2.2 2.6 0 .3-.2.5-.5.4-.5-.1-1-.1-1.6.2-1.2.5-1.9 1.8-1.9 3.1v1.3c0 .2-.2.4-.4.4s-.4 0-.6.1c-1.2.2-2 1.3-2 2.5v15.8c0 .8.4 1.6 1 2.1s1 1.3 1 2.1v.9c0 1.4 1.1 2.5 2.5 2.5h1c1.4 0 2.5-1.1 2.5-2.5v-5.1c.6-.6 1-1.5 1-2.4v-8.1c.3.1.6.1 1 0 1.2-.2 2-1.4 2-2.6v-10.9c0-1.4-1.3-2.6-2.8-2.4z"/><path class="st7" d="M-1033-461.6c.6-.6 1-1.5 1-2.4v-2c0 .9-.4 1.8-1 2.4v2z"/><path d="M-1031.5-455c-1.1 0-2-.7-2.3-1.6-.4.4-1 .6-1.7.6h-1c-1.4 0-2.5-1.1-2.5-2.5v2c0 1.4 1.1 2.5 2.5 2.5h1c.6 0 1.2-.2 1.7-.6.4 1 1.3 1.6 2.3 1.6 1.4 0 2.5-1.1 2.5-2.5v-2c0 1.4-1.1 2.5-2.5 2.5zm3-5c-.2 0-.3 0-.5-.1v2c.2 0 .3.1.5.1 1.4 0 2.5-1.1 2.5-2.5v-2c0 1.4-1.1 2.5-2.5 2.5zm-3-4h-1c-.5.6-1.2 1-2 1-1.4 0-2.5-1.1-2.5-2.5v2c0 1.4 1.1 2.5 2.5 2.5.8 0 1.5-.4 2-1h1c1.4 0 2.5-1.1 2.5-2.5v-2c0 1.4-1.1 2.5-2.5 2.5zm0-8c-.2 0-.3 0-.5-.1v2c.2 0 .3.1.5.1 1.4 0 2.5-1.1 2.5-2.5v-2c0 1.4-1.1 2.5-2.5 2.5z"/><path class="st27" d="M-1032-483c-1.1 0-2 .9-2 2v.3h-1.2c-1.1 0-2 .9-2 2v1.4c-.9.2-1.6 1-1.6 2v2c0-1 .7-1.8 1.6-2v-1.4c0-1.1.9-2 2-2h1.2v-.3c0-1.1.9-2 2-2s2 .9 2 2v-2c0-1.1-.9-2-2-2z"/><path class="st8" d="M-1039-458.5v-.9c0-.8-.3-1.6-1-2.1-.6-.5-1-1.3-1-2.1v2c0 .8.4 1.6 1 2.1s1 1.3 1 2.1v-1.1z"/></g><g transform="translate(1048 512)" id="i1745_1_"><ellipse class="st8" cx="-1032.5" cy="-434" rx="7.5" ry="4"/><path class="st13" d="M-1031-458v24c0 .6-.7 1-1.5 1s-1.5-.4-1.5-1v-24h3z"/><circle class="st7" cx="-1023.5" cy="-459.5" r="6.5"/><circle class="st7" cx="-1027" cy="-468" r="9"/><path class="st13" d="M-1033-445.6c-2.6 0-3-.9-3-3.4v-8h-1v10c0 1.7 1.3 3 3 3h1v-1.6zm1 1.4c1.7 0 3-.4 3-2.1v-9.7h1v10c0 1.7-1.3 3-3 3h-1v-1.2z"/><path class="st13" d="M-1036-447.2c-1.7 0-2-1.3-2-2.1v-9.7h-1v10c0 1.7 1.3 3 3 3v-1.2z"/><circle class="st7" cx="-1037" cy="-458" r="9"/><circle class="st7" cx="-1042" cy="-462" r="6"/><path class="st13" d="M-1037-458.2c-1.7 0-3-.4-3-2.1v-2.7h-1v3c0 1.7 1.3 3 3 3h1v-1.2z"/><circle class="st7" cx="-1038" cy="-470" r="8"/><circle class="st7" cx="-1034" cy="-474" r="8"/><circle class="st7" cx="-1027.5" cy="-476.5" r="4.5"/><path class="st27" d="M-1041.9-468c2.2 0 4.1 1.3 4.9 3.1.3-.1.7-.1 1.1-.1 1.8 0 3.4.9 4.4 2.2-.4-1.8-2-3.2-3.9-3.2h-.1c-.5-2.3-2.5-4-4.9-4-2 0-3.7 1.2-4.5 2.9.8-.6 1.9-.9 3-.9z"/><path class="st13" d="M-1034-470.6c.2.2.5.4.7.6h.3v-3c-.3 0-.7-.1-1-.2v2.6z"/><path class="st27" d="M-1033.5-478c2.4 0 4.3 1.9 4.5 4.2.5-.1 1-.2 1.5-.2 2.5 0 4.6 1.6 5.3 3.9.1-.4.2-.9.2-1.4 0-2.5-2-4.5-4.5-4.5-.5 0-1 .1-1.5.3-.1-1.8-1.6-3.3-3.5-3.3-1 0-1.9.4-2.5 1h.5z"/><path class="st8" d="M-1018.1-466.6c-1.7 1.9-4.1 3.1-6.8 3.1h-.6c1 1.1 1.6 2.4 1.7 3.9 2.9-1.1 5.2-3.8 5.7-7zm-2.4 10.3c.3.7.4 1.5.5 2.3 1.7-1.1 2.9-2.9 3-5-.8 1.3-2.1 2.2-3.5 2.7zm-21.8-11.7c-1.6-1.4-2.7-3.5-2.7-5.9-.6 1.1-1 2.5-1 3.9 0 1.1.2 2.1.6 3.1.9-.7 2-1 3.1-1.1z"/><path class="st13" d="M-1027-466.4c0 1.7-1.3 2.1-3 2.1v1.3h1c1.7 0 3-1.3 3-3v-2c-.3 0-.7-.1-1-.2v1.8z"/><circle class="st7" cx="-1029.2" cy="-455.2" r="9.3"/><path class="st27" d="M-1033-458c1.2 0 2.3.3 3.3.8 1.2-1.1 2.9-1.8 4.7-1.8 1.6 0 3.1.5 4.2 1.4-1.1-2-3.3-3.4-5.7-3.4-1.6 0-3.1.6-4.2 1.6-.7-.4-1.5-.6-2.3-.6-2.4 0-4.4 1.7-4.9 4 1.3-1.2 3-2 4.9-2z"/><path class="st8" d="M-1028.2-448c-3.8 0-7-2-8.8-5h-.9c-3.5 0-6.5-2-8-4.9 0 4.9 4 8.9 8.9 8.9h.9c1.7 1.9 4.1 3 6.8 3 3.6 0 6.6-2 8.2-4.9-1.8 1.8-4.4 2.9-7.1 2.9z"/></g><g transform="translate(1128 600)" id="i1746_1_"><path class="st28" d="M-1033-489l16 8-16 8-16-8z"/><path class="st28" d="M-1033-489l16 8-16 8-16-8z"/><path class="st28" d="M-1033-489l16 8-16 8-16-8z"/><path class="st28" d="M-1033-489l16 8-16 8-16-8z"/><ellipse class="st7" cx="-1039" cy="-484" rx="2" ry="1"/><ellipse class="st7" cx="-1042" cy="-479" rx="2" ry="1"/><ellipse class="st7" cx="-1033" cy="-481" rx="2" ry="1"/><ellipse class="st7" cx="-1031" cy="-486" rx="2" ry="1"/><ellipse class="st7" cx="-1025" cy="-480" rx="2" ry="1"/><ellipse class="st7" cx="-1033" cy="-475" rx="2" ry="1"/><ellipse class="st16" cx="-1041" cy="-482.5" rx="3" ry="1.5"/><ellipse class="st29" cx="-1041" cy="-482.5" rx="1" ry=".5"/><ellipse class="st16" cx="-1033" cy="-486.5" rx="3" ry="1.5"/><ellipse class="st29" cx="-1033" cy="-486.5" rx="1" ry=".5"/><ellipse class="st16" cx="-1030" cy="-482.5" rx="3" ry="1.5"/><ellipse class="st29" cx="-1030" cy="-482.5" rx="1" ry=".5"/><ellipse class="st16" cx="-1023" cy="-480.5" rx="3" ry="1.5"/><ellipse class="st29" cx="-1023" cy="-480.5" rx="1" ry=".5"/><ellipse class="st16" cx="-1031" cy="-476.5" rx="3" ry="1.5"/><ellipse class="st29" cx="-1031" cy="-476.5" rx="1" ry=".5"/><ellipse class="st16" cx="-1039" cy="-478.5" rx="3" ry="1.5"/><ellipse class="st29" cx="-1039" cy="-478.5" rx="1" ry=".5"/></g><g transform="translate(1160 584)" id="i1748_1_"><path class="st28" d="M-1033-489l16 8-16 8-16-8z"/><path class="st28" d="M-1033-489l16 8-16 8-16-8z"/><path class="st28" d="M-1033-489l16 8-16 8-16-8z"/><path class="st28" d="M-1033-489l16 8-16 8-16-8z"/><ellipse class="st7" cx="-1039" cy="-484" rx="2" ry="1"/><ellipse class="st7" cx="-1042" cy="-479" rx="2" ry="1"/><ellipse class="st7" cx="-1033" cy="-481" rx="2" ry="1"/><ellipse class="st7" cx="-1031" cy="-486" rx="2" ry="1"/><ellipse class="st7" cx="-1025" cy="-480" rx="2" ry="1"/><ellipse class="st7" cx="-1033" cy="-475" rx="2" ry="1"/><ellipse class="st16" cx="-1041" cy="-482.5" rx="3" ry="1.5"/><ellipse class="st29" cx="-1041" cy="-482.5" rx="1" ry=".5"/><ellipse class="st16" cx="-1033" cy="-486.5" rx="3" ry="1.5"/><ellipse class="st29" cx="-1033" cy="-486.5" rx="1" ry=".5"/><ellipse class="st16" cx="-1030" cy="-482.5" rx="3" ry="1.5"/><ellipse class="st29" cx="-1030" cy="-482.5" rx="1" ry=".5"/><ellipse class="st16" cx="-1023" cy="-480.5" rx="3" ry="1.5"/><ellipse class="st29" cx="-1023" cy="-480.5" rx="1" ry=".5"/><ellipse class="st16" cx="-1031" cy="-476.5" rx="3" ry="1.5"/><ellipse class="st29" cx="-1031" cy="-476.5" rx="1" ry=".5"/><ellipse class="st16" cx="-1039" cy="-478.5" rx="3" ry="1.5"/><ellipse class="st29" cx="-1039" cy="-478.5" rx="1" ry=".5"/></g><g id="i1751_1_"><path class="st14" d="M-10369.5-4736.9c23.2-11.7-8.7-26.2-23.6-31.3-14.9-5.2-29.7-10.9-41.5-8.7-11.8 2.2-11.1 12.4 4.3 17.3 15.3 4.8 36.4 10.8 40.2 15.8 3.9 5 6.8 13.9 20.6 6.9z" transform="matrix(.1 0 0 .1 1184 584)"/><path class="st30" d="M-10397-4778s9.1 4.8 12.2 6.9c3.1 2.1 7.5 5.8 7.5 5.8s-2.1 2-2.4 4.1-.4 4.7-.4 4.7-10.2-5.4-14.2-6.8c-4.1-1.4-14.4-6-14.4-6l11.7-8.7z" transform="matrix(.1 0 0 .1 1184 584)"/><path class="st14" d="M-10397-4778s9.1 4.8 12.2 6.9c3.1 2.1 7.5 5.8 7.5 5.8s-2.1 2-2.4 4.1-.4 4.7-.4 4.7-10.2-5.4-14.2-6.8c-4.1-1.4-14.4-6-14.4-6l11.7-8.7z" transform="matrix(.1 0 0 .1 1184 584)"/><path class="st20" d="M-10422.4-4809.5s-3.4 8.6-4.7 9.6c-1.3 1-4.8 3.7-5.5 4.8-.9 1.4-2.8 5.9-2 6.6.9.9 3.5-3.9 3.5-3.9s.1 1.5-1.5 4.5c-.8 1.6-2.6 5.7-1.3 6.3 1.3.5 5.9-2.3 7.2-4.2s2.7-5.1 3.2-6.1c.4-1 1.1-2.5 1.3-3.6.2-1.1-.1-1.6.4-2.6.4-1 6-8.6 6-8.6l-6.6-2.8z" transform="matrix(.1 0 0 .1 1184 584)"/><path class="st31" d="M-10420.2-4816.9l-3.6 10.4 5.9 3.2 5.9-8z" transform="matrix(.1 0 0 .1 1184 584)"/><path class="st20" d="M-10450.9-4811.2l-.2 6.2s-6.9-1-8.6-1.5c-1.7-.4-7.4-2.5-8.4-3.3-1-.7-3.4-3.1-2.9-6.2.2-1.6 2.7-3.9 4.2-3.8s.9 1.4.3 2-1 1.4.1 1.8c1.1.4 2.5-.1 3.6 1.5s.7 3.2 2.3 3.4c1.6.3 9.6-.1 9.6-.1z" transform="matrix(.1 0 0 .1 1184 584)"/><path class="st31" d="M-10451.6-4811.5l-.7 6.8s6.9 1.5 10.5 1.6c3.6.1 8.8.3 10-1.7s1.7-8.2 1.9-10c.1-1.8.1-5 .1-5s1.8 2.9 4.3 3.4c2.4.5 5.9-.7 7.2 1.3 1.3 1.9 6.7 12.3 6.7 12.3s12.7-2.9 17.9-6.1c5.2-3.3 8.2-5.9 8.2-5.9s-10.8-16.8-14.8-21.1c-4.1-4.3-14-17.9-18.3-18.2-4.2-.3-9.4-.7-9.4-.7l-8.3 5.7s-2.6 7.6-4.3 10.7c-1.7 3.1-2.7 7.2-2 10.7.7 3.5 2.4 9 2.6 11s.5 4.7.5 4.7-2.4-.1-5.3-.1-6.8.6-6.8.6z" transform="matrix(.1 0 0 .1 1184 584)"/><path class="st30" d="M-10440-4840.3l1.2-2.8s6.6-2.7 12.7 1c6.1 3.6 19.7 19.1 19.7 19.1l8.1-4.8s-7.9-11.9-13.5-17.9c-4.5-4.9-12.2-8.5-12.2-8.5l3.3-.2s5.4 2.2 10.3 7.5c6.9 7.5 15.9 20.6 15.9 20.6l5.4 3.3s8 10 10.9 14.9c4.2 7.3 3.7 20-10.5 26.8-4.9 2.4-11.4 7.1-13.7 9.2-2.3 2.1-5 4-5 4s8.5 3.8 11.4 5.4 8.6 3.6 8.6 3.6l-3.5 11.2s-12-5-15.4-6.2c-3.5-1.2-13.5-3.7-16.5-5-3-1.3-3.6-6.2-2.4-9.5 1.3-3.9 4.1-12.2 8.1-18.6 2-3.3 5.1-7.5 6.1-9.8 1-2.3-1.3-7.2-2.6-9-1.3-1.8-2.2-3.8-4.8-6.1-2.5-2.3-7.1-3.5-9.8-5.5-1-.8-1.5-2.1-1.5-2.1s4 3.2 9.8 3.4c3 1.6 5.4 4.6 6.2 4.7 3.4.2 6.1-2.5 6.5-4.4.3-1.5-1-4.4-1.7-5.4s-16.4-17.8-20.2-19.3c-6-2.1-10.9.4-10.9.4z" transform="matrix(.1 0 0 .1 1184 584)"/><path class="st13" d="M-10380.4-4768.2c2 .8 3.5 1.3 5.7.8s4.6-1.3 6.2-.6c1.6.7 2.4 1.3 3.1 4.1.7 2.9.7 3.4.7 3.4l-.8.1s1.1 2.5 2 4.7c.9 2.1.8 10.1-1.6 12.3-2.4 2.1-4.6 1.7-5.7.4-1.9-2.3-2-7-3.3-8-1.3-1-7.8-2.3-7.8-2.3s1.9-5.4 2.1-8.5-.6-6.4-.6-6.4z" transform="matrix(.1 0 0 .1 1184 584)"/><path class="st18" d="M-10363.5-4755.6c-.9-2.1-2-4.7-2-4.7l.8-.1s0-.5-.7-3.4-1.5-3.4-3.1-4.1c-.4-.2-.8-.3-1.3-.3-1.1.5-1.8 1.2-1.6 3.3.2 3 1 5.2 1.2 8.4.2 3.1-.8 7.5.5 11.6.5 1.5 1.2 2.4 2.1 3 .8-.2 1.7-.6 2.6-1.4 2.3-2.2 2.4-10.2 1.5-12.3z" transform="matrix(.1 0 0 .1 1184 584)"/><path class="st20" d="M-10453.2-4866.3c-.8 2.6 1.4 9.5 3.8 12.9 2.4 3.4 4.4 5 5.9 4.8 1.6-.1 2.6-1.4 3.7-.7s2.5 2.7 2.5 2.7 2.1-3.4 4.2-4.4c2.1-1 4.5-3.3 4.5-3.3s-4-2.7-4.4-4.2 1.7-9.5-1.5-12.6-15.3-6-18.7 4.8z" transform="matrix(.1 0 0 .1 1184 584)"/><path class="st21" d="M-10448.5-4861c.9-.2 1.7-2.4 3.1-1 1.4 1.4 2.1 4.4 4.3 5.8 2.2 1.4 6.9-.3 7.7-1 .7-.7 2.2-6.5 1.6-9.5-.6-3-5.4-12.7-15.4-9.5s-7.2 12.8-6.3 14c.9 1.4 3.4 1.5 5 1.2z" transform="matrix(.1 0 0 .1 1184 584)"/><path class="st31" d="M-10434.4-4867.6c-3.3.8-4.4 4-3.3 5.6 1.1 1.6 3.5.9 5 .3 1.6-.6 2.1-3.3 1.6-4.4-.4-1.2-2.3-1.7-3.3-1.5z" transform="matrix(.1 0 0 .1 1184 584)"/><path class="st21" d="M-10434.3-4866.1c-1.9 1-4.4 5.7-2.8 9.1 1.6 3.4 7.3 3.7 8.9 6.9 1.6 3.3-.4 10.1-.4 10.1s8.6-10.1 5.9-17.5c-2.8-7.1-7.4-10.8-11.6-8.6z" transform="matrix(.1 0 0 .1 1184 584)"/><path class="st13" d="M-10390.7-4760.7c1.4.5 4.5.4 6.1.3 1.6-.1 4.5-1.3 5.6 1.2s1.9 6 1.9 6l-.4.3s.8 3.3 2 5.3 4.3 11 1.3 12.3c-3 1.3-4.5.1-6-1.1-1.5-1.2-3.4-5.6-3.7-6.5-.3-.9-3.3-2.4-5-2.7-1.8-.2-4.2-1.1-4.2-1.1s1.4-6.7 1.8-9c.3-2.4.6-5 .6-5z" transform="matrix(.1 0 0 .1 1184 584)"/><path class="st18" d="M-10375.5-4747.6c-1.2-2-2-5.3-2-5.3l.4-.3s-.8-3.5-1.9-6c-.4-.8-.9-1.2-1.5-1.4-2.8.9-3.4 2.6-2.9 5.5.5 3 .5 5.8.9 9.2.3 3.1 1.3 8.6 5.2 11.1.9.2 1.9.1 3.2-.5 3-1.3-.2-10.3-1.4-12.3z" transform="matrix(.1 0 0 .1 1184 584)"/></g></svg>