<svg xmlns="http://www.w3.org/2000/svg" width="11" height="25.1"><style>.st0{opacity:.3;enable-background:new}.st1{fill:#825012}.st2{fill:#fc0}</style><g transform="translate(208 696)" id="i2101_1_"><ellipse class="st0" cx="-201.3" cy="-672.4" rx="3.3" ry="1.5"/><path class="st1" d="M-201.9-681.9v9.1c0 .2.2.3.5.3s.5-.1.5-.3v-9.1h-1z"/><path transform="rotate(-86.853 -203.806 -680.658)" class="st2" d="M-207.5-680.8h7.3v.2h-7.3z"/><path transform="rotate(-86.853 -203.168 -680.67) scale(1.00001)" class="st2" d="M-206.8-680.8h7.3v.2h-7.3z"/><path transform="rotate(-86.853 -202.083 -680.65) scale(1.00001)" class="st2" d="M-205.7-680.7h7.3v.2h-7.3z"/><path transform="rotate(-86.853 -202.447 -680.48) scale(1.00001)" class="st2" d="M-206.1-680.6h7.3v.2h-7.3z"/><path transform="rotate(-86.906 -201.713 -680.346) scale(.99996)" class="st2" d="M-205.4-680.4h7.3v.2h-7.3z"/><path transform="rotate(-86.853 -202.77 -680.581) scale(1.00001)" class="st2" d="M-206.4-680.7h7.3v.2h-7.3z"/><path transform="rotate(-86.853 -203.458 -680.476) scale(1.00001)" class="st2" d="M-207.1-680.6h7.3v.2h-7.3z"/><path transform="rotate(-5.122 -199.517 -680.901)" class="st2" d="M-199.6-684.4h.2v6.9h-.2z"/><path transform="rotate(-5.12 -200.619 -680.578) scale(.99999)" class="st2" d="M-200.7-684h.2v6.9h-.2z"/><path transform="rotate(-5.122 -199.907 -680.461)" class="st2" d="M-200-683.9h.2v6.9h-.2z"/><path transform="rotate(-5.126 -199.13 -680.86)" class="st2" d="M-199.2-684.3h.2v6.9h-.2z"/><path transform="rotate(-5.122 -200.284 -680.793)" class="st2" d="M-200.4-684.2h.2v6.9h-.2z"/><path transform="rotate(-5.122 -200.864 -680.663)" class="st2" d="M-201-684.1h.2v6.9h-.2z"/><path class="st2" d="M-204.9-687.8l7.9-3-.1-.2-5 1.9 2.7-1.3 2.1-.6v-.3l-.6.2.9-.4-.1-.2-2.4 1.1-1.5.5 3.5-1.5-.1-.2-1.5.6 1.1-.5-.1-.2-5.1 2.4h-.1l-4.7 1.5.1.2 2.5-.8-2.5 1 .1.3.7-.3-.6.3.1.2 4.5-2.2 2.2-.6-4.1 1.9-3 1.1.1.2.4-.1.1.2z"/><path transform="rotate(-21.23 -201.986 -688.496)" class="st2" d="M-207.3-688.6h10.7v.2h-10.7z"/><path d="M-202.8-690.9s-.9.8-1.3 1c-.4.2-2 .9-2.2 1l-1.2.6s.5.1.7.7c.3.6.2 1.2.2 1.2l2-.1.5 1.5c.1.6.2.7.2.7l4.4.3s-.2-2.6.4-3.9c.6-1.3 1.6-2 1.6-2s.1-.5-.2-1-1.1-.6-1.1-.6l-1.7.7-.6 1-1.7-1.1z" fill="#cc291f"/><path class="st0" d="M-203.1-690.4c.1.1 1.2 1.3 1.2 1.3l.7-.8.8.4-.1-.8.5 1-1.1-.5-.8 1.1-1.2-1.7z"/><path d="M-204.3-685.4v7.8l2.7-.1.2-4.5.5 4.5 2.2-.4-.8-8.7-.1-.7s0-1.4-.3-2.3c-.2-.7-.7-1.3-.7-1.3l-.2.2s.5.5.7 1.6c.1.6.2 1.8.2 1.8l-2 .4s-.3-.8-.7-1.5c-.5-1-1.1-1.6-1.1-1.6l-.4.3s.4.5 1 1.5c.4.4.6 1.5.6 1.5l-1.8 1.5z" fill="#39c"/><path class="st0" d="M-201.7-686.4c-.1.7.6 1.2 1.2 1 .5-.2.6-.7.6-1.4l-1.8.4z"/><circle cx="-202.3" cy="-692.1" r="2.2" fill="#e5e5e5"/><path d="M-201.7-690.5c-.2 0-.4-.1-.6-.2-.1 0-.1-.1 0-.2 0-.1.1-.1.2 0 .4.3.9.1 1 0 .2-.1.3-.3.3-.4 0-.1 0-.1.1-.1s.1 0 .1.1c0 .2-.1.5-.4.7-.3 0-.5.1-.7.1zm.8-1.7h-.1l.1-.2-.2-.1-.1.2-.1-.1-.1.2.1.1v.1l.2.1v-.1h.2zm-1.4.2l-.2-.1v.1h-.1l-.1.2h.1v.2h.2v-.1h.1l.1-.2h-.1z" opacity=".5"/><ellipse transform="rotate(-12.393 -202.595 -693.189)" class="st1" cx="-202.6" cy="-693.2" rx="3.4" ry="1.2"/><path class="st1" d="M-200.4-693.9c-.1-.3-1.7-1.8-1.8-1.9-.2-.2-.6-.3-1.2-.1-.6.1-1.1.4-1 .6 0 0-.3 2.2-.3 2.3.1.4 1.1.5 2.3.3 1.2-.2 2-.8 2-1.2z"/></g></svg>