<svg xmlns="http://www.w3.org/2000/svg" width="23.5" height="34.6"><style>.st0{opacity:.3;enable-background:new}.st1{fill:#f90}.st2,.st3{opacity:.11;enable-background:new}.st3{opacity:.29}.st4{fill:#2d3134}.st5,.st9{opacity:.39;enable-background:new}.st9{opacity:.2}.st10{fill:#39c}.st11{fill:#fbd7c7}.st12{opacity:.4;enable-background:new}.st13{fill:#06547a}.st14{fill:#9c3}.st15{fill:#762c07}.st17{fill:#262626}.st18{opacity:.5;enable-background:new}.st19{fill:#656565}.st21{opacity:.15;enable-background:new}</style><g id="i1571_1_"><path class="st0" d="M-9164.7-3726l-48 24 116 58 48-24z" transform="matrix(.1 0 0 .1 928 384)"/><path class="st1" d="M-9203.7-3730.3v16l16 8 16-8v-29l-16 5z" transform="matrix(.1 0 0 .1 928 384)"/><path class="st2" d="M-9187.7-3706.3l-16-8v-16l16-5z" transform="matrix(.1 0 0 .1 928 384)"/><path class="st3" d="M-9187.7-3706.3l16-8v-29l-16 8z" transform="matrix(.1 0 0 .1 928 384)"/><path class="st4" d="M-9197.2-3722c-2.7-1.4-5.1-1.5-7-.7l-5.1 2.5c-1.9.9-3.2 2.9-3.2 5.8 0 5.6 4.5 12.4 10.1 15.2 2.8 1.4 5.3 1.5 7.1.6 0 0 5-2.5 5.5-2.8 1.6-1 2.6-2.9 2.6-5.5.1-5.5-4.4-12.3-10-15.1z" transform="matrix(.1 0 0 .1 928 384)"/><path class="st5" d="M-9195.1-3698.6c.7-.4 5-2.5 5.3-2.7 1.6-1 2.6-2.9 2.6-5.5 0-2.3-.7-4.7-2-7l-5.1 2.5c1.2 2.3 2 4.7 2 7 .1 2.8-1 4.8-2.8 5.7z" transform="matrix(.1 0 0 .1 928 384)"/><path d="M-9194.7-3705.6c0 4.2-3.4 5.9-7.6 3.8-4.2-2.1-7.6-7.2-7.6-11.4s3.4-5.9 7.6-3.8 7.6 7.2 7.6 11.4z" fill="#a9abb0" transform="matrix(.1 0 0 .1 928 384)"/><path d="M-9201.7-3702.1c-4.2-2.1-7.6-7.2-7.6-11.4 0-2.1.8-3.5 2.2-4.2-1.7.5-2.8 2.1-2.8 4.5 0 4.2 3.4 9.3 7.6 11.4 2.1 1.1 4.1 1.1 5.4.4-1.3.4-2.9.2-4.8-.7z" fill="#808285" transform="matrix(.1 0 0 .1 928 384)"/><path class="st4" d="M-9198.5-3708.1c0 1.8-1.4 2.5-3.2 1.6-1.8-.9-3.2-3-3.2-4.8s1.4-2.5 3.2-1.6c1.8.9 3.2 3.1 3.2 4.8z" transform="matrix(.1 0 0 .1 928 384)"/><path class="st5" d="M-9198.5-3708.1c0 1.8-1.4 2.5-3.2 1.6-1.8-.9-3.2-3-3.2-4.8s1.4-2.5 3.2-1.6c1.8.9 3.2 3.1 3.2 4.8z" transform="matrix(.1 0 0 .1 928 384)"/><path class="st4" d="M-9199.1-3707.8c0 1.8-1.4 2.5-3.2 1.6-1.8-.9-3.2-3-3.2-4.8s1.4-2.5 3.2-1.6c1.8.9 3.2 3.1 3.2 4.8z" transform="matrix(.1 0 0 .1 928 384)"/><path d="M-9192.2-3704.3c0 5.6-4.5 7.9-10.1 5.1s-10.1-9.6-10.1-15.2 4.5-7.9 10.1-5.1 10.1 9.6 10.1 15.2z" opacity=".06" transform="matrix(.1 0 0 .1 928 384)"/><path class="st1" d="M-9175.7-3807c-2.2 0-4 .9-4 2v69c0 1.1 1.8 2 4 2s4-.9 4-2v-69c0-1.1-1.8-2-4-2z" transform="matrix(.1 0 0 .1 928 384)"/><path class="st9" d="M-9175.7-3803c-2.2 0-4-.9-4-2v69c0 1.1 1.8 2 4 2s4-.9 4-2v-69c0 1.1-1.8 2-4 2z" transform="matrix(.1 0 0 .1 928 384)"/><path class="st1" d="M-9175.7-3799c-.6 0-1.2-.2-1.8-.5l-22.6-13.3c-1.1-.7-1.8-1.9-1.7-3.1 0-1.3.8-2.4 1.9-3l41.7-20.7c1.4-.7 3-.4 4.1.7 1.1 1.1 1.3 2.8.5 4.1l-19 34c-.5.8-1.2 1.4-2.1 1.7-.4.1-.7.1-1 .1zm-15.3-16.6l14 8.2 11.7-21-25.7 12.8z" transform="matrix(.1 0 0 .1 928 384)"/><path class="st9" d="M-9154.2-3838.9c-1.1-1.1-2.7-1.4-4.1-.7l-41.6 20.6c-1.2.6-1.9 1.7-1.9 3s.6 2.5 1.7 3.1l22.7 13.3c.5.3 1.2.5 1.8.5.3 0 .6 0 .9-.1.9-.2 1.7-.8 2.1-1.7l19-34c.7-1.2.5-2.9-.6-4zm-22.8 31.6l-14-8.2 25.8-12.8-11.8 21zm19.6-27.9l-41.6 20.7c-.2.1-.4.2-.7.2-.6 0-1.1-.3-1.3-.8-.4-.7-.1-1.6.7-2l41.6-20.7c.7-.4 1.6-.1 2 .7.4.8.1 1.6-.7 1.9z" transform="matrix(.1 0 0 .1 928 384)"/><path class="st1" d="M-9185.7-3756l16-8 8 4 14 28v14l-44 22.1-8-4v-14z" transform="matrix(.1 0 0 .1 928 384)"/><path class="st2" d="M-9199.7-3699.9l8 4v-14l14-42.1-8-4-14 42.1z" transform="matrix(.1 0 0 .1 928 384)"/><path class="st3" d="M-9147.7-3718l-44 22.1v-14l14-42.1 16-8 14 28z" transform="matrix(.1 0 0 .1 928 384)"/><path class="st1" d="M-9089.7-3648l10.5-5.2v-1.5l-102-51-10.5 5.2v4.5l75 37.5z" transform="matrix(.1 0 0 .1 928 384)"/><path class="st3" d="M-9079.2-3654.7v1.5l-10.5 5.2v-1.5z" transform="matrix(.1 0 0 .1 928 384)"/><path class="st2" d="M-9191.7-3700.5v4.5l75 37.5 27 10.5v-1.5z" transform="matrix(.1 0 0 .1 928 384)"/><path class="st1" d="M-9055.7-3665l10.5-5.2v-1.5l-102-51-10.5 5.2v4.5l75 37.5z" transform="matrix(.1 0 0 .1 928 384)"/><path class="st3" d="M-9045.2-3671.7v1.5l-10.5 5.2v-1.5z" transform="matrix(.1 0 0 .1 928 384)"/><path class="st2" d="M-9157.7-3717.5v4.5l75 37.5 27 10.5v-1.5z" transform="matrix(.1 0 0 .1 928 384)"/></g><g id="i1447_1_"><path class="st10" d="M-9117.4-3828.2c-1.3 8.3-4.7 16.4-6.2 20.6-1.5 4.2-4.9 12.9-5.1 13.8-.2.9-.7 3.5 2.8 4.5s4.3 1.4 4.9.6c.6-.8 4.9-7.8 4.9-7.8l-1.3-31.7z" transform="matrix(.1 0 0 .1 920 400)"/><path class="st11" d="M-9127.8-3794.1c1.2-.4 3.1.1 4.3 1.3 1.2 1.1 1.7 2.2 1.6 3-.1.8-1 2.7-1.2 3.6-.2.8-2.7 4.2-3.5 5.3-.7 1.2-1.6 1.7-1.8 3.5-.2 1.8-.8 2.7-2.1 2.8-1.3.1-6.1-2.9-5.2-7.2.9-4.2 2.6-6.7 3.6-8.1.5-.7 2.6-1.8 3.3-2.3.8-.6.6-1.7 1-1.9z" transform="matrix(.1 0 0 .1 920 400)"/><path class="st9" d="M-9077.1-3676.9c12.1-8-.2-16.7-16.8-20.9-7.3-1.8-16.5-9.9-35.7.4-15.5 8.3 7.3 12 16.1 16.5 10.4 5.3 15.3 18 36.4 4z" transform="matrix(.1 0 0 .1 920 400)"/><path class="st4" d="M-9107.5-3706.3l-10.2 1.2s-.2 1.7-2.1 3.7-9.9 6.3-11.4 7.5c-2.7 2.1-.9 4.9 1.5 5.2 2.5.4 6-.4 10.3-2 3.4-1.2 7.3-2.3 11-3.6 3.3-1.1 2.5-5.8 1.9-7.8-.6-2-1-4.2-1-4.2z" transform="matrix(.1 0 0 .1 920 400)"/><path class="st12" d="M-9129.8-3690.2c2.7.4 6.4-.5 11-2.1 3.6-1.3 7.8-2.4 11.8-3.8.3-.1.5-.2.7-.3-.3 1-1 1.8-2.1 2.2-3.7 1.3-7.7 2.3-11 3.6-4.3 1.6-7.8 2.4-10.3 2-1.7-.3-3.2-1.8-2.8-3.5.4 1 1.5 1.7 2.7 1.9z" transform="matrix(.1 0 0 .1 920 400)"/><path class="st13" d="M-9117.6-3803.2s-6 22.7-5.6 33.7c.4 11 2.4 23.1 2.9 32.4.5 9.2.4 30.1-.1 34.2-.6 4.7 1.7 5 4.7 5.1 3 .1 8.9-.9 9.9-1.9s.9-8.5.9-14 .5-13.7.1-21.5c-.3-6.7 2.1-15.9 3.5-21s7.2-22.1 7.6-26.9c.4-4.8.1-14.9.1-14.9l-24-5.2z" transform="matrix(.1 0 0 .1 920 400)"/><path class="st9" d="M-9117.6-3803.2s-6 22.7-5.6 33.7c.4 11 2.4 23.1 2.9 32.4.5 9.2.4 30.1-.1 34.2-.6 4.7 1.7 5 4.7 5.1 3 .1 8.9-.9 9.9-1.9s.9-8.5.9-14 .5-13.7.1-21.5c-.3-6.7 2.1-15.9 3.5-21s7.2-22.1 7.6-26.9c.4-4.8.1-14.9.1-14.9l-24-5.2z" transform="matrix(.1 0 0 .1 920 400)"/><path class="st4" d="M-9075.4-3692.3c-.2.1-10.4 2.2-10.4 2.2s-2.7 5.9-5.2 8c-2.1 1.7-7.9 5.6-7.6 7.7.3 2.2 6.2 3.9 11.7 1.1 2.6-1.3 12.7-6.5 13.2-9.9.5-3.9-1.7-9.1-1.7-9.1z" transform="matrix(.1 0 0 .1 920 400)"/><path class="st12" d="M-9086.9-3675.1c2.6-1.3 12.7-6.5 13.2-9.9 0-.2 0-.3.1-.5.1.8.1 1.6-.1 2.3-.5 3.4-10.6 8.6-13.2 9.9-5.5 2.8-11.4 1.1-11.7-1.1 0-.3.1-.7.3-1.1 1.2 1.8 6.5 3 11.4.4z" transform="matrix(.1 0 0 .1 920 400)"/><path class="st13" d="M-9110.4-3798c.2 6.4 5.2 30.3 7.8 42.4 2.6 11.7 4 19.8 5.7 26.7 1.7 6.9 5.4 22.2 6.5 30.3.4 3.1 1.3 12.9 2 13.7 3.2 4 11.1 2 12.6.6 1.7-1.5 2.5-2.4 2.1-5.4-.4-3-1.5-19.1-2.5-25.4-1.6-10.5-2.4-14.9-2.8-20.1-.4-5.1 1.1-23.6-2.2-41.1-3.4-17.5-7.4-21.2-7.4-21.2l-21.8-.5z" transform="matrix(.1 0 0 .1 920 400)"/><path class="st10" d="M-9091.1-3849.4l-10.2-2.9-6.9 1.7-3.1 60.7z" transform="matrix(.1 0 0 .1 920 400)"/><path class="st14" d="M-9091.1-3849.4s9.7 3 13.4 6.4c6 5.6.4 19.8-3.4 31.2-3.8 11.4 1.7 32.7 1.2 33.6-.7 1.6-23.6 5-28.6 1.7-2.4-1.6-2.6-20.7-1.6-29.2s4.6-16.7 6.6-21.7c1.9-4.4 12.4-22 12.4-22z" transform="matrix(.1 0 0 .1 920 400)"/><path class="st14" d="M-9106.8-3849.6c-.6.4-8.8 2.1-10.6 4.7-3.7 5.2-2.9 17.9-2.9 22.2 0 4.4-.3 24.4-1.5 33.9-.5 3.8-1.9 9-1.2 9.7 1 1.1 8.3 3.5 9.8.4 1.2-2.4 4.9-26.7 5.1-32.3 0-5.5 1.3-38.6 1.3-38.6z" transform="matrix(.1 0 0 .1 920 400)"/><path class="st11" d="M-9091.8-3849.5s-2.5-1-2.7-2.9c-.2-1.9 5.5-9 .7-15.7-4.8-6.6-16.6-5.4-18.6 1.2-2 6.6-2.2 19.2-.6 20.5 2 1.7 5.5 1 5.5 1s1.2 3.1.9 4.8c-.4 2.5 1.9 2.7 3.1 2.6 1.8 0 9.3-4.7 11.7-11.5z" transform="matrix(.1 0 0 .1 920 400)"/><path class="st15" d="M-9093.7-3854.1l-1.5.9s3.9-5.3 1.3-6.4c-2.6-1.1-3.8 2.1-3.8 2.1s-1.9-3.3-4.9-3.6c-3-.3-11.2-2.1-10.9-4.7.1-1 3.3-9.8 13-8.1 9.7 1.7 10 9.7 9.4 12.9-.6 3.3-2.6 6.9-2.6 6.9z" transform="matrix(.1 0 0 .1 920 400)"/><path d="M-9116.9-3863s-2.7 1.2-2.7 2 8.1 4.4 13.7 3.8c5.6-.6 15.8-3.5 16.4-4.9.6-1.4-.7-15.9-12.4-15.9-13.9 0-15 15-15 15z" fill="#fc0" transform="matrix(.1 0 0 .1 920 400)"/><path class="st9" d="M-9119.7-3861c0 .8 8.1 4.4 13.7 3.8 4.5-.5 11.8-2.4 14.9-3.9-3.1 1.1-7.1 2.2-10.2 2-5.3-.2-14-2.8-15.8-4 .2.1-2.6 1.2-2.6 2.1zm4.2-3.7l1.2.4c.6-3.6 3.2-13.1 13.5-13.1.6 0 1.2.1 1.7.1-.9-.3-1.9-.4-3-.4-10.1 0-12.7 9.3-13.4 13z" transform="matrix(.1 0 0 .1 920 400)"/><path class="st9" d="M-9111.2-3863.3c.3-2.5 2-13.5 11-13.5.5 0 1 0 1.4.1-.7-.2-1.5-.4-2.4-.4-9 0-11 10.7-11.3 13.4l1.3.4z" transform="matrix(.1 0 0 .1 920 400)"/><path class="st11" d="M-9081.6-3773.9s.2 7.7 0 10.3c-.2 2.6-1.2 6.1-2 6.9-1.6 1.5-4.6 2.8-6.6 2.4-2-.4-2.2-2.5-2.2-3.2s.3-7.8.3-7.8-1 .1-1.3 1c-.3 1 .7 2.3-.3 3s-1.7-1.6-1.9-2.8c-.2-1.2.4-3.3 1-4 .5-.7 1.1-1.7 2.4-2.7 1.2-1 3.8-4 3.8-4l6.8.9z" transform="matrix(.1 0 0 .1 920 400)"/><path class="st10" d="M-9082.7-3841.9c-4.6 1.1-7.6 6.8-6 13.6 1.6 6.7 3.6 12.9 4.7 15.6 1.1 2.7 2.2 7.8 2.2 7.8s-1.5 4.6-3.3 11.1c-1.8 6.6-5.4 18.8-4.9 19.9.6 1 8.1 2.5 9.1 2.4s3.7-9.9 5.4-15.4c1.7-5.4 5.1-14.5 4.8-18.1-.3-3.6-2.7-21.7-3.1-25.4-.6-6.2-3.7-12.7-8.9-11.5z" transform="matrix(.1 0 0 .1 920 400)"/><path class="st9" d="M-9134.2-3658.5c17.2-9.6 4.2-17-11.8-24.6-17.8-8.5-24.9-11.7-40.5-1.6-9.5 6.1-2.4 15.9 13.8 23.5 18.4 8.6 26.4 9.5 38.5 2.7z" transform="matrix(.1 0 0 .1 920 400)"/><path class="st17" d="M-9186.1-3675.3c0 2.1-.1 5.9 3.8 5.9s5.9-2.9 6.2-3.8c.3-1-.1-3 1.3-3.8 1.3-.8 6.3-2.5 6.6-7.1.4-4.9-1.8-5-3.5-5s-5.9.3-5.9.3l-8.5 13.5z" transform="matrix(.1 0 0 .1 920 400)"/><path class="st18" d="M-9169.7-3688.7c1.2 1.5 1 3.9.1 5.7-1.9 3.6-6.4 3.1-6.8 5.2-.4 2.1-2.7 5.6-5.4 6-2 .3-3.2-.3-4.2-1.2.2 1.8 1 3.6 3.8 3.6 4 0 5.9-2.9 6.2-3.8.3-1-.1-3 1.3-3.8 1.3-.8 6.3-2.5 6.6-7.1.1-3-.6-4.2-1.6-4.6z" transform="matrix(.1 0 0 .1 920 400)"/><path class="st19" d="M-9186.8-3763.2c-.3 6 1.4 21.3 1.2 32.8s-2.8 43.8-2.5 47.6-.3 8.8 3.8 9.6c3.2.6 7.4-1.8 9-4.3s2.6-6.2 2.7-10.5c.1-4.3 9.4-58.4 9.5-60.6.1-2.2-1-13.8-1-13.8l-22.7-.8z" transform="matrix(.1 0 0 .1 920 400)"/><path class="st0" d="M-9186.8-3763.2c-.3 6 1.4 21.3 1.2 32.8s-2.8 43.8-2.5 47.6-.3 8.8 3.8 9.6c3.2.6 7.4-1.8 9-4.3s2.6-6.2 2.7-10.5c.1-4.3 9.4-58.4 9.5-60.6.1-2.2-1-13.8-1-13.8l-22.7-.8z" transform="matrix(.1 0 0 .1 920 400)"/><path class="st11" d="M-9157.8-3861.1c2.5 1 4.3 3.8 4.7 10.3.4 6.5 0 11.6-1.5 12.3s-2.5.4-2.5.4l1.1 7.1-16.8-4.7s.3-3.9-.6-6.4c-.9-2.5-3.5-11.2-.8-15.2s8.3-6.8 16.4-3.8zm-39.7 86.2s-.8 7-.5 8.7 3.5 9.6 5.3 10c1.8.4 3.6-1 3.4-2.3-.2-1.2-2-3.3-2.1-5.4-.1-2.1-.1-5.3.8-5.7.9-.5 2.9 2 3.8 3.1s2.5.7 2.5-.2c0-.8-1.9-2.6-2.3-4.1-.4-1.5-1.2-2.7-2.3-4-1.1-1.4-1.5-2.3-1.5-2.3l-7.1 2.2z" transform="matrix(.1 0 0 .1 920 400)"/><path d="M-9198.8-3777s-.6 3.1.5 3.8c.9.5 4.5 1.2 6.8.3 2-.8 3.1-1.5 3.2-2.2.1-.7-.8-2-.8-2l-9.7.1z" fill="#fff" transform="matrix(.1 0 0 .1 920 400)"/><path class="st17" d="M-9159-3664.5v4.1c0 .8.1 2.9 4.3 2.6 4.2-.3 6.4-1.2 6.6-1.5s.7-1.1.7-1.1 7.2.6 12.4-1.6c5.4-2.3 8.6-7.3 4-9.4-2.8-1.3-4.4.3-8.6-.2-4.5-.5-7.1-2.7-7.1-2.7l-12.3 9.8z" transform="matrix(.1 0 0 .1 920 400)"/><path class="st18" d="M-9135-3662.1c5.4-2.3 8.6-7.3 4-9.4 4.8 4.5-4.5 8.7-8.6 9-2.7.2-8.6.5-12.4 1.3-3.1.6-6.2.4-7.1-.8v1.7c0 .8.1 2.9 4.3 2.6 4.3-.3 6.4-1.2 6.6-1.5.2-.3.7-1.1.7-1.1s7.3.3 12.5-1.8z" transform="matrix(.1 0 0 .1 920 400)"/><path class="st19" d="M-9169.7-3760.1c-.4 6.2 2.3 19.4 3.4 26.8 1 7.4 2.9 38.7 3.7 46.5.6 6.3 2.7 23.4 3.9 24.3 1.2.9 9.6-.3 13.1-2.6 2.3-1.6 4.9-4.7 4.5-6.8-.4-2.1-3.1-4.1-3.5-14.9-.3-10.8.9-30.2.6-44.9-.3-14.8-1-31.5-1-31.5l-24.7 3.1z" transform="matrix(.1 0 0 .1 920 400)"/><path class="st21" d="M-9169.7-3760.1c-.4 6.2 2.3 19.4 3.4 26.8 1 7.4 2.9 38.7 3.7 46.5.6 6.3 2.7 23.4 3.9 24.3 1.2.9 9.6-.3 13.1-2.6 2.3-1.6 4.9-4.7 4.5-6.8-.4-2.1-3.1-4.1-3.5-14.9-.3-10.8.9-30.2.6-44.9-.3-14.8-1-31.5-1-31.5l-24.7 3.1z" transform="matrix(.1 0 0 .1 920 400)"/><path class="st19" d="M-9190.4-3832.6c-1.2 1.4-2 5.5-2.3 7.6-.3 2.1-5.7 19.3-6.6 22.7-.9 3.4-.8 9.1-.6 14.4.2 5.3.2 11.7.3 12.6.1 1 4 2 6.9 1.6 2.9-.4 4.6-1.2 4.9-3.6.3-2.4 1.8-13.9 3.8-18.1 2-4.2 4.9-11.7 4.9-11.7l-11.3-25.5z" transform="matrix(.1 0 0 .1 920 400)"/><path class="st21" d="M-9190.4-3832.6c-1.2 1.4-2 5.5-2.3 7.6-.3 2.1-5.7 19.3-6.6 22.7-.9 3.4-.8 9.1-.6 14.4.2 5.3.2 11.7.3 12.6.1 1 4 2 6.9 1.6 2.9-.4 4.6-1.2 4.9-3.6.3-2.4 1.8-13.9 3.8-18.1 2-4.2 4.9-11.7 4.9-11.7l-11.3-25.5z" transform="matrix(.1 0 0 .1 920 400)"/><path class="st11" d="M-9137.3-3785.3l.1 8.8s4.1 1.1 7.1-.5 5.2-4.7 5.2-5.8c0-1.1-.3-2.4-1.3-2.4-1.1 0-2 1.6-3.2.3-1.3-1.3-.4-2.2.6-2.9.9-.7 1.3-2.5-.8-2.3-1 .1-1.9.8-2.5 1.3-.9.8-1.8 1.8-3 2.8-1.3 1.2-2.2.7-2.2.7z" transform="matrix(.1 0 0 .1 920 400)"/><path class="st19" d="M-9172.8-3839.2l-3.6.8.1.9s-5.5-.7-9.4 1.4c-4 2.1-6.1 4-5.6 7.3.6 3.4 3.9 15.1 6.1 21.1 2.2 6 3.5 9.3 2.9 14.2s-7.1 27.7-6.7 31.2c.4 3.5 5.8 6.1 12.5 7.9 6.9 1.8 31.9 3.2 32.4-1.9s.5-18.9.5-18.9 7.1 1.3 8.4-.4c1.3-1.7 2.8-4.5 1.2-7.9-1.5-3.4-2.1-3.5-3.1-3.8s-5.5-1-6.8-2.7c-1.3-1.6-.3-7.8-.3-15.7 0-7.9.3-13.6-3.2-17.3s-7.5-8.9-10.8-10.1c-4.4-1.4-15.3-1.1-14.6-6.1z" transform="matrix(.1 0 0 .1 920 400)"/><path class="st9" d="M-9175.5-3838.6s.1 5.2 7.4 6.1c6.9.9 19 8.5 19 8.5s-13-7.3-18.9-7.8c-8.8-.7-8.4-6.8-8.4-6.8h.9z" transform="matrix(.1 0 0 .1 920 400)"/><path class="st15" d="M-9159.3-3845.7c.1.8 1-1.3 1.7-3.1.7-1.9 2-4.3 2.7-7 .7-2.7 1.3-1.7 1.4-2.9.1-1.2-5.7-8.9-16.3-5.2-10.6 3.7-8 16-7.1 19.4 1 3.4 4.1 7.3 7.1 7.3 3-.1 6.5-2.4 6.8-6.8s3.6-3.5 3.7-1.7z" transform="matrix(.1 0 0 .1 920 400)"/></g></svg>