<svg xmlns="http://www.w3.org/2000/svg" width="84.7" height="53.4"><style>.st1{opacity:.2;enable-background:new}.st2{fill:#fbd7c7}.st3{fill:#39c}.st4{fill:#2d3134}.st5{opacity:.4;enable-background:new}.st6{fill:#06547a}.st7{fill:#fc0}.st8{fill:#762c07}.st10{fill:#9c3}</style><path d="M612.4-388.3l9.9-18.9c.6-1.1-.8-1.8-3-1.5l-37.9 5c-2.3.3-2.8 1.2-1.1 2l28 14c1.6.8 3.5.6 4.1-.6zm1.8-14.9l-9.9 4.5c-.6.3-1.5.3-2 0-.6-.3-.6-.7 0-1l9.1-4.9c.8-.4 2.1-.4 2.9 0 .8.3.8 1-.1 1.4zm-16.9 7c-1.2-.6-1.2-1.4 0-2 1.2-.6 2.8-.6 4 0 1.2.6 1.2 1.4 0 2-1.2.6-2.8.6-4 0z" fill="#707070" transform="matrix(-1 0 0 1 664 440)" id="i2348_1_"/><g id="i1855_1_"><path class="st1" d="M-5746.8-3950.1c-12.3-8.3-.6-16.8 16.6-19.9 7.5-1.3 21-10.2 39.8 1.8 15.1 9.6-8 12.5-17.6 15.6-11.2 3.6-23.9 12.5-38.8 2.5z" transform="matrix(.1 0 0 .1 576 440)"/><path class="st2" d="M-5699.7-4081.4s6.6 2.7 8.4 4c1.8 1.3 5.1 3.8 4.7 6.3-.5 2.4-2.1 4.5-5 4.9-2.9.4-3.7-1.1-3.6-1.9.1-.7.6-2.1 0-2.6-.6-.6-5.5-2.8-6.4-3.9-.9-1-2.2-3.1-2.2-3.1l4.1-3.7z" transform="matrix(.1 0 0 .1 576 440)"/><path class="st3" d="M-5734.6-4130.7l10.4-2.9 7 1.7 3.2 62zm25.7 29.7s5.9 12.4 7 14.5 2.9 5.1 2.9 5.1l-5 4.3-2-2.2s-6.5-7.8-7.5-8.5c-1.4-1-.5-12.6-.5-12.6l5.1-.6z" transform="matrix(.1 0 0 .1 576 440)"/><path class="st4" d="M-5714.1-3976.4l10.5 1.2s.2 1.8 2.1 3.8 10.1 6.4 11.7 7.6c2.8 2.1.9 5-1.5 5.4-2.6.4-6.1-.4-10.5-2-3.4-1.2-7.5-2.3-11.3-3.6-3.4-1.1-2.5-5.9-2-8 .4-2.1 1-4.4 1-4.4z" transform="matrix(.1 0 0 .1 576 440)"/><path class="st5" d="M-5691.4-3960c-2.7.4-6.5-.5-11.2-2.2-3.7-1.3-8-2.5-12-3.9-.3-.1-.5-.2-.7-.3.3 1 1 1.9 2.2 2.3 3.8 1.3 7.9 2.4 11.3 3.6 4.4 1.6 7.9 2.4 10.5 2 1.8-.3 3.2-1.9 2.8-3.5-.6 1-1.7 1.8-2.9 2z" transform="matrix(.1 0 0 .1 576 440)"/><path class="st4" d="M-5747.4-3968.3c.2.1 10.6 2.2 10.6 2.2s2.7 6 5.3 8.2c2.1 1.8 8 5.7 7.7 7.9-.3 2.2-6.3 4-11.9 1.1-2.6-1.3-12.9-6.6-13.4-10.1-.6-4 1.7-9.3 1.7-9.3z" transform="matrix(.1 0 0 .1 576 440)"/><path class="st5" d="M-5735.7-3950.7c-2.6-1.3-12.9-6.6-13.4-10.1 0-.2 0-.3-.1-.5-.1.8-.1 1.6.1 2.3.5 3.5 10.8 8.8 13.4 10.1 5.6 2.9 11.6 1.1 11.9-1.1 0-.3-.1-.7-.3-1.2-1.2 1.9-6.5 3.1-11.6.5z" transform="matrix(.1 0 0 .1 576 440)"/><path class="st6" d="M-5732.1-4072.6l25.9-.4s4.5 19.8 3.6 31.4c-.9 11.6-1.6 23.2-1.8 33.1-.1 9.9 3.4 36.5 2.9 36.9-1.8 1.7-9.1 1.6-11.3 1.7-2.2.1-4-.6-4-1.3s-.7-14.9-1.3-19.1c-.5-4-1.9-12.4-2.3-21.2-.4-9.7-1.8-18.1-2.9-22.7-1.1-4.5-8.8-38.4-8.8-38.4z" transform="matrix(.1 0 0 .1 576 440)"/><path class="st1" d="M-5732.1-4072.6l25.9-.4s4.5 19.8 3.6 31.4c-.9 11.6-1.6 23.2-1.8 33.1-.1 9.9 3.4 36.5 2.9 36.9-1.8 1.7-9.1 1.6-11.3 1.7-2.2.1-4-.6-4-1.3s-.7-14.9-1.3-19.1c-.5-4-1.9-12.4-2.3-21.2-.4-9.7-1.8-18.1-2.9-22.7-1.1-4.5-8.8-38.4-8.8-38.4z" transform="matrix(.1 0 0 .1 576 440)"/><path class="st6" d="M-5741.6-4073.2l26 .8s-5.1 26.6-7.8 36.6-7.3 23.5-8.2 28.4c-.9 5-3.4 32.7-3.3 37.4s.4 5.6.1 6.6c-.3 1-14.2 2.6-15.8-.5-.4-.8 0-33.7 1.8-41.2s1.5-21.9 1.4-29.1c-.3-26 5.8-39 5.8-39z" transform="matrix(.1 0 0 .1 576 440)"/><path class="st7" d="M-5734.6-4130.7s-9.6 5.5-13.4 9c-6.1 5.7-.7 17.8 3.1 29.4 3.8 11.6-1.7 33.4-1.3 34.4.8 1.6 26.5 3.6 29.2 1.7 2.4-1.7 2.7-21.2 1.7-29.8s-4.7-17.1-6.8-22.2c-1.8-4.5-12.5-22.5-12.5-22.5z" transform="matrix(.1 0 0 .1 576 440)"/><path class="st7" d="M-5718.6-4130.9c.6.4 8.8 2.3 10.8 4.9 2 2.5 0 20.8 0 25.2 0 4.5 1.9 23.2 3.1 33 .5 3.9 1.9 8.3 1.2 9-1 1.1-7.1 2.7-8.6-.4-1.2-2.5-4.9-32.4-5.1-38.1 0-5.8-1.4-33.6-1.4-33.6z" transform="matrix(.1 0 0 .1 576 440)"/><path class="st2" d="M-5728.3-4070.4c-.3.2-4.5 6.9-4.5 6.9s0 .7 1.5 3.7c1.5 3.1 3.3 3.9 4.7 4.7 1.4.8 5 2.1 7.2 1.8 3.6-.4 5.9-3.5 5.9-4.8-.1-1.1-5.4-4.3-6-5.9-.7-1.6-2.5-3.6-4.9-4.7-2.4-1-3.9-1.7-3.9-1.7z" transform="matrix(.1 0 0 .1 576 440)"/><path class="st3" d="M-5746.1-4120.3c3.4-.3 7.6 3.1 7.6 10.6s-5.2 16.3-7.3 20c-2 3.7-2.3 4.5-2.3 4.5s8 6 10.6 8.4c1.4 1.4 5.9 4.5 5.9 4.5l3.3 2-4.7 7.3-2.9-1.7s-5.9-3.1-9.1-4.8c-5.2-2.8-15-7-15-11.6s4.1-17.3 5.6-23.8c1.5-7 1.8-14.8 8.3-15.4z" transform="matrix(.1 0 0 .1 576 440)"/><path class="st2" d="M-5733.9-4130.8s2.6-1.1 2.8-2.9c.2-1.8-5.6-9.2-.8-16 4.8-6.8 16.9-5.6 19 1.2s2.3 19.6.7 21c-2 1.7-5.6 1-5.6 1s-1.2 3.1-.9 4.9c.4 2.5-1.9 2.8-3.2 2.7-1.9-.2-9.6-4.9-12-11.9z" transform="matrix(.1 0 0 .1 576 440)"/><path class="st8" d="M-5731.9-4135.4l1.5.9s-4-5.4-1.3-6.5c2.6-1.1 3.9 2.2 3.9 2.2s2-3.4 5-3.7c3.1-.3 11.4-2.2 11.2-4.8-.1-1-3.4-10-13.3-8.3-9.9 1.7-10.2 9.9-9.6 13.2.5 3.3 2.6 7 2.6 7z" transform="matrix(.1 0 0 .1 576 440)"/><path class="st7" d="M-5708.2-4144.6s2.8 1.2 2.8 2.1-8.3 4.5-14 3.9c-5.7-.6-16.1-3.5-16.7-5s.7-16.2 12.7-16.2c14-.1 15.2 15.2 15.2 15.2z" transform="matrix(.1 0 0 .1 576 440)"/><path class="st1" d="M-5705.4-4142.5c0 .9-8.3 4.5-14 3.9-4.6-.5-12.1-2.4-15.3-4 3.1 1.1 7.3 2.2 10.4 2.1 5.4-.2 14.2-2.8 16.1-4.1 0 0 2.8 1.2 2.8 2.1zm-4.3-3.8l-1.2.4c-.6-3.6-3.3-13.4-13.8-13.4-.6 0-1.2.1-1.8.1.9-.3 1.9-.4 3-.4 10.4.1 13.1 9.5 13.8 13.3z" transform="matrix(.1 0 0 .1 576 440)"/><path class="st1" d="M-5714.2-4144.8c-.3-2.6-2-13.8-11.2-13.8-.5 0-1 .1-1.4.1.7-.3 1.5-.4 2.4-.4 9.1 0 11.2 10.9 11.5 13.7l-1.3.4z" transform="matrix(.1 0 0 .1 576 440)"/></g><g id="i1857_1_"><path class="st3" d="M5772.1-4120.4c-1 5.1-4 21.5-2.3 24.5 1.7 2.9 8.9 2.7 14.2.3 5.2-2.5-11.9-24.8-11.9-24.8z" transform="matrix(-.1 0 0 .1 592 448)"/><path fill="#cc291f" d="M5823.7-4096.8l-24.7 3.8-4.6-30.3 24.6-3.8z" transform="matrix(-.1 0 0 .1 592 448)"/><path class="st1" d="M5821.4-3950c12.5-4.6 5.1-9.9-8.4-17.1-13-6.9-19-17.4-35.9-6.7-13.6 8.7 5.3 18.2 11.8 22.2 9.8 6.2 15.9 7.8 32.5 1.6z" transform="matrix(-.1 0 0 .1 592 448)"/><path class="st2" d="M5784.8-4124.5s4.2 4.8 7.6 5.7c3.8 1.1 11 .1 11 .1s2.2-8.2 2.8-9.4c.6-1.2 2.8-1.1 3.2-3.8.4-2.7 1.8-15.5 0-17.7-1.8-2.2-11.3-7.7-16.7-1.2-5.4 6.5-2 17.3-2.4 19.9-.3 2.6-5.5 6.4-5.5 6.4z" transform="matrix(-.1 0 0 .1 592 448)"/><path class="st8" d="M5790-4129.3s6.3 2.3 10 1.6c3.7-.7 6-4.4 6-4.4s.1-5 1.2-6.8c1.1-1.8 1.6-.8 1.6-.8s2.3-4 2.1-6.8c-.2-3.7-3.8-9.6-13.7-7.1-7.7 2-8.9 10.1-8.8 13.5.1 3.6 1.6 10.8 1.6 10.8z" transform="matrix(-.1 0 0 .1 592 448)"/><path class="st4" d="M5798.9-3959.3c-.3 2.7-1 10.3 1.2 11.1 3.4 1.3 9.7-.8 12.8-1.8s11-3.2 11.3-5.8c.3-2.5-1.9-4.6-6.3-3.8-3.6.7-8 .4-8.7-1l-.6-1.4-9.7 2.7z" transform="matrix(-.1 0 0 .1 592 448)"/><path class="st5" d="M5823.9-3957.6v.5c-.3 2.7-8.5 4.9-11.6 6-3.1 1-9.6 3.2-13.1 1.9 0 0-.1 0-.1-.1.2.6.5 1 1 1.2 3.4 1.3 9.7-.8 12.8-1.8s11-3.2 11.3-5.8c.1-.8 0-1.4-.3-1.9z" transform="matrix(-.1 0 0 .1 592 448)"/><path class="st4" d="M5774.8-3975.5s-.8 7.9.2 9.6c1.2 2.2 5.3 2.5 8.3.8 3-1.7 5.1-4.2 8.6-5.1 3.5-.9 7.6-3.5 5.6-5.5-2.4-2.4-5.1-1.9-10.7-.7-1.8.4-2.8-1.6-2.8-1.6l-9.2 2.5z" transform="matrix(-.1 0 0 .1 592 448)"/><path class="st5" d="M5797.6-3975.6c0-.1-.1-.1 0 0-.2 1.6-3.4 3.4-6.2 4.2-3.5.9-5.6 3.4-8.6 5.1-2.8 1.6-6.5 1.5-8-.3.1.3.2.6.3.8 1.2 2.2 5.3 2.5 8.3.8s5.1-4.2 8.6-5.1c3.5-1 7.6-3.6 5.6-5.5z" transform="matrix(-.1 0 0 .1 592 448)"/><path class="st6" d="M5801.6-4073.6c-1-.1-19.9-4.1-19.9-4.1s-7.7 12.9-8 22.7c-.2 9.8 2 29.7 1.5 35.9-.4 5.2-2.3 16.6-2 24.6.3 8.9 0 24.3 1 25.1 2.7 2.5 7.9.1 10.6-2.2 2.7-2.3 3.5-3.8 3.8-5 .3-1.3-.6-3.4-.4-11.1.1-7.8 1.8-23.3 2.5-27.7.7-4.4 5.3-20.2 7-28.2 1.8-8 3.9-30 3.9-30z" transform="matrix(-.1 0 0 .1 592 448)"/><path class="st1" d="M5801.6-4073.6c-1-.1-19.9-4.1-19.9-4.1s-7.7 12.9-8 22.7c-.2 9.8 2 29.7 1.5 35.9-.4 5.2-2.3 16.6-2 24.6.3 8.9 0 24.3 1 25.1 2.7 2.5 7.9.1 10.6-2.2 2.7-2.3 3.5-3.8 3.8-5 .3-1.3-.6-3.4-.4-11.1.1-7.8 1.8-23.3 2.5-27.7.7-4.4 5.3-20.2 7-28.2 1.8-8 3.9-30 3.9-30z" transform="matrix(-.1 0 0 .1 592 448)"/><path class="st6" d="M5814.4-4072.6s1.4 14.8 1.8 23.5c.5 12-1.4 30.2-2.5 41-1.1 11.2-1.5 25.5-1.3 32.9.2 6.4.6 15.6.6 15.6s.3 3.2-6.6 6c-3.6 1.5-7.7 2.2-8.5.9-.8-1.3-1.9-13.9-2-20.3s-1.1-19.2.3-30.3c1.4-11.1-.8-18.2-2.5-26.1-1.8-7.9-6.1-21.9-6.6-28.4s2.8-16.4 2.8-16.4l24.5 1.6z" transform="matrix(-.1 0 0 .1 592 448)"/><path class="st7" d="M5786.4-4125.9s-11.2-2.2-13.7 3.2 2.3 23.5 3.2 30.2c.9 6.8 1.3 11 0 21.5-.9 7.2-3.3 11.9-2 12.4 2.6 1 18.7 5.9 29.3 5.6 6.8-.2 13-1.5 13.5-2s-1.2-32.8-.8-38.9c.4-6.1 1.7-15.2-2.2-18.9-3.8-3.7-10.1-6-10.1-6s-6.2.5-12-1.7-5.2-5.4-5.2-5.4z" transform="matrix(-.1 0 0 .1 592 448)"/><path class="st2" d="M5836.1-4096.1s.8-1.7.6-4c-.2-2.3-.5-11.6-2.3-12.3-1.8-.7-4.5-.3-4.2 4 .3 4.2-1.1 4.8-.6 7.1.6 2.3 2 3.7 2 3.7l4.5 1.5z" transform="matrix(-.1 0 0 .1 592 448)"/><path class="st3" d="M5807.2-4113.6c-6.5 2.3-5.5 10.4-3.8 14.1 1.7 3.7 12.1 26.7 17.2 26.6 5.1-.1 14.3-19.9 14.3-19.9l1.4-3.3-6-2.9-1.1 2.9-8 7.6s-2.9-11.5-3.8-15.2c-1.4-5-3.7-12.2-10.2-9.9z" transform="matrix(-.1 0 0 .1 592 448)"/><path class="st2" d="M5820.5-4112.8c-1.1.1-1.1 2.9-.2 6.1.9 3.2 1.1 5.1 2.6 4.8 1.5-.3.6-5.6.2-6.9-.4-1.4-1.2-4.1-2.6-4z" transform="matrix(-.1 0 0 .1 592 448)"/></g><g id="i1859_1_"><path class="st1" d="M-5700.6-3953.4c12.3-8.2-.2-17-17.1-21.3-7.4-1.9-20.2-11.6-39.8-1.1-15.8 8.5 7.5 12.3 16.4 16.8 10.7 5.4 19 19.9 40.5 5.6z" transform="matrix(.1 0 0 .1 648 416)"/><path class="st4" d="M-5735-3984.8l-10.4 1.2s-.2 1.8-2.1 3.8-10.1 6.4-11.7 7.6c-2.8 2.1-.9 5 1.5 5.3 2.6.4 6.1-.4 10.5-2 3.4-1.2 7.4-2.3 11.3-3.6 3.3-1.1 2.5-5.9 2-8-.6-2.1-1.1-4.3-1.1-4.3z" transform="matrix(.1 0 0 .1 648 416)"/><path class="st5" d="M-5757.6-3968.4c2.7.4 6.5-.5 11.2-2.2 3.7-1.3 7.9-2.5 12-3.9.3-.1.5-.2.7-.3-.3 1-1 1.9-2.2 2.3-3.8 1.3-7.8 2.4-11.3 3.6-4.4 1.6-7.9 2.4-10.5 2-1.8-.3-3.2-1.9-2.8-3.5.5 1 1.6 1.8 2.9 2z" transform="matrix(.1 0 0 .1 648 416)"/><path class="st4" d="M-5698.8-3969c-.2.1-10.6 2.2-10.6 2.2s-2.7 6-5.3 8.1c-2.1 1.8-8 5.7-7.7 7.9.3 2.2 6.3 4 11.9 1.1 2.6-1.3 12.9-6.6 13.4-10.1.6-4-1.7-9.2-1.7-9.2z" transform="matrix(.1 0 0 .1 648 416)"/><path class="st5" d="M-5710.5-3951.5c2.6-1.3 12.9-6.6 13.4-10.1 0-.2 0-.3.1-.5.1.8.1 1.6-.1 2.3-.5 3.5-10.8 8.8-13.4 10.1-5.6 2.9-11.6 1.1-11.9-1.1 0-.3.1-.7.3-1.2 1.2 1.9 6.6 3.1 11.6.5z" transform="matrix(.1 0 0 .1 648 416)"/><path class="st6" d="M-5745.2-4083.8s-6.1 23.2-5.7 34.4c.4 11.2 2.4 23.6 2.9 33 .5 9.4.4 30.7-.1 34.9-.6 4.8 1.8 5.1 4.8 5.2 3.1.1 9.1-.9 10.1-1.9s.9-8.7.9-14.3.5-14 .1-21.9c-.3-6.8 2.2-16.2 3.6-21.4s7.4-22.6 7.8-27.4c.4-4.8.1-15.2.1-15.2l-24.5-5.4z" transform="matrix(.1 0 0 .1 648 416)"/><path class="st1" d="M-5745.2-4083.8s-6.1 23.2-5.7 34.4c.4 11.2 2.4 23.6 2.9 33 .5 9.4.4 30.7-.1 34.9-.6 4.8 1.8 5.1 4.8 5.2 3.1.1 9.1-.9 10.1-1.9s.9-8.7.9-14.3.5-14 .1-21.9c-.3-6.8 2.2-16.2 3.6-21.4s7.4-22.6 7.8-27.4c.4-4.8.1-15.2.1-15.2l-24.5-5.4z" transform="matrix(.1 0 0 .1 648 416)"/><path class="st6" d="M-5737.9-4078.4c.3 6.5 5.2 33.2 8.9 45.3 3.7 12.1 6.5 19.8 8.3 26.8 1.8 7 5.9 23.7 7 32 .4 3.2 1 12 1.7 12.9 3.3 4.1 11.3 2 12.9.6 1.7-1.6 2.6-2.4 2.2-5.5-.4-3.1-1.7-21.3-2.7-27.8-1.7-10.7-5-15-6.1-20.1-1.1-5.1 1.1-24.1-2.3-42s-7.5-21.7-7.5-21.7l-22.4-.5z" transform="matrix(.1 0 0 .1 648 416)"/><path class="st3" d="M-5718.2-4130.9l-10.4-2.9-7 1.7-3.2 61.9z" transform="matrix(.1 0 0 .1 648 416)"/><path class="st10" d="M-5718.2-4130.9s9.6 5.5 13.4 9c6.1 5.7.7 17.8-3.1 29.4-3.8 11.6 1.7 33.4 1.3 34.3-.8 1.6-24.1 5.1-29.2 1.7-2.4-1.6-2.7-21.1-1.7-29.8s4.6-17.1 6.7-22.2c1.9-4.4 12.6-22.4 12.6-22.4z" transform="matrix(.1 0 0 .1 648 416)"/><path class="st10" d="M-5734.2-4131.1c-.6.4-9 2.2-10.8 4.8-3.7 5.3-3 18.2-3 22.7s-.4 24.9-1.6 34.6c-.5 3.9-1.9 9.2-1.2 9.9 1 1.1 8.5 3.6 10 .5 1.2-2.5 5-27.2 5.2-33 .1-5.7 1.4-39.5 1.4-39.5z" transform="matrix(.1 0 0 .1 648 416)"/><path class="st2" d="M-5718.9-4131s-2.6-1.1-2.7-2.9c-.2-1.9 5.6-9.2.8-16-4.8-6.8-16.9-5.5-19 1.2-2.1 6.7-2.3 19.6-.7 21 2 1.7 5.6 1 5.6 1s1.2 3.1.9 4.9c-.4 2.5 1.9 2.7 3.2 2.7 1.8-.2 9.5-5 11.9-11.9z" transform="matrix(.1 0 0 .1 648 416)"/><path class="st8" d="M-5720.9-4135.6l-1.5.9s3.9-5.4 1.3-6.5c-2.6-1.1-3.9 2.2-3.9 2.2s-1.9-3.4-5-3.7c-3.1-.3-11.4-2.2-11.1-4.8.1-1 3.4-10 13.2-8.3 9.8 1.7 10.2 9.9 9.6 13.2-.6 3.3-2.6 7-2.6 7z" transform="matrix(.1 0 0 .1 648 416)"/><path class="st7" d="M-5744.6-4144.8s-2.8 1.2-2.8 2.1c0 .9 8.3 4.5 14 3.9 5.7-.6 16.1-3.5 16.7-5 .7-1.5-.7-16.2-12.6-16.2-14.1 0-15.3 15.2-15.3 15.2z" transform="matrix(.1 0 0 .1 648 416)"/><path class="st1" d="M-5747.4-4142.7c0 .9 8.3 4.5 14 3.9 4.6-.5 12.1-2.4 15.2-4-3.1 1.1-7.3 2.2-10.4 2.1-5.4-.2-14.2-2.8-16.1-4.1.1 0-2.7 1.2-2.7 2.1zm4.3-3.8l1.2.4c.6-3.6 3.3-13.3 13.8-13.3.6 0 1.2.1 1.8.1-.9-.3-1.9-.4-3-.4-10.4 0-13.1 9.5-13.8 13.2z" transform="matrix(.1 0 0 .1 648 416)"/><path class="st1" d="M-5738.6-4145c.3-2.6 2-13.8 11.2-13.8.5 0 1 .1 1.4.1-.7-.3-1.5-.4-2.4-.4-9.1 0-11.2 10.9-11.5 13.6l1.3.5z" transform="matrix(.1 0 0 .1 648 416)"/><path class="st2" d="M-5712.6-4074.7s-3.1-1.4-4.7-1.8c-1.6-.5-6.2-2.8-7.4-1.6-1.4 1.3 4 2.9 4 3.6s-2.1 1.7-4.3 2.4c-2.3.7-5.4.1-5.7 1.6-.2 1.5 3.8 6.7 8 6.9 4 .3 5.8-.6 7.6-1.5 1.8-.9 5.9-4.2 5.9-4.2l-3.4-5.4z" transform="matrix(.1 0 0 .1 648 416)"/><path class="st3" d="M-5714.7-4076.1c-.4 1.4 2 8.2 4.5 8.4 2.4.3 9.6-6.1 14.7-9.8s12-8.3 12.6-11.9c.6-3.6-4.3-10.2-7.5-14.8-3.1-4.5-8.7-16.2-14.8-17.9-4.8-1.3-9.7 1.3-8.8 7.9.9 6.6 4.7 8.4 7.8 11.6 3.1 3.2 9.6 10.7 9.6 10.7l-18.1 15.8z" transform="matrix(.1 0 0 .1 648 416)"/><path class="st2" d="M-5753.1-4081.4c-2.3 2.1-3.4 6.8-2.9 8.4.5 1.7 6.4 6.7 7.1 4.8.8-2-1.8-3.4-1.9-4.5-.1-1 1.8-1.8 1.8-1.8l.5-10.3c0 .1-2 1-4.6 3.4z" transform="matrix(.1 0 0 .1 648 416)"/></g></svg>