<svg xmlns="http://www.w3.org/2000/svg" width="42.6" height="28"><style>.st0{opacity:.2;enable-background:new}.st1{fill:#825012}.st2{fill:#262626}.st3{fill:#762c07}.st4{opacity:.4;enable-background:new}.st5{fill:#fff}.st9{fill:#2d3134}.st12{fill:#baa794}.st13{fill:#cc291f}</style><g id="i2114_1_"><path class="st0" d="M3097.3-6323c12.7 8.2 34.5 15.5 14.8 27.5-18.4 11.2-39.2-.4-49.5-10.6-20.7-20.6-56.1-20.3-31.1-23.8 1.9-.3 15.8 0 29.6 2 14.3 2 32.4 2.4 36.2 4.9z" transform="matrix(-.1 0 0 .1 312 648)"/><path class="st1" d="M3090.2-6329.6s2 4.7 1.9 6.2c-.1 1.5-.8 3.5.1 4.3.9.7 7.8 5.2 9.1 7.1 1.3 1.9 2 5.2 6.6 3s3.1-5.5.9-6.4c-2.1-.9-6.5-1.7-8.8-3.9-2.3-2.2-3.2-2.9-1.2-6.3s2.9-6.1 2.9-6.1l-11.5 2.1z" transform="matrix(-.1 0 0 .1 312 648)"/><path class="st0" d="M3090.2-6329.6s2 4.7 1.9 6.2c-.1 1.5-.8 3.5.1 4.3.9.7 7.8 5.2 9.1 7.1 1.3 1.9 2 5.2 6.6 3s3.1-5.5.9-6.4c-2.1-.9-6.5-1.7-8.8-3.9-2.3-2.2-3.2-2.9-1.2-6.3s2.9-6.1 2.9-6.1l-11.5 2.1z" transform="matrix(-.1 0 0 .1 312 648)"/><path class="st1" d="M3080.9-6392.2c.8-1.5 2.6-3.6 5.5-5s5-1.9 5-1.9 1.7-3.1 5.5-1.8 7.5 8.5 8.4 11.6c.9 3.1 2.2 8.7 1 9.4-1.2.7-3-2.1-3-2.1s1 4.5 1.8 7.3c.7 2.8-.1 7.7.7 9.3.7 1.6 4.2 7.5 3.8 13.7-.4 6.2-2.8 12.2-2.9 14.8s3.4 16.8 4 17.9.2 4.4 1.2 6.4 8.7 3.9 6.2 7.8c-2.4 3.9-9.3 2-10.3-.2s.1-4.6-1.1-8.8c-1.2-4.2-6.7-15.8-6.7-15.8s-2 .6-4.8.9c-2.9.4-5.9 3.9-4.9 9.7s2 8 2.6 9.4c.6 1.4.2 4.6 1.1 6.4.9 1.9 7.2 4.2 4.8 7.3-2.4 3.1-7.5 3.2-10.2.6-2.7-2.6-.4-3.8-2.2-10.2-1.9-6.4-4-13.8-4-13.8l-6.3 1.5-4.4 9.3s3.8 2.8 5.7 3.9c1.9 1.1 5.7.2 7 1.9 1.3 1.7 1.8 5.5-2.2 7s-6.3-3.4-7.7-4.5c-1.4-1-7-3.3-8.5-5-1.5-1.7-.2-5.8-.2-5.8s-5.9-.6-8.8-4.4c-2.9-3.8-2.5-4.6-3.7-5.5-1.2-.9-3.1-1.7-8.8-1.1s-12.7-1.8-15.7-5.2c-3.1-3.4-3.7-11.3-2.9-12 .8-.7 2.2 4.5 3.8 5.7s5.3 4.2 9.7 3.8c4.4-.4 12.5-3.6 12.5-3.6s4.6-12.8 10.8-19.7c6.2-7 14.6-11.7 15.9-16.8 1.1-5.1 1-19.9 2.3-22.4z" transform="matrix(-.1 0 0 .1 312 648)"/><path class="st0" d="M3078.7-6331.9s-1.2 1.6-4 1.6c-1.5 0-3.7-.2-5.3-.4.6.1 1.4.3 2.2.6 2.8.9 3.9 2.1 5.1 4.6 1.1 2.5-.8 7.7-.8 7.7l6.3-1.5s-.7-2.1-1-3.2c-.3-1-2.6-6.6-2.5-9.4zm10.3-42.7c-.4-1.5-1.8-5.1-4-7.5-1.6-1.8-3-5.8-3.6-8.3l-1.1.3c-.6 3.7-.8 10.7-1.3 15.8.9.7 4.2 1.9 5.3 2.5 4.7 2.6 5.5.5 4.7-2.8z" transform="matrix(-.1 0 0 .1 312 648)"/><path class="st2" d="M3087.8-6387.2s-.1-2.2.8-3.1c.8-.9 2.5-.6 1.7 1.3-.8 2-2.5 1.8-2.5 1.8zm9.2-7.1s-.2-1.1.7-1.5c.9-.3 1.8 1.5 1.8 1.5h-2.5zm8.2 7.7s-.3-.6-1-.8c-.6-.2-1.3-.1-2.1.2l-.9-1.8-.3.2.9 1.8c-1.3.7-1.9 1.5-2.6 2.5-.4.6-.9 1.3-1.6 1.9-1.8 1.8-2.8 2.1-2.8 2.1-.1 0-.1.1-.1.2s.1.1.2.1h.1s1.1-.4 3-2.2c.7-.7 1.2-1.4 1.6-2 .7-1 1.3-1.8 2.6-2.5.8-.4 1.4-.5 1.9-.3.6.2.8.6.8.6 0 .1.2.1.2.1.1.1.1 0 .1-.1z" transform="matrix(-.1 0 0 .1 312 648)"/><path class="st1" d="M3081.5-6392.9c-.8-.5-2.7.7-4.1 3.4-1.4 2.7-3.4 7.5-1.8 9.9 1.6 2.4 4.3 4.5 6.7 5.4 2.3.9 5 2.6 5.7 2.1s-1.1-5.7-3-8.4-4-5.8-4-5.8 2.5-5.3.5-6.6z" transform="matrix(-.1 0 0 .1 312 648)"/><path class="st0" d="M3105.2-6389.4c.7 1.7.5 3.5-.1 5.2-.6 1.6-1.7 2.3-1.7 2.3v.1c.3.5 1.8 2.7 2.9 2 1.2-.7-.1-6.3-1-9.4-.9-3.1-4.6-10.2-8.4-11.6-3.5-1.2-5.2 1.3-5.5 1.7 1.6 0 4.4.4 5.9 1.9 1.6 1.5 2.6 2.4 3.6 3.8s3.5 2.2 4.3 4z" transform="matrix(-.1 0 0 .1 312 648)"/><path class="st2" d="M3096.7-6391.5c-.7 1.6 1.8 4 4.3 2.9 2.5-1.2 1.5-4 .7-4.6-.8-.7-4.2-.2-5 1.7zm9.6 21.3c-4.2.7-9.3 1.1-14.5.8-7.7-.3-12-1.6-13.7-2.6-.1.7-.2 1.4-.4 2s-.4 1.3-.8 1.9c4 2 10.5 2.6 14.7 2.7 1.1 0 2.2.1 3.3.1 3.7 0 7.7-.2 11.5-.9-.2-1-.1-2.5-.1-4z" transform="matrix(-.1 0 0 .1 312 648)"/></g><g id="i2113_1_"><path class="st3" d="M-299.4-620l16 8v-8l-8-12-8 4z" transform="translate(304 640)"/><path class="st4" d="M-284.4-612.5l-14-7v-2l14 7z" transform="translate(304 640)"/><path class="st5" d="M-287.4-614l-8-4v-5c0-1.7 1.3-2.3 3-1.5l2 1c1.7.8 3 2.8 3 4.5v5z" transform="translate(304 640)"/><path class="st1" d="M-288.4-615.5l-6-3v-3c0-1.7 1.3-2.3 3-1.5 1.7.8 3 2.8 3 4.5v3z" transform="translate(304 640)"/><path d="M-288.4-615.5l-6-3v-3c0-1.7 1.3-2.3 3-1.5 1.7.8 3 2.8 3 4.5v3z" opacity=".5" transform="translate(304 640)"/><path class="st5" d="M-285.4-623l2 3v8l-2-1zm-12-6l-2 1v8l2 1z" transform="translate(304 640)"/><path class="st5" d="M-291.4-632l-8 4v2l8-4 8 12v-2z" transform="translate(304 640)"/><path opacity=".11" d="M-299.4-620l16 8v-8l-8-12-8 4z" transform="translate(304 640)"/><path class="st3" d="M-267.4-620l-16 8v-8l16-8z" transform="translate(304 640)"/><path class="st4" d="M-268.4-619.5l-14 7v-2l14-7z" transform="translate(304 640)"/><path class="st5" d="M-281.4-613l-2 1v-8l2-1zm14-7l-2 1v-8l2-1z" transform="translate(304 640)"/><path opacity=".29" d="M-267.4-620l-16 8v-8l16-8z" transform="translate(304 640)"/><path class="st9" d="M-275.3-640l-8 4-16 8 8-4 8 12 16-8z" transform="translate(304 640)"/><path opacity=".39" d="M-291.3-632l8 12 16-8-8-12z" transform="translate(304 640)"/><path opacity=".06" d="M-291.3-632l-8 4 16-8 8-4z" transform="translate(304 640)"/></g><g id="i2115_1_"><path class="st0" d="M-2969.6-6378.2c-6.5 4-6.9 8.7 1.4 13.2 9.2 4.9 14.6 3.9 21.7-.3 6.2-3.6 4.8-8.5-5.7-12.8-8.4-3.3-12.8-2.9-17.4-.1z" transform="matrix(.1 0 0 .1 336 664)"/><path class="st12" d="M-2954.4-6378.3c-.1 1.1-1.5 7.6-2.3 8.7s-5.8 4.2-5.8 4.2l5.2-1.7 1.2 3.1.7-3.4 4.1-1.8-3.4-.3s1.5-4.9 1.9-6.2c.4-1.3.6-2.5.6-2.5l-2.2-.1zm-7.1-3.6s-1.7 7.3-2.1 8.1c-.4.9-6.1 3.6-6.1 3.6l5-1.4.7 3 1.3-3 4.1-1.3-3-.6s1.4-5.4 1.8-6.8c.4-1.4.2-1.9.2-1.9l-1.9.3z" transform="matrix(.1 0 0 .1 336 664)"/><path class="st1" d="M-2968.6-6414.2c3.9-2.7 11.7-4.7 16.2-4.3s12.4 2.8 13.5 4.6c1.1 1.9 7.9 16.1.4 25.6-4.5 5.7-9.1 5.7-9.1 5.7s-1.3 4.9-5.3 4.9c-3.6 0-5.8-3.6-5.8-3.6s-1.5.3-3.3-.1c-1.9-.4-3.3-2.5-3.3-2.5s-8.9-.6-10.8-10.4c-2.1-11 2.9-16.7 7.5-19.9z" transform="matrix(.1 0 0 .1 336 664)"/><path class="st3" d="M-2952.7-6417.7c-.4-.7 2-5.8 3.8-11.1 1.8-5.6 2.2-9.6 3.8-9.8 1.6-.2 1.9 1.5 1.9 1.5s.5-2.2 2.1-1.9c1.6.3 1.3 2.5 1.3 2.5s.6-1.1 1.9-.3c1.3.7.5 3.2.5 3.2s.9-1.1 2-.4c1.6.9 1.7 8.8 1.2 13.7-.7 7.2-2.2 12.3-2.2 12.3s-3.7-6.2-7.8-7-7.6-.9-8.5-2.7zm-21.2-5.4c.6-1 2.7-3.4 5.3-2.3 2.6 1.1 4.6 4.2 6.4 7.7s2.1 5.4 4 6.9c1.1.9 5.2 2.6 5.2 2.6l-6.4.6.2 4.1-5-2.1-1.5 5.2-3.5-4.4-4.1 4.2-.1-4.4-3.5 1.6s1.2-1.8 1.9-3.3c3.5-7.7-.8-13.5 1.1-16.4z" transform="matrix(.1 0 0 .1 336 664)"/><path class="st12" d="M-2976.3-6421.7c-1.3.6-1.8 4.9-1.8 4.9s2-1.4 3.4-1.8c1.5-.4-.5-3.6-1.6-3.1z" transform="matrix(.1 0 0 .1 336 664)"/><path class="st13" d="M-2974.5-6422c1.1 0 .9-1.3 2.7-2.8 1.5-1.3 2.6-1.8 2.6-2.6 0-1.4-2.5-2-2.7-.7-.1.7-1.1-.5-2 .3-.8.6-.3 1.5-.5 1.8-.1.3-1.4.2-1.9 1-.4.8-.1 3 1.8 3z" transform="matrix(.1 0 0 .1 336 664)"/><path class="st13" d="M-2974.2-6419.5c-1.3.4-2.2 2.7-.5 3.7 1.9 1.2 3-2.8 3-2.8s3.4-2.1 3-3.2c-.4-1.1-4.9-.2-4.9-.2s-1.8-.4-2.7.3c-.9.7-.9 1.1-.9 1.1s1.2-.3 2.2.2.8.9.8.9z" transform="matrix(.1 0 0 .1 336 664)"/><path class="st9" d="M-2970.8-6421.8c.6-.2 1.1.9.3 1.1-.7.3-1.1-.8-.3-1.1z" transform="matrix(.1 0 0 .1 336 664)"/></g></svg>