<svg xmlns="http://www.w3.org/2000/svg" width="420" height="223"><style>.st0{opacity:.2;enable-background:new}.st1{fill:#762c07}.st2,.st3{opacity:.11;enable-background:new}.st3{opacity:.29}</style><g id="i2054_1_"><path class="st0" d="M50-577l-62 31-2-1 62-31z" transform="translate(160 600)"/><path class="st1" d="M48-591l2-1 2 1v13l-2 1-2-1z" transform="translate(160 600)"/><path class="st2" d="M50-577l-2-1v-13l2 1z" transform="translate(160 600)"/><path class="st1" d="M32-583l2-1 2 1v13l-2 1-2-1zm18-3l-14 14v-2l14-14z" transform="translate(160 600)"/><path class="st1" d="M36-581h14v2H36z" transform="translate(160 600)"/><path class="st2" d="M34-569l-2-1v-13l2 1z" transform="translate(160 600)"/><path class="st1" d="M16-575l2-1 2 1v13l-2 1-2-1zm18-3l-14 14v-2l14-14z" transform="translate(160 600)"/><path class="st1" d="M20-573h14v2H20z" transform="translate(160 600)"/><path class="st2" d="M18-561l-2-1v-13l2 1z" transform="translate(160 600)"/><path class="st1" d="M0-567l2-1 2 1v13l-2 1-2-1zm18-3L4-556v-2l14-14z" transform="translate(160 600)"/><path class="st1" d="M4-565h14v2H4z" transform="translate(160 600)"/><path class="st2" d="M2-553l-2-1v-13l2 1z" transform="translate(160 600)"/><path class="st1" d="M-16-559l2-1 2 1v13l-2 1-2-1zm18-3l-14 14v-2l14-14z" transform="translate(160 600)"/><path class="st1" d="M-12-557H2v2h-14z" transform="translate(160 600)"/><path class="st3" d="M50-590v2l-7 7h-7v-2l-2 1v2l-7 7h-7v-2l-2 1v2l-7 7H4v-2l-2 1v2l-7 7h-7v-2l-2 1v13l2-1v-2l7-7h7v2l2-1v-2l7-7h7v2l2-1v-2l7-7h7v2l2-1v-2l7-7h7v2l2-1v-13l-2 1zm-62 40v-5h5l-5 5zm9-7l5-5v5h-5zm7-1v-5h5l-5 5zm9-7l5-5v5h-5zm7-1v-5h5l-5 5zm9-7l5-5v5h-5zm7-1v-5h5l-5 5zm14-7h-5l5-5v5z" transform="translate(160 600)"/><path class="st2" d="M-14-545l-2-1v-13l2 1z" transform="translate(160 600)"/></g><g id="i2055_1_"><path class="st0" d="M50-577l-62 31-2-1 62-31z" transform="translate(96 632)"/><path class="st1" d="M48-591l2-1 2 1v13l-2 1-2-1z" transform="translate(96 632)"/><path class="st2" d="M50-577l-2-1v-13l2 1z" transform="translate(96 632)"/><path class="st1" d="M32-583l2-1 2 1v13l-2 1-2-1zm18-3l-14 14v-2l14-14z" transform="translate(96 632)"/><path class="st1" d="M36-581h14v2H36z" transform="translate(96 632)"/><path class="st2" d="M34-569l-2-1v-13l2 1z" transform="translate(96 632)"/><path class="st1" d="M16-575l2-1 2 1v13l-2 1-2-1zm18-3l-14 14v-2l14-14z" transform="translate(96 632)"/><path class="st1" d="M20-573h14v2H20z" transform="translate(96 632)"/><path class="st2" d="M18-561l-2-1v-13l2 1z" transform="translate(96 632)"/><path class="st1" d="M0-567l2-1 2 1v13l-2 1-2-1zm18-3L4-556v-2l14-14z" transform="translate(96 632)"/><path class="st1" d="M4-565h14v2H4z" transform="translate(96 632)"/><path class="st2" d="M2-553l-2-1v-13l2 1z" transform="translate(96 632)"/><path class="st1" d="M-16-559l2-1 2 1v13l-2 1-2-1zm18-3l-14 14v-2l14-14z" transform="translate(96 632)"/><path class="st1" d="M-12-557H2v2h-14z" transform="translate(96 632)"/><path class="st3" d="M50-590v2l-7 7h-7v-2l-2 1v2l-7 7h-7v-2l-2 1v2l-7 7H4v-2l-2 1v2l-7 7h-7v-2l-2 1v13l2-1v-2l7-7h7v2l2-1v-2l7-7h7v2l2-1v-2l7-7h7v2l2-1v-2l7-7h7v2l2-1v-13l-2 1zm-62 40v-5h5l-5 5zm9-7l5-5v5h-5zm7-1v-5h5l-5 5zm9-7l5-5v5h-5zm7-1v-5h5l-5 5zm9-7l5-5v5h-5zm7-1v-5h5l-5 5zm14-7h-5l5-5v5z" transform="translate(96 632)"/><path class="st2" d="M-14-545l-2-1v-13l2 1z" transform="translate(96 632)"/></g><g id="i2056_1_"><path class="st0" d="M50-577l-62 31-2-1 62-31z" transform="translate(32 664)"/><path class="st1" d="M48-591l2-1 2 1v13l-2 1-2-1z" transform="translate(32 664)"/><path class="st2" d="M50-577l-2-1v-13l2 1z" transform="translate(32 664)"/><path class="st1" d="M32-583l2-1 2 1v13l-2 1-2-1zm18-3l-14 14v-2l14-14z" transform="translate(32 664)"/><path class="st1" d="M36-581h14v2H36z" transform="translate(32 664)"/><path class="st2" d="M34-569l-2-1v-13l2 1z" transform="translate(32 664)"/><path class="st1" d="M16-575l2-1 2 1v13l-2 1-2-1zm18-3l-14 14v-2l14-14z" transform="translate(32 664)"/><path class="st1" d="M20-573h14v2H20z" transform="translate(32 664)"/><path class="st2" d="M18-561l-2-1v-13l2 1z" transform="translate(32 664)"/><path class="st1" d="M0-567l2-1 2 1v13l-2 1-2-1zm18-3L4-556v-2l14-14z" transform="translate(32 664)"/><path class="st1" d="M4-565h14v2H4z" transform="translate(32 664)"/><path class="st2" d="M2-553l-2-1v-13l2 1z" transform="translate(32 664)"/><path class="st1" d="M-16-559l2-1 2 1v13l-2 1-2-1zm18-3l-14 14v-2l14-14z" transform="translate(32 664)"/><path class="st1" d="M-12-557H2v2h-14z" transform="translate(32 664)"/><path class="st3" d="M50-590v2l-7 7h-7v-2l-2 1v2l-7 7h-7v-2l-2 1v2l-7 7H4v-2l-2 1v2l-7 7h-7v-2l-2 1v13l2-1v-2l7-7h7v2l2-1v-2l7-7h7v2l2-1v-2l7-7h7v2l2-1v-2l7-7h7v2l2-1v-13l-2 1zm-62 40v-5h5l-5 5zm9-7l5-5v5h-5zm7-1v-5h5l-5 5zm9-7l5-5v5h-5zm7-1v-5h5l-5 5zm9-7l5-5v5h-5zm7-1v-5h5l-5 5zm14-7h-5l5-5v5z" transform="translate(32 664)"/><path class="st2" d="M-14-545l-2-1v-13l2 1z" transform="translate(32 664)"/></g><g id="i2058_1_"><path class="st0" d="M-14-577l62 31 2-1-62-31z" transform="translate(16 704)"/><path class="st1" d="M-12-591l-2-1-2 1v13l2 1 2-1z" transform="translate(16 704)"/><path class="st3" d="M-14-577l2-1v-13l-2 1z" transform="translate(16 704)"/><path class="st1" d="M4-583l-2-1-2 1v13l2 1 2-1zm-18-3l14 14v-2l-14-14z" transform="translate(16 704)"/><path class="st1" d="M-14-581H0v2h-14z" transform="translate(16 704)"/><path class="st3" d="M2-569l2-1v-13l-2 1z" transform="translate(16 704)"/><path class="st1" d="M20-575l-2-1-2 1v13l2 1 2-1zm-18-3l14 14v-2L2-580z" transform="translate(16 704)"/><path class="st1" d="M2-573h14v2H2z" transform="translate(16 704)"/><path class="st3" d="M18-561l2-1v-13l-2 1z" transform="translate(16 704)"/><path class="st1" d="M36-567l-2-1-2 1v13l2 1 2-1zm-18-3l14 14v-2l-14-14z" transform="translate(16 704)"/><path class="st1" d="M18-565h14v2H18z" transform="translate(16 704)"/><path class="st3" d="M34-553l2-1v-13l-2 1z" transform="translate(16 704)"/><path class="st1" d="M52-559l-2-1-2 1v13l2 1 2-1zm-18-3l14 14v-2l-14-14z" transform="translate(16 704)"/><path class="st1" d="M34-557h14v2H34z" transform="translate(16 704)"/><path class="st2" d="M-16-591v13l2 1v-2h7l7 7v2l2 1v-2h7l7 7v2l2 1v-2h7l7 7v2l2 1v-2h7l7 7v2l2 1v-13l-2-1v2h-7l-7-7v-2l-2-1v2h-7l-7-7v-2l-2-1v2H9l-7-7v-2l-2-1v2h-7l-7-7v-2l-2-1zm59 36h5v5l-5-5zm-9-2v-5l5 5h-5zm-7-6h5v5l-5-5zm-9-2v-5l5 5h-5zm-7-6h5v5l-5-5zm-9-2v-5l5 5H2zm-7-6h5v5l-5-5zm-9-7l5 5h-5v-5z" transform="translate(16 704)"/><path class="st3" d="M50-545l2-1v-13l-2 1z" transform="translate(16 704)"/></g><g id="i2059_1_"><path class="st0" d="M-14-577l62 31 2-1-62-31z" transform="translate(80 736)"/><path class="st1" d="M-12-591l-2-1-2 1v13l2 1 2-1z" transform="translate(80 736)"/><path class="st3" d="M-14-577l2-1v-13l-2 1z" transform="translate(80 736)"/><path class="st1" d="M4-583l-2-1-2 1v13l2 1 2-1zm-18-3l14 14v-2l-14-14z" transform="translate(80 736)"/><path class="st1" d="M-14-581H0v2h-14z" transform="translate(80 736)"/><path class="st3" d="M2-569l2-1v-13l-2 1z" transform="translate(80 736)"/><path class="st1" d="M20-575l-2-1-2 1v13l2 1 2-1zm-18-3l14 14v-2L2-580z" transform="translate(80 736)"/><path class="st1" d="M2-573h14v2H2z" transform="translate(80 736)"/><path class="st3" d="M18-561l2-1v-13l-2 1z" transform="translate(80 736)"/><path class="st1" d="M36-567l-2-1-2 1v13l2 1 2-1zm-18-3l14 14v-2l-14-14z" transform="translate(80 736)"/><path class="st1" d="M18-565h14v2H18z" transform="translate(80 736)"/><path class="st3" d="M34-553l2-1v-13l-2 1z" transform="translate(80 736)"/><path class="st1" d="M52-559l-2-1-2 1v13l2 1 2-1zm-18-3l14 14v-2l-14-14z" transform="translate(80 736)"/><path class="st1" d="M34-557h14v2H34z" transform="translate(80 736)"/><path class="st2" d="M-16-591v13l2 1v-2h7l7 7v2l2 1v-2h7l7 7v2l2 1v-2h7l7 7v2l2 1v-2h7l7 7v2l2 1v-13l-2-1v2h-7l-7-7v-2l-2-1v2h-7l-7-7v-2l-2-1v2H9l-7-7v-2l-2-1v2h-7l-7-7v-2l-2-1zm59 36h5v5l-5-5zm-9-2v-5l5 5h-5zm-7-6h5v5l-5-5zm-9-2v-5l5 5h-5zm-7-6h5v5l-5-5zm-9-2v-5l5 5H2zm-7-6h5v5l-5-5zm-9-7l5 5h-5v-5z" transform="translate(80 736)"/><path class="st3" d="M50-545l2-1v-13l-2 1z" transform="translate(80 736)"/></g><g id="i2060_1_"><path class="st0" d="M-14-577l62 31 2-1-62-31z" transform="translate(144 768)"/><path class="st1" d="M-12-591l-2-1-2 1v13l2 1 2-1z" transform="translate(144 768)"/><path class="st3" d="M-14-577l2-1v-13l-2 1z" transform="translate(144 768)"/><path class="st1" d="M4-583l-2-1-2 1v13l2 1 2-1zm-18-3l14 14v-2l-14-14z" transform="translate(144 768)"/><path class="st1" d="M-14-581H0v2h-14z" transform="translate(144 768)"/><path class="st3" d="M2-569l2-1v-13l-2 1z" transform="translate(144 768)"/><path class="st1" d="M20-575l-2-1-2 1v13l2 1 2-1zm-18-3l14 14v-2L2-580z" transform="translate(144 768)"/><path class="st1" d="M2-573h14v2H2z" transform="translate(144 768)"/><path class="st3" d="M18-561l2-1v-13l-2 1z" transform="translate(144 768)"/><path class="st1" d="M36-567l-2-1-2 1v13l2 1 2-1zm-18-3l14 14v-2l-14-14z" transform="translate(144 768)"/><path class="st1" d="M18-565h14v2H18z" transform="translate(144 768)"/><path class="st3" d="M34-553l2-1v-13l-2 1z" transform="translate(144 768)"/><path class="st1" d="M52-559l-2-1-2 1v13l2 1 2-1zm-18-3l14 14v-2l-14-14z" transform="translate(144 768)"/><path class="st1" d="M34-557h14v2H34z" transform="translate(144 768)"/><path class="st2" d="M-16-591v13l2 1v-2h7l7 7v2l2 1v-2h7l7 7v2l2 1v-2h7l7 7v2l2 1v-2h7l7 7v2l2 1v-13l-2-1v2h-7l-7-7v-2l-2-1v2h-7l-7-7v-2l-2-1v2H9l-7-7v-2l-2-1v2h-7l-7-7v-2l-2-1zm59 36h5v5l-5-5zm-9-2v-5l5 5h-5zm-7-6h5v5l-5-5zm-9-2v-5l5 5h-5zm-7-6h5v5l-5-5zm-9-2v-5l5 5H2zm-7-6h5v5l-5-5zm-9-7l5 5h-5v-5z" transform="translate(144 768)"/><path class="st3" d="M50-545l2-1v-13l-2 1z" transform="translate(144 768)"/></g><g id="i2102_1_"><path class="st0" d="M50-577l-62 31-2-1 62-31z" transform="translate(208 768)"/><path class="st1" d="M48-591l2-1 2 1v13l-2 1-2-1z" transform="translate(208 768)"/><path class="st2" d="M50-577l-2-1v-13l2 1z" transform="translate(208 768)"/><path class="st1" d="M32-583l2-1 2 1v13l-2 1-2-1zm18-3l-14 14v-2l14-14z" transform="translate(208 768)"/><path class="st1" d="M36-581h14v2H36z" transform="translate(208 768)"/><path class="st2" d="M34-569l-2-1v-13l2 1z" transform="translate(208 768)"/><path class="st1" d="M16-575l2-1 2 1v13l-2 1-2-1zm18-3l-14 14v-2l14-14z" transform="translate(208 768)"/><path class="st1" d="M20-573h14v2H20z" transform="translate(208 768)"/><path class="st2" d="M18-561l-2-1v-13l2 1z" transform="translate(208 768)"/><path class="st1" d="M0-567l2-1 2 1v13l-2 1-2-1zm18-3L4-556v-2l14-14z" transform="translate(208 768)"/><path class="st1" d="M4-565h14v2H4z" transform="translate(208 768)"/><path class="st2" d="M2-553l-2-1v-13l2 1z" transform="translate(208 768)"/><path class="st1" d="M-16-559l2-1 2 1v13l-2 1-2-1zm18-3l-14 14v-2l14-14z" transform="translate(208 768)"/><path class="st1" d="M-12-557H2v2h-14z" transform="translate(208 768)"/><path class="st3" d="M50-590v2l-7 7h-7v-2l-2 1v2l-7 7h-7v-2l-2 1v2l-7 7H4v-2l-2 1v2l-7 7h-7v-2l-2 1v13l2-1v-2l7-7h7v2l2-1v-2l7-7h7v2l2-1v-2l7-7h7v2l2-1v-2l7-7h7v2l2-1v-13l-2 1zm-62 40v-5h5l-5 5zm9-7l5-5v5h-5zm7-1v-5h5l-5 5zm9-7l5-5v5h-5zm7-1v-5h5l-5 5zm9-7l5-5v5h-5zm7-1v-5h5l-5 5zm14-7h-5l5-5v5z" transform="translate(208 768)"/><path class="st2" d="M-14-545l-2-1v-13l2 1z" transform="translate(208 768)"/></g><g id="i2103_1_"><path class="st0" d="M50-577l-62 31-2-1 62-31z" transform="translate(304 720)"/><path class="st1" d="M48-591l2-1 2 1v13l-2 1-2-1z" transform="translate(304 720)"/><path class="st2" d="M50-577l-2-1v-13l2 1z" transform="translate(304 720)"/><path class="st1" d="M32-583l2-1 2 1v13l-2 1-2-1zm18-3l-14 14v-2l14-14z" transform="translate(304 720)"/><path class="st1" d="M36-581h14v2H36z" transform="translate(304 720)"/><path class="st2" d="M34-569l-2-1v-13l2 1z" transform="translate(304 720)"/><path class="st1" d="M16-575l2-1 2 1v13l-2 1-2-1zm18-3l-14 14v-2l14-14z" transform="translate(304 720)"/><path class="st1" d="M20-573h14v2H20z" transform="translate(304 720)"/><path class="st2" d="M18-561l-2-1v-13l2 1z" transform="translate(304 720)"/><path class="st1" d="M0-567l2-1 2 1v13l-2 1-2-1zm18-3L4-556v-2l14-14z" transform="translate(304 720)"/><path class="st1" d="M4-565h14v2H4z" transform="translate(304 720)"/><path class="st2" d="M2-553l-2-1v-13l2 1z" transform="translate(304 720)"/><path class="st1" d="M-16-559l2-1 2 1v13l-2 1-2-1zm18-3l-14 14v-2l14-14z" transform="translate(304 720)"/><path class="st1" d="M-12-557H2v2h-14z" transform="translate(304 720)"/><path class="st3" d="M50-590v2l-7 7h-7v-2l-2 1v2l-7 7h-7v-2l-2 1v2l-7 7H4v-2l-2 1v2l-7 7h-7v-2l-2 1v13l2-1v-2l7-7h7v2l2-1v-2l7-7h7v2l2-1v-2l7-7h7v2l2-1v-2l7-7h7v2l2-1v-13l-2 1zm-62 40v-5h5l-5 5zm9-7l5-5v5h-5zm7-1v-5h5l-5 5zm9-7l5-5v5h-5zm7-1v-5h5l-5 5zm9-7l5-5v5h-5zm7-1v-5h5l-5 5zm14-7h-5l5-5v5z" transform="translate(304 720)"/><path class="st2" d="M-14-545l-2-1v-13l2 1z" transform="translate(304 720)"/></g><g id="i2104_1_"><path class="st0" d="M50-577l-62 31-2-1 62-31z" transform="translate(368 688)"/><path class="st1" d="M48-591l2-1 2 1v13l-2 1-2-1z" transform="translate(368 688)"/><path class="st2" d="M50-577l-2-1v-13l2 1z" transform="translate(368 688)"/><path class="st1" d="M32-583l2-1 2 1v13l-2 1-2-1zm18-3l-14 14v-2l14-14z" transform="translate(368 688)"/><path class="st1" d="M36-581h14v2H36z" transform="translate(368 688)"/><path class="st2" d="M34-569l-2-1v-13l2 1z" transform="translate(368 688)"/><path class="st1" d="M16-575l2-1 2 1v13l-2 1-2-1zm18-3l-14 14v-2l14-14z" transform="translate(368 688)"/><path class="st1" d="M20-573h14v2H20z" transform="translate(368 688)"/><path class="st2" d="M18-561l-2-1v-13l2 1z" transform="translate(368 688)"/><path class="st1" d="M0-567l2-1 2 1v13l-2 1-2-1zm18-3L4-556v-2l14-14z" transform="translate(368 688)"/><path class="st1" d="M4-565h14v2H4z" transform="translate(368 688)"/><path class="st2" d="M2-553l-2-1v-13l2 1z" transform="translate(368 688)"/><path class="st1" d="M-16-559l2-1 2 1v13l-2 1-2-1zm18-3l-14 14v-2l14-14z" transform="translate(368 688)"/><path class="st1" d="M-12-557H2v2h-14z" transform="translate(368 688)"/><path class="st3" d="M50-590v2l-7 7h-7v-2l-2 1v2l-7 7h-7v-2l-2 1v2l-7 7H4v-2l-2 1v2l-7 7h-7v-2l-2 1v13l2-1v-2l7-7h7v2l2-1v-2l7-7h7v2l2-1v-2l7-7h7v2l2-1v-2l7-7h7v2l2-1v-13l-2 1zm-62 40v-5h5l-5 5zm9-7l5-5v5h-5zm7-1v-5h5l-5 5zm9-7l5-5v5h-5zm7-1v-5h5l-5 5zm9-7l5-5v5h-5zm7-1v-5h5l-5 5zm14-7h-5l5-5v5z" transform="translate(368 688)"/><path class="st2" d="M-14-545l-2-1v-13l2 1z" transform="translate(368 688)"/></g><g id="i2105_1_"><path class="st0" d="M2-577l-14 7-2-1 14-7z" transform="translate(224 592)"/><path class="st1" d="M0-591l2-1 2 1v13l-2 1-2-1z" transform="translate(224 592)"/><path class="st2" d="M2-577l-2-1v-13l2 1z" transform="translate(224 592)"/><path class="st1" d="M-16-583l2-1 2 1v13l-2 1-2-1zm18-3l-14 14v-2l14-14z" transform="translate(224 592)"/><path class="st1" d="M-12-581H2v2h-14z" transform="translate(224 592)"/><path class="st3" d="M2-590v2l-7 7h-7v-2l-2 1v13l2-1v-2l7-7h7v2l2-1v-13l-2 1zm-14 16v-5h5l-5 5zm14-7h-5l5-5v5z" transform="translate(224 592)"/><path class="st2" d="M-14-569l-2-1v-13l2 1z" transform="translate(224 592)"/></g><g id="i2106_1_"><path class="st0" d="M-14-577l62 31 2-1-62-31z" transform="translate(368 656)"/><path class="st1" d="M-12-591l-2-1-2 1v13l2 1 2-1z" transform="translate(368 656)"/><path class="st3" d="M-14-577l2-1v-13l-2 1z" transform="translate(368 656)"/><path class="st1" d="M4-583l-2-1-2 1v13l2 1 2-1zm-18-3l14 14v-2l-14-14z" transform="translate(368 656)"/><path class="st1" d="M-14-581H0v2h-14z" transform="translate(368 656)"/><path class="st3" d="M2-569l2-1v-13l-2 1z" transform="translate(368 656)"/><path class="st1" d="M20-575l-2-1-2 1v13l2 1 2-1zm-18-3l14 14v-2L2-580z" transform="translate(368 656)"/><path class="st1" d="M2-573h14v2H2z" transform="translate(368 656)"/><path class="st3" d="M18-561l2-1v-13l-2 1z" transform="translate(368 656)"/><path class="st1" d="M36-567l-2-1-2 1v13l2 1 2-1zm-18-3l14 14v-2l-14-14z" transform="translate(368 656)"/><path class="st1" d="M18-565h14v2H18z" transform="translate(368 656)"/><path class="st3" d="M34-553l2-1v-13l-2 1z" transform="translate(368 656)"/><path class="st1" d="M52-559l-2-1-2 1v13l2 1 2-1zm-18-3l14 14v-2l-14-14z" transform="translate(368 656)"/><path class="st1" d="M34-557h14v2H34z" transform="translate(368 656)"/><path class="st2" d="M-16-591v13l2 1v-2h7l7 7v2l2 1v-2h7l7 7v2l2 1v-2h7l7 7v2l2 1v-2h7l7 7v2l2 1v-13l-2-1v2h-7l-7-7v-2l-2-1v2h-7l-7-7v-2l-2-1v2H9l-7-7v-2l-2-1v2h-7l-7-7v-2l-2-1zm59 36h5v5l-5-5zm-9-2v-5l5 5h-5zm-7-6h5v5l-5-5zm-9-2v-5l5 5h-5zm-7-6h5v5l-5-5zm-9-2v-5l5 5H2zm-7-6h5v5l-5-5zm-9-7l5 5h-5v-5z" transform="translate(368 656)"/><path class="st3" d="M50-545l2-1v-13l-2 1z" transform="translate(368 656)"/></g><g id="i2107_1_"><path class="st0" d="M-14-577l62 31 2-1-62-31z" transform="translate(304 624)"/><path class="st1" d="M-12-591l-2-1-2 1v13l2 1 2-1z" transform="translate(304 624)"/><path class="st3" d="M-14-577l2-1v-13l-2 1z" transform="translate(304 624)"/><path class="st1" d="M4-583l-2-1-2 1v13l2 1 2-1zm-18-3l14 14v-2l-14-14z" transform="translate(304 624)"/><path class="st1" d="M-14-581H0v2h-14z" transform="translate(304 624)"/><path class="st3" d="M2-569l2-1v-13l-2 1z" transform="translate(304 624)"/><path class="st1" d="M20-575l-2-1-2 1v13l2 1 2-1zm-18-3l14 14v-2L2-580z" transform="translate(304 624)"/><path class="st1" d="M2-573h14v2H2z" transform="translate(304 624)"/><path class="st3" d="M18-561l2-1v-13l-2 1z" transform="translate(304 624)"/><path class="st1" d="M36-567l-2-1-2 1v13l2 1 2-1zm-18-3l14 14v-2l-14-14z" transform="translate(304 624)"/><path class="st1" d="M18-565h14v2H18z" transform="translate(304 624)"/><path class="st3" d="M34-553l2-1v-13l-2 1z" transform="translate(304 624)"/><path class="st1" d="M52-559l-2-1-2 1v13l2 1 2-1zm-18-3l14 14v-2l-14-14z" transform="translate(304 624)"/><path class="st1" d="M34-557h14v2H34z" transform="translate(304 624)"/><path class="st2" d="M-16-591v13l2 1v-2h7l7 7v2l2 1v-2h7l7 7v2l2 1v-2h7l7 7v2l2 1v-2h7l7 7v2l2 1v-13l-2-1v2h-7l-7-7v-2l-2-1v2h-7l-7-7v-2l-2-1v2H9l-7-7v-2l-2-1v2h-7l-7-7v-2l-2-1zm59 36h5v5l-5-5zm-9-2v-5l5 5h-5zm-7-6h5v5l-5-5zm-9-2v-5l5 5h-5zm-7-6h5v5l-5-5zm-9-2v-5l5 5H2zm-7-6h5v5l-5-5zm-9-7l5 5h-5v-5z" transform="translate(304 624)"/><path class="st3" d="M50-545l2-1v-13l-2 1z" transform="translate(304 624)"/></g><g id="i2109_1_"><path class="st0" d="M-14-577l62 31 2-1-62-31z" transform="translate(240 592)"/><path class="st1" d="M-12-591l-2-1-2 1v13l2 1 2-1z" transform="translate(240 592)"/><path class="st3" d="M-14-577l2-1v-13l-2 1z" transform="translate(240 592)"/><path class="st1" d="M4-583l-2-1-2 1v13l2 1 2-1zm-18-3l14 14v-2l-14-14z" transform="translate(240 592)"/><path class="st1" d="M-14-581H0v2h-14z" transform="translate(240 592)"/><path class="st3" d="M2-569l2-1v-13l-2 1z" transform="translate(240 592)"/><path class="st1" d="M20-575l-2-1-2 1v13l2 1 2-1zm-18-3l14 14v-2L2-580z" transform="translate(240 592)"/><path class="st1" d="M2-573h14v2H2z" transform="translate(240 592)"/><path class="st3" d="M18-561l2-1v-13l-2 1z" transform="translate(240 592)"/><path class="st1" d="M36-567l-2-1-2 1v13l2 1 2-1zm-18-3l14 14v-2l-14-14z" transform="translate(240 592)"/><path class="st1" d="M18-565h14v2H18z" transform="translate(240 592)"/><path class="st3" d="M34-553l2-1v-13l-2 1z" transform="translate(240 592)"/><path class="st1" d="M52-559l-2-1-2 1v13l2 1 2-1zm-18-3l14 14v-2l-14-14z" transform="translate(240 592)"/><path class="st1" d="M34-557h14v2H34z" transform="translate(240 592)"/><path class="st2" d="M-16-591v13l2 1v-2h7l7 7v2l2 1v-2h7l7 7v2l2 1v-2h7l7 7v2l2 1v-2h7l7 7v2l2 1v-13l-2-1v2h-7l-7-7v-2l-2-1v2h-7l-7-7v-2l-2-1v2H9l-7-7v-2l-2-1v2h-7l-7-7v-2l-2-1zm59 36h5v5l-5-5zm-9-2v-5l5 5h-5zm-7-6h5v5l-5-5zm-9-2v-5l5 5h-5zm-7-6h5v5l-5-5zm-9-2v-5l5 5H2zm-7-6h5v5l-5-5zm-9-7l5 5h-5v-5z" transform="translate(240 592)"/><path class="st3" d="M50-545l2-1v-13l-2 1z" transform="translate(240 592)"/></g></svg>