<svg xmlns="http://www.w3.org/2000/svg" width="128" height="72"><style>.st0{fill:#825012}.st1{fill:#f90}.st2{fill:#fc0}</style><g id="i2099_1_"><path class="st0" d="M-64-632l64 32-64 32-64-32z" transform="translate(128 640)"/><path class="st0" d="M-64-632l64 32-64 32-64-32z" transform="translate(128 640)"/><path class="st1" d="M-70.2-631.2v-3.2c0-.1-.1-.2-.2-.2s-.2.1-.2.2v3c-.1 0-.2.1-.2.2v7.2c0 .1.1.2.2.2v8.6s-.1 0-.1.1v-2.5c0-.1-.1-.2-.2-.2v-8.8c0-.1-.1-.1-.1-.2v-5.3c0-.1-.1-.2-.2-.2s-.2.1-.2.2v.5h-.1c-.1 0-.2.1-.2.2v3.3l-.1.1v5.4c0 .1.1.2.2.2h.1v1.4c-.1 0-.1.1-.1.2v5.3-2.8c0-.1-.1-.2-.2-.2v-8.8c0-.1-.1-.1-.1-.2v-5.1c0-.1-.1-.2-.2-.2s-.2.1-.2.2v.6h-.1c-.1 0-.2.1-.2.2v3.3l-.1.1v5.4c0 .1.1.2.2.2h.1v1.4c-.1 0-.1.1-.1.2v5.2l-.1.1v3.3l-.1.1v5.5c0 .1.1.2.2.2h.1v1.4c-.1 0-.1.1-.1.2v5.2l-.1.1v3.3l-.1.1v5.5c0 .1.1.2.2.2h.1v1.4c-.1 0-.1.1-.1.2v5.2l-.1.1v3.3l-.1.1v5.5c0 .1.1.2.2.2s.2-.1.2-.2v-2.3c0 .1.1.1.1.2v4.1c0 .1.1.2.2.2s.2-.1.2-.2v-6.3c0-.1-.1-.1-.1-.2v-2c0 .1.1.1.2.1s.1 0 .2-.1v1.3l-.1.1v5.4c0 .1.1.2.2.2s.2-.1.2-.2v-2.3c0 .1.1.1.1.2v4.1c0 .1.1.2.2.2s.2-.1.2-.2v-6.3c0-.1-.1-.1-.1-.2v-2c0 .1.1.1.2.1 0 0 .1 0 .1-.1v5.2c0 .1.1.2.2.2v3.6c0 .1.1.2.2.2s.2-.1.2-.2v-1.9c.1 0 .1-.1.1-.2v-3.8l.1-.1v-10.4c0-.1-.1-.2-.2-.2v-1.5c.1 0 .1-.1.1-.2v-3.8l.1-.1v-10.2c0-.1-.1-.2-.2-.2v-1.5c.1 0 .1-.1.1-.2v-3.8l.1-.1v-10.2c0-.1-.1-.2-.2-.2v-1.5c.1 0 .1-.1.1-.2v-3.8l.1-.1v-4.6c-.3-.1-.4-.2-.5-.2zm-.2 35.2v.3-.3zm0-16v.3-.3zm0-16v.4-.4zm-.5 15.1s.1 0 0 0l.1 4.9c0 .1.1.2.2.2v8.6s-.1 0-.1.1v-2.5c0-.1-.1-.2-.2-.2v-8.8c0-.1-.1-.1-.1-.2v-2c0-.1 0-.1.1-.1zm-.4-5.5v1.6c0 .1.1.2.2.2v.5c0-.1-.1-.1-.2-.1h-.1l.1-2.2zm-.1 11.9v-2.3c0 .1.1.1.1.2l-.1 2.1c.1 0 .1 0 0 0zm0 16v-2.3c0 .1.1.1.1.2l-.1 2.1c.1 0 .1 0 0 0zm.2-9.8c-.1 0-.1 0 0 0l-.1-2.1v1.6c0 .1.1.2.2.2v.5c0-.1 0-.2-.1-.2zm-.2-24.6c0 .1.1.1.1.2v2.2h-.2l.1-2.4zm-.5 11.6c.1 0 .1 0 .2-.1v1.3l-.1.1v5.4c0 .1.1.2.2.2h.1v1.4c-.1 0-.1.1-.1.2v5.3-2.8c0-.1-.1-.2-.2-.2v-8.8c0-.1-.1-.1-.1-.2v-2c-.1.1-.1.2 0 .2zm-.5 22.3v-2.3c0 .1.1.1.1.2l-.1 2.1c.1 0 .1 0 0 0zm.1-27.9v1.6c0 .1.1.2.2.2v.5c0-.1-.1-.1-.2-.1h-.1l.1-2.2c0 .1 0 .1 0 0zm-.1 11.9v-2.3c0 .1.1.1.1.2l-.1 2.1c.1 0 .1 0 0 0zm.2 6.3c-.1 0-.1 0 0 0l-.1-2.1v1.6c0 .1.1.2.2.2v.5c0-.2 0-.2-.1-.2zm-.2-24.6c0 .1.1.1.1.2v2.1h-.2l.1-2.3zm.2 40.6c-.1 0-.1 0 0 0l-.1-2.1v1.6c0 .1.1.2.2.2v.5c0-.2 0-.2-.1-.2zm.3-1.8v-8.8c0-.1-.1-.1-.1-.2v-2c0 .1.1.1.2.1s.1 0 .2-.1v1.3l-.1.1v5.4c0 .1.1.2.2.2h.1v1.5c-.1 0-.1.1-.1.2v5.3-2.8c-.2-.1-.3-.2-.4-.2zm.7 2.2c-.1 0-.1 0 0 0l-.1-2.1v1.6c0 .1.1.2.2.2v.5c0-.1 0-.2-.1-.2zm.7.9s-.1 0 0 0c-.1 0-.1 0 0 0l-.1-2.5c0-.1-.1-.2-.2-.2v-8.8c0-.1-.1-.1-.1-.2v-2c0 .1.1.1.2.1 0 0 .1 0 .1-.1v5.1c0 .1.1.2.2.2v8.4h-.1zm.1 3.7c0 .1 0 .1 0 0v-.4.4zm4.4-54.8c0-.1-.1-.2-.2-.2v-.7c0-.1-.1-.2-.2-.2s-.2.1-.2.2v6.1s-.1 0-.1.1v-2.7c0-.1-.1-.2-.2-.2s-.2.1-.2.2v1.7c0-.1-.1-.1-.2-.1h-.1v-4.5c0-.1-.1-.2-.2-.2s-.2.1-.2.2v5.3-2.8c0-.1-.1-.2-.2-.2s-.2.1-.2.2v1.7c0-.1-.1-.1-.2-.1h-.1v-4.6c0-.1-.1-.2-.2-.2s-.2.1-.2.2v5.3l-.1.1v4.8c0 .1.1.2.2.2v5.5c-.1 0-.1.1-.1.2v5.2l-.1.1v4.8c0 .1.1.2.2.2v5.5c-.1 0-.1.1-.1.2v5.2l-.1.1v4.8c0 .1.1.2.2.2v5.5c-.1 0-.1.1-.1.2v5.2l-.1.1v4.8c0 .1.1.2.2.2v5.7c0 .1.1.2.2.2s.2-.1.2-.2v-4c.1 0 .1-.1.1-.2v-4.2c0 .1.1.1.2.1s.1 0 .2-.1v2.8c0 .1.1.2.2.2v5.7c0 .1.1.2.2.2s.2-.1.2-.2v-4c.1 0 .1-.1.1-.2v-3.9c0 .1.1.1.2.1 0 0 .1 0 .1-.1v5c0 .1.1.2.2.2v3.6c0 .1.1.2.2.2s.2-.1.2-.2v-1.9c.1 0 .1-.1.1-.2v-3.8l.1-.1v-10.4c0-.1-.1-.2-.2-.2v-1.5c.1 0 .1-.1.1-.2v-3.8l.1-.1v-10.2c0-.1-.1-.2-.2-.2v-1.5c.1 0 .1-.1.1-.2v-3.8l.1-.1v-10.2c0-.1-.1-.2-.2-.2v-1.5c.1 0 .1-.1.1-.2v-3.8l.1-.1v-10.1h.1zm-.9 34.4v-4c0-.1-.1-.2-.2-.2h-.1v-2.5c.1 0 .1-.1.1-.2v-4c0 .1.1.1.2.1 0 0 .1 0 .1-.1v5c0 .1.1.2.2.2v8.6s-.1 0-.1.1v-2.5c0-.4-.1-.5-.2-.5zm-1-.4v-4c0-.1-.1-.2-.2-.2h-.1v-2.5c.1 0 .1-.1.1-.2v-4.2c0 .1.1.1.2.1s.1 0 .2-.1v2.8c0 .1.1.2.2.2v5.6c-.1 0-.1.1-.1.2v5.3-2.8c-.1-.1-.2-.2-.3-.2zm-.3-14.2c-.1 0-.1 0 0 0l-.1-2.1v1.6c0 .1.1.2.2.2v.5c0-.2 0-.2-.1-.2zm0 16c-.1 0-.1 0 0 0l-.1-2.1v1.6c0 .1.1.2.2.2v.5c0-.2 0-.2-.1-.2zm1-15.6c-.1 0-.1 0 0 0l-.1-2.1v1.6c0 .1.1.2.2.2v.5c0-.1 0-.2-.1-.2zm0 16c-.1 0-.1 0 0 0l-.1-2.1v1.6c0 .1.1.2.2.2v.5c0-.1 0-.2-.1-.2zm.8-11.4c0 .1 0 .1 0 0v-.4.4zm0 16c0 .1 0 .1 0 0v-.4.4zm0-32.3v.4-.4zm-.8 5.5v-2.2c.1 0 .1-.1.1-.2v-4.1c0 .1.1.1.2.1 0 0 .1 0 .1-.1v5c0 .1.1.2.2.2v8.6s-.1 0-.1.1v-2.5c0-.1-.1-.2-.2-.2v-4c0-.1-.1-.2-.2-.2h-.1v-.5zm-1-.5v-2.2c.1 0 .1-.1.1-.2v-4.2c0 .1.1.1.2.1s.1 0 .2-.1v2.8c0 .1.1.2.2.2v5.6c-.1 0-.1.1-.1.2v5.3-2.8c0-.1-.1-.2-.2-.2v-4c0-.1-.1-.2-.2-.2h-.1v-.1l-.1-.2zm0 38.3c-.1 0-.1 0 0 0l-.1-2.1v1.6c0 .1.1.2.2.2v.5c0-.2 0-.2-.1-.2zm.5-4.1v5.3-2.8c0-.1-.1-.2-.2-.2v-4c0-.1-.1-.2-.2-.2h-.1v-2.5c.1 0 .1-.1.1-.2v-4.2c0 .1.1.1.2.1s.1 0 .2-.1v2.8c0 .1.1.2.2.2v5.6c-.1 0-.2.1-.2.2zm.5 4.5c-.1 0-.1 0 0 0l-.1-2.1v1.6c0 .1.1.2.2.2v.5c0-.1 0-.2-.1-.2zm.7.1v.8s-.1 0-.1.1v-2.5c0-.1-.1-.2-.2-.2v-4c0-.1-.1-.2-.2-.2h-.1v-2.5c.1 0 .1-.1.1-.2v-4.1c0 .1.1.1.2.1 0 0 .1 0 .1-.1v5c0 .1.1.2.2.2v7.6zm.1 4.5c0 .1 0 .1 0 0v-.4.4zm4.4-54.8c0-.1-.1-.2-.2-.2v-2.7c0-.1-.1-.2-.2-.2s-.2.1-.2.2v8.1-.7c0-.1 0-.1-.1-.2v-1.7c0-.1-.1-.2-.2-.2v-4c0-.1-.1-.2-.2-.2h-.1v-.1c0-.1-.1-.2-.2-.2s-.2.1-.2.2v1.4c-.1 0-.1.1-.1.2v4.2-1.7c0-.1-.1-.2-.2-.2v-4c0-.1-.1-.2-.2-.2h-.1v-.1c0-.1-.1-.2-.2-.2s-.2.1-.2.2v1.4c-.1 0-.1.1-.1.2v5.2l-.1.1v10.7c0 .1 0 .1.1.1v5.1l-.1.1v10.7c0 .1 0 .1.1.1v5.1l-.1.1v10.7c0 .1 0 .1.1.1v5.1l-.1.1v10.7c0 .1.1.2.2.2s.2-.1.2-.2v-1.5c.1 0 .2-.1.2-.2v-5.4c0-.1-.1-.2-.2-.2v-2.3l.1-.1v-3.8 1.6c0 .1.1.2.2.2v3.6c0 .1 0 .1.1.2v4.2c0 .1.1.2.2.2v4.2c0 .1.1.2.2.2s.2-.1.2-.2v-1.5c.1 0 .2-.1.2-.2v-5.8c0-.1-.1-.2-.2-.2v-2.3l.1-.1v-3.8 1.6c0 .1.1.2.2.2v3.6c0 .1 0 .1.1.2v4.2c0 .1.1.2.2.2v.4c0 .1.1.2.2.2s.1 0 .1-.1v1.6c0 .1.1.2.2.2s.2-.1.2-.2v-3.8l.1-.1v-10.4c0-.1-.1-.2-.2-.2v-1.5c.1 0 .1-.1.1-.2v-3.8l.1-.1v-10.2c0-.1-.1-.2-.2-.2v-1.5c.1 0 .1-.1.1-.2v-3.8l.1-.1v-10.2c0-.1-.1-.2-.2-.2v-1.5c.1 0 .1-.1.1-.2v-3.8l.1-.1v-10.1zm-.7 36.3v-1.7c0-.1-.1-.2-.2-.2v-4c0-.1-.1-.2-.2-.2h-.1v-5.7c0-.1-.1-.2-.2-.2v-2.3l.1-.1v-3.8 1.6c0 .1.1.2.2.2v3.6c0 .1 0 .1.1.2v4.2c0 .1.1.2.2.2v.4c0 .1.1.2.2.2v8.6-.8c0-.1 0-.1-.1-.2zm-1.2-2.3v-4c0-.1-.1-.2-.2-.2h-.1v-5.7c0-.1-.1-.2-.2-.2v-2.3l.1-.1v-3.8 1.6c0 .1.1.2.2.2v3.6c0 .1 0 .1.1.2v4.2c0 .1.1.2.2.2v4.2c0 .1 0 .1.1.1v4.1-1.7c0-.3-.1-.4-.2-.4zm1.5 6.9v-.4.4zm0-16v-.4.4zm0-16.4v.4-.4zm-.9-2.4l.1-4v1.6c0 .1.1.2.2.2v3.6c0 .1 0 .1.1.2v4.2c0 .1.1.2.2.2v.4c0 .1.1.2.2.2v8.6-.8c0-.1 0-.1-.1-.2v-1.7c0-.1-.1-.2-.2-.2v-4c0-.1-.1-.2-.2-.2h-.1v-5.7c0-.1-.1-.2-.2-.2v-2.2zm-1-.5l.1-.1v-3.8 1.6c0 .1.1.2.2.2v3.6c0 .1 0 .1.1.2v4.2c0 .1.1.2.2.2v4.2c0 .1 0 .1.1.1v4.1-1.7c0-.1-.1-.2-.2-.2v-4c0-.1-.1-.2-.2-.2h-.1v-5.7c0-.1-.1-.2-.2-.2v-2.5zm.6 46.3v-1.7c0-.1-.1-.2-.2-.2v-4c0-.1-.1-.2-.2-.2h-.1v-5.7c0-.1-.1-.2-.2-.2v-2.3l.1-.1v-3.8 1.6c0 .1.1.2.2.2v3.6c0 .1 0 .1.1.2v4.2c0 .1.1.2.2.2v4.2c0 .1 0 .1.1.1v3.9zm1.2-1.8v3.1-.7c0-.1 0-.1-.1-.2v-1.7c0-.1-.1-.2-.2-.2v-4c0-.1-.1-.2-.2-.2h-.1v-5.7c0-.1-.1-.2-.2-.2v-2.3l.1-.1v-3.8 1.6c0 .1.1.2.2.2v3.6c0 .1 0 .1.1.2v4.2c0 .1.1.2.2.2v.4c0 .1.1.2.2.2v5.4zm.1 6.7c0 .1 0 .1 0 0v-.4.4zm4.4-54.8c0-.1-.1-.2-.2-.2v-2.7c0-.1-.1-.2-.2-.2s-.2.1-.2.2v8.1s-.1 0-.1.1v-2.5c0-.1-.1-.2-.2-.2v-4c0-.1-.1-.2-.2-.2h-.1v-.3c0-.1-.1-.2-.2-.2s-.2.1-.2.2v1.4c-.1 0-.1.1-.1.2v5.3-2.8c0-.1-.1-.2-.2-.2v-4c0-.1-.1-.2-.2-.2h-.1v-.1c0-.1-.1-.2-.2-.2s-.2.1-.2.2v1.4c-.1 0-.1.1-.1.2v5.2l-.1.1v3.3l-.1.1v5.5c0 .1.1.2.2.2h.1v1.4c-.1 0-.1.1-.1.2v5.2l-.1.1v3.3l-.1.1v5.5c0 .1.1.2.2.2h.1v1.4c-.1 0-.1.1-.1.2v5.2l-.1.1v3.3l-.1.1v5.5c0 .1.1.2.2.2h.1v1.4c-.1 0-.1.1-.1.2v5.2l-.1.1v4.8c0 .1.1.2.2.2h.1v1.6c0 .1.1.2.2.2s.2-.1.2-.2v-4.2c0 .1.1.1.2.1s.1 0 .2-.1v2.8c0 .1.1.2.2.2h.1v1.6c0 .1.1.2.2.2s.2-.1.2-.2v-4.1c0 .1.1.1.2.1s.2-.1.2-.2v-4.8c0-.1-.1-.2-.2-.2v-4c0-.1-.1-.1-.1-.2v-6.7c0 .1.1.1.2.1 0 0 .1 0 .1-.1v5c0 .1.1.2.2.2v11.8c0 .1.1.2.2.2v1.8c0 .1.1.2.2.2s.2-.1.2-.2v-10.6c0-.1-.1-.2-.2-.2v-1.5c.1 0 .1-.1.1-.2v-3.8l.1-.1v-10.2c0-.1-.1-.2-.2-.2v-1.5c.1 0 .1-.1.1-.2v-3.8l.1-.1v-10.2c0-.1-.1-.2-.2-.2v-1.5c.1 0 .1-.1.1-.2v-3.8l.1-.1v-10.1h-.2zm-.4 24.9v-.4.4zm0 15.6v.4-.4zm0-31.6v-.4.4zm-.5-1.3s.1 0 0 0l.1 4.9c0 .1.1.2.2.2v8.6s-.1 0-.1.1v-2.5c0-.1-.1-.2-.2-.2v-4c0-.1-.1-.1-.1-.2v-5.1l.1-1.8c-.1 0-.1 0 0 0zm-1 26.4v-4c0-.1-.1-.1-.1-.2v-6.7c0 .1.1.1.2.1s.1 0 .2-.1v1.3l-.1.1v5.4c0 .1.1.2.2.2h.1v1.4c-.1 0-.1.1-.1.2v5.3-2.8c-.2-.1-.3-.2-.4-.2zm-.5-22.8v2.3h-.1l.1-2.3zm.3 8.7c0-.1-.1-.1-.2-.1h-.1v-2.1 1.6c0 .1.1.2.2.2l.1.4zm0 16c0-.1-.1-.1-.2-.1h-.1v-2.1 1.6c0 .1.1.2.2.2l.1.4zm-.3-8.7v2.3h-.1l.1-2.3zm1.3-6.9c0-.1-.1-.1-.2-.1h-.1v-2.1 1.6c0 .1.1.2.2.2l.1.4zm-.3-6.3v-2.3 2.3zm0 16v-2.3 2.3zm.3 6.3c0-.1-.1-.1-.2-.1h-.1v-2.1 1.6c0 .1.1.2.2.2l.1.4zm-.2-34.2v1.6c0 .1.1.2.2.2v.5c0-.1-.1-.1-.2-.1h-.1l.1-2.2zm-.6 5.1c.1 0 .1 0 .2-.1v1.3l-.1.1v5.4c0 .1.1.2.2.2h.1v1.4c-.1 0-.1.1-.1.2v5.3-2.8c0-.1-.1-.2-.2-.2v-4c0-.1-.1-.1-.1-.2v-6.7c-.1 0-.1.1 0 .1zm-.4-5.5v1.6c0 .1.1.2.2.2v.5c0-.1-.1-.1-.2-.1h-.1l.1-2.2zm-.1 43.8v-2.3 2.3zm.3 6.4c0-.1-.1-.1-.2-.1h-.1v-2.1 1.6c0 .1.1.2.2.2l.1.4zm.6-5.8v1.4c-.1 0-.1.1-.1.2v5.3-2.8c0-.1-.1-.2-.2-.2v-4c0-.1-.1-.1-.1-.2v-6.7c0 .1.1.1.2.1s.1 0 .2-.1v1.3l-.1.1v5.4c-.2.2-.1.2.1.2-.1 0-.1 0 0 0zm.1-.1v-2.3 2.3zm.3 6.3c0-.1-.1-.1-.2-.1h-.1v-2.1 1.6c0 .1.1.2.2.2l.1.4zm.5-15.2s-.1 0-.1.1v-2.5c0-.1-.1-.2-.2-.2v-4c0-.1-.1-.1-.1-.2v-6.8c0 .1.1.1.2.1 0 0 .1 0 .1-.1v5c0 .1.1.2.2.2v7.8l-.1.6c.1 0 0 0 0 0zm4.6-35.1c0-.1-.1-.2-.2-.2v-2.8c0-.1-.1-.2-.2-.2s-.2.1-.2.2v8.1s-.1 0-.1.1v-2.5c0-.1-.1-.2-.2-.2v-4c0-.1-.1-.2-.2-.2h-.1v-.2c0-.1-.1-.2-.2-.2s-.2.1-.2.2v1.4c-.1 0-.1.1-.1.2v5.3-2.8c0-.1-.1-.2-.2-.2v-4c0-.1-.1-.2-.2-.2h-.1v-.1c0-.1-.1-.2-.2-.2s-.2.1-.2.2v1.4c-.1 0-.1.1-.1.2v5.2l-.1.1v3.3l-.1.1v5.5c0 .1.1.2.2.2h.1v1.4c-.1 0-.1.1-.1.2v5.2l-.1.1v3.3l-.1.1v5.5c0 .1.1.2.2.2h.1v1.4c-.1 0-.1.1-.1.2v5.2l-.1.1v3.3l-.1.1v5.5c0 .1.1.2.2.2h.1v1.4c-.1 0-.1.1-.1.2v6.2c0 .1.1.2.2.2s.2-.1.2-.2v-3.8 1.6c0 .1.1.2.2.2v3.6c0 .1.1.2.2.2s.2-.1.2-.2v-4.8c0-.1-.1-.2-.2-.2v-8.8c0-.1-.1-.1-.1-.2v-2c0 .1.1.1.2.1s.1 0 .2-.1v1.3l-.1.1v5.4c0 .1.1.2.2.2h.1v1.4c-.1 0-.1.1-.1.2v6.3c0 .1.1.2.2.2s.2-.1.2-.2v-3.8 1.6c0 .1.1.2.2.2v3.6c0 .1.1.2.2.2s.2-.1.2-.2v-4.8c0-.1-.1-.2-.2-.2v-8.8c0-.1-.1-.1-.1-.2v-2c0 .1.1.1.2.1 0 0 .1 0 .1-.1v4.9c0 .1.1.2.2.2v7.7c0 .1.1.2.2.2v1.8c0 .1.1.2.2.2s.2-.1.2-.2v-6.3c0-.1-.1-.2-.2-.2v-1.5c.1 0 .1-.1.1-.2v-3.8l.1-.1v-10.4c0-.1-.1-.2-.2-.2v-1.5c.1 0 .1-.1.1-.2v-3.8l.1-.1v-10.2c0-.1-.1-.2-.2-.2v-1.5c.1 0 .1-.1.1-.2v-3.8l.1-.1v-10.1h-.3zm-.4 40.5v.3-.3zm0-16v.3-.3zm0-15.6v-.4.4zm-.5-1.3s.1 0 0 0l.1 4.9c0 .1.1.2.2.2v8.6s-.1 0-.1.1v-2.5c0-.1-.1-.2-.2-.2v-8.8c0-.1-.1-.1-.1-.2v-2c0-.1 0-.1.1-.1zm-.2 28.7c0-.1-.1-.1-.2-.1h-.1v-2.1 1.6c0 .1.1.2.2.2l.1.4zm-.3-22.3l-.1-2.3c0 .1.1.1.1.2v2.1c.1 0 .1 0 0 0zm0 16l-.1-2.3c0 .1.1.1.1.2v2.1c.1 0 .1 0 0 0zm.2-9.8c-.1 0-.1 0 0 0l-.1-2.1v1.6c0 .1.1.2.2.2v.5c0-.1 0-.2-.1-.2zm-.1-18.1v1.6c0 .1.1.2.2.2v.5c0-.1-.1-.1-.2-.1h-.1l.1-2.2zm-.6 5.1c.1 0 .1 0 .2-.1v1.3l-.1.1v5.4c0 .1.1.2.2.2h.1v1.4c-.1 0-.1.1-.1.2v5.3-2.8c0-.1-.1-.2-.2-.2v-8.8c0-.1-.1-.1-.1-.2v-2c-.1.1-.1.2 0 .2zm-.2 28.7c0-.1-.1-.1-.2-.1h-.1v-2.1 1.6c0 .1.1.2.2.2l.1.4zm-.3-22.4v-2.3c0 .1.1.1.1.2l-.1 2.1c.1 0 .1 0 0 0zm0 16v-2.3c0 .1.1.1.1.2l-.1 2.1c.1 0 .1 0 0 0zm.2-9.7c-.1 0-.1 0 0 0l-.1-2.1v1.6c0 .1.1.2.2.2v.5c0-.2 0-.2-.1-.2zm-.1-18.2v1.6c0 .1.1.2.2.2v.5c0-.1-.1-.1-.2-.1h-.1l.1-2.2c0 .1 0 .1 0 0zm-.1 43.9l-.1-2.3c0 .1.1.1.1.2v2.1c.1 0 .1 0 0 0zm.5-11.5v-8.8c0-.1-.1-.1-.1-.2v-2c0 .1.1.1.2.1s.1 0 .2-.1v1.3l-.1.1v5.4c0 .1.1.2.2.2h.1v1.5c-.1 0-.1.1-.1.2v5.3-2.8c-.2-.1-.3-.2-.4-.2zm.5 12l-.1-2.3c0 .1.1.1.1.2v2.1c.1 0 .1 0 0 0zm.8-8.9s-.1 0-.1.1v-2.5c0-.1-.1-.2-.2-.2v-8.8c0-.1-.1-.1-.1-.2v-2c0 .1.1.1.2.1 0 0 .1 0 .1-.1v5c0 .1.1.2.2.2v7.8l-.1.6c.1 0 0 0 0 0z" transform="translate(128 640)"/><path class="st1" d="M-69.2-630.7v-3.3c0-.1-.1-.2-.2-.2s-.2.1-.2.2v3c-.1 0-.2.1-.2.2v7.3c0 .1.1.2.2.2v8.3c-.1 0-.2.1-.2.2v7.3c0 .1.1.2.2.2v8.3c-.1 0-.2.1-.2.2v7.3c0 .1.1.2.2.2v8.3c-.1 0-.2.1-.2.2v7.3c0 .1.1.2.2.2v3.6c0 .1.1.2.2.2s.2-.1.2-.2v-1.9c.1 0 .1-.1.1-.2v-3.8l.1-.1V-588c0-.1-.1-.2-.2-.2v-1.5c.1 0 .1-.1.1-.2v-3.8l.1-.1V-604c0-.1-.1-.2-.2-.2v-1.5c.1 0 .1-.1.1-.2v-3.8l.1-.1V-620c0-.1-.1-.2-.2-.2v-1.5c.1 0 .1-.1.1-.2v-3.8l.1-.1v-4.7c0-.1-.1-.2-.2-.2zm-.2 19.2v.3-.3zm0 16v.3-.3zm0-32.1c0 .1 0 .1 0 0v.4-.4zm0 48.4v-.4.4zM-65-634c0-.1-.1-.2-.2-.2v-.8c0-.1-.1-.2-.2-.2s-.2.1-.2.2v6c-.1 0-.2.1-.2.2v7.3c0 .1.1.2.2.2v8.3c-.1 0-.2.1-.2.2v7.3c0 .1.1.2.2.2v8.3c-.1 0-.2.1-.2.2v7.3c0 .1.1.2.2.2v8.3c-.1 0-.2.1-.2.2v7.3c0 .1.1.2.2.2v3.6c0 .1.1.2.2.2s.2-.1.2-.2v-1.9c.1 0 .1-.1.1-.2v-3.8l.1-.1V-586c0-.1-.1-.2-.2-.2v-1.5c.1 0 .1-.1.1-.2v-3.8l.1-.1V-602c0-.1-.1-.2-.2-.2v-1.5c.1 0 .1-.1.1-.2v-3.8l.1-.1V-618c0-.1-.1-.2-.2-.2v-1.5c.1 0 .1-.1.1-.2v-3.8l.1-.1V-634zm-.4 40.4c0 .1 0 .1 0 0v.4-.4zm0-16c0 .1 0 .1 0 0v.4-.4zm0-16c0 .1 0 .1 0 0v.4-.4zm0 48.4v-.4.4zM-61-632c0-.1-.1-.2-.2-.2v-2.8c0-.1-.1-.2-.2-.2s-.2.1-.2.2v8c-.1 0-.2.1-.2.2v7.3c0 .1.1.2.2.2v8.3c-.1 0-.2.1-.2.2v7.3c0 .1.1.2.2.2v8.3c-.1 0-.2.1-.2.2v7.3c0 .1.1.2.2.2v8.3c-.1 0-.2.1-.2.2v7.3c0 .1.1.2.2.2s.1 0 .1-.1v1.6c0 .1.1.2.2.2s.2-.1.2-.2v-3.8l.1-.1V-584c0-.1-.1-.2-.2-.2v-1.5c.1 0 .1-.1.1-.2v-3.8l.1-.1V-600c0-.1-.1-.2-.2-.2v-1.5c.1 0 .1-.1.1-.2v-3.8l.1-.1V-616c0-.1-.1-.2-.2-.2v-1.5c.1 0 .1-.1.1-.2v-3.8l.1-.1V-632zm-.4 40.4c0 .1 0 .1 0 0v.4-.4zm0-16c0 .1 0 .1 0 0v.4-.4zm0-16c0 .1 0 .1 0 0v.4-.4zm0 48.4v-.4.4zM-57-630c0-.1-.1-.2-.2-.2v-2.8c0-.1-.1-.2-.2-.2s-.2.1-.2.2v8c-.1 0-.2.1-.2.2v7.3c0 .1.1.2.2.2v8.3c-.1 0-.2.1-.2.2v7.3c0 .1.1.2.2.2v8.3c-.1 0-.2.1-.2.2v7.3c0 .1.1.2.2.2v11.6c0 .1.1.2.2.2v1.8c0 .1.1.2.2.2s.2-.1.2-.2V-582c0-.1-.1-.2-.2-.2v-1.5c.1 0 .1-.1.1-.2v-3.8l.1-.1V-598c0-.1-.1-.2-.2-.2v-1.5c.1 0 .1-.1.1-.2v-3.8l.1-.1V-614c0-.1-.1-.2-.2-.2v-1.5c.1 0 .1-.1.1-.2v-3.8l.1-.1V-630zm-.4 40.4s0 .1 0 0v.4-.4zm0-16s0 .1 0 0v.4-.4zm0-15.6v-.4.4zm4.4-6.8c0-.1-.1-.2-.2-.2v-2.8c0-.1-.1-.2-.2-.2s-.2.1-.2.2v8c-.1 0-.2.1-.2.2v7.3c0 .1.1.2.2.2v8.3c-.1 0-.2.1-.2.2v7.3c0 .1.1.2.2.2v8.3c-.1 0-.2.1-.2.2v7.3c0 .1.1.2.2.2v7.6c0 .1.1.2.2.2v1.8c0 .1.1.2.2.2s.2-.1.2-.2v-6.3c0-.1-.1-.2-.2-.2v-1.5c.1 0 .1-.1.1-.2v-3.8l.1-.1V-596c0-.1-.1-.2-.2-.2v-1.5c.1 0 .1-.1.1-.2v-3.8l.1-.1V-612c0-.1-.1-.2-.2-.2v-1.5c.1 0 .1-.1.1-.2v-3.8l.1-.1V-628zm-.4 8.5v.3-.3zm0 16v.3-.3zm0 16v.3-.3zm3.4-39c0-.1-.1-.2-.2-.2v-2.8c0-.1-.1-.2-.2-.2s-.2.1-.2.2v8.1s-.1 0-.1.1v-2.5c0-.1-.1-.2-.2-.2v-4c0-.1-.1-.2-.2-.2h-.1v-.1c0-.1-.1-.2-.2-.2s-.2.1-.2.2v1.3c-.1 0-.1.1-.1.2v5.3-2.8c0-.1-.1-.2-.2-.2v-4c0-.1-.1-.2-.2-.2h-.1v-.1c0-.1-.1-.2-.2-.2s-.2.1-.2.2v1.4c-.1 0-.1.1-.1.2v5.2l-.1.1v4.8c0 .1.1.2.2.2v5.5c-.1 0-.1.1-.1.2v5.2l-.1.1v4.8c0 .1.1.2.2.2v5.5c-.1 0-.1.1-.1.2v5.2l-.1.1v4.8c0 .1.1.2.2.2v7.9c0 .1.1.2.2.2h.1v1.6c0 .1.1.2.2.2s.2-.1.2-.2v-5.3c0-.1-.1-.2-.2-.2h-.1v-2.5c.1 0 .1-.1.1-.2v-4.2c0 .1.1.1.2.1s.1 0 .2-.1v2.8c0 .1.1.2.2.2v7.9c0 .1.1.2.2.2h.1v1.6c0 .1.1.2.2.2s.2-.1.2-.2v-5.3c0-.1-.1-.2-.2-.2h-.1v-2.5c.1 0 .1-.1.1-.2v-3.9c0 .1.1.1.2.1 0 0 .1 0 .1-.1v5c0 .1.1.2.2.2v5.7c0 .1.1.2.2.2s.2-.1.2-.2v-3.9c.1 0 .1-.1.1-.2v-3.8l.1-.1v-10.5c0-.1-.1-.2-.2-.2v-1.5c.1 0 .1-.1.1-.2v-3.8l.1-.1v-10.2c0-.1-.1-.2-.2-.2v-1.5c.1 0 .1-.1.1-.2v-3.8l.1-.1v-4.7l-.1-5.4zm-.4 8.5v.4-.4zm0 16.3c0 .1 0 .1 0 0v-.4.4zm0 15.7v.3-.3zm-.3-32.9v4.9c0 .1.1.2.2.2v8.6s-.1 0-.1.1v-2.5c0-.1-.1-.2-.2-.2v-4c0-.1-.1-.2-.2-.2h-.1v-2.5c.1 0 .1-.1.1-.2v-4.3c0 .1.1.1.3.1-.1 0-.1 0 0 0zm-.5 12.6c-.1 0-.1 0 0 0l-.1-2.1v1.6c0 .1.1.2.2.2v.5c0-.1 0-.2-.1-.2zm.1-16.3v.5c0-.1-.1-.1-.2-.1h-.1v-2.1 1.6c.1 0 .2.1.3.1zm-.6 3.1v2.8c0 .1.1.2.2.2v5.5c-.1 0-.1.1-.1.2v5.3-2.8c0-.1-.1-.2-.2-.2v-4c0-.1-.1-.2-.2-.2h-.1v-2.5c.1 0 .1-.1.1-.2v-4.2c0 .1.1.1.3.1-.1.2 0 .1 0 0zm-.5 12.8c-.1 0-.1 0 0 0l-.1-2.1v1.6c0 .1.1.2.2.2v.5c0-.2 0-.2-.1-.2zm.1-16.4v.5c0-.1-.1-.1-.2-.1h-.1v-2.1 1.6c.1 0 .2.1.3.1zm-.1 32.4c-.1 0-.1 0 0 0l-.1-2.1v1.6c0 .1.1.2.2.2v.5c0-.2 0-.2-.1-.2zm.5-4.1v5.3-2.8c0-.1-.1-.2-.2-.2v-4c0-.1-.1-.2-.2-.2h-.1v-2.5c.1 0 .1-.1.1-.2v-4.2c0 .1.1.1.2.1s.1 0 .2-.1v2.8c0 .1.1.2.2.2v5.6c-.1 0-.2.1-.2.2zm.5 4.5c-.1 0-.1 0 0 0l-.1-2.1v1.6c0 .1.1.2.2.2v.5c0-.1 0-.2-.1-.2zm.6.9s-.1 0-.1.1v-2.5c0-.1-.1-.2-.2-.2v-4c0-.1-.1-.2-.2-.2h-.1v-2.5c.1 0 .1-.1.1-.2v-4.1c0 .1.1.1.2.1 0 0 .1 0 .1-.1v5c0 .1.1.2.2.2v8.4c.1 0 0 0 0 0zm4.6-35.1c0-.1-.1-.2-.2-.2v-2.8c0-.1-.1-.2-.2-.2s-.2.1-.2.2v8.1-.6c0-.1 0-.1-.1-.2v-1.7c0-.1-.1-.2-.2-.2v-4c0-.1-.1-.2-.2-.2h-.1v-.1c0-.1-.1-.2-.2-.2s-.2.1-.2.2v1.4c-.1 0-.1.1-.1.2v4.2-1.7c0-.1-.1-.2-.2-.2v-4c0-.1-.1-.2-.2-.2h-.1v-.1c0-.1-.1-.2-.2-.2s-.2.1-.2.2v1.4c-.1 0-.1.1-.1.2v5.2l-.1.1v10.7c0 .1 0 .1.1.1v5.1l-.1.1v10.7c0 .1 0 .1.1.1v5.1l-.1.1v10.7c0 .1.1.2.2.2s.2-.1.2-.2v-1.5c.1 0 .2-.1.2-.2v-5.4c0-.1-.1-.2-.2-.2v-2.3l.1-.1v-3.8 1.6c0 .1.1.2.2.2v3.6c0 .1 0 .1.1.2v4.2c0 .1.1.2.2.2v4.2c0 .1.1.2.2.2s.2-.1.2-.2v-1.5c.1 0 .2-.1.2-.2v-5.8c0-.1-.1-.2-.2-.2v-2.3l.1-.1v-3.8 1.6c0 .1.1.2.2.2v3.6c0 .1 0 .1.1.2v4.2c0 .1.1.2.2.2v.4c0 .1.1.2.2.2s.1 0 .1-.1v1.6c0 .1.1.2.2.2s.2-.1.2-.2v-3.8l.1-.1v-10.4c0-.1-.1-.2-.2-.2v-1.5c.1 0 .1-.1.1-.2v-3.8l.1-.1v-10.2c0-.1-.1-.2-.2-.2v-1.5c.1 0 .1-.1.1-.2v-3.8l.1-.1v-10.1zm-.4 24.9v-.4.4zm0-16.4v.4-.4zm-.9-2.4l.1-3.9v1.6c0 .1.1.2.2.2v3.6c0 .1 0 .1.1.2v4.2c0 .1.1.2.2.2v.3c0 .1.1.2.2.2v8.6-.8c0-.1 0-.1-.1-.2v-1.7c0-.1-.1-.2-.2-.2v-4c0-.1-.1-.2-.2-.2h-.1v-5.7c0-.1-.1-.2-.2-.2v-2.2zm-1-.5l.1-3.9v1.6c0 .1.1.2.2.2v3.6c0 .1 0 .1.1.2v4.2c0 .1.1.2.2.2v4.2c0 .1 0 .1.1.1v4.1-1.7c0-.1-.1-.2-.2-.2v-4c0-.1-.1-.2-.2-.2h-.1v-5.7c0-.1-.1-.2-.2-.2v-2.5zm.6 30.3v-1.7c0-.1-.1-.2-.2-.2v-4c0-.1-.1-.2-.2-.2h-.1v-5.7c0-.1-.1-.2-.2-.2v-2.3l.1-.1v-3.8 1.6c0 .1.1.2.2.2v3.6c0 .1 0 .1.1.2v4.2c0 .1.1.2.2.2v4.2c0 .1 0 .1.1.1v3.9zm1.2-1.8v3.1-.7c0-.1 0-.1-.1-.2v-1.7c0-.1-.1-.2-.2-.2v-4c0-.1-.1-.2-.2-.2h-.1v-5.7c0-.1-.1-.2-.2-.2v-2.3l.1-.1v-3.8 1.6c0 .1.1.2.2.2v3.6c0 .1 0 .1.1.2v4.2c0 .1.1.2.2.2v.4c0 .1.1.2.2.2v5.4zm.1 6.7c0 .1 0 .1 0 0v-.4.4zm4.4-38.8c0-.1-.1-.2-.2-.2v-2.8c0-.1-.1-.2-.2-.2s-.2.1-.2.2v8.1s-.1 0-.1.1v-2.5c0-.1-.1-.2-.2-.2v-4c0-.1-.1-.2-.2-.2h-.1v-.1c0-.1-.1-.2-.2-.2s-.2.1-.2.2v1.3c-.1 0-.1.1-.1.2v5.3-2.8c0-.1-.1-.2-.2-.2v-4c0-.1-.1-.2-.2-.2h-.1v-.1c0-.1-.1-.2-.2-.2s-.2.1-.2.2v1.4c-.1 0-.1.1-.1.2v5.2l-.1.1v3.3l-.1.1v5.5c0 .1.1.2.2.2h.1v1.4c-.1 0-.1.1-.1.2v5.2l-.1.1v3.3l-.1.1v5.5c0 .1.1.2.2.2h.1v1.4c-.1 0-.1.1-.1.2v5.2l-.1.1v4.8c0 .1.1.2.2.2h.1v1.6c0 .1.1.2.2.2s.2-.1.2-.2v-4.2c0 .1.1.1.2.1s.1 0 .2-.1v2.8c0 .1.1.2.2.2h.1v1.6c0 .1.1.2.2.2s.2-.1.2-.2v-4.1c0 .1.1.1.2.1s.2-.1.2-.2v-4.8c0-.1-.1-.2-.2-.2v-4c0-.1-.1-.1-.1-.2v-6.7c0 .1.1.1.2.1 0 0 .1 0 .1-.1v5c0 .1.1.2.2.2v11.8c0 .1.1.2.2.2v1.8c0 .1.1.2.2.2s.2-.1.2-.2v-10.6c0-.1-.1-.2-.2-.2v-1.5c.1 0 .1-.1.1-.2v-3.8l.1-.1v-10.2c0-.1-.1-.2-.2-.2v-1.5c.1 0 .1-.1.1-.2v-3.8l.1-.1v-10.1h-.2zm-.4 24.5v.4-.4zm0-15.6v-.4.4zm-1 5.1v-2.3 2.3zm.3 6.3c0-.1-.1-.1-.2-.1h-.1v-2.1 1.6c0 .1.1.2.2.2l.1.4zm-.2-18.2v1.6c0 .1.1.2.2.2v.5c0-.1-.1-.1-.2-.1h-.1l.1-2.2zm-.6 5.1c.1 0 .1 0 .2-.1v1.3l-.1.1v5.4c0 .1.1.2.2.2h.1v1.4c-.1 0-.1.1-.1.2v5.3-2.8c0-.1-.1-.2-.2-.2v-4c0-.1-.1-.1-.1-.2v-6.7c-.1 0-.1.1 0 .1zm-.5 4v2.3h-.1l.1-2.3zm.3 8.7c0-.1-.1-.1-.2-.1h-.1v-2.1 1.6c0 .1.1.2.2.2l.1.4zm-.2-18.2v1.6c0 .1.1.2.2.2v.5c0-.1-.1-.1-.2-.1h-.1l.1-2.2zm-.1 27.8v-2.3 2.3zm.3 6.4c0-.1-.1-.1-.2-.1h-.1v-2.1 1.6c0 .1.1.2.2.2l.1.4zm.6-5.8v1.4c-.1 0-.1.1-.1.2v5.3-2.8c0-.1-.1-.2-.2-.2v-4c0-.1-.1-.1-.1-.2v-6.7c0 .1.1.1.2.1s.1 0 .2-.1v1.3l-.1.1v5.4c-.2.2-.1.2.1.2-.1 0-.1 0 0 0zm.1-.1v-2.3 2.3zm.3 6.3c0-.1-.1-.1-.2-.1h-.1v-2.1 1.6c0 .1.1.2.2.2l.1.4zm.5-15.2s-.1 0-.1.1v-2.5c0-.1-.1-.2-.2-.2v-4c0-.1-.1-.1-.1-.2v-6.8c0 .1.1.1.2.1 0 0 .1 0 .1-.1v5c0 .1.1.2.2.2v7.8l-.1.6c.1 0 0 0 0 0zm4.6-19.1c0-.1-.1-.2-.2-.2v-2.8c0-.1-.1-.2-.2-.2s-.2.1-.2.2v8.1s-.1 0-.1.1v-2.5c0-.1-.1-.2-.2-.2v-4c0-.1-.1-.2-.2-.2h-.1v-.1c0-.1-.1-.2-.2-.2s-.2.1-.2.2v1.3c-.1 0-.1.1-.1.2v5.3-2.8c0-.1-.1-.2-.2-.2v-4c0-.1-.1-.2-.2-.2h-.1v-.1c0-.1-.1-.2-.2-.2s-.2.1-.2.2v1.4c-.1 0-.1.1-.1.2v5.2l-.1.1v3.3l-.1.1v5.5c0 .1.1.2.2.2h.1v1.4c-.1 0-.1.1-.1.2v5.2l-.1.1v3.3l-.1.1v5.5c0 .1.1.2.2.2h.1v1.4c-.1 0-.1.1-.1.2v6.2c0 .1.1.2.2.2s.2-.1.2-.2v-3.8 1.6c0 .1.1.2.2.2v3.6c0 .1.1.2.2.2s.2-.1.2-.2v-4.8c0-.1-.1-.2-.2-.2v-8.8c0-.1-.1-.1-.1-.2v-2c0 .1.1.1.2.1s.1 0 .2-.1v1.3l-.1.1v5.4c0 .1.1.2.2.2h.1v1.4c-.1 0-.1.1-.1.2v6.3c0 .1.1.2.2.2s.2-.1.2-.2v-3.8 1.6c0 .1.1.2.2.2v3.6c0 .1.1.2.2.2s.2-.1.2-.2v-4.8c0-.1-.1-.2-.2-.2v-8.8c0-.1-.1-.1-.1-.2v-2c0 .1.1.1.2.1 0 0 .1 0 .1-.1v4.9c0 .1.1.2.2.2v7.7c0 .1.1.2.2.2v1.8c0 .1.1.2.2.2s.2-.1.2-.2v-6.3c0-.1-.1-.2-.2-.2v-1.5c.1 0 .1-.1.1-.2v-3.8l.1-.1v-10.4c0-.1-.1-.2-.2-.2v-1.5c.1 0 .1-.1.1-.2v-3.8l.1-.1v-10.1h-.3zm-.4 24.5v.3-.3zm0-15.6v-.4.4zm-.9-6.8v1.6c0 .1.1.2.2.2v.5c0-.1-.1-.1-.2-.1h-.1l.1-2.2zm.2 18.2c0-.1-.1-.1-.2-.1h-.1v-2.1 1.6c0 .1.1.2.2.2l.1.4zm-.3-6.3l-.1-2.3c0 .1.1.1.1.2v2.1c.1 0 .1 0 0 0zm-.9-12.4v1.6c0 .1.1.2.2.2v.5c0-.1-.1-.1-.2-.1h-.1l.1-2.2c0 .1 0 .1 0 0zm.2 18.3c0-.1-.1-.1-.2-.1h-.1v-2.1 1.6c0 .1.1.2.2.2l.1.4zm-.3-6.4v-2.3c0 .1.1.1.1.2l-.1 2.1c.1 0 .1 0 0 0zm0 16l-.1-2.3c0 .1.1.1.1.2v2.1c.1 0 .1 0 0 0zm.5-11.5v-8.8c0-.1-.1-.1-.1-.2v-2c0 .1.1.1.2.1s.1 0 .2-.1v1.3l-.1.1v5.4c0 .1.1.2.2.2h.1v1.5c-.1 0-.1.1-.1.2v5.3-2.8c-.2-.1-.3-.2-.4-.2zm.5 12l-.1-2.3c0 .1.1.1.1.2v2.1c.1 0 .1 0 0 0zm.8-8.9s-.1 0-.1.1v-2.5c0-.1-.1-.2-.2-.2v-8.8c0-.1-.1-.1-.1-.2v-2c0 .1.1.1.2.1 0 0 .1 0 .1-.1v5c0 .1.1.2.2.2v7.8l-.1.6c.1 0 0 0 0 0zM-49-626c0-.1-.1-.2-.2-.2v-2.8c0-.1-.1-.2-.2-.2s-.2.1-.2.2v8c-.1 0-.2.1-.2.2v7.3c0 .1.1.2.2.2v8.3c-.1 0-.2.1-.2.2v7.3c0 .1.1.2.2.2v8.3c-.1 0-.2.1-.2.2v7.3c0 .1.1.2.2.2v5.6c0 .1.1.2.2.2s.2-.1.2-.2v-3.9c.1 0 .1-.1.1-.2v-3.8l.1-.1V-594c0-.1-.1-.2-.2-.2v-1.5c.1 0 .1-.1.1-.2v-3.8l.1-.1V-610c0-.1-.1-.2-.2-.2v-1.5c.1 0 .1-.1.1-.2v-3.8l.1-.1V-626zm-.4 40.4c0 .1 0 .1 0 0v.4-.4zm0-16c0 .1 0 .1 0 0v.4-.4zm0-16c0 .1 0 .1 0 0v.4-.4zm4.4-6.4c0-.1-.1-.2-.2-.2v-2.8c0-.1-.1-.2-.2-.2s-.2.1-.2.2v8c-.1 0-.2.1-.2.2v7.3c0 .1.1.2.2.2v8.3c-.1 0-.2.1-.2.2v7.3c0 .1.1.2.2.2v8.3c-.1 0-.2.1-.2.2v7.3c0 .1.1.2.2.2s.1 0 .1-.1v1.6c0 .1.1.2.2.2s.2-.1.2-.2v-3.8l.1-.1V-592c0-.1-.1-.2-.2-.2v-1.5c.1 0 .1-.1.1-.2v-3.8l.1-.1V-608c0-.1-.1-.2-.2-.2v-1.5c.1 0 .1-.1.1-.2v-3.8l.1-.1V-624zm-.4 24.4c0 .1 0 .1 0 0v.4-.4zm0-16c0 .1 0 .1 0 0v.4-.4zm0 32.4v-.4.4z" transform="translate(128 640)"/><path class="st1" d="M-41-622c0-.1-.1-.2-.2-.2v-2.8c0-.1-.1-.2-.2-.2s-.2.1-.2.2v8c-.1 0-.2.1-.2.2v7.3c0 .1.1.2.2.2v8.3c-.1 0-.2.1-.2.2v7.3c0 .1.1.2.2.2v11.6c0 .1.1.2.2.2v1.8c0 .1.1.2.2.2s.2-.1.2-.2V-590c0-.1-.1-.2-.2-.2v-1.5c.1 0 .1-.1.1-.2v-3.8l.1-.1V-606c0-.1-.1-.2-.2-.2v-1.5c.1 0 .1-.1.1-.2v-3.8l.1-.1V-622zm-.4 24.4s0 .1 0 0v.4-.4zm0-15.6v-.4.4zm4.4-6.8c0-.1-.1-.2-.2-.2v-2.8c0-.1-.1-.2-.2-.2s-.2.1-.2.2v8c-.1 0-.2.1-.2.2v7.3c0 .1.1.2.2.2v8.3c-.1 0-.2.1-.2.2v7.3c0 .1.1.2.2.2v7.6c0 .1.1.2.2.2v1.8c0 .1.1.2.2.2s.2-.1.2-.2v-6.3c0-.1-.1-.2-.2-.2v-1.5c.1 0 .1-.1.1-.2v-3.8l.1-.1V-604c0-.1-.1-.2-.2-.2v-1.5c.1 0 .1-.1.1-.2v-3.8l.1-.1V-620zm-.4 8.5v.3-.3zm0 16v.3-.3zm3.4-23c0-.1-.1-.2-.2-.2v-2.8c0-.1-.1-.2-.2-.2s-.2.1-.2.2v8.1s-.1 0-.1.1v-2.5c0-.1-.1-.2-.2-.2v-4c0-.1-.1-.2-.2-.2h-.1v-.1c0-.1-.1-.2-.2-.2s-.2.1-.2.2v1.3c-.1 0-.1.1-.1.2v5.3-2.8c0-.1-.1-.2-.2-.2v-4c0-.1-.1-.2-.2-.2h-.1v-.1c0-.1-.1-.2-.2-.2s-.2.1-.2.2v1.4c-.1 0-.1.1-.1.2v5.2l-.1.1v4.8c0 .1.1.2.2.2v5.5c-.1 0-.1.1-.1.2v5.2l-.1.1v4.8c0 .1.1.2.2.2v7.9c0 .1.1.2.2.2h.1v1.6c0 .1.1.2.2.2s.2-.1.2-.2v-5.3c0-.1-.1-.2-.2-.2h-.1v-2.5c.1 0 .1-.1.1-.2v-4.2c0 .1.1.1.2.1s.1 0 .2-.1v2.8c0 .1.1.2.2.2v7.9c0 .1.1.2.2.2h.1v1.6c0 .1.1.2.2.2s.2-.1.2-.2v-5.3c0-.1-.1-.2-.2-.2h-.1v-2.5c.1 0 .1-.1.1-.2v-3.9c0 .1.1.1.2.1 0 0 .1 0 .1-.1v5c0 .1.1.2.2.2v5.7c0 .1.1.2.2.2s.2-.1.2-.2v-3.9c.1 0 .1-.1.1-.2v-3.8l.1-.1v-10.5c0-.1-.1-.2-.2-.2v-1.5c.1 0 .1-.1.1-.2v-3.8l.1-.1v-4.7l-.1-5.4zm-.4 8.5v.4-.4zm0 16v.3-.3zm-.7-20.6v.5c0-.1-.1-.1-.2-.1h-.1v-2.1 1.6c.1 0 .2.1.3.1zm-1-.5v.5c0-.1-.1-.1-.2-.1h-.1v-2.1 1.6c.1 0 .2.1.3.1zm-.1 16.4c-.1 0-.1 0 0 0l-.1-2.1v1.6c0 .1.1.2.2.2v.5c0-.2 0-.2-.1-.2zm.5-4.1v5.3-2.8c0-.1-.1-.2-.2-.2v-4c0-.1-.1-.2-.2-.2h-.1v-2.5c.1 0 .1-.1.1-.2v-4.2c0 .1.1.1.2.1s.1 0 .2-.1v2.8c0 .1.1.2.2.2v5.6c-.1 0-.2.1-.2.2zm.5 4.5c-.1 0-.1 0 0 0l-.1-2.1v1.6c0 .1.1.2.2.2v.5c0-.1 0-.2-.1-.2zm.6.9s-.1 0-.1.1v-2.5c0-.1-.1-.2-.2-.2v-4c0-.1-.1-.2-.2-.2h-.1v-2.5c.1 0 .1-.1.1-.2v-4.1c0 .1.1.1.2.1 0 0 .1 0 .1-.1v5c0 .1.1.2.2.2v8.4c.1 0 0 0 0 0zm4.6-19.1c0-.1-.1-.2-.2-.2v-2.8c0-.1-.1-.2-.2-.2s-.2.1-.2.2v8.1-.6c0-.1 0-.1-.1-.2v-1.7c0-.1-.1-.2-.2-.2v-4c0-.1-.1-.2-.2-.2h-.1v-.1c0-.1-.1-.2-.2-.2s-.2.1-.2.2v1.4c-.1 0-.1.1-.1.2v4.2-1.7c0-.1-.1-.2-.2-.2v-4c0-.1-.1-.2-.2-.2h-.1v-.1c0-.1-.1-.2-.2-.2s-.2.1-.2.2v1.4c-.1 0-.1.1-.1.2v5.2l-.1.1v10.7c0 .1 0 .1.1.1v5.1l-.1.1v10.7c0 .1.1.2.2.2s.2-.1.2-.2v-1.5c.1 0 .2-.1.2-.2v-5.4c0-.1-.1-.2-.2-.2v-2.3l.1-.1v-3.8 1.6c0 .1.1.2.2.2v3.6c0 .1 0 .1.1.2v4.2c0 .1.1.2.2.2v4.2c0 .1.1.2.2.2s.2-.1.2-.2v-1.5c.1 0 .2-.1.2-.2v-5.8c0-.1-.1-.2-.2-.2v-2.3l.1-.1v-3.8 1.6c0 .1.1.2.2.2v3.6c0 .1 0 .1.1.2v4.2c0 .1.1.2.2.2v.4c0 .1.1.2.2.2s.1 0 .1-.1v1.6c0 .1.1.2.2.2s.2-.1.2-.2v-3.8l.1-.1v-10.4c0-.1-.1-.2-.2-.2v-1.5c.1 0 .1-.1.1-.2v-3.8l.1-.1v-10.1zm-.4 8.5v.4-.4zm-1.3 11.4v-1.7c0-.1-.1-.2-.2-.2v-4c0-.1-.1-.2-.2-.2h-.1v-5.7c0-.1-.1-.2-.2-.2v-2.3l.1-.1v-3.8 1.6c0 .1.1.2.2.2v3.6c0 .1 0 .1.1.2v4.2c0 .1.1.2.2.2v4.2c0 .1 0 .1.1.1v3.9zm1.2-1.8v3.1-.7c0-.1 0-.1-.1-.2v-1.7c0-.1-.1-.2-.2-.2v-4c0-.1-.1-.2-.2-.2h-.1v-5.7c0-.1-.1-.2-.2-.2v-2.3l.1-.1v-3.8 1.6c0 .1.1.2.2.2v3.6c0 .1 0 .1.1.2v4.2c0 .1.1.2.2.2v.4c0 .1.1.2.2.2v5.4zm.1 6.7c0 .1 0 .1 0 0v-.4.4zm4.4-22.8c0-.1-.1-.2-.2-.2v-2.8c0-.1-.1-.2-.2-.2s-.2.1-.2.2v8.1s-.1 0-.1.1v-2.5c0-.1-.1-.2-.2-.2v-4c0-.1-.1-.2-.2-.2h-.1v-.1c0-.1-.1-.2-.2-.2s-.2.1-.2.2v1.3c-.1 0-.1.1-.1.2v5.3-2.8c0-.1-.1-.2-.2-.2v-4c0-.1-.1-.2-.2-.2h-.1v-.1c0-.1-.1-.2-.2-.2s-.2.1-.2.2v1.4c-.1 0-.1.1-.1.2v5.2l-.1.1v3.3l-.1.1v5.5c0 .1.1.2.2.2h.1v1.4c-.1 0-.1.1-.1.2v5.2l-.1.1v4.8c0 .1.1.2.2.2h.1v1.6c0 .1.1.2.2.2s.2-.1.2-.2v-4.2c0 .1.1.1.2.1s.1 0 .2-.1v2.8c0 .1.1.2.2.2h.1v1.6c0 .1.1.2.2.2s.2-.1.2-.2v-4.1c0 .1.1.1.2.1s.2-.1.2-.2v-4.8c0-.1-.1-.2-.2-.2v-4c0-.1-.1-.1-.1-.2v-6.7c0 .1.1.1.2.1 0 0 .1 0 .1-.1v5c0 .1.1.2.2.2v11.8c0 .1.1.2.2.2v1.8c0 .1.1.2.2.2s.2-.1.2-.2v-10.6c0-.1-.1-.2-.2-.2v-1.5c.1 0 .1-.1.1-.2v-3.8l.1-.1v-10.1h-.2zm-1.3 2.1v1.6c0 .1.1.2.2.2v.5c0-.1-.1-.1-.2-.1h-.1l.1-2.2zm-1-.4v1.6c0 .1.1.2.2.2v.5c0-.1-.1-.1-.2-.1h-.1l.1-2.2zm-.1 11.8v-2.3 2.3zm.3 6.4c0-.1-.1-.1-.2-.1h-.1v-2.1 1.6c0 .1.1.2.2.2l.1.4zm.6-5.8v1.4c-.1 0-.1.1-.1.2v5.3-2.8c0-.1-.1-.2-.2-.2v-4c0-.1-.1-.1-.1-.2v-6.7c0 .1.1.1.2.1s.1 0 .2-.1v1.3l-.1.1v5.4c-.2.2-.1.2.1.2-.1 0-.1 0 0 0zm.1-.1v-2.3 2.3zm.3 6.3c0-.1-.1-.1-.2-.1h-.1v-2.1 1.6c0 .1.1.2.2.2l.1.4zm.7-11.4v-.4.4zm4.4-6.9c0-.1-.1-.2-.2-.2v-2.8c0-.1-.1-.2-.2-.2s-.2.1-.2.2v8.1s-.1 0-.1.1v-2.5c0-.1-.1-.2-.2-.2v-4c0-.1-.1-.2-.2-.2h-.1v-.1c0-.1-.1-.2-.2-.2s-.2.1-.2.2v1.3c-.1 0-.1.1-.1.2v5.3-2.8c0-.1-.1-.2-.2-.2v-4c0-.1-.1-.2-.2-.2h-.1v-.1c0-.1-.1-.2-.2-.2s-.2.1-.2.2v1.4c-.1 0-.1.1-.1.2v5.2l-.1.1v3.3l-.1.1v5.5c0 .1.1.2.2.2h.1v1.4c-.1 0-.1.1-.1.2v6.2c0 .1.1.2.2.2s.2-.1.2-.2v-3.8 1.6c0 .1.1.2.2.2v3.6c0 .1.1.2.2.2s.2-.1.2-.2v-4.8c0-.1-.1-.2-.2-.2v-8.8c0-.1-.1-.1-.1-.2v-2c0 .1.1.1.2.1s.1 0 .2-.1v1.3l-.1.1v5.4c0 .1.1.2.2.2h.1v1.4c-.1 0-.1.1-.1.2v6.3c0 .1.1.2.2.2s.2-.1.2-.2v-3.8 1.6c0 .1.1.2.2.2v3.6c0 .1.1.2.2.2s.2-.1.2-.2v-4.8c0-.1-.1-.2-.2-.2v-8.8c0-.1-.1-.1-.1-.2v-2c0 .1.1.1.2.1 0 0 .1 0 .1-.1v4.9c0 .1.1.2.2.2v7.7c0 .1.1.2.2.2v1.8c0 .1.1.2.2.2s.2-.1.2-.2v-6.3c0-.1-.1-.2-.2-.2v-1.5c.1 0 .1-.1.1-.2v-3.8l.1-.1v-10.3h-.3zm-2.3 1.6v1.6c0 .1.1.2.2.2v.5c0-.1-.1-.1-.2-.1h-.1l.1-2.2c0 .1 0 .1 0 0zm-.1 11.9l-.1-2.3c0 .1.1.1.1.2v2.1c.1 0 .1 0 0 0zm1.1-11.4v1.6c0 .1.1.2.2.2v.5c0-.1-.1-.1-.2-.1h-.1l.1-2.2zm-.1 11.9l-.1-2.3c0 .1.1.1.1.2v2.1c.1 0 .1 0 0 0zm1-5.5v.3-.3zM-33-618c0-.1-.1-.2-.2-.2v-2.8c0-.1-.1-.2-.2-.2s-.2.1-.2.2v8c-.1 0-.2.1-.2.2v7.3c0 .1.1.2.2.2v8.3c-.1 0-.2.1-.2.2v7.3c0 .1.1.2.2.2v5.6c0 .1.1.2.2.2s.2-.1.2-.2v-3.9c.1 0 .1-.1.1-.2v-3.8l.1-.1V-602c0-.1-.1-.2-.2-.2v-1.5c.1 0 .1-.1.1-.2v-3.8l.1-.1V-618zm-.4 24.4c0 .1 0 .1 0 0v.4-.4zm0-16c0 .1 0 .1 0 0v.4-.4zm4.4-6.4c0-.1-.1-.2-.2-.2v-2.8c0-.1-.1-.2-.2-.2s-.2.1-.2.2v8c-.1 0-.2.1-.2.2v7.3c0 .1.1.2.2.2v8.3c-.1 0-.2.1-.2.2v7.3c0 .1.1.2.2.2s.1 0 .1-.1v1.6c0 .1.1.2.2.2s.2-.1.2-.2v-3.8l.1-.1V-600c0-.1-.1-.2-.2-.2v-1.5c.1 0 .1-.1.1-.2v-3.8l.1-.1V-616zm-.4 8.4c0 .1 0 .1 0 0v.4-.4zm0 16.4v-.4.4zM-25-614c0-.1-.1-.2-.2-.2v-2.8c0-.1-.1-.2-.2-.2s-.2.1-.2.2v8c-.1 0-.2.1-.2.2v7.3c0 .1.1.2.2.2v11.6c0 .1.1.2.2.2v1.8c0 .1.1.2.2.2s.2-.1.2-.2V-598c0-.1-.1-.2-.2-.2v-1.5c.1 0 .1-.1.1-.2v-3.8l.1-.1V-614zm-.4 8.8v-.4.4z" transform="translate(128 640)"/><path class="st1" d="M-21-612c0-.1-.1-.2-.2-.2v-2.8c0-.1-.1-.2-.2-.2s-.2.1-.2.2v8c-.1 0-.2.1-.2.2v7.3c0 .1.1.2.2.2v7.6c0 .1.1.2.2.2v1.8c0 .1.1.2.2.2s.2-.1.2-.2v-6.3c0-.1-.1-.2-.2-.2v-1.5c.1 0 .1-.1.1-.2v-3.8l.1-.1V-612zm-.4 8.5v.3-.3zm3.4-7c0-.1-.1-.2-.2-.2v-2.8c0-.1-.1-.2-.2-.2s-.2.1-.2.2v8.1s-.1 0-.1.1v-2.5c0-.1-.1-.2-.2-.2v-4c0-.1-.1-.2-.2-.2h-.1v-.1c0-.1-.1-.2-.2-.2s-.2.1-.2.2v1.3c-.1 0-.1.1-.1.2v5.3-2.8c0-.1-.1-.2-.2-.2v-4c0-.1-.1-.2-.2-.2h-.1v-.1c0-.1-.1-.2-.2-.2s-.2.1-.2.2v1.4c-.1 0-.1.1-.1.2v5.2l-.1.1v4.8c0 .1.1.2.2.2v7.9c0 .1.1.2.2.2h.1v1.6c0 .1.1.2.2.2s.2-.1.2-.2v-5.3c0-.1-.1-.2-.2-.2h-.1v-2.5c.1 0 .1-.1.1-.2v-4.2c0 .1.1.1.2.1s.1 0 .2-.1v2.8c0 .1.1.2.2.2v7.9c0 .1.1.2.2.2h.1v1.6c0 .1.1.2.2.2s.2-.1.2-.2v-5.3c0-.1-.1-.2-.2-.2h-.1v-2.5c.1 0 .1-.1.1-.2v-3.9c0 .1.1.1.2.1 0 0 .1 0 .1-.1v5c0 .1.1.2.2.2v5.7c0 .1.1.2.2.2s.2-.1.2-.2v-3.9c.1 0 .1-.1.1-.2v-3.8l.1-.1v-5l-.1-5.4zm-2.2 3.8c-.1 0-.1 0 0 0l-.1-2.1v1.6c0 .1.1.2.2.2v.5c0-.2 0-.2-.1-.2zm1 .4c-.1 0-.1 0 0 0l-.1-2.1v1.6c0 .1.1.2.2.2v.5c0-.1 0-.2-.1-.2zm.8 4.3v.4-.4zm4.4-6.5c0-.1-.1-.2-.2-.2v-2.8c0-.1-.1-.2-.2-.2s-.2.1-.2.2v8.1-.6c0-.1 0-.1-.1-.2v-1.7c0-.1-.1-.2-.2-.2v-4c0-.1-.1-.2-.2-.2h-.1v-.1c0-.1-.1-.2-.2-.2s-.2.1-.2.2v1.4c-.1 0-.1.1-.1.2v4.2-1.7c0-.1-.1-.2-.2-.2v-4c0-.1-.1-.2-.2-.2h-.1v-.1c0-.1-.1-.2-.2-.2s-.2.1-.2.2v1.4c-.1 0-.1.1-.1.2v5.2l-.1.1v10.7c0 .1.1.2.2.2s.2-.1.2-.2v-1.5c.1 0 .2-.1.2-.2v-5.4c0-.1-.1-.2-.2-.2v-2.3l.1-.1v-3.8 1.6c0 .1.1.2.2.2v3.6c0 .1 0 .1.1.2v4.2c0 .1.1.2.2.2v4.2c0 .1.1.2.2.2s.2-.1.2-.2v-1.5c.1 0 .2-.1.2-.2v-5.8c0-.1-.1-.2-.2-.2v-2.3l.1-.1v-3.8 1.6c0 .1.1.2.2.2v3.6c0 .1 0 .1.1.2v4.2c0 .1.1.2.2.2v.4c0 .1.1.2.2.2s.1 0 .1-.1v1.6c0 .1.1.2.2.2s.2-.1.2-.2v-3.8l.1-.1v-10.3zm-.4 8.8c0 .1 0 .1 0 0v-.4.4zm4.4-6.8c0-.1-.1-.2-.2-.2v-2.8c0-.1-.1-.2-.2-.2s-.2.1-.2.2v11.3c0 .1.1.2.2.2v1.8c0 .1.1.2.2.2s.2-.1.2-.2v-10.3zm2.1 4v-4c0-.1-.1-.2-.2-.2h-.1v-.1c0-.1-.1-.2-.2-.2s-.2.1-.2.2v1.4c-.1 0-.1.1-.1.2v6.2c0 .1.1.2.2.2s.2-.1.2-.2v-3.8 1.6c0 .1.1.2.2.2v3.6c0 .1.1.2.2.2s.2-.1.2-.2v-4.8c0-.2-.1-.3-.2-.3zm5.5-3.1c-.1 0-.2.1-.2.2v5.3c0 .1.1.2.2.2s.2-.1.2-.2v-5.3c0-.1-.1-.2-.2-.2zm-1.7.9c-.1-.2-.2-.3-.3-.3-.1 0-.2.1-.2.2v3.8c0 .1.1.2.2.2h.1v1.6c0 .1.1.2.2.2s.2-.1.2-.2v-5.3c0-.1-.1-.2-.2-.2zm-2.1 0v-2.8c0-.1-.1-.2-.2-.2s-.2.1-.2.2v7.3c0 .1.1.2.2.2v1.8c0 .1.1.2.2.2s.2-.1.2-.2v-6.3c0-.1-.1-.2-.2-.2zM-17-610c0-.1-.1-.2-.2-.2v-2.8c0-.1-.1-.2-.2-.2s-.2.1-.2.2v8c-.1 0-.2.1-.2.2v7.3c0 .1.1.2.2.2v5.6c0 .1.1.2.2.2s.2-.1.2-.2v-3.9c.1 0 .1-.1.1-.2v-3.8l.1-.1V-610zm-.4 8.4c0 .1 0 .1 0 0v.4-.4zm4.4-6.4c0-.1-.1-.2-.2-.2v-2.8c0-.1-.1-.2-.2-.2s-.2.1-.2.2v8c-.1 0-.2.1-.2.2v7.3c0 .1.1.2.2.2s.1 0 .1-.1v1.6c0 .1.1.2.2.2s.2-.1.2-.2v-3.8l.1-.1V-608zm-.4 8.8v-.4.4zm2.5-4.9v-4c0-.1-.1-.2-.2-.2h-.1v-.1c0-.1-.1-.2-.2-.2s-.2.1-.2.2v1.4c-.1 0-.1.1-.1.2v5.3-2.8c0-.1-.1-.2-.2-.2v-4c0-.1-.1-.2-.2-.2h-.1v-.1c0-.1-.1-.2-.2-.2s-.2.1-.2.2v1.4c-.1 0-.1.1-.1.2v5.2l-.1.1v4.8c0 .1.1.2.2.2h.1v1.6c0 .1.1.2.2.2s.2-.1.2-.2v-4.2c0 .1.1.1.2.1s.1 0 .2-.1v2.8c0 .1.1.2.2.2h.1v1.6c0 .1.1.2.2.2s.2-.1.2-.2v-4.1c0 .1.1.1.2.1s.2-.1.2-.2v-4.8c-.1-.1-.2-.2-.3-.2zm-1.2 1.5c0-.1-.1-.1-.2-.1h-.1v-2.1 1.6c0 .1.1.2.2.2l.1.4zm1 .4c0-.1-.1-.1-.2-.1h-.1v-2.1 1.6c0 .1.1.2.2.2l.1.4zM-9-606c0-.1-.1-.2-.2-.2v-2.8c0-.1-.1-.2-.2-.2s-.2.1-.2.2v11.3c0 .1.1.2.2.2v1.8c0 .1.1.2.2.2s.2-.1.2-.2V-606z" transform="translate(128 640)"/><path class="st1" d="M-6.9-602.1v-4c0-.1-.1-.2-.2-.2h-.1v-.1c0-.1-.1-.2-.2-.2s-.2.1-.2.2v1.4c-.1 0-.1.1-.1.2v6.3c0 .1.1.2.2.2s.2-.1.2-.2v-3.8 1.6c0 .1.1.2.2.2v3.6c0 .1.1.2.2.2s.2-.1.2-.2v-4.8c0-.3-.1-.4-.2-.4zm5.5-3.1c-.1 0-.2.1-.2.2v5.3c0 .1.1.2.2.2s.2-.1.2-.2v-5.3c0-.1-.1-.2-.2-.2zm-1.7.9s0 .1 0 0c-.1-.2-.2-.3-.3-.3-.1 0-.2.1-.2.2v3.8c0 .1.1.2.2.2h.1v1.6c0 .1.1.2.2.2s.2-.1.2-.2v-5.3c0-.1-.1-.2-.2-.2zm-2.1.1v-2.8c0-.1-.1-.2-.2-.2s-.2.1-.2.2v7.3c0 .1.1.2.2.2v1.8c0 .1.1.2.2.2s.2-.1.2-.2v-6.3c0-.1-.1-.2-.2-.2zm-81-19v-3.3c0-.1-.1-.2-.2-.2s-.2.1-.2.2v3c-.1 0-.2.1-.2.2v7.3c0 .1.1.2.2.2v8.6s-.1 0-.1.1v-2.5c0-.1-.1-.2-.2-.2v-8.8c0-.1-.1-.1-.1-.2v-5.1c0-.1-.1-.2-.2-.2s-.2.1-.2.2v.5h-.1c-.1 0-.2.1-.2.2v3.3l-.1.1v5.4c0 .1.1.2.2.2h.1v1.2c-.1 0-.1.1-.1.2v5.3-2.8c0-.1-.1-.2-.2-.2v-8.8c0-.1-.1-.1-.1-.2v-5.1c0-.1-.1-.2-.2-.2s-.2.1-.2.2v.6h-.1c-.1 0-.2.1-.2.2v3.3l-.1.1v5.4c0 .1.1.2.2.2h.1v1.4c-.1 0-.1.1-.1.2v5.2l-.1.1v3.3l-.1.1v5.5c0 .1.1.2.2.2h.1v1.4c-.1 0-.1.1-.1.2v5.2l-.1.1v3.3l-.1.1v5.5c0 .1.1.2.2.2s.2-.1.2-.2v-2.3c0 .1.1.1.1.2v4.1c0 .1.1.2.2.2s.2-.1.2-.2v-6.3c0-.1-.1-.1-.1-.2v-2c0 .1.1.1.2.1s.1 0 .2-.1v1.3l-.1.1v5.4c0 .1.1.2.2.2s.2-.1.2-.2v-2.3c0 .1.1.1.1.2v4.1c0 .1.1.2.2.2s.2-.1.2-.2v-6.3c0-.1-.1-.1-.1-.2v-2c0 .1.1.1.2.1 0 0 .1 0 .1-.1v5.2c0 .1.1.2.2.2v3.6c0 .1.1.2.2.2s.2-.1.2-.2v-1.9c.1 0 .1-.1.1-.2v-3.8l.1-.1v-10.4c0-.1-.1-.2-.2-.2v-1.5c.1 0 .1-.1.1-.2v-3.8l.1-.1v-10.2c0-.1-.1-.2-.2-.2v-1.5c.1 0 .1-.1.1-.2v-3.8l.1-.1v-4.6c-.3-.1-.4-.2-.5-.2zm-.2 19.2v.3-.3zm0-16v.4-.4zm-1 21.5v-2.3c0 .1.1.1.1.2l-.1 2.1c.1 0 .1 0 0 0zm.2-9.8c-.1 0-.1 0 0 0l-.1-2.1v1.6c0 .1.1.2.2.2v.5c0-.1 0-.2-.1-.2zm-.2-8.6c0 .1.1.1.1.2v2.2h-.2l.1-2.4zm-1 17.9v-2.3c0 .1.1.1.1.2l-.1 2.1c.1 0 .1 0 0 0zm.2-9.7c-.1 0-.1 0 0 0l-.1-2.1v1.6c0 .1.1.2.2.2v.5c0-.2 0-.2-.1-.2zm-.2-8.6c0 .1.1.1.1.2v2.1h-.2l.1-2.3zm.2 24.6c-.1 0-.1 0 0 0l-.1-2.1v1.6c0 .1.1.2.2.2v.5c0-.2 0-.2-.1-.2zm.3-1.8v-8.8c0-.1-.1-.1-.1-.2v-2c0 .1.1.1.2.1s.1 0 .2-.1v1.3l-.1.1v5.4c0 .1.1.2.2.2h.1v1.5c-.1 0-.1.1-.1.2v5.3-2.8c-.2-.1-.3-.2-.4-.2zm.7 2.2c-.1 0-.1 0 0 0l-.1-2.1v1.6c0 .1.1.2.2.2v.5c0-.1 0-.2-.1-.2zm.7.9s-.1 0 0 0c-.1 0-.1 0 0 0l-.1-2.5c0-.1-.1-.2-.2-.2v-8.8c0-.1-.1-.1-.1-.2v-2c0 .1.1.1.2.1 0 0 .1 0 .1-.1v5.1c0 .1.1.2.2.2v8.4h-.1zm.1 3.7c0 .1 0 .1 0 0v-.4.4zm4.4-38.8c0-.1-.1-.2-.2-.2v-.8c0-.1-.1-.2-.2-.2s-.2.1-.2.2v6.1s-.1 0-.1.1v-2.5c0-.1-.1-.2-.2-.2s-.2.1-.2.2v1.7c0-.1-.1-.1-.2-.1h-.1v-4.6c0-.1-.1-.2-.2-.2s-.2.1-.2.2v5.3-2.8c0-.1-.1-.2-.2-.2s-.2.1-.2.2v1.7c0-.1-.1-.1-.2-.1h-.1v-4.6c0-.1-.1-.2-.2-.2s-.2.1-.2.2v5.3l-.1.1v4.8c0 .1.1.2.2.2v5.5c-.1 0-.1.1-.1.2v5.2l-.1.1v4.8c0 .1.1.2.2.2v5.5c-.1 0-.1.1-.1.2v5.2l-.1.1v4.8c0 .1.1.2.2.2v5.7c0 .1.1.2.2.2s.2-.1.2-.2v-4c.1 0 .1-.1.1-.2v-4.2c0 .1.1.1.2.1s.1 0 .2-.1v2.8c0 .1.1.2.2.2v5.7c0 .1.1.2.2.2s.2-.1.2-.2v-4c.1 0 .1-.1.1-.2v-3.9c0 .1.1.1.2.1 0 0 .1 0 .1-.1v5c0 .1.1.2.2.2v3.6c0 .1.1.2.2.2s.2-.1.2-.2v-1.9c.1 0 .1-.1.1-.2v-3.8l.1-.1v-10.4c0-.1-.1-.2-.2-.2v-1.5c.1 0 .1-.1.1-.2v-3.8l.1-.1v-10.2c0-.1-.1-.2-.2-.2v-1.5c.1 0 .1-.1.1-.2v-3.8l.1-.1v-10.1h.1zm-.4 24.8c0 .1 0 .1 0 0v-.4.4zm0-16.3v.4-.4zm-.8 5.5v-2.2c.1 0 .1-.1.1-.2v-4.1c0 .1.1.1.2.1 0 0 .1 0 .1-.1v5c0 .1.1.2.2.2v8.6s-.1 0-.1.1v-2.5c0-.1-.1-.2-.2-.2v-4c0-.1-.1-.2-.2-.2h-.1v-.5zm0 6.2c-.1 0-.1 0 0 0l-.1-2.1v1.6c0 .1.1.2.2.2v.5c0-.1 0-.2-.1-.2zm-1-6.7v-2.2c.1 0 .1-.1.1-.2v-4.2c0 .1.1.1.2.1s.1 0 .2-.1v2.8c0 .1.1.2.2.2v5.6c-.1 0-.1.1-.1.2v5.3-2.8c0-.1-.1-.2-.2-.2v-4c0-.1-.1-.2-.2-.2h-.1v-.1l-.1-.2zm0 6.3c-.1 0-.1 0 0 0l-.1-2.1v1.6c0 .1.1.2.2.2v.5c0-.2 0-.2-.1-.2zm0 16c-.1 0-.1 0 0 0l-.1-2.1v1.6c0 .1.1.2.2.2v.5c0-.2 0-.2-.1-.2zm.5-4.1v5.3-2.8c0-.1-.1-.2-.2-.2v-4c0-.1-.1-.2-.2-.2h-.1v-2.5c.1 0 .1-.1.1-.2v-4.2c0 .1.1.1.2.1s.1 0 .2-.1v2.8c0 .1.1.2.2.2v5.6c-.1 0-.2.1-.2.2zm.5 4.5c-.1 0-.1 0 0 0l-.1-2.1v1.6c0 .1.1.2.2.2v.5c0-.1 0-.2-.1-.2zm.7.1v.8s-.1 0-.1.1v-2.5c0-.1-.1-.2-.2-.2v-4c0-.1-.1-.2-.2-.2h-.1v-2.5c.1 0 .1-.1.1-.2v-4.1c0 .1.1.1.2.1 0 0 .1 0 .1-.1v5c0 .1.1.2.2.2v7.6zm.1 4.5c0 .1 0 .1 0 0v-.4.4zm4.4-38.8c0-.1-.1-.2-.2-.2v-5.8c0-.1-.1-.2-.2-.2s-.2.1-.2.2v11.2-.7c0-.1 0-.1-.1-.2v-1.7c0-.1-.1-.2-.2-.2v-4c0-.1-.1-.2-.2-.2h-.1v-.1c0-.1-.1-.2-.2-.2s-.2.1-.2.2v1.4c-.1 0-.1.1-.1.2v4.2-1.7c0-.1-.1-.2-.2-.2v-4c0-.1-.1-.2-.2-.2h-.1v-.1c0-.1-.1-.2-.2-.2s-.2.1-.2.2v1.4c-.1 0-.1.1-.1.2v5.2l-.1.1v10.7c0 .1 0 .1.1.1v5.1l-.1.1v10.7c0 .1 0 .1.1.1v5.1l-.1.1v10.7c0 .1.1.2.2.2s.2-.1.2-.2v-1.5c.1 0 .2-.1.2-.2v-5.4c0-.1-.1-.2-.2-.2v-2.3l.1-.1v-3.8 1.6c0 .1.1.2.2.2v3.6c0 .1 0 .1.1.2v4.2c0 .1.1.2.2.2v4.2c0 .1.1.2.2.2s.2-.1.2-.2v-1.5c.1 0 .2-.1.2-.2v-5.8c0-.1-.1-.2-.2-.2v-2.3l.1-.1v-3.8 1.6c0 .1.1.2.2.2v3.6c0 .1 0 .1.1.2v4.2c0 .1.1.2.2.2v.4c0 .1.1.2.2.2v3.6c0 .1.1.2.2.2s.2-.1.2-.2v-1.9c.1 0 .1-.1.1-.2v-3.8l.1-.1v-10.4c0-.1-.1-.2-.2-.2v-1.5c.1 0 .1-.1.1-.2v-3.8l.1-.1v-10.2c0-.1-.1-.2-.2-.2v-1.5c.1 0 .1-.1.1-.2v-3.8l.1-.1v-10.1zm-.4 8.5v.4-.4zm0 32v.3-.3zm0-15.6v-.4.4zm-.9-18.8l.1-.1v-3.8 1.6c0 .1.1.2.2.2v3.6c0 .1 0 .1.1.2v4.2c0 .1.1.2.2.2v.3c0 .1.1.2.2.2v8.6-.8c0-.1 0-.1-.1-.2v-1.7c0-.1-.1-.2-.2-.2v-4c0-.1-.1-.2-.2-.2h-.1v-5.7c0-.1-.1-.2-.2-.2v-2.2zm-1-.5l.1-.1v-3.8 1.6c0 .1.1.2.2.2v3.6c0 .1 0 .1.1.2v4.2c0 .1.1.2.2.2v4.2c0 .1 0 .1.1.1v4.1-1.7c0-.1-.1-.2-.2-.2v-4c0-.1-.1-.2-.2-.2h-.1v-5.7c0-.1-.1-.2-.2-.2v-2.5zm.6 30.3v-1.7c0-.1-.1-.2-.2-.2v-4c0-.1-.1-.2-.2-.2h-.1v-5.7c0-.1-.1-.2-.2-.2v-2.3l.1-.1v-3.8 1.6c0 .1.1.2.2.2v3.6c0 .1 0 .1.1.2v4.2c0 .1.1.2.2.2v4.2c0 .1 0 .1.1.1v3.9zm1.1 1.2v-.6c0-.1 0-.1-.1-.2v-1.7c0-.1-.1-.2-.2-.2v-4c0-.1-.1-.2-.2-.2h-.1v-5.7c0-.1-.1-.2-.2-.2v-2.3l.1-.1v-3.8 1.6c0 .1.1.2.2.2v3.6c0 .1 0 .1.1.2v4.2c0 .1.1.2.2.2v.4c0 .1.1.2.2.2v8.4c.1 0 0 0 0 0zm4.6-35.1c0-.1-.1-.2-.2-.2v-1.5c.1 0 .1-.1.1-.2v-5.3c0-.1-.1-.2-.2-.2s-.1 0-.1.1v-3.4c0-.1-.1-.2-.2-.2s-.2.1-.2.2v7.2c0 .1.1.2.2.2v8.6s-.1 0-.1.1v-2.5c0-.1-.1-.2-.2-.2v-4c0-.1-.1-.1-.1-.2v-5c0-.1-.1-.2-.2-.2s-.2.1-.2.2v4.4h-.1v-5.4c0-.1-.1-.2-.2-.2s-.2.1-.2.2v5.4c0 .1.1.2.2.2h.1v1.4c-.1 0-.1.1-.1.2v5.3-2.8c0-.1-.1-.2-.2-.2v-4c0-.1-.1-.1-.1-.2v-4.7c0-.1-.1-.2-.2-.2s-.2.1-.2.2v4.4h-.1v-5.4c0-.1-.1-.2-.2-.2s-.2.1-.2.2v5.4c0 .1.1.2.2.2h.1v1.4c-.1 0-.1.1-.1.2v5.2l-.1.1v3.3l-.1.1v5.5c0 .1.1.2.2.2h.1v1.4c-.1 0-.1.1-.1.2v5.2l-.1.1v3.3l-.1.1v5.5c0 .1.1.2.2.2h.1v1.4c-.1 0-.1.1-.1.2v5.2l-.1.1v3.3l-.1.1v5.5c0 .1.1.2.2.2s.2-.1.2-.2v-2.3 4.1c0 .1.1.2.2.2s.2-.1.2-.2v-8.3c0 .1.1.1.2.1s.1 0 .2-.1v1.3l-.1.1v5.4c0 .1.1.2.2.2s.2-.1.2-.2v-2.3 4.1c0 .1.1.2.2.2s.2-.1.2-.2v-8.1c0 .1.1.1.2.1 0 0 .1 0 .1-.1v5c0 .1.1.2.2.2v3.6c0 .1.1.2.2.2s.2-.1.2-.2v-1.9c.1 0 .1-.1.1-.2v-3.8l.1-.1v-10.4c0-.1-.1-.2-.2-.2v-1.5c.1 0 .1-.1.1-.2v-3.8l.1-.1v-10.2c0-.1-.1-.2-.2-.2v-1.5c.1 0 .1-.1.1-.2v-3.8l.1-.1v-10.1h-.1zm-.4 24.9v-.4.4zm0-16.4v.4-.4zm-.5-.9s.1 0 0 0l.1 4.9c0 .1.1.2.2.2v8.6s-.1 0-.1.1v-2.5c0-.1-.1-.2-.2-.2v-4c0-.1-.1-.1-.1-.2v-5.1l.1-1.8c-.1 0-.1 0 0 0zm-.2-3.7v.5c0-.1-.1-.1-.2-.1h-.1v-2.1 1.6c.1 0 .2.1.3.1zm0 16.4c0-.1-.1-.1-.2-.1h-.1v-2.1 1.6c0 .1.1.2.2.2l.1.4zm-.3-6.3v-2.3 2.3zm0 16v-2.3 2.3zm.3 6.3c0-.1-.1-.1-.2-.1h-.1v-2.1 1.6c0 .1.1.2.2.2l.1.4zm-.8-29.1c.1 0 .1 0 .2-.1v1.3l-.1.1v5.4c0 .1.1.2.2.2h.1v1.4c-.1 0-.1.1-.1.2v5.3-2.8c0-.1-.1-.2-.2-.2v-4c0-.1-.1-.1-.1-.2v-6.7c-.1 0-.1.1 0 .1zm-.5 4v2.3h-.1l.1-2.3zm.3-7.8v.5c0-.1-.1-.1-.2-.1h-.1v-2.1 1.6c.1 0 .2.1.3.1zm0 16.5c0-.1-.1-.1-.2-.1h-.1v-2.1 1.6c0 .1.1.2.2.2l.1.4zm-.3 7.3v2.3h-.1l.1-2.3zm.3 8.7c0-.1-.1-.1-.2-.1h-.1v-2.1 1.6c0 .1.1.2.2.2l.1.4zm.2-1.9v-4c0-.1-.1-.1-.1-.2v-6.7c0 .1.1.1.2.1s.1 0 .2-.1v1.3l-.1.1v5.4c0 .1.1.2.2.2h.1v1.4c-.1 0-.1.1-.1.2v5.3-2.8c-.2-.1-.3-.2-.4-.2zm1.3 3.1s-.1 0-.1.1v-2.5c0-.1-.1-.2-.2-.2v-4c0-.1-.1-.1-.1-.2v-6.8c0 .1.1.1.2.1 0 0 .1 0 .1-.1v5c0 .1.1.2.2.2v7.8l-.1.6c.1 0 0 0 0 0zm.2 3.4v.4-.4z" transform="translate(128 640)"/><path class="st1" d="M-85.2-622.7v-3.3c0-.1-.1-.2-.2-.2s-.2.1-.2.2v3c-.1 0-.2.1-.2.2v7.3c0 .1.1.2.2.2v8.3c-.1 0-.2.1-.2.2v7.3c0 .1.1.2.2.2v8.3c-.1 0-.2.1-.2.2v7.3c0 .1.1.2.2.2v3.6c0 .1.1.2.2.2s.2-.1.2-.2v-1.9c.1 0 .1-.1.1-.2v-3.8l.1-.1V-596c0-.1-.1-.2-.2-.2v-1.5c.1 0 .1-.1.1-.2v-3.8l.1-.1V-612c0-.1-.1-.2-.2-.2v-1.5c.1 0 .1-.1.1-.2v-3.8l.1-.1v-4.8s-.1-.1-.2-.1zm-.2 19.2v.3-.3zm0-16.1c0 .1 0 .1 0 0v.4-.4zm0 32.4v-.4.4zM-81-626c0-.1-.1-.2-.2-.2v-.8c0-.1-.1-.2-.2-.2s-.2.1-.2.2v6c-.1 0-.2.1-.2.2v7.3c0 .1.1.2.2.2v8.3c-.1 0-.2.1-.2.2v7.3c0 .1.1.2.2.2v8.3c-.1 0-.2.1-.2.2v7.3c0 .1.1.2.2.2v3.6c0 .1.1.2.2.2s.2-.1.2-.2v-1.9c.1 0 .1-.1.1-.2v-3.8l.1-.1V-594c0-.1-.1-.2-.2-.2v-1.5c.1 0 .1-.1.1-.2v-3.8l.1-.1V-610c0-.1-.1-.2-.2-.2v-1.5c.1 0 .1-.1.1-.2v-3.8l.1-.1V-626zm-.4 24.4c0 .1 0 .1 0 0v.4-.4zm0-16c0 .1 0 .1 0 0v.4-.4zm0 32.4v-.4.4zM-77-624c0-.1-.1-.2-.2-.2v-5.8c0-.1-.1-.2-.2-.2s-.2.1-.2.2v11c-.1 0-.2.1-.2.2v7.3c0 .1.1.2.2.2v8.3c-.1 0-.2.1-.2.2v7.3c0 .1.1.2.2.2v8.3c-.1 0-.2.1-.2.2v7.3c0 .1.1.2.2.2v3.6c0 .1.1.2.2.2s.2-.1.2-.2v-1.9c.1 0 .1-.1.1-.2v-3.8l.1-.1V-592c0-.1-.1-.2-.2-.2v-1.5c.1 0 .1-.1.1-.2v-3.8l.1-.1V-608c0-.1-.1-.2-.2-.2v-1.5c.1 0 .1-.1.1-.2v-3.8l.1-.1V-624zm-.4 40.4c0 .1 0 .1 0 0v.4-.4zm0-16c0 .1 0 .1 0 0v.4-.4zm0-16c0 .1 0 .1 0 0v.4-.4zm4.4-6.4c0-.1-.1-.2-.2-.2v-1.5c.1 0 .1-.1.1-.2v-5.3c0-.1-.1-.2-.2-.2s-.1 0-.1.1v-3.5c0-.1-.1-.2-.2-.2s-.2.1-.2.2v7.3c0 .1.1.2.2.2v8.3c-.1 0-.2.1-.2.2v7.3c0 .1.1.2.2.2v8.3c-.1 0-.2.1-.2.2v7.3c0 .1.1.2.2.2v8.3c-.1 0-.2.1-.2.2v7.3c0 .1.1.2.2.2v3.6c0 .1.1.2.2.2s.2-.1.2-.2v-1.9c.1 0 .1-.1.1-.2v-3.8l.1-.1V-590c0-.1-.1-.2-.2-.2v-1.5c.1 0 .1-.1.1-.2v-3.8l.1-.1V-606c0-.1-.1-.2-.2-.2v-1.5c.1 0 .1-.1.1-.2v-3.8l.1-.1V-622zm-.4 24.4s0 .1 0 0v.4-.4zm0-16s0 .1 0 0v.4-.4zm0 32s0 .1 0 0v.4-.4zm-28.8-33.6v-3.3c0-.1-.1-.2-.2-.2s-.2.1-.2.2v3c-.1 0-.2.1-.2.2v7.3c0 .1.1.2.2.2v8.6s-.1 0-.1.1v-2.5c0-.1-.1-.2-.2-.2v-8.8c0-.1-.1-.1-.1-.2v-5.1c0-.1-.1-.2-.2-.2s-.2.1-.2.2v.5h-.1c-.1 0-.2.1-.2.2v3.3l-.1.1v5.4c0 .1.1.2.2.2h.1v1.2c-.1 0-.1.1-.1.2v5.3-2.8c0-.1-.1-.2-.2-.2v-8.8c0-.1-.1-.1-.1-.2v-5.1c0-.1-.1-.2-.2-.2s-.2.1-.2.2v.6h-.1c-.1 0-.2.1-.2.2v3.3l-.1.1v5.4c0 .1.1.2.2.2h.1v1.4c-.1 0-.1.1-.1.2v5.2l-.1.1v3.3l-.1.1v5.5c0 .1.1.2.2.2s.2-.1.2-.2v-2.3c0 .1.1.1.1.2v4.1c0 .1.1.2.2.2s.2-.1.2-.2v-6.3c0-.1-.1-.1-.1-.2v-2c0 .1.1.1.2.1s.1 0 .2-.1v1.3l-.1.1v5.4c0 .1.1.2.2.2s.2-.1.2-.2v-2.3c0 .1.1.1.1.2v4.1c0 .1.1.2.2.2s.2-.1.2-.2v-6.3c0-.1-.1-.1-.1-.2v-2c0 .1.1.1.2.1 0 0 .1 0 .1-.1v5.2c0 .1.1.2.2.2v3.6c0 .1.1.2.2.2s.2-.1.2-.2v-1.9c.1 0 .1-.1.1-.2v-3.8l.1-.1v-10.4c0-.1-.1-.2-.2-.2v-1.5c.1 0 .1-.1.1-.2v-3.8l.1-.1v-4.6c-.3-.1-.4-.2-.5-.2zm-2.2 5.9c0 .1.1.1.1.2v2.1h-.2l.1-2.3zm.2 8.6c-.1 0-.1 0 0 0l-.1-2.1v1.6c0 .1.1.2.2.2v.5c0-.2 0-.2-.1-.2zm.8-8.2c0 .1.1.1.1.2v2.2h-.2l.1-2.4zm.2 8.6c-.1 0-.1 0 0 0l-.1-2.1v1.6c0 .1.1.2.2.2v.5c0-.1 0-.2-.1-.2zm.8-11.7v.4-.4zm0 16.3c0 .1 0 .1 0 0v-.4.4zm4.4-22.8c0-.1-.1-.2-.2-.2v-.8c0-.1-.1-.2-.2-.2s-.2.1-.2.2v6.1s-.1 0-.1.1v-2.5c0-.1-.1-.2-.2-.2s-.2.1-.2.2v1.7c0-.1-.1-.1-.2-.1h-.1v-4.6c0-.1-.1-.2-.2-.2s-.2.1-.2.2v5.3-2.8c0-.1-.1-.2-.2-.2s-.2.1-.2.2v1.7c0-.1-.1-.1-.2-.1h-.1v-4.6c0-.1-.1-.2-.2-.2s-.2.1-.2.2v5.3l-.1.1v4.8c0 .1.1.2.2.2v5.5c-.1 0-.1.1-.1.2v5.2l-.1.1v4.8c0 .1.1.2.2.2v5.7c0 .1.1.2.2.2s.2-.1.2-.2v-4c.1 0 .1-.1.1-.2v-4.2c0 .1.1.1.2.1s.1 0 .2-.1v2.8c0 .1.1.2.2.2v5.7c0 .1.1.2.2.2s.2-.1.2-.2v-4c.1 0 .1-.1.1-.2v-3.9c0 .1.1.1.2.1 0 0 .1 0 .1-.1v5c0 .1.1.2.2.2v3.6c0 .1.1.2.2.2s.2-.1.2-.2v-1.9c.1 0 .1-.1.1-.2v-3.8l.1-.1v-10.4c0-.1-.1-.2-.2-.2v-1.5c.1 0 .1-.1.1-.2v-3.8l.1-.1v-4.7l.1-5.4zm-.4 8.5v.4-.4zm-1.8 11.3c-.1 0-.1 0 0 0l-.1-2.1v1.6c0 .1.1.2.2.2v.5c0-.2 0-.2-.1-.2zm.5-4.1v5.3-2.8c0-.1-.1-.2-.2-.2v-4c0-.1-.1-.2-.2-.2h-.1v-2.5c.1 0 .1-.1.1-.2v-4.2c0 .1.1.1.2.1s.1 0 .2-.1v2.8c0 .1.1.2.2.2v5.6c-.1 0-.2.1-.2.2zm.5 4.5c-.1 0-.1 0 0 0l-.1-2.1v1.6c0 .1.1.2.2.2v.5c0-.1 0-.2-.1-.2zm.7.1v.8s-.1 0-.1.1v-2.5c0-.1-.1-.2-.2-.2v-4c0-.1-.1-.2-.2-.2h-.1v-2.5c.1 0 .1-.1.1-.2v-4.1c0 .1.1.1.2.1 0 0 .1 0 .1-.1v5c0 .1.1.2.2.2v7.6zm.1 4.5c0 .1 0 .1 0 0v-.4.4zm4.4-22.8c0-.1-.1-.2-.2-.2v-5.8c0-.1-.1-.2-.2-.2s-.2.1-.2.2v11.2-.7c0-.1 0-.1-.1-.2v-1.7c0-.1-.1-.2-.2-.2v-4c0-.1-.1-.2-.2-.2h-.1v-.1c0-.1-.1-.2-.2-.2s-.2.1-.2.2v1.4c-.1 0-.1.1-.1.2v4.2-1.7c0-.1-.1-.2-.2-.2v-4c0-.1-.1-.2-.2-.2h-.1v-.1c0-.1-.1-.2-.2-.2s-.2.1-.2.2v1.4c-.1 0-.1.1-.1.2v5.2l-.1.1v10.7c0 .1 0 .1.1.1v5.1l-.1.1v10.7c0 .1.1.2.2.2s.2-.1.2-.2v-1.5c.1 0 .2-.1.2-.2v-5.4c0-.1-.1-.2-.2-.2v-2.3l.1-.1v-3.8 1.6c0 .1.1.2.2.2v3.6c0 .1 0 .1.1.2v4.2c0 .1.1.2.2.2v4.2c0 .1.1.2.2.2s.2-.1.2-.2v-1.5c.1 0 .2-.1.2-.2v-5.8c0-.1-.1-.2-.2-.2v-2.3l.1-.1v-3.8 1.6c0 .1.1.2.2.2v3.6c0 .1 0 .1.1.2v4.2c0 .1.1.2.2.2v.4c0 .1.1.2.2.2v3.6c0 .1.1.2.2.2s.2-.1.2-.2v-1.9c.1 0 .1-.1.1-.2v-3.8l.1-.1v-10.4c0-.1-.1-.2-.2-.2v-1.5c.1 0 .1-.1.1-.2v-3.8l.1-.1v-10.1zm-.4 8.5v.4-.4zm0 16v.3-.3zm-1.3-4.6v-1.7c0-.1-.1-.2-.2-.2v-4c0-.1-.1-.2-.2-.2h-.1v-5.7c0-.1-.1-.2-.2-.2v-2.3l.1-.1v-3.8 1.6c0 .1.1.2.2.2v3.6c0 .1 0 .1.1.2v4.2c0 .1.1.2.2.2v4.2c0 .1 0 .1.1.1v3.9zm1.1 1.2v-.6c0-.1 0-.1-.1-.2v-1.7c0-.1-.1-.2-.2-.2v-4c0-.1-.1-.2-.2-.2h-.1v-5.7c0-.1-.1-.2-.2-.2v-2.3l.1-.1v-3.8 1.6c0 .1.1.2.2.2v3.6c0 .1 0 .1.1.2v4.2c0 .1.1.2.2.2v.4c0 .1.1.2.2.2v8.4c.1 0 0 0 0 0zm4.6-19.1c0-.1-.1-.2-.2-.2v-1.5c.1 0 .1-.1.1-.2v-5.3c0-.1-.1-.2-.2-.2s-.1 0-.1.1v-3.6c0-.1-.1-.2-.2-.2s-.2.1-.2.2v7.4c0 .1.1.2.2.2v8.6s-.1 0-.1.1v-2.5c0-.1-.1-.2-.2-.2v-4c0-.1-.1-.1-.1-.2v-5c0-.1-.1-.2-.2-.2s-.2.1-.2.2v4.4h-.1v-5.4c0-.1-.1-.2-.2-.2s-.2.1-.2.2v5.4c0 .1.1.2.2.2h.1v1.4c-.1 0-.1.1-.1.2v5.3-2.8c0-.1-.1-.2-.2-.2v-4c0-.1-.1-.1-.1-.2v-4.7c0-.1-.1-.2-.2-.2s-.2.1-.2.2v4.4h-.1v-5.4c0-.1-.1-.2-.2-.2s-.2.1-.2.2v5.4c0 .1.1.2.2.2h.1v1.4c-.1 0-.1.1-.1.2v5.2l-.1.1v3.3l-.1.1v5.5c0 .1.1.2.2.2h.1v1.4c-.1 0-.1.1-.1.2v5.2l-.1.1v3.3l-.1.1v5.5c0 .1.1.2.2.2s.2-.1.2-.2v-2.3 4.1c0 .1.1.2.2.2s.2-.1.2-.2v-8.3c0 .1.1.1.2.1s.1 0 .2-.1v1.3l-.1.1v5.4c0 .1.1.2.2.2s.2-.1.2-.2v-2.3 4.1c0 .1.1.2.2.2s.2-.1.2-.2v-8.1c0 .1.1.1.2.1 0 0 .1 0 .1-.1v5c0 .1.1.2.2.2v3.6c0 .1.1.2.2.2s.2-.1.2-.2v-1.9c.1 0 .1-.1.1-.2v-3.8l.1-.1v-10.4c0-.1-.1-.2-.2-.2v-1.5c.1 0 .1-.1.1-.2v-3.8l.1-.1v-10.1h-.1zm-.4 8.5v.4-.4zm-1 5.5v-2.3 2.3zm.3-9.7c0-.1-.1-.1-.2-.1h-.1v-2.1 1.6c0 .1.1.2.2.2l.1.4zm0 16c0-.1-.1-.1-.2-.1h-.1v-2.1 1.6c0 .1.1.2.2.2l.1.4zm-1.3-9.1v2.3h-.1l.1-2.3zm.3-7.3c0-.1-.1-.1-.2-.1h-.1v-2.1 1.6c0 .1.1.2.2.2l.1.4zm0 16c0-.1-.1-.1-.2-.1h-.1v-2.1 1.6c0 .1.1.2.2.2l.1.4zm.2-1.9v-4c0-.1-.1-.1-.1-.2v-6.7c0 .1.1.1.2.1s.1 0 .2-.1v1.3l-.1.1v5.4c0 .1.1.2.2.2h.1v1.4c-.1 0-.1.1-.1.2v5.3-2.8c-.2-.1-.3-.2-.4-.2zm1.3 3.1s-.1 0-.1.1v-2.5c0-.1-.1-.2-.2-.2v-4c0-.1-.1-.1-.1-.2v-6.8c0 .1.1.1.2.1 0 0 .1 0 .1-.1v5c0 .1.1.2.2.2v7.8l-.1.6c.1 0 0 0 0 0zm.2 3.4v.4-.4z" transform="translate(128 640)"/><path class="st1" d="M-101.2-614.7v-3.3c0-.1-.1-.2-.2-.2s-.2.1-.2.2v3c-.1 0-.2.1-.2.2v7.3c0 .1.1.2.2.2v8.3c-.1 0-.2.1-.2.2v7.3c0 .1.1.2.2.2v3.6c0 .1.1.2.2.2s.2-.1.2-.2v-1.9c.1 0 .1-.1.1-.2v-3.8l.1-.1V-604c0-.1-.1-.2-.2-.2v-1.5c.1 0 .1-.1.1-.2v-3.8l.1-.1v-4.8s-.1-.1-.2-.1zm-.2 3.1c0 .1 0 .1 0 0v.4-.4zm0 16.4v-.4.4zM-97-618c0-.1-.1-.2-.2-.2v-.8c0-.1-.1-.2-.2-.2s-.2.1-.2.2v6c-.1 0-.2.1-.2.2v7.3c0 .1.1.2.2.2v8.3c-.1 0-.2.1-.2.2v7.3c0 .1.1.2.2.2v3.6c0 .1.1.2.2.2s.2-.1.2-.2v-1.9c.1 0 .1-.1.1-.2v-3.8l.1-.1V-602c0-.1-.1-.2-.2-.2v-1.5c.1 0 .1-.1.1-.2v-3.8l.1-.1V-618zm-.4 8.4c0 .1 0 .1 0 0v.4-.4zm0 16.4v-.4.4zM-93-616c0-.1-.1-.2-.2-.2v-5.8c0-.1-.1-.2-.2-.2s-.2.1-.2.2v11c-.1 0-.2.1-.2.2v7.3c0 .1.1.2.2.2v8.3c-.1 0-.2.1-.2.2v7.3c0 .1.1.2.2.2v3.6c0 .1.1.2.2.2s.2-.1.2-.2v-1.9c.1 0 .1-.1.1-.2v-3.8l.1-.1V-600c0-.1-.1-.2-.2-.2v-1.5c.1 0 .1-.1.1-.2v-3.8l.1-.1V-616zm-.4 24.4c0 .1 0 .1 0 0v.4-.4zm0-16c0 .1 0 .1 0 0v.4-.4zm4.4-6.4c0-.1-.1-.2-.2-.2v-1.5c.1 0 .1-.1.1-.2v-5.3c0-.1-.1-.2-.2-.2s-.1 0-.1.1v-3.6c0-.1-.1-.2-.2-.2s-.2.1-.2.2v7.3c0 .1.1.2.2.2v8.4c-.1 0-.2.1-.2.2v7.3c0 .1.1.2.2.2v8.3c-.1 0-.2.1-.2.2v7.3c0 .1.1.2.2.2v3.6c0 .1.1.2.2.2s.2-.1.2-.2v-1.9c.1 0 .1-.1.1-.2v-3.8l.1-.1V-598c0-.1-.1-.2-.2-.2v-1.5c.1 0 .1-.1.1-.2v-3.8l.1-.1V-614zm-.4 8.4s0 .1 0 0v.4-.4zm0 16s0 .1 0 0v.4-.4zm-37-17c-.1 0-.2.1-.2.2v6.3c0 .1.1.2.2.2s.2-.1.2-.2v-6.3c0-.1-.1-.2-.2-.2zm1.8 0c-.1 0-.2.1-.2.2v5.4c0 .1.1.2.2.2s.2-.1.2-.2v-5.4c0-.1-.1-.2-.2-.2zm.4 1c-.1 0-.2.1-.2.2v6.3c0 .1.1.2.2.2.1-.1.2-.2.2-.3v-6.3s-.1-.1-.2-.1zm2-.1c-.1 0-.1 0-.1.1v-3.6c0-.1-.1-.2-.2-.2s-.2.1-.2.2v7.2c0 .1.1.2.2.2v3.6c0 .1.1.2.2.2s.2-.1.2-.2v-1.9c.1 0 .1-.1.1-.2v-5.3s-.1-.1-.2-.1zm4-1.5v-3.3c0-.1-.1-.2-.2-.2s-.2.1-.2.2v3c-.1 0-.2.1-.2.2v7.3c0 .1.1.2.2.2v3.6c0 .1.1.2.2.2s.2-.1.2-.2v-1.9c.1 0 .1-.1.1-.2v-3.8l.1-.1v-4.8c0-.1-.1-.2-.2-.2zm-.2 3.5c0 .1 0 .1 0 0v-.4.4zm4.4-6.8c0-.1-.1-.2-.2-.2v-.8c0-.1-.1-.2-.2-.2s-.2.1-.2.2v6.1s-.1 0-.1.1v-2.5c0-.1-.1-.2-.2-.2s-.2.1-.2.2v1.7c0-.1-.1-.1-.2-.1h-.1v-4.6c0-.1-.1-.2-.2-.2s-.2.1-.2.2v5.3-2.8c0-.1-.1-.2-.2-.2s-.2.1-.2.2v1.7c0-.1-.1-.1-.2-.1h-.1v-4.6c0-.1-.1-.2-.2-.2s-.2.1-.2.2v5.3l-.1.1v4.8c0 .1.1.2.2.2v5.7c0 .1.1.2.2.2s.2-.1.2-.2v-4c.1 0 .1-.1.1-.2v-4.2c0 .1.1.1.2.1s.1 0 .2-.1v2.8c0 .1.1.2.2.2v5.7c0 .1.1.2.2.2s.2-.1.2-.2v-4c.1 0 .1-.1.1-.2v-3.9c0 .1.1.1.2.1 0 0 .1 0 .1-.1v5c0 .1.1.2.2.2v3.6c0 .1.1.2.2.2s.2-.1.2-.2v-1.9c.1 0 .1-.1.1-.2v-3.8l.1-.1v-4.9l.1-5.4zm-.4 8.8c0 .1 0 .1 0 0v-.4.4zm-5.6-1.8v-5.1c0-.1-.1-.2-.2-.2s-.2.1-.2.2v.6h-.1c-.1 0-.2.1-.2.2v3.3l-.1.1v5.4c0 .1.1.2.2.2s.2-.1.2-.2v-2.3c0 .1.1.1.1.2v4.1c0 .1.1.2.2.2s.2-.1.2-.2v-6.3c0-.1-.1-.1-.1-.2zm10-5c0-.1-.1-.2-.2-.2v-5.8c0-.1-.1-.2-.2-.2s-.2.1-.2.2v11.2-.7c0-.1 0-.1-.1-.2v-1.7c0-.1-.1-.2-.2-.2v-4c0-.1-.1-.2-.2-.2h-.1v-.1c0-.1-.1-.2-.2-.2s-.2.1-.2.2v1.4c-.1 0-.1.1-.1.2v4.2-1.7c0-.1-.1-.2-.2-.2v-4c0-.1-.1-.2-.2-.2h-.1v-.1c0-.1-.1-.2-.2-.2s-.2.1-.2.2v1.4c-.1 0-.1.1-.1.2v5.2l-.1.1v10.7c0 .1.1.2.2.2s.2-.1.2-.2v-1.5c.1 0 .2-.1.2-.2v-5.4c0-.1-.1-.2-.2-.2v-2.3l.1-.1v-3.8 1.6c0 .1.1.2.2.2v3.6c0 .1 0 .1.1.2v4.2c0 .1.1.2.2.2v4.2c0 .1.1.2.2.2s.2-.1.2-.2v-1.5c.1 0 .2-.1.2-.2v-5.8c0-.1-.1-.2-.2-.2v-2.3l.1-.1v-3.8 1.6c0 .1.1.2.2.2v3.6c0 .1 0 .1.1.2v4.2c0 .1.1.2.2.2v.4c0 .1.1.2.2.2v3.6c0 .1.1.2.2.2s.2-.1.2-.2v-1.9c.1 0 .1-.1.1-.2v-3.8l.1-.1v-10.3zm-.4 8.5v.4-.4zm4.4-6.5c0-.1-.1-.2-.2-.2v-1.5c.1 0 .1-.1.1-.2v-5.3c0-.1-.1-.2-.2-.2s-.1 0-.1.1v-3.6c0-.1-.1-.2-.2-.2s-.2.1-.2.2v7.4c0 .1.1.2.2.2v8.6s-.1 0-.1.1v-2.5c0-.1-.1-.2-.2-.2v-4c0-.1-.1-.1-.1-.2v-5c0-.1-.1-.2-.2-.2s-.2.1-.2.2v4.4h-.1v-5.4c0-.1-.1-.2-.2-.2s-.2.1-.2.2v5.4c0 .1.1.2.2.2h.1v1.4c-.1 0-.1.1-.1.2v5.3-2.8c0-.1-.1-.2-.2-.2v-4c0-.1-.1-.1-.1-.2v-4.7c0-.1-.1-.2-.2-.2s-.2.1-.2.2v4.4h-.1v-5.4c0-.1-.1-.2-.2-.2s-.2.1-.2.2v5.4c0 .1.1.2.2.2h.1v1.4c-.1 0-.1.1-.1.2v5.2l-.1.1v3.3l-.1.1v5.5c0 .1.1.2.2.2s.2-.1.2-.2v-2.3 4.1c0 .1.1.2.2.2s.2-.1.2-.2v-8.3c0 .1.1.1.2.1s.1 0 .2-.1v1.3l-.1.1v5.4c0 .1.1.2.2.2s.2-.1.2-.2v-2.3 4.1c0 .1.1.2.2.2s.2-.1.2-.2v-8.1c0 .1.1.1.2.1 0 0 .1 0 .1-.1v5c0 .1.1.2.2.2v3.6c0 .1.1.2.2.2s.2-.1.2-.2v-1.9c.1 0 .1-.1.1-.2v-3.8l.1-.1v-4.9l-.1-5.4zm-2.1 3.9c0-.1-.1-.1-.2-.1h-.1v-2.1 1.6c0 .1.1.2.2.2l.1.4zm1 .4c0-.1-.1-.1-.2-.1h-.1v-2.1 1.6c0 .1.1.2.2.2l.1.4zm.7 4.2v.4-.4zm-19-8.2c-.1 0-.2.1-.2.2v6.3c0 .1.1.2.2.2s.2-.1.2-.2v-6.3c0-.1-.1-.2-.2-.2zm1.8 0c-.1 0-.2.1-.2.2v5.4c0 .1.1.2.2.2s.2-.1.2-.2v-5.4c0-.1-.1-.2-.2-.2z" transform="translate(128 640)"/><path class="st1" d="M-123.2-605.2c-.1 0-.2.1-.2.2v6.3c0 .1.1.2.2.2s.2-.1.2-.2v-6.3c0-.1-.1-.2-.2-.2zm2-.1c-.1 0-.1 0-.1.1v-3.6c0-.1-.1-.2-.2-.2s-.2.1-.2.2v7.3c0 .1.1.2.2.2v3.6c0 .1.1.2.2.2s.2-.1.2-.2v-1.9c.1 0 .1-.1.1-.2v-5.3c0-.1-.1-.2-.2-.2zm4-1.4v-3.3c0-.1-.1-.2-.2-.2s-.2.1-.2.2v3c-.1 0-.2.1-.2.2v7.3c0 .1.1.2.2.2v3.6c0 .1.1.2.2.2s.2-.1.2-.2v-1.9c.1 0 .1-.1.1-.2v-3.8l.1-.1v-4.8c0-.1-.1-.2-.2-.2zm-.2 3.5v-.4.4zm4.4-6.8c0-.1-.1-.2-.2-.2v-.8c0-.1-.1-.2-.2-.2s-.2.1-.2.2v6c-.1 0-.2.1-.2.2v7.3c0 .1.1.2.2.2v3.6c0 .1.1.2.2.2s.2-.1.2-.2v-1.9c.1 0 .1-.1.1-.2v-3.8l.1-.1V-610zm-.4 8.8v-.4.4zm-5.6-1.8v-5.1c0-.1-.1-.2-.2-.2s-.2.1-.2.2v.5h-.1c-.1 0-.2.1-.2.2v3.3l-.1.1v5.4c0 .1.1.2.2.2s.2-.1.2-.2v-2.3c0 .1.1.1.1.2v4.1c0 .1.1.2.2.2s.2-.1.2-.2l-.1-6.4zm10-5c0-.1-.1-.2-.2-.2v-5.8c0-.1-.1-.2-.2-.2s-.2.1-.2.2v11c-.1 0-.2.1-.2.2v7.3c0 .1.1.2.2.2v3.6c0 .1.1.2.2.2s.2-.1.2-.2v-1.9c.1 0 .1-.1.1-.2v-3.8l.1-.1V-608zm-.4 8.4c0 .1 0 .1 0 0v.4-.4zm4.4-6.4c0-.1-.1-.2-.2-.2v-1.5c.1 0 .1-.1.1-.2v-5.3c0-.1-.1-.2-.2-.2s-.1 0-.1.1v-3.6c0-.1-.1-.2-.2-.2s-.2.1-.2.2v7.3c0 .1.1.2.2.2v8.4c-.1 0-.2.1-.2.2v7.3c0 .1.1.2.2.2v3.6c0 .1.1.2.2.2s.2-.1.2-.2v-1.9c.1 0 .1-.1.1-.2v-3.8l.1-.1V-606zm-.4 8.4s0 .1 0 0v.4-.4z" transform="translate(128 640)"/><path class="st2" d="M-65.7-638.4c0-.3-.3-.6-.7-.6-.3 0-.6.3-.6.6v5.8c-.1.1-.2.3-.2.5v3.8c0 .2.1.4.2.5 0 .1 0 .2.1.3-.1-.1-.1 0-.1.1v11c-.1.1-.2.3-.2.5v3.8c0 .2.1.4.2.5 0 .1 0 .2.1.3-.1-.3-.1-.2-.1-.1v11c-.1.1-.2.3-.2.5v3.8c0 .2.1.4.2.5 0 .1 0 .2.1.3-.1-.3-.1-.2-.1-.1v11c-.1.1-.2.3-.2.5v3.8c0 .2.1.4.2.5 0 .1 0 .2.1.3-.1-.3-.1-.2-.1-.1v3.8c0 .4.3.6.6.6.4 0 .6-.3.6-.6v-.7c.1-.1.1-.2.1-.4v-3.8c0-.1-.1-.3-.1-.4v-4.5c.1-.1.2-.3.2-.4v-3.8c0-.2-.1-.3-.2-.4v-2.5c.1-.1.1-.2.1-.4v-3.8c0-.1-.1-.3-.1-.4v-4.5c.1-.1.2-.3.2-.4v-3.8c0-.2-.1-.3-.2-.4v-2.5c.1-.1.1-.2.1-.4v-3.8c0-.1-.1-.3-.1-.4v-4.5c.1-.1.2-.3.2-.4v-3.8c0-.2-.1-.3-.2-.4v-2.5c.1-.1.1-.2.1-.4v-3.8c0-.1-.1-.3-.1-.4v-3.8c.1-.1.2-.3.2-.4v-3.7c0-.2-.1-.3-.2-.4v-.6h.1z" transform="translate(128 640)"/><path class="st2" d="M-67.8-637v-1.2c0-.4-.3-.6-.6-.6-.4 0-.6.3-.6.6v9.3c0 .2.1.3.2.4v5.9c-.1.1-.1.2-.1.4v9.3c0 .2.1.3.2.4v5.9c-.1.1-.1.2-.1.4v9.3c0 .2.1.3.2.4v5.9c-.1.1-.1.2-.1.4v9.3c0 .2.1.3.2.4v4.5c0 .4.3.6.6.6.4 0 .6-.3.6-.6v-5.3c.1-.1.1-.2.1-.3v-.9c.1-.1.2-.3.2-.5v-8.5c0-.2-.1-.4-.3-.5v-5.3c.1-.1.1-.2.1-.3v-.9c.1-.1.2-.3.2-.5v-8.5c0-.2-.1-.4-.3-.5v-5.3c.1-.1.1-.2.1-.3v-.9c.1-.1.2-.3.2-.5v-8.5c0-.2-.1-.4-.3-.5v-5.3c.1-.1.1-.2.1-.3v-.9c.1-.1.2-.3.2-.5v-5.4c-.4-.3-.6-.5-.8-.6zm6.1.6v-2c0-.3-.3-.6-.7-.6-.3 0-.6.3-.6.6v7.9l-.2.2v-.9c0-.2-.1-.4-.2-.5v-5.7c0-.2-.1-.4-.3-.5v-1.5c0-.3-.3-.6-.7-.6-.3 0-.6.3-.6.6v2.8c-.1.1-.1.2-.1.4v9.5c-.1.1-.1.2-.1.3v3.8c0 .2.1.4.2.5v1.5c-.1.1-.1.2-.1.4v9.5c-.1.1-.1.2-.1.3v3.8c0 .2.1.4.2.5v1.5c-.1.1-.1.2-.1.4v9.5c-.1.1-.1.2-.1.3v3.8c0 .2.1.4.2.5v1.5c-.1.1-.1.2-.1.4v9.5c-.1.1-.1.2-.1.3v3.8c0 .2.1.4.2.5v.1c0 .4.3.6.6.6.4 0 .6-.3.6-.6v-4.9c.2 0 .4-.2.5-.4v.8c0 .2.1.4.2.5 0 .1.1.2.1.3v2.9c0 .4.3.6.6.6.4 0 .6-.3.6-.6v-3.8c0-.1-.1-.3-.1-.4v-4.5c.1-.1.2-.3.2-.4v-3.8c0-.2-.1-.3-.2-.4v-2.5c.1-.1.1-.2.1-.4v-3.8c0-.1-.1-.3-.1-.4v-4.5c.1-.1.2-.3.2-.4v-3.8c0-.2-.1-.3-.2-.4v-2.5c.1-.1.1-.2.1-.4v-3.8c0-.1-.1-.3-.1-.4v-4.5c.1-.1.2-.3.2-.4v-3.8c0-.2-.1-.3-.2-.4v-2.5c.1-.1.1-.2.1-.4v-3.8c0-.1-.1-.3-.1-.4v-3.7c.1-.1.2-.3.2-.4v-3.7c0-.2-.1-.3-.2-.4v-.6h.2zm-1.7 36.7v-5.7c0-.2-.1-.4-.3-.5v-4.9c.2 0 .4-.2.5-.4v.8c0 .2.1.4.2.5 0 .1 0 .2.1.3-.1 0-.1.1-.1.2v11l-.2.2v-.8c0-.4-.1-.6-.2-.7zm-.3-27.2c.2 0 .4-.2.5-.4v.8c0 .2.1.4.2.5 0 .1 0 .2.1.3-.1.1-.1.2-.1.3v11l-.2.2v-.8c0-.2-.1-.4-.2-.5v-5.7c0-.2-.1-.4-.3-.5v-5.2zm.7 38.5v5.9l-.2.2v-.8c0-.2-.1-.4-.2-.5v-5.7c0-.2-.1-.4-.3-.5v-4.9c.2 0 .4-.2.5-.4v.8c0 .2.1.4.2.5 0 .1 0 .2.1.3-.1-.1-.1 0-.1.1v5zm3.6-47c0-.2-.1-.4-.3-.5v-1.5c0-.3-.3-.6-.7-.6-.3 0-.6.3-.6.6v2.8c-.1.1-.1.2-.1.4v7.8c-.1.1-.1.2-.1.3v6.1c0 .2.1.4.3.5v.9c-.1.1-.1.2-.1.4v7.8c-.1.1-.1.2-.1.3v6.1c0 .2.1.4.3.5v.9c-.1.1-.1.2-.1.4v7.8c-.1.1-.1.2-.1.3v6.1c0 .2.1.4.3.5v.9c-.1.1-.1.2-.1.4v9.3c0 .4.3.6.6.6.4 0 .6-.3.6-.6v-.2c.1-.1.3-.3.3-.5v-.9c.1-.1.2-.3.2-.5v-8.5c0-.2-.1-.4-.3-.5v-.2c.1-.1.2-.3.2-.4v-3.8c0-.2-.1-.4-.3-.6v-.2c.1-.1.3-.3.3-.5v-.9c.1-.1.2-.3.2-.5v-8.5c0-.2-.1-.4-.3-.5v-.2c.1-.1.2-.3.2-.4v-3.8c0-.2-.1-.4-.3-.6v-.2c.1-.1.3-.3.3-.5v-.9c.1-.1.2-.3.2-.5v-8.5c0-.2-.1-.4-.3-.5v-.2c.1-.1.2-.3.2-.4v-3.8c0-.2-.1-.4-.3-.6v-.2c.1-.1.3-.3.3-.5v-.9c.1-.1.2-.3.2-.5v-8.1h-.6z" transform="translate(128 640)"/><path class="st2" d="M-57.7-634.4v-2c0-.3-.3-.6-.7-.6-.3 0-.6.3-.6.6v7.9c-.1.1-.2.3-.2.5v3.8c0 .2.1.3.2.4 0 .1 0 .2.1.3-.1-.1-.1 0-.1.1v11c-.1.1-.2.3-.2.5v3.8c0 .2.1.3.2.4 0 .1 0 .2.1.3-.1-.2-.1-.1-.1 0v11c-.1.1-.2.3-.2.5v3.8c0 .2.1.3.2.4 0 .1 0 .2.1.3-.1-.2-.1-.1-.1 0v15.4c0 .4.3.6.6.6.4 0 .6-.3.6-.6v-5.3c.1-.1.2-.3.2-.4v-3.8c0-.2-.1-.3-.2-.4v-2.5c.1-.1.1-.2.1-.4v-3.8c0-.1-.1-.3-.1-.4v-4.5c.1-.1.2-.3.2-.4v-3.8c0-.2-.1-.3-.2-.4v-2.5c.1-.1.1-.2.1-.4v-3.8c0-.1-.1-.3-.1-.4v-4.5c.1-.1.2-.3.2-.4v-3.8c0-.2-.1-.3-.2-.4v-2.5c.1-.1.1-.2.1-.4v-3.8c0-.1-.1-.3-.1-.4v-4.5c.1-.1.2-.3.2-.4v-3.1c0-.2-.1-.3-.2-.4v-.6h.1zm2.3 1c0-.2-.1-.4-.3-.5v-1.5c0-.3-.3-.6-.7-.6-.3 0-.6.3-.6.6v2.8c-.1.1-.1.2-.1.4v8.6c-.1.1-.1.2-.1.3v5.3c0 .2.1.4.3.5v.9c-.1.1-.1.2-.1.4v8.6c-.1.1-.1.2-.1.3v5.3c0 .2.1.4.3.5v.9c-.1.1-.1.2-.1.4v8.6c-.1.1-.1.2-.1.3v5.3c0 .2.1.4.3.5v.9c-.1.1-.1.2-.1.4v3.8c0 .3.2.5.4.6v2.8c0 .4.3.6.6.6.4 0 .6-.3.6-.6v-8.5c0-.2-.1-.4-.3-.5.1-.1.3-.3.3-.5v-3.8c0-.3-.2-.5-.4-.6v-.3c.1-.1.3-.3.3-.5v-.9c.1-.1.2-.3.2-.5v-8.5c0-.2-.1-.4-.3-.5.1-.1.3-.3.3-.5v-3.8c0-.3-.2-.5-.4-.6v-.3c.1-.1.3-.3.3-.5v-.9c.1-.1.2-.3.2-.5v-8.5c0-.2-.1-.4-.3-.5.1-.1.3-.3.3-.5v-3.8c0-.3-.2-.5-.4-.6v-.3c.1-.1.3-.3.3-.5v-.9c.1-.1.2-.3.2-.5v-8.1h-.5z" transform="translate(128 640)"/><path class="st2" d="M-53.7-632.4v-2c0-.3-.3-.6-.7-.6-.3 0-.6.3-.6.6v7.9c-.1.1-.2.3-.2.5v3.8c0 .2.1.4.2.5 0 .1 0 .2.1.3-.1-.2-.1-.1-.1 0v11c-.1.1-.2.3-.2.5v3.8c0 .2.1.4.2.5 0 .1 0 .2.1.3-.1-.3-.1-.2-.1-.1v11c-.1.1-.2.3-.2.5v3.8c0 .2.1.4.2.5 0 .1 0 .2.1.3-.1-.3-.1-.2-.1-.1v8.9c0 .2.1.3.2.4v.5c0 .4.3.6.6.6.4 0 .6-.3.6-.6v-3.8c0-.2-.1-.3-.2-.4v-2.5c.1-.1.1-.2.1-.4v-3.8c0-.1-.1-.3-.1-.4v-4.5c.1-.1.2-.3.2-.4v-3.8c0-.2-.1-.3-.2-.4v-2.5c.1-.1.1-.2.1-.4v-3.8c0-.1-.1-.3-.1-.4v-4.5c.1-.1.2-.3.2-.4v-3.8c0-.2-.1-.3-.2-.4v-2.5c.1-.1.1-.2.1-.4v-3.8c0-.1-.1-.3-.1-.4v-4.5c.1-.1.2-.3.2-.4v-3.2c0-.2-.1-.3-.2-.4v-.6h.1zm2.3 1c0-.2-.1-.4-.3-.5v-1.5c0-.3-.3-.6-.7-.6-.3 0-.6.3-.6.6v2.8c-.1.1-.1.2-.1.4v9.3c0 .2.1.3.2.4v5.9c-.1.1-.1.2-.1.4v9.3c0 .2.1.3.2.4v5.9c-.1.1-.1.2-.1.4v9.3c0 .2.1.3.2.4v8.5c0 .3.1.5.4.6.1.2.3.4.6.4.4 0 .6-.3.6-.6v-3.8c0-.2-.1-.4-.3-.5v-5.3c.1-.1.1-.2.1-.3v-.9c.1-.1.2-.3.2-.5v-8.5c0-.2-.1-.4-.3-.5v-5.3c.1-.1.1-.2.1-.3v-.9c.1-.1.2-.3.2-.5v-8.5c0-.2-.1-.4-.3-.5v-5.3c.1-.1.1-.2.1-.3v-.9c.1-.1.2-.3.2-.5v-8.5h-.3zm1.7 26.7c0-.1-.1-.3-.1-.4" transform="translate(128 640)"/><path class="st2" d="M-49.8-605.1v-4.5c.1-.1.2-.3.2-.4v-3.8c0-.2-.1-.3-.2-.4v-2.5c.1-.1.1-.2.1-.4v-3.8c0-.1-.1-.3-.1-.4v-4.5c.1-.1.2-.3.2-.4v-3.8c0-.2-.1-.3-.2-.4h.1v-2c0-.3-.3-.6-.7-.6-.3 0-.6.3-.6.6v7.9c-.1.1-.2.3-.2.5v3.8c0 .2.1.4.2.5 0 .1 0 .2.1.3-.1-.2-.1-.1-.1 0v11c-.1.1-.2.3-.2.5v3.8c0 .2.1.4.2.5 0 .1 0 .2.1.3-.1-.3-.1-.2-.1-.1v11c-.1.1-.2.3-.2.5v3.8c0 .2.1.4.2.5 0 .1 0 .2.1.3-.1-.3-.1-.2-.1-.1v6.8c0 .4.3.6.6.6.4 0 .6-.3.6-.6v-3.7c.1-.1.1-.2.1-.4v-3.8c0-.1-.1-.3-.1-.4v-4.5c.1-.1.2-.3.2-.4v-3.8c0-.2-.1-.3-.2-.4v-2.5c.1-.1.1-.2.1-.4v-3.8m4-23.7v-2c0-.3-.3-.6-.7-.6-.3 0-.6.3-.6.6v7.9l-.2.2v-.8c0-.2-.1-.4-.2-.5v-5.7c0-.2-.1-.4-.3-.5v-1.6c0-.3-.3-.6-.7-.6-.3 0-.6.3-.6.6v2.8c-.1.1-.1.2-.1.4v9.5c-.1.1-.1.2-.1.3v3.8c0 .2.1.4.2.5v1.5c-.1.1-.1.2-.1.4v9.5c-.1.1-.1.2-.1.3v3.8c0 .2.1.4.2.5v1.5c-.1.1-.1.2-.1.4v9.5c-.1.1-.1.2-.1.3v3.8c0 .2.1.4.2.5v.1c0 .4.3.6.6.6.4 0 .6-.3.6-.6v-4.9c.2 0 .4-.2.5-.4v.8c0 .2.1.4.2.5 0 .1.1.2.1.3v2.9c0 .4.3.6.6.6.4 0 .6-.3.6-.6v-3.8c0-.1-.1-.3-.1-.4v-4.5c.1-.1.2-.3.2-.4v-3.8c0-.2-.1-.3-.2-.4v-2.5c.1-.1.1-.2.1-.4v-3.8c0-.1-.1-.3-.1-.4v-4.5c.1-.1.2-.3.2-.4v-3.8c0-.2-.1-.3-.2-.4v-2.5c.1-.1.1-.2.1-.4v-3.8c0-.1-.1-.3-.1-.4v-4.5c.1-.1.2-.3.2-.4v-3.8c0-.2-.1-.3-.2-.4v.1h.2zm-2 9.5c.2 0 .4-.2.5-.4v.8c0 .2.1.4.2.5 0 .1 0 .2.1.3-.1.1-.1.2-.1.3v11l-.2.2v-.8c0-.2-.1-.4-.2-.5v-5.7c0-.2-.1-.4-.3-.5v-5.2zm.7 22.5v5.9l-.2.2v-.8c0-.2-.1-.4-.2-.5v-5.7c0-.2-.1-.4-.3-.5v-4.9c.2 0 .4-.2.5-.4v.8c0 .2.1.4.2.5 0 .1 0 .2.1.3-.1-.1-.1 0-.1.1v5zm3.6-31c0-.2-.1-.4-.3-.5v-1.4c0-.4-.3-.6-.6-.6-.4 0-.6.3-.6.6v2.8c-.1.1-.1.2-.1.4v7.8c-.1.1-.1.2-.1.3v6c0 .2.1.4.3.5v.9c-.1.1-.1.2-.1.4v7.8c-.1.1-.1.2-.1.3v6.1c0 .2.1.4.3.5v.9c-.1.1-.1.2-.1.4v9.3c0 .4.3.6.6.6.4 0 .6-.3.6-.6v-.2c.1-.1.3-.3.3-.5v-.9c.1-.1.2-.3.2-.5v-8.5c0-.2-.1-.4-.3-.5v-.2c.1-.1.2-.3.2-.4v-3.8c0-.2-.1-.4-.3-.6v-.2c.1-.1.3-.3.3-.5v-.9c.1-.1.2-.3.2-.5v-8.5c0-.2-.1-.4-.3-.5v-.2c.1-.1.2-.3.2-.4v-3.8c0-.2-.1-.4-.3-.6v-.2c.1-.1.3-.3.3-.5v-.9c.1-.1.2-.3.2-.5v-8.2h-.5z" transform="translate(128 640)"/><path class="st2" d="M-41.7-626.4v-2c0-.4-.3-.6-.6-.6-.4 0-.6.3-.6.6v7.9c-.1.1-.2.3-.2.5v3.8c0 .2.1.3.2.4 0 .1 0 .2.1.3-.2-.1-.2 0-.2.1v11c-.1.1-.2.3-.2.5v3.8c0 .2.1.3.2.4 0 .1 0 .2.1.3-.1-.2-.1-.1-.1 0v15.4c0 .4.3.6.6.6.4 0 .6-.3.6-.6v-5.3c.1-.1.2-.3.2-.4v-3.8c0-.2-.1-.3-.2-.4v-2.5c.1-.1.1-.2.1-.4v-3.8c0-.1-.1-.3-.1-.4v-4.5c.1-.1.2-.3.2-.4v-3.8c0-.2-.1-.3-.2-.4v-2.5c.1-.1.1-.2.1-.4v-3.8c0-.1-.1-.3-.1-.4v-4.5c.1-.1.2-.3.2-.4v-3.8c0-.2-.1-.3-.2-.4v-.1h.1zm2.3 1c0-.2-.1-.4-.3-.5v-1.4c0-.4-.3-.6-.6-.6-.4 0-.6.3-.6.6v2.8c-.1.1-.1.2-.1.4v8.6c-.1.1-.1.2-.1.3v5.2c0 .2.1.4.3.5v.9c-.1.1-.1.2-.1.4v8.6c-.1.1-.1.2-.1.3v5.3c0 .2.1.4.3.5v.9c-.1.1-.1.2-.1.4v3.8c0 .3.2.5.4.6v2.8c0 .4.3.6.6.6.4 0 .6-.3.6-.6v-8.5c0-.2-.1-.4-.3-.5.1-.1.3-.3.3-.5v-3.8c0-.3-.2-.5-.4-.6v-.3c.1-.1.3-.3.3-.5v-.9c.1-.1.2-.3.2-.5v-8.5c0-.2-.1-.4-.3-.5.1-.1.3-.3.3-.5v-3.8c0-.3-.2-.5-.4-.6v-.3c.1-.1.3-.3.3-.5v-.9c.1-.1.2-.3.2-.5v-8.2h-.4z" transform="translate(128 640)"/><path class="st2" d="M-37.7-624.4v-2c0-.4-.3-.6-.6-.6-.4 0-.6.3-.6.6v7.9c-.1.1-.2.3-.2.5v3.8c0 .2.1.4.2.5 0 .1 0 .2.1.3-.2-.2-.2-.1-.2 0v11c-.1.1-.2.3-.2.5v3.8c0 .2.1.4.2.5 0 .1 0 .2.1.3-.1-.3-.1-.2-.1-.1v8.9c0 .2.1.3.2.4v.5c0 .4.3.6.6.6.4 0 .6-.3.6-.6v-3.8c0-.2-.1-.3-.2-.4v-2.5c.1-.1.1-.2.1-.4v-3.8c0-.1-.1-.3-.1-.4v-4.5c.1-.1.2-.3.2-.4v-3.8c0-.2-.1-.3-.2-.4v-2.5c.1-.1.1-.2.1-.4v-3.8c0-.1-.1-.3-.1-.4v-4.5c.1-.1.2-.3.2-.4v-3.8c0-.2-.1-.3-.2-.4v-.2h.1zm2.3 1c0-.2-.1-.4-.3-.5v-1.4c0-.4-.3-.6-.6-.6-.4 0-.6.3-.6.6v2.8c-.1.1-.1.2-.1.4v9.3c0 .2.1.3.2.4v5.8c-.1.1-.1.2-.1.4v9.3c0 .2.1.3.2.4v8.5c0 .3.1.5.4.6.1.2.3.4.6.4.4 0 .6-.3.6-.6v-3.8c0-.2-.1-.4-.3-.5v-5.3c.1-.1.1-.2.1-.3v-.9c.1-.1.2-.3.2-.5v-8.5c0-.2-.1-.4-.3-.5v-5.3c.1-.1.1-.2.1-.3v-.9c.1-.1.2-.3.2-.5v-8.5h-.3z" transform="translate(128 640)"/><path class="st2" d="M-35-606.9v6.5c-.1.1-.2.3-.2.5v3.8c0 .2.1.4.2.5 0 .1 0 .2.1.3-.1-.3-.1-.2-.1-.1v6.8c0 .4.3.6.6.6.4 0 .6-.3.6-.6v-3.7c.1-.1.1-.2.1-.4v-3.8c0-.1-.1-.3-.1-.4v-4.5c.1-.1.2-.3.2-.4v-3.8c0-.2-.1-.3-.2-.4v-2.5c.1-.1.1-.2.1-.4v-3.8c0-.1-.1-.3-.1-.4v-4.5c.1-.1.2-.3.2-.4v-3.8c0-.2-.1-.3-.2-.4v-.2h.1v-2c0-.4-.3-.6-.6-.6-.4 0-.6.3-.6.6v7.9c-.1.1-.2.3-.2.5v3.8c0 .2.1.4.2.5 0 .1 0 .2.1.3-.2-.2-.2-.1-.2 0v4.5m5.3-13.5v-2c0-.4-.3-.6-.6-.6-.4 0-.6.3-.6.6v7.9l-.2.2v-.8c0-.2-.1-.4-.2-.5v-5.7c0-.2-.1-.4-.3-.5v-1.4c0-.4-.3-.6-.6-.6-.4 0-.6.3-.6.6v2.8c-.1.1-.1.2-.1.4v9.5c-.1.1-.1.2-.1.3v3.8c0 .2.1.4.2.5v-.1 1.4c-.1.1-.1.2-.1.4v9.5c-.1.1-.1.2-.1.3v3.8c0 .2.1.4.2.5v.1c0 .4.3.6.6.6.4 0 .6-.3.6-.6v-4.9c.2 0 .4-.2.5-.4v.8c0 .2.1.4.2.5 0 .1.1.2.1.3v2.9c0 .4.3.6.6.6.4 0 .6-.3.6-.6v-3.8c0-.1-.1-.3-.1-.4v-4.5c.1-.1.2-.3.2-.4v-3.8c0-.2-.1-.3-.2-.4v-2.5c.1-.1.1-.2.1-.4v-3.8c0-.1-.1-.3-.1-.4v-4.5c.1-.1.2-.3.2-.4v-3.8c0-.2-.1-.3-.2-.4v-.1zm-1.3 16v5.9l-.2.2v-.8c0-.2-.1-.4-.2-.5v-5.7c0-.2-.1-.4-.3-.5v-4.9c.2 0 .4-.2.5-.4v.8c0 .2.1.4.2.5 0 .1 0 .2.1.3-.1-.1-.1 0-.1.1v5zm3.6-15c0-.2-.1-.4-.3-.5v-1.4c0-.4-.3-.6-.6-.6-.4 0-.6.3-.6.6v2.8c-.1.1-.1.2-.1.4v7.8c-.1.1-.1.2-.1.3v6c0 .2.1.4.3.5v.9c-.1.1-.1.2-.1.4v9.3c0 .4.3.6.6.6.4 0 .6-.3.6-.6v-.2c.1-.1.3-.3.3-.5v-.9c.1-.1.2-.3.2-.5v-8.5c0-.2-.1-.4-.3-.5v-.2c.1-.1.2-.3.2-.4v-3.8c0-.2-.1-.4-.3-.6v-.2c.1-.1.3-.3.3-.5v-.9c.1-.1.2-.3.2-.5v-8.3h-.3zm1.7 1v-2c0-.4-.3-.6-.6-.6-.4 0-.6.3-.6.6v7.9c-.1.1-.2.3-.2.5v3.8c0 .2.1.3.2.4 0 .1 0 .2.1.3-.1.1-.1.2-.1.3v15.2c0 .4.3.6.6.6.4 0 .6-.3.6-.6v-5.3c.1-.1.2-.3.2-.4v-3.8c0-.2-.1-.3-.2-.4v-2.5c.1-.1.1-.2.1-.4v-3.8c0-.1-.1-.3-.1-.4v-4.5c.1-.1.2-.3.2-.4v-3.8c0-.2-.1-.3-.2-.4v-.3zm2.3 1c0-.2-.1-.4-.3-.5v-1.4c0-.4-.3-.6-.6-.6-.4 0-.6.3-.6.6v2.8c-.1.1-.1.2-.1.4v8.6c-.1.1-.1.2-.1.3v5.2c0 .2.1.4.3.5v.9c-.1.1-.1.2-.1.4v3.8c0 .3.2.5.4.6v2.8c0 .4.3.6.6.6.4 0 .6-.3.6-.6v-8.5c0-.2-.1-.4-.3-.5.1-.1.3-.3.3-.5v-3.8c0-.3-.2-.5-.4-.6v-.3c.1-.1.3-.3.3-.5v-.9c.1-.1.2-.3.2-.5v-8.3h-.2zm1.7 1v-2c0-.4-.3-.6-.6-.6-.4 0-.6.3-.6.6v7.9c-.1.1-.2.3-.2.5v3.8c0 .2.1.4.2.5 0 .1 0 .2.1.3-.1.1-.1.2-.1.3v8.9c0 .2.1.3.2.4v.5c0 .4.3.6.6.6.4 0 .6-.3.6-.6v-3.8c0-.2-.1-.3-.2-.4v-2.5c.1-.1.1-.2.1-.4v-3.8c0-.1-.1-.3-.1-.4v-4.5c.1-.1.2-.3.2-.4v-3.8c0-.2-.1-.3-.2-.4v-.7zm2.3 1c0-.2-.1-.4-.3-.5v-1.4c0-.4-.3-.6-.6-.6-.4 0-.6.3-.6.6v2.8c-.1.1-.1.2-.1.4v9.3c0 .2.1.3.2.4v8.4c0 .3.1.5.4.6.1.2.3.4.6.4.4 0 .6-.3.6-.6v-3.8c0-.2-.1-.4-.3-.5v-5.3c.1-.1.1-.2.1-.3v-.9c.1-.1.2-.3.2-.5v-8.5h-.2zm1.7 1v-2c0-.4-.3-.6-.6-.6-.4 0-.6.3-.6.6v7.9c-.1.1-.2.3-.2.5v3.8c0 .2.1.4.2.5 0 .1 0 .2.1.3-.1.1-.1.2-.1.3v6.8c0 .4.3.6.6.6.4 0 .6-.3.6-.6v-3.7c.1-.1.1-.2.1-.4v-3.8c0-.1-.1-.3-.1-.4v-4.5c.1-.1.2-.3.2-.4v-3.8c0-.2-.1-.3-.2-.4v-.7zm4 2v-2c0-.4-.3-.6-.6-.6-.4 0-.6.3-.6.6v7.9l-.2.2v-.8c0-.2-.1-.4-.2-.5v-5.7c0-.2-.1-.4-.3-.5v-1.4c0-.4-.3-.6-.6-.6-.4 0-.6.3-.6.6v2.8c-.1.1-.1.2-.1.4v9.5c-.1.1-.1.2-.1.3v3.8c0 .2.1.4.2.5v-.1c0 .4.3.6.6.6.4 0 .6-.3.6-.6v-4.9c.2 0 .4-.2.5-.4v.8c0 .2.1.4.2.5 0 .1.1.2.1.3v2.9c0 .4.3.6.6.6.4 0 .6-.3.6-.6v-3.8c0-.1-.1-.3-.1-.4v-4.5c.1-.1.2-.3.2-.4v-3.8c0-.2-.1-.3-.2-.4v-.3zm2.3 1c0-.2-.1-.4-.3-.5v-1.4c0-.4-.3-.6-.6-.6-.4 0-.6.3-.6.6v2.8c-.1.1-.1.2-.1.4v9.3c0 .4.3.6.6.6.4 0 .6-.3.6-.6v-.2c.1-.1.3-.3.3-.5v-.9c.1-.1.2-.3.2-.5v-5.6l-.1-2.9zm1.7 1v-2c0-.4-.3-.6-.6-.6-.4 0-.6.3-.6.6v12.4c0 .4.3.6.6.6.4 0 .6-.3.6-.6v-5.3c.1-.1.2-.3.2-.4v-3.8c0-.2-.1-.3-.2-.4v-.5zm2.3 1c0-.2-.1-.4-.3-.5v-1.4c0-.4-.3-.6-.6-.6-.4 0-.6.3-.6.6v2.8c-.1.1-.1.2-.1.4v3.8c0 .3.2.5.4.6v2.7c0 .4.3.6.6.6.4 0 .6-.3.6-.6v-8.4zm1.7 1v-2c0-.4-.3-.6-.6-.6-.4 0-.6.3-.6.6v5.8c0 .2.1.3.2.4v.5c0 .4.3.6.6.6.4 0 .6-.3.6-.6v-3.8c0-.2-.1-.3-.2-.4v-.5zm3.3-.6c-.4 0-.6.3-.6.6v3.8c0 .4.3.6.6.6.4 0 .6-.3.6-.6v-3.8c.1-.3-.2-.6-.6-.6zm-1.3-.4c0-.4-.3-.6-.6-.6-.4 0-.6.3-.6.6v5.4c0 .3.1.5.4.6.1.2.3.4.6.4.4 0 .6-.3.6-.6v-3.8c0-.2-.1-.4-.3-.5l-.1-1.5zm-78-21c0-.3-.3-.6-.7-.6-.3 0-.6.3-.6.6v5.8c-.1.1-.2.3-.2.5v3.8c0 .2.1.4.2.5 0 .1 0 .2.1.3-.1-.1-.1 0-.1.1v11c-.1.1-.2.3-.2.5v3.8c0 .2.1.4.2.5 0 .1 0 .2.1.3-.1-.3-.1-.2-.1-.1v11c-.1.1-.2.3-.2.5v3.8c0 .2.1.4.2.5 0 .1 0 .2.1.3-.1-.3-.1-.2-.1-.1v3.8c0 .4.3.6.6.6.4 0 .6-.3.6-.6v-.7c.1-.1.1-.2.1-.4v-3.8c0-.1-.1-.3-.1-.4v-4.5c.1-.1.2-.3.2-.4v-3.8c0-.2-.1-.3-.2-.4v-2.5c.1-.1.1-.2.1-.4v-3.8c0-.1-.1-.3-.1-.4v-4.5c.1-.1.2-.3.2-.4v-3.8c0-.2-.1-.3-.2-.4v-2.5c.1-.1.1-.2.1-.4v-3.8c0-.1-.1-.3-.1-.4v-4.5c.1-.1.2-.3.2-.4v-3.8c0-.2-.1-.3-.2-.4h.1z" transform="translate(128 640)"/><path class="st2" d="M-83.8-629v-1.2c0-.4-.3-.6-.6-.6-.4 0-.6.3-.6.6v9.3c0 .2.1.3.2.4v5.9c-.1.1-.1.2-.1.4v9.3c0 .2.1.3.2.4v5.9c-.1.1-.1.2-.1.4v9.3c0 .2.1.3.2.4v4.5c0 .4.3.6.6.6.4 0 .6-.3.6-.6v-5.3c.1-.1.1-.2.1-.3v-.9c.1-.1.2-.3.2-.5v-8.5c0-.2-.1-.4-.3-.5v-5.3c.1-.1.1-.2.1-.3v-.9c.1-.1.2-.3.2-.5v-8.5c0-.2-.1-.4-.3-.5v-5.3c.1-.1.1-.2.1-.3v-.9c.1-.1.2-.3.2-.5v-5.4c-.3-.3-.5-.5-.7-.6zm6.1.6v-5c0-.3-.3-.6-.7-.6-.3 0-.6.3-.6.6v11l-.2.2v-.8c0-.2-.1-.4-.2-.5v-5.7c0-.2-.1-.4-.3-.5v-1.7c0-.3-.3-.6-.7-.6-.3 0-.6.3-.6.6v2.8c-.1.1-.1.2-.1.4v9.5c-.1.1-.1.2-.1.3v3.8c0 .2.1.4.2.5v1.5c-.1.1-.1.2-.1.4v9.5c-.1.1-.1.2-.1.3v3.8c0 .2.1.4.2.5v1.5c-.1.1-.1.2-.1.4v9.5c-.1.1-.1.2-.1.3v3.8c0 .2.1.4.2.5v.1c0 .4.3.6.6.6.4 0 .6-.3.6-.6v-4.9c.2 0 .4-.2.5-.4v.8c0 .2.1.4.2.5 0 .1 0 .2.1.3v4.1c0 .4.3.6.6.6.4 0 .6-.3.6-.6v-.7c.1-.1.1-.2.1-.4v-3.8c0-.1-.1-.3-.1-.4v-4.5c.1-.1.2-.3.2-.4v-3.8c0-.2-.1-.3-.2-.4v-2.5c.1-.1.1-.2.1-.4v-3.8c0-.1-.1-.3-.1-.4v-4.5c.1-.1.2-.3.2-.4v-3.8c0-.2-.1-.3-.2-.4v-2.5c.1-.1.1-.2.1-.4v-3.8c0-.1-.1-.3-.1-.4v-4.5c.1-.1.2-.3.2-.4v-3.8c0-.2-.1-.3-.2-.4h.1zm-2 9.5c.2 0 .4-.2.5-.4v.8c0 .2.1.4.2.5 0 .1 0 .2.1.3-.1.1-.1.2-.1.3v11l-.2.2v-.8c0-.2-.1-.4-.2-.5v-5.7c0-.2-.1-.4-.3-.5v-5.2zm.7 22.5v5.9l-.2.2v-.8c0-.2-.1-.4-.2-.5v-5.7c0-.2-.1-.4-.3-.5v-4.9c.2 0 .4-.2.5-.4v.8c0 .2.1.4.2.5 0 .1 0 .2.1.3-.1-.1-.1 0-.1.1v5zm3.6-31c0-.2-.1-.4-.3-.5v-.2c.1-.1.2-.3.2-.4v-3.9c0-.3-.2-.5-.4-.6v-1.1c0-.4-.3-.6-.6-.6-.4 0-.6.3-.6.6v6.1c0 .2.1.4.3.5v.9c-.1.1-.1.2-.1.4v7.8c-.1.1-.1.2-.1.3v6.1c0 .2.1.4.3.5v.9c-.1.1-.1.2-.1.4v7.8c-.1.1-.1.2-.1.3v6.1c0 .2.1.4.3.5v.9c-.1.1-.1.2-.1.4v7.8c-.1.1-.1.2-.1.3v6.1c0 .4.3.6.6.6.4 0 .6-.3.6-.6.2-.1.4-.3.4-.6v-3.8c0-.2-.1-.4-.3-.6v-.2c.1-.1.3-.3.3-.5v-.9c.1-.1.2-.3.2-.5v-8.5c0-.2-.1-.4-.3-.5v-.2c.1-.1.2-.3.2-.4v-3.8c0-.2-.1-.4-.3-.6v-.2c.1-.1.3-.3.3-.5v-.9c.1-.1.2-.3.2-.5v-8.5c0-.2-.1-.4-.3-.5v-.2c.1-.1.2-.3.2-.4v-3.8c0-.2-.1-.4-.3-.6v-.2c.1-.1.3-.3.3-.5v-.9c.1-.1.2-.3.2-.5v-8.1h-.6z" transform="translate(128 640)"/><path class="st2" d="M-73.7-626.4v-2c.1-.1.1-.2.1-.4v-3.6c0-.2-.1-.4-.3-.6v-3.2c0-.4-.3-.6-.6-.6-.4 0-.6.3-.6.6v3.8c0 .2.1.4.3.6v.1c-.1.1-.2.2-.2.3v11c-.1.1-.2.3-.2.5v3.8c0 .2.1.3.2.4 0 .1 0 .2.1.3-.1-.2-.1-.1-.1 0v11c-.1.1-.2.3-.2.5v3.8c0 .2.1.3.2.4 0 .1 0 .2.1.3-.1-.2-.1-.1-.1 0v11c-.1.1-.2.3-.2.5v3.8c0 .2.1.3.2.4 0 .1 0 .2.1.3-.1-.2-.1-.1-.1 0v3.8c0 .4.3.6.6.6.4 0 .6-.3.6-.6v-.7c.1-.1.1-.2.1-.4v-3.8c0-.1-.1-.3-.1-.4v-4.5c.1-.1.2-.3.2-.4v-3.8c0-.2-.1-.3-.2-.4v-2.5c.1-.1.1-.2.1-.4v-3.8c0-.1-.1-.3-.1-.4v-4.5c.1-.1.2-.3.2-.4v-3.8c0-.2-.1-.3-.2-.4v-2.5c.1-.1.1-.2.1-.4v-3.8c0-.1-.1-.3-.1-.4v-4.5c.1-.1.2-.3.2-.4v-3.8c0-.2-.1-.3-.2-.4h.1zm2.3 1c0-.2-.1-.4-.3-.5.1-.1.3-.3.3-.5v-3.8c0-.3-.2-.5-.4-.6v-.3c.1-.1.3-.3.3-.5v-3.8c0-.2-.1-.4-.3-.5v-.4c0-.4-.3-.6-.6-.6-.4 0-.6.3-.6.6v4.7c-.1.1-.1.2-.1.3v5.3c0 .2.1.4.3.5v.9c-.1.1-.1.2-.1.4v8.6c-.1.1-.1.2-.1.3v5.3c0 .2.1.4.3.5v.9c-.1.1-.1.2-.1.4v8.6c-.1.1-.1.2-.1.3v5.3c0 .2.1.4.3.5v.9c-.1.1-.1.2-.1.4v8.6c-.1.1-.1.2-.1.3v5.3c0 .4.3.6.6.6s.5-.2.6-.5c.3-.1.5-.3.5-.6v-3.8c0-.3-.2-.5-.4-.6v-.3c.1-.1.3-.3.3-.5v-.9c.1-.1.2-.3.2-.5v-8.5c0-.2-.1-.4-.3-.5.1-.1.3-.3.3-.5v-3.8c0-.3-.2-.5-.4-.6v-.3c.1-.1.3-.3.3-.5v-.9c.1-.1.2-.3.2-.5v-8.5c0-.2-.1-.4-.3-.5.1-.1.3-.3.3-.5v-3.8c0-.3-.2-.5-.4-.6v-.3c.1-.1.3-.3.3-.5v-.9c.1-.1.2-.3.2-.5v-8.1h-.6z" transform="translate(128 640)"/><path class="st2" d="M-69.7-624.4v-2c.1-.1.1-.2.1-.4v-3.6c0-.1-.1-.3-.1-.4v-6.6c0-.3-.3-.6-.7-.6-.3 0-.6.3-.6.6v2.7c-.1.1-.2.3-.2.5v3.8c0 .2.1.4.2.5 0 .1 0 .2.1.3-.1 0-.1.1-.1.2v11c-.1.1-.2.3-.2.5v3.8c0 .2.1.4.2.5 0 .1 0 .2.1.3-.1-.3-.1-.2-.1-.1v11c-.1.1-.2.3-.2.5v3.8c0 .2.1.4.2.5 0 .1 0 .2.1.3-.1-.3-.1-.2-.1-.1v11c-.1.1-.2.3-.2.5v3.8c0 .2.1.4.2.5 0 .1 0 .2.1.3-.1-.3-.1-.2-.1-.1v3.8c0 .4.3.6.6.6.4 0 .6-.3.6-.6v-.7c.1-.1.1-.2.1-.4v-3.8c0-.1-.1-.3-.1-.4v-4.5c.1-.1.2-.3.2-.4v-3.8c0-.2-.1-.3-.2-.4v-2.5c.1-.1.1-.2.1-.4v-3.8c0-.1-.1-.3-.1-.4v-4.5c.1-.1.2-.3.2-.4v-3.8c0-.2-.1-.3-.2-.4v-2.5c.1-.1.1-.2.1-.4v-3.8c0-.1-.1-.3-.1-.4v-4.5c.1-.1.2-.3.2-.4v-3.8c0-.2-.1-.3-.2-.4h.1zm-28 2c0-.4-.3-.6-.6-.6-.4 0-.6.3-.6.6v5.8c-.1.1-.2.3-.2.5v3.8c0 .2.1.4.2.5 0 .1 0 .2.1.3-.2-.1-.2 0-.2.1v11c-.1.1-.2.3-.2.5v3.8c0 .2.1.4.2.5 0 .1 0 .2.1.3-.1-.3-.1-.2-.1-.1v3.8c0 .4.3.6.6.6.4 0 .6-.3.6-.6v-.7c.1-.1.1-.2.1-.4v-3.8c0-.1-.1-.3-.1-.4v-4.5c.1-.1.2-.3.2-.4v-3.8c0-.2-.1-.3-.2-.4v-2.5c.1-.1.1-.2.1-.4v-3.8c0-.1-.1-.3-.1-.4v-4.5c.1-.1.2-.3.2-.4v-3.8c0-.2-.1-.3-.2-.4v-.2h.1z" transform="translate(128 640)"/><path class="st2" d="M-99.8-621v-1.2c0-.4-.3-.6-.6-.6-.4 0-.6.3-.6.6v9.3c0 .2.1.3.2.4v5.9c-.1.1-.1.2-.1.4v9.3c0 .2.1.3.2.4v4.5c0 .4.3.6.6.6.4 0 .6-.3.6-.6v-5.3c.1-.1.1-.2.1-.3v-.9c.1-.1.2-.3.2-.5v-8.5c0-.2-.1-.4-.3-.5v-5.3c.1-.1.1-.2.1-.3v-.9c.1-.1.2-.3.2-.5v-5.4c-.2-.3-.4-.5-.6-.6zm6.1.6v-5.1c0-.4-.3-.6-.6-.6-.4 0-.6.3-.6.6v11l-.2.2v-.8c0-.2-.1-.4-.2-.5v-5.7c0-.2-.1-.4-.3-.5v-1.4c0-.4-.3-.6-.6-.6-.4 0-.6.3-.6.6v2.8c-.1.1-.1.2-.1.4v9.5c-.1.1-.1.2-.1.3v3.8c0 .2.1.4.2.5v-.1 1.4c-.1.1-.1.2-.1.4v9.5c-.1.1-.1.2-.1.3v3.8c0 .2.1.4.2.5v.1c0 .4.3.6.6.6.4 0 .6-.3.6-.6v-4.9c.2 0 .4-.2.5-.4v.8c0 .2.1.4.2.5 0 .1 0 .2.1.3-.2.1-.2.2-.2.3v3.8c0 .4.3.6.6.6.4 0 .6-.3.6-.6v-.7c.1-.1.1-.2.1-.4v-3.8c0-.1-.1-.3-.1-.4v-4.5c.1-.1.2-.3.2-.4v-3.8c0-.2-.1-.3-.2-.4v-2.5c.1-.1.1-.2.1-.4v-3.8c0-.1-.1-.3-.1-.4v-4.5c.1-.1.2-.3.2-.4v-3.8c0-.2-.1-.3-.2-.4v-.2h.1zm-1.3 16v5.9l-.2.2v-.8c0-.2-.1-.4-.2-.5v-5.7c0-.2-.1-.4-.3-.5v-4.9c.2 0 .4-.2.5-.4v.8c0 .2.1.4.2.5 0 .1 0 .2.1.3-.1-.1-.1 0-.1.1v5zm3.6-15c0-.2-.1-.4-.3-.5v-.2c.1-.1.2-.3.2-.4v-3.8c0-.3-.2-.5-.4-.6v-1.2c0-.4-.3-.6-.6-.6-.4 0-.6.3-.6.6v6.1c0 .2.1.4.3.5v.9c-.1.1-.1.2-.1.4v7.8c-.1.1-.1.2-.1.3v6.1c0 .2.1.4.3.5v.9c-.1.1-.1.2-.1.4v7.8c-.1.1-.1.2-.1.3v6.1c0 .4.3.6.6.6.4 0 .6-.3.6-.6.2-.1.4-.3.4-.6v-3.8c0-.2-.1-.4-.3-.6v-.2c.1-.1.3-.3.3-.5v-.9c.1-.1.2-.3.2-.5v-8.5c0-.2-.1-.4-.3-.5v-.2c.1-.1.2-.3.2-.4v-3.8c0-.2-.1-.4-.3-.6v-.2c.1-.1.3-.3.3-.5v-.9c.1-.1.2-.3.2-.5v-8.2h-.4z" transform="translate(128 640)"/><path class="st2" d="M-89.7-618.4v-2c.1-.1.1-.2.1-.4v-3.8c0-.2-.1-.4-.3-.6v-3.2c0-.4-.3-.6-.6-.6-.4 0-.6.3-.6.6v3.8c0 .2.1.4.3.6v.1c-.1.1-.1.2-.1.4v11c-.1.1-.2.3-.2.5v3.8c0 .2.1.3.2.4 0 .1 0 .2.1.3-.2-.1-.2 0-.2.1v11c-.1.1-.2.3-.2.5v3.8c0 .2.1.3.2.4 0 .1 0 .2.1.3-.1-.2-.1-.1-.1 0v3.8c0 .4.3.6.6.6.4 0 .6-.3.6-.6v-.7c.1-.1.1-.2.1-.4v-3.8c0-.1-.1-.3-.1-.4v-4.5c.1-.1.2-.3.2-.4v-3.8c0-.2-.1-.3-.2-.4v-2.5c.1-.1.1-.2.1-.4v-3.8c0-.1-.1-.3-.1-.4v-4.5c.1-.1.2-.3.2-.4v-3.8c0-.2-.1-.3-.2-.4v-.2h.1zm2.3 1c0-.2-.1-.4-.3-.5.1-.1.3-.3.3-.5v-3.8c0-.3-.2-.5-.4-.6v-.3c.1-.1.3-.3.3-.5v-3.8c0-.2-.1-.4-.3-.5v-.5c0-.4-.3-.6-.6-.6-.4 0-.6.3-.6.6v4.7c-.1.1-.1.2-.1.3v5.4c0 .2.1.4.3.5v.9c-.1.1-.1.2-.1.4v8.6c-.1.1-.1.2-.1.3v5.3c0 .2.1.4.3.5v.9c-.1.1-.1.2-.1.4v8.6c-.1.1-.1.2-.1.3v5.3c0 .4.3.6.6.6s.5-.2.6-.5c.3-.1.5-.3.5-.6v-3.8c0-.3-.2-.5-.4-.6v-.3c.1-.1.3-.3.3-.5v-.9c.1-.1.2-.3.2-.5v-8.5c0-.2-.1-.4-.3-.5.1-.1.3-.3.3-.5v-3.8c0-.3-.2-.5-.4-.6v-.3c.1-.1.3-.3.3-.5v-.9c.1-.1.2-.3.2-.5v-8.2h-.4z" transform="translate(128 640)"/><path class="st2" d="M-85.7-616.4v-2c.1-.1.1-.2.1-.4v-3.8c0-.1-.1-.3-.1-.4v-6.6c0-.4-.3-.6-.6-.6-.4 0-.6.3-.6.6v2.7c-.1.1-.2.3-.2.5v3.8c0 .2.1.4.2.5 0 .1 0 .2.1.3-.2.2-.2.3-.2.4v11c-.1.1-.2.3-.2.5v3.8c0 .2.1.4.2.5 0 .1 0 .2.1.3-.1-.3-.1-.2-.1-.1v11c-.1.1-.2.3-.2.5v3.8c0 .2.1.4.2.5 0 .1 0 .2.1.3-.1-.3-.1-.2-.1-.1v3.8c0 .4.3.6.6.6.4 0 .6-.3.6-.6v-.7c.1-.1.1-.2.1-.4v-3.8c0-.1-.1-.3-.1-.4v-4.5c.1-.1.2-.3.2-.4v-3.8c0-.2-.1-.3-.2-.4v-2.5c.1-.1.1-.2.1-.4v-3.8c0-.1-.1-.3-.1-.4v-4.5c.1-.1.2-.3.2-.4v-3.8c0-.2-.1-.3-.2-.4v-.2h.1zm-40.7 6.4c-.3 0-.6.3-.6.6v3.8c0 .4.3.6.6.6.4 0 .6-.3.6-.6v-3.8c.1-.3-.2-.6-.6-.6zm12.7-4.4c0-.4-.3-.6-.6-.6-.4 0-.6.3-.6.6v5.8c-.1.1-.2.3-.2.5v3.8c0 .2.1.4.2.5 0 .1 0 .2.1.3-.2-.1-.2 0-.2.1v3.8c0 .4.3.6.6.6.4 0 .6-.3.6-.6v-.7c.1-.1.1-.2.1-.4v-3.8c0-.1-.1-.3-.1-.4v-4.5c.1-.1.2-.3.2-.4v-3.8c0-.2-.1-.3-.2-.4v-.4h.1zM-124-609v-1.2c0-.4-.3-.6-.6-.6-.4 0-.6.3-.6.6v6.2c0 .4.3.6.6.6.4 0 .6-.2.6-.6.2-.1.4-.3.4-.6v-3.8c.1-.2-.1-.5-.4-.6zm8.2-4v-1.2c0-.4-.3-.6-.6-.6-.4 0-.6.3-.6.6v9.3c0 .2.1.3.2.4v4.5c0 .4.3.6.6.6.4 0 .6-.3.6-.6v-5.3c.1-.1.1-.2.1-.3v-.9c.1-.1.2-.3.2-.5v-5.4c-.1-.3-.3-.5-.5-.6zm-6.1 4v-3.2c0-.4-.3-.6-.6-.6-.4 0-.6.3-.6.6v3.8c0 .2.1.4.3.6v.1c-.1.1-.2.2-.2.3v3.8c0 .4.3.6.6.6.4 0 .6-.3.6-.6v-.7c.1-.1.1-.2.1-.4v-3.8c.1-.2 0-.4-.2-.5zm4.2-.6v-3.8c0-.4-.3-.6-.6-.6-.4 0-.7.3-.7.6v2.7c-.1.1-.2.3-.2.5v3.8c0 .2.1.4.2.5 0 .1 0 .2.1.3-.1 0-.1.1-.1.2v3.8c0 .4.3.6.6.6.4 0 .6-.3.6-.6v-.7c.1-.1.1-.2.1-.4v-3.8c0-.1-.1-.3-.1-.4v-2.7h.1zm8-2.8v-5.1c0-.4-.3-.6-.6-.6-.4 0-.6.3-.6.6v11l-.2.2v-.8c0-.2-.1-.4-.2-.5v-5.7c0-.2-.1-.4-.3-.5v-1.4c0-.4-.3-.6-.6-.6-.4 0-.6.3-.6.6v2.8c-.1.1-.1.2-.1.4v9.5c-.1.1-.1.2-.1.3v3.8c0 .2.1.4.2.5v-.1c0 .4.3.6.6.6.4 0 .6-.3.6-.6v-4.9c.2 0 .4-.2.5-.4v.8c0 .2.1.4.2.5 0 .1 0 .2.1.3-.2.1-.2.2-.2.3v3.8c0 .4.3.6.6.6.4 0 .6-.3.6-.6v-.7c.1-.1.1-.2.1-.4v-3.8c0-.1-.1-.3-.1-.4v-4.5c.1-.1.2-.3.2-.4v-3.8c0-.2-.1-.3-.2-.4v-.4h.1zm-10.2 5.6v-.3c.1-.1.3-.3.3-.5v-3.8c0-.2-.1-.4-.3-.5v-.5c0-.4-.3-.6-.6-.6-.4 0-.6.3-.6.6v4.7c-.1.1-.1.2-.1.3v5.4c0 .4.3.6.6.6s.5-.2.6-.5c.3-.1.5-.3.5-.6v-3.8c0-.2-.1-.4-.4-.5zm12.5-4.6c0-.2-.1-.4-.3-.5v-.2c.1-.1.2-.3.2-.4v-3.8c0-.3-.2-.5-.4-.6v-1.2c0-.4-.3-.6-.6-.6-.4 0-.6.3-.6.6v6.1c0 .2.1.4.3.5v.9c-.1.1-.1.2-.1.4v7.8c-.1.1-.1.2-.1.3v6.1c0 .4.3.6.6.6.4 0 .6-.3.6-.6.2-.1.4-.3.4-.6v-3.8c0-.2-.1-.4-.3-.6v-.2c.1-.1.3-.3.3-.5v-.9c.1-.1.2-.3.2-.5v-8.3h-.2zm1.7 1v-2c.1-.1.1-.2.1-.4v-3.8c0-.2-.1-.4-.3-.6v-3.2c0-.4-.3-.6-.6-.6-.4 0-.6.3-.6.6v3.8c0 .2.1.4.3.6v.1c-.1.1-.1.2-.1.4v11c-.1.1-.2.3-.2.5v3.8c0 .2.1.3.2.4 0 .1 0 .2.1.3-.2-.1-.2 0-.2.1v3.8c0 .4.3.6.6.6.4 0 .6-.3.6-.6v-.7c.1-.1.1-.2.1-.4v-3.8c0-.1-.1-.3-.1-.4v-4.5c.1-.1.2-.3.2-.4v-3.8c0-.2-.1-.3-.2-.4v-.4h.1zm2.3 1c0-.2-.1-.4-.3-.5.1-.1.3-.3.3-.5v-3.8c0-.3-.2-.5-.4-.6v-.3c.1-.1.3-.3.3-.5v-3.8c0-.2-.1-.4-.3-.5v-.5c0-.4-.3-.6-.6-.6-.4 0-.6.3-.6.6v4.7c-.1.1-.1.2-.1.3v5.4c0 .2.1.4.3.5v.9c-.1.1-.1.2-.1.4v8.6c-.1.1-.1.2-.1.3v5.3c0 .4.3.6.6.6s.5-.2.6-.5c.3-.1.5-.3.5-.6v-3.8c0-.3-.2-.5-.4-.6v-.3c.1-.1.3-.3.3-.5v-.9c.1-.1.2-.3.2-.5v-8.3h-.2zm1.7 1v-2c.1-.1.1-.2.1-.4v-3.8c0-.1-.1-.3-.1-.4v-6.6c0-.4-.3-.6-.6-.6-.4 0-.6.3-.6.6v2.7c-.1.1-.2.3-.2.5v3.8c0 .2.1.4.2.5 0 .1 0 .2.1.3-.2.2-.2.3-.2.4v11c-.1.1-.2.3-.2.5v3.8c0 .2.1.4.2.5 0 .1 0 .2.1.3-.1-.3-.1-.2-.1-.1v3.8c0 .4.3.6.6.6.4 0 .6-.3.6-.6v-.7c.1-.1.1-.2.1-.4v-3.8c0-.1-.1-.3-.1-.4v-4.5c.1-.1.2-.3.2-.4v-3.8c0-.2-.1-.3-.2-.4v-.4h.1z" transform="translate(128 640)"/></g></svg>