<svg xmlns="http://www.w3.org/2000/svg" width="92.8" height="65.2"><style>.st1{fill:#06547a}.st2,.st3{opacity:.11;enable-background:new}.st3{opacity:.29}.st4{fill:#2d3134}.st5{fill:#999}.st6{opacity:.15;enable-background:new}.st7{fill:#f90}.st8{fill:#656565}.st9{opacity:.2;enable-background:new}.st10{fill:#2d3134}.st10,.st11{opacity:.3;enable-background:new}.st11,.st13{fill:#fff}</style><g id="i1664_1_"><path opacity=".3" d="M-5600-5412l141-70 767 384-140 70z" transform="matrix(.1 0 0 .1 560 568)"/><path class="st1" d="M-4989-5228l-10 5v16l98 49 10-5v-16z" transform="matrix(.1 0 0 .1 560 568)"/><path class="st2" d="M-4999-5223v16l98 49v-16z" transform="matrix(.1 0 0 .1 560 568)"/><path class="st3" d="M-4891-5179v16l-10 5v-16z" transform="matrix(.1 0 0 .1 560 568)"/><path class="st1" d="M-4877-5186l-36 18v31l24 12 36-18v-31z" transform="matrix(.1 0 0 .1 560 568)"/><path class="st2" d="M-4913-5168v31l24 12v-31z" transform="matrix(.1 0 0 .1 560 568)"/><path class="st3" d="M-4853-5174v31l-36 18v-31z" transform="matrix(.1 0 0 .1 560 568)"/><path class="st1" d="M-5053-5236l-4 2v31l162 81 4-2v-31z" transform="matrix(.1 0 0 .1 560 568)"/><path class="st2" d="M-5057-5234v31l162 81v-31z" transform="matrix(.1 0 0 .1 560 568)"/><path class="st3" d="M-4891-5155v31l-4 2v-31z" transform="matrix(.1 0 0 .1 560 568)"/><path class="st4" d="M-5113-5223l36-18-12 20-36 18z" transform="matrix(.1 0 0 .1 560 568)"/><path class="st3" d="M-5113-5223l36-18-12 20-36 18z" transform="matrix(.1 0 0 .1 560 568)"/><path class="st4" d="M-5058.6-5230.4c-7.5-3.7-14.2-4.2-19.2-1.9l-14 7c-5.4 2.4-8.8 7.9-8.8 15.9 0 15.5 12.5 34.3 28 42 7.6 3.8 14.6 4.2 19.6 1.8 0 0 13.9-6.9 15.1-7.6 4.5-2.7 7.3-7.9 7.3-15.2 0-15.4-12.6-34.2-28-42z" transform="matrix(.1 0 0 .1 560 568)"/><path class="st3" d="M-5052.7-5165.8c2-1 13.7-6.8 14.8-7.5 4.5-2.7 7.3-7.9 7.3-15.2 0-6.2-2.1-13-5.5-19.3l-14 7c3.4 6.4 5.5 13.1 5.5 19.3 0 7.8-3.1 13.2-8.1 15.7z" transform="matrix(.1 0 0 .1 560 568)"/><path class="st5" d="M-5054.7-5186.6c0 9.9-8 13.9-17.9 8.9-9.9-4.9-17.9-17-17.9-26.8s8-13.9 17.9-8.9c9.8 4.9 17.9 16.9 17.9 26.8z" transform="matrix(.1 0 0 .1 560 568)"/><path class="st6" d="M-5071.1-5178.3c-9.9-4.9-17.9-17-17.9-26.8 0-4.9 1.9-8.3 5.1-9.9-4 1.3-6.6 5-6.6 10.6 0 9.9 8 21.9 17.9 26.8 5 2.5 9.6 2.7 12.8 1-3.1.9-7 .4-11.3-1.7z" transform="matrix(.1 0 0 .1 560 568)"/><path class="st4" d="M-5063.7-5192.4c0 4.1-3.3 5.8-7.5 3.7-4.1-2.1-7.5-7.1-7.5-11.2s3.3-5.8 7.5-3.7c4.2 2 7.5 7 7.5 11.2z" transform="matrix(.1 0 0 .1 560 568)"/><path class="st3" d="M-5063.7-5192.4c0 4.1-3.3 5.8-7.5 3.7-4.1-2.1-7.5-7.1-7.5-11.2s3.3-5.8 7.5-3.7c4.2 2 7.5 7 7.5 11.2z" transform="matrix(.1 0 0 .1 560 568)"/><path class="st4" d="M-5065.2-5191.7c0 4.1-3.3 5.8-7.5 3.7-4.1-2.1-7.5-7.1-7.5-11.2s3.3-5.8 7.5-3.7c4.2 2 7.5 7 7.5 11.2z" transform="matrix(.1 0 0 .1 560 568)"/><path class="st2" d="M-5044.6-5181.4c0 15.5-12.5 21.7-28 14-15.5-7.7-28-26.5-28-42s12.5-21.7 28-14c15.4 7.8 28 26.6 28 42z" transform="matrix(.1 0 0 .1 560 568)"/><path class="st4" d="M-5078-5220.9c-7.5-3.7-14.2-4.2-19.2-1.9l-14 7c-5.4 2.4-8.8 7.9-8.8 15.9 0 15.5 12.5 34.3 28 42 7.6 3.8 14.6 4.2 19.6 1.8 0 0 13.9-6.9 15.1-7.6 4.5-2.7 7.3-7.9 7.3-15.2 0-15.5-12.5-34.3-28-42z" transform="matrix(.1 0 0 .1 560 568)"/><path class="st3" d="M-5072.1-5156.3c2-1 13.7-6.8 14.8-7.5 4.5-2.7 7.3-7.9 7.3-15.2 0-6.2-2.1-13-5.5-19.3l-14 7c3.4 6.4 5.5 13.1 5.5 19.3 0 7.7-3.1 13.1-8.1 15.7z" transform="matrix(.1 0 0 .1 560 568)"/><path class="st5" d="M-5074.1-5177.2c0 9.9-8 13.9-17.9 8.9-9.9-4.9-17.9-17-17.9-26.8s8-13.9 17.9-8.9 17.9 17 17.9 26.8z" transform="matrix(.1 0 0 .1 560 568)"/><path class="st6" d="M-5090.5-5168.8c-9.9-4.9-17.9-17-17.9-26.8 0-4.9 1.9-8.3 5.1-9.9-4 1.3-6.6 5-6.6 10.6 0 9.9 8 21.9 17.9 26.8 5 2.5 9.6 2.7 12.8 1-3.1.9-7 .4-11.3-1.7z" transform="matrix(.1 0 0 .1 560 568)"/><path class="st4" d="M-5083.1-5183c0 4.1-3.3 5.8-7.5 3.7-4.1-2.1-7.5-7.1-7.5-11.2s3.3-5.8 7.5-3.7c4.2 2.1 7.5 7.1 7.5 11.2z" transform="matrix(.1 0 0 .1 560 568)"/><path class="st3" d="M-5083.1-5183c0 4.1-3.3 5.8-7.5 3.7-4.1-2.1-7.5-7.1-7.5-11.2s3.3-5.8 7.5-3.7c4.2 2.1 7.5 7.1 7.5 11.2z" transform="matrix(.1 0 0 .1 560 568)"/><path class="st4" d="M-5084.5-5182.3c0 4.1-3.3 5.8-7.5 3.7-4.2-2.1-7.5-7.1-7.5-11.2s3.3-5.8 7.5-3.7 7.5 7.1 7.5 11.2z" transform="matrix(.1 0 0 .1 560 568)"/><path class="st2" d="M-5064-5171.9c0 15.5-12.5 21.7-28 14-15.5-7.7-28-26.5-28-42s12.5-21.7 28-14c15.5 7.7 28 26.5 28 42z" transform="matrix(.1 0 0 .1 560 568)"/><path class="st4" d="M-5113-5223l36-18 36 18-36 18z" transform="matrix(.1 0 0 .1 560 568)"/><path class="st4" d="M-5063-5180l36-18-14-25-36 18z" transform="matrix(.1 0 0 .1 560 568)"/><path class="st3" d="M-5063-5180l36-18-14-25-36 18z" transform="matrix(.1 0 0 .1 560 568)"/><path class="st4" d="M-5055-5194l36-18-12 20-36 18z" transform="matrix(.1 0 0 .1 560 568)"/><path class="st3" d="M-5055-5194l36-18-12 20-36 18z" transform="matrix(.1 0 0 .1 560 568)"/><path class="st4" d="M-5000.6-5201.4c-7.5-3.7-14.2-4.2-19.2-1.9l-14 7c-5.4 2.4-8.8 7.9-8.8 15.9 0 15.5 12.5 34.3 28 42 7.6 3.8 14.6 4.2 19.6 1.8 0 0 13.9-6.9 15.1-7.6 4.5-2.7 7.3-7.9 7.3-15.2 0-15.4-12.6-34.2-28-42z" transform="matrix(.1 0 0 .1 560 568)"/><path class="st3" d="M-4994.7-5136.8c2-1 13.7-6.8 14.8-7.5 4.5-2.7 7.3-7.9 7.3-15.2 0-6.2-2.1-13-5.5-19.3l-14 7c3.4 6.4 5.5 13.1 5.5 19.3 0 7.8-3.1 13.2-8.1 15.7z" transform="matrix(.1 0 0 .1 560 568)"/><path class="st5" d="M-4996.7-5157.6c0 9.9-8 13.9-17.9 8.9-9.9-4.9-17.9-17-17.9-26.8 0-9.9 8-13.9 17.9-8.9 9.8 4.9 17.9 16.9 17.9 26.8z" transform="matrix(.1 0 0 .1 560 568)"/><path class="st6" d="M-5013.1-5149.3c-9.9-4.9-17.9-17-17.9-26.8 0-4.9 1.9-8.3 5.1-9.9-4 1.3-6.6 5-6.6 10.6 0 9.9 8 21.9 17.9 26.8 5 2.5 9.6 2.7 12.8 1-3.1.9-7 .4-11.3-1.7z" transform="matrix(.1 0 0 .1 560 568)"/><path class="st4" d="M-5005.7-5163.4c0 4.1-3.3 5.8-7.5 3.7-4.2-2.1-7.5-7.1-7.5-11.2s3.3-5.8 7.5-3.7c4.2 2 7.5 7 7.5 11.2z" transform="matrix(.1 0 0 .1 560 568)"/><path class="st3" d="M-5005.7-5163.4c0 4.1-3.3 5.8-7.5 3.7-4.2-2.1-7.5-7.1-7.5-11.2s3.3-5.8 7.5-3.7c4.2 2 7.5 7 7.5 11.2z" transform="matrix(.1 0 0 .1 560 568)"/><path class="st4" d="M-5007.2-5162.7c0 4.1-3.3 5.8-7.5 3.7-4.2-2.1-7.5-7.1-7.5-11.2s3.3-5.8 7.5-3.7c4.2 2 7.5 7 7.5 11.2z" transform="matrix(.1 0 0 .1 560 568)"/><path class="st2" d="M-4986.6-5152.4c0 15.5-12.5 21.7-28 14-15.5-7.7-28-26.5-28-42s12.5-21.7 28-14c15.4 7.8 28 26.6 28 42z" transform="matrix(.1 0 0 .1 560 568)"/><path class="st4" d="M-5020-5191.9c-7.5-3.7-14.2-4.2-19.2-1.9l-14 7c-5.4 2.4-8.8 7.9-8.8 15.9 0 15.5 12.5 34.3 28 42 7.6 3.8 14.6 4.2 19.6 1.8 0 0 13.9-6.9 15.1-7.6 4.5-2.7 7.3-7.9 7.3-15.2 0-15.5-12.5-34.3-28-42z" transform="matrix(.1 0 0 .1 560 568)"/><path class="st3" d="M-5014.1-5127.3c2-1 13.7-6.8 14.8-7.5 4.5-2.7 7.3-7.9 7.3-15.2 0-6.2-2.1-13-5.5-19.3l-14 7c3.4 6.4 5.5 13.1 5.5 19.3 0 7.7-3.1 13.1-8.1 15.7z" transform="matrix(.1 0 0 .1 560 568)"/><path class="st5" d="M-5016.1-5148.2c0 9.9-8 13.9-17.9 8.9-9.9-4.9-17.9-17-17.9-26.8 0-9.9 8-13.9 17.9-8.9s17.9 17 17.9 26.8z" transform="matrix(.1 0 0 .1 560 568)"/><path class="st6" d="M-5032.5-5139.8c-9.9-4.9-17.9-17-17.9-26.8 0-4.9 1.9-8.3 5.1-9.9-4 1.3-6.6 5-6.6 10.6 0 9.9 8 21.9 17.9 26.8 5 2.5 9.6 2.7 12.8 1-3.1.9-7 .4-11.3-1.7z" transform="matrix(.1 0 0 .1 560 568)"/><path class="st4" d="M-5025.1-5154c0 4.1-3.3 5.8-7.5 3.7-4.1-2.1-7.5-7.1-7.5-11.2s3.3-5.8 7.5-3.7c4.2 2.1 7.5 7.1 7.5 11.2z" transform="matrix(.1 0 0 .1 560 568)"/><path class="st3" d="M-5025.1-5154c0 4.1-3.3 5.8-7.5 3.7-4.1-2.1-7.5-7.1-7.5-11.2s3.3-5.8 7.5-3.7c4.2 2.1 7.5 7.1 7.5 11.2z" transform="matrix(.1 0 0 .1 560 568)"/><path class="st4" d="M-5026.5-5153.3c0 4.1-3.3 5.8-7.5 3.7-4.1-2.1-7.5-7.1-7.5-11.2s3.3-5.8 7.5-3.7c4.1 2.1 7.5 7.1 7.5 11.2z" transform="matrix(.1 0 0 .1 560 568)"/><path class="st2" d="M-5006-5142.9c0 15.5-12.5 21.7-28 14-15.5-7.7-28-26.5-28-42s12.5-21.7 28-14c15.5 7.7 28 26.5 28 42z" transform="matrix(.1 0 0 .1 560 568)"/><path class="st4" d="M-5055-5194l36-18 36 18-36 18z" transform="matrix(.1 0 0 .1 560 568)"/><path class="st4" d="M-5005-5151l36-18-14-25-36 18z" transform="matrix(.1 0 0 .1 560 568)"/><path class="st3" d="M-5005-5151l36-18-14-25-36 18z" transform="matrix(.1 0 0 .1 560 568)"/><path class="st5" d="M-4959-5176l-20 10v27l52 26 20-10v-27z" transform="matrix(.1 0 0 .1 560 568)"/><path class="st4" d="M-4945-5169l-4-2-20 10v27l4 2v-27zm28 14l-4-2-20 10v27l4 2v-27z" transform="matrix(.1 0 0 .1 560 568)"/><path class="st3" d="M-4907-5150v27l-20 10v-27z" transform="matrix(.1 0 0 .1 560 568)"/><path class="st2" d="M-4979-5166v27l52 26v-27z" transform="matrix(.1 0 0 .1 560 568)"/><path class="st1" d="M-4994-5165l-10 5v31l62 31 10-5v-31z" transform="matrix(.1 0 0 .1 560 568)"/><path class="st2" d="M-5004-5160v31l62 31v-31z" transform="matrix(.1 0 0 .1 560 568)"/><path class="st3" d="M-4932-5134v31l-10 5v-31z" transform="matrix(.1 0 0 .1 560 568)"/><path class="st1" d="M-4802-5199l-140 70v31l24 12 140-70v-31z" transform="matrix(.1 0 0 .1 560 568)"/><path class="st2" d="M-4942-5129v31l24 12v-31z" transform="matrix(.1 0 0 .1 560 568)"/><path class="st3" d="M-4778-5187v31l-140 70v-31z" transform="matrix(.1 0 0 .1 560 568)"/><path class="st4" d="M-5526-5431l36-18-12 20-36 18z" transform="matrix(.1 0 0 .1 560 568)"/><path class="st3" d="M-5526-5431l36-18-12 20-36 18z" transform="matrix(.1 0 0 .1 560 568)"/><path class="st4" d="M-5471.6-5438.4c-7.5-3.7-14.2-4.2-19.2-1.9l-14 7c-5.4 2.4-8.8 7.9-8.8 15.9 0 15.5 12.5 34.3 28 42 7.6 3.8 14.6 4.2 19.6 1.8 0 0 13.9-6.9 15.1-7.6 4.5-2.7 7.3-7.9 7.3-15.2 0-15.4-12.6-34.2-28-42z" transform="matrix(.1 0 0 .1 560 568)"/><path class="st3" d="M-5465.7-5373.8c2-1 13.7-6.8 14.8-7.5 4.5-2.7 7.3-7.9 7.3-15.2 0-6.2-2.1-13-5.5-19.3l-14 7c3.4 6.4 5.5 13.1 5.5 19.3 0 7.8-3.1 13.2-8.1 15.7z" transform="matrix(.1 0 0 .1 560 568)"/><path class="st5" d="M-5467.7-5394.6c0 9.9-8 13.9-17.9 8.9-9.9-4.9-17.9-17-17.9-26.8s8-13.9 17.9-8.9c9.8 4.9 17.9 16.9 17.9 26.8z" transform="matrix(.1 0 0 .1 560 568)"/><path class="st6" d="M-5484.1-5386.3c-9.9-4.9-17.9-17-17.9-26.8 0-4.9 1.9-8.3 5.1-9.9-4 1.3-6.6 5-6.6 10.6 0 9.9 8 21.9 17.9 26.8 5 2.5 9.6 2.7 12.8 1-3.1.9-7 .4-11.3-1.7z" transform="matrix(.1 0 0 .1 560 568)"/><path class="st4" d="M-5476.7-5400.4c0 4.1-3.3 5.8-7.5 3.7-4.1-2.1-7.5-7.1-7.5-11.2s3.3-5.8 7.5-3.7c4.2 2 7.5 7 7.5 11.2z" transform="matrix(.1 0 0 .1 560 568)"/><path class="st3" d="M-5476.7-5400.4c0 4.1-3.3 5.8-7.5 3.7-4.1-2.1-7.5-7.1-7.5-11.2s3.3-5.8 7.5-3.7c4.2 2 7.5 7 7.5 11.2z" transform="matrix(.1 0 0 .1 560 568)"/><path class="st4" d="M-5478.2-5399.7c0 4.1-3.3 5.8-7.5 3.7-4.1-2.1-7.5-7.1-7.5-11.2s3.3-5.8 7.5-3.7c4.2 2 7.5 7 7.5 11.2z" transform="matrix(.1 0 0 .1 560 568)"/><path class="st2" d="M-5457.6-5389.4c0 15.5-12.5 21.7-28 14-15.5-7.7-28-26.5-28-42s12.5-21.7 28-14c15.4 7.8 28 26.6 28 42z" transform="matrix(.1 0 0 .1 560 568)"/><path class="st4" d="M-5491-5428.9c-7.5-3.7-14.2-4.2-19.2-1.9l-14 7c-5.4 2.4-8.8 7.9-8.8 15.9 0 15.5 12.5 34.3 28 42 7.6 3.8 14.6 4.2 19.6 1.8 0 0 13.9-6.9 15.1-7.6 4.5-2.7 7.3-7.9 7.3-15.2 0-15.5-12.5-34.3-28-42z" transform="matrix(.1 0 0 .1 560 568)"/><path class="st3" d="M-5485.1-5364.3c2-1 13.7-6.8 14.8-7.5 4.5-2.7 7.3-7.9 7.3-15.2 0-6.2-2.1-13-5.5-19.3l-14 7c3.4 6.4 5.5 13.1 5.5 19.3 0 7.7-3.1 13.1-8.1 15.7z" transform="matrix(.1 0 0 .1 560 568)"/><path class="st5" d="M-5487.1-5385.2c0 9.9-8 13.9-17.9 8.9-9.9-4.9-17.9-17-17.9-26.8s8-13.9 17.9-8.9 17.9 17 17.9 26.8z" transform="matrix(.1 0 0 .1 560 568)"/><path class="st6" d="M-5503.5-5376.8c-9.9-4.9-17.9-17-17.9-26.8 0-4.9 1.9-8.3 5.1-9.9-4 1.3-6.6 5-6.6 10.6 0 9.9 8 21.9 17.9 26.8 5 2.5 9.6 2.7 12.8 1-3.1.9-7 .4-11.3-1.7z" transform="matrix(.1 0 0 .1 560 568)"/><path class="st4" d="M-5496.1-5391c0 4.1-3.3 5.8-7.5 3.7-4.1-2.1-7.5-7.1-7.5-11.2s3.3-5.8 7.5-3.7c4.2 2.1 7.5 7.1 7.5 11.2z" transform="matrix(.1 0 0 .1 560 568)"/><path class="st3" d="M-5496.1-5391c0 4.1-3.3 5.8-7.5 3.7-4.1-2.1-7.5-7.1-7.5-11.2s3.3-5.8 7.5-3.7c4.2 2.1 7.5 7.1 7.5 11.2z" transform="matrix(.1 0 0 .1 560 568)"/><path class="st4" d="M-5497.5-5390.3c0 4.1-3.3 5.8-7.5 3.7-4.1-2.1-7.5-7.1-7.5-11.2s3.3-5.8 7.5-3.7c4.1 2.1 7.5 7.1 7.5 11.2z" transform="matrix(.1 0 0 .1 560 568)"/><path class="st2" d="M-5477-5379.9c0 15.5-12.5 21.7-28 14-15.5-7.7-28-26.5-28-42s12.5-21.7 28-14c15.5 7.7 28 26.5 28 42z" transform="matrix(.1 0 0 .1 560 568)"/><path class="st4" d="M-5526-5431l36-18 36 18-36 18z" transform="matrix(.1 0 0 .1 560 568)"/><path class="st4" d="M-5476-5388l36-18-14-25-36 18z" transform="matrix(.1 0 0 .1 560 568)"/><path class="st3" d="M-5476-5388l36-18-14-25-36 18z" transform="matrix(.1 0 0 .1 560 568)"/><path class="st4" d="M-5467-5400.6l36-18-12 20-36 18z" transform="matrix(.1 0 0 .1 560 568)"/><path class="st3" d="M-5467-5400.6l36-18-12 20-36 18z" transform="matrix(.1 0 0 .1 560 568)"/><path class="st4" d="M-5412.6-5408c-7.5-3.7-14.2-4.2-19.2-1.9l-14 7c-5.4 2.4-8.8 7.9-8.8 15.9 0 15.5 12.5 34.3 28 42 7.6 3.8 14.6 4.2 19.6 1.8 0 0 13.9-6.9 15.1-7.6 4.5-2.7 7.3-7.9 7.3-15.2 0-15.4-12.6-34.2-28-42z" transform="matrix(.1 0 0 .1 560 568)"/><path class="st3" d="M-5406.7-5343.4c2-1 13.7-6.8 14.8-7.5 4.5-2.7 7.3-7.9 7.3-15.2 0-6.2-2.1-13-5.5-19.3l-14 7c3.4 6.4 5.5 13.1 5.5 19.3 0 7.8-3.1 13.2-8.1 15.7z" transform="matrix(.1 0 0 .1 560 568)"/><path class="st5" d="M-5408.7-5364.2c0 9.9-8 13.9-17.9 8.9-9.9-4.9-17.9-17-17.9-26.8s8-13.9 17.9-8.9c9.8 4.9 17.9 16.9 17.9 26.8z" transform="matrix(.1 0 0 .1 560 568)"/><path class="st6" d="M-5425.1-5355.9c-9.9-4.9-17.9-17-17.9-26.8 0-4.9 1.9-8.3 5.1-9.9-4 1.3-6.6 5-6.6 10.6 0 9.9 8 21.9 17.9 26.8 5 2.5 9.6 2.7 12.8 1-3.1.9-7 .4-11.3-1.7z" transform="matrix(.1 0 0 .1 560 568)"/><path class="st4" d="M-5417.7-5370c0 4.1-3.3 5.8-7.5 3.7-4.1-2.1-7.5-7.1-7.5-11.2s3.3-5.8 7.5-3.7c4.2 2 7.5 7 7.5 11.2z" transform="matrix(.1 0 0 .1 560 568)"/><path class="st3" d="M-5417.7-5370c0 4.1-3.3 5.8-7.5 3.7-4.1-2.1-7.5-7.1-7.5-11.2s3.3-5.8 7.5-3.7c4.2 2 7.5 7 7.5 11.2z" transform="matrix(.1 0 0 .1 560 568)"/><path class="st4" d="M-5419.2-5369.3c0 4.1-3.3 5.8-7.5 3.7-4.2-2.1-7.5-7.1-7.5-11.2s3.3-5.8 7.5-3.7c4.2 2 7.5 7 7.5 11.2z" transform="matrix(.1 0 0 .1 560 568)"/><path class="st2" d="M-5398.6-5359c0 15.5-12.5 21.7-28 14s-28-26.5-28-42 12.5-21.7 28-14c15.4 7.8 28 26.6 28 42z" transform="matrix(.1 0 0 .1 560 568)"/><path class="st4" d="M-5432-5398.5c-7.5-3.7-14.2-4.2-19.2-1.9l-14 7c-5.4 2.4-8.8 7.9-8.8 15.9 0 15.5 12.5 34.3 28 42 7.6 3.8 14.6 4.2 19.6 1.8 0 0 13.9-6.9 15.1-7.6 4.5-2.7 7.3-7.9 7.3-15.2 0-15.5-12.5-34.3-28-42z" transform="matrix(.1 0 0 .1 560 568)"/><path class="st3" d="M-5426.1-5333.9c2-1 13.7-6.8 14.8-7.5 4.5-2.7 7.3-7.9 7.3-15.2 0-6.2-2.1-13-5.5-19.3l-14 7c3.4 6.4 5.5 13.1 5.5 19.3 0 7.7-3.1 13.1-8.1 15.7z" transform="matrix(.1 0 0 .1 560 568)"/><path class="st5" d="M-5428.1-5354.7c0 9.9-8 13.9-17.9 8.9s-17.9-17-17.9-26.8c0-9.9 8-13.9 17.9-8.9 9.9 4.9 17.9 16.9 17.9 26.8z" transform="matrix(.1 0 0 .1 560 568)"/><path class="st6" d="M-5444.5-5346.4c-9.9-4.9-17.9-17-17.9-26.8 0-4.9 1.9-8.3 5.1-9.9-4 1.3-6.6 5-6.6 10.6 0 9.9 8 21.9 17.9 26.8 5 2.5 9.6 2.7 12.8 1-3.1.9-7 .4-11.3-1.7z" transform="matrix(.1 0 0 .1 560 568)"/><path class="st4" d="M-5437.1-5360.6c0 4.1-3.3 5.8-7.5 3.7-4.1-2.1-7.5-7.1-7.5-11.2s3.3-5.8 7.5-3.7c4.2 2.1 7.5 7.1 7.5 11.2z" transform="matrix(.1 0 0 .1 560 568)"/><path class="st3" d="M-5437.1-5360.6c0 4.1-3.3 5.8-7.5 3.7-4.1-2.1-7.5-7.1-7.5-11.2s3.3-5.8 7.5-3.7c4.2 2.1 7.5 7.1 7.5 11.2z" transform="matrix(.1 0 0 .1 560 568)"/><path class="st4" d="M-5438.5-5359.9c0 4.1-3.3 5.8-7.5 3.7-4.1-2.1-7.5-7.1-7.5-11.2s3.3-5.8 7.5-3.7c4.1 2.1 7.5 7.1 7.5 11.2z" transform="matrix(.1 0 0 .1 560 568)"/><path class="st2" d="M-5418-5349.5c0 15.5-12.5 21.7-28 14s-28-26.5-28-42 12.5-21.7 28-14 28 26.5 28 42z" transform="matrix(.1 0 0 .1 560 568)"/><path class="st4" d="M-5467-5400.6l36-18 36 18-36 18z" transform="matrix(.1 0 0 .1 560 568)"/><path class="st4" d="M-5417-5357.6l36-18-14-25-36 18z" transform="matrix(.1 0 0 .1 560 568)"/><path class="st3" d="M-5417-5357.6l36-18-14-25-36 18z" transform="matrix(.1 0 0 .1 560 568)"/><path class="st4" d="M-5408-5371l36-18-12 20-36 18z" transform="matrix(.1 0 0 .1 560 568)"/><path class="st3" d="M-5408-5371l36-18-12 20-36 18z" transform="matrix(.1 0 0 .1 560 568)"/><path class="st4" d="M-5353.6-5378.4c-7.5-3.7-14.2-4.2-19.2-1.9l-14 7c-5.4 2.4-8.8 7.9-8.8 15.9 0 15.5 12.5 34.3 28 42 7.6 3.8 14.6 4.2 19.6 1.8 0 0 13.9-6.9 15.1-7.6 4.5-2.7 7.3-7.9 7.3-15.2 0-15.4-12.6-34.2-28-42z" transform="matrix(.1 0 0 .1 560 568)"/><path class="st3" d="M-5347.7-5313.8c2-1 13.7-6.8 14.8-7.5 4.5-2.7 7.3-7.9 7.3-15.2 0-6.2-2.1-13-5.5-19.3l-14 7c3.4 6.4 5.5 13.1 5.5 19.3 0 7.8-3.1 13.2-8.1 15.7z" transform="matrix(.1 0 0 .1 560 568)"/><path class="st5" d="M-5349.7-5334.6c0 9.9-8 13.9-17.9 8.9-9.9-4.9-17.9-17-17.9-26.8s8-13.9 17.9-8.9c9.8 4.9 17.9 16.9 17.9 26.8z" transform="matrix(.1 0 0 .1 560 568)"/><path class="st6" d="M-5366.1-5326.3c-9.9-4.9-17.9-17-17.9-26.8 0-4.9 1.9-8.3 5.1-9.9-4 1.3-6.6 5-6.6 10.6 0 9.9 8 21.9 17.9 26.8 5 2.5 9.6 2.7 12.8 1-3.1.9-7 .4-11.3-1.7z" transform="matrix(.1 0 0 .1 560 568)"/><path class="st4" d="M-5358.7-5340.4c0 4.1-3.3 5.8-7.5 3.7-4.1-2.1-7.5-7.1-7.5-11.2s3.3-5.8 7.5-3.7c4.2 2 7.5 7 7.5 11.2z" transform="matrix(.1 0 0 .1 560 568)"/><path class="st3" d="M-5358.7-5340.4c0 4.1-3.3 5.8-7.5 3.7-4.1-2.1-7.5-7.1-7.5-11.2s3.3-5.8 7.5-3.7c4.2 2 7.5 7 7.5 11.2z" transform="matrix(.1 0 0 .1 560 568)"/><path class="st4" d="M-5360.2-5339.7c0 4.1-3.3 5.8-7.5 3.7-4.1-2.1-7.5-7.1-7.5-11.2s3.3-5.8 7.5-3.7c4.2 2 7.5 7 7.5 11.2z" transform="matrix(.1 0 0 .1 560 568)"/><path class="st2" d="M-5339.6-5329.4c0 15.5-12.5 21.7-28 14-15.5-7.7-28-26.5-28-42s12.5-21.7 28-14c15.4 7.8 28 26.6 28 42z" transform="matrix(.1 0 0 .1 560 568)"/><path class="st4" d="M-5373-5368.9c-7.5-3.7-14.2-4.2-19.2-1.9l-14 7c-5.4 2.4-8.8 7.9-8.8 15.9 0 15.5 12.5 34.3 28 42 7.6 3.8 14.6 4.2 19.6 1.8 0 0 13.9-6.9 15.1-7.6 4.5-2.7 7.3-7.9 7.3-15.2 0-15.5-12.5-34.3-28-42z" transform="matrix(.1 0 0 .1 560 568)"/><path class="st3" d="M-5367.1-5304.3c2-1 13.7-6.8 14.8-7.5 4.5-2.7 7.3-7.9 7.3-15.2 0-6.2-2.1-13-5.5-19.3l-14 7c3.4 6.4 5.5 13.1 5.5 19.3 0 7.7-3.1 13.1-8.1 15.7z" transform="matrix(.1 0 0 .1 560 568)"/><path class="st5" d="M-5369.1-5325.2c0 9.9-8 13.9-17.9 8.9-9.9-4.9-17.9-17-17.9-26.8s8-13.9 17.9-8.9 17.9 17 17.9 26.8z" transform="matrix(.1 0 0 .1 560 568)"/><path class="st6" d="M-5385.5-5316.8c-9.9-4.9-17.9-17-17.9-26.8 0-4.9 1.9-8.3 5.1-9.9-4 1.3-6.6 5-6.6 10.6 0 9.9 8 21.9 17.9 26.8 5 2.5 9.6 2.7 12.8 1-3.1.9-7 .4-11.3-1.7z" transform="matrix(.1 0 0 .1 560 568)"/><path class="st4" d="M-5378.1-5331c0 4.1-3.3 5.8-7.5 3.7-4.1-2.1-7.5-7.1-7.5-11.2s3.3-5.8 7.5-3.7c4.2 2.1 7.5 7.1 7.5 11.2z" transform="matrix(.1 0 0 .1 560 568)"/><path class="st3" d="M-5378.1-5331c0 4.1-3.3 5.8-7.5 3.7-4.1-2.1-7.5-7.1-7.5-11.2s3.3-5.8 7.5-3.7c4.2 2.1 7.5 7.1 7.5 11.2z" transform="matrix(.1 0 0 .1 560 568)"/><path class="st4" d="M-5379.5-5330.3c0 4.1-3.3 5.8-7.5 3.7-4.1-2.1-7.5-7.1-7.5-11.2s3.3-5.8 7.5-3.7c4.1 2.1 7.5 7.1 7.5 11.2z" transform="matrix(.1 0 0 .1 560 568)"/><path class="st2" d="M-5359-5319.9c0 15.5-12.5 21.7-28 14-15.5-7.7-28-26.5-28-42s12.5-21.7 28-14c15.5 7.7 28 26.5 28 42z" transform="matrix(.1 0 0 .1 560 568)"/><path class="st4" d="M-5408-5371l36-18 36 18-36 18z" transform="matrix(.1 0 0 .1 560 568)"/><path class="st4" d="M-5358-5328l36-18-14-25-36 18z" transform="matrix(.1 0 0 .1 560 568)"/><path class="st3" d="M-5358-5328l36-18-14-25-36 18z" transform="matrix(.1 0 0 .1 560 568)"/><path class="st4" d="M-5460-5530l-140 70v10l42 21h20l140-70z" transform="matrix(.1 0 0 .1 560 568)"/><path class="st2" d="M-5600-5460v10l42 21h20z" transform="matrix(.1 0 0 .1 560 568)"/><path class="st4" d="M-5212-5406l-140 70 20 20 184 92h20l140-70z" transform="matrix(.1 0 0 .1 560 568)"/><path class="st2" d="M-5352-5336l20 20 184 92h20z" transform="matrix(.1 0 0 .1 560 568)"/><path class="st4" d="M-5460-5540l-140 70v10l620 310 140-70v-10z" transform="matrix(.1 0 0 .1 560 568)"/><path class="st2" d="M-5600-5470v10l620 310v-10z" transform="matrix(.1 0 0 .1 560 568)"/><path class="st6" d="M-5480-5530l-8 4 620 310 8-4zm-92 46l-8 4 620 310 8-4z" transform="matrix(.1 0 0 .1 560 568)"/><path class="st3" d="M-4840-5230v10l-140 70v-10z" transform="matrix(.1 0 0 .1 560 568)"/><path class="st4" d="M-4868-5216l-84 42v9.9l64 32.1 84-42v-10z" transform="matrix(.1 0 0 .1 560 568)"/><path class="st2" d="M-4952-5174v10l64 32v-10z" transform="matrix(.1 0 0 .1 560 568)"/><path class="st3" d="M-4804-5184v10l-84 42v-10z" transform="matrix(.1 0 0 .1 560 568)"/><path class="st7" d="M-5460-5680l-140 70v150l620 310 140-70v-150z" transform="matrix(.1 0 0 .1 560 568)"/><path class="st2" d="M-5600-5610v150l620 310v-150z" transform="matrix(.1 0 0 .1 560 568)"/><path class="st3" d="M-4840-5370v150l-140 70v-150z" transform="matrix(.1 0 0 .1 560 568)"/><path class="st6" d="M-4860-5230l-40 20v-110l40-20zm-60 30l-40 20v-110l40-20zm-650-375l-10-5v110l10 5zm20 10l-10-5v110l10 5zm20 10l-10-5v110l10 5zm20 10l-10-5v110l10 5zm20 10l-10-5v110l10 5zm20 10l-10-5v110l10 5zm20 10l-10-5v110l10 5zm20 10l-10-5v110l10 5zm20 10l-10-5v110l10 5zm20 10l-10-5v110l10 5zm20 10l-10-5v110l10 5zm20 10l-10-5v110l10 5zm20 10l-10-5v110l10 5zm20 10l-10-5v110l10 5zm20 10l-10-5v110l10 5zm20 10l-10-5v110l10 5zm20 10l-10-5v110l10 5zm20 10l-10-5v110l10 5zm20 10l-10-5v110l10 5zm20 10l-10-5v110l10 5zm20 10l-10-5v110l10 5zm20 10l-10-5v110l10 5zm20 10l-10-5v110l10 5zm20 10l-10-5v110l10 5zm20 10l-10-5v110l10 5zm20 10l-10-5v110l10 5zm20 10l-10-5v110l10 5zm20 10l-10-5v110l10 5zm20 10l-10-5v110l10 5zm20 10l-10-5v110l10 5z" transform="matrix(.1 0 0 .1 560 568)"/><path class="st4" d="M-4679-5216.6h-1v-30.7c0-1.1-.6-2.1-1.5-2.7s-2.1-.6-3-.1l-2.3 1.1-.4-.9 2.3-1.1c1.3-.6 2.8-.6 4 .2 1.2.8 2 2.1 2 3.5v30.7h-.1z" transform="matrix(.1 0 0 .1 560 568)"/><path class="st4" d="M-4685.3-5241v20.9c0 1.9 2.1 3 3.6 1.9l.5-.4c2.5-1.8 4-4.7 4-7.7v-21c0-1.9-2.2-3-3.7-1.8l-.8.6c-2.2 1.8-3.6 4.6-3.6 7.5zm-182.7 125.3c-7.5-3.7-14.2-4.2-19.2-1.9l-14 7c-5.4 2.4-8.8 7.9-8.8 15.9 0 15.5 12.5 34.3 28 42 7.6 3.8 14.6 4.2 19.6 1.8 0 0 13.9-6.9 15.1-7.6 4.5-2.7 7.3-7.9 7.3-15.2 0-15.5-12.5-34.3-28-42z" transform="matrix(.1 0 0 .1 560 568)"/><path class="st3" d="M-4862.1-5051.1c2-1 13.7-6.8 14.8-7.5 4.5-2.7 7.3-7.9 7.3-15.2 0-6.2-2.1-13-5.5-19.3l-14 7c3.4 6.4 5.5 13.1 5.5 19.3 0 7.8-3.1 13.1-8.1 15.7z" transform="matrix(.1 0 0 .1 560 568)"/><path class="st5" d="M-4864.1-5071.9c0 9.9-8 13.9-17.9 8.9-9.9-4.9-17.9-17-17.9-26.8s8-13.9 17.9-8.9 17.9 16.9 17.9 26.8z" transform="matrix(.1 0 0 .1 560 568)"/><path class="st6" d="M-4880.5-5063.6c-9.9-4.9-17.9-17-17.9-26.8 0-4.9 1.9-8.3 5.1-9.9-4 1.3-6.6 5-6.6 10.6 0 9.9 8 21.9 17.9 26.8 5 2.5 9.6 2.7 12.8 1-3.1.9-7 .4-11.3-1.7z" transform="matrix(.1 0 0 .1 560 568)"/><path class="st4" d="M-4873.1-5077.8c0 4.1-3.3 5.8-7.5 3.7-4.1-2.1-7.5-7.1-7.5-11.2s3.3-5.8 7.5-3.7c4.2 2.1 7.5 7.1 7.5 11.2z" transform="matrix(.1 0 0 .1 560 568)"/><path class="st3" d="M-4873.1-5077.8c0 4.1-3.3 5.8-7.5 3.7-4.1-2.1-7.5-7.1-7.5-11.2s3.3-5.8 7.5-3.7c4.2 2.1 7.5 7.1 7.5 11.2z" transform="matrix(.1 0 0 .1 560 568)"/><path class="st4" d="M-4874.5-5077.1c0 4.1-3.3 5.8-7.5 3.7-4.1-2.1-7.5-7.1-7.5-11.2s3.3-5.8 7.5-3.7c4.1 2.1 7.5 7.1 7.5 11.2z" transform="matrix(.1 0 0 .1 560 568)"/><path class="st2" d="M-4854-5066.7c0 15.5-12.5 21.7-28 14-15.5-7.7-28-26.5-28-42s12.5-21.7 28-14c15.5 7.7 28 26.5 28 42z" transform="matrix(.1 0 0 .1 560 568)"/><path class="st1" d="M-4674-5157l-126-63-140 70v15l18 9s38.4 18.8 41 20c8.6 4.1 16.1 7.8 23.6 16.9 8.6 10.5 12.8 26.5 12.5 36.6l30.9 15.5 140-70v-50z" transform="matrix(.1 0 0 .1 560 568)"/><path class="st6" d="M-4786.5-5199.1l86-43c1.9-1 4.2 0 4.9 2l14.7 44.1-105.6-3.1z" transform="matrix(.1 0 0 .1 560 568)"/><path class="st1" d="M-4800-5322.7l-140 70v100.7l126 63 140-70v-15c0-23.7-3.2-47.3-9.5-70.1l-6.5-23.6-110-55z" transform="matrix(.1 0 0 .1 560 568)"/><path class="st8" d="M-4808.4-5136.7c-1.5 0-2.7-1.1-2.9-2.5-1.6-12.2-4.1-24.4-7.3-36.2l-4.8-17.3c-.4-1.3.3-2.8 1.5-3.4l125.6-62.8c.4-.2.8-.3 1.3-.3 1.3 0 2.5.9 2.8 2.1l3.9 14.3c3.6 13.2 6.2 26.8 7.7 40.4.1 1.2-.5 2.4-1.6 2.9l-125 62.5c-.3.2-.8.3-1.2.3z" transform="matrix(.1 0 0 .1 560 568)"/><path class="st4" d="M-4695.1-5258.2c.9 0 1.6.6 1.9 1.4l3.9 14.3c3.6 13.1 6.2 26.7 7.7 40.2.1.8-.3 1.6-1.1 1.9l-125 62.5c-.3.1-.6.2-.9.2-.8 0-1.8-.6-1.9-1.7-1.6-12.3-4.1-24.5-7.4-36.3l-4.8-17.3c-.2-.9.2-1.8 1-2.2l125.8-62.8c.2-.2.5-.2.8-.2m0-2c-.6 0-1.2.1-1.7.4l-125.6 62.8c-1.7.8-2.5 2.7-2 4.5l4.8 17.3c3.3 11.9 5.7 23.9 7.3 36.1.3 2 2 3.4 3.9 3.4.6 0 1.2-.1 1.7-.4l125-62.5c1.5-.7 2.3-2.3 2.2-3.9-1.5-13.7-4.1-27.2-7.8-40.5l-3.9-14.3c-.6-1.8-2.2-2.9-3.9-2.9z" transform="matrix(.1 0 0 .1 560 568)"/><path class="st4" d="M-4679.6-5202.5c-.5-4.3-.8-6.2-.4-2.8.2 1.6-.7 3.2-2.2 3.9l-125 62.5c-2.2 1.1-4.8-.1-5.5-2.3l.3 2.1c.4 2.7 3.2 4.2 5.6 3l125-62.5c1.5-.7 2.4-2.3 2.2-3.9z" transform="matrix(.1 0 0 .1 560 568)"/><path class="st8" d="M-4823.7-5137.5c-.3 0-.7-.1-1-.2l-20.2-10.1c-2.5-1.3-4.1-3.8-4.1-6.7 0-4.4-2.4-8.4-6.4-10.3l-31.2-15.6c-.7-.4-1.2-1.1-1.2-1.9v-35.1c0-1.3 1.1-2.2 2.2-2.2.3 0 .7.1 1 .2l45.9 23c2.8 1.4 4.9 4 5.8 7l4.6 16.6c3 10.7 5.2 21.8 6.8 32.8.1.6-.1 1.3-.5 1.7-.4.5-1 .8-1.7.8z" transform="matrix(.1 0 0 .1 560 568)"/><path class="st4" d="M-4885.6-5218.6c.2 0 .4 0 .5.1l45.9 23c2.6 1.3 4.5 3.6 5.3 6.4l4.6 16.6c2.9 10.7 5.2 21.7 6.8 32.7.1.4-.1.8-.3.9-.2.3-.6.4-.9.4-.2 0-.4 0-.5-.1l-20.2-10.1c-2.2-1.1-3.6-3.3-3.6-5.8 0-4.8-2.7-9.1-6.9-11.2l-31.2-15.6c-.4-.2-.7-.6-.7-1.1v-35.1c0-.7.7-1.1 1.2-1.1m0-2c-1.7 0-3.2 1.3-3.2 3.2v35.1c0 1.2.7 2.3 1.8 2.8l31.2 15.6c3.6 1.8 5.8 5.4 5.8 9.4 0 3.2 1.8 6.1 4.7 7.5l20.2 10.1c.5.2 1 .3 1.4.3 1.8 0 3.4-1.6 3.2-3.6-1.6-11.1-3.8-22.1-6.8-32.9l-4.6-16.6c-.9-3.3-3.2-6.1-6.3-7.7l-45.9-23c-.5-.1-1-.2-1.5-.2z" transform="matrix(.1 0 0 .1 560 568)"/><path class="st9" d="M-4774.5-5191c35 0 67.6-4.8 94.7-13.1-1.5-13.1-4.1-26.1-7.6-38.9l-3.9-14.3c-.7-2.4-3.3-3.6-5.5-2.5l-125.6 62.8c-1.1.5-1.8 1.5-2.1 2.6 15.9 2.2 32.6 3.4 50 3.4z" transform="matrix(.1 0 0 .1 560 568)"/><path class="st4" d="M-4691.2-5247.4c1-.5 1.7-1.4 2-2.4l-2.1-7.6c-.7-2.4-3.3-3.6-5.5-2.5l-125.6 62.9c-1.7.8-2.5 2.7-2 4.5l2.3 8.4c1.1.7 2.6.9 3.9.2l127-63.5z" transform="matrix(.1 0 0 .1 560 568)"/><path class="st2" d="M-4940-5150v15l18 9s38.4 18.8 41 20c8.6 4.1 16.1 7.8 23.6 16.9 8.6 10.5 12.8 26.5 12.5 36.6l30.9 15.5v-50l-126-63z" transform="matrix(.1 0 0 .1 560 568)"/><path class="st10" d="M-4889-5171.5v5l10 5v-5z" transform="matrix(.1 0 0 .1 560 568)"/><path class="st11" d="M-4879-5159l-10-5v-2.5l10 5z" transform="matrix(.1 0 0 .1 560 568)"/><path class="st4" d="M-4741-5197.5c-.8-.7-1.9-.6-2.6.2l-34.2 38.9c-.7.8-.6 1.9.2 2.6.8.7 1.9.6 2.6-.2l9.2-10.5v9h2.3v-11.5h-.1l22.9-26c.5-.7.4-1.8-.3-2.5zm32.9-18c-.8-.7-1.9-.6-2.6.2l-34.2 38.9c-.7.8-.6 1.9.2 2.6.8.7 1.9.6 2.6-.2l8.2-9.3v9.9h2.3v-12.6l23.8-27c.5-.7.4-1.9-.3-2.5z" transform="matrix(.1 0 0 .1 560 568)"/><g transform="matrix(.1 0 0 .1 560 568)"><path opacity=".2" fill="none" stroke="#000" stroke-width=".849" stroke-miterlimit="10" d="M-4674-5189l-6.8 3.4-35.2 88-56 28-35.2-52.8-6.8 3.4"/><path class="st4" d="M-4698.9-5151.5l10-25.1-110.2 55.1 10 15.1zm-75.7 66.8l5.7 8.6 49.8-24.9 5.7-14.3zm64.7-39.3l5.5-13.8-79.2 39.6 5.5 8.3zm7.7 3.1l-5.5 13.8 33.7-16.9v-11z"/><path class="st9" d="M-4674-5164v-20l-3.7 1.8-10 25.1z"/><path class="st13" d="M-4674-5142v-11l-19.2 9.6-5.5 13.8z"/><path class="st9" d="M-4800.3-5100.8l-10-15.1-3.7 1.9v20z"/><path class="st4" d="M-4814-5065v11l33.7-16.8-5.5-8.3z"/><path class="st13" d="M-4789.3-5084.3l-5.5-8.3-19.2 9.6v11zm96.3-32.2l17-8.5v-7l-17 8.5zm-67 49.5l36-18v-7l-36 18zm-52 10l17-8.5v-7l-17 8.5z"/><ellipse transform="rotate(-50.856 -4798.594 -5066.389)" class="st10" cx="-4798.8" cy="-5066.6" rx="2.6" ry="1.7"/><ellipse transform="rotate(-50.856 -4801.01 -5066.382)" class="st10" cx="-4801.2" cy="-5066.6" rx="2.6" ry="1.7"/><ellipse transform="rotate(-50.856 -4797.4 -5084.193)" class="st10" cx="-4797.6" cy="-5084.4" rx="4.4" ry="2.9"/><ellipse transform="rotate(-50.856 -4801.46 -5084.212)" class="st10" cx="-4801.7" cy="-5084.5" rx="4.4" ry="2.9"/><ellipse transform="rotate(-50.856 -4690.405 -5138.185)" class="st10" cx="-4690.6" cy="-5138.4" rx="4.4" ry="2.9"/><ellipse transform="rotate(-50.856 -4686.465 -5142.203)" class="st10" cx="-4686.7" cy="-5142.4" rx="4.4" ry="2.9"/><ellipse transform="rotate(-50.856 -4806.594 -5062.39)" class="st10" cx="-4806.8" cy="-5062.6" rx="2.6" ry="1.7"/><ellipse transform="rotate(-50.856 -4809.008 -5062.383)" class="st10" cx="-4809.2" cy="-5062.6" rx="2.6" ry="1.7"/><ellipse transform="rotate(-50.856 -4678.6 -5126.38)" class="st10" cx="-4678.8" cy="-5126.6" rx="2.6" ry="1.7"/><ellipse transform="rotate(-50.856 -4681.015 -5126.373)" class="st10" cx="-4681.2" cy="-5126.6" rx="2.6" ry="1.7"/><ellipse transform="rotate(-50.856 -4686.6 -5122.38)" class="st10" cx="-4686.8" cy="-5122.6" rx="2.6" ry="1.7"/><ellipse transform="rotate(-50.856 -4689.015 -5122.373)" class="st10" cx="-4689.2" cy="-5122.6" rx="2.6" ry="1.7"/><path class="st7" d="M-4813-5074l6-3v-5l-6 3zm132-66l6-3v-5l-6 3z"/></g><path class="st1" d="M-4800-5359l-140 70v36l84 42 140-70c0-11.5-22.9-31.4-31.4-39l-52.6-39z" transform="matrix(.1 0 0 .1 560 568)"/><path class="st2" d="M-4940-5289v36l84 42c0-11.5-22.9-31.4-31.4-39l-52.6-39z" transform="matrix(.1 0 0 .1 560 568)"/><path class="st4" d="M-4833-5139c-1.1 0-2.2-.3-3.1-.9-1.8-1.1-2.8-3-2.8-5.1v-32.3c0-2.3 1.3-4.3 3.3-5.3l3.7-1.8.4.9-3.7 1.8c-1.7.8-2.7 2.5-2.7 4.4v32.3c0 1.7.9 3.3 2.4 4.2 1.5.9 3.3 1 4.8.2l.6-.3.4.9-.6.3c-.9.4-1.8.7-2.7.7z" transform="matrix(.1 0 0 .1 560 568)"/><path class="st4" d="M-4838.7-5178.1l.7-.3c2.4-.8 4.9 1 4.9 3.5v21.4c0 3.1-1.9 6-4.9 7.1l-.9.3c-2.4.9-5.1-.9-5.1-3.5v-21.4c.2-3.2 2.2-6.1 5.3-7.1z" transform="matrix(.1 0 0 .1 560 568)"/><path class="st10" d="M-4922-5143l2 1v-100.7l-2-1z" transform="matrix(.1 0 0 .1 560 568)"/><path class="st11" d="M-4924-5144l2 1v-100.7l-2-1z" transform="matrix(.1 0 0 .1 560 568)"/><path class="st3" d="M-4814-5037l140-70v-50l-140 70zm124-230.7l-140 70 6.5 23.6c6.3 22.8 9.5 46.4 9.5 70.1v15l140-70v-15c0-23.7-3.2-47.3-9.5-70.1l-6.5-23.6z" transform="matrix(.1 0 0 .1 560 568)"/><path class="st2" d="M-4830-5197.7l-110-55v100.7l126 63v-15c0-23.7-3.2-47.3-9.5-70.1l-6.5-23.6z" transform="matrix(.1 0 0 .1 560 568)"/><path class="st10" d="M-4832-5046l-2-1v-50l2 1z" transform="matrix(.1 0 0 .1 560 568)"/><path class="st11" d="M-4830-5045l-2-1v-50l2 1z" transform="matrix(.1 0 0 .1 560 568)"/></g></svg>