<svg xmlns="http://www.w3.org/2000/svg" width="128" height="96"><style>.st0{fill:#999}.st2{opacity:.15;enable-background:new}.st3{fill:#9c3}.st4{fill:#06547a}.st5,.st6{opacity:.2;fill:#fff;enable-background:new}.st6{opacity:.7}.st7{fill:#28896d}.st8,.st9{opacity:.39;enable-background:new}.st9{opacity:6.000000e-02}.st11{fill:#656565}</style><g id="i1513_1_"><path class="st0" d="M1496-704l-64-32 64-32 64 32z" transform="matrix(-1 0 0 1 1560 800)"/><path fill="#e5e5e5" d="M1496-800l-64 32v6l2 1v24l62 31 62-31v-24l2-1v-6z" transform="matrix(-1 0 0 1 1560 800)"/><path class="st2" d="M1496-729.3l-62-30.9v-.8l62 31z" transform="matrix(-1 0 0 1 1560 800)"/><path class="st3" d="M1496-730l-64-32v-6l64 32z" transform="matrix(-1 0 0 1 1560 800)"/><path class="st4" d="M1454-732.5l-17-8.5v-13l17 8.5z" transform="matrix(-1 0 0 1 1560 800)"/><path class="st2" d="M1454-742.5l-17-8.5v-3l17 8.5z" transform="matrix(-1 0 0 1 1560 800)"/><path class="st2" d="M1454-743.5l-17-8.5v-2l17 8.5z" transform="matrix(-1 0 0 1 1560 800)"/><path class="st2" d="M1454-744.5l-17-8.5v-1l17 8.5z" transform="matrix(-1 0 0 1 1560 800)"/><path class="st4" d="M1473-717.5l-15-7.5v-18.5l15 7.5z" transform="matrix(-1 0 0 1 1560 800)"/><path class="st2" d="M1473-717.5l-15-26 15 7.5z" transform="matrix(-1 0 0 1 1560 800)"/><path class="st5" d="M1473-717.5l-15-7.5v-5.7z" transform="matrix(-1 0 0 1 1560 800)"/><path class="st2" d="M1473-733l-15-7.5v-3l15 7.5z" transform="matrix(-1 0 0 1 1560 800)"/><path class="st2" d="M1473-734l-15-7.5v-2l15 7.5z" transform="matrix(-1 0 0 1 1560 800)"/><path class="st2" d="M1473-735l-15-7.5v-1l15 7.5z" transform="matrix(-1 0 0 1 1560 800)"/><path class="st6" d="M1446-736.5l-1-.5v-13l1 .5z" transform="matrix(-1 0 0 1 1560 800)"/><path class="st4" d="M1494-712.5l-17-8.5v-13l17 8.5z" transform="matrix(-1 0 0 1 1560 800)"/><path class="st2" d="M1494-722.5l-17-8.5v-3l17 8.5z" transform="matrix(-1 0 0 1 1560 800)"/><path class="st2" d="M1494-723.5l-17-8.5v-2l17 8.5z" transform="matrix(-1 0 0 1 1560 800)"/><path class="st2" d="M1494-724.5l-17-8.5v-1l17 8.5z" transform="matrix(-1 0 0 1 1560 800)"/><path class="st6" d="M1486-716.5l-1-.5v-13l1 .5zm-20-4.5l-1-.5V-740l1 .5z" transform="matrix(-1 0 0 1 1560 800)"/><path class="st3" d="M1455-752v25.5l2 1V-745l17 8.5v19.5l2 1v-25.5z" transform="matrix(-1 0 0 1 1560 800)"/><path class="st7" d="M1458-745.5l-1-.5v-4l1 .5zm2 1l-1-.5v-4l1 .5zm2 1l-1-.5v-4l1 .5zm2 1l-1-.5v-4l1 .5zm2 1l-1-.5v-4l1 .5zm2 1l-1-.5v-4l1 .5zm2 1l-1-.5v-4l1 .5z" transform="matrix(-1 0 0 1 1560 800)"/><path class="st5" d="M1454-732.5l-17-8.5v-7z" transform="matrix(-1 0 0 1 1560 800)"/><path class="st7" d="M1472-738.5l-1-.5v-4l1 .5z" transform="matrix(-1 0 0 1 1560 800)"/><path class="st5" d="M1494-712.5l-17-8.5v-6.7z" transform="matrix(-1 0 0 1 1560 800)"/><path class="st7" d="M1474-737.5l-1-.5v-4l1 .5z" transform="matrix(-1 0 0 1 1560 800)"/><path class="st8" d="M1496-706l-62-31v-24l-2-1v-6l64 32z" transform="matrix(-1 0 0 1 1560 800)"/><path class="st2" d="M1558-760.2l-62 30.9v-.7l62-31z" transform="matrix(-1 0 0 1 1560 800)"/><path class="st3" d="M1560-762l-64 32v-6l64-32z" transform="matrix(-1 0 0 1 1560 800)"/><path class="st4" d="M1515-721l-17 8.5v-13l17-8.5z" transform="matrix(-1 0 0 1 1560 800)"/><path class="st2" d="M1515-731l-17 8.5v-3l17-8.5z" transform="matrix(-1 0 0 1 1560 800)"/><path class="st2" d="M1515-732l-17 8.5v-2l17-8.5z" transform="matrix(-1 0 0 1 1560 800)"/><path class="st2" d="M1515-733l-17 8.5v-1l17-8.5z" transform="matrix(-1 0 0 1 1560 800)"/><path class="st6" d="M1507-717l-1 .5v-13l1-.5z" transform="matrix(-1 0 0 1 1560 800)"/><path class="st4" d="M1555-741l-17 8.5v-13l17-8.5z" transform="matrix(-1 0 0 1 1560 800)"/><path class="st2" d="M1555-751l-17 8.5v-3l17-8.5z" transform="matrix(-1 0 0 1 1560 800)"/><path class="st2" d="M1555-741.3l-17-4.2 17-8.5z" transform="matrix(-1 0 0 1 1560 800)"/><path class="st2" d="M1555-752l-17 8.5v-2l17-8.5z" transform="matrix(-1 0 0 1 1560 800)"/><path class="st2" d="M1555-753l-17 8.5v-1l17-8.5z" transform="matrix(-1 0 0 1 1560 800)"/><path class="st6" d="M1547-737l-1 .5v-13l1-.5z" transform="matrix(-1 0 0 1 1560 800)"/><path class="st4" d="M1535-731l-17 8.5v-13l17-8.5z" transform="matrix(-1 0 0 1 1560 800)"/><path class="st2" d="M1515-728.2l-17 2.7 17-8.5zm20-7l-17-.3 17-8.5z" transform="matrix(-1 0 0 1 1560 800)"/><path class="st2" d="M1535-741l-17 8.5v-3l17-8.5z" transform="matrix(-1 0 0 1 1560 800)"/><path class="st2" d="M1535-742l-17 8.5v-2l17-8.5z" transform="matrix(-1 0 0 1 1560 800)"/><path class="st2" d="M1535-743l-17 8.5v-1l17-8.5z" transform="matrix(-1 0 0 1 1560 800)"/><path class="st6" d="M1527-727l-1 .5v-13l1-.5z" transform="matrix(-1 0 0 1 1560 800)"/><path class="st9" d="M1558-737l-62 31v-30l64-32v6l-2 1z" transform="matrix(-1 0 0 1 1560 800)"/><path opacity=".4" d="M1440.9-768l55.1-27.5 55.1 27.5-55.1 27.5z" transform="matrix(-1 0 0 1 1560 800)"/><path class="st9" d="M1496-793.5v-2l-55.1 27.5 2 1z" transform="matrix(-1 0 0 1 1560 800)"/><path class="st8" d="M1496-793.5l53.1 26.5 2-1-55.1-27.5z" transform="matrix(-1 0 0 1 1560 800)"/><path class="st0" d="M1498-791l-24 12v2l12 6 24-12v-2z" transform="matrix(-1 0 0 1 1560 800)"/><path class="st9" d="M1510-783l-24 12v-2l24-12z" transform="matrix(-1 0 0 1 1560 800)"/><path class="st8" d="M1474-777l12 6v-2l-12-6z" transform="matrix(-1 0 0 1 1560 800)"/><path class="st11" d="M1497-787c-2.8 0-5 1.1-5 2.5s2.2 2.5 5 2.5 5-1.1 5-2.5-2.2-2.5-5-2.5zm0 4c-1.7 0-3-.7-3-1.5s1.3-1.5 3-1.5 3 .7 3 1.5-1.3 1.5-3 1.5zm-10 1c-2.8 0-5 1.1-5 2.5s2.2 2.5 5 2.5 5-1.1 5-2.5-2.2-2.5-5-2.5zm0 4c-1.7 0-3-.7-3-1.5s1.3-1.5 3-1.5 3 .7 3 1.5-1.3 1.5-3 1.5z" transform="matrix(-1 0 0 1 1560 800)"/><path class="st0" d="M1516-782l-24 12v2l12 6 24-12v-2z" transform="matrix(-1 0 0 1 1560 800)"/><path class="st9" d="M1528-774l-24 12v-2l24-12z" transform="matrix(-1 0 0 1 1560 800)"/><path class="st8" d="M1492-768l12 6v-2l-12-6z" transform="matrix(-1 0 0 1 1560 800)"/><path class="st11" d="M1515-778c-2.8 0-5 1.1-5 2.5s2.2 2.5 5 2.5 5-1.1 5-2.5-2.2-2.5-5-2.5zm0 4c-1.7 0-3-.7-3-1.5s1.3-1.5 3-1.5 3 .7 3 1.5-1.3 1.5-3 1.5zm-10 1c-2.8 0-5 1.1-5 2.5s2.2 2.5 5 2.5 5-1.1 5-2.5-2.2-2.5-5-2.5zm0 4c-1.7 0-3-.7-3-1.5s1.3-1.5 3-1.5 3 .7 3 1.5-1.3 1.5-3 1.5z" transform="matrix(-1 0 0 1 1560 800)"/></g></svg>