<svg xmlns="http://www.w3.org/2000/svg" width="116" height="92"><style>.st0{fill:#e5e5e5}.st1{fill:#999}.st2,.st3{opacity:.39;enable-background:new}.st3{opacity:6.000000e-02}.st4{fill:#cc291f}.st5{fill:#262626}.st6{fill:#39c}.st7{fill:none;stroke:#262626;stroke-width:.5;stroke-linecap:round;stroke-miterlimit:10}</style><g id="i1512_1_"><path class="st0" d="M-1540-746l27 14 4-2-27-14zm32-16l27 14 4-2-27-14z" transform="translate(1544 824)"/><path class="st1" d="M-1489-770l-2 1v15l8 4v-15l2-1z" transform="translate(1544 824)"/><path class="st0" d="M-1481-780l-2-1v31l2 1 2-1v-31z" transform="translate(1544 824)"/><path class="st2" d="M-1479-750l-2 1v-31l2-1z" transform="translate(1544 824)"/><path class="st3" d="M-1483-750l2 1v-31l-2-1z" transform="translate(1544 824)"/><path class="st4" d="M-1490-763v8l6 3v-8z" transform="translate(1544 824)"/><path class="st5" d="M-1490-767v4l6 3v-4zm1 7v2l1 .5v-2z" transform="translate(1544 824)"/><path class="st6" d="M-1489-765v2l2 1v-2z" transform="translate(1544 824)"/><path class="st7" d="M-1489.7-764.8c0 1.2-.2 4.4-.8 6.7-.6 2.2-.7 3.6.6 3.8 1.7.3 1.3-3.1 1.3-3.9" transform="translate(1544 824)"/><path class="st0" d="M-1486.4-763.7v1l1.4.7v-1z" transform="translate(1544 824)"/><path class="st3" d="M-1483-750l-8-4v-15l8 4z" transform="translate(1544 824)"/><path class="st1" d="M-1521-754l-2 1v15l8 4v-15l2-1z" transform="translate(1544 824)"/><path class="st0" d="M-1513-764l-2-1v31l2 1 2-1v-31z" transform="translate(1544 824)"/><path class="st2" d="M-1511-734l-2 1v-31l2-1z" transform="translate(1544 824)"/><path class="st3" d="M-1515-734l2 1v-31l-2-1z" transform="translate(1544 824)"/><path class="st4" d="M-1522-747v8l6 3v-8z" transform="translate(1544 824)"/><path class="st5" d="M-1522-751v4l6 3v-4zm1 7v2l1 .5v-2z" transform="translate(1544 824)"/><path class="st6" d="M-1521-749v2l2 1v-2z" transform="translate(1544 824)"/><path class="st7" d="M-1521.7-748.8c0 1.2-.2 4.4-.8 6.7-.6 2.2-.7 3.6.6 3.8 1.7.3 1.3-3.1 1.3-3.9" transform="translate(1544 824)"/><path class="st0" d="M-1518.4-747.7v1l1.4.7v-1z" transform="translate(1544 824)"/><path class="st3" d="M-1515-734l-8-4v-15l8 4z" transform="translate(1544 824)"/><path class="st0" d="M-1504-792l-2-1v31l2 1 2-1v-31z" transform="translate(1544 824)"/><path class="st2" d="M-1502-762l-2 1v-31l2-1z" transform="translate(1544 824)"/><path class="st3" d="M-1506-762l2 1v-31l-2-1z" transform="translate(1544 824)"/><path class="st0" d="M-1536-776l-2-1v31l2 1 2-1v-31z" transform="translate(1544 824)"/><path class="st2" d="M-1534-746l-2 1v-31l2-1z" transform="translate(1544 824)"/><path class="st3" d="M-1538-746l2 1v-31l-2-1z" transform="translate(1544 824)"/><path class="st0" d="M-1460-824l-84 42v4l32 16 84-42v-4z" transform="translate(1544 824)"/><path class="st4" d="M-1512-766l-32-16v6l32 16 84-42v-6z" transform="translate(1544 824)"/><path class="st2" d="M-1428-802l-84 42v-6l84-42z" transform="translate(1544 824)"/><path class="st3" d="M-1544-776l32 16v-6l-32-16z" transform="translate(1544 824)"/><path opacity=".4" d="M-1535.1-782l75.1-37.5 23.1 11.5-75.1 37.5z" transform="translate(1544 824)"/><path class="st2" d="M-1460-817.5v-2l-75.1 37.5 2 1z" transform="translate(1544 824)"/><path class="st3" d="M-1460-817.5l21.1 10.5 2-1-23.1-11.5z" transform="translate(1544 824)"/></g></svg>