<svg xmlns="http://www.w3.org/2000/svg" width="128" height="118"><style>.st0,.st1{fill:red}.st2{opacity:.15}.st2,.st3,.st4,.st5{enable-background:new}.st3{opacity:.3}.st3,.st4,.st5{fill:green}.st4{opacity:.2}.st5{opacity:.7}.st6{fill:#e5e5e5}.st7,.st8{opacity:.39;enable-background:new}.st8{opacity:6.000000e-02}</style><g id="i1192_1_"><path class="st0" d="M-1592-736l-64 32v53l64 32 64-32v-53z" transform="translate(1656 736)"/><path class="st1" d="M-1528-652l-64 32v-14l64-32z" transform="translate(1656 736)"/><path class="st2" d="M-1528-663l-64 32v-3l64-32z" transform="translate(1656 736)"/><path class="st2" d="M-1528-665l-64 32v-1l64-32z" transform="translate(1656 736)"/><path class="st3" d="M-1533-650.5l-4 2v-13l4-2z" transform="translate(1656 736)"/><path class="st4" d="M-1528-653l-4 2v-13l4-2z" transform="translate(1656 736)"/><path class="st3" d="M-1538-648l-4 2v-13l4-2zm-30 15l-4 2v-13l4-2zm-5 2.5l-4 2v-13l4-2z" transform="translate(1656 736)"/><path class="st1" d="M-1528-668l-64 32v-14l64-32z" transform="translate(1656 736)"/><path class="st2" d="M-1528-679l-64 32v-3l64-32z" transform="translate(1656 736)"/><path class="st2" d="M-1528-681l-64 32v-1l64-32z" transform="translate(1656 736)"/><path class="st3" d="M-1568-649l-4 2v-13l4-2z" transform="translate(1656 736)"/><path class="st4" d="M-1563-651.5l-4 2v-13l4-2z" transform="translate(1656 736)"/><path class="st3" d="M-1573-646.5l-4 2v-13l4-2z" transform="translate(1656 736)"/><path class="st4" d="M-1578-644l-4 2v-13l4-2zm-5 2.5l-4 2v-13l4-2z" transform="translate(1656 736)"/><path class="st1" d="M-1528-684l-64 32v-14l64-32z" transform="translate(1656 736)"/><path class="st2" d="M-1528-695l-64 32v-3l64-32z" transform="translate(1656 736)"/><path class="st2" d="M-1528-697l-64 32v-1l64-32z" transform="translate(1656 736)"/><path class="st3" d="M-1538-680l-4 2v-13l4-2z" transform="translate(1656 736)"/><path class="st4" d="M-1543-677.5l-4 2v-13l4-2zm-5 2.5l-4 2v-13l4-2z" transform="translate(1656 736)"/><path class="st3" d="M-1583-657.5l-4 2v-13l4-2zm5-2.5l-4 2v-13l4-2zm-10 5l-4 2v-13l4-2z" transform="translate(1656 736)"/><path class="st5" d="M-1587-621.5l-1 .5v-48l1-.5zm5-2.5l-1 .5v-48l1-.5zm5-2.5l-1 .5v-48l1-.5zm5-2.5l-1 .5v-48l1-.5zm5-2.5l-1 .5v-48l1-.5zm5-2.5l-1 .5v-48l1-.5zm5-2.5l-1 .5v-48l1-.5zm5-2.5l-1 .5v-48l1-.5zm5-2.5l-1 .5v-48l1-.5zm5-2.5l-1 .5v-48l1-.5zm5-2.5l-1 .5v-48l1-.5zm5-2.5l-1 .5v-48l1-.5z" transform="translate(1656 736)"/><path class="st6" d="M-1528-650l-64 32v-3l64-32zm0-16l-64 32v-3l64-32zm0-16l-64 32v-3l64-32z" transform="translate(1656 736)"/><path class="st0" d="M-1528-698l-64 32v-6l64-32z" transform="translate(1656 736)"/><path class="st7" d="M-1592-672v54l64-32v-54z" transform="translate(1656 736)"/><path class="st1" d="M-1592-620l-64-32v-14l64 32z" transform="translate(1656 736)"/><path class="st2" d="M-1592-631l-64-32v-3l64 32z" transform="translate(1656 736)"/><path class="st2" d="M-1592-633l-64-32v-1l64 32z" transform="translate(1656 736)"/><path class="st3" d="M-1597-623.5l-4-2v-13l4 2z" transform="translate(1656 736)"/><path class="st4" d="M-1592-621l-4-2v-13l4 2z" transform="translate(1656 736)"/><path class="st3" d="M-1602-626l-4-2v-13l4 2zm-5-2.5l-4-2v-13l4 2z" transform="translate(1656 736)"/><path class="st1" d="M-1592-636l-64-32v-14l64 32z" transform="translate(1656 736)"/><path class="st2" d="M-1592-647l-64-32v-3l64 32z" transform="translate(1656 736)"/><path class="st2" d="M-1592-649l-64-32v-1l64 32z" transform="translate(1656 736)"/><path class="st3" d="M-1632-657l-4-2v-13l4 2z" transform="translate(1656 736)"/><path class="st4" d="M-1627-654.5l-4-2v-13l4 2zm5 2.5l-4-2v-13l4 2z" transform="translate(1656 736)"/><path class="st3" d="M-1637-659.5l-4-2v-13l4 2z" transform="translate(1656 736)"/><path class="st4" d="M-1642-662l-4-2v-13l4 2zm-5-2.5l-4-2v-13l4 2z" transform="translate(1656 736)"/><path class="st1" d="M-1592-652l-64-32v-14l64 32z" transform="translate(1656 736)"/><path class="st2" d="M-1592-663l-64-32v-3l64 32z" transform="translate(1656 736)"/><path class="st2" d="M-1592-665l-64-32v-1l64 32z" transform="translate(1656 736)"/><path class="st3" d="M-1592-653l-4-2v-13l4 2z" transform="translate(1656 736)"/><path class="st4" d="M-1597-655.5l-4-2v-13l4 2zm-40-20l-4-2v-13l4 2z" transform="translate(1656 736)"/><path class="st3" d="M-1647-680.5l-4-2v-13l4 2zm5 2.5l-4-2v-13l4 2zm-10-5l-4-2v-13l4 2z" transform="translate(1656 736)"/><path class="st5" d="M-1651-648.5l-1-.5v-48l1 .5zm5 2.5l-1-.5v-48l1 .5zm5 2.5l-1-.5v-48l1 .5zm5 2.5l-1-.5v-48l1 .5zm5 2.5l-1-.5v-48l1 .5zm5 2.5l-1-.5v-48l1 .5zm5 2.5l-1-.5v-48l1 .5zm5 2.5l-1-.5v-48l1 .5zm5 2.5l-1-.5v-48l1 .5zm5 2.5l-1-.5v-48l1 .5zm5 2.5l-1-.5v-48l1 .5zm5 2.5l-1-.5v-48l1 .5z" transform="translate(1656 736)"/><path class="st6" d="M-1592-618l-64-32v-3l64 32zm0-16l-64-32v-3l64 32zm0-16l-64-32v-3l64 32z" transform="translate(1656 736)"/><path class="st0" d="M-1592-666l-64-32v-6l64 32z" transform="translate(1656 736)"/><path class="st8" d="M-1656-704v54l64 32v-54z" transform="translate(1656 736)"/><path class="st0" d="M-1592-672l64-32-64-32-64 32z" transform="translate(1656 736)"/><path opacity=".3" d="M-1647.1-704l55.1-27.5 55.1 27.5-55.1 27.5z" transform="translate(1656 736)"/><path class="st2" d="M-1592-729.5l53.1 26.5 2-1-55.1-27.5-55.1 27.5 2 1z" transform="translate(1656 736)"/><path class="st7" d="M-1592-729.5v-2l-55.1 27.5 2 1z" transform="translate(1656 736)"/><path class="st8" d="M-1592-729.5l53.1 26.5 2-1-55.1-27.5z" transform="translate(1656 736)"/><path fill="#999" d="M-1573-716l-16 8v5l16 8 16-8v-5z" transform="translate(1656 736)"/><path class="st7" d="M-1557-703l-16 8v-5l16-8z" transform="translate(1656 736)"/><path class="st8" d="M-1589-703l16 8v-5l-16-8z" transform="translate(1656 736)"/><path fill="#656565" d="M-1580.5-708.2l7.5-3.8 7.5 3.8-7.5 3.7z" transform="translate(1656 736)"/></g></svg>