<svg xmlns="http://www.w3.org/2000/svg" width="92.8" height="51.2"><style>.st1{fill:#539b00}.st2,.st3{opacity:.11;enable-background:new}.st3{opacity:.29}.st4{fill:#2d3134}.st5{fill:#999}.st6{opacity:.15;enable-background:new}.st7{fill:#656565}.st8{opacity:.2;enable-background:new}.st9{fill:#2d3134}.st10,.st9{opacity:.3;enable-background:new}.st10,.st12{fill:#fff}</style><g id="i1851_1_"><path opacity=".3" d="M-6960-3632l141-70 767 384-140 70z" transform="matrix(.1 0 0 .1 696 376)"/><path class="st1" d="M-6413-3456l-4 2v31l162 81 4-2v-31z" transform="matrix(.1 0 0 .1 696 376)"/><path class="st2" d="M-6417-3454v31l162 81v-31z" transform="matrix(.1 0 0 .1 696 376)"/><path class="st3" d="M-6251-3375v31l-4 2v-31z" transform="matrix(.1 0 0 .1 696 376)"/><path class="st4" d="M-6473-3443l36-18-12 20-36 18z" transform="matrix(.1 0 0 .1 696 376)"/><path class="st3" d="M-6473-3443l36-18-12 20-36 18z" transform="matrix(.1 0 0 .1 696 376)"/><path class="st4" d="M-6418.6-3450.4c-7.5-3.7-14.2-4.2-19.2-1.9l-14 7c-5.4 2.4-8.8 7.9-8.8 15.9 0 15.5 12.5 34.3 28 42 7.6 3.8 14.6 4.2 19.6 1.8 0 0 13.9-6.9 15.1-7.6 4.5-2.7 7.3-7.9 7.3-15.2 0-15.4-12.6-34.2-28-42z" transform="matrix(.1 0 0 .1 696 376)"/><path class="st3" d="M-6412.7-3385.8c2-1 13.7-6.8 14.8-7.5 4.5-2.7 7.3-7.9 7.3-15.2 0-6.2-2.1-13-5.5-19.3l-14 7c3.4 6.4 5.5 13.1 5.5 19.3 0 7.8-3.1 13.2-8.1 15.7z" transform="matrix(.1 0 0 .1 696 376)"/><path class="st5" d="M-6414.7-3406.6c0 9.9-8 13.9-17.9 8.9-9.9-4.9-17.9-17-17.9-26.8s8-13.9 17.9-8.9c9.8 4.9 17.9 16.9 17.9 26.8z" transform="matrix(.1 0 0 .1 696 376)"/><path class="st6" d="M-6431.1-3398.3c-9.9-4.9-17.9-17-17.9-26.8 0-4.9 1.9-8.3 5.1-9.9-4 1.3-6.6 5-6.6 10.6 0 9.9 8 21.9 17.9 26.8 5 2.5 9.6 2.7 12.8 1-3.1.9-7 .4-11.3-1.7z" transform="matrix(.1 0 0 .1 696 376)"/><path class="st4" d="M-6423.7-3412.4c0 4.1-3.3 5.8-7.5 3.7-4.1-2.1-7.5-7.1-7.5-11.2s3.3-5.8 7.5-3.7c4.2 2 7.5 7 7.5 11.2z" transform="matrix(.1 0 0 .1 696 376)"/><path class="st3" d="M-6423.7-3412.4c0 4.1-3.3 5.8-7.5 3.7-4.1-2.1-7.5-7.1-7.5-11.2s3.3-5.8 7.5-3.7c4.2 2 7.5 7 7.5 11.2z" transform="matrix(.1 0 0 .1 696 376)"/><path class="st4" d="M-6425.2-3411.7c0 4.1-3.3 5.8-7.5 3.7-4.1-2.1-7.5-7.1-7.5-11.2s3.3-5.8 7.5-3.7c4.2 2 7.5 7 7.5 11.2z" transform="matrix(.1 0 0 .1 696 376)"/><path class="st2" d="M-6404.6-3401.4c0 15.5-12.5 21.7-28 14-15.5-7.7-28-26.5-28-42s12.5-21.7 28-14c15.4 7.8 28 26.6 28 42z" transform="matrix(.1 0 0 .1 696 376)"/><path class="st4" d="M-6438-3440.9c-7.5-3.7-14.2-4.2-19.2-1.9l-14 7c-5.4 2.4-8.8 7.9-8.8 15.9 0 15.5 12.5 34.3 28 42 7.6 3.8 14.6 4.2 19.6 1.8 0 0 13.9-6.9 15.1-7.6 4.5-2.7 7.3-7.9 7.3-15.2 0-15.5-12.5-34.3-28-42z" transform="matrix(.1 0 0 .1 696 376)"/><path class="st3" d="M-6432.1-3376.3c2-1 13.7-6.8 14.8-7.5 4.5-2.7 7.3-7.9 7.3-15.2 0-6.2-2.1-13-5.5-19.3l-14 7c3.4 6.4 5.5 13.1 5.5 19.3 0 7.7-3.1 13.1-8.1 15.7z" transform="matrix(.1 0 0 .1 696 376)"/><path class="st5" d="M-6434.1-3397.2c0 9.9-8 13.9-17.9 8.9-9.9-4.9-17.9-17-17.9-26.8s8-13.9 17.9-8.9 17.9 17 17.9 26.8z" transform="matrix(.1 0 0 .1 696 376)"/><path class="st6" d="M-6450.5-3388.8c-9.9-4.9-17.9-17-17.9-26.8 0-4.9 1.9-8.3 5.1-9.9-4 1.3-6.6 5-6.6 10.6 0 9.9 8 21.9 17.9 26.8 5 2.5 9.6 2.7 12.8 1-3.1.9-7 .4-11.3-1.7z" transform="matrix(.1 0 0 .1 696 376)"/><path class="st4" d="M-6443.1-3403c0 4.1-3.3 5.8-7.5 3.7-4.1-2.1-7.5-7.1-7.5-11.2s3.3-5.8 7.5-3.7c4.2 2.1 7.5 7.1 7.5 11.2z" transform="matrix(.1 0 0 .1 696 376)"/><path class="st3" d="M-6443.1-3403c0 4.1-3.3 5.8-7.5 3.7-4.1-2.1-7.5-7.1-7.5-11.2s3.3-5.8 7.5-3.7c4.2 2.1 7.5 7.1 7.5 11.2z" transform="matrix(.1 0 0 .1 696 376)"/><path class="st4" d="M-6444.5-3402.3c0 4.1-3.3 5.8-7.5 3.7-4.1-2.1-7.5-7.1-7.5-11.2s3.3-5.8 7.5-3.7c4.2 2.1 7.5 7.1 7.5 11.2z" transform="matrix(.1 0 0 .1 696 376)"/><path class="st2" d="M-6424-3391.9c0 15.5-12.5 21.7-28 14-15.5-7.7-28-26.5-28-42s12.5-21.7 28-14c15.5 7.7 28 26.5 28 42z" transform="matrix(.1 0 0 .1 696 376)"/><path class="st4" d="M-6473-3443l36-18 36 18-36 18z" transform="matrix(.1 0 0 .1 696 376)"/><path class="st4" d="M-6423-3400l36-18-14-25-36 18z" transform="matrix(.1 0 0 .1 696 376)"/><path class="st3" d="M-6423-3400l36-18-14-25-36 18z" transform="matrix(.1 0 0 .1 696 376)"/><path class="st4" d="M-6415-3414l36-18-12 20-36 18z" transform="matrix(.1 0 0 .1 696 376)"/><path class="st3" d="M-6415-3414l36-18-12 20-36 18z" transform="matrix(.1 0 0 .1 696 376)"/><path class="st4" d="M-6360.6-3421.4c-7.5-3.7-14.2-4.2-19.2-1.9l-14 7c-5.4 2.4-8.8 7.9-8.8 15.9 0 15.5 12.5 34.3 28 42 7.6 3.8 14.6 4.2 19.6 1.8 0 0 13.9-6.9 15.1-7.6 4.5-2.7 7.3-7.9 7.3-15.2 0-15.4-12.6-34.2-28-42z" transform="matrix(.1 0 0 .1 696 376)"/><path class="st3" d="M-6354.7-3356.8c2-1 13.7-6.8 14.8-7.5 4.5-2.7 7.3-7.9 7.3-15.2 0-6.2-2.1-13-5.5-19.3l-14 7c3.4 6.4 5.5 13.1 5.5 19.3 0 7.8-3.1 13.2-8.1 15.7z" transform="matrix(.1 0 0 .1 696 376)"/><path class="st5" d="M-6356.7-3377.6c0 9.9-8 13.9-17.9 8.9-9.9-4.9-17.9-17-17.9-26.8s8-13.9 17.9-8.9c9.8 4.9 17.9 16.9 17.9 26.8z" transform="matrix(.1 0 0 .1 696 376)"/><path class="st6" d="M-6373.1-3369.3c-9.9-4.9-17.9-17-17.9-26.8 0-4.9 1.9-8.3 5.1-9.9-4 1.3-6.6 5-6.6 10.6 0 9.9 8 21.9 17.9 26.8 5 2.5 9.6 2.7 12.8 1-3.1.9-7 .4-11.3-1.7z" transform="matrix(.1 0 0 .1 696 376)"/><path class="st4" d="M-6365.7-3383.4c0 4.1-3.3 5.8-7.5 3.7-4.1-2.1-7.5-7.1-7.5-11.2s3.3-5.8 7.5-3.7c4.2 2 7.5 7 7.5 11.2z" transform="matrix(.1 0 0 .1 696 376)"/><path class="st3" d="M-6365.7-3383.4c0 4.1-3.3 5.8-7.5 3.7-4.1-2.1-7.5-7.1-7.5-11.2s3.3-5.8 7.5-3.7c4.2 2 7.5 7 7.5 11.2z" transform="matrix(.1 0 0 .1 696 376)"/><path class="st4" d="M-6367.2-3382.7c0 4.1-3.3 5.8-7.5 3.7-4.1-2.1-7.5-7.1-7.5-11.2s3.3-5.8 7.5-3.7c4.2 2 7.5 7 7.5 11.2z" transform="matrix(.1 0 0 .1 696 376)"/><path class="st2" d="M-6346.6-3372.4c0 15.5-12.5 21.7-28 14-15.5-7.7-28-26.5-28-42s12.5-21.7 28-14c15.4 7.8 28 26.6 28 42z" transform="matrix(.1 0 0 .1 696 376)"/><path class="st4" d="M-6380-3411.9c-7.5-3.7-14.2-4.2-19.2-1.9l-14 7c-5.4 2.4-8.8 7.9-8.8 15.9 0 15.5 12.5 34.3 28 42 7.6 3.8 14.6 4.2 19.6 1.8 0 0 13.9-6.9 15.1-7.6 4.5-2.7 7.3-7.9 7.3-15.2 0-15.5-12.5-34.3-28-42z" transform="matrix(.1 0 0 .1 696 376)"/><path class="st3" d="M-6374.1-3347.3c2-1 13.7-6.8 14.8-7.5 4.5-2.7 7.3-7.9 7.3-15.2 0-6.2-2.1-13-5.5-19.3l-14 7c3.4 6.4 5.5 13.1 5.5 19.3 0 7.7-3.1 13.1-8.1 15.7z" transform="matrix(.1 0 0 .1 696 376)"/><path class="st5" d="M-6376.1-3368.2c0 9.9-8 13.9-17.9 8.9-9.9-4.9-17.9-17-17.9-26.8s8-13.9 17.9-8.9 17.9 17 17.9 26.8z" transform="matrix(.1 0 0 .1 696 376)"/><path class="st6" d="M-6392.5-3359.8c-9.9-4.9-17.9-17-17.9-26.8 0-4.9 1.9-8.3 5.1-9.9-4 1.3-6.6 5-6.6 10.6 0 9.9 8 21.9 17.9 26.8 5 2.5 9.6 2.7 12.8 1-3.1.9-7 .4-11.3-1.7z" transform="matrix(.1 0 0 .1 696 376)"/><path class="st4" d="M-6385.1-3374c0 4.1-3.3 5.8-7.5 3.7-4.1-2.1-7.5-7.1-7.5-11.2s3.3-5.8 7.5-3.7c4.2 2.1 7.5 7.1 7.5 11.2z" transform="matrix(.1 0 0 .1 696 376)"/><path class="st3" d="M-6385.1-3374c0 4.1-3.3 5.8-7.5 3.7-4.1-2.1-7.5-7.1-7.5-11.2s3.3-5.8 7.5-3.7c4.2 2.1 7.5 7.1 7.5 11.2z" transform="matrix(.1 0 0 .1 696 376)"/><path class="st4" d="M-6386.5-3373.3c0 4.1-3.3 5.8-7.5 3.7-4.1-2.1-7.5-7.1-7.5-11.2s3.3-5.8 7.5-3.7c4.2 2.1 7.5 7.1 7.5 11.2z" transform="matrix(.1 0 0 .1 696 376)"/><path class="st2" d="M-6366-3362.9c0 15.5-12.5 21.7-28 14-15.5-7.7-28-26.5-28-42s12.5-21.7 28-14c15.5 7.7 28 26.5 28 42z" transform="matrix(.1 0 0 .1 696 376)"/><path class="st4" d="M-6415-3414l36-18 36 18-36 18z" transform="matrix(.1 0 0 .1 696 376)"/><path class="st4" d="M-6365-3371l36-18-14-25-36 18z" transform="matrix(.1 0 0 .1 696 376)"/><path class="st3" d="M-6365-3371l36-18-14-25-36 18z" transform="matrix(.1 0 0 .1 696 376)"/><path class="st5" d="M-6319-3396l-20 10v27l52 26 20-10v-27z" transform="matrix(.1 0 0 .1 696 376)"/><path class="st4" d="M-6305-3389l-4-2-20 10v27l4 2v-27zm28 14l-4-2-20 10v27l4 2v-27z" transform="matrix(.1 0 0 .1 696 376)"/><path class="st3" d="M-6267-3370v27l-20 10v-27z" transform="matrix(.1 0 0 .1 696 376)"/><path class="st2" d="M-6339-3386v27l52 26v-27z" transform="matrix(.1 0 0 .1 696 376)"/><path class="st1" d="M-6354-3385l-10 5v31l62 31 10-5v-31z" transform="matrix(.1 0 0 .1 696 376)"/><path class="st2" d="M-6364-3380v31l62 31v-31z" transform="matrix(.1 0 0 .1 696 376)"/><path class="st3" d="M-6292-3354v31l-10 5v-31z" transform="matrix(.1 0 0 .1 696 376)"/><path class="st1" d="M-6162-3419l-140 70v31l24 12 140-70v-31z" transform="matrix(.1 0 0 .1 696 376)"/><path class="st2" d="M-6302-3349v31l24 12v-31z" transform="matrix(.1 0 0 .1 696 376)"/><path class="st3" d="M-6138-3407v31l-140 70v-31z" transform="matrix(.1 0 0 .1 696 376)"/><path class="st4" d="M-6886-3651l36-18-12 20-36 18z" transform="matrix(.1 0 0 .1 696 376)"/><path class="st3" d="M-6886-3651l36-18-12 20-36 18z" transform="matrix(.1 0 0 .1 696 376)"/><path class="st4" d="M-6831.6-3658.4c-7.5-3.7-14.2-4.2-19.2-1.9l-14 7c-5.4 2.4-8.8 7.9-8.8 15.9 0 15.5 12.5 34.3 28 42 7.6 3.8 14.6 4.2 19.6 1.8 0 0 13.9-6.9 15.1-7.6 4.5-2.7 7.3-7.9 7.3-15.2 0-15.4-12.6-34.2-28-42z" transform="matrix(.1 0 0 .1 696 376)"/><path class="st3" d="M-6825.7-3593.8c2-1 13.7-6.8 14.8-7.5 4.5-2.7 7.3-7.9 7.3-15.2 0-6.2-2.1-13-5.5-19.3l-14 7c3.4 6.4 5.5 13.1 5.5 19.3 0 7.8-3.1 13.2-8.1 15.7z" transform="matrix(.1 0 0 .1 696 376)"/><path class="st5" d="M-6827.7-3614.6c0 9.9-8 13.9-17.9 8.9s-17.9-17-17.9-26.8 8-13.9 17.9-8.9c9.8 4.9 17.9 16.9 17.9 26.8z" transform="matrix(.1 0 0 .1 696 376)"/><path class="st6" d="M-6844.1-3606.3c-9.9-4.9-17.9-17-17.9-26.8 0-4.9 1.9-8.3 5.1-9.9-4 1.3-6.6 5-6.6 10.6 0 9.9 8 21.9 17.9 26.8 5 2.5 9.6 2.7 12.8 1-3.1.9-7 .4-11.3-1.7z" transform="matrix(.1 0 0 .1 696 376)"/><path class="st4" d="M-6836.7-3620.4c0 4.1-3.3 5.8-7.5 3.7-4.1-2.1-7.5-7.1-7.5-11.2s3.3-5.8 7.5-3.7c4.2 2 7.5 7 7.5 11.2z" transform="matrix(.1 0 0 .1 696 376)"/><path class="st3" d="M-6836.7-3620.4c0 4.1-3.3 5.8-7.5 3.7-4.1-2.1-7.5-7.1-7.5-11.2s3.3-5.8 7.5-3.7c4.2 2 7.5 7 7.5 11.2z" transform="matrix(.1 0 0 .1 696 376)"/><path class="st4" d="M-6838.2-3619.7c0 4.1-3.3 5.8-7.5 3.7-4.1-2.1-7.5-7.1-7.5-11.2s3.3-5.8 7.5-3.7c4.2 2 7.5 7 7.5 11.2z" transform="matrix(.1 0 0 .1 696 376)"/><path class="st2" d="M-6817.6-3609.4c0 15.5-12.5 21.7-28 14-15.5-7.7-28-26.5-28-42s12.5-21.7 28-14c15.5 7.7 28 26.6 28 42z" transform="matrix(.1 0 0 .1 696 376)"/><path class="st4" d="M-6851-3648.9c-7.5-3.7-14.2-4.2-19.2-1.9l-14 7c-5.4 2.4-8.8 7.9-8.8 15.9 0 15.5 12.5 34.3 28 42 7.6 3.8 14.6 4.2 19.6 1.8 0 0 13.9-6.9 15.1-7.6 4.5-2.7 7.3-7.9 7.3-15.2 0-15.5-12.5-34.3-28-42z" transform="matrix(.1 0 0 .1 696 376)"/><path class="st3" d="M-6845.1-3584.3c2-1 13.7-6.8 14.8-7.5 4.5-2.7 7.3-7.9 7.3-15.2 0-6.2-2.1-13-5.5-19.3l-14 7c3.4 6.4 5.5 13.1 5.5 19.3 0 7.7-3.1 13.1-8.1 15.7z" transform="matrix(.1 0 0 .1 696 376)"/><path class="st5" d="M-6847.1-3605.2c0 9.9-8 13.9-17.9 8.9-9.9-4.9-17.9-17-17.9-26.8 0-9.9 8-13.9 17.9-8.9s17.9 17 17.9 26.8z" transform="matrix(.1 0 0 .1 696 376)"/><path class="st6" d="M-6863.5-3596.8c-9.9-4.9-17.9-17-17.9-26.8 0-4.9 1.9-8.3 5.1-9.9-4 1.3-6.6 5-6.6 10.6 0 9.9 8 21.9 17.9 26.8 5 2.5 9.6 2.7 12.8 1-3.1.9-7 .4-11.3-1.7z" transform="matrix(.1 0 0 .1 696 376)"/><path class="st4" d="M-6856.1-3611c0 4.1-3.3 5.8-7.5 3.7-4.1-2.1-7.5-7.1-7.5-11.2s3.3-5.8 7.5-3.7c4.2 2.1 7.5 7.1 7.5 11.2z" transform="matrix(.1 0 0 .1 696 376)"/><path class="st3" d="M-6856.1-3611c0 4.1-3.3 5.8-7.5 3.7-4.1-2.1-7.5-7.1-7.5-11.2s3.3-5.8 7.5-3.7c4.2 2.1 7.5 7.1 7.5 11.2z" transform="matrix(.1 0 0 .1 696 376)"/><path class="st4" d="M-6857.5-3610.3c0 4.1-3.3 5.8-7.5 3.7-4.1-2.1-7.5-7.1-7.5-11.2s3.3-5.8 7.5-3.7 7.5 7.1 7.5 11.2z" transform="matrix(.1 0 0 .1 696 376)"/><path class="st2" d="M-6837-3599.9c0 15.5-12.5 21.7-28 14-15.5-7.7-28-26.5-28-42s12.5-21.7 28-14c15.5 7.7 28 26.5 28 42z" transform="matrix(.1 0 0 .1 696 376)"/><path class="st4" d="M-6886-3651l36-18 36 18-36 18z" transform="matrix(.1 0 0 .1 696 376)"/><path class="st4" d="M-6836-3608l36-18-14-25-36 18z" transform="matrix(.1 0 0 .1 696 376)"/><path class="st3" d="M-6836-3608l36-18-14-25-36 18z" transform="matrix(.1 0 0 .1 696 376)"/><path class="st4" d="M-6827-3620.6l36-18-12 20-36 18z" transform="matrix(.1 0 0 .1 696 376)"/><path class="st3" d="M-6827-3620.6l36-18-12 20-36 18z" transform="matrix(.1 0 0 .1 696 376)"/><path class="st4" d="M-6772.6-3628c-7.5-3.7-14.2-4.2-19.2-1.9l-14 7c-5.4 2.4-8.8 7.9-8.8 15.9 0 15.5 12.5 34.3 28 42 7.6 3.8 14.6 4.2 19.6 1.8 0 0 13.9-6.9 15.1-7.6 4.5-2.7 7.3-7.9 7.3-15.2 0-15.4-12.6-34.2-28-42z" transform="matrix(.1 0 0 .1 696 376)"/><path class="st3" d="M-6766.7-3563.4c2-1 13.7-6.8 14.8-7.5 4.5-2.7 7.3-7.9 7.3-15.2 0-6.2-2.1-13-5.5-19.3l-14 7c3.4 6.4 5.5 13.1 5.5 19.3 0 7.8-3.1 13.2-8.1 15.7z" transform="matrix(.1 0 0 .1 696 376)"/><path class="st5" d="M-6768.7-3584.2c0 9.9-8 13.9-17.9 8.9s-17.9-17-17.9-26.8 8-13.9 17.9-8.9 17.9 16.9 17.9 26.8z" transform="matrix(.1 0 0 .1 696 376)"/><path class="st6" d="M-6785.1-3575.9c-9.9-4.9-17.9-17-17.9-26.8 0-4.9 1.9-8.3 5.1-9.9-4 1.3-6.6 5-6.6 10.6 0 9.9 8 21.9 17.9 26.8 5 2.5 9.6 2.7 12.8 1-3.1.9-7 .4-11.3-1.7z" transform="matrix(.1 0 0 .1 696 376)"/><path class="st4" d="M-6777.7-3590c0 4.1-3.3 5.8-7.5 3.7-4.1-2.1-7.5-7.1-7.5-11.2s3.3-5.8 7.5-3.7c4.2 2 7.5 7 7.5 11.2z" transform="matrix(.1 0 0 .1 696 376)"/><path class="st3" d="M-6777.7-3590c0 4.1-3.3 5.8-7.5 3.7-4.1-2.1-7.5-7.1-7.5-11.2s3.3-5.8 7.5-3.7c4.2 2 7.5 7 7.5 11.2z" transform="matrix(.1 0 0 .1 696 376)"/><path class="st4" d="M-6779.2-3589.3c0 4.1-3.3 5.8-7.5 3.7-4.2-2.1-7.5-7.1-7.5-11.2s3.3-5.8 7.5-3.7c4.2 2.1 7.5 7 7.5 11.2z" transform="matrix(.1 0 0 .1 696 376)"/><path class="st2" d="M-6758.6-3579c0 15.5-12.5 21.7-28 14s-28-26.5-28-42 12.5-21.7 28-14 28 26.6 28 42z" transform="matrix(.1 0 0 .1 696 376)"/><path class="st4" d="M-6792-3618.5c-7.5-3.7-14.2-4.2-19.2-1.9l-14 7c-5.4 2.4-8.8 7.9-8.8 15.9 0 15.5 12.5 34.3 28 42 7.6 3.8 14.6 4.2 19.6 1.8 0 0 13.9-6.9 15.1-7.6 4.5-2.7 7.3-7.9 7.3-15.2 0-15.5-12.5-34.3-28-42z" transform="matrix(.1 0 0 .1 696 376)"/><path class="st3" d="M-6786.1-3553.9c2-1 13.7-6.8 14.8-7.5 4.5-2.7 7.3-7.9 7.3-15.2 0-6.2-2.1-13-5.5-19.3l-14 7c3.4 6.4 5.5 13.1 5.5 19.3 0 7.7-3.1 13.1-8.1 15.7z" transform="matrix(.1 0 0 .1 696 376)"/><path class="st5" d="M-6788.1-3574.7c0 9.9-8 13.9-17.9 8.9s-17.9-17-17.9-26.8 8-13.9 17.9-8.9c9.9 4.9 17.9 16.9 17.9 26.8z" transform="matrix(.1 0 0 .1 696 376)"/><path class="st6" d="M-6804.5-3566.4c-9.9-4.9-17.9-17-17.9-26.8 0-4.9 1.9-8.3 5.1-9.9-4 1.3-6.6 5-6.6 10.6 0 9.9 8 21.9 17.9 26.8 5 2.5 9.6 2.7 12.8 1-3.1.9-7 .4-11.3-1.7z" transform="matrix(.1 0 0 .1 696 376)"/><path class="st4" d="M-6797.1-3580.6c0 4.1-3.3 5.8-7.5 3.7-4.1-2.1-7.5-7.1-7.5-11.2s3.3-5.8 7.5-3.7c4.2 2.1 7.5 7.1 7.5 11.2z" transform="matrix(.1 0 0 .1 696 376)"/><path class="st3" d="M-6797.1-3580.6c0 4.1-3.3 5.8-7.5 3.7-4.1-2.1-7.5-7.1-7.5-11.2s3.3-5.8 7.5-3.7c4.2 2.1 7.5 7.1 7.5 11.2z" transform="matrix(.1 0 0 .1 696 376)"/><path class="st4" d="M-6798.5-3579.9c0 4.1-3.3 5.8-7.5 3.7-4.2-2.1-7.5-7.1-7.5-11.2s3.3-5.8 7.5-3.7c4.1 2.1 7.5 7.1 7.5 11.2z" transform="matrix(.1 0 0 .1 696 376)"/><path class="st2" d="M-6778-3569.5c0 15.5-12.5 21.7-28 14s-28-26.5-28-42 12.5-21.7 28-14 28 26.5 28 42z" transform="matrix(.1 0 0 .1 696 376)"/><path class="st4" d="M-6827-3620.6l36-18 36 18-36 18z" transform="matrix(.1 0 0 .1 696 376)"/><path class="st4" d="M-6777-3577.6l36-18-14-25-36 18z" transform="matrix(.1 0 0 .1 696 376)"/><path class="st3" d="M-6777-3577.6l36-18-14-25-36 18z" transform="matrix(.1 0 0 .1 696 376)"/><path class="st4" d="M-6768-3591l36-18-12 20-36 18z" transform="matrix(.1 0 0 .1 696 376)"/><path class="st3" d="M-6768-3591l36-18-12 20-36 18z" transform="matrix(.1 0 0 .1 696 376)"/><path class="st4" d="M-6713.6-3598.4c-7.5-3.7-14.2-4.2-19.2-1.9l-14 7c-5.4 2.4-8.8 7.9-8.8 15.9 0 15.5 12.5 34.3 28 42 7.6 3.8 14.6 4.2 19.6 1.8 0 0 13.9-6.9 15.1-7.6 4.5-2.7 7.3-7.9 7.3-15.2 0-15.4-12.6-34.2-28-42z" transform="matrix(.1 0 0 .1 696 376)"/><path class="st3" d="M-6707.7-3533.8c2-1 13.7-6.8 14.8-7.5 4.5-2.7 7.3-7.9 7.3-15.2 0-6.2-2.1-13-5.5-19.3l-14 7c3.4 6.4 5.5 13.1 5.5 19.3 0 7.8-3.1 13.2-8.1 15.7z" transform="matrix(.1 0 0 .1 696 376)"/><path class="st5" d="M-6709.7-3554.6c0 9.9-8 13.9-17.9 8.9-9.9-4.9-17.9-17-17.9-26.8 0-9.9 8-13.9 17.9-8.9 9.8 4.9 17.9 16.9 17.9 26.8z" transform="matrix(.1 0 0 .1 696 376)"/><path class="st6" d="M-6726.1-3546.3c-9.9-4.9-17.9-17-17.9-26.8 0-4.9 1.9-8.3 5.1-9.9-4 1.3-6.6 5-6.6 10.6 0 9.9 8 21.9 17.9 26.8 5 2.5 9.6 2.7 12.8 1-3.1.9-7 .4-11.3-1.7z" transform="matrix(.1 0 0 .1 696 376)"/><path class="st4" d="M-6718.7-3560.4c0 4.1-3.3 5.8-7.5 3.7-4.1-2.1-7.5-7.1-7.5-11.2s3.3-5.8 7.5-3.7c4.2 2 7.5 7 7.5 11.2z" transform="matrix(.1 0 0 .1 696 376)"/><path class="st3" d="M-6718.7-3560.4c0 4.1-3.3 5.8-7.5 3.7-4.1-2.1-7.5-7.1-7.5-11.2s3.3-5.8 7.5-3.7c4.2 2 7.5 7 7.5 11.2z" transform="matrix(.1 0 0 .1 696 376)"/><path class="st4" d="M-6720.2-3559.7c0 4.1-3.3 5.8-7.5 3.7-4.1-2.1-7.5-7.1-7.5-11.2s3.3-5.8 7.5-3.7c4.2 2 7.5 7 7.5 11.2z" transform="matrix(.1 0 0 .1 696 376)"/><path class="st2" d="M-6699.6-3549.4c0 15.5-12.5 21.7-28 14-15.5-7.7-28-26.5-28-42s12.5-21.7 28-14c15.5 7.7 28 26.6 28 42z" transform="matrix(.1 0 0 .1 696 376)"/><path class="st4" d="M-6733-3588.9c-7.5-3.7-14.2-4.2-19.2-1.9l-14 7c-5.4 2.4-8.8 7.9-8.8 15.9 0 15.5 12.5 34.3 28 42 7.6 3.8 14.6 4.2 19.6 1.8 0 0 13.9-6.9 15.1-7.6 4.5-2.7 7.3-7.9 7.3-15.2 0-15.5-12.5-34.3-28-42z" transform="matrix(.1 0 0 .1 696 376)"/><path class="st3" d="M-6727.1-3524.3c2-1 13.7-6.8 14.8-7.5 4.5-2.7 7.3-7.9 7.3-15.2 0-6.2-2.1-13-5.5-19.3l-14 7c3.4 6.4 5.5 13.1 5.5 19.3 0 7.7-3.1 13.1-8.1 15.7z" transform="matrix(.1 0 0 .1 696 376)"/><path class="st5" d="M-6729.1-3545.2c0 9.9-8 13.9-17.9 8.9-9.9-4.9-17.9-17-17.9-26.8s8-13.9 17.9-8.9 17.9 17 17.9 26.8z" transform="matrix(.1 0 0 .1 696 376)"/><path class="st6" d="M-6745.5-3536.8c-9.9-4.9-17.9-17-17.9-26.8 0-4.9 1.9-8.3 5.1-9.9-4 1.3-6.6 5-6.6 10.6 0 9.9 8 21.9 17.9 26.8 5 2.5 9.6 2.7 12.8 1-3.1.9-7 .4-11.3-1.7z" transform="matrix(.1 0 0 .1 696 376)"/><path class="st4" d="M-6738.1-3551c0 4.1-3.3 5.8-7.5 3.7-4.1-2.1-7.5-7.1-7.5-11.2s3.3-5.8 7.5-3.7c4.2 2.1 7.5 7.1 7.5 11.2z" transform="matrix(.1 0 0 .1 696 376)"/><path class="st3" d="M-6738.1-3551c0 4.1-3.3 5.8-7.5 3.7-4.1-2.1-7.5-7.1-7.5-11.2s3.3-5.8 7.5-3.7c4.2 2.1 7.5 7.1 7.5 11.2z" transform="matrix(.1 0 0 .1 696 376)"/><path class="st4" d="M-6739.5-3550.3c0 4.1-3.3 5.8-7.5 3.7-4.1-2.1-7.5-7.1-7.5-11.2s3.3-5.8 7.5-3.7c4.1 2.1 7.5 7.1 7.5 11.2z" transform="matrix(.1 0 0 .1 696 376)"/><path class="st2" d="M-6719-3539.9c0 15.5-12.5 21.7-28 14-15.5-7.7-28-26.5-28-42s12.5-21.7 28-14c15.5 7.7 28 26.5 28 42z" transform="matrix(.1 0 0 .1 696 376)"/><path class="st4" d="M-6768-3591l36-18 36 18-36 18z" transform="matrix(.1 0 0 .1 696 376)"/><path class="st4" d="M-6718-3548l36-18-14-25-36 18z" transform="matrix(.1 0 0 .1 696 376)"/><path class="st3" d="M-6718-3548l36-18-14-25-36 18z" transform="matrix(.1 0 0 .1 696 376)"/><path class="st4" d="M-6820-3750l-140 70v10l42 21h20l140-70z" transform="matrix(.1 0 0 .1 696 376)"/><path class="st2" d="M-6960-3680v10l42 21h20z" transform="matrix(.1 0 0 .1 696 376)"/><path class="st4" d="M-6572-3626l-140 70 20 20 184 92h20l140-70z" transform="matrix(.1 0 0 .1 696 376)"/><path class="st2" d="M-6712-3556l20 20 184 92h20z" transform="matrix(.1 0 0 .1 696 376)"/><path class="st4" d="M-6820-3760l-140 70v10l620 310 140-70v-10z" transform="matrix(.1 0 0 .1 696 376)"/><path class="st2" d="M-6960-3690v10l620 310v-10z" transform="matrix(.1 0 0 .1 696 376)"/><path class="st6" d="M-6840-3750l-8 4 620 310 8-4zm-92 46l-8 4 620 310 8-4z" transform="matrix(.1 0 0 .1 696 376)"/><path class="st3" d="M-6200-3450v10l-140 70v-10z" transform="matrix(.1 0 0 .1 696 376)"/><path class="st4" d="M-6228-3436l-84 42v9.9l64 32.1 84-42v-10z" transform="matrix(.1 0 0 .1 696 376)"/><path class="st2" d="M-6312-3394v10l64 32v-10z" transform="matrix(.1 0 0 .1 696 376)"/><path class="st3" d="M-6164-3404v10l-84 42v-10z" transform="matrix(.1 0 0 .1 696 376)"/><path class="st4" d="M-6039-3436.6h-1v-30.7c0-1.1-.6-2.1-1.5-2.7s-2.1-.6-3-.1l-2.3 1.1-.4-.9 2.3-1.1c1.3-.6 2.8-.6 4 .2 1.2.8 2 2.1 2 3.5v30.7h-.1z" transform="matrix(.1 0 0 .1 696 376)"/><path class="st4" d="M-6045.3-3461v20.9c0 1.9 2.1 3 3.6 1.9l.5-.4c2.5-1.8 4-4.7 4-7.7v-21c0-1.9-2.2-3-3.7-1.8l-.8.6c-2.2 1.8-3.6 4.6-3.6 7.5zm-182.7 125.3c-7.5-3.7-14.2-4.2-19.2-1.9l-14 7c-5.4 2.4-8.8 7.9-8.8 15.9 0 15.5 12.5 34.3 28 42 7.6 3.8 14.6 4.2 19.6 1.8 0 0 13.9-6.9 15.1-7.6 4.5-2.7 7.3-7.9 7.3-15.2 0-15.5-12.5-34.3-28-42z" transform="matrix(.1 0 0 .1 696 376)"/><path class="st3" d="M-6222.1-3271.1c2-1 13.7-6.8 14.8-7.5 4.5-2.7 7.3-7.9 7.3-15.2 0-6.2-2.1-13-5.5-19.3l-14 7c3.4 6.4 5.5 13.1 5.5 19.3 0 7.8-3.1 13.1-8.1 15.7z" transform="matrix(.1 0 0 .1 696 376)"/><path class="st5" d="M-6224.1-3291.9c0 9.9-8 13.9-17.9 8.9-9.9-4.9-17.9-17-17.9-26.8 0-9.9 8-13.9 17.9-8.9 9.9 4.9 17.9 16.9 17.9 26.8z" transform="matrix(.1 0 0 .1 696 376)"/><path class="st6" d="M-6240.5-3283.6c-9.9-4.9-17.9-17-17.9-26.8 0-4.9 1.9-8.3 5.1-9.9-4 1.3-6.6 5-6.6 10.6 0 9.9 8 21.9 17.9 26.8 5 2.5 9.6 2.7 12.8 1-3.1.9-7 .4-11.3-1.7z" transform="matrix(.1 0 0 .1 696 376)"/><path class="st4" d="M-6233.1-3297.8c0 4.1-3.3 5.8-7.5 3.7-4.1-2.1-7.5-7.1-7.5-11.2s3.3-5.8 7.5-3.7c4.2 2.1 7.5 7.1 7.5 11.2z" transform="matrix(.1 0 0 .1 696 376)"/><path class="st3" d="M-6233.1-3297.8c0 4.1-3.3 5.8-7.5 3.7-4.1-2.1-7.5-7.1-7.5-11.2s3.3-5.8 7.5-3.7c4.2 2.1 7.5 7.1 7.5 11.2z" transform="matrix(.1 0 0 .1 696 376)"/><path class="st4" d="M-6234.5-3297.1c0 4.1-3.3 5.8-7.5 3.7-4.1-2.1-7.5-7.1-7.5-11.2s3.3-5.8 7.5-3.7c4.1 2.1 7.5 7.1 7.5 11.2z" transform="matrix(.1 0 0 .1 696 376)"/><path class="st2" d="M-6214-3286.7c0 15.5-12.5 21.7-28 14s-28-26.5-28-42 12.5-21.7 28-14 28 26.5 28 42z" transform="matrix(.1 0 0 .1 696 376)"/><path class="st1" d="M-6034-3377l-126-63-140 70v15l18 9s38.4 18.8 41 20c8.6 4.1 16.1 7.8 23.6 16.9 8.6 10.5 12.8 26.5 12.5 36.6l30.9 15.5 140-70v-50z" transform="matrix(.1 0 0 .1 696 376)"/><path class="st6" d="M-6146.5-3419.1l86-43c1.9-1 4.2 0 4.9 2l14.7 44.1-105.6-3.1z" transform="matrix(.1 0 0 .1 696 376)"/><path class="st1" d="M-6160-3542.7l-140 70v100.7l126 63 140-70v-15c0-23.7-3.2-47.3-9.5-70.1l-6.5-23.6-110-55z" transform="matrix(.1 0 0 .1 696 376)"/><path class="st7" d="M-6168.4-3356.7c-1.5 0-2.7-1.1-2.9-2.5-1.6-12.2-4.1-24.4-7.3-36.2l-4.8-17.3c-.4-1.3.3-2.8 1.5-3.4l125.6-62.8c.4-.2.8-.3 1.3-.3 1.3 0 2.5.9 2.8 2.1l3.9 14.3c3.6 13.2 6.2 26.8 7.7 40.4.1 1.2-.5 2.4-1.6 2.9l-125 62.5c-.3.2-.8.3-1.2.3z" transform="matrix(.1 0 0 .1 696 376)"/><path class="st4" d="M-6055.1-3478.2c.9 0 1.6.6 1.9 1.4l3.9 14.3c3.6 13.1 6.2 26.7 7.7 40.2.1.8-.3 1.6-1.1 1.9l-125 62.5c-.3.1-.6.2-.9.2-.8 0-1.8-.6-1.9-1.7-1.6-12.3-4.1-24.5-7.4-36.3l-4.8-17.3c-.2-.9.2-1.8 1-2.2l125.8-62.8c.2-.2.5-.2.8-.2m0-2c-.6 0-1.2.1-1.7.4l-125.6 62.8c-1.7.8-2.5 2.7-2 4.5l4.8 17.3c3.3 11.9 5.7 23.9 7.3 36.1.3 2 2 3.4 3.9 3.4.6 0 1.2-.1 1.7-.4l125-62.5c1.5-.7 2.3-2.3 2.2-3.9-1.5-13.7-4.1-27.2-7.8-40.5l-3.9-14.3c-.6-1.8-2.2-2.9-3.9-2.9z" transform="matrix(.1 0 0 .1 696 376)"/><path class="st4" d="M-6039.6-3422.5c-.5-4.3-.8-6.2-.4-2.8.2 1.6-.7 3.2-2.2 3.9l-125 62.5c-2.2 1.1-4.8-.1-5.5-2.3l.3 2.1c.4 2.7 3.2 4.2 5.6 3l125-62.5c1.5-.7 2.4-2.3 2.2-3.9z" transform="matrix(.1 0 0 .1 696 376)"/><path class="st7" d="M-6183.7-3357.5c-.3 0-.7-.1-1-.2l-20.2-10.1c-2.5-1.3-4.1-3.8-4.1-6.7 0-4.4-2.4-8.4-6.4-10.3l-31.2-15.6c-.7-.4-1.2-1.1-1.2-1.9v-35.1c0-1.3 1.1-2.2 2.2-2.2.3 0 .7.1 1 .2l45.9 23c2.8 1.4 4.9 4 5.8 7l4.6 16.6c3 10.7 5.2 21.8 6.8 32.8.1.6-.1 1.3-.5 1.7-.4.5-1 .8-1.7.8z" transform="matrix(.1 0 0 .1 696 376)"/><path class="st4" d="M-6245.6-3438.6c.2 0 .4 0 .5.1l45.9 23c2.6 1.3 4.5 3.6 5.3 6.4l4.6 16.6c2.9 10.7 5.2 21.7 6.8 32.7.1.4-.1.8-.3.9-.2.3-.6.4-.9.4-.2 0-.4 0-.5-.1l-20.2-10.1c-2.2-1.1-3.6-3.3-3.6-5.8 0-4.8-2.7-9.1-6.9-11.2l-31.2-15.6c-.4-.2-.7-.6-.7-1.1v-35.1c0-.7.7-1.1 1.2-1.1m0-2c-1.7 0-3.2 1.3-3.2 3.2v35.1c0 1.2.7 2.3 1.8 2.8l31.2 15.6c3.6 1.8 5.8 5.4 5.8 9.4 0 3.2 1.8 6.1 4.7 7.5l20.2 10.1c.5.2 1 .3 1.4.3 1.8 0 3.4-1.6 3.2-3.6-1.6-11.1-3.8-22.1-6.8-32.9l-4.6-16.6c-.9-3.3-3.2-6.1-6.3-7.7l-45.9-23c-.5-.1-1-.2-1.5-.2z" transform="matrix(.1 0 0 .1 696 376)"/><path class="st8" d="M-6134.5-3411c35 0 67.6-4.8 94.7-13.1-1.5-13.1-4.1-26.1-7.6-38.9l-3.9-14.3c-.7-2.4-3.3-3.6-5.5-2.5l-125.6 62.8c-1.1.5-1.8 1.5-2.1 2.6 15.9 2.2 32.6 3.4 50 3.4z" transform="matrix(.1 0 0 .1 696 376)"/><path class="st4" d="M-6051.2-3467.4c1-.5 1.7-1.4 2-2.4l-2.1-7.6c-.7-2.4-3.3-3.6-5.5-2.5l-125.6 62.9c-1.7.8-2.5 2.7-2 4.5l2.3 8.4c1.1.7 2.6.9 3.9.2l127-63.5z" transform="matrix(.1 0 0 .1 696 376)"/><path class="st2" d="M-6300-3370v15l18 9s38.4 18.8 41 20c8.6 4.1 16.1 7.8 23.6 16.9 8.6 10.5 12.8 26.5 12.5 36.6l30.9 15.5v-50l-126-63z" transform="matrix(.1 0 0 .1 696 376)"/><path class="st9" d="M-6249-3391.5v5l10 5v-5z" transform="matrix(.1 0 0 .1 696 376)"/><path class="st10" d="M-6239-3379l-10-5v-2.5l10 5z" transform="matrix(.1 0 0 .1 696 376)"/><path class="st4" d="M-6101-3417.5c-.8-.7-1.9-.6-2.6.2l-34.2 38.9c-.7.8-.6 1.9.2 2.6.8.7 1.9.6 2.6-.2l9.2-10.5v9h2.3v-11.5h-.1l22.9-26c.5-.7.4-1.8-.3-2.5zm32.9-18c-.8-.7-1.9-.6-2.6.2l-34.2 38.9c-.7.8-.6 1.9.2 2.6.8.7 1.9.6 2.6-.2l8.2-9.3v9.9h2.3v-12.6l23.8-27c.5-.7.4-1.9-.3-2.5z" transform="matrix(.1 0 0 .1 696 376)"/><g transform="matrix(.1 0 0 .1 696 376)"><path opacity=".2" fill="none" stroke="#000" stroke-width=".849" stroke-miterlimit="10" d="M-6034-3409l-6.8 3.4-35.2 88-56 28-35.2-52.8-6.8 3.4"/><path class="st4" d="M-6058.9-3371.5l10-25.1-110.2 55.1 10 15.1zm-75.7 66.8l5.7 8.6 49.8-24.9 5.7-14.3zm64.7-39.3l5.5-13.8-79.2 39.6 5.5 8.3zm7.7 3.1l-5.5 13.8 33.7-16.9v-11z"/><path class="st8" d="M-6034-3384v-20l-3.7 1.8-10 25.1z"/><path class="st12" d="M-6034-3362v-11l-19.2 9.6-5.5 13.8z"/><path class="st8" d="M-6160.3-3320.8l-10-15.1-3.7 1.9v20z"/><path class="st4" d="M-6174-3285v11l33.7-16.8-5.5-8.3z"/><path class="st12" d="M-6149.3-3304.3l-5.5-8.3-19.2 9.6v11zm96.3-32.2l17-8.5v-7l-17 8.5zm-67 49.5l36-18v-7l-36 18zm-52 10l17-8.5v-7l-17 8.5z"/><ellipse transform="rotate(-50.856 -6158.526 -3286.471)" class="st9" cx="-6158.8" cy="-3286.6" rx="2.6" ry="1.7"/><ellipse transform="rotate(-50.856 -6160.941 -3286.465)" class="st9" cx="-6161.2" cy="-3286.6" rx="2.6" ry="1.7"/><ellipse transform="rotate(-50.856 -6157.332 -3304.276)" class="st9" cx="-6157.6" cy="-3304.4" rx="4.4" ry="2.9"/><ellipse transform="rotate(-50.856 -6161.392 -3304.295)" class="st9" cx="-6161.7" cy="-3304.5" rx="4.4" ry="2.9"/><ellipse transform="rotate(-50.856 -6050.338 -3358.267)" class="st9" cx="-6050.6" cy="-3358.4" rx="4.4" ry="2.9"/><ellipse transform="rotate(-50.856 -6046.397 -3362.286)" class="st9" cx="-6046.7" cy="-3362.4" rx="4.4" ry="2.9"/><ellipse transform="rotate(-50.856 -6166.526 -3282.472)" class="st9" cx="-6166.8" cy="-3282.6" rx="2.6" ry="1.7"/><ellipse transform="rotate(-50.856 -6168.94 -3282.465)" class="st9" cx="-6169.2" cy="-3282.6" rx="2.6" ry="1.7"/><ellipse transform="rotate(-50.856 -6038.532 -3346.462)" class="st9" cx="-6038.8" cy="-3346.6" rx="2.6" ry="1.7"/><ellipse transform="rotate(-50.856 -6040.947 -3346.455)" class="st9" cx="-6041.2" cy="-3346.6" rx="2.6" ry="1.7"/><ellipse transform="rotate(-50.856 -6046.532 -3342.463)" class="st9" cx="-6046.8" cy="-3342.6" rx="2.6" ry="1.7"/><ellipse transform="rotate(-50.856 -6048.947 -3342.456)" class="st9" cx="-6049.2" cy="-3342.6" rx="2.6" ry="1.7"/><path d="M-6173-3294l6-3v-5l-6 3zm132-66l6-3v-5l-6 3z" fill="#f90"/></g><path class="st1" d="M-6160-3579l-140 70v36l84 42 140-70c0-11.5-22.9-31.4-31.4-39l-52.6-39z" transform="matrix(.1 0 0 .1 696 376)"/><path class="st2" d="M-6300-3509v36l84 42c0-11.5-22.9-31.4-31.4-39l-52.6-39z" transform="matrix(.1 0 0 .1 696 376)"/><path class="st4" d="M-6193-3359c-1.1 0-2.2-.3-3.1-.9-1.8-1.1-2.8-3-2.8-5.1v-32.3c0-2.3 1.3-4.3 3.3-5.3l3.7-1.8.4.9-3.7 1.8c-1.7.8-2.7 2.5-2.7 4.4v32.3c0 1.7.9 3.3 2.4 4.2 1.5.9 3.3 1 4.8.2l.6-.3.4.9-.6.3c-.9.4-1.8.7-2.7.7z" transform="matrix(.1 0 0 .1 696 376)"/><path class="st4" d="M-6198.7-3398.1l.7-.3c2.4-.8 4.9 1 4.9 3.5v21.4c0 3.1-1.9 6-4.9 7.1l-.9.3c-2.4.9-5.1-.9-5.1-3.5v-21.4c.2-3.2 2.2-6.1 5.3-7.1z" transform="matrix(.1 0 0 .1 696 376)"/><path class="st9" d="M-6282-3363l2 1v-100.7l-2-1z" transform="matrix(.1 0 0 .1 696 376)"/><path class="st10" d="M-6284-3364l2 1v-100.7l-2-1z" transform="matrix(.1 0 0 .1 696 376)"/><path class="st3" d="M-6174-3257l140-70v-50l-140 70zm124-230.7l-140 70 6.5 23.6c6.3 22.8 9.5 46.4 9.5 70.1v15l140-70v-15c0-23.7-3.2-47.3-9.5-70.1l-6.5-23.6z" transform="matrix(.1 0 0 .1 696 376)"/><path class="st2" d="M-6190-3417.7l-110-55v100.7l126 63v-15c0-23.7-3.2-47.3-9.5-70.1l-6.5-23.6z" transform="matrix(.1 0 0 .1 696 376)"/><path class="st9" d="M-6192-3266l-2-1v-50l2 1z" transform="matrix(.1 0 0 .1 696 376)"/><path class="st10" d="M-6190-3265l-2-1v-50l2 1z" transform="matrix(.1 0 0 .1 696 376)"/></g></svg>