<svg xmlns="http://www.w3.org/2000/svg" width="80" height="103"><style>.st0{fill:#999}.st1{fill:#e5e5e5}.st2{opacity:.39;enable-background:new}.st4{fill:#fff}.st5{fill:#656565}.st6{fill:#39c}.st7,.st8{opacity:.15;enable-background:new}.st8{opacity:.1}.st9{fill:#baa794}.st12,.st16{enable-background:new}.st12{fill:#fff;opacity:.2}.st16{opacity:.3}.st17{fill:#825012}.st18{fill:#539b00}.st19{fill:#9c3}.st20{fill:#cc291f}.st21{fill:#fc0}</style><g id="i2223_1_"><path class="st0" d="M646-869l-4 2 28 14 4-2z" transform="matrix(-1 0 0 1 720 928)"/><path class="st1" d="M656-928l-16 24v36l2 1 32-16v-36l-16-8z" transform="matrix(-1 0 0 1 720 928)"/><path class="st2" d="M642-903l-2-1v36l2 1z" transform="matrix(-1 0 0 1 720 928)"/><path d="M674-883l-32 16v-36l16-24 16 8z" transform="matrix(-1 0 0 1 720 928)"/><path class="st1" d="M674-855l-28-14v-34l28 14z" transform="matrix(-1 0 0 1 720 928)"/><path class="st4" d="M657-878.5l-8-4v15l8 4z" transform="matrix(-1 0 0 1 720 928)"/><path class="st5" d="M650-881l6 3v14l-6-3z" transform="matrix(-1 0 0 1 720 928)"/><path class="st6" d="M651-879.5l4 2v4l-4-2z" transform="matrix(-1 0 0 1 720 928)"/><path class="st7" d="M651-879.5l4 2v1l-4-2z" transform="matrix(-1 0 0 1 720 928)"/><path class="st4" d="M667-890.5l-6-3v15l6 3z" transform="matrix(-1 0 0 1 720 928)"/><path class="st5" d="M662-892l4 2v14l-4-2z" transform="matrix(-1 0 0 1 720 928)"/><path class="st6" d="M663-890.5l2 1v12l-2-1z" transform="matrix(-1 0 0 1 720 928)"/><path class="st7" d="M663-890.5l2 1v1l-2-1z" transform="matrix(-1 0 0 1 720 928)"/><path class="st4" d="M672-888l-6-3v15l6 3z" transform="matrix(-1 0 0 1 720 928)"/><path class="st5" d="M667-889.5l4 2v14l-4-2z" transform="matrix(-1 0 0 1 720 928)"/><path class="st6" d="M668-888l2 1v12l-2-1z" transform="matrix(-1 0 0 1 720 928)"/><path class="st7" d="M668-888l2 1v1l-2-1z" transform="matrix(-1 0 0 1 720 928)"/><path class="st8" d="M646-903l28 14v6l-28-14zm0 17l28 14v6l-28-14z" transform="matrix(-1 0 0 1 720 928)"/><path class="st2" d="M674-855l-28-14v-34l28 14z" transform="matrix(-1 0 0 1 720 928)"/><path class="st9" d="M656-877l4-2v-17l-4 2z" transform="matrix(-1 0 0 1 720 928)"/><path opacity=".06" d="M656-877l4-2v-17l-4 2z" transform="matrix(-1 0 0 1 720 928)"/><path class="st0" d="M660-880l10 5v4l-14-7z" transform="matrix(-1 0 0 1 720 928)"/><path opacity=".6" fill="#39c" d="M656-885l14 7v6l-14-7z" transform="matrix(-1 0 0 1 720 928)"/><path class="st7" d="M663-881.3l7 3.3v6l-3-1.4z" transform="matrix(-1 0 0 1 720 928)"/><path class="st12" d="M656-885l3 1.4 5.3 8.6-8.3-4z" transform="matrix(-1 0 0 1 720 928)"/><path class="st1" d="M656-879l14 7v2l-14-7z" transform="matrix(-1 0 0 1 720 928)"/><path class="st9" d="M656-877l-14-7v-17l14 7zm14 24l-14-7v-17l14 7z" transform="matrix(-1 0 0 1 720 928)"/><path class="st5" d="M653-893.5l-8-4v11l8 4z" transform="matrix(-1 0 0 1 720 928)"/><path class="st4" d="M646-896l6 3v9l-6-3z" transform="matrix(-1 0 0 1 720 928)"/><path class="st6" d="M647-894.5l4 2v7l-4-2z" transform="matrix(-1 0 0 1 720 928)"/><path class="st7" d="M647-894.5l4 2v1l-4-2z" transform="matrix(-1 0 0 1 720 928)"/><path class="st5" d="M667-869.5l-8-4v11l8 4z" transform="matrix(-1 0 0 1 720 928)"/><path class="st4" d="M660-872l6 3v9l-6-3z" transform="matrix(-1 0 0 1 720 928)"/><path class="st6" d="M661-870.5l4 2v7l-4-2z" transform="matrix(-1 0 0 1 720 928)"/><path class="st7" d="M661-870.5l4 2v1l-4-2z" transform="matrix(-1 0 0 1 720 928)"/><path class="st1" d="M670-870l-14-7v-2l14 7zm0-17l-28-14v-2l28 14z" transform="matrix(-1 0 0 1 720 928)"/><path fill="#2d3134" d="M642-902.8l16-23.5 30 15.1-16 23.5z" transform="matrix(-1 0 0 1 720 928)"/><path d="M642-902.8l16-23.5 30 15.1-16 23.5z" transform="matrix(-1 0 0 1 720 928)" opacity=".39"/><path class="st12" d="M658-926.3l-.7 1.2 29.7 14.9 1-1z" transform="matrix(-1 0 0 1 720 928)"/><path class="st1" d="M686-913l-16 24v36l2 1 32-16v-36l-16-8z" transform="matrix(-1 0 0 1 720 928)"/><path class="st2" d="M672-888l-2-1v36l2 1z" transform="matrix(-1 0 0 1 720 928)"/><path d="M677.8-860.9c-.6.3-1.1 1-1.1 1.6 0 .6.5.8 1.1.5.6-.3 1.1-1 1.1-1.6 0-.6-.5-.8-1.1-.5zm22.5-10.3c.7-.4 1.3-1.2 1.3-1.9s-.6-1-1.3-.6c-.7.4-1.3 1.2-1.3 1.9s.6 1 1.3.6zm-25.6 3.9c.5-.2.9-.8.9-1.3s-.4-.7-.9-.4c-.5.2-.9.8-.9 1.3.1.4.5.6.9.4zm23.8-34.8c0-.7-.6-1-1.3-.6-.7.4-1.3 1.2-1.3 1.9s.6 1 1.3.6c.8-.3 1.3-1.2 1.3-1.9zm-1.2 23.3c0-.1-.1-.2-.2-.1s-.2.2-.2.3c0 .1.1.2.2.1s.2-.2.2-.3zm-9.8 16.8c0-.1-.1-.2-.2-.1s-.2.2-.2.3c0 .1.1.2.2.1s.2-.2.2-.3zm9.9-24.9c-.4.2-.6.6-.6 1s.3.5.6.3c.4-.2.6-.6.6-1s-.3-.5-.6-.3zm-6.8-10.6c0 .1.1.2.2.1s.2-.2.2-.3c0-.1-.1-.2-.2-.1-.1 0-.2.2-.2.3zm-8 1.6c.7-.4 1.3-1.2 1.3-1.9s-.6-1-1.3-.6c-.7.4-1.3 1.2-1.3 1.9 0 .6.6.9 1.3.6zm-6.3 9.1c-.7.4-1.3 1.2-1.3 1.9s.6 1 1.3.6c.7-.4 1.3-1.2 1.3-1.9s-.6-1-1.3-.6zm4.7 17.5c0-.6-.5-.8-1.1-.5-.6.3-1.1 1-1.1 1.6 0 .6.5.8 1.1.5.6-.3 1.1-1 1.1-1.6zm8.5-6.3c0-.6-.5-.8-1.1-.5-.6.3-1.1 1-1.1 1.6s.5.8 1.1.5c.6-.2 1.1-1 1.1-1.6zm-14.8 11.2c-.4.2-.6.6-.6 1s.3.5.6.3c.4-.2.6-.6.6-1s-.2-.5-.6-.3zm15.5-22.4c-.6.3-1.1 1-1.1 1.6 0 .6.5.8 1.1.5.6-.3 1.1-1 1.1-1.6-.1-.5-.5-.8-1.1-.5zm.6-18.4c0 .6.5.8 1.1.5.6-.3 1.1-1 1.1-1.6 0-.6-.5-.8-1.1-.5-.6.3-1.1 1-1.1 1.6zm-1.1 40.1c.5-.2.9-.8.9-1.3s-.4-.7-.9-.4c-.5.2-.9.8-.9 1.3.1.5.4.6.9.4zm9.7-29.8c-.2.1-.3.3-.3.5s.1.2.3.2c.2-.1.3-.3.3-.5 0-.3-.1-.3-.3-.2zm1.4 19.1c-.2.1-.3.3-.3.5s.1.2.3.2c.2-.1.3-.3.3-.5s-.2-.2-.3-.2zm-1.5-16.1c0-.2-.2-.3-.4-.2-.2.1-.4.3-.4.5s.2.3.4.2c.3-.1.4-.3.4-.5zm-13.7 11.4c0-.2-.2-.3-.4-.2-.2.1-.4.3-.4.5s.2.3.4.2.4-.3.4-.5zm-4.8-11.5c-.5.2-.9.8-.9 1.3s.4.7.9.4.9-.8.9-1.3-.4-.7-.9-.4z" transform="matrix(-1 0 0 1 720 928)"/><path d="M683.5-898c0 .7-.6 1.6-1.3 1.9-.2.1-.4.2-.6.1.2.1.6.1.9-.1.7-.4 1.3-1.2 1.3-1.9 0-.5-.3-.8-.7-.8.3.2.4.5.4.8zm1.7 17.3v.1c0 .2-.2.4-.4.5 0 .1.2.2.3.1.2-.1.4-.3.4-.5.1-.2-.1-.3-.3-.2zm-4-11.4c.1.1.2.2.2.4 0 .5-.4 1.1-.9 1.3-.1.1-.2.1-.3.1.2.1.4.1.7 0 .5-.2.9-.8.9-1.3-.1-.4-.3-.6-.6-.5zm-4.3 5.1c.2.1.4.4.4.7 0 .7-.6 1.6-1.3 1.9-.2.1-.4.2-.6.1.2.1.6.1.9-.1.7-.4 1.3-1.2 1.3-1.9 0-.4-.3-.7-.7-.7zm12 10.8c.2.1.3.3.3.6 0 .6-.5 1.3-1.1 1.6-.2.1-.3.1-.5.1.2.1.5.1.8 0 .6-.3 1.1-1 1.1-1.6 0-.5-.3-.7-.6-.7zm8.2-2.7c-.1.1-.2.2-.2.3 0 .1.1.2.2.1s.2-.2.2-.3c0-.1-.1-.2-.2-.1zm-4.4-27.5c0 .6-.5 1.3-1.1 1.6-.2.1-.3.1-.5.1.2.1.5.1.8 0 .6-.3 1.1-1 1.1-1.6 0-.4-.3-.7-.6-.7.2.1.3.3.3.6zm8.4 30.8c0-.2-.1-.2-.3-.2 0 .2-.1.3-.3.4 0 .1.1.2.3.1.1.1.3-.1.3-.3zm-10.5-21.9c0 .1.1.2.2.1s.2-.2.2-.3c0-.1-.1-.2-.2-.1-.1 0-.2.2-.2.3zm7.6-4.7c0 .7-.6 1.6-1.3 1.9-.2.1-.4.2-.6.1.2.1.6.1.9-.1.7-.4 1.3-1.2 1.3-1.9 0-.5-.3-.8-.7-.8.3.2.4.5.4.8zm.8 10.1c0 .3-.2.5-.4.6 0 .1.2.2.3.1.2-.1.4-.3.4-.5s-.1-.3-.3-.2zM680.4-870c.2.1.3.3.3.6 0 .6-.5 1.3-1.1 1.6-.2.1-.3.1-.5.1.2.1.5.1.8 0 .6-.3 1.1-1 1.1-1.6 0-.5-.3-.7-.6-.7zm-2.1 8.9c.2.1.3.3.3.6 0 .6-.5 1.3-1.1 1.6-.2.1-.3.1-.5.1.2.1.5.1.8 0 .6-.3 1.1-1 1.1-1.6 0-.4-.2-.7-.6-.7zm19.2-25.9c.1.1.1.2.1.3 0 .4-.3.8-.6 1-.1 0-.1 0-.2.1.1.1.3.1.5 0 .4-.2.6-.6.6-1 .1-.3-.1-.4-.4-.4zm-10.3 24.9c-.1.1-.2.2-.2.3 0 .1.1.2.2.1s.2-.2.2-.3 0-.2-.2-.1zm-12.1-7.1c.1.1.2.2.2.4 0 .5-.4 1.1-.9 1.3-.1.1-.2.1-.3.1.2.1.4.1.7 0 .5-.2.9-.8.9-1.3-.1-.3-.3-.5-.6-.5zm15.5-17.7c.2.1.3.3.3.6 0 .6-.5 1.3-1.1 1.6-.2.1-.3.1-.5.1.2.1.5.1.8 0 .6-.3 1.1-1 1.1-1.6 0-.5-.2-.7-.6-.7zm10.3 13c.2.1.4.4.4.7 0 .7-.6 1.6-1.3 1.9-.2.1-.4.2-.6.1.2.1.6.1.9-.1.7-.4 1.3-1.2 1.3-1.9 0-.4-.3-.7-.7-.7zm-26 9.5c.1.1.1.2.1.3 0 .4-.3.8-.6 1-.1 0-.1 0-.2.1.1.1.3.1.5 0 .4-.2.6-.6.6-1 .1-.3-.1-.5-.4-.4zm15.1-2.5c.1.1.2.2.2.4 0 .5-.4 1.1-.9 1.3-.1.1-.2.1-.3.1.2.1.4.1.7 0 .5-.2.9-.8.9-1.3 0-.4-.2-.6-.6-.5zm9.4-28c0 .2-.1.4-.3.5 0 .1.1.2.3.1.2-.1.3-.3.3-.5s-.1-.2-.3-.1z" transform="matrix(-1 0 0 1 720 928)"/><path d="M704-868l-32 16v-36l16-24 16 8z" transform="matrix(-1 0 0 1 720 928)" opacity=".06"/><path class="st2" d="M670-887v-2l-28-14v19l14 7v17l14 7v-25l-14-7v-9z" transform="matrix(-1 0 0 1 720 928)"/><path class="st0" d="M646-869l-4 2 14 7v-4z" transform="matrix(-1 0 0 1 720 928)"/><path class="st8" d="M646-869l-4 2 14 7v-4z" transform="matrix(-1 0 0 1 720 928)"/></g><g transform="translate(680 976)" id="i2344_1_"><ellipse class="st16" cx="-623.5" cy="-877" rx="7.5" ry="4"/><path class="st17" d="M-622-901v24c0 .6-.7 1-1.5 1s-1.5-.4-1.5-1v-24h3z"/><circle class="st18" cx="-614.5" cy="-902.5" r="6.5"/><circle class="st18" cx="-618" cy="-911" r="9"/><path class="st17" d="M-624-888.6c-2.6 0-3-.9-3-3.4v-8h-1v10c0 1.7 1.3 3 3 3h1v-1.6zm1 1.4c1.7 0 3-.4 3-2.1v-9.7h1v10c0 1.7-1.3 3-3 3h-1v-1.2z"/><path class="st17" d="M-627-890.2c-1.7 0-2-1.3-2-2.1v-9.7h-1v10c0 1.7 1.3 3 3 3v-1.2z"/><circle class="st18" cx="-628" cy="-901" r="9"/><circle class="st18" cx="-633" cy="-905" r="6"/><path class="st17" d="M-628-901.2c-1.7 0-3-.4-3-2.1v-2.7h-1v3c0 1.7 1.3 3 3 3h1v-1.2z"/><circle class="st18" cx="-629" cy="-913" r="8"/><circle class="st18" cx="-625" cy="-917" r="8"/><circle class="st18" cx="-618.5" cy="-919.5" r="4.5"/><path class="st12" d="M-632.9-911c2.2 0 4.1 1.3 4.9 3.1.3-.1.7-.1 1.1-.1 1.8 0 3.4.9 4.4 2.2-.4-1.8-2-3.2-3.9-3.2h-.1c-.5-2.3-2.5-4-4.9-4-2 0-3.7 1.2-4.5 2.9.8-.6 1.9-.9 3-.9z"/><path class="st17" d="M-625-913.6c.2.2.5.4.7.6h.3v-3c-.3 0-.7-.1-1-.2v2.6z"/><path class="st12" d="M-624.5-921c2.4 0 4.3 1.9 4.5 4.2.5-.1 1-.2 1.5-.2 2.5 0 4.6 1.6 5.3 3.9.1-.4.2-.9.2-1.4 0-2.5-2-4.5-4.5-4.5-.5 0-1 .1-1.5.3-.1-1.8-1.6-3.3-3.5-3.3-1 0-1.9.4-2.5 1h.5z"/><path class="st16" d="M-609.1-909.6c-1.7 1.9-4.1 3.1-6.8 3.1h-.6c1 1.1 1.6 2.4 1.7 3.9 2.9-1.1 5.2-3.8 5.7-7zm-2.4 10.3c.3.7.4 1.5.5 2.3 1.7-1.1 2.9-2.9 3-5-.8 1.3-2.1 2.2-3.5 2.7zm-21.8-11.7c-1.6-1.4-2.7-3.5-2.7-5.9-.6 1.1-1 2.5-1 3.9 0 1.1.2 2.1.6 3.1.9-.7 2-1 3.1-1.1z"/><path class="st17" d="M-618-909.4c0 1.7-1.3 2.1-3 2.1v1.3h1c1.7 0 3-1.3 3-3v-2c-.3 0-.7-.1-1-.2v1.8z"/><circle class="st18" cx="-620.2" cy="-898.2" r="9.3"/><path class="st12" d="M-624-901c1.2 0 2.3.3 3.3.8 1.2-1.1 2.9-1.8 4.7-1.8 1.6 0 3.1.5 4.2 1.4-1.1-2-3.3-3.4-5.7-3.4-1.6 0-3.1.6-4.2 1.6-.7-.4-1.5-.6-2.3-.6-2.4 0-4.4 1.7-4.9 4 1.3-1.2 3-2 4.9-2z"/><path class="st16" d="M-619.2-891c-3.8 0-7-2-8.8-5h-.9c-3.5 0-6.5-2-8-4.9 0 4.9 4 8.9 8.9 8.9h.9c1.7 1.9 4.1 3 6.8 3 3.6 0 6.6-2 8.2-4.9-1.8 1.8-4.4 2.9-7.1 2.9z"/></g><g transform="translate(640 1000)" id="i2346_1_"><path class="st19" d="M-624-932l16 8-16 8-16-8z"/><path class="st19" d="M-624-932l16 8-16 8-16-8z"/><path class="st19" d="M-624-932l16 8-16 8-16-8z"/><path class="st19" d="M-624-932l16 8-16 8-16-8z"/><ellipse class="st18" cx="-630" cy="-927" rx="2" ry="1"/><ellipse class="st18" cx="-633" cy="-922" rx="2" ry="1"/><ellipse class="st18" cx="-624" cy="-924" rx="2" ry="1"/><ellipse class="st18" cx="-622" cy="-929" rx="2" ry="1"/><ellipse class="st18" cx="-616" cy="-923" rx="2" ry="1"/><ellipse class="st18" cx="-624" cy="-918" rx="2" ry="1"/><ellipse class="st20" cx="-632" cy="-925.5" rx="3" ry="1.5"/><ellipse class="st21" cx="-632" cy="-925.5" rx="1" ry=".5"/><ellipse class="st20" cx="-624" cy="-929.5" rx="3" ry="1.5"/><ellipse class="st21" cx="-624" cy="-929.5" rx="1" ry=".5"/><ellipse class="st20" cx="-621" cy="-925.5" rx="3" ry="1.5"/><ellipse class="st21" cx="-621" cy="-925.5" rx="1" ry=".5"/><ellipse class="st20" cx="-614" cy="-923.5" rx="3" ry="1.5"/><ellipse class="st21" cx="-614" cy="-923.5" rx="1" ry=".5"/><ellipse class="st20" cx="-622" cy="-919.5" rx="3" ry="1.5"/><ellipse class="st21" cx="-622" cy="-919.5" rx="1" ry=".5"/><ellipse class="st20" cx="-630" cy="-921.5" rx="3" ry="1.5"/><ellipse class="st21" cx="-630" cy="-921.5" rx="1" ry=".5"/></g></svg>