<svg xmlns="http://www.w3.org/2000/svg" width="132" height="105"><style>.st0{fill:#999}.st1{fill:#e5e5e5}.st2{opacity:6.000000e-02;enable-background:new}.st4{fill:#fff}.st5{fill:#656565}.st6{fill:#39c}.st7,.st8{opacity:.15;enable-background:new}.st8{opacity:.1}.st9{fill:#baa794}.st10,.st12{opacity:.39;enable-background:new}.st12{opacity:.2;fill:#fff}.st13{fill:#2d3134}.st16{fill:#f8ebcb}.st17{fill:#825012}.st18{opacity:.3;enable-background:new}.st19{fill:#762c07}.st20{opacity:.2;enable-background:new}.st21{fill:#fc0}.st22{fill:#cc291f}.st23,.st24{opacity:.11;enable-background:new}.st24{opacity:.29}.st25{fill:#539b00}</style><g id="i2213_1_"><path class="st0" d="M-794-805l-4 2 28 14 4-2z" transform="translate(800 864)"/><path class="st1" d="M-784-864l-16 24v36l2 1 32-16v-36l-16-8z" transform="translate(800 864)"/><path class="st2" d="M-798-839l-2-1v36l2 1z" transform="translate(800 864)"/><path d="M-766-819l-32 16v-36l16-24 16 8z" transform="translate(800 864)"/><path class="st1" d="M-766-791l-28-14v-34l28 14z" transform="translate(800 864)"/><path class="st4" d="M-783-814.5l-8-4v15l8 4z" transform="translate(800 864)"/><path class="st5" d="M-790-817l6 3v14l-6-3z" transform="translate(800 864)"/><path class="st6" d="M-789-815.5l4 2v4l-4-2z" transform="translate(800 864)"/><path class="st7" d="M-789-815.5l4 2v1l-4-2z" transform="translate(800 864)"/><path class="st4" d="M-773-826.5l-6-3v15l6 3z" transform="translate(800 864)"/><path class="st5" d="M-778-828l4 2v14l-4-2z" transform="translate(800 864)"/><path class="st6" d="M-777-826.5l2 1v12l-2-1z" transform="translate(800 864)"/><path class="st7" d="M-777-826.5l2 1v1l-2-1z" transform="translate(800 864)"/><path class="st4" d="M-768-824l-6-3v15l6 3z" transform="translate(800 864)"/><path class="st5" d="M-773-825.5l4 2v14l-4-2z" transform="translate(800 864)"/><path class="st6" d="M-772-824l2 1v12l-2-1z" transform="translate(800 864)"/><path class="st7" d="M-772-824l2 1v1l-2-1z" transform="translate(800 864)"/><path class="st8" d="M-794-839l28 14v6l-28-14zm0 17l28 14v6l-28-14z" transform="translate(800 864)"/><path class="st2" d="M-766-791l-28-14v-34l28 14z" transform="translate(800 864)"/><path class="st9" d="M-784-813l4-2v-17l-4 2z" transform="translate(800 864)"/><path class="st10" d="M-784-813l4-2v-17l-4 2z" transform="translate(800 864)"/><path class="st0" d="M-780-816l10 5v4l-14-7z" transform="translate(800 864)"/><path opacity=".6" fill="#39c" d="M-784-821l14 7v6l-14-7z" transform="translate(800 864)"/><path class="st7" d="M-777-817.3l7 3.3v6l-3-1.4z" transform="translate(800 864)"/><path class="st12" d="M-784-821l3 1.4 5.3 8.6-8.3-4z" transform="translate(800 864)"/><path class="st1" d="M-784-815l14 7v2l-14-7z" transform="translate(800 864)"/><path class="st9" d="M-784-813l-14-7v-17l14 7zm14 24l-14-7v-17l14 7z" transform="translate(800 864)"/><path class="st5" d="M-787-829.5l-8-4v11l8 4z" transform="translate(800 864)"/><path class="st4" d="M-794-832l6 3v9l-6-3z" transform="translate(800 864)"/><path class="st6" d="M-793-830.5l4 2v7l-4-2z" transform="translate(800 864)"/><path class="st7" d="M-793-830.5l4 2v1l-4-2z" transform="translate(800 864)"/><path class="st5" d="M-773-805.5l-8-4v11l8 4z" transform="translate(800 864)"/><path class="st4" d="M-780-808l6 3v9l-6-3z" transform="translate(800 864)"/><path class="st6" d="M-779-806.5l4 2v7l-4-2z" transform="translate(800 864)"/><path class="st7" d="M-779-806.5l4 2v1l-4-2z" transform="translate(800 864)"/><path class="st1" d="M-770-806l-14-7v-2l14 7zm0-17l-28-14v-2l28 14z" transform="translate(800 864)"/><path class="st13" d="M-798-838.8l16-23.5 30 15.1-16 23.5z" transform="translate(800 864)"/><path d="M-798-838.8l16-23.5 30 15.1-16 23.5z" transform="translate(800 864)" opacity=".06"/><path class="st12" d="M-782-862.3l-.7 1.2 29.7 14.9 1-1z" transform="translate(800 864)"/><path class="st1" d="M-754-849l-16 24v36l2 1 32-16v-36l-16-8z" transform="translate(800 864)"/><path class="st2" d="M-768-824l-2-1v36l2 1z" transform="translate(800 864)"/><path d="M-762.2-796.9c-.6.3-1.1 1-1.1 1.6 0 .6.5.8 1.1.5.6-.3 1.1-1 1.1-1.6 0-.6-.5-.8-1.1-.5zm22.5-10.3c.7-.4 1.3-1.2 1.3-1.9s-.6-1-1.3-.6c-.7.4-1.3 1.2-1.3 1.9s.6 1 1.3.6zm-25.6 3.9c.5-.2.9-.8.9-1.3s-.4-.7-.9-.4c-.5.2-.9.8-.9 1.3.1.4.5.6.9.4zm23.8-34.8c0-.7-.6-1-1.3-.6-.7.4-1.3 1.2-1.3 1.9s.6 1 1.3.6c.8-.3 1.3-1.2 1.3-1.9zm-1.2 23.3c0-.1-.1-.2-.2-.1s-.2.2-.2.3c0 .1.1.2.2.1s.2-.2.2-.3zm-9.8 16.8c0-.1-.1-.2-.2-.1s-.2.2-.2.3c0 .1.1.2.2.1s.2-.2.2-.3zm9.9-24.9c-.4.2-.6.6-.6 1s.3.5.6.3c.4-.2.6-.6.6-1s-.3-.5-.6-.3zm-6.8-10.6c0 .1.1.2.2.1s.2-.2.2-.3c0-.1-.1-.2-.2-.1-.1 0-.2.2-.2.3zm-8 1.6c.7-.4 1.3-1.2 1.3-1.9s-.6-1-1.3-.6c-.7.4-1.3 1.2-1.3 1.9 0 .6.6.9 1.3.6zm-6.3 9.1c-.7.4-1.3 1.2-1.3 1.9s.6 1 1.3.6c.7-.4 1.3-1.2 1.3-1.9s-.6-1-1.3-.6zm4.7 17.5c0-.6-.5-.8-1.1-.5-.6.3-1.1 1-1.1 1.6 0 .6.5.8 1.1.5.6-.3 1.1-1 1.1-1.6zm8.5-6.3c0-.6-.5-.8-1.1-.5-.6.3-1.1 1-1.1 1.6s.5.8 1.1.5c.6-.2 1.1-1 1.1-1.6zm-14.8 11.2c-.4.2-.6.6-.6 1s.3.5.6.3c.4-.2.6-.6.6-1s-.2-.5-.6-.3zm15.5-22.4c-.6.3-1.1 1-1.1 1.6 0 .6.5.8 1.1.5.6-.3 1.1-1 1.1-1.6-.1-.5-.5-.8-1.1-.5zm.6-18.4c0 .6.5.8 1.1.5.6-.3 1.1-1 1.1-1.6 0-.6-.5-.8-1.1-.5-.6.3-1.1 1-1.1 1.6zm-1.1 40.1c.5-.2.9-.8.9-1.3s-.4-.7-.9-.4c-.5.2-.9.8-.9 1.3.1.5.4.6.9.4zm9.7-29.8c-.2.1-.3.3-.3.5s.1.2.3.2c.2-.1.3-.3.3-.5 0-.3-.1-.3-.3-.2zm1.4 19.1c-.2.1-.3.3-.3.5s.1.2.3.2c.2-.1.3-.3.3-.5s-.2-.2-.3-.2zm-1.5-16.1c0-.2-.2-.3-.4-.2-.2.1-.4.3-.4.5s.2.3.4.2c.3-.1.4-.3.4-.5zm-13.7 11.4c0-.2-.2-.3-.4-.2-.2.1-.4.3-.4.5s.2.3.4.2.4-.3.4-.5zm-4.8-11.5c-.5.2-.9.8-.9 1.3s.4.7.9.4.9-.8.9-1.3-.4-.7-.9-.4z" transform="translate(800 864)"/><path d="M-756.5-834c0 .7-.6 1.6-1.3 1.9-.2.1-.4.2-.6.1.2.1.6.1.9-.1.7-.4 1.3-1.2 1.3-1.9 0-.5-.3-.8-.7-.8.3.2.4.5.4.8zm1.7 17.3v.1c0 .2-.2.4-.4.5 0 .1.2.2.3.1.2-.1.4-.3.4-.5.1-.2-.1-.3-.3-.2zm-4-11.4c.1.1.2.2.2.4 0 .5-.4 1.1-.9 1.3-.1.1-.2.1-.3.1.2.1.4.1.7 0 .5-.2.9-.8.9-1.3-.1-.4-.3-.6-.6-.5zm-4.3 5.1c.2.1.4.4.4.7 0 .7-.6 1.6-1.3 1.9-.2.1-.4.2-.6.1.2.1.6.1.9-.1.7-.4 1.3-1.2 1.3-1.9 0-.4-.3-.7-.7-.7zm12 10.8c.2.1.3.3.3.6 0 .6-.5 1.3-1.1 1.6-.2.1-.3.1-.5.1.2.1.5.1.8 0 .6-.3 1.1-1 1.1-1.6 0-.5-.3-.7-.6-.7zm8.2-2.7c-.1.1-.2.2-.2.3 0 .1.1.2.2.1s.2-.2.2-.3c0-.1-.1-.2-.2-.1zm-4.4-27.5c0 .6-.5 1.3-1.1 1.6-.2.1-.3.1-.5.1.2.1.5.1.8 0 .6-.3 1.1-1 1.1-1.6 0-.4-.3-.7-.6-.7.2.1.3.3.3.6zm8.4 30.8c0-.2-.1-.2-.3-.2 0 .2-.1.3-.3.4 0 .1.1.2.3.1.1.1.3-.1.3-.3zm-10.5-21.9c0 .1.1.2.2.1s.2-.2.2-.3c0-.1-.1-.2-.2-.1-.1 0-.2.2-.2.3zm7.6-4.7c0 .7-.6 1.6-1.3 1.9-.2.1-.4.2-.6.1.2.1.6.1.9-.1.7-.4 1.3-1.2 1.3-1.9 0-.5-.3-.8-.7-.8.3.2.4.5.4.8zm.8 10.1c0 .3-.2.5-.4.6 0 .1.2.2.3.1.2-.1.4-.3.4-.5s-.1-.3-.3-.2zm-18.6 22.1c.2.1.3.3.3.6 0 .6-.5 1.3-1.1 1.6-.2.1-.3.1-.5.1.2.1.5.1.8 0 .6-.3 1.1-1 1.1-1.6 0-.5-.3-.7-.6-.7zm-2.1 8.9c.2.1.3.3.3.6 0 .6-.5 1.3-1.1 1.6-.2.1-.3.1-.5.1.2.1.5.1.8 0 .6-.3 1.1-1 1.1-1.6 0-.4-.2-.7-.6-.7zm19.2-25.9c.1.1.1.2.1.3 0 .4-.3.8-.6 1-.1 0-.1 0-.2.1.1.1.3.1.5 0 .4-.2.6-.6.6-1 .1-.3-.1-.4-.4-.4zm-10.3 24.9c-.1.1-.2.2-.2.3 0 .1.1.2.2.1s.2-.2.2-.3 0-.2-.2-.1zm-12.1-7.1c.1.1.2.2.2.4 0 .5-.4 1.1-.9 1.3-.1.1-.2.1-.3.1.2.1.4.1.7 0 .5-.2.9-.8.9-1.3-.1-.3-.3-.5-.6-.5zm15.5-17.7c.2.1.3.3.3.6 0 .6-.5 1.3-1.1 1.6-.2.1-.3.1-.5.1.2.1.5.1.8 0 .6-.3 1.1-1 1.1-1.6 0-.5-.2-.7-.6-.7zm10.3 13c.2.1.4.4.4.7 0 .7-.6 1.6-1.3 1.9-.2.1-.4.2-.6.1.2.1.6.1.9-.1.7-.4 1.3-1.2 1.3-1.9 0-.4-.3-.7-.7-.7zm-26 9.5c.1.1.1.2.1.3 0 .4-.3.8-.6 1-.1 0-.1 0-.2.1.1.1.3.1.5 0 .4-.2.6-.6.6-1 .1-.3-.1-.5-.4-.4zm15.1-2.5c.1.1.2.2.2.4 0 .5-.4 1.1-.9 1.3-.1.1-.2.1-.3.1.2.1.4.1.7 0 .5-.2.9-.8.9-1.3 0-.4-.2-.6-.6-.5zm9.4-28c0 .2-.1.4-.3.5 0 .1.1.2.3.1.2-.1.3-.3.3-.5s-.1-.2-.3-.1z" transform="translate(800 864)"/><path d="M-736-804l-32 16v-36l16-24 16 8z" transform="translate(800 864)" opacity=".39"/><path class="st2" d="M-770-823v-2l-28-14v19l14 7v17l14 7v-25l-14-7v-9z" transform="translate(800 864)"/><path class="st0" d="M-794-805l-4 2 14 7v-4z" transform="translate(800 864)"/><path class="st8" d="M-794-805l-4 2 14 7v-4z" transform="translate(800 864)"/></g><g id="i2215_1_"><path class="st16" d="M-768-824l16-24 16 8v20l-32 16z" transform="translate(832 896)"/><path class="st4" d="M-768-804l2-1v-22l-2 3zm32-16l-2 1v-22l2 1zm-10-6l-12 6v-7l12-6z" transform="translate(832 896)"/><path class="st17" d="M-747-826.5l-10 5v-5l10-5z" transform="translate(832 896)"/><path class="st6" d="M-756-823l8-4v-3l-8 4z" transform="translate(832 896)"/><path class="st7" d="M-748-829l-8 4v-1l8-4z" transform="translate(832 896)"/><path class="st18" d="M-748-827v-4l1-.5v5l-10 5v-1z" transform="translate(832 896)"/><path class="st16" d="M-800-840l32 16v20l-32-16z" transform="translate(832 896)"/><path class="st4" d="M-800-820l2 1v-20l-2-1zm30 15l2 1v-20l-2-1z" transform="translate(832 896)"/><path class="st18" d="M-770-805l-28-14v-1l28 14z" transform="translate(832 896)"/><path class="st4" d="M-773-824.5l-22-11v18l22 11z" transform="translate(832 896)"/><path class="st17" d="M-774-807l-20-10v-17l20 10z" transform="translate(832 896)"/><path class="st18" d="M-774-808l-20-10v-1l20 10zm0-2l-20-10v-1l20 10zm0-2l-20-10v-1l20 10zm0-2l-20-10v-1l20 10zm0-2l-20-10v-1l20 10zm0-2l-20-10v-1l20 10zm0-2l-20-10v-1l20 10zm0-2l-20-10v-1l20 10z" transform="translate(832 896)"/><path class="st2" d="M-800-840l32 16v20l-32-16z" transform="translate(832 896)"/><path class="st19" d="M-768-824l-32-16 16-24 32 16z" transform="translate(832 896)"/><path class="st2" d="M-768-824l-32-16 16-24 32 16z" transform="translate(832 896)"/><path class="st12" d="M-785.1-862.4l32 16 1.1-1.6-32-16z" transform="translate(832 896)"/><path class="st18" d="M-738-819l-28 14v-1l28-14z" transform="translate(832 896)"/><path class="st19" d="M-768-824l16-24 16 8h-1l-15-7-15 23z" transform="translate(832 896)"/><path class="st10" d="M-768-824l16-24 16 8v20l-32 16z" transform="translate(832 896)"/></g><g transform="translate(872 928)" id="i2242_1_"><ellipse class="st0" cx="-792" cy="-833.7" rx="1.5" ry=".8"/><path class="st0" d="M-792-861l4-2-4-4-4 4zm1 3.7h-2v23.5c0 .3.4.5 1 .5s1-.2 1-.5v-23.5z"/><path class="st20" d="M-791-857.3h-2v23.5c0 .3.4.5 1 .5s1-.2 1-.5v-23.5z"/><path class="st0" d="M-792-833c-.8 0-1.5-.3-1.5-.8v10c0 .5.7.8 1.5.8s1.5-.3 1.5-.8v-10c0 .5-.7.8-1.5.8z"/><path class="st20" d="M-792-833c-.8 0-1.5-.3-1.5-.8v10c0 .5.7.8 1.5.8s1.5-.3 1.5-.8v-10c0 .5-.7.8-1.5.8z"/><path class="st0" d="M-792-861l-4-2 2 7 2 1 2-1 2-7z"/><path class="st21" d="M-791.5-860.7l2.7-1.3-1.6 5.7-1.1.5z"/><path class="st7" d="M-791-861l2.2-1-1.6 5.7z"/><path class="st21" d="M-793.6-856.3l-1.6-5.7 2.7 1.3v4.9z"/><path class="st12" d="M-793.6-856.3l-1.6-5.7 2.7 6.2z"/><path class="st10" d="M-792-855l2-1 2-7-4 2z"/><path class="st2" d="M-792-855l-2-1-2-7 4 2z"/><circle class="st0" cx="-792" cy="-867" r="1"/></g><g transform="matrix(.1 0 0 .1 912 936)" id="i2285_1_"><path class="st20" d="M-7961.2-8519.1l6.8-3.6 141.4 71.3-6.8 3.6z"/><path transform="rotate(-44.591 -7869.775 -8540.261)" class="st22" d="M-7893.4-8541.6h48.2v3.6h-48.2z"/><path transform="rotate(-62.243 -7911.14 -8537.229)" class="st22" d="M-7912.1-8564.9h2.6v55.9h-2.6z"/><path class="st13" d="M-7886.3-8523.7l-2.2-5.1-8.7-8.1-5.8-4.9c-.1-.1-.2-.3-.2-.5s.1-.3.3-.4l1.6-.7.4.9-.9.3 5.2 4.4 8.8 8.1s.1.1.1.2l2.2 5.2-.8.6z"/><path class="st13" d="M-7898.8-8540.5l-5.2-2.6v-1.9l9.1-4.6 5.2 2.6v2z"/><path class="st23" d="M-7904-8545v1.9l5.2 2.6v-1.9z"/><path class="st22" d="M-7889.7-8547v2l-9.1 4.5v-1.9z"/><path class="st24" d="M-7889.7-8547v2l-9.1 4.5v-1.9z"/><path class="st22" d="M-7826.7-8495.4c-.5.1-1-.2-1.1-.7-4.1-14.6-11.7-41.4-12.7-44-1-2.5-7.8-6-9-6.4l.7-2.8c.5.1 9.3 4 10.9 8.2 1.2 3.2 10.1 37.9 11.9 44.5.2.5-.1 1.1-.7 1.2z"/><path class="st5" d="M-7851.1-8484.6c-9.3-18.6-8.7-38.1.9-45.1-.9.2-1.8.6-2.6 1-11.5 5.7-12.8 26.5-2.8 46.3 9.9 19.8 27.2 31.2 38.7 25.5.7-.3 1.3-.7 1.9-1.2-11.3 3-26.9-8.1-36.1-26.5z"/><path class="st20" d="M-7851.1-8484.6c-9.3-18.6-8.7-38.1.9-45.1-.9.2-1.8.6-2.6 1-11.5 5.7-12.8 26.5-2.8 46.3 9.9 19.8 27.2 31.2 38.7 25.5.7-.3 1.3-.7 1.9-1.2-11.3 3-26.9-8.1-36.1-26.5z"/><path class="st13" d="M-7829.7-8458.8h-.2l3.3-37.1 1.9-25.7h.2l-1.9 25.7z"/><path class="st13" d="M-7811.1-8459.1l-15.5-36.7-14.4-35.2.2-.1 14.4 35.2 15.5 36.7z"/><path class="st13" d="M-7843.7-8470.8l-.2-.1 17.3-25 10.3-14.4.2.1-10.3 14.4z"/><path class="st13" d="M-7805.5-8474.4l-21.1-21.4-30.3-27.3.1-.2 30.4 27.3 21 21.5z"/><path class="st13" d="M-7806.1-8487l-20.5-8.8-33.2-13.7.1-.2 33.2 13.7 20.5 8.8z"/><path class="st13" d="M-7826.5-8495.8l-30.7-.3v-.3l30.7.4h19.4v.2z"/><path class="st13" d="M-7851.9-8482.2l-.1-.2 25.4-13.6 13.6-7.5.1.2-13.6 7.5z"/><path class="st13" d="M-7807.4-8506.5c-11.1-22.2-31.3-34.7-45-27.8-13.8 6.9-15.9 30.5-4.8 52.7 11.1 22.2 31.3 34.7 45 27.8 13.8-6.9 15.9-30.5 4.8-52.7zm-9.5 49.5c-11.5 5.7-28.8-5.7-38.7-25.5s-8.6-40.5 2.8-46.3c11.5-5.7 28.8 5.7 38.7 25.5 10 19.9 8.7 40.6-2.8 46.3z"/><ellipse transform="rotate(-26.556 -7826.82 -8495.708)" class="st0" cx="-7826.6" cy="-8496" rx="2.1" ry="3.6"/><path class="st0" d="M-7837-8493.6l8.5-4.3c1.2-.6 1.8.3 2.4 1.5.6 1.2.9 2.2-.3 2.8l-8.5 4.3-2.1-4.3z"/><path class="st20" d="M-7825.8-8495.9c-.1.2-.3.4-.7.6l-8.5 4.3-1.4-2.9-.5.3 2.1 4.3 8.5-4.3c1-.5.9-1.3.5-2.3z"/><path class="st13" d="M-7836.6-8463.3h-.2l.2-27.9 1.8-35.2h.2l-1.8 35.2z"/><path class="st13" d="M-7824.7-8457.4l-11.9-33.8-9.3-39.1h.2l9.3 39 11.9 33.8z"/><path class="st13" d="M-7848.3-8474.6l-.2-.2 11.9-16.5 14.8-23.5.2.1-14.8 23.5z"/><path class="st13" d="M-7814.6-8458.4l-22-32.8-18.4-34.8.2-.1 18.4 34.8 21.9 32.8z"/><path class="st13" d="M-7807.8-8465.2l-28.8-25.9-23.9-26.5.2-.1 23.9 26.4 28.8 26z"/><path class="st13" d="M-7805.8-8477.2l-30.7-13.9-24.6-13.1.1-.2 24.6 13.1 30.7 13.9z"/><path class="st13" d="M-7856.8-8488.9v-.2l20.3-2.2 27.5-4.1v.3l-27.5 4z"/><path class="st0" d="M-7823.4-8455c-5.4 0-11.6-2.7-17.4-7.5-6-4.9-11.2-11.8-15.2-19.8-10-20-8.6-41.1 3.1-46.9 2-1 4.3-1.5 6.7-1.5 5.4 0 11.6 2.7 17.4 7.5 6 4.9 11.2 11.8 15.2 19.8 10 20 8.6 41.1-3.1 46.9-2 1-4.3 1.5-6.7 1.5zm-22.9-74.7c-2.3 0-4.4.5-6.3 1.4-11.2 5.6-12.4 26.1-2.6 45.6 7.9 15.7 20.9 26.7 31.8 26.7 2.3 0 4.4-.5 6.3-1.4 11.2-5.6 12.4-26.1 2.6-45.6-7.8-15.7-20.9-26.7-31.8-26.7z"/><ellipse transform="rotate(-26.556 -7836.61 -8490.894)" class="st0" cx="-7836.4" cy="-8491.2" rx="2.1" ry="3.6"/><path class="st5" d="M-7959.4-8538.9c-9.3-18.6-8.7-38.1.9-45.1-.9.2-1.8.6-2.6 1-11.5 5.7-12.8 26.5-2.8 46.3 9.9 19.8 27.2 31.2 38.7 25.5.7-.3 1.3-.7 1.9-1.2-11.3 3-26.9-8.2-36.1-26.5z"/><path class="st20" d="M-7959.4-8538.9c-9.3-18.6-8.7-38.1.9-45.1-.9.2-1.8.6-2.6 1-11.5 5.7-12.8 26.5-2.8 46.3 9.9 19.8 27.2 31.2 38.7 25.5.7-.3 1.3-.7 1.9-1.2-11.3 3-26.9-8.2-36.1-26.5z"/><path class="st13" d="M-7944.9-8517.6h-.2l.2-27.9 1.7-35.2h.3l-1.8 35.2z"/><path class="st13" d="M-7933.1-8511.7l-11.8-33.8-9.3-39.1.2-.1 9.3 39.1 11.8 33.8z"/><path class="st13" d="M-7956.6-8528.9l-.2-.2 11.9-16.5 14.8-23.6.2.2-14.8 23.5z"/><path class="st13" d="M-7923-8512.7l-21.9-32.8-18.4-34.8.2-.2 18.4 34.9 21.9 32.8z"/><path class="st13" d="M-7916.1-8519.5l-28.8-26-23.9-26.4.1-.1 24 26.4 28.7 25.9z"/><path class="st13" d="M-7914.1-8531.5l-30.8-13.9-24.5-13.1.1-.2 24.5 13.1 30.7 13.9z"/><path class="st13" d="M-7965.2-8543.2v-.2l20.4-2.3 27.4-4 .1.2-27.5 4.1z"/><path class="st13" d="M-7938.1-8513.1l-.2-.1 3.3-37 1.9-25.7h.2l-1.8 25.7z"/><path class="st13" d="M-7919.4-8513.4l-15.5-36.7-14.4-35.2.2-.1 14.4 35.2 15.5 36.7z"/><path class="st13" d="M-7952.1-8525.1l-.1-.1 17.3-25.1 10.3-14.3.2.1-10.3 14.4z"/><path class="st13" d="M-7913.9-8528.7l-21-21.4-30.3-27.4.1-.1 30.3 27.3 21.1 21.5z"/><path class="st13" d="M-7914.5-8541.3l-20.4-8.8-33.2-13.7.1-.2 33.2 13.7 20.4 8.7z"/><path class="st13" d="M-7934.8-8550.1l-30.7-.3v-.3l30.7.4h19.4v.2z"/><path class="st13" d="M-7960.2-8536.5l-.1-.2 25.4-13.6 13.6-7.5.1.2-13.6 7.5z"/><path class="st13" d="M-7915.7-8560.9c-11.1-22.2-31.3-34.6-45-27.8-13.7 6.8-15.9 30.5-4.8 52.7s31.3 34.7 45 27.8c13.8-6.8 15.9-30.4 4.8-52.7zm-9.5 49.6c-11.5 5.7-28.8-5.7-38.7-25.5s-8.6-40.5 2.8-46.3c11.5-5.7 28.8 5.7 38.7 25.5 9.9 19.9 8.7 40.6-2.8 46.3z"/><path class="st0" d="M-7931.7-8509.3c-5.4 0-11.6-2.7-17.4-7.5-6-4.9-11.2-11.8-15.2-19.8-10-20-8.6-41.1 3.1-46.9 2-1 4.3-1.5 6.7-1.5 5.4 0 11.6 2.7 17.4 7.5 6 4.9 11.2 11.8 15.2 19.8 10 20 8.6 41.1-3.1 46.9-2 1-4.3 1.5-6.7 1.5zm-22.9-74.7c-2.3 0-4.4.5-6.3 1.4-11.2 5.6-12.4 26.1-2.6 45.6 7.9 15.7 20.9 26.7 31.8 26.7 2.3 0 4.4-.5 6.3-1.4 11.2-5.6 12.4-26.1 2.6-45.6-7.9-15.8-20.9-26.7-31.8-26.7z"/><ellipse transform="rotate(-26.556 -7944.91 -8545.213)" class="st0" cx="-7944.7" cy="-8545.5" rx="2.1" ry="3.6"/><ellipse transform="rotate(-26.556 -7935.209 -8549.982)" class="st0" cx="-7935" cy="-8550.3" rx="2.1" ry="3.6"/><path class="st0" d="M-7945.3-8547.9l9.1-4.6 2.1 4.3-9.1 4.6z"/><ellipse transform="rotate(-26.556 -7943.786 -8545.6)" class="st5" cx="-7943.6" cy="-8545.9" rx="4.5" ry="7.7"/><ellipse transform="rotate(-26.556 -7943.786 -8545.6)" class="st20" cx="-7943.6" cy="-8545.9" rx="4.5" ry="7.7"/><path transform="rotate(-20.991 -7900.154 -8552.163)" class="st22" d="M-7901.6-8581.8h3.6v59.9h-3.6z"/><path transform="rotate(-20.991 -7900.154 -8552.163)" class="st22" d="M-7901.6-8581.8h3.6v59.9h-3.6z"/><path class="st13" d="M-7889.7-8508.6c-1.5-.7-23.7-13.4-44.5-25.3-5.1-2.9-8.9-5.1-9-5.2-1.5-.8-3.5-2-4.8-4.6-1-1.9-1.4-3.9-1.3-5.7.1-1.9.9-3.2 2.1-3.8 1-.5 2.4-.4 3.7.3l51.9 18.9c3.3 1.3 6.5 4.6 8.6 8.8 1.7 3.4 2.5 6.9 2.2 10-.2 3.2-1.5 5.5-3.7 6.6-.8.4-1.7.6-2.6.6-.5 0-1.1-.1-1.6-.2l-1-.4zm.4-.9l.2.1c.7.2 1.4.3 2.1.3.8 0 1.5-.2 2.1-.5 1.8-.9 2.9-3 3.1-5.8.2-2.9-.5-6.3-2.1-9.5-2.1-4.1-5.2-7.3-8.3-8.4l-.3-.1-51.5-18.7c-1.1-.6-2.1-.7-2.8-.3-.9.5-1.4 1.5-1.5 3-.1 1.6.3 3.4 1.2 5.2 1.2 2.3 2.9 3.5 4.3 4.2.1.1 3 1.7 9.1 5.2 14 8.1 43.3 24.8 44.4 25.3z"/><path class="st22" d="M-7892.2-8519.1l-53.2-25.2c-.5-.2-.7-.7-.7-1.2s.3-1 .8-1.2l39-17.4.9 2.5-36.3 16.1 50.6 24-1.1 2.4zm39-37.5l-49.6-4.7c-.5 0-.9-.3-1.1-.7-.5-1.1-.1-2.3 1-2.9l50 4.8-.3 3.5z"/><path class="st22" d="M-7850.1-8546.1l-7-20.7.2-1.3 3.1-.1 7.1 21z"/><path class="st22" d="M-7836.4-8490.3c-.6.2-1.2 0-1.5-.6-2.9-7.2-15.8-39.5-16.1-44.5-.3-6.1 3.8-13.3 3.9-13.7l2.5 1.4c0 .1-3.8 6.9-3.6 12 .2 3.6 8.8 27.9 15.2 43.8.4.8.2 1.4-.4 1.6zm-19.4-79c.4-.2.7-.2.9-.1l4.4 2.2c.3.1.4.4.4.8 0 .8-.6 1.7-1.4 2-.4.2-.7.2-1 .1 0 0-4.4-2.2-4.5-2.3-.2-.1-.4-.4-.4-.7.2-.7.8-1.7 1.6-2zm-30 42.8c-.7-.4-1.4-.4-1.9-.2l-6 3.1c-.5.2-.8.8-.8 1.5 0 1.5 1.2 3.3 2.7 4.1.7.4 1.4.4 1.9.2 0 0 6-3.1 6.2-3.2.4-.3.7-.8.7-1.5-.1-1.4-1.3-3.2-2.8-4z"/><path class="st20" d="M-7890-8517.8c.2-.1 6-3.1 6.1-3.1.4-.3.7-.8.7-1.5 0-.6-.2-1.3-.5-1.9l-6 3.1c.3.6.5 1.3.5 1.9 0 .7-.3 1.2-.8 1.5z"/><path class="st23" d="M-7889.2-8519.3c0 1.5-1.2 2.1-2.7 1.4-1.5-.7-2.7-2.6-2.7-4.1s1.2-2.1 2.7-1.4c1.5.8 2.7 2.6 2.7 4.1z"/><path class="st5" d="M-7887.2-8508.7c-3.8 0-8.2-3.6-10.9-9-3.4-6.8-2.9-13.6 1.2-15.7.7-.4 1.5-.5 2.4-.5 3.8 0 8.2 3.6 10.9 9 3.4 6.8 2.9 13.6-1.2 15.7-.8.3-1.6.5-2.4.5zm-7.3-23.9c-.6 0-1.2.1-1.8.4-3.3 1.7-3.6 7.9-.6 13.9 2.4 4.9 6.4 8.3 9.7 8.3.6 0 1.2-.1 1.8-.4 3.3-1.7 3.6-7.9.6-13.9-2.4-4.9-6.4-8.3-9.7-8.3z"/><path class="st5" d="M-7887.5-8510.7c-3 0-6.7-3.2-9-7.8-2.9-5.7-2.7-11.4.4-13 .5-.3 1.1-.4 1.7-.4 3 0 6.7 3.2 9 7.8 2.9 5.7 2.7 11.4-.4 13-.5.2-1.1.4-1.7.4zm-6.9-20.2c-.4 0-.8.1-1.2.3-2.5 1.3-2.5 6.6 0 11.6 2.1 4.2 5.5 7.3 8.1 7.3.4 0 .8-.1 1.2-.3 2.5-1.3 2.5-6.6 0-11.6-2.1-4.3-5.5-7.3-8.1-7.3z"/><ellipse transform="rotate(-26.556 -7891.293 -8520.496)" class="st5" cx="-7891.1" cy="-8520.8" rx="2.9" ry="4.6"/><path class="st20" d="M-7887.2-8508.7c-3.8 0-8.2-3.6-10.9-9-3.4-6.8-2.9-13.6 1.2-15.7.7-.4 1.5-.5 2.4-.5 3.8 0 8.2 3.6 10.9 9 3.4 6.8 2.9 13.6-1.2 15.7-.8.3-1.6.5-2.4.5zm-7.3-23.9c-.6 0-1.2.1-1.8.4-3.3 1.7-3.6 7.9-.6 13.9 2.4 4.9 6.4 8.3 9.7 8.3.6 0 1.2-.1 1.8-.4 3.3-1.7 3.6-7.9.6-13.9-2.4-4.9-6.4-8.3-9.7-8.3z"/><path class="st20" d="M-7887.5-8510.7c-3 0-6.7-3.2-9-7.8-2.9-5.7-2.7-11.4.4-13 .5-.3 1.1-.4 1.7-.4 3 0 6.7 3.2 9 7.8 2.9 5.7 2.7 11.4-.4 13-.5.2-1.1.4-1.7.4zm-6.9-20.2c-.4 0-.8.1-1.2.3-2.5 1.3-2.5 6.6 0 11.6 2.1 4.2 5.5 7.3 8.1 7.3.4 0 .8-.1 1.2-.3 2.5-1.3 2.5-6.6 0-11.6-2.1-4.3-5.5-7.3-8.1-7.3z"/><ellipse transform="rotate(-26.556 -7891.293 -8520.496)" class="st20" cx="-7891.1" cy="-8520.8" rx="2.9" ry="4.6"/><path class="st19" d="M-7831.9-8577.4c-.5-.2-.9-.3-1.2-.1l-10.2 5c-.3.2-.6.5-.6 1 0 1 .8 2.2 1.8 2.6.5.2.9.3 1.2.1 0 0 10.2-5 10.3-5 .3-.2.5-.5.5-1-.1-.9-.9-2.1-1.8-2.6z"/><path class="st20" d="M-7840.9-8568.8c.1-.1 10.2-5 10.2-5 .3-.2.5-.5.5-1 0-.4-.1-.8-.3-1.2l-10.2 5c.2.4.3.8.3 1.2 0 .5-.2.9-.5 1z"/><path class="st23" d="M-7840.4-8569.8c0 1-.8 1.4-1.8.9s-1.8-1.7-1.8-2.6.8-1.4 1.8-.9 1.8 1.7 1.8 2.6z"/><path class="st19" d="M-7841.1-8573.7c-.7-.3-1.3-.4-1.7-.2l-1.9.9c-.5.2-.8.7-.8 1.4 0 1.4 1.1 3 2.5 3.7.7.3 1.3.4 1.7.2 0 0 1.9-.9 2-1 .4-.2.6-.7.6-1.3 0-1.4-1.1-3-2.4-3.7z"/><path class="st20" d="M-7841.2-8567.7c.2-.1 1.8-.9 1.9-1 .4-.2.6-.7.6-1.3 0-.5-.2-1.1-.5-1.7l-1.9.9c.3.6.5 1.2.5 1.7.1.7-.2 1.2-.6 1.4z"/><path class="st8" d="M-7840.5-8569.1c0 1.4-1.1 1.9-2.5 1.2s-2.5-2.3-2.5-3.7c0-1.4 1.1-1.9 2.5-1.2s2.5 2.4 2.5 3.7z"/><path class="st5" d="M-7866.7-8556.5c-.6 0-1.2-.3-1.5-.9-.4-.8-.1-1.9.8-2.3l23.4-11.7c.8-.4 1.9-.1 2.3.8.4.8.1 1.9-.8 2.3l-23.5 11.6c-.2.1-.5.2-.7.2z"/><path class="st20" d="M-7842.1-8570.1l-23.4 11.7c-.2.1-.5.2-.8.2-.6 0-1.2-.3-1.5-.9 0-.1-.1-.2-.1-.2-.5.5-.7 1.3-.4 2 .3.6.9.9 1.5.9.3 0 .5-.1.8-.2l23.4-11.7c.8-.4 1.1-1.3.9-2-.1 0-.3.1-.4.2z"/><path class="st19" d="M-7860-8564.2c-.7-.3-1.3-.4-1.7-.2l-1.9.9c-.5.2-.8.7-.8 1.4 0 1.4 1.1 3 2.5 3.7.7.3 1.3.4 1.7.2 0 0 1.9-.9 2-1 .4-.2.6-.7.6-1.3.1-1.4-1.1-3.1-2.4-3.7z"/><path class="st20" d="M-7860.1-8558.3c.2-.1 1.8-.9 1.9-1 .4-.2.6-.7.6-1.3 0-.5-.2-1.1-.5-1.7l-1.9.9c.3.6.5 1.2.5 1.7.1.7-.2 1.2-.6 1.4z"/><path class="st23" d="M-7859.4-8559.6c0 1.4-1.1 1.9-2.5 1.2s-2.5-2.3-2.5-3.7c0-1.4 1.1-1.9 2.5-1.2s2.5 2.3 2.5 3.7z"/><path class="st19" d="M-7862.1-8562.5c-.5-.2-.9-.3-1.2-.1l-10.2 5c-.3.2-.6.5-.6 1 0 1 .8 2.2 1.8 2.6.5.2.9.3 1.2.1 0 0 10.2-5 10.3-5 .3-.2.5-.5.5-1-.1-1-.9-2.1-1.8-2.6z"/><path class="st20" d="M-7871.1-8553.9c.1-.1 10.2-5 10.2-5 .3-.2.5-.5.5-1 0-.4-.1-.8-.3-1.2l-10.2 5c.2.4.3.8.3 1.2 0 .5-.2.8-.5 1z"/><path class="st8" d="M-7870.6-8554.9c0 1-.8 1.4-1.8.9s-1.8-1.7-1.8-2.6c0-.9.8-1.4 1.8-.9s1.8 1.6 1.8 2.6z"/><path class="st13" d="M-7894.4-8496.1l-.4-.9 2.4-1-3.9-5c-.1-.1-.1-.2-.1-.3l-.3-5.7-5.4-6.7c-.1-.1-.1-.3-.1-.4 0-.1.1-.3.3-.3l10.1-4.9.4.9-9.5 4.6 5.1 6.4c.1.1.1.2.1.3l.3 5.7 4.1 5.4c.1.1.1.3.1.4 0 .1-.1.3-.3.3l-2.9 1.2z"/><path class="st13" d="M-7899.1-8489.4l-5.2-2.6v-2l9.1-4.5 5.2 2.6v1.9z"/><path class="st23" d="M-7904.3-8494v2l5.2 2.6v-2z"/><path class="st22" d="M-7890-8495.9v1.9l-9.1 4.6v-2z"/><path class="st24" d="M-7890-8495.9v1.9l-9.1 4.6v-2z"/><ellipse transform="rotate(-19.61 -7910.398 -8579.927)" class="st22" cx="-7910.5" cy="-8579.8" rx="1.8" ry=".8"/><path class="st5" d="M-7909.4-8580.4l-10.8-28.4-2.4.9 10.8 28.3c.1.3.8.4 1.4.1.7-.1 1.2-.6 1-.9z"/><path class="st20" d="M-7909.4-8580.4l-10.8-28.4-2.4.9 10.8 28.3c.1.3.8.4 1.4.1.7-.1 1.2-.6 1-.9z"/><path class="st19" d="M-7928.2-8608.7c-4.1 2.6-6.3 8.5-2.5 13 2.7 3.2 9 1.4 14.1 2.9s9.9 4.8 13 2.9c1.2-.7.5-3.7-2.5-6.5-3.1-2.8-7.4-8.3-7.6-8.7-1-1.8-8-7.7-14.5-3.6z"/><path class="st20" d="M-7916.1-8594.6c-5.1-1.5-11.4.4-14.1-2.9-1.7-2.1-2.2-4.4-1.8-6.6-1.1 2.7-.9 5.8 1.3 8.5 2.7 3.2 9 1.4 14.1 2.9s9.9 4.8 13 2.9c.5-.3.6-.9.5-1.8-3.2 1.8-8-1.5-13-3z"/></g><g transform="translate(880 952)" id="i2345_1_"><ellipse class="st18" cx="-784.5" cy="-851" rx="6.5" ry="2"/><path class="st17" d="M-786-854h3v4h-3z"/><circle class="st25" cx="-779" cy="-855.9" r="3.8"/><circle class="st25" cx="-781.1" cy="-860.9" r="5.3"/><circle class="st25" cx="-786.4" cy="-857.4" r="5.3"/><circle class="st25" cx="-789.3" cy="-859.8" r="3.5"/><path class="st17" d="M-786.9-862.9c-1 0-1.8-.3-1.8-1.2v-1.5h-.6v1.8c0 1 .8 1.8 1.8 1.8h.6v-.9z"/><circle class="st25" cx="-787.1" cy="-856.1" r="5.7"/><path class="st18" d="M-787.1-851.8c-2.9 0-5.3-2.2-5.7-5v.7c0 3.2 2.6 5.7 5.7 5.7s5.7-2.6 5.7-5.7v-.7c-.4 2.8-2.8 5-5.7 5z"/><circle class="st25" cx="-785.2" cy="-863.3" r="4.7"/><circle class="st25" cx="-781.4" cy="-864.8" r="2.6"/><path class="st12" d="M-789.8-860.9c1.3 0 2.4.7 2.9 1.8.2 0 .4-.1.6-.1 1.1 0 2 .5 2.6 1.3-.2-1.1-1.2-1.9-2.3-1.9h-.1c-.3-1.3-1.5-2.4-2.9-2.4-1.2 0-2.2.7-2.7 1.7.6-.2 1.2-.4 1.9-.4z"/><path class="st17" d="M-785.2-862.5c.1.1.3.2.4.3h.2v-1.7c-.2 0-.4 0-.6-.1v1.5z"/><path class="st12" d="M-784.9-865.6c1.4 0 2.5 1.1 2.6 2.5.3-.1.6-.1.9-.1 1.5 0 2.7 1 3.1 2.3.1-.3.1-.5.1-.8 0-1.5-1.2-2.6-2.6-2.6-.3 0-.6.1-.9.2-.1-1.1-1-1.9-2-1.9-.6 0-1.1.2-1.5.6.1-.2.2-.2.3-.2z"/><path class="st18" d="M-775.8-860.1c-1 1.1-2.4 1.8-4 1.8h-.4c.6.6.9 1.4 1 2.3 1.8-.6 3.1-2.2 3.4-4.1zm-1.5 6c.2.4.3.9.3 1.4 1-.6 1.7-1.7 1.8-2.9-.5.7-1.2 1.3-2.1 1.5z"/><circle class="st25" cx="-781.8" cy="-855.8" r="5.4"/><path class="st12" d="M-784-857.4c.7 0 1.4.2 1.9.5.7-.7 1.7-1.1 2.8-1.1.9 0 1.8.3 2.5.8-.6-1.2-1.9-2-3.4-2-1 0-1.8.3-2.5.9-.4-.2-.9-.3-1.3-.3-1.4 0-2.6 1-2.9 2.4.8-.8 1.8-1.2 2.9-1.2z"/><path class="st18" d="M-781.2-851.5c-2.2 0-4.1-1.2-5.2-3-.2 0-.2 4.1 4.6 4.1 2.1 0 3.9-1.2 4.8-2.9-1.1 1.1-2.6 1.8-4.2 1.8z"/><path class="st17" d="M-782-860.6c0 1-.9 1.2-2 1.2v.4h.6c1 0 1.4-.4 1.4-1.4v-1.2 1z"/></g></svg>