<svg xmlns="http://www.w3.org/2000/svg" width="208" height="222"><style>.st0{fill:#999}.st1{fill:#e5e5e5}.st2{fill:#39c}.st3,.st4{opacity:.45;enable-background:new}.st4{opacity:.2;fill:#fff}.st5{opacity:.15}.st5,.st6,.st7,.st8{enable-background:new}.st6{opacity:6.000000e-02}.st7{opacity:.39}.st8{opacity:.3}.st12{fill:#cc291f}</style><g id="i1975_1_"><path class="st0" d="M-144-226l32-16-8-4-24 12z" transform="translate(320 416)"/><path class="st0" d="M-144-226l32-16-8-4-24 12z" transform="translate(320 416)"/><path class="st1" d="M-248-414l-72 36v64l128 64 72-36v-64z" transform="translate(320 416)"/><path class="st1" d="M-192-202l-128-64v-112l128 64z" transform="translate(320 416)"/><path class="st2" d="M-192-267l-5-2.5v-8l5 2.5z" transform="translate(320 416)"/><path class="st3" d="M-196-270v-7l-1-.5v8l5 2.5v-1z" transform="translate(320 416)"/><path class="st2" d="M-200-271l-5-2.5v-8l5 2.5z" transform="translate(320 416)"/><path class="st3" d="M-204-274v-7l-1-.5v8l5 2.5v-1z" transform="translate(320 416)"/><path class="st2" d="M-208-275l-5-2.5v-8l5 2.5z" transform="translate(320 416)"/><path class="st3" d="M-212-278v-7l-1-.5v8l5 2.5v-1z" transform="translate(320 416)"/><path class="st2" d="M-216-279l-5-2.5v-8l5 2.5z" transform="translate(320 416)"/><path class="st3" d="M-220-282v-7l-1-.5v8l5 2.5v-1z" transform="translate(320 416)"/><path class="st2" d="M-224-283l-5-2.5v-8l5 2.5z" transform="translate(320 416)"/><path class="st4" d="M-224-283l-5-2.5v-8z" transform="translate(320 416)"/><path class="st3" d="M-228-286v-7l-1-.5v8l5 2.5v-1z" transform="translate(320 416)"/><path class="st2" d="M-232-287l-5-2.5v-8l5 2.5z" transform="translate(320 416)"/><path class="st4" d="M-232-287l-5-2.5v-8z" transform="translate(320 416)"/><path class="st3" d="M-236-290v-7l-1-.5v8l5 2.5v-1z" transform="translate(320 416)"/><path class="st2" d="M-240-291l-5-2.5v-8l5 2.5z" transform="translate(320 416)"/><path class="st3" d="M-244-294v-7l-1-.5v8l5 2.5v-1z" transform="translate(320 416)"/><path class="st2" d="M-248-295l-5-2.5v-8l5 2.5z" transform="translate(320 416)"/><path class="st3" d="M-252-298v-7l-1-.5v8l5 2.5v-1z" transform="translate(320 416)"/><path class="st2" d="M-192-283l-5-2.5v-8l5 2.5z" transform="translate(320 416)"/><path class="st3" d="M-196-286v-7l-1-.5v8l5 2.5v-1z" transform="translate(320 416)"/><path class="st2" d="M-200-287l-5-2.5v-8l5 2.5z" transform="translate(320 416)"/><path class="st3" d="M-204-290v-7l-1-.5v8l5 2.5v-1z" transform="translate(320 416)"/><path class="st2" d="M-208-291l-5-2.5v-8l5 2.5z" transform="translate(320 416)"/><path class="st3" d="M-212-294v-7l-1-.5v8l5 2.5v-1z" transform="translate(320 416)"/><path class="st2" d="M-216-295l-5-2.5v-8l5 2.5z" transform="translate(320 416)"/><path class="st3" d="M-220-298v-7l-1-.5v8l5 2.5v-1z" transform="translate(320 416)"/><path class="st2" d="M-224-299l-5-2.5v-8l5 2.5z" transform="translate(320 416)"/><path class="st3" d="M-228-302v-7l-1-.5v8l5 2.5v-1z" transform="translate(320 416)"/><path class="st2" d="M-232-303l-5-2.5v-8l5 2.5z" transform="translate(320 416)"/><path class="st3" d="M-236-306v-7l-1-.5v8l5 2.5v-1z" transform="translate(320 416)"/><path class="st2" d="M-240-307l-5-2.5v-8l5 2.5z" transform="translate(320 416)"/><path class="st4" d="M-240-307l-5-2.5v-8z" transform="translate(320 416)"/><path class="st3" d="M-244-310v-7l-1-.5v8l5 2.5v-1z" transform="translate(320 416)"/><path class="st2" d="M-248-311l-5-2.5v-8l5 2.5z" transform="translate(320 416)"/><path class="st3" d="M-252-314v-7l-1-.5v8l5 2.5v-1z" transform="translate(320 416)"/><path class="st2" d="M-192-299l-5-2.5v-8l5 2.5z" transform="translate(320 416)"/><path class="st3" d="M-196-302v-7l-1-.5v8l5 2.5v-1z" transform="translate(320 416)"/><path class="st2" d="M-200-303l-5-2.5v-8l5 2.5z" transform="translate(320 416)"/><path class="st3" d="M-204-306v-7l-1-.5v8l5 2.5v-1z" transform="translate(320 416)"/><path class="st2" d="M-208-307l-5-2.5v-8l5 2.5z" transform="translate(320 416)"/><path class="st5" d="M-208-307l-5-10.5 5 2.5z" transform="translate(320 416)"/><path class="st3" d="M-212-310v-7l-1-.5v8l5 2.5v-1z" transform="translate(320 416)"/><path class="st2" d="M-216-311l-5-2.5v-8l5 2.5z" transform="translate(320 416)"/><path class="st3" d="M-220-314v-7l-1-.5v8l5 2.5v-1z" transform="translate(320 416)"/><path class="st2" d="M-224-315l-5-2.5v-8l5 2.5z" transform="translate(320 416)"/><path class="st3" d="M-228-318v-7l-1-.5v8l5 2.5v-1z" transform="translate(320 416)"/><path class="st2" d="M-232-319l-5-2.5v-8l5 2.5z" transform="translate(320 416)"/><path class="st3" d="M-236-322v-7l-1-.5v8l5 2.5v-1z" transform="translate(320 416)"/><path class="st2" d="M-240-323l-5-2.5v-8l5 2.5z" transform="translate(320 416)"/><path class="st3" d="M-244-326v-7l-1-.5v8l5 2.5v-1z" transform="translate(320 416)"/><path class="st2" d="M-248-327l-5-2.5v-8l5 2.5z" transform="translate(320 416)"/><path class="st3" d="M-252-330v-7l-1-.5v8l5 2.5v-1z" transform="translate(320 416)"/><path class="st2" d="M-192-219l-5-2.5v-8l5 2.5z" transform="translate(320 416)"/><path class="st3" d="M-196-222v-7l-1-.5v8l5 2.5v-1z" transform="translate(320 416)"/><path class="st2" d="M-200-223l-5-2.5v-8l5 2.5z" transform="translate(320 416)"/><path class="st3" d="M-204-226v-7l-1-.5v8l5 2.5v-1z" transform="translate(320 416)"/><path class="st2" d="M-208-227l-5-2.5v-8l5 2.5z" transform="translate(320 416)"/><path class="st3" d="M-212-230v-7l-1-.5v8l5 2.5v-1z" transform="translate(320 416)"/><path class="st2" d="M-216-231l-5-2.5v-8l5 2.5z" transform="translate(320 416)"/><path class="st3" d="M-220-234v-7l-1-.5v8l5 2.5v-1z" transform="translate(320 416)"/><path class="st2" d="M-224-235l-5-2.5v-8l5 2.5z" transform="translate(320 416)"/><path class="st3" d="M-228-238v-7l-1-.5v8l5 2.5v-1z" transform="translate(320 416)"/><path class="st2" d="M-232-239l-5-2.5v-8l5 2.5z" transform="translate(320 416)"/><path class="st3" d="M-236-242v-7l-1-.5v8l5 2.5v-1z" transform="translate(320 416)"/><path class="st2" d="M-240-243l-5-2.5v-8l5 2.5z" transform="translate(320 416)"/><path class="st4" d="M-240-243l-5-2.5v-8z" transform="translate(320 416)"/><path class="st3" d="M-244-246v-7l-1-.5v8l5 2.5v-1z" transform="translate(320 416)"/><path class="st2" d="M-248-247l-5-2.5v-8l5 2.5z" transform="translate(320 416)"/><path class="st3" d="M-252-250v-7l-1-.5v8l5 2.5v-1z" transform="translate(320 416)"/><path class="st2" d="M-192-235l-5-2.5v-8l5 2.5z" transform="translate(320 416)"/><path class="st3" d="M-196-238v-7l-1-.5v8l5 2.5v-1z" transform="translate(320 416)"/><path class="st2" d="M-200-239l-5-2.5v-8l5 2.5z" transform="translate(320 416)"/><path class="st3" d="M-204-242v-7l-1-.5v8l5 2.5v-1z" transform="translate(320 416)"/><path class="st2" d="M-208-243l-5-2.5v-8l5 2.5z" transform="translate(320 416)"/><path class="st5" d="M-208-243l-5-10.5 5 2.5z" transform="translate(320 416)"/><path class="st3" d="M-212-246v-7l-1-.5v8l5 2.5v-1z" transform="translate(320 416)"/><path class="st2" d="M-216-247l-5-2.5v-8l5 2.5z" transform="translate(320 416)"/><path class="st3" d="M-220-250v-7l-1-.5v8l5 2.5v-1z" transform="translate(320 416)"/><path class="st2" d="M-224-251l-5-2.5v-8l5 2.5z" transform="translate(320 416)"/><path class="st3" d="M-228-254v-7l-1-.5v8l5 2.5v-1z" transform="translate(320 416)"/><path class="st2" d="M-232-255l-5-2.5v-8l5 2.5z" transform="translate(320 416)"/><path class="st3" d="M-236-258v-7l-1-.5v8l5 2.5v-1z" transform="translate(320 416)"/><path class="st2" d="M-240-259l-5-2.5v-8l5 2.5z" transform="translate(320 416)"/><path class="st3" d="M-244-262v-7l-1-.5v8l5 2.5v-1z" transform="translate(320 416)"/><path class="st2" d="M-248-263l-5-2.5v-8l5 2.5z" transform="translate(320 416)"/><path class="st3" d="M-252-266v-7l-1-.5v8l5 2.5v-1z" transform="translate(320 416)"/><path class="st2" d="M-192-251l-5-2.5v-8l5 2.5z" transform="translate(320 416)"/><path class="st3" d="M-196-254v-7l-1-.5v8l5 2.5v-1z" transform="translate(320 416)"/><path class="st2" d="M-200-255l-5-2.5v-8l5 2.5z" transform="translate(320 416)"/><path class="st3" d="M-204-258v-7l-1-.5v8l5 2.5v-1z" transform="translate(320 416)"/><path class="st2" d="M-208-259l-5-2.5v-8l5 2.5z" transform="translate(320 416)"/><path class="st3" d="M-212-262v-7l-1-.5v8l5 2.5v-1z" transform="translate(320 416)"/><path class="st2" d="M-216-263l-5-2.5v-8l5 2.5z" transform="translate(320 416)"/><path class="st5" d="M-216-263l-5-10.5 5 2.5z" transform="translate(320 416)"/><path class="st3" d="M-220-266v-7l-1-.5v8l5 2.5v-1z" transform="translate(320 416)"/><path class="st2" d="M-224-267l-5-2.5v-8l5 2.5z" transform="translate(320 416)"/><path class="st3" d="M-228-270v-7l-1-.5v8l5 2.5v-1z" transform="translate(320 416)"/><path class="st2" d="M-232-271l-5-2.5v-8l5 2.5z" transform="translate(320 416)"/><path class="st5" d="M-232-271l-5-10.5 5 2.5z" transform="translate(320 416)"/><path class="st3" d="M-236-274v-7l-1-.5v8l5 2.5v-1z" transform="translate(320 416)"/><path class="st2" d="M-240-275l-5-2.5v-8l5 2.5z" transform="translate(320 416)"/><path class="st3" d="M-244-278v-7l-1-.5v8l5 2.5v-1z" transform="translate(320 416)"/><path class="st2" d="M-248-279l-5-2.5v-8l5 2.5z" transform="translate(320 416)"/><path class="st3" d="M-252-282v-7l-1-.5v8l5 2.5v-1z" transform="translate(320 416)"/><path class="st2" d="M-256-299l-5-2.5v-8l5 2.5z" transform="translate(320 416)"/><path class="st3" d="M-260-302v-7l-1-.5v8l5 2.5v-1z" transform="translate(320 416)"/><path class="st2" d="M-264-303l-5-2.5v-8l5 2.5z" transform="translate(320 416)"/><path class="st3" d="M-268-306v-7l-1-.5v8l5 2.5v-1z" transform="translate(320 416)"/><path class="st2" d="M-272-307l-5-2.5v-8l5 2.5z" transform="translate(320 416)"/><path class="st3" d="M-276-310v-7l-1-.5v8l5 2.5v-1z" transform="translate(320 416)"/><path class="st2" d="M-280-311l-5-2.5v-8l5 2.5z" transform="translate(320 416)"/><path class="st3" d="M-284-314v-7l-1-.5v8l5 2.5v-1z" transform="translate(320 416)"/><path class="st2" d="M-288-315l-5-2.5v-8l5 2.5z" transform="translate(320 416)"/><path class="st3" d="M-292-318v-7l-1-.5v8l5 2.5v-1z" transform="translate(320 416)"/><path class="st2" d="M-296-319l-5-2.5v-8l5 2.5z" transform="translate(320 416)"/><path class="st4" d="M-296-319l-5-2.5v-8z" transform="translate(320 416)"/><path class="st3" d="M-300-322v-7l-1-.5v8l5 2.5v-1z" transform="translate(320 416)"/><path class="st2" d="M-304-323l-5-2.5v-8l5 2.5z" transform="translate(320 416)"/><path class="st3" d="M-308-326v-7l-1-.5v8l5 2.5v-1z" transform="translate(320 416)"/><path class="st2" d="M-312-327l-5-2.5v-8l5 2.5z" transform="translate(320 416)"/><path class="st3" d="M-316-330v-7l-1-.5v8l5 2.5v-1z" transform="translate(320 416)"/><path class="st2" d="M-256-315l-5-2.5v-8l5 2.5z" transform="translate(320 416)"/><path class="st3" d="M-260-318v-7l-1-.5v8l5 2.5v-1z" transform="translate(320 416)"/><path class="st2" d="M-264-319l-5-2.5v-8l5 2.5z" transform="translate(320 416)"/><path class="st3" d="M-268-322v-7l-1-.5v8l5 2.5v-1z" transform="translate(320 416)"/><path class="st2" d="M-272-323l-5-2.5v-8l5 2.5z" transform="translate(320 416)"/><path class="st3" d="M-276-326v-7l-1-.5v8l5 2.5v-1z" transform="translate(320 416)"/><path class="st2" d="M-280-327l-5-2.5v-8l5 2.5z" transform="translate(320 416)"/><path class="st3" d="M-284-330v-7l-1-.5v8l5 2.5v-1z" transform="translate(320 416)"/><path class="st2" d="M-288-331l-5-2.5v-8l5 2.5z" transform="translate(320 416)"/><path class="st3" d="M-292-334v-7l-1-.5v8l5 2.5v-1z" transform="translate(320 416)"/><path class="st2" d="M-296-335l-5-2.5v-8l5 2.5z" transform="translate(320 416)"/><path class="st3" d="M-300-338v-7l-1-.5v8l5 2.5v-1z" transform="translate(320 416)"/><path class="st2" d="M-304-339l-5-2.5v-8l5 2.5z" transform="translate(320 416)"/><path class="st4" d="M-304-339l-5-2.5v-8z" transform="translate(320 416)"/><path class="st3" d="M-308-342v-7l-1-.5v8l5 2.5v-1z" transform="translate(320 416)"/><path class="st2" d="M-312-343l-5-2.5v-8l5 2.5z" transform="translate(320 416)"/><path class="st3" d="M-316-346v-7l-1-.5v8l5 2.5v-1z" transform="translate(320 416)"/><path class="st2" d="M-256-331l-5-2.5v-8l5 2.5z" transform="translate(320 416)"/><path class="st3" d="M-260-334v-7l-1-.5v8l5 2.5v-1z" transform="translate(320 416)"/><path class="st2" d="M-264-335l-5-2.5v-8l5 2.5z" transform="translate(320 416)"/><path class="st3" d="M-268-338v-7l-1-.5v8l5 2.5v-1z" transform="translate(320 416)"/><path class="st2" d="M-272-339l-5-2.5v-8l5 2.5z" transform="translate(320 416)"/><path class="st5" d="M-272-339l-5-10.5 5 2.5z" transform="translate(320 416)"/><path class="st3" d="M-276-342v-7l-1-.5v8l5 2.5v-1z" transform="translate(320 416)"/><path class="st2" d="M-280-343l-5-2.5v-8l5 2.5z" transform="translate(320 416)"/><path class="st3" d="M-284-346v-7l-1-.5v8l5 2.5v-1z" transform="translate(320 416)"/><path class="st2" d="M-288-347l-5-2.5v-8l5 2.5z" transform="translate(320 416)"/><path class="st3" d="M-292-350v-7l-1-.5v8l5 2.5v-1z" transform="translate(320 416)"/><path class="st2" d="M-296-351l-5-2.5v-8l5 2.5z" transform="translate(320 416)"/><path class="st3" d="M-300-354v-7l-1-.5v8l5 2.5v-1z" transform="translate(320 416)"/><path class="st2" d="M-304-355l-5-2.5v-8l5 2.5z" transform="translate(320 416)"/><path class="st3" d="M-308-358v-7l-1-.5v8l5 2.5v-1z" transform="translate(320 416)"/><path class="st2" d="M-312-359l-5-2.5v-8l5 2.5z" transform="translate(320 416)"/><path class="st3" d="M-316-362v-7l-1-.5v8l5 2.5v-1z" transform="translate(320 416)"/><path class="st2" d="M-256-251l-5-2.5v-8l5 2.5z" transform="translate(320 416)"/><path class="st3" d="M-260-254v-7l-1-.5v8l5 2.5v-1z" transform="translate(320 416)"/><path class="st2" d="M-264-255l-5-2.5v-8l5 2.5z" transform="translate(320 416)"/><path class="st3" d="M-268-258v-7l-1-.5v8l5 2.5v-1z" transform="translate(320 416)"/><path class="st2" d="M-272-259l-5-2.5v-8l5 2.5z" transform="translate(320 416)"/><path class="st3" d="M-276-262v-7l-1-.5v8l5 2.5v-1z" transform="translate(320 416)"/><path class="st2" d="M-280-263l-5-2.5v-8l5 2.5z" transform="translate(320 416)"/><path class="st3" d="M-284-266v-7l-1-.5v8l5 2.5v-1z" transform="translate(320 416)"/><path class="st2" d="M-288-267l-5-2.5v-8l5 2.5z" transform="translate(320 416)"/><path class="st3" d="M-292-270v-7l-1-.5v8l5 2.5v-1z" transform="translate(320 416)"/><path class="st2" d="M-296-271l-5-2.5v-8l5 2.5z" transform="translate(320 416)"/><path class="st3" d="M-300-274v-7l-1-.5v8l5 2.5v-1z" transform="translate(320 416)"/><path class="st2" d="M-304-275l-5-2.5v-8l5 2.5z" transform="translate(320 416)"/><path class="st4" d="M-304-275l-5-2.5v-8z" transform="translate(320 416)"/><path class="st3" d="M-308-278v-7l-1-.5v8l5 2.5v-1z" transform="translate(320 416)"/><path class="st2" d="M-312-279l-5-2.5v-8l5 2.5z" transform="translate(320 416)"/><path class="st3" d="M-316-282v-7l-1-.5v8l5 2.5v-1z" transform="translate(320 416)"/><path class="st2" d="M-192-207l-5-2.5v-4l5 2.5z" transform="translate(320 416)"/><path class="st3" d="M-196-210v-3l-1-.5v4l5 2.5v-1z" transform="translate(320 416)"/><path class="st2" d="M-200-211l-5-2.5v-4l5 2.5z" transform="translate(320 416)"/><path class="st3" d="M-204-214v-3l-1-.5v4l5 2.5v-1z" transform="translate(320 416)"/><path class="st2" d="M-208-215l-5-2.5v-4l5 2.5z" transform="translate(320 416)"/><path class="st3" d="M-212-218v-3l-1-.5v4l5 2.5v-1z" transform="translate(320 416)"/><path class="st2" d="M-216-219l-5-2.5v-4l5 2.5z" transform="translate(320 416)"/><path class="st3" d="M-220-222v-3l-1-.5v4l5 2.5v-1z" transform="translate(320 416)"/><path class="st2" d="M-224-223l-5-2.5v-4l5 2.5z" transform="translate(320 416)"/><path class="st3" d="M-228-226v-3l-1-.5v4l5 2.5v-1z" transform="translate(320 416)"/><path class="st2" d="M-232-227l-5-2.5v-4l5 2.5z" transform="translate(320 416)"/><path class="st3" d="M-236-230v-3l-1-.5v4l5 2.5v-1z" transform="translate(320 416)"/><path class="st2" d="M-240-231l-5-2.5v-4l5 2.5z" transform="translate(320 416)"/><path class="st4" d="M-240-231l-5-2.5v-4z" transform="translate(320 416)"/><path class="st3" d="M-244-234v-3l-1-.5v4l5 2.5v-1z" transform="translate(320 416)"/><path class="st2" d="M-248-235l-5-2.5v-4l5 2.5z" transform="translate(320 416)"/><path class="st3" d="M-252-238v-3l-1-.5v4l5 2.5v-1z" transform="translate(320 416)"/><path class="st2" d="M-256-239l-5-2.5v-4l5 2.5z" transform="translate(320 416)"/><path class="st3" d="M-260-242v-3l-1-.5v4l5 2.5v-1z" transform="translate(320 416)"/><path class="st2" d="M-264-243l-5-2.5v-4l5 2.5z" transform="translate(320 416)"/><path class="st3" d="M-268-246v-3l-1-.5v4l5 2.5v-1z" transform="translate(320 416)"/><path class="st2" d="M-272-247l-5-2.5v-4l5 2.5z" transform="translate(320 416)"/><path class="st3" d="M-276-250v-3l-1-.5v4l5 2.5v-1z" transform="translate(320 416)"/><path class="st2" d="M-280-251l-5-2.5v-4l5 2.5z" transform="translate(320 416)"/><path class="st3" d="M-284-254v-3l-1-.5v4l5 2.5v-1z" transform="translate(320 416)"/><path class="st2" d="M-288-255l-5-2.5v-4l5 2.5z" transform="translate(320 416)"/><path class="st3" d="M-292-258v-3l-1-.5v4l5 2.5v-1z" transform="translate(320 416)"/><path class="st2" d="M-296-259l-5-2.5v-4l5 2.5z" transform="translate(320 416)"/><path class="st3" d="M-300-262v-3l-1-.5v4l5 2.5v-1z" transform="translate(320 416)"/><path class="st2" d="M-304-263l-5-2.5v-4l5 2.5z" transform="translate(320 416)"/><path class="st4" d="M-304-263l-5-2.5v-4z" transform="translate(320 416)"/><path class="st3" d="M-308-266v-3l-1-.5v4l5 2.5v-1z" transform="translate(320 416)"/><path class="st2" d="M-312-267l-5-2.5v-4l5 2.5z" transform="translate(320 416)"/><path class="st3" d="M-316-270v-3l-1-.5v4l5 2.5v-1z" transform="translate(320 416)"/><path class="st2" d="M-256-267l-5-2.5v-8l5 2.5z" transform="translate(320 416)"/><path class="st3" d="M-260-270v-7l-1-.5v8l5 2.5v-1z" transform="translate(320 416)"/><path class="st2" d="M-264-271l-5-2.5v-8l5 2.5z" transform="translate(320 416)"/><path class="st3" d="M-268-274v-7l-1-.5v8l5 2.5v-1z" transform="translate(320 416)"/><path class="st2" d="M-272-275l-5-2.5v-8l5 2.5z" transform="translate(320 416)"/><path class="st5" d="M-272-275l-5-10.5 5 2.5z" transform="translate(320 416)"/><path class="st3" d="M-276-278v-7l-1-.5v8l5 2.5v-1z" transform="translate(320 416)"/><path class="st2" d="M-280-279l-5-2.5v-8l5 2.5z" transform="translate(320 416)"/><path class="st3" d="M-284-282v-7l-1-.5v8l5 2.5v-1z" transform="translate(320 416)"/><path class="st2" d="M-288-283l-5-2.5v-8l5 2.5z" transform="translate(320 416)"/><path class="st3" d="M-292-286v-7l-1-.5v8l5 2.5v-1z" transform="translate(320 416)"/><path class="st2" d="M-296-287l-5-2.5v-8l5 2.5z" transform="translate(320 416)"/><path class="st3" d="M-300-290v-7l-1-.5v8l5 2.5v-1z" transform="translate(320 416)"/><path class="st2" d="M-304-291l-5-2.5v-8l5 2.5z" transform="translate(320 416)"/><path class="st4" d="M-304-291l-5-2.5v-8z" transform="translate(320 416)"/><path class="st3" d="M-308-294v-7l-1-.5v8l5 2.5v-1z" transform="translate(320 416)"/><path class="st2" d="M-312-295l-5-2.5v-8l5 2.5z" transform="translate(320 416)"/><path class="st3" d="M-316-298v-7l-1-.5v8l5 2.5v-1z" transform="translate(320 416)"/><path class="st2" d="M-256-283l-5-2.5v-8l5 2.5z" transform="translate(320 416)"/><path class="st3" d="M-260-286v-7l-1-.5v8l5 2.5v-1z" transform="translate(320 416)"/><path class="st2" d="M-264-287l-5-2.5v-8l5 2.5z" transform="translate(320 416)"/><path class="st3" d="M-268-290v-7l-1-.5v8l5 2.5v-1z" transform="translate(320 416)"/><path class="st2" d="M-272-291l-5-2.5v-8l5 2.5z" transform="translate(320 416)"/><path class="st3" d="M-276-294v-7l-1-.5v8l5 2.5v-1z" transform="translate(320 416)"/><path class="st2" d="M-280-295l-5-2.5v-8l5 2.5z" transform="translate(320 416)"/><path class="st5" d="M-280-295l-5-10.5 5 2.5z" transform="translate(320 416)"/><path class="st3" d="M-284-298v-7l-1-.5v8l5 2.5v-1z" transform="translate(320 416)"/><path class="st2" d="M-288-299l-5-2.5v-8l5 2.5z" transform="translate(320 416)"/><path class="st3" d="M-292-302v-7l-1-.5v8l5 2.5v-1z" transform="translate(320 416)"/><path class="st2" d="M-296-303l-5-2.5v-8l5 2.5z" transform="translate(320 416)"/><path class="st5" d="M-296-303l-5-10.5 5 2.5z" transform="translate(320 416)"/><path class="st3" d="M-300-306v-7l-1-.5v8l5 2.5v-1z" transform="translate(320 416)"/><path class="st2" d="M-304-307l-5-2.5v-8l5 2.5z" transform="translate(320 416)"/><path class="st3" d="M-308-310v-7l-1-.5v8l5 2.5v-1z" transform="translate(320 416)"/><path class="st2" d="M-312-311l-5-2.5v-8l5 2.5z" transform="translate(320 416)"/><path class="st3" d="M-316-314v-7l-1-.5v8l5 2.5v-1z" transform="translate(320 416)"/><path class="st6" d="M-192-202l-128-64v-112l128 64z" transform="translate(320 416)"/><path class="st1" d="M-120-246l-72 36v-104l72-36z" transform="translate(320 416)"/><path class="st2" d="M-124-333l-68 34v-8l68-34z" transform="translate(320 416)"/><path class="st3" d="M-125-340.5v7l-67 33.5v1l68-34v-8z" transform="translate(320 416)"/><path class="st4" d="M-132-329l-22 11-25 4.5z" transform="translate(320 416)"/><path class="st2" d="M-124-301l-68 34v-8l68-34zm0-16l-68 34v-8l68-34z" transform="translate(320 416)"/><path class="st4" d="M-156-301l-16 8-20 2z" transform="translate(320 416)"/><path class="st2" d="M-124-269l-68 34v-8l68-34z" transform="translate(320 416)"/><path class="st4" d="M-132-265l-22 11-25 4.5z" transform="translate(320 416)"/><path class="st2" d="M-124-285l-68 34v-8l68-34z" transform="translate(320 416)"/><path class="st5" d="M-124-285l-43 13.5 22-11z" transform="translate(320 416)"/><path class="st2" d="M-124-253l-68 34v-8l68-34z" transform="translate(320 416)"/><path class="st4" d="M-156-237l-16 8-20 2z" transform="translate(320 416)"/><path class="st3" d="M-125-308.5v7l-67 33.5v1l68-34v-8zm0-16v7l-67 33.5v1l68-34v-8zm0 48v7l-67 33.5v1l68-34v-8zm0 16v7l-67 33.5v1l68-34v-8zm0-32v7l-67 33.5v1l68-34v-8z" transform="translate(320 416)"/><path class="st7" d="M-120-246l-72 36v-104l72-36z" transform="translate(320 416)"/><path class="st1" d="M-248-414l-72 36 128 64 72-36z" transform="translate(320 416)"/><path class="st1" d="M-128-356l-120-60-64 32v6l120 60 64-32z" transform="translate(320 416)"/><path class="st7" d="M-128-356l-64 32v6l64-32z" transform="translate(320 416)"/><path class="st6" d="M-192-324l-120-60v6l120 60z" transform="translate(320 416)"/><path class="st1" d="M-128-356l-120-60-64 32 120 60z" transform="translate(320 416)"/><path class="st8" d="M-303.1-384l55.1-27.5 111.1 55.5-55.1 27.5z" transform="translate(320 416)"/><path class="st7" d="M-248-409v-2.5l-55.1 27.5 2.6 1.3z" transform="translate(320 416)"/><path class="st6" d="M-248-409l108.5 54.3 2.6-1.3-111.1-55.5z" transform="translate(320 416)"/><path class="st1" d="M-192-266l-32-16-32 16v34l48 24 64-32v-34l-16-8z" transform="translate(320 416)"/><path class="st2" d="M-206-221l36-18v18l-36 18z" transform="translate(320 416)"/><path class="st1" d="M-200-206l-1 .5v-18l1-.5zm5-2.5l-1 .5v-18l1-.5zm5-2.5l-1 .5v-18l1-.5zm5-2.5l-1 .5v-18l1-.5zm5-2.5l-1 .5v-18l1-.5zm5-2.5l-1 .5v-18l1-.5z" transform="translate(320 416)"/><path class="st5" d="M-202-223l32-16v18z" transform="translate(320 416)"/><path class="st5" d="M-188-230l18-9v18z" transform="translate(320 416)"/><path opacity=".3" fill="#e5e5e5" d="M-170-232l-36 18v-1l36-18z" transform="translate(320 416)"/><path class="st7" d="M-206-221l36-18v18l-36 18z" transform="translate(320 416)"/><path class="st1" d="M-222-201l8-4v-18l-8-4z" transform="translate(320 416)"/><path class="st7" d="M-222-201l8-4v-18l-8-4z" transform="translate(320 416)"/><path class="st0" d="M-222-201l14 7 46-23-8-4-38 19-6-3z" transform="translate(320 416)"/><path class="st8" d="M-208-202l-6-3-4 2 10 5 42-21-4-2z" transform="translate(320 416)"/><path class="st2" d="M-214-223l4 2v18l-4-2z" transform="translate(320 416)"/><path class="st4" d="M-214-223l4 20-4-2z" transform="translate(320 416)"/><path opacity=".39" fill="#e5e5e5" d="M-210-214l-4-2v-1l4 2z" transform="translate(320 416)"/><path class="st6" d="M-214-223l4 2v18l-4-2z" transform="translate(320 416)"/><path opacity=".2" d="M-208-227l-14-7v5l14 7 30-15v-5z" transform="translate(320 416)"/><path class="st1" d="M-162-217l-8-4v-17l8-13z" transform="translate(320 416)"/><path class="st6" d="M-162-217l-8-4v-17l8-13z" transform="translate(320 416)"/><path class="st1" d="M-256-266v48l34 17v-25l12 6v25l2 1v-48z" transform="translate(320 416)"/><path class="st2" d="M-232-228l-5-2.5v-8l5 2.5z" transform="translate(320 416)"/><path class="st3" d="M-236-231v-7l-1-.5v8l5 2.5v-1z" transform="translate(320 416)"/><path class="st2" d="M-240-232l-5-2.5v-8l5 2.5z" transform="translate(320 416)"/><path class="st4" d="M-240-232l-5-2.5v-8z" transform="translate(320 416)"/><path class="st3" d="M-244-235v-7l-1-.5v8l5 2.5v-1z" transform="translate(320 416)"/><path class="st2" d="M-248-236l-5-2.5v-8l5 2.5z" transform="translate(320 416)"/><path class="st3" d="M-252-239v-7l-1-.5v8l5 2.5v-1z" transform="translate(320 416)"/><path class="st2" d="M-232-241l-5-2.5v-8l5 2.5z" transform="translate(320 416)"/><path class="st3" d="M-236-244v-7l-1-.5v8l5 2.5v-1z" transform="translate(320 416)"/><path class="st2" d="M-240-245l-5-2.5v-8l5 2.5z" transform="translate(320 416)"/><path class="st3" d="M-244-248v-7l-1-.5v8l5 2.5v-1z" transform="translate(320 416)"/><path class="st2" d="M-248-249l-5-2.5v-8l5 2.5z" transform="translate(320 416)"/><path class="st3" d="M-252-252v-7l-1-.5v8l5 2.5v-1z" transform="translate(320 416)"/><path class="st2" d="M-224-224l-5-2.5v-8l5 2.5z" transform="translate(320 416)"/><path class="st3" d="M-228-227v-7l-1-.5v8l5 2.5v-1z" transform="translate(320 416)"/><path class="st2" d="M-232-215l-5-2.5v-8l5 2.5z" transform="translate(320 416)"/><path class="st3" d="M-236-218v-7l-1-.5v8l5 2.5v-1z" transform="translate(320 416)"/><path class="st2" d="M-240-219l-5-2.5v-8l5 2.5z" transform="translate(320 416)"/><path class="st4" d="M-240-219l-5-2.5v-8z" transform="translate(320 416)"/><path class="st3" d="M-244-222v-7l-1-.5v8l5 2.5v-1z" transform="translate(320 416)"/><path class="st2" d="M-248-223l-5-2.5v-8l5 2.5z" transform="translate(320 416)"/><path class="st3" d="M-252-226v-7l-1-.5v8l5 2.5v-1z" transform="translate(320 416)"/><path class="st2" d="M-224-211l-5-2.5v-8l5 2.5z" transform="translate(320 416)"/><path class="st3" d="M-228-214v-7l-1-.5v8l5 2.5v-1z" transform="translate(320 416)"/><path class="st2" d="M-224-237l-5-2.5v-8l5 2.5z" transform="translate(320 416)"/><path class="st3" d="M-228-240v-7l-1-.5v8l5 2.5v-1z" transform="translate(320 416)"/><path class="st12" d="M-217-238.5l2 1v10l-2-1z" transform="translate(320 416)"/><path class="st12" d="M-221-234.5v-2l10 5v2z" transform="translate(320 416)"/><path class="st6" d="M-256-266v48l34 17v-25l12 6v25l2 1v-48z" transform="translate(320 416)"/><path class="st1" d="M-208-242v48l2-1v-25l44-22v25l18-9v-48z" transform="translate(320 416)"/><path class="st2" d="M-162-252l-44 22v-8l44-22z" transform="translate(320 416)"/><path class="st4" d="M-162-252l-16 8-25 4.5z" transform="translate(320 416)"/><path class="st7" d="M-208-242v48l2-1v-25l44-22v25l18-9v-48z" transform="translate(320 416)"/><path class="st3" d="M-163-259.5v7l-43 21.5v1l44-22v-8z" transform="translate(320 416)"/></g></svg>