<svg xmlns="http://www.w3.org/2000/svg" width="80" height="68"><style>.st0{fill:#f8ebcb}.st1{fill:#fff}.st2{fill:#825012}.st3{fill:#39c}.st4{opacity:.15}.st4,.st5,.st6{enable-background:new}.st5{opacity:.3}.st6{opacity:6.000000e-02}.st7{fill:#762c07}.st11,.st8{enable-background:new}.st8{fill:#fff;opacity:.2}.st11{opacity:.39}</style><g id="i2053_1_"><path class="st0" d="M-168-544l16-24 16 8v20l-32 16z" transform="translate(216 592)"/><path class="st1" d="M-168-524l2-1v-22l-2 3zm22-16l-12 6v-13l12-6z" transform="translate(216 592)"/><path class="st2" d="M-147-540.5l-10 5v-11l10-5z" transform="translate(216 592)"/><path class="st3" d="M-156-537l8-4v-9l-8 4z" transform="translate(216 592)"/><path class="st4" d="M-148-543v-7l-8 4z" transform="translate(216 592)"/><path class="st2" d="M-156-543l8-4v1l-8 4z" transform="translate(216 592)"/><path class="st4" d="M-148-549l-8 4v-1l8-4z" transform="translate(216 592)"/><path class="st2" d="M-154-548l1-.5v10l-1 .5zm3-1.5l1-.5v10l-1 .5z" transform="translate(216 592)"/><path class="st5" d="M-148-541v-10l1-.5v11l-10 5v-1z" transform="translate(216 592)"/><path class="st0" d="M-216-568l48 24v20l-48-24z" transform="translate(216 592)"/><path class="st1" d="M-216-548l2 1v-20l-2-1zm46 23l2 1v-20l-2-1z" transform="translate(216 592)"/><path class="st5" d="M-170-525l-44-22v-1l44 22z" transform="translate(216 592)"/><path class="st1" d="M-201-545.5l-9-4.5v-13l9 4.5z" transform="translate(216 592)"/><path class="st2" d="M-202-547l-7-3.5v-11l7 3.5z" transform="translate(216 592)"/><path class="st3" d="M-208-551l5 2.5v-9l-5-2.5z" transform="translate(216 592)"/><path class="st4" d="M-203-550.5v-7l-5-2.5z" transform="translate(216 592)"/><path class="st2" d="M-208-557l5 2.5v1l-5-2.5z" transform="translate(216 592)"/><path class="st4" d="M-203-556.5l-5-2.5v-1l5 2.5z" transform="translate(216 592)"/><path class="st2" d="M-206-560l1 .5v10l-1-.5z" transform="translate(216 592)"/><path class="st5" d="M-208-551v-10l-1-.5v11l7 3.5v-1z" transform="translate(216 592)"/><path class="st1" d="M-174-532l-9-4.5v-13l9 4.5z" transform="translate(216 592)"/><path class="st2" d="M-175-533.5l-7-3.5v-11l7 3.5z" transform="translate(216 592)"/><path class="st3" d="M-181-537.5l5 2.5v-9l-5-2.5z" transform="translate(216 592)"/><path class="st4" d="M-176-537v-7l-5-2.5z" transform="translate(216 592)"/><path class="st2" d="M-181-543.5l5 2.5v1l-5-2.5z" transform="translate(216 592)"/><path class="st4" d="M-176-543l-5-2.5v-1l5 2.5z" transform="translate(216 592)"/><path class="st2" d="M-179-546.5l1 .5v10l-1-.5z" transform="translate(216 592)"/><path class="st5" d="M-181-537.5v-10l-1-.5v11l7 3.5v-1z" transform="translate(216 592)"/><path class="st1" d="M-187-551.5l-10-5v17l10 5z" transform="translate(216 592)"/><path class="st2" d="M-188-535l-8-4v-16l8 4z" transform="translate(216 592)"/><path class="st5" d="M-195-539.5v-15l-1-.5v16l8 4v-1z" transform="translate(216 592)"/><path class="st5" d="M-192-549l-2-1v-1l2 1zm3 1.5l-2-1v-1l2 1zm-3 2.5l-2-1v-1l2 1zm3 1.5l-2-1v-1l2 1zm-3 2.5l-2-1v-1l2 1zm3 1.5l-2-1v-1l2 1z" transform="translate(216 592)"/><path class="st6" d="M-216-568l48 24v20l-48-24z" transform="translate(216 592)"/><path class="st7" d="M-168-544l-48-24 16-24 48 24z" transform="translate(216 592)"/><path class="st6" d="M-168-544l-48-24 16-24 48 24z" transform="translate(216 592)"/><path class="st8" d="M-201.1-590.4l48 24 1.1-1.6-48-24z" transform="translate(216 592)"/><path fill="#656565" d="M-184-533l-16-8-8 4v1l16 8 8-4z" transform="translate(216 592)"/><path fill="#2d3134" d="M-188-535l-8-4-4 2 8 4z" transform="translate(216 592)"/><path class="st11" d="M-184-533v1l-8 4v-1z" transform="translate(216 592)"/><path class="st6" d="M-208-537v1l16 8v-1z" transform="translate(216 592)"/><path class="st1" d="M-202-536.5l-1-.5v-20l1 .5z" transform="translate(216 592)"/><path class="st6" d="M-202-536.5l-1-.5v-20l1 .5z" transform="translate(216 592)"/><path class="st1" d="M-202-556.5l1-.5v20l-1 .5z" transform="translate(216 592)"/><path class="st11" d="M-202-556.5l1-.5v20l-1 .5z" transform="translate(216 592)"/><path class="st1" d="M-193-532l-1-.5v-21l1 .5z" transform="translate(216 592)"/><path class="st6" d="M-193-532l-1-.5v-21l1 .5z" transform="translate(216 592)"/><path class="st1" d="M-193-553l1-.5v21l-1 .5z" transform="translate(216 592)"/><path class="st11" d="M-193-553l1-.5v21l-1 .5z" transform="translate(216 592)"/><path class="st0" d="M-209-557l18 9-9-16z" transform="translate(216 592)"/><path class="st1" d="M-204.3-556.3l3.9-3.3 3.8 7.1z" transform="translate(216 592)"/><path class="st7" d="M-200-563l8.3 14.6.7.4-9-16-9 7 .7.4z" transform="translate(216 592)"/><path class="st7" d="M-200-564l9 16 7.6-4.3 1.4-20.7z" transform="translate(216 592)"/><path class="st11" d="M-200-564l9 16 7.6-4.3 1.4-20.7z" transform="translate(216 592)"/><path class="st8" d="M-182.4-571.8l.4-1.2-18 9 .4.8z" transform="translate(216 592)"/><path class="st5" d="M-203.3-556.3l3.2-2.8-.3-.5-3.9 3.3 7.7 3.8-.3-.6z" transform="translate(216 592)"/><path class="st6" d="M-209-557l18 9-9-16z" transform="translate(216 592)"/><path class="st1" d="M-138-539l2-1v-20l-2-1z" transform="translate(216 592)"/><path class="st5" d="M-138-539l-28 14v-1l28-14z" transform="translate(216 592)"/><path class="st7" d="M-168-544l16-24 16 8h-1l-15-7-15 23z" transform="translate(216 592)"/><path class="st11" d="M-168-544l16-24 16 8v20l-32 16z" transform="translate(216 592)"/></g></svg>