<svg xmlns="http://www.w3.org/2000/svg" width="128" height="192"><style>.st0{fill:#e5e5e5}.st1{fill:#39c}.st2{opacity:.15}.st2,.st3,.st4,.st5{enable-background:new}.st3{opacity:.3}.st3,.st4,.st5{fill:#fff}.st4{opacity:.2}.st5{opacity:.7}.st6{fill:#2d3134}.st7{opacity:.39}.st7,.st8,.st9{enable-background:new}.st8{opacity:6.000000e-02}.st9{opacity:.25}</style><g id="i1235_1_"><path class="st0" d="M-1064-744l-64 32v128l64 32 64-32v-128z" transform="translate(1128 744)"/><path class="st1" d="M-1000-650l-64 32v-14l64-32z" transform="translate(1128 744)"/><path class="st2" d="M-1000-661l-64 32v-3l64-32z" transform="translate(1128 744)"/><path class="st2" d="M-1000-663l-64 32v-1l64-32z" transform="translate(1128 744)"/><path class="st3" d="M-1005-648.5l-4 2v-13l4-2z" transform="translate(1128 744)"/><path class="st4" d="M-1000-651l-4 2v-13l4-2z" transform="translate(1128 744)"/><path class="st3" d="M-1010-646l-4 2v-13l4-2z" transform="translate(1128 744)"/><path class="st4" d="M-1015-643.5l-4 2v-13l4-2zm-5 2.5l-4 2v-13l4-2z" transform="translate(1128 744)"/><path class="st3" d="M-1045-628.5l-4 2v-13l4-2zm-5 2.5l-4 2v-13l4-2z" transform="translate(1128 744)"/><path class="st1" d="M-1000-666l-64 32v-14l64-32z" transform="translate(1128 744)"/><path class="st2" d="M-1000-677l-64 32v-3l64-32z" transform="translate(1128 744)"/><path class="st2" d="M-1000-679l-64 32v-1l64-32z" transform="translate(1128 744)"/><path class="st3" d="M-1025-654.5l-4 2v-13l4-2z" transform="translate(1128 744)"/><path class="st4" d="M-1020-657l-4 2v-13l4-2z" transform="translate(1128 744)"/><path class="st3" d="M-1030-652l-4 2v-13l4-2z" transform="translate(1128 744)"/><path class="st4" d="M-1035-649.5l-4 2v-13l4-2zm-5 2.5l-4 2v-13l4-2z" transform="translate(1128 744)"/><path class="st1" d="M-1000-682l-64 32v-14l64-32z" transform="translate(1128 744)"/><path class="st2" d="M-1000-693l-64 32v-3l64-32z" transform="translate(1128 744)"/><path class="st2" d="M-1000-695l-64 32v-1l64-32z" transform="translate(1128 744)"/><path class="st3" d="M-1015-675.5l-4 2v-13l4-2z" transform="translate(1128 744)"/><path class="st4" d="M-1020-673l-4 2v-13l4-2zm-5 2.5l-4 2v-13l4-2z" transform="translate(1128 744)"/><path class="st3" d="M-1055-655.5l-4 2v-13l4-2zm-5 2.5l-4 2v-13l4-2z" transform="translate(1128 744)"/><path class="st1" d="M-1000-698l-64 32v-14l64-32z" transform="translate(1128 744)"/><path class="st2" d="M-1000-709l-64 32v-3l64-32z" transform="translate(1128 744)"/><path class="st2" d="M-1000-711l-64 32v-1l64-32z" transform="translate(1128 744)"/><path class="st3" d="M-1010-694l-4 2v-13l4-2z" transform="translate(1128 744)"/><path class="st4" d="M-1005-696.5l-4 2v-13l4-2z" transform="translate(1128 744)"/><path class="st3" d="M-1035-681.5l-4 2v-13l4-2z" transform="translate(1128 744)"/><path class="st4" d="M-1040-679l-4 2v-13l4-2zm-5 2.5l-4 2v-13l4-2z" transform="translate(1128 744)"/><path class="st5" d="M-1059-619.5l-1 .5v-63l1-.5zm5-2.5l-1 .5v-63l1-.5zm5-2.5l-1 .5v-63l1-.5zm5-2.5l-1 .5v-63l1-.5zm5-2.5l-1 .5v-63l1-.5zm5-2.5l-1 .5v-63l1-.5zm5-2.5l-1 .5v-63l1-.5zm5-2.5l-1 .5v-63l1-.5zm5-2.5l-1 .5v-63l1-.5zm5-2.5l-1 .5v-63l1-.5zm5-2.5l-1 .5v-63l1-.5zm5-2.5l-1 .5v-63l1-.5z" transform="translate(1128 744)"/><path class="st0" d="M-1000-648l-64 32v-3l64-32zm0-16l-64 32v-3l64-32zm0-16l-64 32v-3l64-32zm0-16l-64 32v-3l64-32z" transform="translate(1128 744)"/><path class="st1" d="M-1064-618l-64-32v-14l64 32z" transform="translate(1128 744)"/><path class="st2" d="M-1064-629l-64-32v-3l64 32z" transform="translate(1128 744)"/><path class="st2" d="M-1064-631l-64-32v-1l64 32z" transform="translate(1128 744)"/><path class="st4" d="M-1064-619l-4-2v-13l4 2zm-5-2.5l-4-2v-13l4 2zm-5-2.5l-4-2v-13l4 2z" transform="translate(1128 744)"/><path class="st3" d="M-1109-641.5l-4-2v-13l4 2zm5 2.5l-4-2v-13l4 2zm-10-5l-4-2v-13l4 2z" transform="translate(1128 744)"/><path class="st1" d="M-1064-634l-64-32v-14l64 32z" transform="translate(1128 744)"/><path class="st2" d="M-1064-645l-64-32v-3l64 32z" transform="translate(1128 744)"/><path class="st2" d="M-1064-647l-64-32v-1l64 32z" transform="translate(1128 744)"/><path class="st3" d="M-1089-647.5l-4-2v-13l4 2z" transform="translate(1128 744)"/><path class="st4" d="M-1084-645l-4-2v-13l4 2z" transform="translate(1128 744)"/><path class="st3" d="M-1094-650l-4-2v-13l4 2z" transform="translate(1128 744)"/><path class="st4" d="M-1114-660l-4-2v-13l4 2zm-5-2.5l-4-2v-13l4 2z" transform="translate(1128 744)"/><path class="st1" d="M-1064-650l-64-32v-14l64 32z" transform="translate(1128 744)"/><path class="st2" d="M-1064-661l-64-32v-3l64 32z" transform="translate(1128 744)"/><path class="st2" d="M-1064-663l-64-32v-1l64 32z" transform="translate(1128 744)"/><path class="st3" d="M-1074-656l-4-2v-13l4 2z" transform="translate(1128 744)"/><path class="st4" d="M-1079-658.5l-4-2v-13l4 2zm-5-2.5l-4-2v-13l4 2z" transform="translate(1128 744)"/><path class="st3" d="M-1119-678.5l-4-2v-13l4 2zm-5-2.5l-4-2v-13l4 2z" transform="translate(1128 744)"/><path class="st1" d="M-1064-666l-64-32v-14l64 32z" transform="translate(1128 744)"/><path class="st2" d="M-1064-677l-64-32v-3l64 32z" transform="translate(1128 744)"/><path class="st2" d="M-1064-679l-64-32v-1l64 32z" transform="translate(1128 744)"/><path class="st3" d="M-1069-669.5l-4-2v-13l4 2z" transform="translate(1128 744)"/><path class="st4" d="M-1064-667l-4-2v-13l4 2z" transform="translate(1128 744)"/><path class="st3" d="M-1099-684.5l-4-2v-13l4 2zm5 2.5l-4-2v-13l4 2z" transform="translate(1128 744)"/><path class="st4" d="M-1104-687l-4-2v-13l4 2zm-5-2.5l-4-2v-13l4 2z" transform="translate(1128 744)"/><path class="st5" d="M-1123-646.5l-1-.5v-63l1 .5zm5 2.5l-1-.5v-63l1 .5zm5 2.5l-1-.5v-63l1 .5zm5 2.5l-1-.5v-63l1 .5zm5 2.5l-1-.5v-63l1 .5zm5 2.5l-1-.5v-63l1 .5zm5 2.5l-1-.5v-63l1 .5zm5 2.5l-1-.5v-63l1 .5zm5 2.5l-1-.5v-63l1 .5zm5 2.5l-1-.5v-63l1 .5zm5 2.5l-1-.5v-63l1 .5zm5 2.5l-1-.5v-63l1 .5z" transform="translate(1128 744)"/><path class="st0" d="M-1064-616l-64-32v-3l64 32zm0-16l-64-32v-3l64 32zm0-16l-64-32v-3l64 32zm0-16l-64-32v-3l64 32z" transform="translate(1128 744)"/><path class="st2" d="M-1064-580.2l-64-32.1v-.7l64 32z" transform="translate(1128 744)"/><path class="st1" d="M-1064-586l-64-32v-15l64 32z" transform="translate(1128 744)"/><path class="st2" d="M-1064-597l-64-32v-4l64 32z" transform="translate(1128 744)"/><path class="st2" d="M-1064-599l-64-32v-2l64 32z" transform="translate(1128 744)"/><path class="st1" d="M-1064-602l-64-32v-14l64 32z" transform="translate(1128 744)"/><path class="st2" d="M-1064-613l-64-32v-3l64 32z" transform="translate(1128 744)"/><path class="st2" d="M-1064-615l-64-32v-1l64 32z" transform="translate(1128 744)"/><path class="st6" d="M-1064-581l-64-32v-6l64 32z" transform="translate(1128 744)"/><path class="st1" d="M-1113-576.5l-11-5.5v-27l11 5.5zm15 7.5l-11-5.5v-27l11 5.5zm15 7.5l-11-5.5v-27l11 5.5zm15 7.5l-11-5.5v-27l11 5.5z" transform="translate(1128 744)"/><path class="st2" d="M-1113-599.5l-11-5.5v-4l11 5.5zm15 7.5l-11-5.5v-4l11 5.5zm15 7.5l-11-5.5v-4l11 5.5zm15 7.5l-11-5.5v-4l11 5.5z" transform="translate(1128 744)"/><path class="st2" d="M-1113-601.5l-11-5.5v-2l11 5.5zm15 7.5l-11-5.5v-2l11 5.5zm15 7.5l-11-5.5v-2l11 5.5zm15 7.5l-11-5.5v-2l11 5.5z" transform="translate(1128 744)"/><path class="st2" d="M-1113-602.5l-11-5.5v-1l11 5.5zm15 7.5l-11-5.5v-1l11 5.5zm15 7.5l-11-5.5v-1l11 5.5zm15 7.5l-11-5.5v-1l11 5.5z" transform="translate(1128 744)"/><path class="st5" d="M-1123-616.5l-1-.5v-29l1 .5zm5 2.5l-1-.5v-29l1 .5zm5 2.5l-1-.5v-29l1 .5zm5 2.5l-1-.5v-29l1 .5zm5 2.5l-1-.5v-29l1 .5zm5 2.5l-1-.5v-29l1 .5zm5 2.5l-1-.5v-29l1 .5zm5 2.5l-1-.5v-29l1 .5zm5 2.5l-1-.5v-29l1 .5zm5 2.5l-1-.5v-29l1 .5zm5 2.5l-1-.5v-29l1 .5zm5 2.5l-1-.5v-29l1 .5zm-45-2.5l-3-1.5v-12l-1-.5v12l-3-1.5v-12l-1-.5v12l-3-1.5v1l3 1.5v14l1 .5v-14l3 1.5v14l1 .5v-14l3 1.5zm15 7.5l-3-1.5v-12l-1-.5v12l-3-1.5v-12l-1-.5v12l-3-1.5v1l3 1.5v14l1 .5v-14l3 1.5v14l1 .5v-14l3 1.5zm15 7.5l-3-1.5v-12l-1-.5v12l-3-1.5v-12l-1-.5v12l-3-1.5v1l3 1.5v14l1 .5v-14l3 1.5v14l1 .5v-14l3 1.5zm15 7.5l-3-1.5v-12l-1-.5v12l-3-1.5v-12l-1-.5v12l-3-1.5v1l3 1.5v14l1 .5v-14l3 1.5v14l1 .5v-14l3 1.5z" transform="translate(1128 744)"/><path class="st0" d="M-1064-600l-64-32v-3l64 32z" transform="translate(1128 744)"/><path class="st4" d="M-1069-589.5l-4-2v-13l4 2z" transform="translate(1128 744)"/><path class="st3" d="M-1064-587l-4-2v-13l4 2z" transform="translate(1128 744)"/><path class="st4" d="M-1074-592l-4-2v-13l4 2z" transform="translate(1128 744)"/><path class="st3" d="M-1079-594.5l-4-2v-13l4 2zm-30-15l-4-2v-13l4 2zm-5-2.5l-4-2v-13l4 2zm25-3.5l-4-2v-13l4 2z" transform="translate(1128 744)"/><path class="st4" d="M-1084-613l-4-2v-13l4 2z" transform="translate(1128 744)"/><path class="st3" d="M-1094-618l-4-2v-13l4 2z" transform="translate(1128 744)"/><path class="st4" d="M-1099-620.5l-4-2v-13l4 2zm-5-2.5l-4-2v-13l4 2z" transform="translate(1128 744)"/><path class="st2" d="M-1000-612.3l-64 32.1v-.8l64-32z" transform="translate(1128 744)"/><path class="st1" d="M-1000-618l-64 32v-15l64-32z" transform="translate(1128 744)"/><path class="st2" d="M-1000-629l-64 32v-4l64-32z" transform="translate(1128 744)"/><path class="st2" d="M-1000-631l-64 32v-2l64-32z" transform="translate(1128 744)"/><path class="st1" d="M-1000-634l-64 32v-14l64-32z" transform="translate(1128 744)"/><path class="st2" d="M-1000-645l-64 32v-3l64-32z" transform="translate(1128 744)"/><path class="st2" d="M-1000-647l-64 32v-1l64-32z" transform="translate(1128 744)"/><path class="st6" d="M-1000-613l-64 32v-6l64-32z" transform="translate(1128 744)"/><path class="st1" d="M-1049-559.5l-11 5.5v-27l11-5.5zm15-7.5l-11 5.5v-27l11-5.5zm15-7.5l-11 5.5v-27l11-5.5zm15-7.5l-11 5.5v-27l11-5.5z" transform="translate(1128 744)"/><path class="st2" d="M-1049-582.5l-11 5.5v-4l11-5.5zm15-7.5l-11 5.5v-4l11-5.5zm15-7.5l-11 5.5v-4l11-5.5zm15-7.5l-11 5.5v-4l11-5.5z" transform="translate(1128 744)"/><path class="st2" d="M-1049-584.5l-11 5.5v-2l11-5.5zm15-7.5l-11 5.5v-2l11-5.5zm15-7.5l-11 5.5v-2l11-5.5zm15-7.5l-11 5.5v-2l11-5.5z" transform="translate(1128 744)"/><path class="st2" d="M-1049-585.5l-11 5.5v-1l11-5.5zm15-7.5l-11 5.5v-1l11-5.5zm15-7.5l-11 5.5v-1l11-5.5zm15-7.5l-11 5.5v-1l11-5.5z" transform="translate(1128 744)"/><path class="st5" d="M-1059-589.5l-1 .5v-29l1-.5zm5-2.5l-1 .5v-29l1-.5zm5-2.5l-1 .5v-29l1-.5zm5-2.5l-1 .5v-29l1-.5zm5-2.5l-1 .5v-29l1-.5zm5-2.5l-1 .5v-29l1-.5zm5-2.5l-1 .5v-29l1-.5zm5-2.5l-1 .5v-29l1-.5zm5-2.5l-1 .5v-29l1-.5zm5-2.5l-1 .5v-29l1-.5zm5-2.5l-1 .5v-29l1-.5zm5-2.5l-1 .5v-29l1-.5zm-45 42.5l-3 1.5v-12l-1 .5v12l-3 1.5v-12l-1 .5v12l-3 1.5v1l3-1.5v14l1-.5v-14l3-1.5v14l1-.5v-14l3-1.5zm15-7.5l-3 1.5v-12l-1 .5v12l-3 1.5v-12l-1 .5v12l-3 1.5v1l3-1.5v14l1-.5v-14l3-1.5v14l1-.5v-14l3-1.5zm15-7.5l-3 1.5v-12l-1 .5v12l-3 1.5v-12l-1 .5v12l-3 1.5v1l3-1.5v14l1-.5v-14l3-1.5v14l1-.5v-14l3-1.5zm15-7.5l-3 1.5v-12l-1 .5v12l-3 1.5v-12l-1 .5v12l-3 1.5v1l3-1.5v14l1-.5v-14l3-1.5v14l1-.5v-14l3-1.5z" transform="translate(1128 744)"/><path class="st0" d="M-1000-632l-64 32v-3l64-32z" transform="translate(1128 744)"/><path class="st4" d="M-1005-616.5l-4 2v-13l4-2z" transform="translate(1128 744)"/><path class="st3" d="M-1000-619l-4 2v-13l4-2z" transform="translate(1128 744)"/><path class="st4" d="M-1010-614l-4 2v-13l4-2z" transform="translate(1128 744)"/><path class="st3" d="M-1025-606.5l-4 2v-13l4-2zm-5 2.5l-4 2v-13l4-2zm-20 10l-4 2v-13l4-2zm25-28.5l-4 2v-13l4-2z" transform="translate(1128 744)"/><path class="st4" d="M-1020-625l-4 2v-13l4-2z" transform="translate(1128 744)"/><path class="st3" d="M-1030-620l-4 2v-13l4-2z" transform="translate(1128 744)"/><path class="st4" d="M-1035-617.5l-4 2v-13l4-2zm-5 2.5l-4 2v-13l4-2z" transform="translate(1128 744)"/><path class="st3" d="M-1055-607.5l-4 2v-13l4-2zm-5 2.5l-4 2v-13l4-2z" transform="translate(1128 744)"/><path class="st7" d="M-1064-680v128l64-32v-128z" transform="translate(1128 744)"/><path class="st8" d="M-1128-712v128l64 32v-128z" transform="translate(1128 744)"/><path class="st9" d="M-1119.1-712l55.1-27.5 55.1 27.5-55.1 27.5z" transform="translate(1128 744)"/><path class="st7" d="M-1064-737.5v-2l-55.1 27.5 2 1z" transform="translate(1128 744)"/><path class="st8" d="M-1064-737.5l53.1 26.5 2-1-55.1-27.5z" transform="translate(1128 744)"/><path class="st0" d="M-1070-731l-12 6v4l12 6 12-6v-4z" transform="translate(1128 744)"/><path class="st7" d="M-1058-721l-12 6v-4l12-6z" transform="translate(1128 744)"/><path class="st8" d="M-1082-721l12 6v-4l-12-6z" transform="translate(1128 744)"/><path class="st0" d="M-1046-724l-20 10v6l20 10 20-10v-6z" transform="translate(1128 744)"/><path class="st7" d="M-1026-708l-20 10v-6l20-10z" transform="translate(1128 744)"/><path class="st8" d="M-1066-708l20 10v-6l-20-10z" transform="translate(1128 744)"/><path class="st9" d="M-1046-720l12 6-12 6-12-6z" transform="translate(1128 744)"/></g></svg>