<svg xmlns="http://www.w3.org/2000/svg" width="262" height="429"><style>.st0{fill:#e5e5e5}.st1,.st2{opacity:.11;enable-background:new}.st2{opacity:.29}.st3{fill:#999}.st4{opacity:.2;enable-background:new}.st5{fill:#fc0}.st6{opacity:.15;enable-background:new}.st7{fill:#656565}.st8{fill:#2d3134}.st11{opacity:.29}.st12{opacity:.11}.st13{fill:#6c7175}.st14{opacity:.4;enable-background:new}.st15{fill:#727070}.st16{fill:#fbd7c7}</style><g id="i1667_1_"><path class="st0" d="M506 225l-64 32-8-4v-8l64-32 8 4z" transform="matrix(-1 0 0 1 688 64)"/><path class="st1" d="M506 225l-64 32v-8l64-32z" transform="matrix(-1 0 0 1 688 64)"/><path class="st0" d="M426 329l8 4 8-4v-80l-8-4-8 4z" transform="matrix(-1 0 0 1 688 64)"/><path class="st2" d="M426 329l8 4v-80l-8-4z" transform="matrix(-1 0 0 1 688 64)"/><path class="st1" d="M434 333l8-4v-80l-8 4z" transform="matrix(-1 0 0 1 688 64)"/><path class="st0" d="M498 229l56 28 8-4v-8l-56-28-8 4z" transform="matrix(-1 0 0 1 688 64)"/><path class="st2" d="M498 229l56 28v-8l-56-28z" transform="matrix(-1 0 0 1 688 64)"/><path class="st0" d="M554 329l8 4 8-4v-80l-8-4-8 4z" transform="matrix(-1 0 0 1 688 64)"/><path class="st2" d="M554 329l8 4v-80l-8-4z" transform="matrix(-1 0 0 1 688 64)"/><path class="st1" d="M562 333l8-4v-80l-8 4z" transform="matrix(-1 0 0 1 688 64)"/><path class="st0" d="M570 257l-64 32-8-4v-8l64-32 8 4z" transform="matrix(-1 0 0 1 688 64)"/><path class="st1" d="M570 257l-64 32v-8l64-32z" transform="matrix(-1 0 0 1 688 64)"/><path class="st0" d="M434 261l56 28 8-4v-8l-56-28-8 4z" transform="matrix(-1 0 0 1 688 64)"/><path class="st2" d="M434 261l56 28v-8l-56-28z" transform="matrix(-1 0 0 1 688 64)"/><path class="st0" d="M490 361l8 4 8-4v-80l-8-4-8 4z" transform="matrix(-1 0 0 1 688 64)"/><path class="st2" d="M490 361l8 4v-80l-8-4z" transform="matrix(-1 0 0 1 688 64)"/><path class="st1" d="M498 365l8-4v-80l-8 4z" transform="matrix(-1 0 0 1 688 64)"/><path class="st0" d="M426 249l8 4 8-4 32-56-8-4-8 4z" transform="matrix(-1 0 0 1 688 64)"/><path class="st2" d="M426 249l8 4 32-56-8-4z" transform="matrix(-1 0 0 1 688 64)"/><path class="st1" d="M434 253l8-4 32-56-8 4z" transform="matrix(-1 0 0 1 688 64)"/><path class="st0" d="M554 249l8 4 8-4-32-56-8-4-8 4z" transform="matrix(-1 0 0 1 688 64)"/><path class="st2" d="M554 249l8 4-32-56-8-4z" transform="matrix(-1 0 0 1 688 64)"/><path class="st1" d="M562 253l8-4-32-56-8 4z" transform="matrix(-1 0 0 1 688 64)"/><path class="st0" d="M490 281l8 4 8-4v-72l-8-4-8 4z" transform="matrix(-1 0 0 1 688 64)"/><path class="st2" d="M490 281l8 4v-72l-8-4z" transform="matrix(-1 0 0 1 688 64)"/><path class="st1" d="M498 285l8-4v-72l-8 4z" transform="matrix(-1 0 0 1 688 64)"/><path class="st3" d="M458 189l40-20 40 20v4l-40 20-40-20z" transform="matrix(-1 0 0 1 688 64)"/><path class="st2" d="M498 213l-40-20v-4l40 20z" transform="matrix(-1 0 0 1 688 64)"/><path class="st1" d="M498 213l40-20v-4l-40 20z" transform="matrix(-1 0 0 1 688 64)"/><path class="st0" d="M498 157c-8.8 0-16 3.6-16 8v24c0 4.4 7.2 8 16 8s16-3.6 16-8v-24c0-4.4-7.2-8-16-8z" transform="matrix(-1 0 0 1 688 64)"/><path class="st4" d="M498 173c-8.8 0-16-3.6-16-8v24c0 4.4 7.2 8 16 8s16-3.6 16-8v-24c0 4.4-7.2 8-16 8z" transform="matrix(-1 0 0 1 688 64)"/><path class="st5" d="M626 70l-14 7v15l62 31 14-7v-15z" transform="matrix(-1 0 0 1 688 64)"/><path class="st2" d="M612 77v15l62 31v-15z" transform="matrix(-1 0 0 1 688 64)"/><path class="st1" d="M688 101v15l-14 7v-15z" transform="matrix(-1 0 0 1 688 64)"/><path class="st6" d="M686 115l-4 2v-11l4-2zm-6 3l-4 2v-11l4-2zm-65-37.5l-1-.5v11l1 .5zm2 1l-1-.5v11l1 .5zm2 1l-1-.5v11l1 .5zm2 1l-1-.5v11l1 .5zm2 1l-1-.5v11l1 .5zm2 1l-1-.5v11l1 .5zm2 1l-1-.5v11l1 .5zm2 1l-1-.5v11l1 .5zm2 1l-1-.5v11l1 .5zm2 1l-1-.5v11l1 .5zm2 1l-1-.5v11l1 .5zm2 1l-1-.5v11l1 .5zm2 1l-1-.5v11l1 .5zm2 1l-1-.5v11l1 .5zm2 1l-1-.5v11l1 .5zm2 1l-1-.5v11l1 .5zm2 1l-1-.5v11l1 .5zm2 1l-1-.5v11l1 .5zm2 1l-1-.5v11l1 .5zm2 1l-1-.5v11l1 .5zm2 1l-1-.5v11l1 .5zm2 1l-1-.5v11l1 .5zm2 1l-1-.5v11l1 .5zm2 1l-1-.5v11l1 .5zm2 1l-1-.5v11l1 .5zm2 1l-1-.5v11l1 .5zm2 1l-1-.5v11l1 .5zm2 1l-1-.5v11l1 .5zm2 1l-1-.5v11l1 .5zm2 1l-1-.5v11l1 .5z" transform="matrix(-1 0 0 1 688 64)"/><path class="st7" d="M670 104l14-7 4 2v2l-14 7-4-2z" transform="matrix(-1 0 0 1 688 64)"/><path class="st2" d="M674 108l-4-2v-2l4 2z" transform="matrix(-1 0 0 1 688 64)"/><path class="st1" d="M674 108l14-7v-2l-14 7z" transform="matrix(-1 0 0 1 688 64)"/><path class="st7" d="M612 75l14-7 4 2v2l-14 7-4-2z" transform="matrix(-1 0 0 1 688 64)"/><path class="st2" d="M616 79l-4-2v-2l4 2z" transform="matrix(-1 0 0 1 688 64)"/><path class="st1" d="M616 79l14-7v-2l-14 7z" transform="matrix(-1 0 0 1 688 64)"/><path class="st7" d="M618 78v-2l2-1 54 27-4 2z" transform="matrix(-1 0 0 1 688 64)"/><path class="st2" d="M618 78v-2l54 27-2 1z" transform="matrix(-1 0 0 1 688 64)"/><path class="st7" d="M626 74v-2l2-1 54 27-4 2z" transform="matrix(-1 0 0 1 688 64)"/><path class="st2" d="M626 74v-2l54 27-2 1z" transform="matrix(-1 0 0 1 688 64)"/><path class="st8" d="M651 49l1 .5 23 56-1 .5z" transform="matrix(-1 0 0 1 688 64)"/><path class="st8" d="M651 49l1 .5L688 99l-1 .5zm-6-3v1l-31 27-2 1z" transform="matrix(-1 0 0 1 688 64)"/><path class="st8" d="M645 46v1l-19 21-2 1z" transform="matrix(-1 0 0 1 688 64)"/><path class="st3" d="M458 165l40-20 40 20v4l-40 20-40-20z" transform="matrix(-1 0 0 1 688 64)"/><path class="st2" d="M498 189l-40-20v-4l40 20z" transform="matrix(-1 0 0 1 688 64)"/><path class="st1" d="M498 189l40-20v-4l-40 20z" transform="matrix(-1 0 0 1 688 64)"/><path class="st0" d="M528 138l-14-7-14 7v20l14 7 10-5v-4l4-16z" transform="matrix(-1 0 0 1 688 64)"/><path fill="#39c" d="M522 157l4-16-9.3 4.6v14z" transform="matrix(-1 0 0 1 688 64)"/><path opacity=".2" fill="#231f20" d="M525 141.5l-4 15.5-4.4 2.2.1.4 5.3-2.6 4-16z" transform="matrix(-1 0 0 1 688 64)"/><path class="st1" d="M514 165l10-5v-4l4-16v-2l-14 7z" transform="matrix(-1 0 0 1 688 64)"/><path class="st2" d="M514 165l-14-7v-20l14 7z" transform="matrix(-1 0 0 1 688 64)"/><path class="st0" d="M504 126v21l58-166-4-2-6-3-54 147z" transform="matrix(-1 0 0 1 688 64)"/><path class="st1" d="M562-19l-58 166v-21l54-147z" transform="matrix(-1 0 0 1 688 64)"/><path class="st7" d="M643 44.4l1-.5c.4.6.9 1.2 1.6 1.5.3.2.6.2.9.2.1-.2.2-.5.2-.8 0-.5-.2-.9-.6-1.3l-.1-.1v-5l1-.5 3 1.5v4.5l-.3.3c-.1.2-.2.4-.2.7 0 1.1.9 2.4 2 3 .3.1.5.2.8.2.1-.1.1-.3.2-.4l1-.5v.3c0 1.1-1.1 2-2.2 2h-.4c-.2 0-.3-.1-.5-.1-.1 0-.3-.1-.4-.2-1-.5-1.9-1.5-2.3-2.6l-.7.3h-.1c-.4.2-1 .1-1.7-.2-1-.3-1.8-1.3-2.2-2.3z" transform="matrix(-1 0 0 1 688 64)"/><path class="st1" d="M649 44.5l1-.5v-4.5l-1 .5z" transform="matrix(-1 0 0 1 688 64)"/><path class="st2" d="M644.6 45.9c1.2.6 2.1.1 2.1-1.1 0-.5-.2-.9-.6-1.3l-.1-.1v-5l3 1.5v4.5c-.3.2-.5.6-.5 1.1 0 1.1.9 2.4 2 3 1 .5 1.8.2 2-.7v.3c0 1.4-1.1 1.9-2.5 1.3-1.1-.6-2-1.7-2.4-2.9-.3.8-1.3 1.1-2.4.5-1-.5-1.8-1.5-2.2-2.5.4.5.9 1.1 1.6 1.4z" transform="matrix(-1 0 0 1 688 64)"/><path class="st8" d="M651 41l-2 1-4-2-1-5 2-1 6 3z" transform="matrix(-1 0 0 1 688 64)"/><path class="st2" d="M650 38l-1 4-4-2-1-5z" transform="matrix(-1 0 0 1 688 64)"/><path class="st1" d="M652 37l-1 4-2 1 1-4z" transform="matrix(-1 0 0 1 688 64)"/><path class="st3" d="M650.6-6.6c0 2.9-2.4 6.5-5.3 8s-5.3.3-5.3-2.7c0-2.9 2.4-6.5 5.3-8 3-1.5 5.3-.3 5.3 2.7z" transform="matrix(-1 0 0 1 688 64)"/><path class="st1" d="M650.6-6.6c0 2.9-2.4 6.5-5.3 8s-5.3.3-5.3-2.7c0-2.9 2.4-6.5 5.3-8 3-1.5 5.3-.3 5.3 2.7z" transform="matrix(-1 0 0 1 688 64)"/><path class="st8" d="M642.8-.2c0-2.7 2.2-6.1 4.9-7.4.9-.5 1.8-.6 2.6-.6-.8-1.1-2.5-1.3-4.3-.4-2.7 1.4-4.9 4.7-4.9 7.4-.1 1.8 1.7 1.8 1.7 1z" transform="matrix(-1 0 0 1 688 64)"/><path class="st3" d="M660 26l-10-5-10 5v4l2 4 10 5 2-1 6-8z" transform="matrix(-1 0 0 1 688 64)"/><path class="st1" d="M652 39l2-1 6-8v-4l-10 5v4z" transform="matrix(-1 0 0 1 688 64)"/><path class="st2" d="M652 39l-10-5-2-4v-4l10 5v4z" transform="matrix(-1 0 0 1 688 64)"/><path class="st8" d="M657-1.5l1-.5 1 .5V26l-1 .5-1-.5z" transform="matrix(-1 0 0 1 688 64)"/><g class="st11"><path class="st2" d="M657-1.5l1-.5v28.5l-1-.5z" transform="matrix(-1 0 0 1 688 64)"/></g><g class="st12"><path class="st1" d="M658-2l1 .5V26l-1 .5z" transform="matrix(-1 0 0 1 688 64)"/></g><path class="st8" d="M649 2.5l1-.5 1 .5V30l-1 .5-1-.5z" transform="matrix(-1 0 0 1 688 64)"/><g class="st11"><path class="st2" d="M649 2.5l1-.5v28.5l-1-.5z" transform="matrix(-1 0 0 1 688 64)"/></g><g class="st12"><path class="st1" d="M650 2l1 .5V30l-1 .5z" transform="matrix(-1 0 0 1 688 64)"/></g><path class="st8" d="M641-1.5l1-.5 1 .5V26l-1 .5-1-.5z" transform="matrix(-1 0 0 1 688 64)"/><g class="st11"><path class="st2" d="M641-1.5l1-.5v28.5l-1-.5z" transform="matrix(-1 0 0 1 688 64)"/></g><g class="st12"><path class="st1" d="M642-2l1 .5V26l-1 .5z" transform="matrix(-1 0 0 1 688 64)"/></g><path class="st0" d="M490 169l8 4 8-4V53l-8-8-8-4z" transform="matrix(-1 0 0 1 688 64)"/><path class="st2" d="M490 169l8 4V45l-8-4z" transform="matrix(-1 0 0 1 688 64)"/><path class="st1" d="M498 173l8-4V53l-8-8z" transform="matrix(-1 0 0 1 688 64)"/><path class="st3" d="M495.1 98.8c1.2-1.7 2-3.7 2-5.5 0-1.6-.7-2.8-1.7-3.3-.1 0-.2-.1-.2-.1l-26.1-13s-.2-.1-.3-.1c-1-.3-2.3-.2-3.8.5-3.3 1.7-6 5.7-6 9 0 1.8.8 3 2 3.5l26.3 13.1c1 .3 2.3.1 3.7-.6 1.4-.7 2.7-1.8 3.7-3.1l.4-.4z" transform="matrix(-1 0 0 1 688 64)"/><path class="st1" d="M497.1 93.3c0 3.3-2.7 7.3-6 9-3.3 1.7-6 .3-6-3s2.7-7.3 6-9c3.3-1.7 6-.3 6 3z" transform="matrix(-1 0 0 1 688 64)"/><path class="st3" d="M519.8 65l4.2 3.3 1-2-31.5-32.1-2.6-1.3-1 2z" transform="matrix(-1 0 0 1 688 64)"/><path class="st1" d="M524 68.3l1-2-31.5-32.1-1 2z" transform="matrix(-1 0 0 1 688 64)"/><path class="st3" d="M491.1 33.6l-18 49-2 2-2-1 20-55 2 1z" transform="matrix(-1 0 0 1 688 64)"/><path class="st2" d="M491.1 33.6l-18 49-2 2-2-1 20-55 2 1z" transform="matrix(-1 0 0 1 688 64)"/><path class="st1" d="M491.1 29.6l-20 55 2-2 18-49z" transform="matrix(-1 0 0 1 688 64)"/><path class="st0" d="M475.1 62.5l4.6 2.3 4.7.8L529-27.9l-4.7-2.3-4.7-.8z" transform="matrix(-1 0 0 1 688 64)"/><path class="st1" d="M479.7 64.8l4.7.8L529-27.9l-4.7-.8z" transform="matrix(-1 0 0 1 688 64)"/><path class="st3" d="M501.1 38.6l-18 49-2 2-2-1 20-55 2 1z" transform="matrix(-1 0 0 1 688 64)"/><path class="st2" d="M501.1 38.6l-18 49-2 2-2-1 20-55 2 1z" transform="matrix(-1 0 0 1 688 64)"/><path class="st1" d="M501.1 34.6l-20 55 2-2 18-49z" transform="matrix(-1 0 0 1 688 64)"/><path class="st0" d="M650-1.9L518-34l-5 1.9 4 2L649 2l5-1.9z" transform="matrix(-1 0 0 1 688 64)"/><path class="st1" d="M517-30.1l5-1.9L654 .1 649 2z" transform="matrix(-1 0 0 1 688 64)"/><path class="st0" d="M568-64l4 2h6l79 61h-7l-4-2z" transform="matrix(-1 0 0 1 688 64)"/><path class="st2" d="M568-64l4 2 78 61-4-2z" transform="matrix(-1 0 0 1 688 64)"/><path class="st1" d="M572-62h6l79 61h-7z" transform="matrix(-1 0 0 1 688 64)"/><path class="st0" d="M555.6-24.6l3.1 1.6 3.3 1 14-38-3.1-1.6-3.3-1z" transform="matrix(-1 0 0 1 688 64)"/><path class="st1" d="M558.7-23l3.3 1 14-38-3.3-1z" transform="matrix(-1 0 0 1 688 64)"/><path class="st3" d="M659-2.9c0 2.8-2.2 6.1-5 7.5s-5 .3-5-2.5 2.2-6.1 5-7.5c2.7-1.4 5-.3 5 2.5z" transform="matrix(-1 0 0 1 688 64)"/><path class="st1" d="M659-2.9c0 2.8-2.2 6.1-5 7.5s-5 .3-5-2.5 2.2-6.1 5-7.5c2.7-1.4 5-.3 5 2.5z" transform="matrix(-1 0 0 1 688 64)"/><path class="st0" d="M513-32l3.9 2h6.1l55.1-32-4.1-2h-6z" transform="matrix(-1 0 0 1 688 64)"/><path class="st1" d="M516.9-30h6.1l55.1-32H572z" transform="matrix(-1 0 0 1 688 64)"/><path class="st0" d="M518 155l-40-20-20 10v20l40 20 20-10z" transform="matrix(-1 0 0 1 688 64)"/><path class="st6" d="M458 160v1l40 20 20-10v-1l-20 10z" transform="matrix(-1 0 0 1 688 64)"/><path class="st6" d="M458 155v1l40 20 20-10v-1l-20 10z" transform="matrix(-1 0 0 1 688 64)"/><path class="st6" d="M458 150v1l40 20 20-10v-1l-20 10z" transform="matrix(-1 0 0 1 688 64)"/><path class="st1" d="M498 185l20-10v-20l-20 10z" transform="matrix(-1 0 0 1 688 64)"/><path class="st2" d="M498 185l-40-20v-20l40 20z" transform="matrix(-1 0 0 1 688 64)"/><path class="st5" d="M881.4-98.3c-1.7-2.6-3.9-4.5-6.2-5.6 1.1-.9 1.8-2.5 1.8-4.5 0-4.2-2.8-9.1-6.7-12 2.8 2.3 4.7 5.9 4.7 9 0 2.3-1.1 3.7-2.7 4.2-1.2-1.5-2.7-2.8-4.3-3.7-1.6-.8-3.1-1-4.3-.7-1.7-2.2-2.7-4.7-2.7-7 0-3.1 2-4.7 4.7-4.3-3.9-.9-6.7 1.2-6.7 5.4 0 2.1.7 4.4 1.9 6.5-2.3-1.2-4.6-1.5-6.3-.6-2.8 1.4-3.3 5.5-1.3 9.8-1.2-3.1-.8-6 1.3-7.1 1.7-.9 4.2-.2 6.4 1.5 0 3.2 2.2 6.9 5.1 9.2 0 1.7-.7 3-2 3.7-2.1 1-5.2-.1-7.7-2.6 3.3 3.6 7.6 5.3 10.5 3.9.4-.2.8-.5 1.1-.8.3.6.7 1.2 1.1 1.9 2.9 4.3 7.2 6.9 10.6 6.6-2.5 0-5.7-2-7.8-5.2-1.3-1.9-1.9-3.9-2-5.6 3 .7 5.2-.9 5.2-4.2v-.1c2.2.6 4.7 2.4 6.4 5 2.1 3.2 2.5 6.5 1.3 8.5 1.9-2.4 1.4-7-1.4-11.2zm-11.3-.1c.2-.5.4-1 .8-1.3l-1.9-2c-.3 0-.6 0-1-.2s-.7-.5-1-.8l-2 .2c.3.7.6 1.3.7 1.9-1.3-1.4-2.4-3.1-2.7-4.8.2.2.4.4.6.7l2.4-.3c0-.7.4-1.2 1-1.2v-2.4c-.5-.3-.9-.6-1.3-1 .7 0 1.5.1 2.3.6.8.4 1.6 1 2.3 1.8-.4-.1-.9-.2-1.3-.3v2.4c.6.6 1 1.5 1 2.2l2.2 2.4c.2-.1.5-.1.7-.1-.3 1.4-1.3 2.2-2.8 2.2z" transform="matrix(-.5 0 0 .5 488 212)"/><path class="st5" d="M868-103c1.7.8 3 .2 3-1.5s-1.3-3.7-3-4.5-3-.2-3 1.5 1.3 3.7 3 4.5zm-2.5-8.6l-5.5-12.2c-4.8.4-8 3.9-8 9.8l11 5.5c0-1.8 1-2.9 2.5-3.1zM868-101c-.9-.5-1.7-1.1-2.5-1.9l-5.5 6.8c2.4 2.5 5.1 4.7 8 6.2s5.6 2 8 1.8l-5.5-12.3c-.7 0-1.6-.1-2.5-.6zm5-2.5l11 5.5c0-5.9-3.2-12.7-8-17.8l-5.5 6.8c1.5 1.5 2.5 3.6 2.5 5.5z" transform="matrix(-.5 0 0 .5 472 220)"/></g><g id="i1853_1_"><path class="st4" d="M-4163.6-442c13.8-9.3 1.8-19.8-17.5-23.2-8.4-1.5-31.9-23-53-9.7-17 10.8 18.3 26.1 27 30.1 12 5.6 26.8 14 43.5 2.8z" transform="matrix(.1 0 0 .1 568 280)"/><path class="st13" d="M-4177.1-462.5l12.3-.4s2.4 3.3 1.8 5.9c-.7 2.6-4.4 6.8-5.3 8.6-.9 1.8-2.6 7.5-7.7 8.8-5.1 1.3-11.7.9-12.6-2.4-.7-2.6 9.9-15 10.4-16.1.4-1 1.1-4.4 1.1-4.4z" transform="matrix(.1 0 0 .1 568 280)"/><path class="st14" d="M-4168.3-448.4c.9-1.8 4.6-5.9 5.3-8.6.2-.9.1-2-.2-2.9-.5 1.3-1.2 3.2-2.1 4.2-1.5 1.6-4.5 7.9-6.2 10.9-2.2 3.9-12.7 6.7-17 2.2-.1.3-.1.5 0 .7.9 3.3 7.5 3.7 12.6 2.4 4.9-1.4 6.7-7.1 7.6-8.9z" transform="matrix(.1 0 0 .1 568 280)"/><path class="st13" d="M-4217.4-476.1c-4.5 2.8-12.6 4.8-15.2 6.2-2.9 1.6-4.7 7.5 1.3 7.9s15.9-3.9 19.3-3.9 9.7-1.1 10.5-3-.4-6.9-.4-6.9l-15.5-.3z" transform="matrix(.1 0 0 .1 568 280)"/><path class="st15" d="M-4162.4-545.6s-15 4.7-22.2 7.9c-7.3 3.1-18.3 6.7-21.7 11.4-3.3 4.7-4.6 14.6-5.6 19.9-1 5.4-4.3 18.5-6.4 24.6-1.1 3.3-3 6.1-2.8 7.1.2 1 8.7 1.8 13.1 2 5.1.2 7 .2 8.6-1.2 1-.9 3.3-14.5 5.2-21.8 2-7.3 4.1-16.5 4.1-16.5s5.2-.6 11.9-1.7c7-1.2 25.5-6.2 28.8-8.1 3.3-2 3.1-17.9 3.1-17.9l-16.1-5.7z" transform="matrix(.1 0 0 .1 568 280)"/><path class="st4" d="M-4162.4-545.6s-15 4.7-22.2 7.9c-7.3 3.1-18.3 6.7-21.7 11.4-3.3 4.7-4.6 14.6-5.6 19.9-1 5.4-4.3 18.5-6.4 24.6-1.1 3.3-3 6.1-2.8 7.1.2 1 8.7 1.8 13.1 2 5.1.2 7 .2 8.6-1.2 1-.9 3.3-14.5 5.2-21.8 2-7.3 4.1-16.5 4.1-16.5s5.2-.6 11.9-1.7c7-1.2 25.5-6.2 28.8-8.1 3.3-2 3.1-17.9 3.1-17.9l-16.1-5.7z" transform="matrix(.1 0 0 .1 568 280)"/><path class="st16" d="M-4161.8-588.7l7.2 3.9s-5.8 15.3-7.3 18.8c-.8 1.9-2.5 6.5-5.8 11.6-3.4 5.2-7.6 9.8-8.1 11.6s-.9 2.2-2.4 3.5c-1.6 1.3-2.5 1.7-4.1 2.6-.9.5-3 3.4-4.2 4.5-1.2 1.1-6.3 1.6-6.9-.9-.4-1.8 3.4-6.5 4.5-7.9 1.2-1.4 5.3-1.8 6.3-3.2 1-1.4 5.9-11.6 7.6-15.6 1.7-4.1 3.7-10.9 7-15.8s6.2-13.1 6.2-13.1z" transform="matrix(.1 0 0 .1 568 280)"/><path class="st15" d="M-4155.1-540l-.1 7.5s-4.3 3.7-9.3 8.5c-4.9 4.7-10.7 10.4-12.5 12.2s-3.3 2.6-3.9 6.5.2 31.2.1 36c-.1 4.5-.1 10.7 1 11.7s6.2 1.3 10.6.7c5-.7 7.6-1.6 8-2.6.4-1 .5-15.6.9-21.9.4-6.3-.3-16.7-.3-16.7s9-3.3 14.3-5.5c5.3-2.2 22.7-7 26.3-13.7 3.5-6.7 2.3-14.3 1.4-19-.7-3.9-2.9-5.9-2.9-5.9l-33.6 2.2z" transform="matrix(.1 0 0 .1 568 280)"/><path class="st3" d="M-4153.9-601.7c-.4.1-3.9 3.7-5.8 6.8-1.8 3-4.7 9-4.7 9l5.2 1.8s-1.4 1.4-2 5.1c-.5 3.7 2.1 8.8 1 11.9-1 3.1-4.6 12.7-5.5 17.6-.9 4.9-1.3 7-.7 8.1.7 1.2 3.3 5.4 14.3 6 11 .7 27.7-.6 30.2-.8 2.6-.2 3.8-.7 3.8-.7s1.3-20.7 2-27.4c.7-6.7 2-16.7 1.2-21-1.2-6.4-7.4-14.2-15.7-16.3-5.7-1.3-23.3-.1-23.3-.1z" transform="matrix(.1 0 0 .1 568 280)"/><path class="st14" d="M-4201.5-468.8c.1-.2.2-.5.2-.8-2.9 1.3-7.8 2.1-11.3 2.2-3 .1-13.1 4-18 4-2.3 0-3.8-.8-4.8-1.6.2 1.5 1.3 2.8 4 3 6 .4 15.9-3.9 19.3-3.9s9.7-1 10.6-2.9z" transform="matrix(.1 0 0 .1 568 280)"/><path class="st16" d="M-4130.4-572.4s1.9 9.4 3.1 12.4c1.3 3 1.2 4 1.2 4s-3.5 5.5-6.5 11.2c-3 5.8-5.3 12.8-6.8 13.4-1.5.5-7.8 1.1-9.9 3.1-2.2 2-4.2 3.8-4.5 5-.3 1.2-1.9 4.7-1.1 5.8.7 1.1 1-1.1 2.3-1.9 1.3-.8 5.2-3.4 9.3-3.9 4.1-.5 6-1.2 7.4-2.8 1.4-1.6 14.8-15 16.5-17.7 1.7-2.7 5.8-7.6 6.2-10.3.4-2.8-.7-9.5-1.2-14.6-.5-5.2-.8-6.8-.8-6.8l-15.2 3.1zm-24.1-50.8c-2.8 4.4-1.7 14.9-1.3 17.6.4 2.6 1.1 5.5 3 6.2 1.9.7 3.2 1.5 3.6 2.7.7 2.3-.7 5.8.7 6.6 1.3.8 6.5-.4 12.2-3.4 5.3-2.8 8.1-6.3 7.3-7.2-.8-.9-5.1-1.6-5-4.7.1-3.1 3.1-7.9 3.2-12.4-.1-10.3-16.7-16.1-23.7-5.4z" transform="matrix(.1 0 0 .1 568 280)"/><path class="st8" d="M-4155.8-620.7c2.5 3 10.7 0 12.9 2.2 1.9 1.8 1.9 7.3 2.9 9 1.2 2.1 2.4-2.3 3.5-3.4 1-1 2.8-1.2 3.3.3s-.4 3.7-.5 4.3c1.6-.3 3.7-5.7 3.3-11.4-.4-6.8-10.5-13.6-21-7.6-5.6 3.1-4.4 6.6-4.4 6.6z" transform="matrix(.1 0 0 .1 568 280)"/></g></svg>