<svg xmlns="http://www.w3.org/2000/svg" width="17.6" height="19"><style>.st0{opacity:.3;enable-background:new}.st1{fill:#825012}.st2{fill:#539b00}.st3{opacity:.2;fill:#fff;enable-background:new}</style><g transform="translate(672 712)" id="i2175_1_"><ellipse class="st0" cx="-663.7" cy="-695" rx="6.5" ry="2"/><path class="st1" d="M-665.2-698h3v4h-3z"/><circle class="st2" cx="-658.2" cy="-699.9" r="3.8"/><circle class="st2" cx="-660.3" cy="-704.9" r="5.3"/><circle class="st2" cx="-665.6" cy="-701.4" r="5.3"/><circle class="st2" cx="-668.5" cy="-703.8" r="3.5"/><path class="st1" d="M-666.1-706.9c-1 0-1.8-.3-1.8-1.2v-1.5h-.6v1.8c0 1 .8 1.8 1.8 1.8h.6v-.9z"/><circle class="st2" cx="-666.3" cy="-700.1" r="5.7"/><path class="st0" d="M-666.3-695.8c-2.9 0-5.3-2.2-5.7-5v.7c0 3.2 2.6 5.7 5.7 5.7s5.7-2.6 5.7-5.7v-.7c-.4 2.8-2.8 5-5.7 5z"/><circle class="st2" cx="-664.4" cy="-707.3" r="4.7"/><circle class="st2" cx="-660.6" cy="-708.8" r="2.6"/><path class="st3" d="M-669-704.9c1.3 0 2.4.7 2.9 1.8.2 0 .4-.1.6-.1 1.1 0 2 .5 2.6 1.3-.2-1.1-1.2-1.9-2.3-1.9h-.1c-.3-1.3-1.5-2.4-2.9-2.4-1.2 0-2.2.7-2.7 1.7.6-.2 1.2-.4 1.9-.4z"/><path class="st1" d="M-664.4-706.5c.1.1.3.2.4.3h.2v-1.7c-.2 0-.4 0-.6-.1v1.5z"/><path class="st3" d="M-664.1-709.6c1.4 0 2.5 1.1 2.6 2.5.3-.1.6-.1.9-.1 1.5 0 2.7 1 3.1 2.3.1-.3.1-.5.1-.8 0-1.5-1.2-2.6-2.6-2.6-.3 0-.6.1-.9.2-.1-1.1-1-1.9-2-1.9-.6 0-1.1.2-1.5.6.1-.2.2-.2.3-.2z"/><path class="st0" d="M-655-704.1c-1 1.1-2.4 1.8-4 1.8h-.4c.6.6.9 1.4 1 2.3 1.8-.6 3.1-2.2 3.4-4.1zm-1.5 6c.2.4.3.9.3 1.4 1-.6 1.7-1.7 1.8-2.9-.5.7-1.2 1.3-2.1 1.5z"/><circle class="st2" cx="-661" cy="-699.8" r="5.4"/><path class="st3" d="M-663.2-701.4c.7 0 1.4.2 1.9.5.7-.7 1.7-1.1 2.8-1.1.9 0 1.8.3 2.5.8-.6-1.2-1.9-2-3.4-2-1 0-1.8.3-2.5.9-.4-.2-.9-.3-1.3-.3-1.4 0-2.6 1-2.9 2.4.8-.8 1.8-1.2 2.9-1.2z"/><path class="st0" d="M-660.4-695.5c-2.2 0-4.1-1.2-5.2-3-.2 0-.2 4.1 4.6 4.1 2.1 0 3.9-1.2 4.8-2.9-1.1 1.1-2.6 1.8-4.2 1.8z"/><path class="st1" d="M-661.2-704.6c0 1-.9 1.2-2 1.2v.4h.6c1 0 1.4-.4 1.4-1.4v-1.2 1z"/></g></svg>