<svg xmlns="http://www.w3.org/2000/svg" width="88" height="52"><style>.st0{fill:#539b00}.st1{opacity:.11}.st1,.st2,.st3{enable-background:new}.st2{opacity:.29}.st3{opacity:.2;fill:#fff}</style><g id="i1213_1_"><path class="st0" d="M-776-416s-.7-.2-1.5-.6c-.4-.2-.6-.4-1.2-.7-.6-.6-1.2-.7-1.9-.9-.7-.8-3.5-2-4.3-2.1-.8-.2-1.7-.4-2.6-1.3-.9-.7-1.9-1.1-2.9-1.5-.5-.2-.4-.6-.9-.9s-1-.5-1.5-.8c-.9.3-2.4-.6-3.3-1.3-1 .2-3.9-2.3-4.9-2.4-1 .8-1.9-1.7-2.9-1.4-.9-.5-1.2-1.2-2.1-1.7-1-.5-4.8-1.9-5.8-2.3-1-.8-3.9-2.4-4.8-2.4-.9-.2-1.7-.4-2.5-1.2-.8-.8-1.4-1.2-2.1-1-.6-.3-.7-.9-1.1-1.1-.8-.5-1.7-.4-1.7-.4v-8l8-4s2.1 1.3 2.9 1.7c.4.2 1.2.4 1.7.7.6-.6 3.2 2.7 3.9 1.9.7.4 1.5.4 2.3 1.1.8.1 1.7.6 2.6 1.3.9.3 1.9 1.2 2.8 1.4.5.2 2.3 1.5 2.8 1.8.5.3 1.7.5 2.2.7.9.2 1.9.8 2.9 1.4 1 1.5 1.9.4 2.9 1.4 1 .2 1.9 2.2 2.9 1.4.9-.2 3.9 1.9 4.8 2.4 1 .5 2 1.2 3 1.6 1 0 2-.1 2.9 1.3.9-.4 1.7.6 2.5 1.2.8 1.9 1.4-.1 2.1 1 .6-1 1.1.6 1.6.8.7.7 1.2.9 1.2.9v8s-.1.1-.3.2c-.2.1-.7.7-1.1.9-.4.1-.6.3-1.1.2-.5.4-1 .7-1.5.7-.5.2-1 0-1.5.7-.5.2-.9-.1-1.3.1-.7.4-1.2 1.2-1.2 1.2z" transform="translate(824 452)"/><path class="st1" d="M-776-416s-.7-.2-1.5-.6c-.4-.2-.6-.4-1.2-.7-.6-.6-1.2-.7-1.9-.9-.7-.8-3.5-2-4.3-2.1-.8-.2-1.7-.4-2.6-1.3-.9-.7-1.9-1.1-2.9-1.5-.5-.2-.4-.6-.9-.9s-1-.5-1.5-.8c-.9.3-2.4-.6-3.3-1.3-1 .2-3.9-2.3-4.9-2.4-1 .8-1.9-1.7-2.9-1.4-.9-.5-1.2-1.2-2.1-1.7-1-.5-4.8-1.9-5.8-2.3-1-.8-3.9-2.4-4.8-2.4-.9-.2-1.7-.4-2.5-1.2-.8-.8-1.4-1.2-2.1-1-.6-.3-.7-.9-1.1-1.1-.8-.5-1.7-.4-1.7-.4v-8s.5.7 2.5 1.8c.3.1 1.5.2 1.9.4.4.1.8 1.1 1.2.6.4-.3.8-.2 1.3.6.5.5.9.8 1.4.7.5.5 2.8 1.7 3.3 2.3.5.4 3.2.5 3.7 1.2.5.3 1.1.5 1.6.8.6.3 1.4.2 2 .5.5.2.6.8 1.1 1 .5.2.6.8 1.1 1.3.5.4 1.3.2 1.8.1.5.7 1 .2 1.4.7.5.1 3 2.3 3.4 1.7.5-.1 1 .7 1.4.7.5.2 2.2 2.1 2.7 2.4 1.9.9 1.1-.6 2.8.3.5.2 1.4 1.3 1.8 1.6.5.1 1.8.8 2.2.6.4 0 2.8 1.3 3.2 1.6.4-.7.8.9 1.1.6.4.5 1.1-1.1 1.4-.3.3.4.3.5.6 1.3.3-.2.7.8 1 1 1.6.7 2.1.5 2.1.5v8z" transform="translate(824 452)"/><path class="st2" d="M-768-428v8s-.1.1-.3.2c-.2.1-.7.7-1.1.9-.4.1-.6.3-1.1.2-.5.4-1 .7-1.5.7-.5.2-1 0-1.5.7-.5.2-.9-.1-1.3.1-.7.4-1.2 1.2-1.2 1.2v-8s.1-.1.3-.2c.2-.1 1.3.4 1.7.2.4-.7.1-1.6.5-1.3.5-.3 1-.3 1.5-.7s1-1.4 1.5-.7c.5-.6 1.2-.1 1.5-.3.4-.2.4-.7.7-.8.2-.1.3-.2.3-.2z" transform="translate(824 452)"/><path class="st3" d="M-808-442.4c0 .4-.1.4-.3-.9-.2 3 1.4-1.1 1-.5-.5.3-.6.3-.8-.1-.2 1.1 1.5.8.6 1.1-.6-1.8-1.1.1-1.6-.4-.5-.3-2.9-1.1-3.2-1.3-.3-.1-.5-.1-.5-.1s.2.2.5.6c.3.7 2.8 2.2 3.2 2 .5 1 1-.5 1.4.5.4.6-1-.7-.5-.8 6.1 3.6-1.2-2.1-.5-.5.4-.5.7 1.4.7.4zm30 11c0 .4-.1.4-.3-.9-.2 3 1.4-1.1 1-.5-.5.3-.6.3-.8-.1-.2 1.1 1.5.8.6 1.1-.6-1.8-1.1.1-1.6-.4-.5-.3-.9-.1-1.2-.3-.3-.1-.5-.1-.5-.1s.2.2.5.6c.3.7.8 1.2 1.2 1 .5 1 1-.5 1.4.5.4.6-1-.7-.5-.8 6.1 3.6-1.2-2.1-.5-.5.4-.5.7 1.4.7.4zm-14-4c0 .4-.1.4-.3-.9-.2 3-.6-2.1-1-1.5-.5.3-.6.3-.8-.1-.2 1.1-.5-.2-1.4.1-.6-1.8.9 1.1.4.6-.5-.3-.9-.1-1.2-.3-.3-.1-.5-.1-.5-.1s.2.2.5.6c.3.7.8 1.2 1.2 1 .5 1-1-1.5-.6-.5.4.6 1 .3 1.5.2.5.3 1.1-.5 1.5.5.4-.5.7 1.4.7.4zm6.6 4.7c0 .4-.1.4-.3-.9-.2 3-.6-2.1-1-1.5-.5.3-.6.3-.8-.1-.2 1.1-.6-1.3-1.5-1-.6-1.8-1.2 1.1-1.7.6-.5-.3-.9-.1-1.2-.3-.3-.1-.5-.1-.5-.1s.2.2.5.6c.3.7.8 1.2 1.2 1 .5 1 1.1-1.5 1.5-.5.4.6 1.1 1.5 1.6 1.4.5.3 1.1-.5 1.5.5.4-.5.7 1.4.7.3zm-30-16.5c0 .4-.1.4-.3-.9-.2 3-.6-2.1-1-1.5-.6.3-2.8.3-3-.1-.2 1.2 1.4.8.6 1.2-.6-1.8-1.2 1-1.7.5-.5-.3 1.1 1 .8.7-.3 0-.5-.1-.5-.1s.2.2.5.6c.3.7-1.2.2-.8 0 .5 1 1.1-1.5 1.5-.5.4.6-1-.7-.5-.8.5.3 3.2-.5 3.6.5.5-.4.8 1.4.8.4z" transform="translate(824 452)"/><path class="st3" d="M-775.3-425.1c0 .4-.1.4-.3-.9-.2 3-.8-2.2-1.3-1.6-.5.3-.6.3-.8-.1-.2 1.1-.5-.2-1.4.1-.6-1.8-2.4-1.2-2.8-1.6-.5-.3-2.7-.8-3-1.1-.3-.1-1.5-1.2-1.5-1.2s.2.2.5.6c.3.7 2.8 2.2 3.2 2 .5 1-2.9-1.4-2.5-.4.4.6 3 1.3 3.5 1.2.5.3 5.3 1.6 5.7 2.6.4-.4.7 1.4.7.4zm-20-14c0 .4-.1.4-.3-.9-.2 3-6.8-5.2-7.3-4.6-.5.3-.6.3-.8-.1-.2 1.1-.5-.2-1.4.1-.6-1.8 1.6.8 1.2.4-.5-.3-.7.2-1-.1-.3-.1-1.5-1.2-1.5-1.2s.2.2.5.6c.3.7.8 1.2 1.2 1 .5 1-.9-.4-.5.6.4.6 1 .3 1.5.2.5.3 7.3 2.6 7.7 3.6.4-.4.7 1.4.7.4z" transform="translate(824 452)"/></g><g id="i1469_1_"><path class="st0" d="M-776-416s-.7-.2-1.5-.6c-.4-.2-.6-.4-1.2-.7-.6-.6-1.2-.7-1.9-.9-.7-.8-3.5-2-4.3-2.1-.8-.2-1.7-.4-2.6-1.3-.9-.7-1.9-1.1-2.9-1.5-.5-.2-.4-.6-.9-.9s-1-.5-1.5-.8c-.9.3-2.4-.6-3.3-1.3-1 .2-3.9-2.3-4.9-2.4-1 .8-1.9-1.7-2.9-1.4-.9-.5-1.2-1.2-2.1-1.7-1-.5-4.8-1.9-5.8-2.3-1-.8-3.9-2.4-4.8-2.4-.9-.2-1.7-.4-2.5-1.2-.8-.8-1.4-1.2-2.1-1-.6-.3-.7-.9-1.1-1.1-.8-.5-1.7-.4-1.7-.4v-8l8-4s2.1 1.3 2.9 1.7c.4.2 1.2.4 1.7.7.6-.6 3.2 2.7 3.9 1.9.7.4 1.5.4 2.3 1.1.8.1 1.7.6 2.6 1.3.9.3 1.9 1.2 2.8 1.4.5.2 2.3 1.5 2.8 1.8.5.3 1.7.5 2.2.7.9.2 1.9.8 2.9 1.4 1 1.5 1.9.4 2.9 1.4 1 .2 1.9 2.2 2.9 1.4.9-.2 3.9 1.9 4.8 2.4 1 .5 2 1.2 3 1.6 1 0 2-.1 2.9 1.3.9-.4 1.7.6 2.5 1.2.8 1.9 1.4-.1 2.1 1 .6-1 1.1.6 1.6.8.7.7 1.2.9 1.2.9v8s-.1.1-.3.2c-.2.1-.7.7-1.1.9-.4.1-.6.3-1.1.2-.5.4-1 .7-1.5.7-.5.2-1 0-1.5.7-.5.2-.9-.1-1.3.1-.7.4-1.2 1.2-1.2 1.2z" transform="translate(856 468)"/><path class="st1" d="M-776-416s-.7-.2-1.5-.6c-.4-.2-.6-.4-1.2-.7-.6-.6-1.2-.7-1.9-.9-.7-.8-3.5-2-4.3-2.1-.8-.2-1.7-.4-2.6-1.3-.9-.7-1.9-1.1-2.9-1.5-.5-.2-.4-.6-.9-.9s-1-.5-1.5-.8c-.9.3-2.4-.6-3.3-1.3-1 .2-3.9-2.3-4.9-2.4-1 .8-1.9-1.7-2.9-1.4-.9-.5-1.2-1.2-2.1-1.7-1-.5-4.8-1.9-5.8-2.3-1-.8-3.9-2.4-4.8-2.4-.9-.2-1.7-.4-2.5-1.2-.8-.8-1.4-1.2-2.1-1-.6-.3-.7-.9-1.1-1.1-.8-.5-1.7-.4-1.7-.4v-8s.5.7 2.5 1.8c.3.1 1.5.2 1.9.4.4.1.8 1.1 1.2.6.4-.3.8-.2 1.3.6.5.5.9.8 1.4.7.5.5 2.8 1.7 3.3 2.3.5.4 3.2.5 3.7 1.2.5.3 1.1.5 1.6.8.6.3 1.4.2 2 .5.5.2.6.8 1.1 1 .5.2.6.8 1.1 1.3.5.4 1.3.2 1.8.1.5.7 1 .2 1.4.7.5.1 3 2.3 3.4 1.7.5-.1 1 .7 1.4.7.5.2 2.2 2.1 2.7 2.4 1.9.9 1.1-.6 2.8.3.5.2 1.4 1.3 1.8 1.6.5.1 1.8.8 2.2.6.4 0 2.8 1.3 3.2 1.6.4-.7.8.9 1.1.6.4.5 1.1-1.1 1.4-.3.3.4.3.5.6 1.3.3-.2.7.8 1 1 1.6.7 2.1.5 2.1.5v8z" transform="translate(856 468)"/><path class="st2" d="M-768-428v8s-.1.1-.3.2c-.2.1-.7.7-1.1.9-.4.1-.6.3-1.1.2-.5.4-1 .7-1.5.7-.5.2-1 0-1.5.7-.5.2-.9-.1-1.3.1-.7.4-1.2 1.2-1.2 1.2v-8s.1-.1.3-.2c.2-.1 1.3.4 1.7.2.4-.7.1-1.6.5-1.3.5-.3 1-.3 1.5-.7s1-1.4 1.5-.7c.5-.6 1.2-.1 1.5-.3.4-.2.4-.7.7-.8.2-.1.3-.2.3-.2z" transform="translate(856 468)"/><path class="st3" d="M-808-442.4c0 .4-.1.4-.3-.9-.2 3 1.4-1.1 1-.5-.5.3-.6.3-.8-.1-.2 1.1 1.5.8.6 1.1-.6-1.8-1.1.1-1.6-.4-.5-.3-2.9-1.1-3.2-1.3-.3-.1-.5-.1-.5-.1s.2.2.5.6c.3.7 2.8 2.2 3.2 2 .5 1 1-.5 1.4.5.4.6-1-.7-.5-.8 6.1 3.6-1.2-2.1-.5-.5.4-.5.7 1.4.7.4zm30 11c0 .4-.1.4-.3-.9-.2 3 1.4-1.1 1-.5-.5.3-.6.3-.8-.1-.2 1.1 1.5.8.6 1.1-.6-1.8-1.1.1-1.6-.4-.5-.3-.9-.1-1.2-.3-.3-.1-.5-.1-.5-.1s.2.2.5.6c.3.7.8 1.2 1.2 1 .5 1 1-.5 1.4.5.4.6-1-.7-.5-.8 6.1 3.6-1.2-2.1-.5-.5.4-.5.7 1.4.7.4zm-14-4c0 .4-.1.4-.3-.9-.2 3-.6-2.1-1-1.5-.5.3-.6.3-.8-.1-.2 1.1-.5-.2-1.4.1-.6-1.8.9 1.1.4.6-.5-.3-.9-.1-1.2-.3-.3-.1-.5-.1-.5-.1s.2.2.5.6c.3.7.8 1.2 1.2 1 .5 1-1-1.5-.6-.5.4.6 1 .3 1.5.2.5.3 1.1-.5 1.5.5.4-.5.7 1.4.7.4zm6.6 4.7c0 .4-.1.4-.3-.9-.2 3-.6-2.1-1-1.5-.5.3-.6.3-.8-.1-.2 1.1-.6-1.3-1.5-1-.6-1.8-1.2 1.1-1.7.6-.5-.3-.9-.1-1.2-.3-.3-.1-.5-.1-.5-.1s.2.2.5.6c.3.7.8 1.2 1.2 1 .5 1 1.1-1.5 1.5-.5.4.6 1.1 1.5 1.6 1.4.5.3 1.1-.5 1.5.5.4-.5.7 1.4.7.3zm-30-16.5c0 .4-.1.4-.3-.9-.2 3-.6-2.1-1-1.5-.6.3-2.8.3-3-.1-.2 1.2 1.4.8.6 1.2-.6-1.8-1.2 1-1.7.5-.5-.3 1.1 1 .8.7-.3 0-.5-.1-.5-.1s.2.2.5.6c.3.7-1.2.2-.8 0 .5 1 1.1-1.5 1.5-.5.4.6-1-.7-.5-.8.5.3 3.2-.5 3.6.5.5-.4.8 1.4.8.4z" transform="translate(856 468)"/><path class="st3" d="M-775.3-425.1c0 .4-.1.4-.3-.9-.2 3-.8-2.2-1.3-1.6-.5.3-.6.3-.8-.1-.2 1.1-.5-.2-1.4.1-.6-1.8-2.4-1.2-2.8-1.6-.5-.3-2.7-.8-3-1.1-.3-.1-1.5-1.2-1.5-1.2s.2.2.5.6c.3.7 2.8 2.2 3.2 2 .5 1-2.9-1.4-2.5-.4.4.6 3 1.3 3.5 1.2.5.3 5.3 1.6 5.7 2.6.4-.4.7 1.4.7.4zm-20-14c0 .4-.1.4-.3-.9-.2 3-6.8-5.2-7.3-4.6-.5.3-.6.3-.8-.1-.2 1.1-.5-.2-1.4.1-.6-1.8 1.6.8 1.2.4-.5-.3-.7.2-1-.1-.3-.1-1.5-1.2-1.5-1.2s.2.2.5.6c.3.7.8 1.2 1.2 1 .5 1-.9-.4-.5.6.4.6 1 .3 1.5.2.5.3 7.3 2.6 7.7 3.6.4-.4.7 1.4.7.4z" transform="translate(856 468)"/></g></svg>