<svg xmlns="http://www.w3.org/2000/svg" width="245" height="125"><style>.st0{fill:#e5e5e5}.st1,.st2{opacity:.2;enable-background:new}.st2{opacity:.5}.st3{fill:#39c}.st4,.st5,.st6{enable-background:new}.st4{fill:#39c;opacity:.4}.st5{opacity:.1}.st6{opacity:.2;fill:#fff}.st10{enable-background:new}.st7{opacity:.4}.st7,.st8,.st9{enable-background:new}.st8{opacity:.3}.st9{opacity:6.000000e-02}.st10{opacity:.39}.st11{fill:#825012}.st12{fill:#262626}.st13{fill:#fff}.st14{fill:#06547a}.st15{fill:#fbd7c7}.st16{fill:#baa794}.st18{fill:#539b00}</style><g id="i2297_1_"><g transform="matrix(2 0 0 2 880 992)"><path class="st0" d="M-364-456c-8.8 0-16 3.6-16 8v4c0 4.4 7.2 8 16 8s16-3.6 16-8v-4c0-4.4-7.2-8-16-8z"/><path class="st1" d="M-364-440c-8.8 0-16-3.6-16-8v4c0 4.4 7.2 8 16 8s16-3.6 16-8v-4c0 4.4-7.2 8-16 8z"/><ellipse class="st2" cx="-364" cy="-448" rx="14" ry="6"/><path class="st3" d="M-364-452c-6.9 0-12.7 2.2-13.8 5 1.1 2.8 6.9 5 13.8 5s12.7-2.2 13.8-5c-1.1-2.8-6.9-5-13.8-5z"/><path class="st0" d="M-364-453c-1.7 0-3 .7-3 1.5v6c0 .8 1.3 1.5 3 1.5s3-.7 3-1.5v-6c0-.8-1.3-1.5-3-1.5z"/><path class="st1" d="M-364-450c-1.7 0-3-.7-3-1.5v6c0 .8 1.3 1.5 3 1.5s3-.7 3-1.5v-6c0 .8-1.3 1.5-3 1.5z"/><path class="st4" d="M-364-445.5c-1.7 0-3-.7-3-1.5v1.7c0 .8 1.3 1.5 3 1.5s3-.7 3-1.5v-1.7c0 .8-1.3 1.5-3 1.5z"/><path class="st0" d="M-358-454.9c0 3.3-2.7 5.9-6 5.9s-6-2.6-6-5.9"/><path class="st1" d="M-358-454.9c0 3.3-2.7 5.9-6 5.9s-6-2.6-6-5.9"/><path class="st5" d="M-364-449.5c-1.8 0-3.5-.7-4.7-1.7 1.1 1.4 2.8 2.2 4.7 2.2s3.6-.9 4.7-2.2c-1.2 1-2.9 1.7-4.7 1.7z"/><ellipse class="st0" cx="-364" cy="-455" rx="6" ry="3"/><ellipse class="st2" cx="-364" cy="-455" rx="4.5" ry="1.9"/><path class="st3" d="M-364-456.4c-2.3 0-4.1.7-4.5 1.6.3.9 2.2 1.6 4.5 1.6s4.1-.7 4.5-1.6c-.4-.8-2.2-1.6-4.5-1.6z"/><path class="st0" d="M-364-459.5c-1.1 0-2 .4-2 1v4c0 .6.9 1 2 1s2-.4 2-1v-4c0-.6-.9-1-2-1z"/><path class="st1" d="M-364-457.5c-1.1 0-2-.4-2-1v4c0 .6.9 1 2 1s2-.4 2-1v-4c0 .6-.9 1-2 1z"/><path class="st4" d="M-364-454.1c-1.1 0-2-.4-2-1v.8c0 .6.9 1 2 1s2-.4 2-1v-.8c0 .6-.9 1-2 1z"/><path class="st0" d="M-359-462.4c0 2.7-2.2 4.9-5 4.9s-5-2.2-5-4.9"/><path class="st1" d="M-359-462.4c0 2.7-2.2 4.9-5 4.9s-5-2.2-5-4.9"/><path class="st5" d="M-364-457.9c-1.5 0-2.9-.6-3.9-1.4.9 1.1 2.3 1.9 3.9 1.9s3-.7 3.9-1.9c-1 .8-2.4 1.4-3.9 1.4z"/><ellipse class="st0" cx="-364" cy="-462.5" rx="5" ry="2.5"/><ellipse class="st2" cx="-364" cy="-462.5" rx="3.8" ry="1.6"/><path class="st3" d="M-364-463.6c-1.9 0-3.5.6-3.7 1.3.3.8 1.8 1.3 3.7 1.3s3.5-.6 3.7-1.3c-.2-.7-1.8-1.3-3.7-1.3z"/><path class="st0" d="M-364-466.8c-.6 0-1 .2-1 .5v4.5c0 .3.4.5 1 .5s1-.2 1-.5v-4.5c0-.3-.4-.5-1-.5z"/><path class="st1" d="M-364-465.8c-.6 0-1-.2-1-.5v4.5c0 .3.4.5 1 .5s1-.2 1-.5v-4.5c0 .3-.4.5-1 .5z"/><path class="st4" d="M-364-461.8c-.6 0-1-.2-1-.5v.8c0 .3.4.5 1 .5s1-.2 1-.5v-.8c0 .2-.4.5-1 .5z"/><circle class="st0" cx="-364" cy="-466" r="2"/><ellipse class="st6" cx="-364" cy="-467.2" rx="1" ry=".7"/><path class="st5" d="M-364-464.6c-.8 0-1.6-.4-2-1.1.2.9 1 1.7 2 1.7s1.8-.7 2-1.7c-.4.7-1.2 1.1-2 1.1z"/></g><path class="st4" d="M-364-467s.1-3-2-3-2 8-2 8 .3-7.6 2.1-7.6 1.9 2.6 1.9 2.6z" transform="matrix(2 0 0 2 880 992)"/><path class="st4" d="M-364-467s0-2-1-2c-1.3 0-1 7.7-1 7.7s.1-7.2 1.1-7.2c.9 0 .9 1.5.9 1.5z" transform="matrix(2 0 0 2 880 992)"/><path class="st4" d="M-364-467s-.1-3 2-3 2 8 2 8-.3-7.6-2.1-7.6-1.9 2.6-1.9 2.6z" transform="matrix(2 0 0 2 880 992)"/><path class="st4" d="M-363-462s.9-2 3-2c3 0 1 8.3 1 8.3s1.3-7.8-1-7.8c-1.8-.1-3 1.5-3 1.5z" transform="matrix(2 0 0 2 880 992)"/><path class="st4" d="M-364-461s-.1-.7 2-.7c3 0 0 8.1 0 8.1s2.3-7.6 0-7.6c-1.8-.1-2 .2-2 .2zm-1-1s-.9-2-3-2c-3 0-1 8.3-1 8.3s-1.3-7.8 1-7.8c1.8-.1 3 1.5 3 1.5z" transform="matrix(2 0 0 2 880 992)"/><path class="st4" d="M-364-461s.1-.7-2-.7c-3 0 0 8.1 0 8.1s-2.3-7.6 0-7.6c1.8-.1 2 .2 2 .2zm0-6.1s0-1.9 1-1.9c1.3 0 1 7.7 1 7.7s-.1-7.2-1.1-7.2c-.9 0-.9 1.4-.9 1.4z" transform="matrix(2 0 0 2 880 992)"/><path class="st4" d="M-364-461s-.2-.5-.2.7.2 5.3.2 5.3.2-3.9.2-5.3-.2-.7-.2-.7zm4 7s-.1-1.5 2-1.5c3.7 0 1 10.5 1 10.5s2-10-1-10c-1.8 0-2 1-2 1z" transform="matrix(2 0 0 2 880 992)"/><path class="st4" d="M-362-453.3s0-.7 1.5-.7c2.9 0 .7 9 .7 9s1.4-8.6-.7-8.6c-1.3 0-1.5.3-1.5.3zm-6-.7s.1-1.5-2-1.5c-3.7 0-1 10.5-1 10.5s-2-10 1-10c1.8 0 2 1 2 1z" transform="matrix(2 0 0 2 880 992)"/><path class="st4" d="M-366-453.3s0-.7-1.5-.7c-2.9 0-.7 9-.7 9s-1.4-8.6.7-8.6c1.3 0 1.5.3 1.5.3zm2 .1s-.2-.9-.2.6c0 1.2.2 6.5.2 6.5s.2-5.1.2-6.5-.2-.6-.2-.6zm0-13.9s-.2-1.3-.2-1c0 .3.2 5.8.2 5.8s.2-5.5.2-5.8c0-.3-.2 1-.2 1z" transform="matrix(2 0 0 2 880 992)"/></g><g transform="translate(976 992)" id="i2324_1_"><path class="st0" d="M-752-948c-1.7 0-3 .7-3 1.5v6c0 .8 1.3 1.5 3 1.5s3-.7 3-1.5v-6c0-.8-1.3-1.5-3-1.5z"/><path class="st1" d="M-752-945c-1.7 0-3-.7-3-1.5v6c0 .8 1.3 1.5 3 1.5s3-.7 3-1.5v-6c0 .8-1.3 1.5-3 1.5z"/><ellipse class="st7" cx="-752" cy="-946.5" rx="2.3" ry=".9"/></g><g id="i2321_1_"><path class="st8" d="M-755-945.5l-4 2 14 7 4-2z" transform="translate(984 1000)"/><path class="st0" d="M-754.2-951.3l-1-.5c-.1-.1-.3-.1-.4 0l-3.5 1.8c-.6.2-.9.8-.9 1.4v4.6l1 .5 4.7-2.9.1-4.9z" transform="translate(984 1000)"/><path class="st0" d="M-759-943.5v-4.6c0-.6.3-1.2.9-1.4l3.5-1.8c.3-.1.6.1.6.4v4.9l-5 2.5z" transform="translate(984 1000)"/><path class="st9" d="M-760-944l1 .5v-4.6l-1-.5z" transform="translate(984 1000)"/><path class="st10" d="M-759-943.5v-4.6c0-.6.3-1.2.9-1.4l3.5-1.8c.3-.1.6.1.6.4v4.9l-5 2.5z" transform="translate(984 1000)"/><path class="st11" d="M-754-949.5l-5 2.5v1l14 7v-1l5-2.5z" transform="translate(984 1000)"/><path class="st9" d="M-745-940l-14-7v1l14 7z" transform="translate(984 1000)"/><path class="st8" d="M-743.8-940.6l-14-7-.2.1 14 7zm1-.5l-14-7-.2.1 14 7zm1-.5l-14-7-.2.1 14 7zm1-.5l-14-7-.2.1 14 7z" transform="translate(984 1000)"/><path class="st0" d="M-739.2-943.8l-1-.5c-.1-.1-.3-.1-.4 0l-3.5 1.8c-.5.3-.9.8-.9 1.4v4.6l1 .5 4.7-2.9.1-4.9z" transform="translate(984 1000)"/><path class="st0" d="M-744-936v-4.6c0-.6.3-1.2.9-1.4l3.5-1.8c.3-.1.6.1.6.4v4.9l-5 2.5z" transform="translate(984 1000)"/><path class="st9" d="M-745-936.5l1 .5v-4.6l-1-.5z" transform="translate(984 1000)"/><path class="st10" d="M-744-936v-4.6c0-.6.3-1.2.9-1.4l3.5-1.8c.3-.1.6.1.6.4v4.9l-5 2.5z" transform="translate(984 1000)"/></g><g id="i2322_1_"><path class="st8" d="M-755-945.5l-4 2 14 7 4-2z" transform="translate(760 1056)"/><path class="st0" d="M-754.2-951.3l-1-.5c-.1-.1-.3-.1-.4 0l-3.5 1.8c-.6.2-.9.8-.9 1.4v4.6l1 .5 4.7-2.9.1-4.9z" transform="translate(760 1056)"/><path class="st0" d="M-759-943.5v-4.6c0-.6.3-1.2.9-1.4l3.5-1.8c.3-.1.6.1.6.4v4.9l-5 2.5z" transform="translate(760 1056)"/><path class="st9" d="M-760-944l1 .5v-4.6l-1-.5z" transform="translate(760 1056)"/><path class="st10" d="M-759-943.5v-4.6c0-.6.3-1.2.9-1.4l3.5-1.8c.3-.1.6.1.6.4v4.9l-5 2.5z" transform="translate(760 1056)"/><path class="st11" d="M-754-949.5l-5 2.5v1l14 7v-1l5-2.5z" transform="translate(760 1056)"/><path class="st9" d="M-745-940l-14-7v1l14 7z" transform="translate(760 1056)"/><path class="st8" d="M-743.8-940.6l-14-7-.2.1 14 7zm1-.5l-14-7-.2.1 14 7zm1-.5l-14-7-.2.1 14 7zm1-.5l-14-7-.2.1 14 7z" transform="translate(760 1056)"/><path class="st0" d="M-739.2-943.8l-1-.5c-.1-.1-.3-.1-.4 0l-3.5 1.8c-.5.3-.9.8-.9 1.4v4.6l1 .5 4.7-2.9.1-4.9z" transform="translate(760 1056)"/><path class="st0" d="M-744-936v-4.6c0-.6.3-1.2.9-1.4l3.5-1.8c.3-.1.6.1.6.4v4.9l-5 2.5z" transform="translate(760 1056)"/><path class="st9" d="M-745-936.5l1 .5v-4.6l-1-.5z" transform="translate(760 1056)"/><path class="st10" d="M-744-936v-4.6c0-.6.3-1.2.9-1.4l3.5-1.8c.3-.1.6.1.6.4v4.9l-5 2.5z" transform="translate(760 1056)"/></g><g transform="translate(776 1064)" id="i2323_1_"><path class="st0" d="M-752-948c-1.7 0-3 .7-3 1.5v6c0 .8 1.3 1.5 3 1.5s3-.7 3-1.5v-6c0-.8-1.3-1.5-3-1.5z"/><path class="st1" d="M-752-945c-1.7 0-3-.7-3-1.5v6c0 .8 1.3 1.5 3 1.5s3-.7 3-1.5v-6c0 .8-1.3 1.5-3 1.5z"/><ellipse class="st7" cx="-752" cy="-946.5" rx="2.3" ry=".9"/></g><g id="i2325_1_"><path class="st8" d="M765-945.5l-4 2 14 7 4-2z" transform="matrix(-1 0 0 1 880 1000)"/><path class="st0" d="M765.8-951.3l-1-.5c-.1-.1-.3-.1-.4 0l-3.5 1.8c-.6.2-.9.8-.9 1.4v4.6l1 .5 4.7-2.9.1-4.9z" transform="matrix(-1 0 0 1 880 1000)"/><path class="st0" d="M761-943.5v-4.6c0-.6.3-1.2.9-1.4l3.5-1.8c.3-.1.6.1.6.4v4.9l-5 2.5z" transform="matrix(-1 0 0 1 880 1000)"/><path class="st10" d="M760-944l1 .5v-4.6l-1-.5z" transform="matrix(-1 0 0 1 880 1000)"/><path class="st9" d="M761-943.5v-4.6c0-.6.3-1.2.9-1.4l3.5-1.8c.3-.1.6.1.6.4v4.9l-5 2.5z" transform="matrix(-1 0 0 1 880 1000)"/><path class="st11" d="M766-949.5l-5 2.5v1l14 7v-1l5-2.5z" transform="matrix(-1 0 0 1 880 1000)"/><path class="st10" d="M775-940l-14-7v1l14 7z" transform="matrix(-1 0 0 1 880 1000)"/><path class="st8" d="M776.2-940.6l-14-7-.2.1 14 7zm1-.5l-14-7-.2.1 14 7zm1-.5l-14-7-.2.1 14 7zm1-.5l-14-7-.2.1 14 7z" transform="matrix(-1 0 0 1 880 1000)"/><path class="st0" d="M780.8-943.8l-1-.5c-.1-.1-.3-.1-.4 0l-3.5 1.8c-.5.3-.9.8-.9 1.4v4.6l1 .5 4.7-2.9.1-4.9z" transform="matrix(-1 0 0 1 880 1000)"/><path class="st0" d="M776-936v-4.6c0-.6.3-1.2.9-1.4l3.5-1.8c.3-.1.6.1.6.4v4.9l-5 2.5z" transform="matrix(-1 0 0 1 880 1000)"/><path class="st10" d="M775-936.5l1 .5v-4.6l-1-.5z" transform="matrix(-1 0 0 1 880 1000)"/><path class="st9" d="M776-936v-4.6c0-.6.3-1.2.9-1.4l3.5-1.8c.3-.1.6.1.6.4v4.9l-5 2.5z" transform="matrix(-1 0 0 1 880 1000)"/></g><g id="i2331_1_"><path class="st1" d="M-7539.9-9290.6c19.4-9.4 10.1-21.9-9.2-25.3-8.4-1.5-13.5-14.9-34.6-1.6-16.9 10.8 0 17.9 8.6 22 12.1 5.7 17.2 13.7 35.2 4.9z" transform="matrix(.1 0 0 .1 984 992)"/><path class="st12" d="M-7588.5-9311c-.6 2.5 0 4.3 2.4 5.6 2.4 1.2 4.8 2 9.2.3 4.4-1.7 8.7-5.6 13-7.4 4.3-1.8 6.9-3.9 7-7.9.1-3.9-13-6.1-16.4-1.9-3.4 4.2-7.7 6.3-9.8 7.4-2.1 1.1-4.8 1.6-5.4 3.9z" transform="matrix(.1 0 0 .1 984 992)"/><path class="st13" d="M-7587.7-9310.9c.4 1.2 3.4 3.9 6.5 3.3 3.1-.6 7.2-3 10.3-5.1 3.2-2.1 6.7-3.8 9.1-4.9 2.4-1.1-7.9-8.1-7.9-8.1s-4.7 5.5-9.6 9c-4 2.8-9.2 3.7-8.4 5.8z" transform="matrix(.1 0 0 .1 984 992)"/><path class="st12" d="M-7547.4-9310.7c-.8 3.1-2.4 6.9-6.6 11.6-4.2 4.6-3.9 4.8-3.6 6.5.3 1.7.2 3.3 3.6 3.7 3.4.3 6.3-.1 8.8-1.7 2.4-1.6 9.3-8.8 11.1-11.1 1.8-2.3 3.1-2.9 3.1-6s-16.4-3-16.4-3z" transform="matrix(.1 0 0 .1 984 992)"/><path class="st13" d="M-7532.9-9307.6c-1.8 2.4-6.4 7.6-9.6 10.5-2.7 2.4-3.7 4-7.5 4.6-3.4.6-6.5.3-7.3-.7-.8-1 1.4-3.6 4.9-7.5 3.6-4 5.2-10.6 5.2-10.6l14.3 3.7z" transform="matrix(.1 0 0 .1 984 992)"/><path class="st14" d="M-7532.2-9389.1c-7.6 1.7-24.2 7.9-29 9.3-4.8 1.4-9.8 2.8-10.8 9.8s1.1 16.4.7 25.7c-.4 9.3-1 13-.6 14.9.4 2 .5 2.4-1.3 3.7-1.8 1.4-3.2 4.6-2.3 6.4 1 1.8 7.9 6.5 13.9 4.8s5.2-3.3 6.3-9.2c1.1-5.9 1.8-15.9 2.4-24.4s0-12.7 1.1-13.6c1.1-1 7.4-.6 17.2-2.5 9.8-1.9 20.6-9.2 20.6-9.2l-18.2-15.7z" transform="matrix(.1 0 0 .1 984 992)"/><path class="st1" d="M-7532.2-9389.1c-7.6 1.7-24.2 7.9-29 9.3-4.8 1.4-9.8 2.8-10.8 9.8s1.1 16.4.7 25.7c-.4 9.3-1 13-.6 14.9.4 2 .5 2.4-1.3 3.7-1.8 1.4-3.2 4.6-2.3 6.4 1 1.8 7.9 6.5 13.9 4.8s5.2-3.3 6.3-9.2c1.1-5.9 1.8-15.9 2.4-24.4s0-12.7 1.1-13.6c1.1-1 7.4-.6 17.2-2.5 9.8-1.9 20.6-9.2 20.6-9.2l-18.2-15.7z" transform="matrix(.1 0 0 .1 984 992)"/><path class="st14" d="M-7526.1-9377.2c-6.3 3.1-15.3 12.7-16.6 16.9-1.3 4.2-1.2 13.9-1.3 17.2-.1 3.2-1.2 21.9-2.7 27.1-.8 2.6-2.3 4.3-2.6 6.4-.3 2.1-1.3 2.7-.1 4 1.2 1.3 7.9 2.8 12.4 2.7 4.5-.1 5.7-.6 6.7-2.3s1.5-3.2.5-5.5-.9-4.2.6-5.9c1.5-1.7 1.4-6.4 1.8-9.9.7-6.1 1.3-22.5 1.9-23.1.6-.6 11.7-5.1 17.1-8.2 6.6-3.8 9.1-11.4 8.1-20.3s-4.4-12.7-4.4-12.7l-21.4 13.6z" transform="matrix(.1 0 0 .1 984 992)"/><path class="st15" d="M-7549.7-9434.1c-.8 1.7-1.9 3.5-3.3 6.7-1.7 4-5 9.1-6.1 11.2-1.3 2.6-3.1 4.6-3.1 9.2 0 4.8 2.1 19.3 1.9 21.4-.2 2-.5 4.1 1.4 5.6 1.9 1.6 3.3 2.7 3.5 3.7.2 1 .6 1.2.6 2.4-.1 2.7.1 3.7.7 3.8 1 .2 1.2-3.3 1.2-4.2 0-.9-.1-1.8-.1-1.8s.8 1 1.1 3c.3 2 .2 4.6 1.4 5 1.2.4 1.2-1.4 1-3.2s-.4-3.1-.4-3.1l-.7-2s1.9 1.4 2.7 2.7c.7 1 1.1 2.1 1.3 3.1.2.9.8 2.9 1.6 2.8 1-.1.6-2.4.4-3.4-.2-1-1.2-3.7-1.4-4.1l-.7-1.4s1 0 1.9 1c.9 1 1.5 2.5 2.3 3.5s1.2 1.7 1.9 1.2-1.1-4.1-1.6-4.9c-.5-.9-.6-2-1.9-2.7-1.3-.7-3.7-2.5-4.8-3.3-1.2-.8-3.2-1.7-3.4-2.8-.3-1.2-.6-4.1-.4-6.2 1-12.9.1-16.5.5-17.5.5-1.2 4-6.1 7.5-9.8s6.7-7.4 6.7-7.4l-11.7-8.5z" transform="matrix(.1 0 0 .1 984 992)"/><path class="st0" d="M-7536-9444.8c-4.5.2-8.6 0-11.8 5.2-3.2 5.2-2.9 7.1-2.9 7.1s6 2.6 6.3 3.3c.3.7.3 5.8 1.2 8.3.9 2.5 3.7 6.8 3.9 11.4.2 4.6-.4 20.7.1 22.5.8 2.8 4.1 7.9 10.1 9.5s15.3 1.4 21.2-3.2c5.4-4.2 5.1-5.6 5-7.5-.1-1.9-4.1-5.1-4.6-8.8s2.2-11.9 2-19.6c-.1-7.7-.5-10.9-5.1-16.8-4.4-5.6-9.2-10.3-11.9-11.8-3.4-2-13.5.4-13.5.4z" transform="matrix(.1 0 0 .1 984 992)"/><path class="st15" d="M-7534.8-9435.4s1 8 8.5 6.9c7.4-1.1 10.7-5.6 10.5-8.4-.2-2.4-2.3-4-4.6-6.3-1.6-1.7-3.5-2.7-3.4-3.7.2-2 2.7-9.9-1.2-14.6-6.6-7.9-14.4-3.6-16.7-1.9-6 4.6-6.7 11.2-6.1 14.6.6 3.3 2.5 12.9 5 14.5 2.4 1.7 8-1.1 8-1.1z" transform="matrix(.1 0 0 .1 984 992)"/><path class="st11" d="M-7525.4-9447.4s.7.4 1.7.4c.2-2 2.7-9.9-1.2-14.6-6.6-7.9-14.4-3.6-16.7-1.9-3 2.3-4.7 5.1-5.5 7.7 1 .9.4 2.7 3.1 3.5 2.9.8 4.4-3 7.5-1.5s4 8 4 8l2.2-1.6s.9-3.3 3.1-3.2c2.1.2 1.8 3.2 1.8 3.2z" transform="matrix(.1 0 0 .1 984 992)"/><path class="st15" d="M-7538-9366.3s1-1.3 2-1.8c.9-.5 2-.9 2.6-.5.6.4 4 2.4 6.3 1.6 2.3-.8 3.1-1.7 4.3-3.4 1.2-1.7 9.6-8.3 11.5-17.3 1.9-9 4.7-23.4 4.1-24.2-.5-.8-12.2-3.5-13.7-2.7-1.5.8.2 9.5.7 13.4.5 3.9 1.1 8.3.3 9.3-.8.9-2.7 4.4-4.3 8.4-1.5 3.9-2.9 8.8-3.4 8.8s-2.4-1.9-4.6-1.6c-2.2.3-2.2.8-3 1.2-.6.3-1.7 1-2.7 1.6s-1.8 1.4-1.8 2.5.9 4.7 1.7 4.7z" transform="matrix(.1 0 0 .1 984 992)"/></g><g id="i2334_1_"><path class="st1" d="M7696-9285.7c14.3-9.6 1.9-20.5-18.1-24-8.7-1.6-33-23.8-54.8-10-17.6 11.2 18.9 27 27.9 31.1 12.5 5.8 27.8 14.5 45 2.9z" transform="matrix(-.1 0 0 .1 880 992)"/><path class="st11" d="M7682.1-9306.9l12.7-.4s2.5 3.4 1.9 6.1-4.5 7-5.5 8.9-2.7 7.8-8 9.1c-5.3 1.3-12.1.9-13-2.5-.7-2.7 10.2-15.5 10.8-16.6.4-1.1 1.1-4.6 1.1-4.6z" transform="matrix(-.1 0 0 .1 880 992)"/><path class="st7" d="M7691.2-9292.3c.9-1.9 4.8-6.1 5.5-8.9.2-.9.1-2.1-.2-3-.5 1.3-1.2 3.3-2.2 4.3-1.6 1.7-4.7 8.2-6.4 11.3-2.3 4-13.1 6.9-17.6 2.3-.1.3-.1.5 0 .7.9 3.4 7.8 3.8 13 2.5 5.2-1.5 6.9-7.4 7.9-9.2z" transform="matrix(-.1 0 0 .1 880 992)"/><path class="st11" d="M7640.4-9321c-4.7 2.9-13 5-15.7 6.4-3 1.7-4.9 7.8 1.3 8.2 6.2.4 16.4-4 19.9-4s10-1.1 10.9-3.1c.9-2-.4-7.1-.4-7.1l-16-.4z" transform="matrix(-.1 0 0 .1 880 992)"/><path class="st16" d="M7697.3-9392.8s-15.5 4.9-22.9 8.2-18.9 6.9-22.4 11.8c-3.4 4.9-4.8 15.1-5.8 20.6-1 5.6-4.4 19.1-6.6 25.4-1.1 3.4-3.1 6.3-2.9 7.3.2 1 9 1.9 13.5 2.1 5.3.2 7.2.2 8.9-1.2 1-.9 3.4-15 5.4-22.5 2.1-7.5 4.2-17.1 4.2-17.1s5.4-.6 12.3-1.8c7.2-1.2 26.4-6.4 29.8-8.4 3.4-2.1 3.2-18.5 3.2-18.5l-16.7-5.9z" transform="matrix(-.1 0 0 .1 880 992)"/><path class="st1" d="M7697.3-9392.8s-15.5 4.9-22.9 8.2-18.9 6.9-22.4 11.8c-3.4 4.9-4.8 15.1-5.8 20.6-1 5.6-4.4 19.1-6.6 25.4-1.1 3.4-3.1 6.3-2.9 7.3.2 1 9 1.9 13.5 2.1 5.3.2 7.2.2 8.9-1.2 1-.9 3.4-15 5.4-22.5 2.1-7.5 4.2-17.1 4.2-17.1s5.4-.6 12.3-1.8c7.2-1.2 26.4-6.4 29.8-8.4 3.4-2.1 3.2-18.5 3.2-18.5l-16.7-5.9z" transform="matrix(-.1 0 0 .1 880 992)"/><path class="st15" d="M7697.9-9437.3l7.4 4s-6 15.8-7.5 19.4c-.8 2-2.6 6.7-6 12-3.5 5.4-7.9 10.1-8.4 12-.5 1.9-.9 2.3-2.5 3.6-1.7 1.3-2.6 1.8-4.2 2.7-.9.5-3.1 3.5-4.3 4.7s-6.5 1.7-7.1-.9c-.4-1.9 3.5-6.7 4.7-8.2 1.2-1.4 5.5-1.9 6.5-3.3s6.1-12 7.9-16.1c1.8-4.2 3.8-11.3 7.2-16.3 3.3-5.2 6.3-13.6 6.3-13.6z" transform="matrix(-.1 0 0 .1 880 992)"/><path class="st16" d="M7704.8-9387l-.1 7.8s-4.4 3.8-9.6 8.8c-5.1 4.9-11.1 10.8-12.9 12.6-1.9 1.9-3.4 2.7-4 6.7s.2 32.3.1 37.2c-.1 4.7-.1 11.1 1 12.1 1.2 1 6.4 1.3 11 .7 5.2-.7 7.9-1.7 8.3-2.7.4-1 .5-16.1.9-22.6s-.3-17.3-.3-17.3 9.3-3.4 14.8-5.7c5.5-2.3 23.5-7.2 27.2-14.2 3.6-6.9 2.4-14.8 1.4-19.6-.7-4-3-6.1-3-6.1l-34.8 2.3z" transform="matrix(-.1 0 0 .1 880 992)"/><path class="st7" d="M7656.9-9313.4c.1-.2.2-.5.2-.8-3 1.3-8.1 2.2-11.7 2.3-3.1.1-13.5 4.1-18.6 4.1-2.4 0-3.9-.8-5-1.7.2 1.6 1.3 2.9 4.1 3.1 6.2.4 16.4-4 19.9-4 3.7.1 10.2-1 11.1-3z" transform="matrix(-.1 0 0 .1 880 992)"/><path class="st15" d="M7723-9380.6c-.7 1.3-1.2 2.3-1.8 2.5-1.6.5-8.1 1.1-10.2 3.2-2.3 2.1-4.3 3.9-4.7 5.2-.3 1.2-2 4.9-1.1 6 .7 1.1 1-1.1 2.4-2 1.3-.8 5.4-3.5 9.6-4 4.2-.5 6.2-1.2 7.6-2.9.5-.5 2.3-2.4 4.5-4.8l-6.3-3.2z" transform="matrix(-.1 0 0 .1 880 992)"/><path class="st0" d="M7746.8-9424.2c-.3-3.9.1-7.3-.3-9.5-1.2-6.6-7.6-14.7-16.2-16.8-5.9-1.4-24.2-.3-24.2-.3-.4.1-4 3.8-6 7-1.9 3.1-4.3 9.6-4.3 9.6-1 2-4.9 9.7-6.1 12.1-1.2 2.5-6 11-7.1 13.9-1.1 2.9-3.7 11.4-4.5 12.7-.8 1.3-2.1 3.1-2.1 3.1l8.6 3.4 1.1-2.2s5.8-7.3 8-10.5c2.1-3 3.1-7.4 4-9.5-1.1 3.7-2.8 10.1-3.6 14.5-.9 5.1-1.3 7.2-.7 8.4.7 1.2 3.4 5.6 14.8 6.2 4.2.2 9.4.2 14.3.1l-.5 1.7-1.1 1.7s3 2.1 3.9 3.4 1.3 3 1.3 3l1.8-1.8s5.6-4.5 7.5-6.2c.9-.7 1.9-1.9 2.3-2.5 1.1-.1 1.3-.1 1.8-.1 2.7-.2 3.9-.7 3.9-.7s.2-3.5.5-8.2c2.4-2.2 5-5.1 5.4-9.2.2-3.7-2.3-20.4-2.5-23.3z" transform="matrix(-.1 0 0 .1 880 992)"/><path class="st1" d="M7729.7-9420c-.4 5.3.8 12.5.8 14.3 0 1.8-2.1 3.5-6 8.4-3.8 4.8-7.4 14.5-7.9 15.4 1.9 0 3.7 0 5.6-.1.3-.9 2.2-6.5 4.1-10.5 2.2-4.4 7-11.2 7-11.2s-.9-2.6-1.4-5.1c-.6-2.8-2.2-11.2-2.2-11.2zm13.5 36.4s.2-3.5.5-8.2c0 0-1.4 2.3-2.3 3.6-.8 1.2-3.9 5.4-3.9 5.4 1.1-.1 1.3-.1 1.8-.1 2.7-.3 3.9-.7 3.9-.7z" transform="matrix(-.1 0 0 .1 880 992)"/><path class="st15" d="M7705.4-9473c-3.2 4.3-1.8 15.4-1.3 18.2.4 2.7 1.1 5.7 3.1 6.4s3.3 1.5 3.7 2.8c.7 2.4-.7 6 .7 6.8 1.4.8 6.7-.4 12.6-3.5 5.5-2.9 8.4-6.5 7.5-7.4-.8-.9-5.3-1.7-5.2-4.9.1-3.2 3.2-8.2 3.3-12.8 0-10.7-17-15.6-24.4-5.6z" transform="matrix(-.1 0 0 .1 880 992)"/><path d="M7719.1-9476.9c5.8 3.2-3.9 7.1-1.7 9.3 2 1.9 2 7.5 3 9.3 1.2 2.2 2.5-2.4 3.6-3.5 1-1 2.9-1.2 3.4.3.5 1.6-.4 3.8-.5 4.4 1.7-.3 3.8-5.9 3.4-11.8-.4-7-10.4-13.7-21.4-7.5-2.2 1.2-2.9 2.6-1.8 1.7 2.3-1.7 8.4-4.3 12-2.2z" fill="#999" transform="matrix(-.1 0 0 .1 880 992)"/></g><g transform="translate(920 952)" id="i2341_1_"><ellipse class="st8" cx="-744.5" cy="-897" rx="7.5" ry="4"/><path class="st11" d="M-746-924v27c0 .6.7 1 1.5 1s1.5-.4 1.5-1v-27h-3z"/><circle class="st18" cx="-751.5" cy="-928.5" r="6.5"/><circle class="st18" cx="-747" cy="-937" r="9"/><path class="st11" d="M-744-908.6c2.6 0 3-.9 3-3.4v-8h1v10c0 1.7-1.3 3-3 3h-1v-1.6zm0-.6c-1.7 0-3-.4-3-2.1v-9.7h-1v10c0 1.7 1.3 3 3 3h1v-1.2zm-2-21c-1.7 0-3-.4-3-2.1v-2.7h-1v3c0 1.7 1.3 3 3 3h1v-1.2z"/><circle class="st18" cx="-739.5" cy="-921.5" r="7.5"/><circle class="st18" cx="-735" cy="-925" r="6"/><path class="st11" d="M-740-922.2c1.7 0 3-.4 3-2.1v-2.7h1v3c0 1.7-1.3 3-3 3h-1v-1.2zm-7-15.4h1v9.6h-1z"/><circle class="st18" cx="-738" cy="-935" r="8"/><circle class="st18" cx="-743" cy="-944" r="8"/><path class="st6" d="M-742.5-936c2.2 0 4.1 1.3 4.9 3.1.3-.1.7-.1 1.1-.1 1.8 0 3.4.9 4.4 2.2-.4-1.8-2-3.2-3.9-3.2h-.1c-.5-2.3-2.5-4-4.9-4-2 0-3.7 1.2-4.5 2.9.8-.6 1.9-.9 3-.9z"/><circle class="st18" cx="-752" cy="-936.6" r="3.6"/><path class="st6" d="M-752-936.5c0-2.5 1.7-4.6 4-5.3.2-2.9 2.6-5.2 5.5-5.2 1.7 0 3.3.8 4.3 2.1-.6-2.4-2.8-4.1-5.3-4.1-2.9 0-5.3 2.2-5.5 5.1-2.3.5-4 2.5-4 4.9 0 1.1.4 2.2 1 3v-.5z"/><circle class="st18" cx="-746.7" cy="-921.2" r="9.3"/><circle class="st18" cx="-734.7" cy="-927.2" r="3.3"/><path class="st8" d="M-729-925c0-.4 0-.8-.1-1.2-.6 3.8-3.9 6.7-7.9 6.7h-.4c.7.3 1.6.5 2.4.5.7 0 1.3-.1 1.9-.3-1.4 1.4-3.3 2.3-5.4 2.3-1 0-2-.2-2.9-.6-1.6 1.6-3.9 2.6-6.3 2.6-3.5 0-6.6-2-8.1-4.8.7 4.4 4.5 7.8 9.1 7.8 2.2 0 4.3-.8 5.9-2.1.4.1.8.1 1.3.1 3.5 0 6.5-2.4 7.3-5.7 1.9-1 3.2-3 3.2-5.3z"/><path class="st6" d="M-749.5-926c.8 0 1.5.1 2.2.4.9-1.4 2.5-2.4 4.3-2.4 1 0 1.9.3 2.7.8-.7-1.7-2.3-2.8-4.2-2.8-1.6 0-3 .8-3.8 2h-.7c-2.9 0-5.4 2.1-5.9 4.9 1.2-1.8 3.2-2.9 5.4-2.9z"/><path class="st8" d="M-754-925.5c-1.9-.8-3.4-2.4-3.9-4.5 0 .5-.1 1-.1 1.5 0 2.4 1.3 4.4 3.2 5.6.1-.9.4-1.8.8-2.6z"/></g><g transform="translate(816 1032)" id="i2342_1_"><ellipse class="st8" cx="-744.5" cy="-913" rx="5.6" ry="3"/><path class="st11" d="M-744-926c.6 0 1 .4 1 1v12c0 .6-.4 1-1 1s-1-.4-1-1v-12c0-.6.4-1 1-1z"/><path class="st18" d="M-742.5-916c-1.4 0-2.5-1.1-2.5-2.5v-16c0-1.4 1.1-2.5 2.5-2.5s2.5 1.1 2.5 2.5v16c0 1.4-1.1 2.5-2.5 2.5z"/><path class="st18" d="M-739.5-921c-1.4 0-2.5-1.1-2.5-2.5v-16c0-1.4 1.1-2.5 2.5-2.5s2.5 1.1 2.5 2.5v16c0 1.4-1.1 2.5-2.5 2.5z"/><path class="st18" d="M-740.5-924c-1.4 0-2.5-1.1-2.5-2.5v-16c0-1.4 1.1-2.5 2.5-2.5s2.5 1.1 2.5 2.5v16c0 1.4-1.1 2.5-2.5 2.5z"/><path class="st18" d="M-742.8-951c-1.3.1-2.2 1.3-2.2 2.6 0 .3-.2.5-.5.4-.5-.1-1-.1-1.6.2-1.2.5-1.9 1.8-1.9 3.1v1.3c0 .2-.2.4-.4.4s-.4 0-.6.1c-1.2.2-2 1.3-2 2.5v15.8c0 .8.4 1.6 1 2.1s1 1.3 1 2.1v.9c0 1.4 1.1 2.5 2.5 2.5h1c1.4 0 2.5-1.1 2.5-2.5v-5.1c.6-.6 1-1.5 1-2.4v-8.1c.3.1.6.1 1 0 1.2-.2 2-1.4 2-2.6v-10.9c0-1.4-1.3-2.6-2.8-2.4z"/><path class="st18" d="M-744-924.6c.6-.6 1-1.5 1-2.4v-2c0 .9-.4 1.8-1 2.4v2z"/><path d="M-742.5-918c-1.1 0-2-.7-2.3-1.6-.4.4-1 .6-1.7.6h-1c-1.4 0-2.5-1.1-2.5-2.5v2c0 1.4 1.1 2.5 2.5 2.5h1c.6 0 1.2-.2 1.7-.6.4 1 1.3 1.6 2.3 1.6 1.4 0 2.5-1.1 2.5-2.5v-2c0 1.4-1.1 2.5-2.5 2.5zm3-5c-.2 0-.3 0-.5-.1v2c.2 0 .3.1.5.1 1.4 0 2.5-1.1 2.5-2.5v-2c0 1.4-1.1 2.5-2.5 2.5zm-3-4h-1c-.5.6-1.2 1-2 1-1.4 0-2.5-1.1-2.5-2.5v2c0 1.4 1.1 2.5 2.5 2.5.8 0 1.5-.4 2-1h1c1.4 0 2.5-1.1 2.5-2.5v-2c0 1.4-1.1 2.5-2.5 2.5zm0-8c-.2 0-.3 0-.5-.1v2c.2 0 .3.1.5.1 1.4 0 2.5-1.1 2.5-2.5v-2c0 1.4-1.1 2.5-2.5 2.5z"/><path class="st6" d="M-743-946c-1.1 0-2 .9-2 2v.3h-1.2c-1.1 0-2 .9-2 2v1.4c-.9.2-1.6 1-1.6 2v2c0-1 .7-1.8 1.6-2v-1.4c0-1.1.9-2 2-2h1.2v-.3c0-1.1.9-2 2-2s2 .9 2 2v-2c0-1.1-.9-2-2-2z"/><path class="st8" d="M-750-921.5v-.9c0-.8-.3-1.6-1-2.1-.6-.5-1-1.3-1-2.1v2c0 .8.4 1.6 1 2.1s1 1.3 1 2.1v-1.1z"/></g><g transform="translate(776 1016)" id="i2343_1_"><ellipse class="st8" cx="-744.5" cy="-935" rx="6.5" ry="2"/><path class="st11" d="M-746-938h3v4h-3z"/><circle class="st18" cx="-739" cy="-939.9" r="3.8"/><circle class="st18" cx="-741.1" cy="-944.9" r="5.3"/><circle class="st18" cx="-746.4" cy="-941.4" r="5.3"/><circle class="st18" cx="-749.3" cy="-943.8" r="3.5"/><path class="st11" d="M-746.9-946.9c-1 0-1.8-.3-1.8-1.2v-1.5h-.6v1.8c0 1 .8 1.8 1.8 1.8h.6v-.9z"/><circle class="st18" cx="-747.1" cy="-940.1" r="5.7"/><path class="st8" d="M-747.1-935.8c-2.9 0-5.3-2.2-5.7-5v.7c0 3.2 2.6 5.7 5.7 5.7s5.7-2.6 5.7-5.7v-.7c-.4 2.8-2.8 5-5.7 5z"/><circle class="st18" cx="-745.2" cy="-947.3" r="4.7"/><circle class="st18" cx="-741.4" cy="-948.8" r="2.6"/><path class="st6" d="M-749.8-944.9c1.3 0 2.4.7 2.9 1.8.2 0 .4-.1.6-.1 1.1 0 2 .5 2.6 1.3-.2-1.1-1.2-1.9-2.3-1.9h-.1c-.3-1.3-1.5-2.4-2.9-2.4-1.2 0-2.2.7-2.7 1.7.6-.2 1.2-.4 1.9-.4z"/><path class="st11" d="M-745.2-946.5c.1.1.3.2.4.3h.2v-1.7c-.2 0-.4 0-.6-.1v1.5z"/><path class="st6" d="M-744.9-949.6c1.4 0 2.5 1.1 2.6 2.5.3-.1.6-.1.9-.1 1.5 0 2.7 1 3.1 2.3.1-.3.1-.5.1-.8 0-1.5-1.2-2.6-2.6-2.6-.3 0-.6.1-.9.2-.1-1.1-1-1.9-2-1.9-.6 0-1.1.2-1.5.6.1-.2.2-.2.3-.2z"/><path class="st8" d="M-735.8-944.1c-1 1.1-2.4 1.8-4 1.8h-.4c.6.6.9 1.4 1 2.3 1.8-.6 3.1-2.2 3.4-4.1zm-1.5 6c.2.4.3.9.3 1.4 1-.6 1.7-1.7 1.8-2.9-.5.7-1.2 1.3-2.1 1.5z"/><circle class="st18" cx="-741.8" cy="-939.8" r="5.4"/><path class="st6" d="M-744-941.4c.7 0 1.4.2 1.9.5.7-.7 1.7-1.1 2.8-1.1.9 0 1.8.3 2.5.8-.6-1.2-1.9-2-3.4-2-1 0-1.8.3-2.5.9-.4-.2-.9-.3-1.3-.3-1.4 0-2.6 1-2.9 2.4.8-.8 1.8-1.2 2.9-1.2z"/><path class="st8" d="M-741.2-935.5c-2.2 0-4.1-1.2-5.2-3-.2 0-.2 4.1 4.6 4.1 2.1 0 3.9-1.2 4.8-2.9-1.1 1.1-2.6 1.8-4.2 1.8z"/><path class="st11" d="M-742-944.6c0 1-.9 1.2-2 1.2v.4h.6c1 0 1.4-.4 1.4-1.4v-1.2 1z"/></g></svg>