<svg xmlns="http://www.w3.org/2000/svg" width="61" height="50.8"><style>.st0{opacity:.3;enable-background:new}.st1{fill:#2d3134}.st2{opacity:6.000000e-02;enable-background:new}.st3{fill:#999}.st4,.st5{opacity:.15;enable-background:new}.st5{opacity:.39}.st7{fill:#fc0}.st8,.st9{opacity:.11;enable-background:new}.st9{opacity:.29}.st10{fill:#e5e5e5}.st11{fill:#39c}.st12{fill:#fff}.st15,.st16{opacity:.3;fill:#2d3134;enable-background:new}.st16{fill:#fff}</style><g id="i1580_1_"><path class="st0" d="M979-404.7l13.1-7.5 47.9 24-14 7z" transform="matrix(-1 0 0 1 1040 432)"/><path class="st1" d="M981.3-408v3.8l2.5-1.3v-3.7z" transform="matrix(-1 0 0 1 1040 432)"/><path class="st2" d="M981.3-408v3.8l2.5-1.3v-3.7z" transform="matrix(-1 0 0 1 1040 432)"/><path class="st1" d="M985.7-408.4c-.7-.4-1.4-.4-1.9-.2l-1.4.7c-.5.2-.9.8-.9 1.6 0 1.5 1.3 3.4 2.8 4.2.8.4 1.5.4 2 .2 0 0 1.4-.7 1.5-.8.5-.3.7-.8.7-1.5 0-1.5-1.3-3.4-2.8-4.2z" transform="matrix(-1 0 0 1 1040 432)"/><path class="st2" d="M986.3-401.9c.2-.1 1.4-.7 1.5-.7.5-.3.7-.8.7-1.5 0-.6-.2-1.3-.5-1.9l-1.4.7c.3.6.5 1.3.5 1.9 0 .7-.3 1.2-.8 1.5z" transform="matrix(-1 0 0 1 1040 432)"/><path class="st3" d="M986.4-403.8c0 1.2-.9 1.6-2.1 1-1.2-.6-2.1-2-2.1-3.2s.9-1.6 2.1-1 2.1 2 2.1 3.2z" transform="matrix(-1 0 0 1 1040 432)"/><path class="st4" d="M984.5-402.9c-1.2-.6-2.1-2-2.1-3.2 0-.6.2-1 .6-1.2-.5.1-.8.6-.8 1.2 0 1.2.9 2.6 2.1 3.2.6.3 1.1.3 1.5.1-.4.2-.8.2-1.3-.1z" transform="matrix(-1 0 0 1 1040 432)"/><path class="st1" d="M985.4-404.5c0 .5-.4.7-.9.4-.5-.2-.9-.8-.9-1.3s.4-.7.9-.4c.5.2.9.8.9 1.3z" transform="matrix(-1 0 0 1 1040 432)"/><path class="st2" d="M985.4-404.5c0 .5-.4.7-.9.4-.5-.2-.9-.8-.9-1.3s.4-.7.9-.4c.5.2.9.8.9 1.3z" transform="matrix(-1 0 0 1 1040 432)"/><path class="st1" d="M985.2-404.5c0 .5-.4.7-.9.4-.5-.3-.9-.8-.9-1.3s.4-.7.9-.4c.5.3.9.9.9 1.3z" transform="matrix(-1 0 0 1 1040 432)"/><path class="st5" d="M987.1-403.5c0 1.5-1.3 2.2-2.8 1.4-1.5-.8-2.8-2.7-2.8-4.2s1.3-2.2 2.8-1.4c1.5.8 2.8 2.7 2.8 4.2z" transform="matrix(-1 0 0 1 1040 432)"/><path fill="#06547a" d="M993-432l-14 7v15.3l38 19 14-7v-15.2z" transform="matrix(-1 0 0 1 1040 432)"/><path class="st1" d="M1031-398.9v2l-14 7v-2zM979-411v2l38 19.1v-2z" transform="matrix(-1 0 0 1 1040 432)"/><path class="st5" d="M979-425v16l38 19.1v-16z" transform="matrix(-1 0 0 1 1040 432)"/><path class="st2" d="M980-423.4v12.9l12.9-6.4z" transform="matrix(-1 0 0 1 1040 432)"/><path class="st1" d="M1016-405.3l-23.1-11.6-12.9 6.4 36 18.1z" transform="matrix(-1 0 0 1 1040 432)"/><path class="st2" d="M1031-412.9v16l-14 7v-16z" transform="matrix(-1 0 0 1 1040 432)"/><path class="st7" d="M987.5-419.6l-6.7 3.3v6l6.6 3.3 6.8-3.4v-5.9z" transform="matrix(-1 0 0 1 1040 432)"/><path class="st8" d="M994.1-416.3l-6.7 3.3v6l6.8-3.4v-5.9z" transform="matrix(-1 0 0 1 1040 432)"/><path class="st0" d="M989.9-418.4l-6.7 3.3v2.9l1.8.9v-2.9l6.7-3.3z" transform="matrix(-1 0 0 1 1040 432)"/><path class="st9" d="M987.4-407l-6.6-3.3v-6l6.6 3.3z" transform="matrix(-1 0 0 1 1040 432)"/><path class="st7" d="M1001-412.8l.2.1v5.8l-6.8 3.4-6.6-3.3v-6l6.6-3.3z" transform="matrix(-1 0 0 1 1040 432)"/><path class="st8" d="M994.4-403.5l6.8-3.4v-5.8l-.2-.1-6.6 3.3z" transform="matrix(-1 0 0 1 1040 432)"/><path class="st0" d="M996.8-414.9l1.8.9-6.6 3.3v2.9l-1.8-.9v-2.9z" transform="matrix(-1 0 0 1 1040 432)"/><path class="st9" d="M994.4-403.5l-6.6-3.3v-6l6.6 3.3z" transform="matrix(-1 0 0 1 1040 432)"/><path class="st7" d="M981.1-422.8l-.3.1v6l6.6 3.3 6.3-3.1z" transform="matrix(-1 0 0 1 1040 432)"/><path class="st8" d="M987.7-419.5l-.3.1v6l6.3-3.1z" transform="matrix(-1 0 0 1 1040 432)"/><path class="st0" d="M983.5-421.6l-.3.1v2.9l1.8.9v-2.9l.3-.1z" transform="matrix(-1 0 0 1 1040 432)"/><path class="st9" d="M987.4-413.4l-6.6-3.3v-6l6.6 3.3z" transform="matrix(-1 0 0 1 1040 432)"/><path class="st7" d="M988.1-419.3l-.3.1v6l6.6 3.3 6.2-3.1z" transform="matrix(-1 0 0 1 1040 432)"/><path class="st8" d="M994.7-416l-.3.1v6l6.2-3.1z" transform="matrix(-1 0 0 1 1040 432)"/><path class="st0" d="M990.5-418.1l-.3.1v2.9l1.8.9v-2.9l.3-.1z" transform="matrix(-1 0 0 1 1040 432)"/><path class="st9" d="M994.4-409.9l-6.6-3.3v-6l6.6 3.3z" transform="matrix(-1 0 0 1 1040 432)"/><path class="st7" d="M1008-409.3l.2.1v5.8l-6.8 3.4-6.6-3.3v-6l6.6-3.3z" transform="matrix(-1 0 0 1 1040 432)"/><path class="st8" d="M1001.4-400l6.8-3.4v-5.8l-.2-.1-6.6 3.3z" transform="matrix(-1 0 0 1 1040 432)"/><path class="st0" d="M1003.8-411.4l1.8.9-6.6 3.3v2.9l-1.8-.9v-2.9z" transform="matrix(-1 0 0 1 1040 432)"/><path class="st9" d="M1001.4-400l-6.6-3.3v-6l6.6 3.3z" transform="matrix(-1 0 0 1 1040 432)"/><path class="st7" d="M1016-405.3v5l-.6.3-6.6-3.3v-5.6z" transform="matrix(-1 0 0 1 1040 432)"/><path class="st8" d="M1015.4-400l.6-.3v-5l-.6-.3z" transform="matrix(-1 0 0 1 1040 432)"/><path class="st0" d="M1013-406.8v2.5l-1.8-.9v-2.5z" transform="matrix(-1 0 0 1 1040 432)"/><path class="st9" d="M1015.4-400l-6.6-3.3v-5.6l6.6 3.3z" transform="matrix(-1 0 0 1 1040 432)"/><g transform="matrix(-1 0 0 1 1040 432)"><path class="st1" d="M1022.2-390.1c-.7-.4-1.4-.4-1.9-.2l-1.4.7c-.6.2-.9.8-.9 1.6 0 1.5 1.3 3.4 2.8 4.2.8.4 1.5.4 2 .2 0 0 1.4-.7 1.5-.8.5-.3.7-.8.7-1.5 0-1.6-1.3-3.5-2.8-4.2z"/><path class="st2" d="M1022.8-383.7c.2-.1 1.4-.7 1.5-.7.5-.3.7-.8.7-1.5 0-.6-.2-1.3-.5-1.9l-1.4.7c.3.6.5 1.3.5 1.9 0 .7-.3 1.3-.8 1.5z"/><path class="st3" d="M1022.9-385.6c0 1.2-.9 1.6-2.1 1s-2.1-2-2.1-3.2c0-1.2.9-1.6 2.1-1 1.2.6 2.1 2 2.1 3.2z"/><path class="st4" d="M1021-384.6c-1.2-.6-2.1-2-2.1-3.2 0-.6.2-1 .6-1.2-.5.1-.8.6-.8 1.2 0 1.2.9 2.6 2.1 3.2.6.3 1.1.3 1.5.1-.4.2-.8.1-1.3-.1z"/><path class="st1" d="M1021.8-386.3c0 .5-.4.7-.9.4-.5-.2-.9-.8-.9-1.3s.4-.7.9-.4c.6.2.9.8.9 1.3z"/><path class="st2" d="M1021.8-386.3c0 .5-.4.7-.9.4-.5-.2-.9-.8-.9-1.3s.4-.7.9-.4c.6.2.9.8.9 1.3z"/><path class="st1" d="M1021.7-386.2c0 .5-.4.7-.9.4-.5-.2-.9-.8-.9-1.3s.4-.7.9-.4c.5.2.9.8.9 1.3z"/><path class="st5" d="M1023.6-385.2c0 1.5-1.3 2.2-2.8 1.4-1.5-.8-2.8-2.7-2.8-4.2s1.3-2.2 2.8-1.4c1.5.8 2.8 2.6 2.8 4.2z"/><path class="st10" d="M1038-405l-6-3-14 7v11.3c0 .3.4.5.7.3 1.2-1 3.3-.3 4.8 1.5.9 1.1 1.3 2.3 1.3 3.3l1.2.6 14-7v-8l-2-6z"/><path class="st11" d="M1026.4-392.5l-1.7-5c-.1-.2 0-.3.2-.4l12.5-6.2c.2-.1.4 0 .5.2l1.6 4.7c.1.2 0 .3-.2.4l-12.4 6.5c-.2.1-.5 0-.5-.2z"/><path class="st4" d="M1028.7-399.8l8.6-4.3c.2-.1.4 0 .5.2l1.5 4.4-10.6-.3z"/><path class="st1" d="M1039.4-399.2l-.1-.3c0 .2 0 .3-.2.4l-12.4 6.5c-.2.1-.4 0-.5-.2l.1.3c.1.2.3.3.5.2l12.4-6.5c.2-.1.3-.2.2-.4z"/><path class="st12" d="M1029.5-393l7-3.5v5.8l-7 3.5z"/><path class="st1" d="M1030-388l6-3v-4.7l-6 3z"/><path class="st1" d="M1040-391v-2l-14 7v2zm-16 6l2 1v-2l-2-1z"/><path class="st12" d="M1030-388v1l6-3v-1z"/><path class="st11" d="M1023.5-397.7l-3.8-1.9c-.1-.1-.3 0-.3.2v3c0 .2.1.4.3.4l1.3.7c.1.1.2.1.3.2l1.3 1.6h.1l2.2 1.1c.1.1.3-.1.2-.2l-1.7-5c.2 0 .2-.1.1-.1z"/><path class="st4" d="M1025.3-392.7l-2-1h-.1l-1.3-1.6c-.1-.1-.2-.2-.3-.2l-1.3-.7c-.2-.1-.3-.2-.3-.4v-2.9l-.2-.1c-.1-.1-.3 0-.3.2v3c0 .2.1.4.3.4l1.3.7c.1.1.2.1.3.2l1.3 1.6h.1l2.2 1.1c.2.1.3 0 .3-.3z"/><path class="st7" d="M1026-388v2l-.5-.2v-2z"/><path class="st10" d="M1030-392v.3l6-3v-.3zm0 1v.3l6-3v-.3zm0 1v.3l6-3v-.3zm0 1v.3l6-3v-.3z"/><path opacity=".5" fill="#2d3134" d="M1019.5-394.7v.5l1 .5v-.5z"/><path opacity=".5" fill="#fff" d="M1020.5-393.5l-1-.5v-.2l1 .5z"/><path class="st1" d="M1033.5-399.1c-.1-.1-.2-.1-.3 0l-3.8 4.3c-.1.1-.1.2 0 .3s.2.1.3 0l1-1.2v1h.3v-1.3l2.5-2.9c.1 0 .1-.2 0-.2zm3.6-2c-.1-.1-.2-.1-.3 0l-3.8 4.3c-.1.1-.1.2 0 .3s.2.1.3 0l.9-1v1.1h.3v-1.4l2.6-3c.1-.1.1-.2 0-.3z"/><path class="st12" d="M1038-392l2-1v-2l-1 .5c-.6.3-1 .9-1 1.6v.9z"/><ellipse transform="rotate(-39.144 1038.715 -393.422)" class="st15" cx="1038.8" cy="-393.4" rx=".5" ry="-.8"/><ellipse transform="rotate(-39.144 1039.215 -393.422)" class="st15" cx="1039.3" cy="-393.4" rx=".5" ry="-.8"/><path class="st16" d="M1038-392l2-1v-2z"/><path class="st12" d="M1026-386l2-1v-.9c0-.5-.5-.8-1-.6l-1 .5v2z"/><ellipse transform="rotate(-39.144 1027.215 -387.423)" class="st15" cx="1027.3" cy="-387.4" rx=".5" ry="-.8"/><ellipse transform="rotate(-39.144 1026.715 -387.423)" class="st15" cx="1026.8" cy="-387.4" rx=".5" ry="-.8"/><path class="st16" d="M1026-386l2-1-2-1z"/><path class="st5" d="M1024-398l-6-3v11.3c0 .3.4.5.7.3 1.2-1 3.3-.3 4.8 1.5.3.3.5.6.6 1l-.1-.1v2l2 1v-8l-2-6z"/><path class="st2" d="M1038-405l-14 7 2 6v8l14-7v-8z"/></g></g></svg>