<svg xmlns="http://www.w3.org/2000/svg" width="61" height="50.8"><style>.st0{opacity:.3;enable-background:new}.st1{fill:#2d3134}.st2{opacity:6.000000e-02;enable-background:new}.st3{fill:#999}.st4,.st5{opacity:.15;enable-background:new}.st5{opacity:.39}.st8{fill:#fc0}.st10,.st9{enable-background:new}.st9{opacity:.11}.st10{opacity:.29}.st11{fill:#e5e5e5}.st12{fill:#39c}.st13{fill:#fff}.st16,.st17{opacity:.3;fill:#2d3134;enable-background:new}.st17{fill:#fff}</style><g id="i1189_1_"><path class="st0" d="M1011-420.7l13.1-7.5 47.9 24-14 7z" transform="matrix(-1 0 0 1 1072 448)"/><path class="st1" d="M1013.3-424v3.8l2.5-1.3v-3.7z" transform="matrix(-1 0 0 1 1072 448)"/><path class="st2" d="M1013.3-424v3.8l2.5-1.3v-3.7z" transform="matrix(-1 0 0 1 1072 448)"/><path class="st1" d="M1017.7-424.4c-.7-.4-1.4-.4-1.9-.2l-1.4.7c-.5.2-.9.8-.9 1.6 0 1.5 1.3 3.4 2.8 4.2.8.4 1.5.4 2 .2 0 0 1.4-.7 1.5-.8.5-.3.7-.8.7-1.5 0-1.5-1.3-3.4-2.8-4.2z" transform="matrix(-1 0 0 1 1072 448)"/><path class="st2" d="M1018.3-417.9c.2-.1 1.4-.7 1.5-.7.5-.3.7-.8.7-1.5 0-.6-.2-1.3-.5-1.9l-1.4.7c.3.6.5 1.3.5 1.9 0 .7-.3 1.2-.8 1.5z" transform="matrix(-1 0 0 1 1072 448)"/><path class="st3" d="M1018.4-419.8c0 1.2-.9 1.6-2.1 1-1.2-.6-2.1-2-2.1-3.2s.9-1.6 2.1-1 2.1 2 2.1 3.2z" transform="matrix(-1 0 0 1 1072 448)"/><path class="st4" d="M1016.5-418.9c-1.2-.6-2.1-2-2.1-3.2 0-.6.2-1 .6-1.2-.5.1-.8.6-.8 1.2 0 1.2.9 2.6 2.1 3.2.6.3 1.1.3 1.5.1-.4.2-.8.2-1.3-.1z" transform="matrix(-1 0 0 1 1072 448)"/><path class="st1" d="M1017.4-420.5c0 .5-.4.7-.9.4-.5-.2-.9-.8-.9-1.3s.4-.7.9-.4c.5.2.9.8.9 1.3z" transform="matrix(-1 0 0 1 1072 448)"/><path class="st2" d="M1017.4-420.5c0 .5-.4.7-.9.4-.5-.2-.9-.8-.9-1.3s.4-.7.9-.4c.5.2.9.8.9 1.3z" transform="matrix(-1 0 0 1 1072 448)"/><path class="st1" d="M1017.2-420.5c0 .5-.4.7-.9.4-.5-.3-.9-.8-.9-1.3s.4-.7.9-.4c.5.3.9.9.9 1.3z" transform="matrix(-1 0 0 1 1072 448)"/><path class="st5" d="M1019.1-419.5c0 1.5-1.3 2.2-2.8 1.4-1.5-.8-2.8-2.7-2.8-4.2s1.3-2.2 2.8-1.4c1.5.8 2.8 2.7 2.8 4.2z" transform="matrix(-1 0 0 1 1072 448)"/><path fill="#06547a" d="M1025-448l-14 7v15.3l38 19 14-7v-15.2z" transform="matrix(-1 0 0 1 1072 448)"/><path class="st1" d="M1063-414.9v2l-14 7v-2zm-52-12.1v2l38 19.1v-2z" transform="matrix(-1 0 0 1 1072 448)"/><path class="st5" d="M1011-441v16l38 19.1v-16z" transform="matrix(-1 0 0 1 1072 448)"/><path class="st2" d="M1012-439.4v12.9l12.9-6.4z" transform="matrix(-1 0 0 1 1072 448)"/><path class="st1" d="M1048-421.3l-23.1-11.6-12.9 6.4 36 18.1z" transform="matrix(-1 0 0 1 1072 448)"/><path class="st2" d="M1063-428.9v16l-14 7v-16z" transform="matrix(-1 0 0 1 1072 448)"/><path d="M1024.8-432.5l-12-6v12.4l12 6zm14 7l-12-6v12.4l12 6z" transform="matrix(-1 0 0 1 1072 448)" fill="none"/><path class="st8" d="M1012.8-432.3v6l6.6 3.3 1-.5v-11.6l-1-.5z" transform="matrix(-1 0 0 1 1072 448)"/><path class="st9" d="M1020.4-429.5l-1 .5v6l1-.5z" transform="matrix(-1 0 0 1 1072 448)"/><path class="st0" d="M1020.4-433.7l-5.2 2.6v2.9l1.8.9v-2.9l3.4-1.7z" transform="matrix(-1 0 0 1 1072 448)"/><path class="st10" d="M1019.4-423l-6.6-3.3v-6l6.6 3.3z" transform="matrix(-1 0 0 1 1072 448)"/><path class="st8" d="M1019.8-428.8v6l6.6 3.3 1-.5v-11.6l-1-.5z" transform="matrix(-1 0 0 1 1072 448)"/><path class="st9" d="M1027.4-426l-1 .5v6l1-.5z" transform="matrix(-1 0 0 1 1072 448)"/><path class="st0" d="M1027.4-430.2l-5.2 2.6v2.9l1.8.9v-2.9l3.4-1.7z" transform="matrix(-1 0 0 1 1072 448)"/><path class="st10" d="M1026.4-419.5l-6.6-3.3v-6l6.6 3.3z" transform="matrix(-1 0 0 1 1072 448)"/><path class="st8" d="M1013.1-438.8l-.3.1v6l6.6 3.3 6.3-3.1z" transform="matrix(-1 0 0 1 1072 448)"/><path class="st9" d="M1019.7-435.5l-.3.1v6l6.3-3.1z" transform="matrix(-1 0 0 1 1072 448)"/><path class="st0" d="M1015.5-437.6l-.3.1v2.9l1.8.9v-2.9l.3-.1z" transform="matrix(-1 0 0 1 1072 448)"/><path class="st10" d="M1019.4-429.4l-6.6-3.3v-6l6.6 3.3z" transform="matrix(-1 0 0 1 1072 448)"/><path class="st8" d="M1020.1-435.3l-.3.1v6l6.6 3.3 6.3-3.1z" transform="matrix(-1 0 0 1 1072 448)"/><path class="st9" d="M1026.7-432l-.3.1v6l6.3-3.1z" transform="matrix(-1 0 0 1 1072 448)"/><path class="st0" d="M1022.5-434.1l-.3.1v2.9l1.8.9v-2.9l.3-.1z" transform="matrix(-1 0 0 1 1072 448)"/><path class="st10" d="M1026.4-425.9l-6.6-3.3v-6l6.6 3.3z" transform="matrix(-1 0 0 1 1072 448)"/><path class="st8" d="M1026.8-425.3v6l6.6 3.3 1-.5v-11.6l-1-.5z" transform="matrix(-1 0 0 1 1072 448)"/><path class="st9" d="M1034.4-422.5l-1 .5v6l1-.5z" transform="matrix(-1 0 0 1 1072 448)"/><path class="st0" d="M1034.4-426.7l-5.2 2.6v2.9l1.8.9v-2.9l3.4-1.7z" transform="matrix(-1 0 0 1 1072 448)"/><path class="st10" d="M1033.4-416l-6.6-3.3v-6l6.6 3.3z" transform="matrix(-1 0 0 1 1072 448)"/><path class="st8" d="M1027.1-431.8l-.3.1v6l6.6 3.3 6.3-3.1z" transform="matrix(-1 0 0 1 1072 448)"/><path class="st9" d="M1033.7-428.5l-.3.1v6l6.3-3.1z" transform="matrix(-1 0 0 1 1072 448)"/><path class="st0" d="M1029.5-430.6l-.3.1v2.9l1.8.9v-2.9l.3-.1z" transform="matrix(-1 0 0 1 1072 448)"/><path class="st10" d="M1033.4-422.4l-6.6-3.3v-6l6.6 3.3z" transform="matrix(-1 0 0 1 1072 448)"/><path class="st8" d="M1033.8-421.8v6l6.6 3.3 1-.5v-11.6l-1-.5z" transform="matrix(-1 0 0 1 1072 448)"/><path class="st9" d="M1041.4-419l-1 .5v6l1-.5z" transform="matrix(-1 0 0 1 1072 448)"/><path class="st0" d="M1041.4-423.2l-5.2 2.6v2.9l1.8.9v-2.9l3.4-1.7z" transform="matrix(-1 0 0 1 1072 448)"/><path class="st10" d="M1040.4-412.5l-6.6-3.3v-6l6.6 3.3z" transform="matrix(-1 0 0 1 1072 448)"/><path class="st8" d="M1034.2-428.3l-.3.1v6l6.6 3.3 6.3-3.1z" transform="matrix(-1 0 0 1 1072 448)"/><path class="st9" d="M1040.8-425l-.3.1v6l6.3-3.1z" transform="matrix(-1 0 0 1 1072 448)"/><path class="st0" d="M1036.6-427.1l-.3.1v2.9l1.8.9v-2.9l.3-.1z" transform="matrix(-1 0 0 1 1072 448)"/><path class="st10" d="M1040.5-418.9l-6.6-3.3v-6l6.6 3.3z" transform="matrix(-1 0 0 1 1072 448)"/><path class="st8" d="M1040.8-418.3v6l6.6 3.3.6-.3v-12l-.6-.3z" transform="matrix(-1 0 0 1 1072 448)"/><path class="st9" d="M1048-415.3l-.6.3v6l.6-.3z" transform="matrix(-1 0 0 1 1072 448)"/><path class="st0" d="M1048-419.5l-4.8 2.4v2.9l1.8.9v-2.9l3-1.5z" transform="matrix(-1 0 0 1 1072 448)"/><path class="st10" d="M1047.4-409l-6.6-3.3v-6l6.6 3.3z" transform="matrix(-1 0 0 1 1072 448)"/><path class="st8" d="M1048-421.4l-6.9-3.4-.3.1v6l6.6 3.3.6-.3z" transform="matrix(-1 0 0 1 1072 448)"/><path class="st0" d="M1043.5-423.6l-.3.1v2.9l1.8.9v-2.9l.3-.1z" transform="matrix(-1 0 0 1 1072 448)"/><path class="st10" d="M1047.4-415.4l-6.6-3.3v-6l6.6 3.3z" transform="matrix(-1 0 0 1 1072 448)"/><path class="st9" d="M1048-421.4l-.3-.1-.3.1v6l.6-.3z" transform="matrix(-1 0 0 1 1072 448)"/><g transform="matrix(-1 0 0 1 1072 448)"><path class="st1" d="M1054.2-406.1c-.7-.4-1.4-.4-1.9-.2l-1.4.7c-.6.2-.9.8-.9 1.6 0 1.5 1.3 3.4 2.8 4.2.8.4 1.5.4 2 .2 0 0 1.4-.7 1.5-.8.5-.3.7-.8.7-1.5 0-1.6-1.3-3.5-2.8-4.2z"/><path class="st2" d="M1054.8-399.7c.2-.1 1.4-.7 1.5-.7.5-.3.7-.8.7-1.5 0-.6-.2-1.3-.5-1.9l-1.4.7c.3.6.5 1.3.5 1.9 0 .7-.3 1.3-.8 1.5z"/><path class="st3" d="M1054.9-401.6c0 1.2-.9 1.6-2.1 1-1.2-.6-2.1-2-2.1-3.2 0-1.2.9-1.6 2.1-1 1.2.6 2.1 2 2.1 3.2z"/><path class="st4" d="M1053-400.6c-1.2-.6-2.1-2-2.1-3.2 0-.6.2-1 .6-1.2-.5.1-.8.6-.8 1.2 0 1.2.9 2.6 2.1 3.2.6.3 1.1.3 1.5.1-.4.2-.8.1-1.3-.1z"/><path class="st1" d="M1053.8-402.3c0 .5-.4.7-.9.4-.5-.2-.9-.8-.9-1.3s.4-.7.9-.4c.6.2.9.8.9 1.3z"/><path class="st2" d="M1053.8-402.3c0 .5-.4.7-.9.4-.5-.2-.9-.8-.9-1.3s.4-.7.9-.4c.6.2.9.8.9 1.3z"/><path class="st1" d="M1053.7-402.2c0 .5-.4.7-.9.4-.5-.2-.9-.8-.9-1.3s.4-.7.9-.4c.5.2.9.8.9 1.3z"/><path class="st5" d="M1055.6-401.2c0 1.5-1.3 2.2-2.8 1.4-1.5-.8-2.8-2.7-2.8-4.2s1.3-2.2 2.8-1.4c1.5.8 2.8 2.6 2.8 4.2z"/><path class="st11" d="M1070-421l-6-3-14 7v11.3c0 .3.4.5.7.3 1.2-1 3.3-.3 4.8 1.5.9 1.1 1.3 2.3 1.3 3.3l1.2.6 14-7v-8l-2-6z"/><path class="st12" d="M1058.4-408.5l-1.7-5c-.1-.2 0-.3.2-.4l12.5-6.2c.2-.1.4 0 .5.2l1.6 4.7c.1.2 0 .3-.2.4l-12.4 6.5c-.2.1-.5 0-.5-.2z"/><path class="st4" d="M1060.7-415.8l8.6-4.3c.2-.1.4 0 .5.2l1.5 4.4-10.6-.3z"/><path class="st1" d="M1071.4-415.2l-.1-.3c0 .2 0 .3-.2.4l-12.4 6.5c-.2.1-.4 0-.5-.2l.1.3c.1.2.3.3.5.2l12.4-6.5c.2-.1.3-.2.2-.4z"/><path class="st13" d="M1061.5-409l7-3.5v5.8l-7 3.5z"/><path class="st1" d="M1062-404l6-3v-4.7l-6 3z"/><path class="st1" d="M1072-407v-2l-14 7v2zm-16 6l2 1v-2l-2-1z"/><path class="st13" d="M1062-404v1l6-3v-1z"/><path class="st12" d="M1055.5-413.7l-3.8-1.9c-.1-.1-.3 0-.3.2v3c0 .2.1.4.3.4l1.3.7c.1.1.2.1.3.2l1.3 1.6h.1l2.2 1.1c.1.1.3-.1.2-.2l-1.7-5c.2 0 .2-.1.1-.1z"/><path class="st4" d="M1057.3-408.7l-2-1h-.1l-1.3-1.6c-.1-.1-.2-.2-.3-.2l-1.3-.7c-.2-.1-.3-.2-.3-.4v-2.9l-.2-.1c-.1-.1-.3 0-.3.2v3c0 .2.1.4.3.4l1.3.7c.1.1.2.1.3.2l1.3 1.6h.1l2.2 1.1c.2.1.3 0 .3-.3z"/><path class="st8" d="M1058-404v2l-.5-.2v-2z"/><path class="st11" d="M1062-408v.3l6-3v-.3zm0 1v.3l6-3v-.3zm0 1v.3l6-3v-.3zm0 1v.3l6-3v-.3z"/><path opacity=".5" fill="#2d3134" d="M1051.5-410.7v.5l1 .5v-.5z"/><path opacity=".5" fill="#fff" d="M1052.5-409.5l-1-.5v-.2l1 .5z"/><path class="st1" d="M1065.5-415.1c-.1-.1-.2-.1-.3 0l-3.8 4.3c-.1.1-.1.2 0 .3s.2.1.3 0l1-1.2v1h.3v-1.3l2.5-2.9c.1 0 .1-.2 0-.2zm3.6-2c-.1-.1-.2-.1-.3 0l-3.8 4.3c-.1.1-.1.2 0 .3s.2.1.3 0l.9-1v1.1h.3v-1.4l2.6-3c.1-.1.1-.2 0-.3z"/><path class="st13" d="M1070-408l2-1v-2l-1 .5c-.6.3-1 .9-1 1.6v.9z"/><ellipse transform="rotate(-39.144 1070.713 -409.421)" class="st16" cx="1070.8" cy="-409.4" rx=".5" ry="-.8"/><ellipse transform="rotate(-39.144 1071.213 -409.421)" class="st16" cx="1071.3" cy="-409.4" rx=".5" ry="-.8"/><path class="st17" d="M1070-408l2-1v-2z"/><path class="st13" d="M1058-402l2-1v-.9c0-.5-.5-.8-1-.6l-1 .5v2z"/><ellipse transform="rotate(-39.144 1059.214 -403.422)" class="st16" cx="1059.3" cy="-403.4" rx=".5" ry="-.8"/><ellipse transform="rotate(-39.144 1058.714 -403.422)" class="st16" cx="1058.8" cy="-403.4" rx=".5" ry="-.8"/><path class="st17" d="M1058-402l2-1-2-1z"/><path class="st5" d="M1056-414l-6-3v11.3c0 .3.4.5.7.3 1.2-1 3.3-.3 4.8 1.5.3.3.5.6.6 1l-.1-.1v2l2 1v-8l-2-6z"/><path class="st2" d="M1070-421l-14 7 2 6v8l14-7v-8z"/></g></g></svg>