<svg xmlns="http://www.w3.org/2000/svg" width="90.8" height="99"><style>.st0{opacity:.3;enable-background:new}.st1{fill:#825012}.st2{fill:#539b00}.st3{opacity:.2;fill:#fff;enable-background:new}</style><g transform="translate(736 544)" id="i2168_1_"><ellipse class="st0" cx="-722.5" cy="-489" rx="7.5" ry="4"/><path class="st1" d="M-724-516v27c0 .6.7 1 1.5 1s1.5-.4 1.5-1v-27h-3z"/><circle class="st2" cx="-729.5" cy="-520.5" r="6.5"/><circle class="st2" cx="-725" cy="-529" r="9"/><path class="st1" d="M-722-500.6c2.6 0 3-.9 3-3.4v-8h1v10c0 1.7-1.3 3-3 3h-1v-1.6zm0-.6c-1.7 0-3-.4-3-2.1v-9.7h-1v10c0 1.7 1.3 3 3 3h1v-1.2zm-2-21c-1.7 0-3-.4-3-2.1v-2.7h-1v3c0 1.7 1.3 3 3 3h1v-1.2z"/><circle class="st2" cx="-717.5" cy="-513.5" r="7.5"/><circle class="st2" cx="-713" cy="-517" r="6"/><path class="st1" d="M-718-514.2c1.7 0 3-.4 3-2.1v-2.7h1v3c0 1.7-1.3 3-3 3h-1v-1.2zm-7-15.4h1v9.6h-1z"/><circle class="st2" cx="-716" cy="-527" r="8"/><circle class="st2" cx="-721" cy="-536" r="8"/><path class="st3" d="M-720.5-528c2.2 0 4.1 1.3 4.9 3.1.3-.1.7-.1 1.1-.1 1.8 0 3.4.9 4.4 2.2-.4-1.8-2-3.2-3.9-3.2h-.1c-.5-2.3-2.5-4-4.9-4-2 0-3.7 1.2-4.5 2.9.8-.6 1.9-.9 3-.9z"/><circle class="st2" cx="-730" cy="-528.6" r="3.6"/><path class="st3" d="M-730-528.5c0-2.5 1.7-4.6 4-5.3.2-2.9 2.6-5.2 5.5-5.2 1.7 0 3.3.8 4.3 2.1-.6-2.4-2.8-4.1-5.3-4.1-2.9 0-5.3 2.2-5.5 5.1-2.3.5-4 2.5-4 4.9 0 1.1.4 2.2 1 3v-.5z"/><circle class="st2" cx="-724.7" cy="-513.2" r="9.3"/><circle class="st2" cx="-712.7" cy="-519.2" r="3.3"/><path class="st0" d="M-707-517c0-.4 0-.8-.1-1.2-.6 3.8-3.9 6.7-7.9 6.7h-.4c.7.3 1.6.5 2.4.5.7 0 1.3-.1 1.9-.3-1.4 1.4-3.3 2.3-5.4 2.3-1 0-2-.2-2.9-.6-1.6 1.6-3.9 2.6-6.3 2.6-3.5 0-6.6-2-8.1-4.8.7 4.4 4.5 7.8 9.1 7.8 2.2 0 4.3-.8 5.9-2.1.4.1.8.1 1.3.1 3.5 0 6.5-2.4 7.3-5.7 1.9-1 3.2-3 3.2-5.3z"/><path class="st3" d="M-727.5-518c.8 0 1.5.1 2.2.4.9-1.4 2.5-2.4 4.3-2.4 1 0 1.9.3 2.7.8-.7-1.7-2.3-2.8-4.2-2.8-1.6 0-3 .8-3.8 2h-.7c-2.9 0-5.4 2.1-5.9 4.9 1.2-1.8 3.2-2.9 5.4-2.9z"/><path class="st0" d="M-732-517.5c-1.9-.8-3.4-2.4-3.9-4.5 0 .5-.1 1-.1 1.5 0 2.4 1.3 4.4 3.2 5.6.1-.9.4-1.8.8-2.6z"/></g><g transform="translate(776 600)" id="i2169_1_"><ellipse class="st0" cx="-722.5" cy="-505" rx="5.6" ry="3"/><path class="st1" d="M-722-518c.6 0 1 .4 1 1v12c0 .6-.4 1-1 1s-1-.4-1-1v-12c0-.6.4-1 1-1z"/><path class="st2" d="M-720.5-508c-1.4 0-2.5-1.1-2.5-2.5v-16c0-1.4 1.1-2.5 2.5-2.5s2.5 1.1 2.5 2.5v16c0 1.4-1.1 2.5-2.5 2.5z"/><path class="st2" d="M-717.5-513c-1.4 0-2.5-1.1-2.5-2.5v-16c0-1.4 1.1-2.5 2.5-2.5s2.5 1.1 2.5 2.5v16c0 1.4-1.1 2.5-2.5 2.5z"/><path class="st2" d="M-718.5-516c-1.4 0-2.5-1.1-2.5-2.5v-16c0-1.4 1.1-2.5 2.5-2.5s2.5 1.1 2.5 2.5v16c0 1.4-1.1 2.5-2.5 2.5z"/><path class="st2" d="M-720.8-543c-1.3.1-2.2 1.3-2.2 2.6 0 .3-.2.5-.5.4-.5-.1-1-.1-1.6.2-1.2.5-1.9 1.8-1.9 3.1v1.3c0 .2-.2.4-.4.4s-.4 0-.6.1c-1.2.2-2 1.3-2 2.5v15.8c0 .8.4 1.6 1 2.1s1 1.3 1 2.1v.9c0 1.4 1.1 2.5 2.5 2.5h1c1.4 0 2.5-1.1 2.5-2.5v-5.1c.6-.6 1-1.5 1-2.4v-8.1c.3.1.6.1 1 0 1.2-.2 2-1.4 2-2.6v-10.9c0-1.4-1.3-2.6-2.8-2.4z"/><path class="st2" d="M-722-516.6c.6-.6 1-1.5 1-2.4v-2c0 .9-.4 1.8-1 2.4v2z"/><path d="M-720.5-510c-1.1 0-2-.7-2.3-1.6-.4.4-1 .6-1.7.6h-1c-1.4 0-2.5-1.1-2.5-2.5v2c0 1.4 1.1 2.5 2.5 2.5h1c.6 0 1.2-.2 1.7-.6.4 1 1.3 1.6 2.3 1.6 1.4 0 2.5-1.1 2.5-2.5v-2c0 1.4-1.1 2.5-2.5 2.5zm3-5c-.2 0-.3 0-.5-.1v2c.2 0 .3.1.5.1 1.4 0 2.5-1.1 2.5-2.5v-2c0 1.4-1.1 2.5-2.5 2.5zm-3-4h-1c-.5.6-1.2 1-2 1-1.4 0-2.5-1.1-2.5-2.5v2c0 1.4 1.1 2.5 2.5 2.5.8 0 1.5-.4 2-1h1c1.4 0 2.5-1.1 2.5-2.5v-2c0 1.4-1.1 2.5-2.5 2.5zm0-8c-.2 0-.3 0-.5-.1v2c.2 0 .3.1.5.1 1.4 0 2.5-1.1 2.5-2.5v-2c0 1.4-1.1 2.5-2.5 2.5z"/><path class="st3" d="M-721-538c-1.1 0-2 .9-2 2v.3h-1.2c-1.1 0-2 .9-2 2v1.4c-.9.2-1.6 1-1.6 2v2c0-1 .7-1.8 1.6-2v-1.4c0-1.1.9-2 2-2h1.2v-.3c0-1.1.9-2 2-2s2 .9 2 2v-2c0-1.1-.9-2-2-2z"/><path class="st0" d="M-728-513.5v-.9c0-.8-.3-1.6-1-2.1-.6-.5-1-1.3-1-2.1v2c0 .8.4 1.6 1 2.1s1 1.3 1 2.1v-1.1z"/></g><g transform="translate(752 600)" id="i2170_1_"><ellipse class="st0" cx="-722.5" cy="-527" rx="6.5" ry="2"/><path class="st1" d="M-724-530h3v4h-3z"/><circle class="st2" cx="-717" cy="-531.9" r="3.8"/><circle class="st2" cx="-719.1" cy="-536.9" r="5.3"/><circle class="st2" cx="-724.4" cy="-533.4" r="5.3"/><circle class="st2" cx="-727.3" cy="-535.8" r="3.5"/><path class="st1" d="M-724.9-538.9c-1 0-1.8-.3-1.8-1.2v-1.5h-.6v1.8c0 1 .8 1.8 1.8 1.8h.6v-.9z"/><circle class="st2" cx="-725.1" cy="-532.1" r="5.7"/><path class="st0" d="M-725.1-527.8c-2.9 0-5.3-2.2-5.7-5v.7c0 3.2 2.6 5.7 5.7 5.7s5.7-2.6 5.7-5.7v-.7c-.4 2.8-2.8 5-5.7 5z"/><circle class="st2" cx="-723.2" cy="-539.3" r="4.7"/><circle class="st2" cx="-719.4" cy="-540.8" r="2.6"/><path class="st3" d="M-727.8-536.9c1.3 0 2.4.7 2.9 1.8.2 0 .4-.1.6-.1 1.1 0 2 .5 2.6 1.3-.2-1.1-1.2-1.9-2.3-1.9h-.1c-.3-1.3-1.5-2.4-2.9-2.4-1.2 0-2.2.7-2.7 1.7.6-.2 1.2-.4 1.9-.4z"/><path class="st1" d="M-723.2-538.5c.1.1.3.2.4.3h.2v-1.7c-.2 0-.4 0-.6-.1v1.5z"/><path class="st3" d="M-722.9-541.6c1.4 0 2.5 1.1 2.6 2.5.3-.1.6-.1.9-.1 1.5 0 2.7 1 3.1 2.3.1-.3.1-.5.1-.8 0-1.5-1.2-2.6-2.6-2.6-.3 0-.6.1-.9.2-.1-1.1-1-1.9-2-1.9-.6 0-1.1.2-1.5.6.1-.2.2-.2.3-.2z"/><path class="st0" d="M-713.8-536.1c-1 1.1-2.4 1.8-4 1.8h-.4c.6.6.9 1.4 1 2.3 1.8-.6 3.1-2.2 3.4-4.1zm-1.5 6c.2.4.3.9.3 1.4 1-.6 1.7-1.7 1.8-2.9-.5.7-1.2 1.3-2.1 1.5z"/><circle class="st2" cx="-719.8" cy="-531.8" r="5.4"/><path class="st3" d="M-722-533.4c.7 0 1.4.2 1.9.5.7-.7 1.7-1.1 2.8-1.1.9 0 1.8.3 2.5.8-.6-1.2-1.9-2-3.4-2-1 0-1.8.3-2.5.9-.4-.2-.9-.3-1.3-.3-1.4 0-2.6 1-2.9 2.4.8-.8 1.8-1.2 2.9-1.2z"/><path class="st0" d="M-719.2-527.5c-2.2 0-4.1-1.2-5.2-3-.2 0-.2 4.1 4.6 4.1 2.1 0 3.9-1.2 4.8-2.9-1.1 1.1-2.6 1.8-4.2 1.8z"/><path class="st1" d="M-720-536.6c0 1-.9 1.2-2 1.2v.4h.6c1 0 1.4-.4 1.4-1.4v-1.2 1z"/></g><g transform="translate(792 560)" id="i2171_1_"><ellipse class="st0" cx="-721.5" cy="-489" rx="7.5" ry="4"/><path class="st1" d="M-720-513v24c0 .6-.7 1-1.5 1s-1.5-.4-1.5-1v-24h3z"/><circle class="st2" cx="-712.5" cy="-514.5" r="6.5"/><circle class="st2" cx="-716" cy="-523" r="9"/><path class="st1" d="M-722-500.6c-2.6 0-3-.9-3-3.4v-8h-1v10c0 1.7 1.3 3 3 3h1v-1.6zm1 1.4c1.7 0 3-.4 3-2.1v-9.7h1v10c0 1.7-1.3 3-3 3h-1v-1.2z"/><path class="st1" d="M-725-502.2c-1.7 0-2-1.3-2-2.1v-9.7h-1v10c0 1.7 1.3 3 3 3v-1.2z"/><circle class="st2" cx="-726" cy="-513" r="9"/><circle class="st2" cx="-731" cy="-517" r="6"/><path class="st1" d="M-726-513.2c-1.7 0-3-.4-3-2.1v-2.7h-1v3c0 1.7 1.3 3 3 3h1v-1.2z"/><circle class="st2" cx="-727" cy="-525" r="8"/><circle class="st2" cx="-723" cy="-529" r="8"/><circle class="st2" cx="-716.5" cy="-531.5" r="4.5"/><path class="st3" d="M-730.9-523c2.2 0 4.1 1.3 4.9 3.1.3-.1.7-.1 1.1-.1 1.8 0 3.4.9 4.4 2.2-.4-1.8-2-3.2-3.9-3.2h-.1c-.5-2.3-2.5-4-4.9-4-2 0-3.7 1.2-4.5 2.9.8-.6 1.9-.9 3-.9z"/><path class="st1" d="M-723-525.6c.2.2.5.4.7.6h.3v-3c-.3 0-.7-.1-1-.2v2.6z"/><path class="st3" d="M-722.5-533c2.4 0 4.3 1.9 4.5 4.2.5-.1 1-.2 1.5-.2 2.5 0 4.6 1.6 5.3 3.9.1-.4.2-.9.2-1.4 0-2.5-2-4.5-4.5-4.5-.5 0-1 .1-1.5.3-.1-1.8-1.6-3.3-3.5-3.3-1 0-1.9.4-2.5 1h.5z"/><path class="st0" d="M-707.1-521.6c-1.7 1.9-4.1 3.1-6.8 3.1h-.6c1 1.1 1.6 2.4 1.7 3.9 2.9-1.1 5.2-3.8 5.7-7zm-2.4 10.3c.3.7.4 1.5.5 2.3 1.7-1.1 2.9-2.9 3-5-.8 1.3-2.1 2.2-3.5 2.7zm-21.8-11.7c-1.6-1.4-2.7-3.5-2.7-5.9-.6 1.1-1 2.5-1 3.9 0 1.1.2 2.1.6 3.1.9-.7 2-1 3.1-1.1z"/><path class="st1" d="M-716-521.4c0 1.7-1.3 2.1-3 2.1v1.3h1c1.7 0 3-1.3 3-3v-2c-.3 0-.7-.1-1-.2v1.8z"/><circle class="st2" cx="-718.2" cy="-510.2" r="9.3"/><path class="st3" d="M-722-513c1.2 0 2.3.3 3.3.8 1.2-1.1 2.9-1.8 4.7-1.8 1.6 0 3.1.5 4.2 1.4-1.1-2-3.3-3.4-5.7-3.4-1.6 0-3.1.6-4.2 1.6-.7-.4-1.5-.6-2.3-.6-2.4 0-4.4 1.7-4.9 4 1.3-1.2 3-2 4.9-2z"/><path class="st0" d="M-717.2-503c-3.8 0-7-2-8.8-5h-.9c-3.5 0-6.5-2-8-4.9 0 4.9 4 8.9 8.9 8.9h.9c1.7 1.9 4.1 3 6.8 3 3.6 0 6.6-2 8.2-4.9-1.8 1.8-4.4 2.9-7.1 2.9z"/></g><g transform="translate(752 616)" id="i2172_1_"><ellipse class="st0" cx="-722.5" cy="-527" rx="6.5" ry="2"/><path class="st1" d="M-724-530h3v4h-3z"/><circle class="st2" cx="-717" cy="-531.9" r="3.8"/><circle class="st2" cx="-719.1" cy="-536.9" r="5.3"/><circle class="st2" cx="-724.4" cy="-533.4" r="5.3"/><circle class="st2" cx="-727.3" cy="-535.8" r="3.5"/><path class="st1" d="M-724.9-538.9c-1 0-1.8-.3-1.8-1.2v-1.5h-.6v1.8c0 1 .8 1.8 1.8 1.8h.6v-.9z"/><circle class="st2" cx="-725.1" cy="-532.1" r="5.7"/><path class="st0" d="M-725.1-527.8c-2.9 0-5.3-2.2-5.7-5v.7c0 3.2 2.6 5.7 5.7 5.7s5.7-2.6 5.7-5.7v-.7c-.4 2.8-2.8 5-5.7 5z"/><circle class="st2" cx="-723.2" cy="-539.3" r="4.7"/><circle class="st2" cx="-719.4" cy="-540.8" r="2.6"/><path class="st3" d="M-727.8-536.9c1.3 0 2.4.7 2.9 1.8.2 0 .4-.1.6-.1 1.1 0 2 .5 2.6 1.3-.2-1.1-1.2-1.9-2.3-1.9h-.1c-.3-1.3-1.5-2.4-2.9-2.4-1.2 0-2.2.7-2.7 1.7.6-.2 1.2-.4 1.9-.4z"/><path class="st1" d="M-723.2-538.5c.1.1.3.2.4.3h.2v-1.7c-.2 0-.4 0-.6-.1v1.5z"/><path class="st3" d="M-722.9-541.6c1.4 0 2.5 1.1 2.6 2.5.3-.1.6-.1.9-.1 1.5 0 2.7 1 3.1 2.3.1-.3.1-.5.1-.8 0-1.5-1.2-2.6-2.6-2.6-.3 0-.6.1-.9.2-.1-1.1-1-1.9-2-1.9-.6 0-1.1.2-1.5.6.1-.2.2-.2.3-.2z"/><path class="st0" d="M-713.8-536.1c-1 1.1-2.4 1.8-4 1.8h-.4c.6.6.9 1.4 1 2.3 1.8-.6 3.1-2.2 3.4-4.1zm-1.5 6c.2.4.3.9.3 1.4 1-.6 1.7-1.7 1.8-2.9-.5.7-1.2 1.3-2.1 1.5z"/><circle class="st2" cx="-719.8" cy="-531.8" r="5.4"/><path class="st3" d="M-722-533.4c.7 0 1.4.2 1.9.5.7-.7 1.7-1.1 2.8-1.1.9 0 1.8.3 2.5.8-.6-1.2-1.9-2-3.4-2-1 0-1.8.3-2.5.9-.4-.2-.9-.3-1.3-.3-1.4 0-2.6 1-2.9 2.4.8-.8 1.8-1.2 2.9-1.2z"/><path class="st0" d="M-719.2-527.5c-2.2 0-4.1-1.2-5.2-3-.2 0-.2 4.1 4.6 4.1 2.1 0 3.9-1.2 4.8-2.9-1.1 1.1-2.6 1.8-4.2 1.8z"/><path class="st1" d="M-720-536.6c0 1-.9 1.2-2 1.2v.4h.6c1 0 1.4-.4 1.4-1.4v-1.2 1z"/></g><g id="i2203_1_"><path class="st0" d="M-729.2-514.4l-5.2 1.9 3.7.2-2.3 1.5h5.4l3.2-.8-.5 2.6 3.3-.6 2.4-2 4.6 1.5 4.7-.7-1.5-.9 1.7-.4-6.9-1.9z" transform="translate(800 608)"/><path d="M-727-534.4c3.9-.5 5.8-8 5.8-8s.8 7.4 5.8 9.4c.1.7-1.7 1.3-3.3.6-.1 1.5 3.2 3.9 5.2 4.4.1.8-1.8 2-3.6 1.4.8 1.8 2.2 3.3 5.2 4.1-1.4.8-3.6.1-5 0 0 1.2 4.4 2.3 6.6 2.2-.4 1.1-2.5 2.3-4.4 2.2 0 1.3 4.3 2.4 5.5 2.8.1 1.1-3 1.8-5.2 1.1-.1 1.3 2.2 2.5 3.3 3 0 1-7.1.7-8.3-1.4-1.3.5-2.2 3.3-4.8 3.1.3-.7 1.1-3.1-.2-3.6-1 1.4-5.4 2.5-7.2 1.7.6-.6 3.2-1 2.4-2.6-2.3-.1-5.3-2.1-5.2-3 .6.4 4.3 1 4.4 0-1.7-.1-2.7-1.4-2.8-2.5.6.3 4.3.9 4.4-.3-1.3-.5-2.9-1.4-2.8-2.5 1.1.1 3.4.1 3.6-1.1-1.4-.5-2.7-2.5-2.8-3.3 1 .3 5 .1 5-.8-1.7-.1-3.2-.8-3-1.9 2.2-.2 4.7-2.5 4.7-3.6-.9.2-2.7-.1-3.3-1.4z" fill="#28896d" transform="translate(800 608)"/><path class="st3" d="M-711.9-522.6s-2.8.1-5.2-2.2c-2.4-2.3-3-3.9-3-3.9s-.6.8-2.5 1.9c-1.9 1.1-6.1 1.1-6.1 1.1s2.6 2 6.3.8c1.8-.6 1.7-1 1.7-1s2.6 2.2 3.6 2.6c3.7 1.5 5.2.7 5.2.7z" transform="translate(800 608)"/><path class="st3" d="M-727.3-529.2c3.3-1.8 5.4-3.2 6.1-6.1-.2 1.3 2.6 5 5.2 6.9-1.9-.2-4.4-3.4-5.5-3.3-.2 1-3.5 2.3-5.8 2.5z" transform="translate(800 608)"/><path class="st3" d="M-725.8-534.1c3.3-1.8 3.9-4.1 4.5-6.9-.2 1.3 1.5 5.5 4.1 7.4-1.9-.2-3.6-3-4.4-3.6-.1 1-1.9 2.9-4.2 3.1zm-4.9 12.3s4.1-.1 7.2-1.6c1-.1 2.3 2.9 3 3 .8-.2 1.2-.4 2-.9.7 2.8 5.7 5.3 8.5 6.1-5.2 0-8.8-3.4-9.4-4.4-.6.5-.8 1.9-1.9 1.9-.9-1.3-2.3-3.3-2.7-4.3-1-.2-5.1 1.1-6.7.2z" transform="translate(800 608)"/><path class="st3" d="M-733.1-516.2c5.8.6 7.9-2 8.9-3.1-.7 4-7.2 5.1-8.9 3.1zm15.3-.7c1.6 2.7 2.3 4.2 6 5.5-6.1.3-6.7-4.3-6-5.5zm-5.5 6.6c.3.2 3.9-5.5 1.3-6.5-1.5.8-.2 3.7-1.3 6.5z" transform="translate(800 608)"/><path class="st0" d="M-719.2-533.7l-1.5-1.2s1.2 1.5 2 2.4c1.6.8 3.4.1 3.3-.6 0 .1-2.3.6-3.8-.6zm1.9 20.8c-1.8-1.9-2.3-4.8-2.3-4.8s-1.1 3.8-2 5.6c-.6 1.1-1.1 2-2.5 2.4v.1c2.6.2 3.5-2.6 4.8-3.1 1.2 2.1 8.3 2.4 8.3 1.4 0 0-4.4.3-6.3-1.6zm3.2-6.6c-1.8-.1-4.4-3.5-4.4-3.5s-1.3.6-2 .1c-.8-.5-1.4-1.1-1.4-1.1s.7 3.2 1.7 3.1c1-.1 1.6-.4 2-.9.5 2.5 3.7 3.8 3.7 3.8 1.9.1 4-1.1 4.4-2.2-.1-.2-2.1.8-4 .7zm-11.3-8c.1 0 0 0 0 0 .5 0 1.1 0 1.6-.1 1.4-.2 3.8-1.5 3.8-1.5l-1.8.2.7-1.6s-2.1 1.7-4 2c-1.9.2-3.3-.9-3.3-.9-.1 1.1 1.3 1.7 3 1.9zm-3 7.7c-.1 1.2-3.8.6-4.4.3 2.7 1.8 7.8-.3 7.8-.3h-2.5l2.8-1.4s-6.3.4-6.5-1.2c-.1 1.2 1.5 2.1 2.8 2.6z" transform="translate(800 608)"/><path class="st0" d="M-725.8-518.5s-2 .6-3.3.6c-1.3 0-3.6-1.2-3.7-1.6.1 1 1.1 2.3 2.7 2.4 3.2.3 4.3-1.4 4.3-1.4zm2.5 5.9c0-1.1-.3-7.6-.3-7.6s-.1 3.9-3.6 7.2c-1.2 1.1-4.2 1.5-4.2 1.5 1.8.8 6.1-.2 7.2-1.7 1 .4.7 1.9.4 2.9.2-.6.5-1.6.5-2.3z" transform="translate(800 608)"/></g></svg>