<svg xmlns="http://www.w3.org/2000/svg" width="28" height="119"><style>.st0{fill:#e5e5e5}.st1,.st2{opacity:.11;enable-background:new}.st2{opacity:.29}</style><g id="i1470_1_"><path class="st0" d="M-572.6-290l-8 4v6l8 4 8-4v-6z" transform="matrix(1.75 0 0 1.75 1016 602)"/><path class="st1" d="M-580.6-286l8 4v6l-8-4z" transform="matrix(1.75 0 0 1.75 1016 602)"/><path class="st2" d="M-564.6-286v6l-8 4v-6z" transform="matrix(1.75 0 0 1.75 1016 602)"/><path class="st0" d="M-572.6-344l-6 6v52l6 3 6-3v-52z" transform="matrix(1.75 0 0 1.75 1016 602)"/><path class="st1" d="M-578.6-338l6 3v52l-6-3z" transform="matrix(1.75 0 0 1.75 1016 602)"/><path class="st2" d="M-566.6-338v52l-6 3v-52z" transform="matrix(1.75 0 0 1.75 1016 602)"/></g></svg>