<svg xmlns="http://www.w3.org/2000/svg" viewBox="0 0 501.1 502.7"><path d="M501.6 502.1H.5V.5h501.1v501.6zm-250-274.3h-5.8c-17 0-34.1 0-51.1-.1-3.7 0-3.7 0-3.7 3.7v43.9c0 4.3.1 8.6.8 12.9 1.1 7.4 3.4 14.3 7.2 20.7 10.1 16.7 24.6 27.1 44.2 30 10.6 1.6 20.9.2 30.8-3.8 9.8-3.9 17.9-10.2 24.5-18.3 8.3-10.3 13-22.2 13.3-35.5.3-14.1.1-28.1.1-42.2 0-3 .1-6.1 0-9.1 0-1.9-.3-2.2-2.3-2.2-1.2 0-2.4.1-3.6.1-18.1-.1-36.3-.1-54.4-.1zM334 411.4c-.1-.3-.2-.5-.4-.8h-40c-2.7 0-2.7-.1-2.7-2.7v-37.7c0-2.8-.1-3-3-3h-72.4c-3.6 0-3.6 0-3.6 3.5v37.7c0 1.8-.3 2.1-2.1 2.1h-38.7c-.7 0-1.6-.3-2.1.6 1.1 2 80 88.8 81.8 89.9 27.7-29.8 55.5-59.7 83.2-89.6zM291 91.9c1-.1 1.5-.2 2.1-.2h39.1c.6 0 1.1-.2 1.8-.3-1-2.1-81.8-89.1-84-90.4-.5.7-1.1 1.6-1.8 2.3-10.9 12.1-21.9 24.2-32.9 36.3-8.2 9.1-16.4 18.1-24.7 27.2-6.9 7.6-13.8 15.1-20.6 22.7-.4.5-.7 1.1-1.4 2.1 1.4.1 2.2.2 3.1.2h38.9c.8 0 1.3.5 1.4 1.3v38.2c0 3.7 0 3.7 3.7 3.7h72.2c3.2 0 3.2 0 3.2-3.2V95.1c-.1-1.1-.1-2.1-.1-3.2zM92 290.6h39.8c3.5 0 3.5 0 3.5-3.6v-72c0-3.5 0-3.5-3.4-3.5H94.5c-2.2 0-2.4-.1-2.4-2.3 0-2.2-.1-4.5-.1-6.7 0-10.6 0-21.1.1-31.7 0-.7-.1-1.5-.2-2.3-.5.1-.8 0-1 .2-29.5 26.7-59 53.5-88.5 80.3-.3.3-.6.7-.9 1.2.4.5.7.9 1.1 1.3l8.4 7.8c13.2 12.2 26.4 24.5 39.6 36.7 6.2 5.7 12.3 11.4 18.5 17.1 6.9 6.4 13.7 12.7 20.6 19.1.5.5 1.2.9 1.8 1.3l.6-.3v-21c-.1-6.9-.1-14-.1-21.6zm319 42.7c.2.1.5.2.7.3l1.8-1.5c4.7-4.3 9.4-8.7 14.1-13 16.2-15.1 32.5-30.1 48.7-45.2 7.9-7.3 15.9-14.7 23.8-22 1.6-1.5 1.6-1.9 0-3.4-.2-.2-.5-.4-.7-.7-10.7-9.7-21.4-19.4-32.2-29.2-14.3-12.9-28.5-25.9-42.8-38.8-3.6-3.3-7.2-6.6-10.8-9.8-.6-.5-1.1-1.4-2.4-1.2 0 .8-.1 1.6-.1 2.3v37.4c0 3 0 3-3.1 3h-37.4c-2.5 0-2.7.2-2.7 2.7v73.2c0 3.1.1 3.2 3.3 3.2h37.2c.9 0 1.7.1 2.8.2v28.5c-.2 4.7-.3 9.3-.2 14zM254.1 192.2v27.1c0 2.6.3 2.9 2.9 2.9h52.1c2.5 0 2.8-.3 2.8-2.7 0-6.2-.1-12.5-.1-18.7 0-3.7-.9-7.3-2.6-10.6-3.5-7-8.9-12.2-15.4-16.4-6-3.9-12.5-6.7-19.5-8.3-4.4-1-8.7-1.8-13.1-2.5-1.7-.3-3.5-.2-5.3-.3-1.2-.1-1.8.5-1.8 1.7v27.8zm-5.4.4v-27.4c0-2.3-.3-2.6-2.4-2.5-3.7.3-7.4.5-10.9 1.2-5.5 1.1-10.9 2.5-16.1 4.7-9.5 4-17.7 9.5-23.6 18.1-2.8 4-4.4 8.5-4.5 13.4-.1 6.5-.1 13-.1 19.4 0 2.5.2 2.8 2.7 2.8h52.1c2.7 0 2.9-.2 2.9-2.9-.1-8.9-.1-17.9-.1-26.8z" fill="#fff"/><path d="M251.6 227.8h54.5c1.2 0 2.4-.1 3.6-.1 2 0 2.3.2 2.3 2.2v9.1c0 14.1.2 28.2-.1 42.2-.3 13.3-4.9 25.1-13.3 35.5-6.6 8.2-14.7 14.4-24.5 18.3-9.9 4-20.1 5.4-30.8 3.8-19.6-3-34.1-13.3-44.2-30-3.8-6.3-6.1-13.3-7.2-20.7-.7-4.3-.8-8.6-.8-12.9-.1-14.6 0-29.3 0-43.9 0-3.7 0-3.7 3.7-3.7 17 0 34.1 0 51.1.1 1.8.1 3.8.1 5.7.1zM334 411.4c-27.7 29.9-55.5 59.8-83.1 89.7-1.8-1.1-80.7-87.9-81.8-89.9.5-1 1.4-.6 2.1-.6h38.7c1.8-.1 2.1-.3 2.1-2.1v-37.7c0-3.5 0-3.5 3.6-3.5H288c2.8.1 3 .2 3 3V408c0 2.6.1 2.7 2.7 2.7h40c.1.2.2.4.3.7zM291 91.9v39.7c0 3.2 0 3.2-3.2 3.2h-72.2c-3.7 0-3.7 0-3.7-3.7V92.9c0-.9-.5-1.3-1.4-1.3h-38.9c-.8 0-1.7-.1-3.1-.2.7-1 1-1.6 1.4-2.1 6.9-7.6 13.8-15.2 20.6-22.7 8.2-9.1 16.4-18.1 24.7-27.2 11-12.1 21.9-24.2 32.9-36.3.7-.8 1.3-1.6 1.8-2.3 2.2 1.3 83 88.3 84 90.4-.6.1-1.2.3-1.8.3H293c-.5.1-1 .3-2 .4zM92 290.6v42.7l-.6.3c-.6-.4-1.2-.8-1.8-1.3-6.9-6.4-13.7-12.7-20.6-19.1-6.2-5.7-12.3-11.4-18.5-17.1-13.2-12.2-26.4-24.5-39.6-36.7l-8.4-7.8c-.4-.4-.7-.8-1.1-1.3.3-.4.5-.9.9-1.2 29.5-26.8 59-53.5 88.5-80.3.1-.1.4-.1 1-.2.1.8.2 1.6.2 2.3 0 10.6 0 21.1-.1 31.7 0 2.2 0 4.5.1 6.7 0 2.1.2 2.3 2.4 2.3h37.4c3.4 0 3.4 0 3.4 3.5v72c0 3.6 0 3.6-3.5 3.6h-37c-.8-.1-1.5-.1-2.7-.1zm319 42.7c-.1-4.7 0-9.4 0-14v-28.5c-1.1-.1-2-.2-2.8-.2H371c-3.2 0-3.3 0-3.3-3.2v-73.2c0-2.5.2-2.7 2.7-2.7h37.4c3.1 0 3.1 0 3.1-3v-37.4c0-.8.1-1.5.1-2.3 1.3-.2 1.8.6 2.4 1.2 3.6 3.3 7.2 6.5 10.8 9.8 14.3 12.9 28.5 25.9 42.8 38.8 10.7 9.7 21.4 19.4 32.2 29.2.2.2.5.4.7.7 1.6 1.6 1.7 1.9 0 3.4-7.9 7.3-15.8 14.7-23.8 22-16.2 15.1-32.5 30.1-48.7 45.2-4.7 4.4-9.4 8.7-14.1 13l-1.8 1.5c-.1-.1-.3-.2-.5-.3zM254.1 192.2v-27.8c0-1.2.6-1.8 1.8-1.7 1.8.1 3.5 0 5.3.3 4.4.8 8.8 1.6 13.1 2.5 7 1.6 13.5 4.4 19.5 8.3 6.5 4.2 12 9.3 15.4 16.4 1.6 3.3 2.6 6.9 2.6 10.6 0 6.2.1 12.5.1 18.7 0 2.4-.3 2.7-2.8 2.7H257c-2.6 0-2.9-.3-2.9-2.9v-27.1zm-5.4.4v26.9c0 2.6-.2 2.9-2.9 2.9h-52.1c-2.5 0-2.7-.3-2.7-2.8 0-6.5 0-13 .1-19.4.1-4.9 1.8-9.4 4.5-13.4 5.9-8.6 14.2-14.1 23.6-18.1 5.2-2.2 10.6-3.6 16.1-4.7 3.6-.7 7.3-.9 10.9-1.2 2.2-.2 2.4.2 2.4 2.5.1 9 .1 18.2.1 27.3z"/></svg>