<svg xmlns="http://www.w3.org/2000/svg" width="322" height="180"><style>.st0{fill:#baa794}.st1,.st2{opacity:.11;enable-background:new}.st2{opacity:.29}.st3{fill:#2d3134}.st4{fill:#762c07}.st5{opacity:.2}.st6{fill:#d8d8d8}.st7{fill:#39c}.st8,.st9{enable-background:new}.st8{fill:#fff;opacity:.2}.st9{opacity:.15}.st10{fill:#e5e5e5}.st11{opacity:.39;enable-background:new}.st12,.st13{fill:#fff}.st13{opacity:.25;enable-background:new}.st14{opacity:6.000000e-02}.st14,.st15,.st16{enable-background:new}.st15{opacity:.3;fill:#202426}.st16,.st17{opacity:.3;fill:#fff}.st17{opacity:.7}.st17,.st18,.st19{enable-background:new}.st18{fill:#fff;opacity:.1}.st19{opacity:.2}.st20{fill:#999}.st21{fill:#f90}.st22{fill:#cc291f}.st23{opacity:.25}.st23,.st24,.st25{fill:#262626;enable-background:new}.st24{opacity:.45}.st25,.st26{opacity:.15}.st26{fill:#fff}.st26,.st27,.st29{enable-background:new}.st27{fill:#e5e5e5;opacity:.5}.st29{opacity:.4}.st30{fill:#825012}.st31{fill:#fbd7c7}</style><g id="i1394_1_"><path class="st0" d="M-1136-375l2-1 2 1v18l-2 1-2-1z" transform="translate(1328 376)"/><path class="st1" d="M-1134-356l-2-1v-18l2 1z" transform="translate(1328 376)"/><path class="st2" d="M-1134-356l2-1v-18l-2 1z" transform="translate(1328 376)"/><path class="st3" d="M-1136-366v-2l1-.5-1-.5v-.5l-.5-2.5-.5 3v.5l-1 .5v-.5l-.5-2.5-.5 3v.5l-1 .5v-.5l-.5-2.5-.5 3v.5l-1 .5v-.5l-.5-2.5-.5 3v.5l-1 .5v-.5l-.5-2.5-.5 3v.5l-1 .5v-.5l-.5-2.5-.5 3v.5l-1 .5v-.5l-.5-2.5-.5 3v.5l-1 .5v-.5l-.5-2.5-.5 3v.5l-1 .5v-.5l-.5-2.5-.5 3v.5l-1 .5v-.5l-.5-2.5-.5 3v.5l-1 .5v-.5l-.5-2.5-.5 3v.5l-1 .5v-.5l-.5-2.5-.5 3v.5l-1 .5v-.5l-.5-2.5-.5 3v.5l-1 .5v-.5l-.5-2.5-.5 3v.5l-1 .5v-.5l-.5-2.5-.5 3v.5l-1 .5v-.5l-.5-2.5-.5 3v.5l-1 .5v-.5l-.5-2.5-.5 3v.5l-1 .5v-.5l-.5-2.5-.5 3v.5l-1 .5v-.5l-.5-2.5-.5 3v.5l-1 .5v-.5l-.5-2.5-.5 3v.5l-1 .5v-.5l-.5-2.5-.5 3v.5l-1 .5v-.5l-.5-2.5-.5 3v.5l-1 .5v-.5l-.5-2.5-.5 3v.5l-1 .5v-.5l-.5-2.5-.5 3v.5l-1 .5v-.5l-.5-2.5-.5 3v.5l-1 .5v-.5l-.5-2.5-.5 3v.5l-1 .5v-.5l-.5-2.5-.5 3v.5l-1 .5v-.5l-.5-2.5-.5 3v.5l-1 .5v-.5l-.5-2.5-.5 3v.5l-1 .5v-.5l-.5-2.5-.5 3v.5l-4 2 1 .5 3-1.5v2l-4 2 1 .5 3-1.5v9.5l1-.5v-9.5l1-.5v9.5l1-.5v-9.5l1-.5v9.5l1-.5v-9.5l1-.5v9.5l1-.5v-9.5l1-.5v9.5l1-.5v-9.5l1-.5v9.5l1-.5v-9.5l1-.5v9.5l1-.5v-9.5l1-.5v9.5l1-.5v-9.5l1-.5v9.5l1-.5v-9.5l1-.5v9.5l1-.5v-9.5l1-.5v9.5l1-.5v-9.5l1-.5v9.5l1-.5v-9.5l1-.5v9.5l1-.5v-9.5l1-.5v9.5l1-.5v-9.5l1-.5v9.5l1-.5v-9.5l1-.5v9.5l1-.5v-9.5l1-.5v9.5l1-.5v-9.5l1-.5v9.5l1-.5v-9.5l1-.5v9.5l1-.5v-9.5l1-.5v9.5l1-.5v-9.5l1-.5v9.5l1-.5v-9.5l1-.5v9.5l1-.5v-9.5l1-.5v9.5l1-.5v-9.5l1-.5v9.5l1-.5v-9.5l1-.5v9.5l1-.5v-9.5l1-.5v9.5l1-.5v-9.5l1-.5v9.5l1-.5v-9.5l1-.5v9.5l1-.5v-9.5l1-.5v9.5l1-.5v-9.5l1-.5v9.5l1-.5v-9.5l1-.5-1-.5zm-58 29v-2l1-.5v2l-1 .5zm2-1v-2l1-.5v2l-1 .5zm2-1v-2l1-.5v2l-1 .5zm2-1v-2l1-.5v2l-1 .5zm2-1v-2l1-.5v2l-1 .5zm2-1v-2l1-.5v2l-1 .5zm2-1v-2l1-.5v2l-1 .5zm2-1v-2l1-.5v2l-1 .5zm2-1v-2l1-.5v2l-1 .5zm2-1v-2l1-.5v2l-1 .5zm2-1v-2l1-.5v2l-1 .5zm2-1v-2l1-.5v2l-1 .5zm2-1v-2l1-.5v2l-1 .5zm2-1v-2l1-.5v2l-1 .5zm2-1v-2l1-.5v2l-1 .5zm2-1v-2l1-.5v2l-1 .5zm2-1v-2l1-.5v2l-1 .5zm2-1v-2l1-.5v2l-1 .5zm2-1v-2l1-.5v2l-1 .5zm2-1v-2l1-.5v2l-1 .5zm2-1v-2l1-.5v2l-1 .5zm2-1v-2l1-.5v2l-1 .5zm2-1v-2l1-.5v2l-1 .5zm2-1v-2l1-.5v2l-1 .5zm2-1v-2l1-.5v2l-1 .5zm2-1v-2l1-.5v2l-1 .5zm2-1v-2l1-.5v2l-1 .5zm2-1v-2l1-.5v2l-1 .5zm2-1v-2l1-.5v2l-1 .5z" transform="translate(1328 376)"/><path class="st0" d="M-1200-343l2-1 2 1v18l-2 1-2-1z" transform="translate(1328 376)"/><path class="st1" d="M-1198-324l-2-1v-18l2 1z" transform="translate(1328 376)"/><path class="st2" d="M-1198-324l2-1v-18l-2 1z" transform="translate(1328 376)"/><path class="st0" d="M-1136-375l2-1 2 1v18l-2 1-2-1z" transform="translate(1264 408)"/><path class="st1" d="M-1134-356l-2-1v-18l2 1z" transform="translate(1264 408)"/><path class="st2" d="M-1134-356l2-1v-18l-2 1z" transform="translate(1264 408)"/><path class="st3" d="M-1136-366v-2l1-.5-1-.5v-.5l-.5-2.5-.5 3v.5l-1 .5v-.5l-.5-2.5-.5 3v.5l-1 .5v-.5l-.5-2.5-.5 3v.5l-1 .5v-.5l-.5-2.5-.5 3v.5l-1 .5v-.5l-.5-2.5-.5 3v.5l-1 .5v-.5l-.5-2.5-.5 3v.5l-1 .5v-.5l-.5-2.5-.5 3v.5l-1 .5v-.5l-.5-2.5-.5 3v.5l-1 .5v-.5l-.5-2.5-.5 3v.5l-1 .5v-.5l-.5-2.5-.5 3v.5l-1 .5v-.5l-.5-2.5-.5 3v.5l-1 .5v-.5l-.5-2.5-.5 3v.5l-1 .5v-.5l-.5-2.5-.5 3v.5l-1 .5v-.5l-.5-2.5-.5 3v.5l-1 .5v-.5l-.5-2.5-.5 3v.5l-1 .5v-.5l-.5-2.5-.5 3v.5l-1 .5v-.5l-.5-2.5-.5 3v.5l-1 .5v-.5l-.5-2.5-.5 3v.5l-1 .5v-.5l-.5-2.5-.5 3v.5l-1 .5v-.5l-.5-2.5-.5 3v.5l-1 .5v-.5l-.5-2.5-.5 3v.5l-1 .5v-.5l-.5-2.5-.5 3v.5l-1 .5v-.5l-.5-2.5-.5 3v.5l-1 .5v-.5l-.5-2.5-.5 3v.5l-1 .5v-.5l-.5-2.5-.5 3v.5l-1 .5v-.5l-.5-2.5-.5 3v.5l-1 .5v-.5l-.5-2.5-.5 3v.5l-1 .5v-.5l-.5-2.5-.5 3v.5l-1 .5v-.5l-.5-2.5-.5 3v.5l-1 .5v-.5l-.5-2.5-.5 3v.5l-4 2 1 .5 3-1.5v2l-4 2 1 .5 3-1.5v9.5l1-.5v-9.5l1-.5v9.5l1-.5v-9.5l1-.5v9.5l1-.5v-9.5l1-.5v9.5l1-.5v-9.5l1-.5v9.5l1-.5v-9.5l1-.5v9.5l1-.5v-9.5l1-.5v9.5l1-.5v-9.5l1-.5v9.5l1-.5v-9.5l1-.5v9.5l1-.5v-9.5l1-.5v9.5l1-.5v-9.5l1-.5v9.5l1-.5v-9.5l1-.5v9.5l1-.5v-9.5l1-.5v9.5l1-.5v-9.5l1-.5v9.5l1-.5v-9.5l1-.5v9.5l1-.5v-9.5l1-.5v9.5l1-.5v-9.5l1-.5v9.5l1-.5v-9.5l1-.5v9.5l1-.5v-9.5l1-.5v9.5l1-.5v-9.5l1-.5v9.5l1-.5v-9.5l1-.5v9.5l1-.5v-9.5l1-.5v9.5l1-.5v-9.5l1-.5v9.5l1-.5v-9.5l1-.5v9.5l1-.5v-9.5l1-.5v9.5l1-.5v-9.5l1-.5v9.5l1-.5v-9.5l1-.5v9.5l1-.5v-9.5l1-.5v9.5l1-.5v-9.5l1-.5v9.5l1-.5v-9.5l1-.5v9.5l1-.5v-9.5l1-.5-1-.5zm-58 29v-2l1-.5v2l-1 .5zm2-1v-2l1-.5v2l-1 .5zm2-1v-2l1-.5v2l-1 .5zm2-1v-2l1-.5v2l-1 .5zm2-1v-2l1-.5v2l-1 .5zm2-1v-2l1-.5v2l-1 .5zm2-1v-2l1-.5v2l-1 .5zm2-1v-2l1-.5v2l-1 .5zm2-1v-2l1-.5v2l-1 .5zm2-1v-2l1-.5v2l-1 .5zm2-1v-2l1-.5v2l-1 .5zm2-1v-2l1-.5v2l-1 .5zm2-1v-2l1-.5v2l-1 .5zm2-1v-2l1-.5v2l-1 .5zm2-1v-2l1-.5v2l-1 .5zm2-1v-2l1-.5v2l-1 .5zm2-1v-2l1-.5v2l-1 .5zm2-1v-2l1-.5v2l-1 .5zm2-1v-2l1-.5v2l-1 .5zm2-1v-2l1-.5v2l-1 .5zm2-1v-2l1-.5v2l-1 .5zm2-1v-2l1-.5v2l-1 .5zm2-1v-2l1-.5v2l-1 .5zm2-1v-2l1-.5v2l-1 .5zm2-1v-2l1-.5v2l-1 .5zm2-1v-2l1-.5v2l-1 .5zm2-1v-2l1-.5v2l-1 .5zm2-1v-2l1-.5v2l-1 .5zm2-1v-2l1-.5v2l-1 .5z" transform="translate(1264 408)"/><path class="st0" d="M-1200-343l2-1 2 1v18l-2 1-2-1z" transform="translate(1264 408)"/><path class="st1" d="M-1198-324l-2-1v-18l2 1z" transform="translate(1264 408)"/><path class="st2" d="M-1198-324l2-1v-18l-2 1z" transform="translate(1264 408)"/></g><g id="i1196_1_"><path class="st4" d="M1334-300l32 16v-41l-32-16z" transform="matrix(-1 0 0 1 1528 384)"/><g class="st5"><path class="st6" d="M1338-301l-3-1.5v2l3 1.5zm4 2l-3-1.5v2l3 1.5zm4 2l-3-1.5v2l3 1.5zm4 2l-3-1.5v2l3 1.5zm4 2l-3-1.5v2l3 1.5zm4 2l-3-1.5v2l3 1.5zm4 2l-3-1.5v2l3 1.5zm4 2l-3-1.5v2l3 1.5zm-30-18l-2-1v2l2 1zm4 2l-3-1.5v2l3 1.5zm4 2l-3-1.5v2l3 1.5zm4 2l-3-1.5v2l3 1.5zm4 2l-3-1.5v2l3 1.5zm4 2l-3-1.5v2l3 1.5zm4 2l-3-1.5v2l3 1.5zm4 2l-3-1.5v2l3 1.5zm-26-16l-3-1.5v2l3 1.5zm4 2l-3-1.5v2l3 1.5zm4 2l-3-1.5v2l3 1.5zm4 2l-3-1.5v2l3 1.5zm4 2l-3-1.5v2l3 1.5zm4 2l-3-1.5v2l3 1.5zm4 2l-3-1.5v2l3 1.5zm4 2l-3-1.5v2l3 1.5zm-30-18l-2-1v2l2 1zm4 2l-3-1.5v2l3 1.5zm4 2l-3-1.5v2l3 1.5zm4 2l-3-1.5v2l3 1.5zm4 2l-3-1.5v2l3 1.5zm4 2l-3-1.5v2l3 1.5zm4 2l-3-1.5v2l3 1.5zm4 2l-3-1.5v2l3 1.5zm-26-16l-3-1.5v2l3 1.5zm4 2l-3-1.5v2l3 1.5zm4 2l-3-1.5v2l3 1.5zm4 2l-3-1.5v2l3 1.5zm4 2l-3-1.5v2l3 1.5zm4 2l-3-1.5v2l3 1.5zm4 2l-3-1.5v2l3 1.5zm4 2l-3-1.5v2l3 1.5zm-30-18l-2-1v2l2 1zm4 2l-3-1.5v2l3 1.5zm4 2l-3-1.5v2l3 1.5zm4 2l-3-1.5v2l3 1.5zm4 2l-3-1.5v2l3 1.5zm4 2l-3-1.5v2l3 1.5zm4 2l-3-1.5v2l3 1.5zm4 2l-3-1.5v2l3 1.5zm-26-16l-3-1.5v2l3 1.5zm4 2l-3-1.5v2l3 1.5zm4 2l-3-1.5v2l3 1.5zm4 2l-3-1.5v2l3 1.5zm4 2l-3-1.5v2l3 1.5zm4 2l-3-1.5v2l3 1.5zm4 2l-3-1.5v2l3 1.5zm4 2l-3-1.5v2l3 1.5zm-30-18l-2-1v2l2 1zm4 2l-3-1.5v2l3 1.5zm4 2l-3-1.5v2l3 1.5zm4 2l-3-1.5v2l3 1.5zm4 2l-3-1.5v2l3 1.5zm4 2l-3-1.5v2l3 1.5zm4 2l-3-1.5v2l3 1.5zm4 2l-3-1.5v2l3 1.5zm-26-16l-3-1.5v2l3 1.5zm4 2l-3-1.5v2l3 1.5zm4 2l-3-1.5v2l3 1.5zm4 2l-3-1.5v2l3 1.5zm4 2l-3-1.5v2l3 1.5zm4 2l-3-1.5v2l3 1.5zm4 2l-3-1.5v2l3 1.5zm4 2l-3-1.5v2l3 1.5zm-30-18l-2-1v2l2 1zm4 2l-3-1.5v2l3 1.5zm4 2l-3-1.5v2l3 1.5zm4 2l-3-1.5v2l3 1.5zm4 2l-3-1.5v2l3 1.5zm4 2l-3-1.5v2l3 1.5zm4 2l-3-1.5v2l3 1.5zm4 2l-3-1.5v2l3 1.5zm-26-16l-3-1.5v2l3 1.5zm4 2l-3-1.5v2l3 1.5zm4 2l-3-1.5v2l3 1.5zm4 2l-3-1.5v2l3 1.5zm4 2l-3-1.5v2l3 1.5zm4 2l-3-1.5v2l3 1.5zm4 2l-3-1.5v2l3 1.5zm4 2l-3-1.5v2l3 1.5zm-30-18l-2-1v2l2 1zm4 2l-3-1.5v2l3 1.5zm4 2l-3-1.5v2l3 1.5zm4 2l-3-1.5v2l3 1.5zm4 2l-3-1.5v2l3 1.5zm4 2l-3-1.5v2l3 1.5zm4 2l-3-1.5v2l3 1.5zm4 2l-3-1.5v2l3 1.5zm-26-16l-3-1.5v2l3 1.5zm4 2l-3-1.5v2l3 1.5zm4 2l-3-1.5v2l3 1.5zm4 2l-3-1.5v2l3 1.5zm4 2l-3-1.5v2l3 1.5zm4 2l-3-1.5v2l3 1.5zm4 2l-3-1.5v2l3 1.5zm4 2l-3-1.5v2l3 1.5zm-30-18l-2-1v2l2 1zm4 2l-3-1.5v2l3 1.5zm4 2l-3-1.5v2l3 1.5zm4 2l-3-1.5v2l3 1.5zm4 2l-3-1.5v2l3 1.5zm4 2l-3-1.5v2l3 1.5zm4 2l-3-1.5v2l3 1.5zm4 2l-3-1.5v2l3 1.5zm2 7l-1-.5v2l1 .5zm0 6l-1-.5v2l1 .5zm0 6l-1-.5v2l1 .5zm0 6l-1-.5v2l1 .5zm0 6l-1-.5v2l1 .5zm0 6l-1-.5v2l1 .5z" transform="matrix(-1 0 0 1 1528 384)"/></g><path class="st6" d="M1354-315l-9-4.5v-11l9 4.5z" transform="matrix(-1 0 0 1 1528 384)"/><path class="st7" d="M1346-329v9l3 1.5v-9z" transform="matrix(-1 0 0 1 1528 384)"/><path class="st8" d="M1346-327v7l3 1.5z" transform="matrix(-1 0 0 1 1528 384)"/><path class="st7" d="M1350-327v9l3 1.5v-9z" transform="matrix(-1 0 0 1 1528 384)"/><path class="st9" d="M1349-326.5l-3-1.5v-1l3 1.5zm4 2l-3-1.5v-1l3 1.5z" transform="matrix(-1 0 0 1 1528 384)"/><path class="st4" d="M1238-305l32 16v-20l-32-16z" transform="matrix(-1 0 0 1 1528 384)"/><g class="st5"><path class="st6" d="M1240-307l-2-1v2l2 1zm4 2l-3-1.5v2l3 1.5zm4 2l-3-1.5v2l3 1.5zm4 2l-3-1.5v2l3 1.5zm4 2l-3-1.5v2l3 1.5zm4 2l-3-1.5v2l3 1.5zm4 2l-3-1.5v2l3 1.5zm4 2l-3-1.5v2l3 1.5zm-26-16l-3-1.5v2l3 1.5zm4 2l-3-1.5v2l3 1.5zm4 2l-3-1.5v2l3 1.5zm4 2l-3-1.5v2l3 1.5zm4 2l-3-1.5v2l3 1.5zm4 2l-3-1.5v2l3 1.5zm4 2l-3-1.5v2l3 1.5zm4 2l-3-1.5v2l3 1.5zm-30-18l-2-1v2l2 1zm4 2l-3-1.5v2l3 1.5zm4 2l-3-1.5v2l3 1.5zm4 2l-3-1.5v2l3 1.5zm4 2l-3-1.5v2l3 1.5zm4 2l-3-1.5v2l3 1.5zm4 2l-3-1.5v2l3 1.5zm4 2l-3-1.5v2l3 1.5zm-26-16l-3-1.5v2l3 1.5zm4 2l-3-1.5v2l3 1.5zm4 2l-3-1.5v2l3 1.5zm4 2l-3-1.5v2l3 1.5zm4 2l-3-1.5v2l3 1.5zm4 2l-3-1.5v2l3 1.5zm4 2l-3-1.5v2l3 1.5zm4 2l-3-1.5v2l3 1.5zm-30-18l-2-1v2l2 1zm4 2l-3-1.5v2l3 1.5zm4 2l-3-1.5v2l3 1.5zm4 2l-3-1.5v2l3 1.5zm4 2l-3-1.5v2l3 1.5zm4 2l-3-1.5v2l3 1.5zm4 2l-3-1.5v2l3 1.5zm4 2l-3-1.5v2l3 1.5zm-26-16l-3-1.5v2l3 1.5zm4 2l-3-1.5v2l3 1.5zm4 2l-3-1.5v2l3 1.5zm4 2l-3-1.5v2l3 1.5zm4 2l-3-1.5v2l3 1.5zm4 2l-3-1.5v2l3 1.5zm4 2l-3-1.5v2l3 1.5zm4 2l-3-1.5v2l3 1.5zm-30-18l-2-1v2l2 1zm4 2l-3-1.5v2l3 1.5zm4 2l-3-1.5v2l3 1.5zm4 2l-3-1.5v2l3 1.5zm4 2l-3-1.5v2l3 1.5zm4 2l-3-1.5v2l3 1.5zm4 2l-3-1.5v2l3 1.5zm4 2l-3-1.5v2l3 1.5zm2 7l-1-.5v2l1 .5zm0 6l-1-.5v2l1 .5zm0 6l-1-.5v2l1 .5z" transform="matrix(-1 0 0 1 1528 384)"/></g><path class="st4" d="M1334-236l93-46.5v-41l-93 46.5z" transform="matrix(-1 0 0 1 1528 384)"/><g class="st5"><path class="st6" d="M1338-241l-3 1.5v2l3-1.5zm4-2l-3 1.5v2l3-1.5zm4-2l-3 1.5v2l3-1.5zm4-2l-3 1.5v2l3-1.5zm4-2l-3 1.5v2l3-1.5zm4-2l-3 1.5v2l3-1.5zm4-2l-3 1.5v2l3-1.5zm4-2l-3 1.5v2l3-1.5zm4-2l-3 1.5v2l3-1.5zm4-2l-3 1.5v2l3-1.5zm4-2l-3 1.5v2l3-1.5zm4-2l-3 1.5v2l3-1.5zm4-2l-3 1.5v2l3-1.5zm4-2l-3 1.5v2l3-1.5zm4-2l-3 1.5v2l3-1.5zm-58 26l-2 1v2l2-1zm4-2l-3 1.5v2l3-1.5zm4-2l-3 1.5v2l3-1.5zm4-2l-3 1.5v2l3-1.5zm4-2l-3 1.5v2l3-1.5zm4-2l-3 1.5v2l3-1.5zm4-2l-3 1.5v2l3-1.5zm4-2l-3 1.5v2l3-1.5zm4-2l-3 1.5v2l3-1.5zm4-2l-3 1.5v2l3-1.5zm4-2l-3 1.5v2l3-1.5zm4-2l-3 1.5v2l3-1.5zm4-2l-3 1.5v2l3-1.5zm4-2l-3 1.5v2l3-1.5zm4-2l-3 1.5v2l3-1.5zm4-2l-3 1.5v2l3-1.5zm-58 26l-3 1.5v2l3-1.5zm4-2l-3 1.5v2l3-1.5zm4-2l-3 1.5v2l3-1.5zm4-2l-3 1.5v2l3-1.5zm4-2l-3 1.5v2l3-1.5zm4-2l-3 1.5v2l3-1.5zm4-2l-3 1.5v2l3-1.5zm4-2l-3 1.5v2l3-1.5zm4-2l-3 1.5v2l3-1.5zm4-2l-3 1.5v2l3-1.5zm4-2l-3 1.5v2l3-1.5zm4-2l-3 1.5v2l3-1.5zm4-2l-3 1.5v2l3-1.5zm4-2l-3 1.5v2l3-1.5zm4-2l-3 1.5v2l3-1.5zm-58 26l-2 1v2l2-1zm4-2l-3 1.5v2l3-1.5zm4-2l-3 1.5v2l3-1.5zm4-2l-3 1.5v2l3-1.5zm4-2l-3 1.5v2l3-1.5zm4-2l-3 1.5v2l3-1.5zm4-2l-3 1.5v2l3-1.5zm4-2l-3 1.5v2l3-1.5zm4-2l-3 1.5v2l3-1.5zm4-2l-3 1.5v2l3-1.5zm4-2l-3 1.5v2l3-1.5zm4-2l-3 1.5v2l3-1.5zm4-2l-3 1.5v2l3-1.5zm4-2l-3 1.5v2l3-1.5zm4-2l-3 1.5v2l3-1.5zm4-2l-3 1.5v2l3-1.5zm-58 26l-3 1.5v2l3-1.5zm4-2l-3 1.5v2l3-1.5zm4-2l-3 1.5v2l3-1.5zm4-2l-3 1.5v2l3-1.5zm4-2l-3 1.5v2l3-1.5zm4-2l-3 1.5v2l3-1.5zm4-2l-3 1.5v2l3-1.5zm4-2l-3 1.5v2l3-1.5zm4-2l-3 1.5v2l3-1.5zm4-2l-3 1.5v2l3-1.5zm4-2l-3 1.5v2l3-1.5zm4-2l-3 1.5v2l3-1.5zm4-2l-3 1.5v2l3-1.5zm4-2l-3 1.5v2l3-1.5zm4-2l-3 1.5v2l3-1.5zm-58 26l-2 1v2l2-1zm4-2l-3 1.5v2l3-1.5zm4-2l-3 1.5v2l3-1.5zm4-2l-3 1.5v2l3-1.5zm4-2l-3 1.5v2l3-1.5zm4-2l-3 1.5v2l3-1.5zm4-2l-3 1.5v2l3-1.5zm4-2l-3 1.5v2l3-1.5zm4-2l-3 1.5v2l3-1.5zm4-2l-3 1.5v2l3-1.5zm4-2l-3 1.5v2l3-1.5zm4-2l-3 1.5v2l3-1.5zm4-2l-3 1.5v2l3-1.5zm4-2l-3 1.5v2l3-1.5zm4-2l-3 1.5v2l3-1.5zm4-2l-3 1.5v2l3-1.5zm-58 26l-3 1.5v2l3-1.5zm4-2l-3 1.5v2l3-1.5zm4-2l-3 1.5v2l3-1.5zm4-2l-3 1.5v2l3-1.5zm4-2l-3 1.5v2l3-1.5zm4-2l-3 1.5v2l3-1.5zm4-2l-3 1.5v2l3-1.5zm4-2l-3 1.5v2l3-1.5zm4-2l-3 1.5v2l3-1.5zm4-2l-3 1.5v2l3-1.5zm4-2l-3 1.5v2l3-1.5zm4-2l-3 1.5v2l3-1.5zm4-2l-3 1.5v2l3-1.5zm4-2l-3 1.5v2l3-1.5zm4-2l-3 1.5v2l3-1.5zm-58 26l-2 1v2l2-1zm4-2l-3 1.5v2l3-1.5zm4-2l-3 1.5v2l3-1.5zm4-2l-3 1.5v2l3-1.5zm4-2l-3 1.5v2l3-1.5zm4-2l-3 1.5v2l3-1.5zm4-2l-3 1.5v2l3-1.5zm4-2l-3 1.5v2l3-1.5zm4-2l-3 1.5v2l3-1.5zm4-2l-3 1.5v2l3-1.5zm4-2l-3 1.5v2l3-1.5zm4-2l-3 1.5v2l3-1.5zm4-2l-3 1.5v2l3-1.5zm4-2l-3 1.5v2l3-1.5zm4-2l-3 1.5v2l3-1.5zm4-2l-3 1.5v2l3-1.5zm-58 26l-3 1.5v2l3-1.5zm4-2l-3 1.5v2l3-1.5zm4-2l-3 1.5v2l3-1.5zm4-2l-3 1.5v2l3-1.5zm4-2l-3 1.5v2l3-1.5zm4-2l-3 1.5v2l3-1.5zm4-2l-3 1.5v2l3-1.5zm4-2l-3 1.5v2l3-1.5zm4-2l-3 1.5v2l3-1.5zm4-2l-3 1.5v2l3-1.5zm4-2l-3 1.5v2l3-1.5zm4-2l-3 1.5v2l3-1.5zm4-2l-3 1.5v2l3-1.5zm4-2l-3 1.5v2l3-1.5zm4-2l-3 1.5v2l3-1.5zm-58 26l-2 1v2l2-1zm4-2l-3 1.5v2l3-1.5zm4-2l-3 1.5v2l3-1.5zm4-2l-3 1.5v2l3-1.5zm4-2l-3 1.5v2l3-1.5zm4-2l-3 1.5v2l3-1.5zm4-2l-3 1.5v2l3-1.5zm4-2l-3 1.5v2l3-1.5zm4-2l-3 1.5v2l3-1.5zm4-2l-3 1.5v2l3-1.5zm4-2l-3 1.5v2l3-1.5zm4-2l-3 1.5v2l3-1.5zm4-2l-3 1.5v2l3-1.5zm4-2l-3 1.5v2l3-1.5zm4-2l-3 1.5v2l3-1.5zm4-2l-3 1.5v2l3-1.5zm-58 26l-3 1.5v2l3-1.5zm4-2l-3 1.5v2l3-1.5zm4-2l-3 1.5v2l3-1.5zm4-2l-3 1.5v2l3-1.5zm4-2l-3 1.5v2l3-1.5zm4-2l-3 1.5v2l3-1.5zm4-2l-3 1.5v2l3-1.5zm4-2l-3 1.5v2l3-1.5zm4-2l-3 1.5v2l3-1.5zm4-2l-3 1.5v2l3-1.5zm4-2l-3 1.5v2l3-1.5zm4-2l-3 1.5v2l3-1.5zm4-2l-3 1.5v2l3-1.5zm4-2l-3 1.5v2l3-1.5zm4-2l-3 1.5v2l3-1.5zm-58 26l-2 1v2l2-1zm4-2l-3 1.5v2l3-1.5zm4-2l-3 1.5v2l3-1.5zm4-2l-3 1.5v2l3-1.5zm4-2l-3 1.5v2l3-1.5zm4-2l-3 1.5v2l3-1.5zm4-2l-3 1.5v2l3-1.5zm4-2l-3 1.5v2l3-1.5zm4-2l-3 1.5v2l3-1.5zm4-2l-3 1.5v2l3-1.5zm4-2l-3 1.5v2l3-1.5zm4-2l-3 1.5v2l3-1.5zm4-2l-3 1.5v2l3-1.5zm4-2l-3 1.5v2l3-1.5zm4-2l-3 1.5v2l3-1.5zm4-2l-3 1.5v2l3-1.5zm-58 26l-3 1.5v2l3-1.5zm4-2l-3 1.5v2l3-1.5zm4-2l-3 1.5v2l3-1.5zm4-2l-3 1.5v2l3-1.5zm4-2l-3 1.5v2l3-1.5zm4-2l-3 1.5v2l3-1.5zm4-2l-3 1.5v2l3-1.5zm4-2l-3 1.5v2l3-1.5zm4-2l-3 1.5v2l3-1.5zm4-2l-3 1.5v2l3-1.5zm4-2l-3 1.5v2l3-1.5zm4-2l-3 1.5v2l3-1.5zm4-2l-3 1.5v2l3-1.5zm4-2l-3 1.5v2l3-1.5zm4-2l-3 1.5v2l3-1.5zm-58 26l-2 1v2l2-1zm4-2l-3 1.5v2l3-1.5zm4-2l-3 1.5v2l3-1.5zm4-2l-3 1.5v2l3-1.5zm4-2l-3 1.5v2l3-1.5zm4-2l-3 1.5v2l3-1.5zm4-2l-3 1.5v2l3-1.5zm4-2l-3 1.5v2l3-1.5zm4-2l-3 1.5v2l3-1.5zm4-2l-3 1.5v2l3-1.5zm4-2l-3 1.5v2l3-1.5zm4-2l-3 1.5v2l3-1.5zm4-2l-3 1.5v2l3-1.5zm4-2l-3 1.5v2l3-1.5zm4-2l-3 1.5v2l3-1.5zm4-2l-3 1.5v2l3-1.5zm2 38l-3 1.5v2l3-1.5zm4-2l-3 1.5v2l3-1.5zm4-2l-3 1.5v2l3-1.5zm4-2l-3 1.5v2l3-1.5zm4-2l-3 1.5v2l3-1.5zm4-2l-3 1.5v2l3-1.5zm4-2l-3 1.5v2l3-1.5zm4-2l-3 1.5v2l3-1.5zm-26 10l-3 1.5v2l3-1.5zm4-2l-3 1.5v2l3-1.5zm4-2l-3 1.5v2l3-1.5zm4-2l-3 1.5v2l3-1.5zm4-2l-3 1.5v2l3-1.5zm4-2l-3 1.5v2l3-1.5zm4-2l-3 1.5v2l3-1.5zm4-2l-3 1.5v2l3-1.5zm-30 12l-3 1.5v2l3-1.5zm4-2l-3 1.5v2l3-1.5zm4-2l-3 1.5v2l3-1.5zm4-2l-3 1.5v2l3-1.5zm4-2l-3 1.5v2l3-1.5zm4-2l-3 1.5v2l3-1.5zm4-2l-3 1.5v2l3-1.5zm4-2l-3 1.5v2l3-1.5zm-26 10l-3 1.5v2l3-1.5zm4-2l-3 1.5v2l3-1.5zm4-2l-3 1.5v2l3-1.5zm4-2l-3 1.5v2l3-1.5zm4-2l-3 1.5v2l3-1.5zm4-2l-3 1.5v2l3-1.5zm4-2l-3 1.5v2l3-1.5zm4-2l-3 1.5v2l3-1.5zm-30 12l-3 1.5v2l3-1.5zm4-2l-3 1.5v2l3-1.5zm4-2l-3 1.5v2l3-1.5zm4-2l-3 1.5v2l3-1.5zm4-2l-3 1.5v2l3-1.5zm4-2l-3 1.5v2l3-1.5zm4-2l-3 1.5v2l3-1.5zm4-2l-3 1.5v2l3-1.5zm-26 10l-3 1.5v2l3-1.5zm4-2l-3 1.5v2l3-1.5zm4-2l-3 1.5v2l3-1.5zm4-2l-3 1.5v2l3-1.5zm4-2l-3 1.5v2l3-1.5zm4-2l-3 1.5v2l3-1.5zm4-2l-3 1.5v2l3-1.5zm4-2l-3 1.5v2l3-1.5zm-30 12l-3 1.5v2l3-1.5zm4-2l-3 1.5v2l3-1.5zm4-2l-3 1.5v2l3-1.5zm4-2l-3 1.5v2l3-1.5zm4-2l-3 1.5v2l3-1.5zm4-2l-3 1.5v2l3-1.5zm4-2l-3 1.5v2l3-1.5zm4-2l-3 1.5v2l3-1.5zm-26 10l-3 1.5v2l3-1.5zm4-2l-3 1.5v2l3-1.5zm4-2l-3 1.5v2l3-1.5zm4-2l-3 1.5v2l3-1.5zm4-2l-3 1.5v2l3-1.5zm4-2l-3 1.5v2l3-1.5zm4-2l-3 1.5v2l3-1.5zm4-2l-3 1.5v2l3-1.5zm-30 12l-3 1.5v2l3-1.5zm4-2l-3 1.5v2l3-1.5zm4-2l-3 1.5v2l3-1.5zm4-2l-3 1.5v2l3-1.5zm4-2l-3 1.5v2l3-1.5zm4-2l-3 1.5v2l3-1.5zm4-2l-3 1.5v2l3-1.5zm4-2l-3 1.5v2l3-1.5zm-26 10l-3 1.5v2l3-1.5zm4-2l-3 1.5v2l3-1.5zm4-2l-3 1.5v2l3-1.5zm4-2l-3 1.5v2l3-1.5zm4-2l-3 1.5v2l3-1.5zm4-2l-3 1.5v2l3-1.5zm4-2l-3 1.5v2l3-1.5zm4-2l-3 1.5v2l3-1.5zm-30 12l-3 1.5v2l3-1.5zm4-2l-3 1.5v2l3-1.5zm4-2l-3 1.5v2l3-1.5zm4-2l-3 1.5v2l3-1.5zm4-2l-3 1.5v2l3-1.5zm4-2l-3 1.5v2l3-1.5zm4-2l-3 1.5v2l3-1.5zm4-2l-3 1.5v2l3-1.5zm-26 10l-3 1.5v2l3-1.5zm4-2l-3 1.5v2l3-1.5zm4-2l-3 1.5v2l3-1.5zm4-2l-3 1.5v2l3-1.5zm4-2l-3 1.5v2l3-1.5zm4-2l-3 1.5v2l3-1.5zm4-2l-3 1.5v2l3-1.5zm4-2l-3 1.5v2l3-1.5zm-30 12l-3 1.5v2l3-1.5zm4-2l-3 1.5v2l3-1.5zm4-2l-3 1.5v2l3-1.5zm4-2l-3 1.5v2l3-1.5zm4-2l-3 1.5v2l3-1.5zm4-2l-3 1.5v2l3-1.5zm4-2l-3 1.5v2l3-1.5zm4-2l-3 1.5v2l3-1.5zm-26 10l-3 1.5v2l3-1.5zm4-2l-3 1.5v2l3-1.5zm4-2l-3 1.5v2l3-1.5zm4-2l-3 1.5v2l3-1.5zm4-2l-3 1.5v2l3-1.5zm4-2l-3 1.5v2l3-1.5zm4-2l-3 1.5v2l3-1.5zm4-2l-3 1.5v2l3-1.5z" transform="matrix(-1 0 0 1 1528 384)"/></g><path class="st6" d="M1349-247.5l-9 4.5v-14l9-4.5z" transform="matrix(-1 0 0 1 1528 384)"/><path class="st7" d="M1341-256.5v12l3-1.5v-12z" transform="matrix(-1 0 0 1 1528 384)"/><path class="st8" d="M1341-247.5v3l3-1.5z" transform="matrix(-1 0 0 1 1528 384)"/><path class="st7" d="M1345-258.5v12l3-1.5v-12z" transform="matrix(-1 0 0 1 1528 384)"/><path class="st9" d="M1344-257l-3 1.5v-1l3-1.5zm4-2l-3 1.5v-1l3-1.5z" transform="matrix(-1 0 0 1 1528 384)"/><path class="st9" d="M1348-249l-3-8.5v-1l3-1.5z" transform="matrix(-1 0 0 1 1528 384)"/><path class="st6" d="M1349-268.5l-9 4.5v-11l9-4.5z" transform="matrix(-1 0 0 1 1528 384)"/><path class="st7" d="M1341-274.5v9l3-1.5v-9z" transform="matrix(-1 0 0 1 1528 384)"/><path class="st8" d="M1341-269.5v4l3-1.5z" transform="matrix(-1 0 0 1 1528 384)"/><path class="st7" d="M1345-276.5v9l3-1.5v-9z" transform="matrix(-1 0 0 1 1528 384)"/><path class="st9" d="M1344-275l-3 1.5v-1l3-1.5zm4-2l-3 1.5v-1l3-1.5z" transform="matrix(-1 0 0 1 1528 384)"/><path class="st9" d="M1348-270l-3-5.5v-1l3-1.5z" transform="matrix(-1 0 0 1 1528 384)"/><path class="st6" d="M1363-254.5l-9 4.5v-14l9-4.5z" transform="matrix(-1 0 0 1 1528 384)"/><path class="st7" d="M1355-263.5v12l3-1.5v-12z" transform="matrix(-1 0 0 1 1528 384)"/><path class="st8" d="M1355-261.5v10l3-1.5z" transform="matrix(-1 0 0 1 1528 384)"/><path class="st7" d="M1359-265.5v12l3-1.5v-12z" transform="matrix(-1 0 0 1 1528 384)"/><path class="st9" d="M1358-264l-3 1.5v-1l3-1.5zm4-2l-3 1.5v-1l3-1.5z" transform="matrix(-1 0 0 1 1528 384)"/><path class="st9" d="M1362-259l-3-5.5v-1l3-1.5z" transform="matrix(-1 0 0 1 1528 384)"/><path class="st6" d="M1363-275.5l-9 4.5v-11l9-4.5z" transform="matrix(-1 0 0 1 1528 384)"/><path class="st7" d="M1355-281.5v9l3-1.5v-9zm4-2v9l3-1.5v-9z" transform="matrix(-1 0 0 1 1528 384)"/><path class="st9" d="M1358-282l-3 1.5v-1l3-1.5zm4-2l-3 1.5v-1l3-1.5z" transform="matrix(-1 0 0 1 1528 384)"/><path class="st9" d="M1362-276l-3-6.5v-1l3-1.5z" transform="matrix(-1 0 0 1 1528 384)"/><path class="st6" d="M1377-261.5l-9 4.5v-14l9-4.5z" transform="matrix(-1 0 0 1 1528 384)"/><path class="st7" d="M1369-270.5v12l3-1.5v-12z" transform="matrix(-1 0 0 1 1528 384)"/><path class="st8" d="M1369-265.5v7l3-1.5z" transform="matrix(-1 0 0 1 1528 384)"/><path class="st7" d="M1373-272.5v12l3-1.5v-12z" transform="matrix(-1 0 0 1 1528 384)"/><path class="st9" d="M1372-271l-3 1.5v-1l3-1.5zm4-2l-3 1.5v-1l3-1.5z" transform="matrix(-1 0 0 1 1528 384)"/><path class="st9" d="M1376-266l-3-5.5v-1l3-1.5z" transform="matrix(-1 0 0 1 1528 384)"/><path class="st6" d="M1377-282.5l-9 4.5v-11l9-4.5z" transform="matrix(-1 0 0 1 1528 384)"/><path class="st7" d="M1369-288.5v9l3-1.5v-9z" transform="matrix(-1 0 0 1 1528 384)"/><path class="st8" d="M1369-283.5v4l3-1.5z" transform="matrix(-1 0 0 1 1528 384)"/><path class="st7" d="M1373-290.5v9l3-1.5v-9z" transform="matrix(-1 0 0 1 1528 384)"/><path class="st9" d="M1372-289l-3 1.5v-1l3-1.5zm4-2l-3 1.5v-1l3-1.5z" transform="matrix(-1 0 0 1 1528 384)"/><path class="st9" d="M1376-284l-3-5.5v-1l3-1.5z" transform="matrix(-1 0 0 1 1528 384)"/><path class="st6" d="M1391-268.5l-9 4.5v-14l9-4.5z" transform="matrix(-1 0 0 1 1528 384)"/><path class="st7" d="M1383-277.5v12l3-1.5v-12z" transform="matrix(-1 0 0 1 1528 384)"/><path class="st8" d="M1383-272.5v7l3-1.5z" transform="matrix(-1 0 0 1 1528 384)"/><path class="st7" d="M1387-279.5v12l3-1.5v-12z" transform="matrix(-1 0 0 1 1528 384)"/><path class="st9" d="M1386-278l-3 1.5v-1l3-1.5zm4-2l-3 1.5v-1l3-1.5z" transform="matrix(-1 0 0 1 1528 384)"/><path class="st6" d="M1391-289.5l-9 4.5v-11l9-4.5z" transform="matrix(-1 0 0 1 1528 384)"/><path class="st7" d="M1383-295.5v9l3-1.5v-9z" transform="matrix(-1 0 0 1 1528 384)"/><path class="st8" d="M1383-290.5v4l3-1.5z" transform="matrix(-1 0 0 1 1528 384)"/><path class="st7" d="M1387-297.5v9l3-1.5v-9z" transform="matrix(-1 0 0 1 1528 384)"/><path class="st9" d="M1386-296l-3 1.5v-1l3-1.5zm4-2l-3 1.5v-1l3-1.5z" transform="matrix(-1 0 0 1 1528 384)"/><path class="st9" d="M1390-291l-3-5.5v-1l3-1.5z" transform="matrix(-1 0 0 1 1528 384)"/><path class="st6" d="M1405-275.5l-9 4.5v-14l9-4.5z" transform="matrix(-1 0 0 1 1528 384)"/><path class="st7" d="M1397-284.5v12l3-1.5v-12zm4-2v12l3-1.5v-12z" transform="matrix(-1 0 0 1 1528 384)"/><path class="st9" d="M1400-285l-3 1.5v-1l3-1.5zm4-2l-3 1.5v-1l3-1.5z" transform="matrix(-1 0 0 1 1528 384)"/><path class="st9" d="M1404-277l-3-8.5v-1l3-1.5z" transform="matrix(-1 0 0 1 1528 384)"/><path class="st6" d="M1405-296.5l-9 4.5v-11l9-4.5z" transform="matrix(-1 0 0 1 1528 384)"/><path class="st7" d="M1397-302.5v9l3-1.5v-9z" transform="matrix(-1 0 0 1 1528 384)"/><path class="st8" d="M1397-300.5v7l3-1.5z" transform="matrix(-1 0 0 1 1528 384)"/><path class="st7" d="M1401-304.5v9l3-1.5v-9z" transform="matrix(-1 0 0 1 1528 384)"/><path class="st9" d="M1400-303l-3 1.5v-1l3-1.5zm4-2l-3 1.5v-1l3-1.5z" transform="matrix(-1 0 0 1 1528 384)"/><path class="st6" d="M1419-282.5l-9 4.5v-14l9-4.5z" transform="matrix(-1 0 0 1 1528 384)"/><path class="st7" d="M1411-291.5v12l3-1.5v-12z" transform="matrix(-1 0 0 1 1528 384)"/><path class="st8" d="M1411-290.5v11l3-1.5z" transform="matrix(-1 0 0 1 1528 384)"/><path class="st7" d="M1415-293.5v12l3-1.5v-12z" transform="matrix(-1 0 0 1 1528 384)"/><path class="st9" d="M1414-292l-3 1.5v-1l3-1.5zm4-2l-3 1.5v-1l3-1.5z" transform="matrix(-1 0 0 1 1528 384)"/><path class="st9" d="M1418-287l-3-5.5v-1l3-1.5z" transform="matrix(-1 0 0 1 1528 384)"/><path class="st6" d="M1419-303.5l-9 4.5v-11l9-4.5z" transform="matrix(-1 0 0 1 1528 384)"/><path class="st7" d="M1411-309.5v9l3-1.5v-9z" transform="matrix(-1 0 0 1 1528 384)"/><path class="st8" d="M1411-304.5v4l3-1.5z" transform="matrix(-1 0 0 1 1528 384)"/><path class="st7" d="M1415-311.5v9l3-1.5v-9z" transform="matrix(-1 0 0 1 1528 384)"/><path class="st9" d="M1414-310l-3 1.5v-1l3-1.5zm4-2l-3 1.5v-1l3-1.5z" transform="matrix(-1 0 0 1 1528 384)"/><path class="st9" d="M1418-304l-3-6.5v-1l3-1.5z" transform="matrix(-1 0 0 1 1528 384)"/><path class="st4" d="M1270-268l64-32v-41l-64 32z" transform="matrix(-1 0 0 1 1528 384)"/><g class="st5"><path class="st6" d="M1274-273l-3 1.5v2l3-1.5zm4-2l-3 1.5v2l3-1.5zm4-2l-3 1.5v2l3-1.5zm4-2l-3 1.5v2l3-1.5zm4-2l-3 1.5v2l3-1.5zm4-2l-3 1.5v2l3-1.5zm4-2l-3 1.5v2l3-1.5zm4-2l-3 1.5v2l3-1.5zm4-2l-3 1.5v2l3-1.5zm4-2l-3 1.5v2l3-1.5zm4-2l-3 1.5v2l3-1.5zm4-2l-3 1.5v2l3-1.5zm4-2l-3 1.5v2l3-1.5zm4-2l-3 1.5v2l3-1.5zm4-2l-3 1.5v2l3-1.5zm-58 26l-2 1v2l2-1zm4-2l-3 1.5v2l3-1.5zm4-2l-3 1.5v2l3-1.5zm4-2l-3 1.5v2l3-1.5zm4-2l-3 1.5v2l3-1.5zm4-2l-3 1.5v2l3-1.5zm4-2l-3 1.5v2l3-1.5zm4-2l-3 1.5v2l3-1.5zm4-2l-3 1.5v2l3-1.5zm4-2l-3 1.5v2l3-1.5zm4-2l-3 1.5v2l3-1.5zm4-2l-3 1.5v2l3-1.5zm4-2l-3 1.5v2l3-1.5zm4-2l-3 1.5v2l3-1.5zm4-2l-3 1.5v2l3-1.5zm4-2l-3 1.5v2l3-1.5zm-58 26l-3 1.5v2l3-1.5zm4-2l-3 1.5v2l3-1.5zm4-2l-3 1.5v2l3-1.5zm4-2l-3 1.5v2l3-1.5zm4-2l-3 1.5v2l3-1.5zm4-2l-3 1.5v2l3-1.5zm4-2l-3 1.5v2l3-1.5zm4-2l-3 1.5v2l3-1.5zm4-2l-3 1.5v2l3-1.5zm4-2l-3 1.5v2l3-1.5zm4-2l-3 1.5v2l3-1.5zm4-2l-3 1.5v2l3-1.5zm4-2l-3 1.5v2l3-1.5zm4-2l-3 1.5v2l3-1.5zm4-2l-3 1.5v2l3-1.5zm-58 26l-2 1v2l2-1zm4-2l-3 1.5v2l3-1.5zm4-2l-3 1.5v2l3-1.5zm4-2l-3 1.5v2l3-1.5zm4-2l-3 1.5v2l3-1.5zm4-2l-3 1.5v2l3-1.5zm4-2l-3 1.5v2l3-1.5zm4-2l-3 1.5v2l3-1.5zm4-2l-3 1.5v2l3-1.5zm4-2l-3 1.5v2l3-1.5zm4-2l-3 1.5v2l3-1.5zm4-2l-3 1.5v2l3-1.5zm4-2l-3 1.5v2l3-1.5zm4-2l-3 1.5v2l3-1.5zm4-2l-3 1.5v2l3-1.5zm4-2l-3 1.5v2l3-1.5zm-58 26l-3 1.5v2l3-1.5zm4-2l-3 1.5v2l3-1.5zm4-2l-3 1.5v2l3-1.5zm4-2l-3 1.5v2l3-1.5zm4-2l-3 1.5v2l3-1.5zm4-2l-3 1.5v2l3-1.5zm4-2l-3 1.5v2l3-1.5zm4-2l-3 1.5v2l3-1.5zm4-2l-3 1.5v2l3-1.5zm4-2l-3 1.5v2l3-1.5zm4-2l-3 1.5v2l3-1.5zm4-2l-3 1.5v2l3-1.5zm4-2l-3 1.5v2l3-1.5zm4-2l-3 1.5v2l3-1.5zm4-2l-3 1.5v2l3-1.5zm-58 26l-2 1v2l2-1zm4-2l-3 1.5v2l3-1.5zm4-2l-3 1.5v2l3-1.5zm4-2l-3 1.5v2l3-1.5zm4-2l-3 1.5v2l3-1.5zm4-2l-3 1.5v2l3-1.5zm4-2l-3 1.5v2l3-1.5zm4-2l-3 1.5v2l3-1.5zm4-2l-3 1.5v2l3-1.5zm4-2l-3 1.5v2l3-1.5zm4-2l-3 1.5v2l3-1.5zm4-2l-3 1.5v2l3-1.5zm4-2l-3 1.5v2l3-1.5zm4-2l-3 1.5v2l3-1.5zm4-2l-3 1.5v2l3-1.5zm4-2l-3 1.5v2l3-1.5zm-58 26l-3 1.5v2l3-1.5zm4-2l-3 1.5v2l3-1.5zm4-2l-3 1.5v2l3-1.5zm4-2l-3 1.5v2l3-1.5zm4-2l-3 1.5v2l3-1.5zm4-2l-3 1.5v2l3-1.5zm4-2l-3 1.5v2l3-1.5zm4-2l-3 1.5v2l3-1.5zm4-2l-3 1.5v2l3-1.5zm4-2l-3 1.5v2l3-1.5zm4-2l-3 1.5v2l3-1.5zm4-2l-3 1.5v2l3-1.5zm4-2l-3 1.5v2l3-1.5zm4-2l-3 1.5v2l3-1.5zm4-2l-3 1.5v2l3-1.5zm-58 26l-2 1v2l2-1zm4-2l-3 1.5v2l3-1.5zm4-2l-3 1.5v2l3-1.5zm4-2l-3 1.5v2l3-1.5zm4-2l-3 1.5v2l3-1.5zm4-2l-3 1.5v2l3-1.5zm4-2l-3 1.5v2l3-1.5zm4-2l-3 1.5v2l3-1.5zm4-2l-3 1.5v2l3-1.5zm4-2l-3 1.5v2l3-1.5zm4-2l-3 1.5v2l3-1.5zm4-2l-3 1.5v2l3-1.5zm4-2l-3 1.5v2l3-1.5zm4-2l-3 1.5v2l3-1.5zm4-2l-3 1.5v2l3-1.5zm4-2l-3 1.5v2l3-1.5zm-58 26l-3 1.5v2l3-1.5zm4-2l-3 1.5v2l3-1.5zm4-2l-3 1.5v2l3-1.5zm4-2l-3 1.5v2l3-1.5zm4-2l-3 1.5v2l3-1.5zm4-2l-3 1.5v2l3-1.5zm4-2l-3 1.5v2l3-1.5zm4-2l-3 1.5v2l3-1.5zm4-2l-3 1.5v2l3-1.5zm4-2l-3 1.5v2l3-1.5zm4-2l-3 1.5v2l3-1.5zm4-2l-3 1.5v2l3-1.5zm4-2l-3 1.5v2l3-1.5zm4-2l-3 1.5v2l3-1.5zm4-2l-3 1.5v2l3-1.5zm-58 26l-2 1v2l2-1zm4-2l-3 1.5v2l3-1.5zm4-2l-3 1.5v2l3-1.5zm4-2l-3 1.5v2l3-1.5zm4-2l-3 1.5v2l3-1.5zm4-2l-3 1.5v2l3-1.5zm4-2l-3 1.5v2l3-1.5zm4-2l-3 1.5v2l3-1.5zm4-2l-3 1.5v2l3-1.5zm4-2l-3 1.5v2l3-1.5zm4-2l-3 1.5v2l3-1.5zm4-2l-3 1.5v2l3-1.5zm4-2l-3 1.5v2l3-1.5zm4-2l-3 1.5v2l3-1.5zm4-2l-3 1.5v2l3-1.5zm4-2l-3 1.5v2l3-1.5zm-58 26l-3 1.5v2l3-1.5zm4-2l-3 1.5v2l3-1.5zm4-2l-3 1.5v2l3-1.5zm4-2l-3 1.5v2l3-1.5zm4-2l-3 1.5v2l3-1.5zm4-2l-3 1.5v2l3-1.5zm4-2l-3 1.5v2l3-1.5zm4-2l-3 1.5v2l3-1.5zm4-2l-3 1.5v2l3-1.5zm4-2l-3 1.5v2l3-1.5zm4-2l-3 1.5v2l3-1.5zm4-2l-3 1.5v2l3-1.5zm4-2l-3 1.5v2l3-1.5zm4-2l-3 1.5v2l3-1.5zm4-2l-3 1.5v2l3-1.5zm-58 26l-2 1v2l2-1zm4-2l-3 1.5v2l3-1.5zm4-2l-3 1.5v2l3-1.5zm4-2l-3 1.5v2l3-1.5zm4-2l-3 1.5v2l3-1.5zm4-2l-3 1.5v2l3-1.5zm4-2l-3 1.5v2l3-1.5zm4-2l-3 1.5v2l3-1.5zm4-2l-3 1.5v2l3-1.5zm4-2l-3 1.5v2l3-1.5zm4-2l-3 1.5v2l3-1.5zm4-2l-3 1.5v2l3-1.5zm4-2l-3 1.5v2l3-1.5zm4-2l-3 1.5v2l3-1.5zm4-2l-3 1.5v2l3-1.5zm4-2l-3 1.5v2l3-1.5zm-58 26l-3 1.5v2l3-1.5zm4-2l-3 1.5v2l3-1.5zm4-2l-3 1.5v2l3-1.5zm4-2l-3 1.5v2l3-1.5zm4-2l-3 1.5v2l3-1.5zm4-2l-3 1.5v2l3-1.5zm4-2l-3 1.5v2l3-1.5zm4-2l-3 1.5v2l3-1.5zm4-2l-3 1.5v2l3-1.5zm4-2l-3 1.5v2l3-1.5zm4-2l-3 1.5v2l3-1.5zm4-2l-3 1.5v2l3-1.5zm4-2l-3 1.5v2l3-1.5zm4-2l-3 1.5v2l3-1.5zm4-2l-3 1.5v2l3-1.5zm-58 26l-2 1v2l2-1zm4-2l-3 1.5v2l3-1.5zm4-2l-3 1.5v2l3-1.5zm4-2l-3 1.5v2l3-1.5zm4-2l-3 1.5v2l3-1.5zm4-2l-3 1.5v2l3-1.5zm4-2l-3 1.5v2l3-1.5zm4-2l-3 1.5v2l3-1.5zm4-2l-3 1.5v2l3-1.5zm4-2l-3 1.5v2l3-1.5zm4-2l-3 1.5v2l3-1.5zm4-2l-3 1.5v2l3-1.5zm4-2l-3 1.5v2l3-1.5zm4-2l-3 1.5v2l3-1.5zm4-2l-3 1.5v2l3-1.5zm4-2l-3 1.5v2l3-1.5zm2 38l-3 1.5v2l3-1.5zm0-6l-3 1.5v2l3-1.5zm0-6l-3 1.5v2l3-1.5zm0-6l-3 1.5v2l3-1.5zm0-6l-3 1.5v2l3-1.5zm0-6l-3 1.5v2l3-1.5zm0-3l-1 .5v2l1-.5zm0 6l-1 .5v2l1-.5zm0 6l-1 .5v2l1-.5zm0 6l-1 .5v2l1-.5zm0 6l-1 .5v2l1-.5zm0 6l-1 .5v2l1-.5zm0-33l-3 1.5v2l3-1.5z" transform="matrix(-1 0 0 1 1528 384)"/></g><path class="st6" d="M1286-301l-9 4.5v-11l9-4.5z" transform="matrix(-1 0 0 1 1528 384)"/><path class="st7" d="M1278-307v9l3-1.5v-9z" transform="matrix(-1 0 0 1 1528 384)"/><path class="st8" d="M1278-302v4l3-1.5z" transform="matrix(-1 0 0 1 1528 384)"/><path class="st7" d="M1282-309v9l3-1.5v-9z" transform="matrix(-1 0 0 1 1528 384)"/><path class="st9" d="M1281-307.5l-3 1.5v-1l3-1.5zm4-2l-3 1.5v-1l3-1.5z" transform="matrix(-1 0 0 1 1528 384)"/><path class="st9" d="M1285-302.5l-3-5.5v-1l3-1.5z" transform="matrix(-1 0 0 1 1528 384)"/><path class="st6" d="M1300-308l-9 4.5v-11l9-4.5z" transform="matrix(-1 0 0 1 1528 384)"/><path class="st7" d="M1292-314v9l3-1.5v-9zm4-2v9l3-1.5v-9z" transform="matrix(-1 0 0 1 1528 384)"/><path class="st9" d="M1295-314.5l-3 1.5v-1l3-1.5zm4-2l-3 1.5v-1l3-1.5z" transform="matrix(-1 0 0 1 1528 384)"/><path class="st9" d="M1299-308.5l-3-6.5v-1l3-1.5z" transform="matrix(-1 0 0 1 1528 384)"/><path class="st6" d="M1314-315l-9 4.5v-11l9-4.5z" transform="matrix(-1 0 0 1 1528 384)"/><path class="st7" d="M1306-321v9l3-1.5v-9z" transform="matrix(-1 0 0 1 1528 384)"/><path class="st8" d="M1306-316v4l3-1.5z" transform="matrix(-1 0 0 1 1528 384)"/><path class="st7" d="M1310-323v9l3-1.5v-9z" transform="matrix(-1 0 0 1 1528 384)"/><path class="st9" d="M1309-321.5l-3 1.5v-1l3-1.5zm4-2l-3 1.5v-1l3-1.5z" transform="matrix(-1 0 0 1 1528 384)"/><path class="st9" d="M1313-316.5l-3-5.5v-1l3-1.5z" transform="matrix(-1 0 0 1 1528 384)"/><path class="st6" d="M1328-322l-9 4.5v-11l9-4.5z" transform="matrix(-1 0 0 1 1528 384)"/><path class="st7" d="M1320-328v9l3-1.5v-9z" transform="matrix(-1 0 0 1 1528 384)"/><path class="st8" d="M1320-323v4l3-1.5z" transform="matrix(-1 0 0 1 1528 384)"/><path class="st7" d="M1324-330v9l3-1.5v-9z" transform="matrix(-1 0 0 1 1528 384)"/><path class="st9" d="M1323-328.5l-3 1.5v-1l3-1.5zm4-2l-3 1.5v-1l3-1.5z" transform="matrix(-1 0 0 1 1528 384)"/><path class="st9" d="M1327-323.5l-3-5.5v-1l3-1.5z" transform="matrix(-1 0 0 1 1528 384)"/><path class="st10" d="M1334-284v8l92-46v40l4-2v-48l-.6.3.6-.3-96-48-96 48v8l32 16 64-32 24 12-56 28 32 16" transform="matrix(-1 0 0 1 1528 384)"/><path class="st11" d="M1366-315l-32 5v-38l32 16zm-96 31l-32-16v-32l32 16z" transform="matrix(-1 0 0 1 1528 384)"/><path class="st4" d="M1270-236l-64-32v-25l64 32z" transform="matrix(-1 0 0 1 1528 384)"/><g class="st5"><path class="st6" d="M1266-241l3 1.5v2l-3-1.5zm-4-2l3 1.5v2l-3-1.5zm-4-2l3 1.5v2l-3-1.5zm-4-2l3 1.5v2l-3-1.5zm-4-2l3 1.5v2l-3-1.5zm-4-2l3 1.5v2l-3-1.5zm-4-2l3 1.5v2l-3-1.5zm-4-2l3 1.5v2l-3-1.5zm-4-2l3 1.5v2l-3-1.5zm-4-2l3 1.5v2l-3-1.5zm-4-2l3 1.5v2l-3-1.5zm-4-2l3 1.5v2l-3-1.5zm-4-2l3 1.5v2l-3-1.5zm-4-2l3 1.5v2l-3-1.5zm-4-2l3 1.5v2l-3-1.5zm58 26l2 1v2l-2-1zm-4-2l3 1.5v2l-3-1.5zm-4-2l3 1.5v2l-3-1.5zm-4-2l3 1.5v2l-3-1.5zm-4-2l3 1.5v2l-3-1.5zm-4-2l3 1.5v2l-3-1.5zm-4-2l3 1.5v2l-3-1.5zm-4-2l3 1.5v2l-3-1.5zm-4-2l3 1.5v2l-3-1.5zm-4-2l3 1.5v2l-3-1.5zm-4-2l3 1.5v2l-3-1.5zm-4-2l3 1.5v2l-3-1.5zm-4-2l3 1.5v2l-3-1.5zm-4-2l3 1.5v2l-3-1.5zm-4-2l3 1.5v2l-3-1.5zm-4-2l3 1.5v2l-3-1.5zm58 26l3 1.5v2l-3-1.5zm-4-2l3 1.5v2l-3-1.5zm-4-2l3 1.5v2l-3-1.5zm-4-2l3 1.5v2l-3-1.5zm-4-2l3 1.5v2l-3-1.5zm-4-2l3 1.5v2l-3-1.5zm-4-2l3 1.5v2l-3-1.5zm-4-2l3 1.5v2l-3-1.5zm-4-2l3 1.5v2l-3-1.5zm-4-2l3 1.5v2l-3-1.5zm-4-2l3 1.5v2l-3-1.5zm-4-2l3 1.5v2l-3-1.5zm-4-2l3 1.5v2l-3-1.5zm-4-2l3 1.5v2l-3-1.5zm-4-2l3 1.5v2l-3-1.5zm58 26l2 1v2l-2-1zm-4-2l3 1.5v2l-3-1.5zm-4-2l3 1.5v2l-3-1.5zm-4-2l3 1.5v2l-3-1.5zm-4-2l3 1.5v2l-3-1.5zm-4-2l3 1.5v2l-3-1.5zm-4-2l3 1.5v2l-3-1.5zm-4-2l3 1.5v2l-3-1.5zm-4-2l3 1.5v2l-3-1.5zm-4-2l3 1.5v2l-3-1.5zm-4-2l3 1.5v2l-3-1.5zm-4-2l3 1.5v2l-3-1.5zm-4-2l3 1.5v2l-3-1.5zm-4-2l3 1.5v2l-3-1.5zm-4-2l3 1.5v2l-3-1.5zm-4-2l3 1.5v2l-3-1.5zm58 26l3 1.5v2l-3-1.5zm-4-2l3 1.5v2l-3-1.5zm-4-2l3 1.5v2l-3-1.5zm-4-2l3 1.5v2l-3-1.5zm-4-2l3 1.5v2l-3-1.5zm-4-2l3 1.5v2l-3-1.5zm-4-2l3 1.5v2l-3-1.5zm-4-2l3 1.5v2l-3-1.5zm-4-2l3 1.5v2l-3-1.5zm-4-2l3 1.5v2l-3-1.5zm-4-2l3 1.5v2l-3-1.5zm-4-2l3 1.5v2l-3-1.5zm-4-2l3 1.5v2l-3-1.5zm-4-2l3 1.5v2l-3-1.5zm-4-2l3 1.5v2l-3-1.5zm58 26l2 1v2l-2-1zm-4-2l3 1.5v2l-3-1.5zm-4-2l3 1.5v2l-3-1.5zm-4-2l3 1.5v2l-3-1.5zm-4-2l3 1.5v2l-3-1.5zm-4-2l3 1.5v2l-3-1.5zm-4-2l3 1.5v2l-3-1.5zm-4-2l3 1.5v2l-3-1.5zm-4-2l3 1.5v2l-3-1.5zm-4-2l3 1.5v2l-3-1.5zm-4-2l3 1.5v2l-3-1.5zm-4-2l3 1.5v2l-3-1.5zm-4-2l3 1.5v2l-3-1.5zm-4-2l3 1.5v2l-3-1.5zm-4-2l3 1.5v2l-3-1.5zm-4-2l3 1.5v2l-3-1.5zm58 26l3 1.5v2l-3-1.5zm-4-2l3 1.5v2l-3-1.5zm-4-2l3 1.5v2l-3-1.5zm-4-2l3 1.5v2l-3-1.5zm-4-2l3 1.5v2l-3-1.5zm-4-2l3 1.5v2l-3-1.5zm-4-2l3 1.5v2l-3-1.5zm-4-2l3 1.5v2l-3-1.5zm-4-2l3 1.5v2l-3-1.5zm-4-2l3 1.5v2l-3-1.5zm-4-2l3 1.5v2l-3-1.5zm-4-2l3 1.5v2l-3-1.5zm-4-2l3 1.5v2l-3-1.5zm-4-2l3 1.5v2l-3-1.5zm-4-2l3 1.5v2l-3-1.5zm58 26l2 1v2l-2-1zm-4-2l3 1.5v2l-3-1.5zm-4-2l3 1.5v2l-3-1.5zm-4-2l3 1.5v2l-3-1.5zm-4-2l3 1.5v2l-3-1.5zm-4-2l3 1.5v2l-3-1.5zm-4-2l3 1.5v2l-3-1.5zm-4-2l3 1.5v2l-3-1.5zm-4-2l3 1.5v2l-3-1.5zm-4-2l3 1.5v2l-3-1.5zm-4-2l3 1.5v2l-3-1.5zm-4-2l3 1.5v2l-3-1.5zm-4-2l3 1.5v2l-3-1.5zm-4-2l3 1.5v2l-3-1.5zm-4-2l3 1.5v2l-3-1.5zm-4-2l3 1.5v2l-3-1.5zm-2 20l3 1.5v2l-3-1.5zm0-3l1 .5v2l-1-.5zm0-3l3 1.5v2l-3-1.5zm0-3l1 .5v2l-1-.5zm0-3l3 1.5v2l-3-1.5zm0-3l1 .5v2l-1-.5zm0-3l3 1.5v2l-3-1.5zm0-3l1 .5v2l-1-.5zm60 27l3 1.5v2l-3-1.5zm-4-2l3 1.5v2l-3-1.5zm-4-2l3 1.5v2l-3-1.5zm-4-2l3 1.5v2l-3-1.5zm-4-2l3 1.5v2l-3-1.5zm-4-2l3 1.5v2l-3-1.5zm-4-2l3 1.5v2l-3-1.5zm-4-2l3 1.5v2l-3-1.5zm-4-2l3 1.5v2l-3-1.5zm-4-2l3 1.5v2l-3-1.5zm-4-2l3 1.5v2l-3-1.5zm-4-2l3 1.5v2l-3-1.5zm-4-2l3 1.5v2l-3-1.5zm-4-2l3 1.5v2l-3-1.5zm-4-2l3 1.5v2l-3-1.5z" transform="matrix(-1 0 0 1 1528 384)"/></g><path class="st10" d="M1302-284l-64-32-32 16v8l64 32v-8z" transform="matrix(-1 0 0 1 1528 384)"/><path class="st12" d="M1264-239l-22-11v-18l22 11z" transform="matrix(-1 0 0 1 1528 384)"/><path class="st6" d="M1243-266.5l20 10v17l-20-10z" transform="matrix(-1 0 0 1 1528 384)"/><path class="st13" d="M1263-240.5l-20-10v-1l20 10zm0-2l-20-10v-1l20 10zm0-2l-20-10v-1l20 10zm0-2l-20-10v-1l20 10zm0-2l-20-10v-1l20 10zm0-2l-20-10v-1l20 10zm0-2l-20-10v-1l20 10zm0-2l-20-10v-1l20 10z" transform="matrix(-1 0 0 1 1528 384)"/><path class="st12" d="M1232-255l-22-11v-18l22 11z" transform="matrix(-1 0 0 1 1528 384)"/><path class="st6" d="M1211-282.5l20 10v17l-20-10z" transform="matrix(-1 0 0 1 1528 384)"/><path class="st13" d="M1231-256.5l-20-10v-1l20 10zm0-2l-20-10v-1l20 10zm0-2l-20-10v-1l20 10zm0-2l-20-10v-1l20 10zm0-2l-20-10v-1l20 10zm0-2l-20-10v-1l20 10zm0-2l-20-10v-1l20 10zm0-2l-20-10v-1l20 10z" transform="matrix(-1 0 0 1 1528 384)"/><path class="st14" d="M1270-283l64-32v-33l-64 32zm64 47l96-48v-48l-96 48z" transform="matrix(-1 0 0 1 1528 384)"/><path class="st10" d="M1334-380l-96 48 32 16 64-32 32 16-64 32 32 16 96-48z" transform="matrix(-1 0 0 1 1528 384)"/><path class="st15" d="M1310.9-300l64-32-40.9-20.5-64 32-23.1-11.5 87.1-43.6 87.1 43.6-87.1 43.5z" transform="matrix(-1 0 0 1 1528 384)"/><path class="st11" d="M1334-373.1l84.5 42.3 2.6-1.2-87.1-43.6z" transform="matrix(-1 0 0 1 1528 384)"/><path class="st14" d="M1334-373.1v-2.5l-87.1 43.6 2.6 1.2zm40.9 41.1l-64 32 2.6 1.2 61.4-30.7z" transform="matrix(-1 0 0 1 1528 384)"/><path class="st11" d="M1238-309.1l52.5 26.3 2.6-1.2-55.1-27.6z" transform="matrix(-1 0 0 1 1528 384)"/><path class="st15" d="M1214.9-300l23.1-11.6 55.1 27.6-23.1 11.5z" transform="matrix(-1 0 0 1 1528 384)"/><path class="st14" d="M1238-309.1v-2.5l-23.1 11.6 2.6 1.2z" transform="matrix(-1 0 0 1 1528 384)"/><path class="st10" d="M1302-316l-32 16v32l32 16 32-16v-32z" transform="matrix(-1 0 0 1 1528 384)"/><path class="st15" d="M1278.1-300l23.9-12 23.9 12-23.9 11.9z" transform="matrix(-1 0 0 1 1528 384)"/><path class="st14" d="M1278.1-300l2 1 21.9-11v-2z" transform="matrix(-1 0 0 1 1528 384)"/><path class="st11" d="M1325.9-300l-23.9-12v2l21.9 11z" transform="matrix(-1 0 0 1 1528 384)"/><path class="st7" d="M1302-278l29-14.5v58l-29 14.5z" transform="matrix(-1 0 0 1 1528 384)"/><path class="st9" d="M1331-290.5l-29 14.5v-1l29-14.5z" transform="matrix(-1 0 0 1 1528 384)"/><path class="st9" d="M1331-288.5l-29 14.5v-3l29-14.5zm-5 41.5l-19 9.5v-1l19-9.5z" transform="matrix(-1 0 0 1 1528 384)"/><path class="st9" d="M1326-245l-19 9.5v-3l19-9.5z" transform="matrix(-1 0 0 1 1528 384)"/><path class="st9" d="M1326-240l-19 1.5 19-9.5z" transform="matrix(-1 0 0 1 1528 384)"/><path class="st16" d="M1332-282l-30 15v-1l30-15zm0 10l-30 15v-1l30-15zm0 10l-30 15v-1l30-15zm0 10l-30 15v-1l30-15z" transform="matrix(-1 0 0 1 1528 384)"/><path class="st17" d="M1307-222.5l-1 .5v-59l1-.5zm5-2.5l-1 .5v-59l1-.5zm5-2.5l-1 .5v-59l1-.5zm5-2.5l-1 .5v-59l1-.5zm5-2.5l-1 .5v-59l1-.5z" transform="matrix(-1 0 0 1 1528 384)"/><path class="st10" d="M1302-284l32-16v64l-3 1.5v-57l-29 14.5z" transform="matrix(-1 0 0 1 1528 384)"/><path class="st8" d="M1321-247.5l-4 2v-9l4-2zm5-12.5l-4 2v-9l4-2zm5-12.5l-4 2v-9l4-2z" transform="matrix(-1 0 0 1 1528 384)"/><path class="st18" d="M1331-282.5l-4 2v-9l4-2zm-5 12.5l-4 2v-9l4-2zm-5 12.5l-4 2v-9l4-2zm-5 12.5l-4 2v-9l4-2z" transform="matrix(-1 0 0 1 1528 384)"/><path class="st8" d="M1320-229l-13 6.5v-12z" transform="matrix(-1 0 0 1 1528 384)"/><path class="st18" d="M1311-262.5l-4 2v-9l4-2zm5-11.5l-4 2v-9l4-2zm-10 24l-4 2v-9l4-2z" transform="matrix(-1 0 0 1 1528 384)"/><path class="st6" d="M1328-233v-19l-23 11.5v19l2-1v-16l19-9.5v16z" transform="matrix(-1 0 0 1 1528 384)"/><path class="st14" d="M1302-284l32-16v64l-32 16z" transform="matrix(-1 0 0 1 1528 384)"/><path class="st7" d="M1302-278l-29-14.5v58l29 14.5z" transform="matrix(-1 0 0 1 1528 384)"/><path class="st9" d="M1273-290.5l29 14.5v-1l-29-14.5z" transform="matrix(-1 0 0 1 1528 384)"/><path class="st9" d="M1273-288.5l29 14.5v-3l-29-14.5z" transform="matrix(-1 0 0 1 1528 384)"/><path class="st16" d="M1272-282l30 15v-1l-30-15zm0 10l30 15v-1l-30-15zm0 10l30 15v-1l-30-15zm0 10l30 15v-1l-30-15z" transform="matrix(-1 0 0 1 1528 384)"/><path class="st17" d="M1297-222.5l1 .5v-59l-1-.5zm-5-2.5l1 .5v-59l-1-.5zm-5-2.5l1 .5v-59l-1-.5zm-5-2.5l1 .5v-59l-1-.5zm-5-2.5l1 .5v-59l-1-.5z" transform="matrix(-1 0 0 1 1528 384)"/><path class="st8" d="M1292-243l-4-2v-9l4 2zm5-7.5l-4-2v-9l4 2zm5-7.5l-4-2v-9l4 2z" transform="matrix(-1 0 0 1 1528 384)"/><path class="st18" d="M1302-268l-4-2v-9l4 2zm-5 7.5l-4-2v-9l4 2zm-5 7.5l-4-2v-9l4 2zm-5 7.5l-4-2v-9l4 2zm-5-22.5l-4-2v-9l4 2zm5-6.5l-4-2v-9l4 2zm-10 14l-4-2v-9l4 2z" transform="matrix(-1 0 0 1 1528 384)"/><path class="st10" d="M1302-284l-32-16v64l3 1.5v-57l29 14.5z" transform="matrix(-1 0 0 1 1528 384)"/><path class="st11" d="M1302-284l-32-16v64l32 16zm-32 48l-64-32v-32l64 32z" transform="matrix(-1 0 0 1 1528 384)"/><path class="st10" d="M1290-299l14-7 2 1-14 7zm8 4l14-7 2 1-14 7z" transform="matrix(-1 0 0 1 1528 384)"/><path class="st10" d="M1300-303l8 4-2 1-8-4zm-60-4l-12 6v4l12 6 12-6v-4z" transform="matrix(-1 0 0 1 1528 384)"/><path class="st14" d="M1252-297l-12 6v-4l12-6z" transform="matrix(-1 0 0 1 1528 384)"/><path class="st11" d="M1228-297l12 6v-4l-12-6z" transform="matrix(-1 0 0 1 1528 384)"/><path class="st10" d="M1254-300l-12 6v4l12 6 12-6v-4z" transform="matrix(-1 0 0 1 1528 384)"/><path class="st14" d="M1266-290l-12 6v-4l12-6z" transform="matrix(-1 0 0 1 1528 384)"/><path class="st11" d="M1242-290l12 6v-4l-12-6z" transform="matrix(-1 0 0 1 1528 384)"/></g><g id="i1388_1_"><path class="st0" d="M-1196-375l-2-1-2 1v18l2 1 2-1z" transform="translate(1264 504)"/><path class="st2" d="M-1198-356l2-1v-18l-2 1z" transform="translate(1264 504)"/><path class="st1" d="M-1198-356l-2-1v-18l2 1z" transform="translate(1264 504)"/><path class="st3" d="M-1137-338.5l3 1.5 1-.5-4-2v-.5l-.5-3-.5 2.5v.5l-1-.5v-.5l-.5-3-.5 2.5v.5l-1-.5v-.5l-.5-3-.5 2.5v.5l-1-.5v-.5l-.5-3-.5 2.5v.5l-1-.5v-.5l-.5-3-.5 2.5v.5l-1-.5v-.5l-.5-3-.5 2.5v.5l-1-.5v-.5l-.5-3-.5 2.5v.5l-1-.5v-.5l-.5-3-.5 2.5v.5l-1-.5v-.5l-.5-3-.5 2.5v.5l-1-.5v-.5l-.5-3-.5 2.5v.5l-1-.5v-.5l-.5-3-.5 2.5v.5l-1-.5v-.5l-.5-3-.5 2.5v.5l-1-.5v-.5l-.5-3-.5 2.5v.5l-1-.5v-.5l-.5-3-.5 2.5v.5l-1-.5v-.5l-.5-3-.5 2.5v.5l-1-.5v-.5l-.5-3-.5 2.5v.5l-1-.5v-.5l-.5-3-.5 2.5v.5l-1-.5v-.5l-.5-3-.5 2.5v.5l-1-.5v-.5l-.5-3-.5 2.5v.5l-1-.5v-.5l-.5-3-.5 2.5v.5l-1-.5v-.5l-.5-3-.5 2.5v.5l-1-.5v-.5l-.5-3-.5 2.5v.5l-1-.5v-.5l-.5-3-.5 2.5v.5l-1-.5v-.5l-.5-3-.5 2.5v.5l-1-.5v-.5l-.5-3-.5 2.5v.5l-1-.5v-.5l-.5-3-.5 2.5v.5l-1-.5v-.5l-.5-3-.5 2.5v.5l-1-.5v-.5l-.5-3-.5 2.5v.5l-1-.5v-.5l-.5-3-.5 2.5v.5l-1-.5v-.5l-.5-3-.5 2.5v.5l-1 .5 1 .5v2l-1 .5 1 .5v9.5l1 .5v-9.5l1 .5v9.5l1 .5v-9.5l1 .5v9.5l1 .5v-9.5l1 .5v9.5l1 .5v-9.5l1 .5v9.5l1 .5v-9.5l1 .5v9.5l1 .5v-9.5l1 .5v9.5l1 .5v-9.5l1 .5v9.5l1 .5v-9.5l1 .5v9.5l1 .5v-9.5l1 .5v9.5l1 .5v-9.5l1 .5v9.5l1 .5v-9.5l1 .5v9.5l1 .5v-9.5l1 .5v9.5l1 .5v-9.5l1 .5v9.5l1 .5v-9.5l1 .5v9.5l1 .5v-9.5l1 .5v9.5l1 .5v-9.5l1 .5v9.5l1 .5v-9.5l1 .5v9.5l1 .5v-9.5l1 .5v9.5l1 .5v-9.5l1 .5v9.5l1 .5v-9.5l1 .5v9.5l1 .5v-9.5l1 .5v9.5l1 .5v-9.5l1 .5v9.5l1 .5v-9.5l1 .5v9.5l1 .5v-9.5l1 .5v9.5l1 .5v-9.5l1 .5v9.5l1 .5v-9.5l1 .5v9.5l1 .5v-9.5l1 .5v9.5l1 .5v-9.5l1 .5v9.5l1 .5v-9.5l1 .5v9.5l1 .5v-9.5l3 1.5 1-.5-4-2v-2zm-58-27v-2l1 .5v2l-1-.5zm2 1v-2l1 .5v2l-1-.5zm2 1v-2l1 .5v2l-1-.5zm2 1v-2l1 .5v2l-1-.5zm2 1v-2l1 .5v2l-1-.5zm2 1v-2l1 .5v2l-1-.5zm2 1v-2l1 .5v2l-1-.5zm2 1v-2l1 .5v2l-1-.5zm2 1v-2l1 .5v2l-1-.5zm2 1v-2l1 .5v2l-1-.5zm2 1v-2l1 .5v2l-1-.5zm2 1v-2l1 .5v2l-1-.5zm2 1v-2l1 .5v2l-1-.5zm2 1v-2l1 .5v2l-1-.5zm2 1v-2l1 .5v2l-1-.5zm2 1v-2l1 .5v2l-1-.5zm2 1v-2l1 .5v2l-1-.5zm2 1v-2l1 .5v2l-1-.5zm2 1v-2l1 .5v2l-1-.5zm2 1v-2l1 .5v2l-1-.5zm2 1v-2l1 .5v2l-1-.5zm2 1v-2l1 .5v2l-1-.5zm2 1v-2l1 .5v2l-1-.5zm2 1v-2l1 .5v2l-1-.5zm2 1v-2l1 .5v2l-1-.5zm2 1v-2l1 .5v2l-1-.5zm2 1v-2l1 .5v2l-1-.5zm2 1v-2l1 .5v2l-1-.5zm2 1v-2l1 .5v2l-1-.5z" transform="translate(1264 504)"/><path class="st0" d="M-1132-343l-2-1-2 1v18l2 1 2-1z" transform="translate(1264 504)"/><path class="st2" d="M-1134-324l2-1v-18l-2 1z" transform="translate(1264 504)"/><path class="st1" d="M-1134-324l-2-1v-18l2 1z" transform="translate(1264 504)"/></g><g id="i1390_1_"><path class="st0" d="M-1196-375l-2-1-2 1v18l2 1 2-1z" transform="translate(1200 472)"/><path class="st2" d="M-1198-356l2-1v-18l-2 1z" transform="translate(1200 472)"/><path class="st1" d="M-1198-356l-2-1v-18l2 1z" transform="translate(1200 472)"/><path class="st3" d="M-1137-338.5l3 1.5 1-.5-4-2v-.5l-.5-3-.5 2.5v.5l-1-.5v-.5l-.5-3-.5 2.5v.5l-1-.5v-.5l-.5-3-.5 2.5v.5l-1-.5v-.5l-.5-3-.5 2.5v.5l-1-.5v-.5l-.5-3-.5 2.5v.5l-1-.5v-.5l-.5-3-.5 2.5v.5l-1-.5v-.5l-.5-3-.5 2.5v.5l-1-.5v-.5l-.5-3-.5 2.5v.5l-1-.5v-.5l-.5-3-.5 2.5v.5l-1-.5v-.5l-.5-3-.5 2.5v.5l-1-.5v-.5l-.5-3-.5 2.5v.5l-1-.5v-.5l-.5-3-.5 2.5v.5l-1-.5v-.5l-.5-3-.5 2.5v.5l-1-.5v-.5l-.5-3-.5 2.5v.5l-1-.5v-.5l-.5-3-.5 2.5v.5l-1-.5v-.5l-.5-3-.5 2.5v.5l-1-.5v-.5l-.5-3-.5 2.5v.5l-1-.5v-.5l-.5-3-.5 2.5v.5l-1-.5v-.5l-.5-3-.5 2.5v.5l-1-.5v-.5l-.5-3-.5 2.5v.5l-1-.5v-.5l-.5-3-.5 2.5v.5l-1-.5v-.5l-.5-3-.5 2.5v.5l-1-.5v-.5l-.5-3-.5 2.5v.5l-1-.5v-.5l-.5-3-.5 2.5v.5l-1-.5v-.5l-.5-3-.5 2.5v.5l-1-.5v-.5l-.5-3-.5 2.5v.5l-1-.5v-.5l-.5-3-.5 2.5v.5l-1-.5v-.5l-.5-3-.5 2.5v.5l-1-.5v-.5l-.5-3-.5 2.5v.5l-1-.5v-.5l-.5-3-.5 2.5v.5l-1 .5 1 .5v2l-1 .5 1 .5v9.5l1 .5v-9.5l1 .5v9.5l1 .5v-9.5l1 .5v9.5l1 .5v-9.5l1 .5v9.5l1 .5v-9.5l1 .5v9.5l1 .5v-9.5l1 .5v9.5l1 .5v-9.5l1 .5v9.5l1 .5v-9.5l1 .5v9.5l1 .5v-9.5l1 .5v9.5l1 .5v-9.5l1 .5v9.5l1 .5v-9.5l1 .5v9.5l1 .5v-9.5l1 .5v9.5l1 .5v-9.5l1 .5v9.5l1 .5v-9.5l1 .5v9.5l1 .5v-9.5l1 .5v9.5l1 .5v-9.5l1 .5v9.5l1 .5v-9.5l1 .5v9.5l1 .5v-9.5l1 .5v9.5l1 .5v-9.5l1 .5v9.5l1 .5v-9.5l1 .5v9.5l1 .5v-9.5l1 .5v9.5l1 .5v-9.5l1 .5v9.5l1 .5v-9.5l1 .5v9.5l1 .5v-9.5l1 .5v9.5l1 .5v-9.5l1 .5v9.5l1 .5v-9.5l1 .5v9.5l1 .5v-9.5l1 .5v9.5l1 .5v-9.5l1 .5v9.5l1 .5v-9.5l1 .5v9.5l1 .5v-9.5l1 .5v9.5l1 .5v-9.5l3 1.5 1-.5-4-2v-2zm-58-27v-2l1 .5v2l-1-.5zm2 1v-2l1 .5v2l-1-.5zm2 1v-2l1 .5v2l-1-.5zm2 1v-2l1 .5v2l-1-.5zm2 1v-2l1 .5v2l-1-.5zm2 1v-2l1 .5v2l-1-.5zm2 1v-2l1 .5v2l-1-.5zm2 1v-2l1 .5v2l-1-.5zm2 1v-2l1 .5v2l-1-.5zm2 1v-2l1 .5v2l-1-.5zm2 1v-2l1 .5v2l-1-.5zm2 1v-2l1 .5v2l-1-.5zm2 1v-2l1 .5v2l-1-.5zm2 1v-2l1 .5v2l-1-.5zm2 1v-2l1 .5v2l-1-.5zm2 1v-2l1 .5v2l-1-.5zm2 1v-2l1 .5v2l-1-.5zm2 1v-2l1 .5v2l-1-.5zm2 1v-2l1 .5v2l-1-.5zm2 1v-2l1 .5v2l-1-.5zm2 1v-2l1 .5v2l-1-.5zm2 1v-2l1 .5v2l-1-.5zm2 1v-2l1 .5v2l-1-.5zm2 1v-2l1 .5v2l-1-.5zm2 1v-2l1 .5v2l-1-.5zm2 1v-2l1 .5v2l-1-.5zm2 1v-2l1 .5v2l-1-.5zm2 1v-2l1 .5v2l-1-.5zm2 1v-2l1 .5v2l-1-.5z" transform="translate(1200 472)"/><path class="st0" d="M-1132-343l-2-1-2 1v18l2 1 2-1z" transform="translate(1200 472)"/><path class="st2" d="M-1134-324l2-1v-18l-2 1z" transform="translate(1200 472)"/><path class="st1" d="M-1134-324l-2-1v-18l2 1z" transform="translate(1200 472)"/></g><g id="i1391_1_"><path class="st0" d="M-1136-375l2-1 2 1v18l-2 1-2-1z" transform="translate(1200 440)"/><path class="st1" d="M-1134-356l-2-1v-18l2 1z" transform="translate(1200 440)"/><path class="st2" d="M-1134-356l2-1v-18l-2 1z" transform="translate(1200 440)"/><path class="st3" d="M-1136-366v-2l1-.5-1-.5v-.5l-.5-2.5-.5 3v.5l-1 .5v-.5l-.5-2.5-.5 3v.5l-1 .5v-.5l-.5-2.5-.5 3v.5l-1 .5v-.5l-.5-2.5-.5 3v.5l-1 .5v-.5l-.5-2.5-.5 3v.5l-1 .5v-.5l-.5-2.5-.5 3v.5l-1 .5v-.5l-.5-2.5-.5 3v.5l-1 .5v-.5l-.5-2.5-.5 3v.5l-1 .5v-.5l-.5-2.5-.5 3v.5l-1 .5v-.5l-.5-2.5-.5 3v.5l-1 .5v-.5l-.5-2.5-.5 3v.5l-1 .5v-.5l-.5-2.5-.5 3v.5l-1 .5v-.5l-.5-2.5-.5 3v.5l-1 .5v-.5l-.5-2.5-.5 3v.5l-1 .5v-.5l-.5-2.5-.5 3v.5l-1 .5v-.5l-.5-2.5-.5 3v.5l-1 .5v-.5l-.5-2.5-.5 3v.5l-1 .5v-.5l-.5-2.5-.5 3v.5l-1 .5v-.5l-.5-2.5-.5 3v.5l-1 .5v-.5l-.5-2.5-.5 3v.5l-1 .5v-.5l-.5-2.5-.5 3v.5l-1 .5v-.5l-.5-2.5-.5 3v.5l-1 .5v-.5l-.5-2.5-.5 3v.5l-1 .5v-.5l-.5-2.5-.5 3v.5l-1 .5v-.5l-.5-2.5-.5 3v.5l-1 .5v-.5l-.5-2.5-.5 3v.5l-1 .5v-.5l-.5-2.5-.5 3v.5l-1 .5v-.5l-.5-2.5-.5 3v.5l-1 .5v-.5l-.5-2.5-.5 3v.5l-1 .5v-.5l-.5-2.5-.5 3v.5l-4 2 1 .5 3-1.5v2l-4 2 1 .5 3-1.5v9.5l1-.5v-9.5l1-.5v9.5l1-.5v-9.5l1-.5v9.5l1-.5v-9.5l1-.5v9.5l1-.5v-9.5l1-.5v9.5l1-.5v-9.5l1-.5v9.5l1-.5v-9.5l1-.5v9.5l1-.5v-9.5l1-.5v9.5l1-.5v-9.5l1-.5v9.5l1-.5v-9.5l1-.5v9.5l1-.5v-9.5l1-.5v9.5l1-.5v-9.5l1-.5v9.5l1-.5v-9.5l1-.5v9.5l1-.5v-9.5l1-.5v9.5l1-.5v-9.5l1-.5v9.5l1-.5v-9.5l1-.5v9.5l1-.5v-9.5l1-.5v9.5l1-.5v-9.5l1-.5v9.5l1-.5v-9.5l1-.5v9.5l1-.5v-9.5l1-.5v9.5l1-.5v-9.5l1-.5v9.5l1-.5v-9.5l1-.5v9.5l1-.5v-9.5l1-.5v9.5l1-.5v-9.5l1-.5v9.5l1-.5v-9.5l1-.5v9.5l1-.5v-9.5l1-.5v9.5l1-.5v-9.5l1-.5v9.5l1-.5v-9.5l1-.5v9.5l1-.5v-9.5l1-.5v9.5l1-.5v-9.5l1-.5v9.5l1-.5v-9.5l1-.5-1-.5zm-58 29v-2l1-.5v2l-1 .5zm2-1v-2l1-.5v2l-1 .5zm2-1v-2l1-.5v2l-1 .5zm2-1v-2l1-.5v2l-1 .5zm2-1v-2l1-.5v2l-1 .5zm2-1v-2l1-.5v2l-1 .5zm2-1v-2l1-.5v2l-1 .5zm2-1v-2l1-.5v2l-1 .5zm2-1v-2l1-.5v2l-1 .5zm2-1v-2l1-.5v2l-1 .5zm2-1v-2l1-.5v2l-1 .5zm2-1v-2l1-.5v2l-1 .5zm2-1v-2l1-.5v2l-1 .5zm2-1v-2l1-.5v2l-1 .5zm2-1v-2l1-.5v2l-1 .5zm2-1v-2l1-.5v2l-1 .5zm2-1v-2l1-.5v2l-1 .5zm2-1v-2l1-.5v2l-1 .5zm2-1v-2l1-.5v2l-1 .5zm2-1v-2l1-.5v2l-1 .5zm2-1v-2l1-.5v2l-1 .5zm2-1v-2l1-.5v2l-1 .5zm2-1v-2l1-.5v2l-1 .5zm2-1v-2l1-.5v2l-1 .5zm2-1v-2l1-.5v2l-1 .5zm2-1v-2l1-.5v2l-1 .5zm2-1v-2l1-.5v2l-1 .5zm2-1v-2l1-.5v2l-1 .5zm2-1v-2l1-.5v2l-1 .5z" transform="translate(1200 440)"/><path class="st0" d="M-1200-343l2-1 2 1v18l-2 1-2-1z" transform="translate(1200 440)"/><path class="st1" d="M-1198-324l-2-1v-18l2 1z" transform="translate(1200 440)"/><path class="st2" d="M-1198-324l2-1v-18l-2 1z" transform="translate(1200 440)"/></g><g id="i1399_1_"><path class="st0" d="M-1184-375l2-1 2 1v18l-2 1-2-1z" transform="translate(1328 528)"/><path class="st1" d="M-1182-356l-2-1v-18l2 1z" transform="translate(1328 528)"/><path class="st2" d="M-1182-356l2-1v-18l-2 1z" transform="translate(1328 528)"/><path class="st3" d="M-1184-366v-2l1-.5-1-.5v-.5l-.5-2.5-.5 3v.5l-1 .5v-.5l-.5-2.5-.5 3v.5l-1 .5v-.5l-.5-2.5-.5 3v.5l-1 .5v-.5l-.5-2.5-.5 3v.5l-1 .5v-.5l-.5-2.5-.5 3v.5l-1 .5v-.5l-.5-2.5-.5 3v.5l-4 2 1 .5 3-1.5v2l-4 2 1 .5 3-1.5v9.5l1-.5v-9.5l1-.5v9.5l1-.5v-9.5l1-.5v9.5l1-.5v-9.5l1-.5v9.5l1-.5v-9.5l1-.5v9.5l1-.5v-9.5l1-.5v9.5l1-.5v-9.5l1-.5-1-.5zm-10 5v-2l1-.5v2l-1 .5zm2-1v-2l1-.5v2l-1 .5zm2-1v-2l1-.5v2l-1 .5zm2-1v-2l1-.5v2l-1 .5zm2-1v-2l1-.5v2l-1 .5z" transform="translate(1328 528)"/><path class="st0" d="M-1200-367l2-1 2 1v18l-2 1-2-1z" transform="translate(1328 528)"/><path class="st1" d="M-1198-348l-2-1v-18l2 1z" transform="translate(1328 528)"/><path class="st2" d="M-1198-348l2-1v-18l-2 1z" transform="translate(1328 528)"/></g><g id="i1400_1_"><path class="st0" d="M-1184-375l2-1 2 1v18l-2 1-2-1z" transform="translate(1376 504)"/><path class="st1" d="M-1182-356l-2-1v-18l2 1z" transform="translate(1376 504)"/><path class="st2" d="M-1182-356l2-1v-18l-2 1z" transform="translate(1376 504)"/><path class="st3" d="M-1184-366v-2l1-.5-1-.5v-.5l-.5-2.5-.5 3v.5l-1 .5v-.5l-.5-2.5-.5 3v.5l-1 .5v-.5l-.5-2.5-.5 3v.5l-1 .5v-.5l-.5-2.5-.5 3v.5l-1 .5v-.5l-.5-2.5-.5 3v.5l-1 .5v-.5l-.5-2.5-.5 3v.5l-4 2 1 .5 3-1.5v2l-4 2 1 .5 3-1.5v9.5l1-.5v-9.5l1-.5v9.5l1-.5v-9.5l1-.5v9.5l1-.5v-9.5l1-.5v9.5l1-.5v-9.5l1-.5v9.5l1-.5v-9.5l1-.5v9.5l1-.5v-9.5l1-.5-1-.5zm-10 5v-2l1-.5v2l-1 .5zm2-1v-2l1-.5v2l-1 .5zm2-1v-2l1-.5v2l-1 .5zm2-1v-2l1-.5v2l-1 .5zm2-1v-2l1-.5v2l-1 .5z" transform="translate(1376 504)"/><path class="st0" d="M-1200-367l2-1 2 1v18l-2 1-2-1z" transform="translate(1376 504)"/><path class="st1" d="M-1198-348l-2-1v-18l2 1z" transform="translate(1376 504)"/><path class="st2" d="M-1198-348l2-1v-18l-2 1z" transform="translate(1376 504)"/></g><g transform="translate(1360 416)" id="i1475_1_"><ellipse class="st19" cx="-1190" cy="-344" rx="8" ry="4"/><path class="st20" d="M-1189-376h-2v32.3c0 .3.4.5 1 .5s1-.2 1-.5V-376z"/><path class="st19" d="M-1189-376h-2v32.3c0 .3.4.5 1 .5s1-.2 1-.5V-376z"/><path class="st21" d="M-1190-378l13 1 3 5z"/><path class="st22" d="M-1190-378l13 1-8-3z"/><path class="st21" d="M-1190-378l-13 1-3 5z"/><path class="st22" d="M-1190-378l-13 1 8-3z"/><path class="st21" d="M-1190-378l-5-2h10z"/><path class="st22" d="M-1190-378l-5 14v2h10v-2z"/><path class="st21" d="M-1190-378l5 14v2l8-3v-2z"/><path class="st22" d="M-1190-378l13 11v2l3-5v-2z"/><path class="st21" d="M-1203-367v2l8 3v-2l5-14z"/><path class="st22" d="M-1206-372v2l3 5v-2l13-11z"/><path class="st19" d="M-1177-367l-8 3h-10l-8-3-3-5v2l3 5 8 3h10l8-3 3-5v-2z"/></g><g id="i1494_1_"><path class="st10" d="M-1174-370l-32 16v22l32 16 32-16v-22z" transform="translate(1400 416)"/><path class="st23" d="M-1172-317v-22l-2 1v22zm10-5v-22l-1 .5v22zm10-5v-22l-1 .5v22zm10-5v-22l-1 .5v22z" transform="translate(1400 416)"/><path class="st7" d="M-1170-336v14l5-2.5v-14z" transform="translate(1400 416)"/><path class="st24" d="M-1166-338v13l-4 2v1l5-2.5v-14z" transform="translate(1400 416)"/><path class="st7" d="M-1160-341v14l5-2.5v-14z" transform="translate(1400 416)"/><path class="st25" d="M-1160-341l5 11.5v-14z" transform="translate(1400 416)"/><path class="st24" d="M-1156-343v13l-4 2v1l5-2.5v-14z" transform="translate(1400 416)"/><path class="st7" d="M-1150-346v14l5-2.5v-14z" transform="translate(1400 416)"/><path class="st23" d="M-1150-346l5 11.5v-14z" transform="translate(1400 416)"/><path class="st24" d="M-1146-348v13l-4 2v1l5-2.5v-14z" transform="translate(1400 416)"/><path class="st23" d="M-1176-317v-22l2 1v22zm-10-5v-22l1 .5v22zm-10-5v-22l1 .5v22zm-10-5v-22l1 .5v22z" transform="translate(1400 416)"/><path class="st7" d="M-1178-336v14l-5-2.5v-14z" transform="translate(1400 416)"/><path class="st24" d="M-1182-338v13l4 2v1l-5-2.5v-14z" transform="translate(1400 416)"/><path class="st7" d="M-1188-341v14l-5-2.5v-14z" transform="translate(1400 416)"/><path class="st26" d="M-1188-327l-5-2.5v-14z" transform="translate(1400 416)"/><path class="st24" d="M-1192-343v13l4 2v1l-5-2.5v-14z" transform="translate(1400 416)"/><path class="st7" d="M-1198-346v14l-5-2.5v-14z" transform="translate(1400 416)"/><path class="st13" d="M-1198-332l-5-2.5v-14z" transform="translate(1400 416)"/><path class="st24" d="M-1202-348v13l4 2v1l-5-2.5v-14z" transform="translate(1400 416)"/><path class="st11" d="M-1142-332v-22l-32 16v22z" transform="translate(1400 416)"/><path class="st14" d="M-1206-332v-22l32 16v22z" transform="translate(1400 416)"/><path class="st10" d="M-1174-378l-18 9v14l18 9 18-9v-14z" transform="translate(1400 416)"/><path class="st23" d="M-1172-347v-14l-2 1v14zm16-8v-14l-2 1v14zm-20 8v-14l2 1v14zm-16-8v-14l2 1v14z" transform="translate(1400 416)"/><path class="st7" d="M-1170-356v5l10-5v-5z" transform="translate(1400 416)"/><path class="st25" d="M-1170-356h10v-5z" transform="translate(1400 416)"/><path class="st24" d="M-1161-360.5v4l-9 4.5v1l10-5v-5z" transform="translate(1400 416)"/><path class="st7" d="M-1178-356v5l-10-5v-5z" transform="translate(1400 416)"/><path class="st24" d="M-1187-360.5v4l9 4.5v1l-10-5v-5z" transform="translate(1400 416)"/><path class="st11" d="M-1156-355v-14l-18 9v14z" transform="translate(1400 416)"/><path class="st14" d="M-1192-355v-14l18 9v14z" transform="translate(1400 416)"/><path class="st10" d="M-1174-376l-8 4v3l8 4 8-4v-3z" transform="translate(1400 416)"/><path class="st11" d="M-1166-369v-3l-8 4v3z" transform="translate(1400 416)"/><path class="st14" d="M-1182-369v-3l8 4v3z" transform="translate(1400 416)"/><path class="st20" d="M-1170-372l-4 2v-10z" transform="translate(1400 416)"/><path class="st11" d="M-1170-372l-4 2v-10z" transform="translate(1400 416)"/><path class="st20" d="M-1178-372l4 2v-10z" transform="translate(1400 416)"/><path class="st14" d="M-1178-372l4 2v-10z" transform="translate(1400 416)"/></g><g id="i1495_1_"><path class="st10" d="M-1190-380l-16 8v32l64 32 16-8v-32z" transform="translate(1256 448)"/><path class="st3" d="M-1129-343.5v29l-11 5.5v-29z" transform="translate(1256 448)"/><path class="st24" d="M-1130-315v-28.1l1-.4v29l-11 5.5v-.9z" transform="translate(1256 448)"/><path class="st27" d="M-1128-336v1l-12 6v-1zm0 9v1l-12 6v-1z" transform="translate(1256 448)"/><path class="st10" d="M-1134-312l-1 .5v-29.3l1-.5z" transform="translate(1256 448)"/><path class="st24" d="M-1150-313l-52-26v-26.5l-1-.5v27.5l53 26.5z" transform="translate(1256 448)"/><path class="st3" d="M-1150-340.5l-53-25.5v27.5l53 26.5z" transform="translate(1256 448)"/><path class="st27" d="M-1203-360v1l59 30v-1zm0 9v1l59 30v-1z" transform="translate(1256 448)"/><path class="st10" d="M-1180-327l1 .5v-28l-1-.5zm-6-3l1 .5v-27.6l-1-.5zm-6-3l1 .5v-27.6l-1-.5zm-6-3l1 .5v-27.6l-1-.5zm30 15l1 .5v-27.9l-1-.5zm-6-3l1 .5v-27.9l-1-.5zm12 6l1 .5v-28.1l-1-.5zm6 3l1 .5v-28.3l-1-.5z" transform="translate(1256 448)"/><path class="st8" d="M-1150-340l-20 15 20-9z" transform="translate(1256 448)"/><path class="st18" d="M-1185-329.5l.4.2 23.6-9.7-32 5.5z" transform="translate(1256 448)"/><path class="st26" d="M-1181.9-355.5l-12.7 9.1 17.2-7z" transform="translate(1256 448)"/><path class="st22" d="M-1144-309l-4-2v-32l4 2z" transform="translate(1256 448)"/><path class="st11" d="M-1126-316l-16 8v-32l16-8z" transform="translate(1256 448)"/><path class="st14" d="M-1206-340l64 32v-32l-64-32z" transform="translate(1256 448)"/></g><g id="i1592_1_"><path class="st19" d="M-12040.9-3650.4l33.6 16.8c.8.4 1.7.4 2.6 0l33.6-16.8c2.1-1.1 2.1-4 0-5.1l-33.6-16.8c-.8-.4-1.7-.4-2.6 0l-33.6 16.8c-2.1 1-2.1 4 0 5.1z" transform="matrix(.1 0 0 .1 1376 440)"/><path class="st3" d="M-12006.5-3633c-.7 0-1.4-.2-2-.5l-31.9-16c-1.5-.8-2.5-2.3-2.5-4.1 0-1.8 1-3.3 2.5-4.1l29.4-14.5c1.6-.8 3.3-1.2 5-1.2v-.4l-36.9-18.4c-1-.5-1.4-1.7-.9-2.7s1.7-1.4 2.7-.9l38 19c.7.3 1.1 1 1.1 1.8v2.3c.3.1.6.3 1 .4l32.4 16.2c.2.1.3 0 .4 0 .1-.1.2-.2.2-.4v-35.3l-.9-.4c-1-.5-1.4-1.7-.9-2.7s1.7-1.4 2.7-.9l2 1c.7.3 1.1 1 1.1 1.8v36.5c0 1.6-.8 3-2.1 3.8-1.3.8-2.9.9-4.3.2l-31.6-15.7v30.8c0 1.6-.8 3-2.1 3.8-.7.4-1.5.6-2.4.6zm.5-36.4c-1.1 0-2.2.2-3.2.7l-29.4 14.7c-.2.1-.3.3-.3.5s.1.4.3.5l31.9 16c.2.1.3 0 .4 0 .1-.1.2-.2.2-.4l.1-32z" transform="matrix(.1 0 0 .1 1376 440)"/><path class="st8" d="M-12007-3635c-.5 0-.9-.1-1.3-.3l-31.9-16c-1-.5-1.7-1.6-1.7-2.7s.6-2.2 1.7-2.7l29.4-14.7c.2-.1.5 0 .7.2.1.2 0 .5-.2.7l-29.4 14.7c-.7.4-1.1 1-1.1 1.8s.4 1.5 1.1 1.8l31.9 16c.6.3 1.3.3 1.9-.1.6-.4.9-1 .9-1.7v-37.5c0-.3.2-.5.5-.5s.5.2.5.5v37.5c0 1-.5 2-1.4 2.5-.5.3-1 .5-1.6.5zm38-19c-.5 0-.9-.1-1.3-.3l-30.5-15.2c-.2-.1-.3-.4-.2-.7s.4-.3.7-.2l30.5 15.2c.6.3 1.3.3 1.9-.1.6-.4.9-1 .9-1.7v-36.5c0-.3.2-.5.5-.5s.5.2.5.5v36.5c0 1-.5 2-1.4 2.5-.5.3-1 .5-1.6.5z" transform="matrix(.1 0 0 .1 1376 440)"/><path class="st21" d="M-12044-3698v4l40 20 40-20v-4l-40-20z" transform="matrix(.1 0 0 .1 1376 440)"/><path class="st1" d="M-12004-3674l-40-20v-4l40 20z" transform="matrix(.1 0 0 .1 1376 440)"/><path class="st2" d="M-12004-3674l40-20v-4l-40 20z" transform="matrix(.1 0 0 .1 1376 440)"/><path class="st21" d="M-12005-3768l-4-2-40 20 2.2 8.9c1.9 7.4 2.8 15 2.8 22.6v20.5l4 2 40-20v-20.5c0-7.6-.9-15.2-2.8-22.6l-2.2-8.9z" transform="matrix(.1 0 0 .1 1376 440)"/><path class="st1" d="M-12045-3748l-4-2 2.2 8.9c1.9 7.4 2.8 15 2.8 22.6v20.5l4 2v-20.5c0-7.6-.9-15.2-2.8-22.6l-2.2-8.9z" transform="matrix(.1 0 0 .1 1376 440)"/><path class="st2" d="M-12005-3768l-40 20 2.2 8.9c1.9 7.4 2.8 15 2.8 22.6v20.5l40-20v-20.5c0-7.6-.9-15.2-2.8-22.6l-2.2-8.9z" transform="matrix(.1 0 0 .1 1376 440)"/><path class="st19" d="M-11943.7-3627.2c-5 4.7-15 1.3-20.7.8-5.7-.5-7.7-1.8-6 1.5 1.7 3.3 7 14.8-3.3 13.8s-12.8-3-17.2-7.7c-4.3-4.7-9.3-13-6.2-18.3 5-8.4 29.3-1.1 36.5.4 7.2 1.5 20.1 6.5 16.9 9.5z" transform="matrix(.1 0 0 .1 1376 440)"/><path d="M-11978.5-3641.1c-.2 1.3-1.2 7-.2 8.3s3.2 1.6 5.7 1.9c2.5.3 6.8.2 9.7 1.5 2.9 1.3 7.7 2.7 12.3 3.2 4.5.5 6.6-1.7 6.7-4 .1-2.3-1.4-4.4-4.3-5.1-2.9-.6-12.9-4.6-14.2-5.9-1.4-1.2-15.7.1-15.7.1z" fill="none" transform="matrix(.1 0 0 .1 1376 440)"/><path class="st3" d="M-11979.9-3635.7l-12.4-.4s-2.4 3.3-1.8 6c.7 2.7 4.4 6.9 5.3 8.6.9 1.8 2.7 7.5 7.7 8.8 5.1 1.3 11.7.9 12.6-2.4.7-2.6-9.9-15-10.4-16.1-.3-1.2-1-4.5-1-4.5z" transform="matrix(.1 0 0 .1 1376 440)"/><path class="st29" d="M-11988.7-3621.6c-.9-1.8-4.6-6-5.3-8.6-.2-.9-.1-2 .2-2.9.5 1.3 1.3 3.2 2.1 4.2 1.5 1.6 4.5 7.9 6.2 10.9 2.2 3.9 12.7 6.8 17.1 2.2.1.3.1.5 0 .7-.9 3.3-7.5 3.8-12.6 2.4s-6.8-7.1-7.7-8.9z" transform="matrix(.1 0 0 .1 1376 440)"/><path class="st3" d="M-11963.5-3641c4.5 2.8 12.6 4.8 15.3 6.2 2.9 1.6 4.7 7.5-1.3 8s-15.9-3.9-19.4-3.9c-3.4 0-9.7-1.1-10.6-3-.9-1.9.4-6.9.4-6.9l15.6-.4z" transform="matrix(.1 0 0 .1 1376 440)"/><path class="st29" d="M-11979.4-3633.7c-.1-.2-.2-.5-.2-.8 2.9 1.3 7.8 2.1 11.3 2.2 3 .1 13.1 4.1 18 4.1 2.3 0 3.8-.8 4.8-1.6-.2 1.5-1.3 2.8-4 3-6 .4-15.9-3.9-19.4-3.9s-9.7-1.1-10.5-3z" transform="matrix(.1 0 0 .1 1376 440)"/><path d="M-11997.6-3718s20.6 13 26.2 16.5c5.6 3.4 8.4 6.9 8.6 12.3.2 5.4-1.3 33.1-.6 38.3.6 5.2 2.4 11 2.4 11s-2.7 3.9-18.3 1.3c-1.3-.2-2.4-34.2-2.4-37.6 0-3.4.3-8.1.3-8.1l-28.5-15.5-.6-19.4 12.9 1.2z" transform="matrix(.1 0 0 .1 1376 440)"/><path class="st19" d="M-11997.6-3718s20.6 13 26.2 16.5c5.6 3.4 8.4 6.9 8.6 12.3.2 5.4-1.3 33.1-.6 38.3.6 5.2 2.4 11 2.4 11s-2.7 3.9-18.3 1.3c-1.3-.2-2.4-34.2-2.4-37.6 0-3.4.3-8.1.3-8.1l-28.5-15.5-.6-19.4 12.9 1.2z" transform="matrix(.1 0 0 .1 1376 440)"/><path d="M-12027.2-3724.2s-4.8 7.8-5.8 15.1c-1 7.4.4 12.7 6.2 17.4 3.6 3 29.2 16.8 30.5 19.6 1.3 2.8-.3 35.9 1 37.8 1.3 1.9 6.5 3.3 10.7 3.2 4.3-.1 6.7-2.4 6.5-3.2-.2-.9 1.8-38.1.1-45.3-1.4-6.2-25.2-24.1-25.2-24.1l3.7-14-27.7-6.5z" transform="matrix(.1 0 0 .1 1376 440)"/><path d="M-12004-3775.5c-7.5 2.5-14.7 7.1-18.4 9.9-4.1 3.1-11.1 6.5-11.9 20.8-.8 16.8.3 38.6.7 43.9.8 9.6 5.5 16.9 5.5 16.9s4.7-5.2 8.6-8c5.3-3.8 12.1-6 15.7-7.2 3.6-1.1 5.4-.9 5.7-5 .3-4.1 6.9-4.7 6.9-4.7s.6-23.1 1-30.3c.4-7.2 5.4-25.3 3-32-2.3-6.7-9.5-6.8-16.8-4.3z" transform="matrix(.1 0 0 .1 1376 440)"/><path class="st19" d="M-12040-3594l60 30 140-70-60-30z" transform="matrix(.1 0 0 .1 1376 440)"/><path class="st30" d="M-11848-3715v81l8 4 8-4v-81l-8-4z" transform="matrix(.1 0 0 .1 1376 440)"/><path class="st1" d="M-11840-3630l-8-4v-81l8 4z" transform="matrix(.1 0 0 .1 1376 440)"/><path class="st2" d="M-11840-3630l8-4v-81l-8 4z" transform="matrix(.1 0 0 .1 1376 440)"/><path class="st30" d="M-11908-3745v81l8 4 8-4v-81l-8-4z" transform="matrix(.1 0 0 .1 1376 440)"/><path class="st1" d="M-11900-3660l-8-4v-81l8 4z" transform="matrix(.1 0 0 .1 1376 440)"/><path class="st2" d="M-11900-3660l8-4v-81l-8 4z" transform="matrix(.1 0 0 .1 1376 440)"/><path class="st30" d="M-11988-3645v81l8 4 8-4v-81l-8-4z" transform="matrix(.1 0 0 .1 1376 440)"/><path class="st1" d="M-11980-3560l-8-4v-81l8 4z" transform="matrix(.1 0 0 .1 1376 440)"/><path class="st2" d="M-11980-3560l8-4v-81l-8 4z" transform="matrix(.1 0 0 .1 1376 440)"/><path class="st30" d="M-12048-3675v81l8 4 8-4v-81l-8-4z" transform="matrix(.1 0 0 .1 1376 440)"/><path class="st1" d="M-12040-3590l-8-4v-81l8 4z" transform="matrix(.1 0 0 .1 1376 440)"/><path class="st2" d="M-12040-3590l8-4v-81l-8 4z" transform="matrix(.1 0 0 .1 1376 440)"/><path class="st30" d="M-12050-3680v10l70 35 150-75v-10l-70-35z" transform="matrix(.1 0 0 .1 1376 440)"/><path class="st1" d="M-11980-3635l-70-35v-10l70 35z" transform="matrix(.1 0 0 .1 1376 440)"/><path class="st2" d="M-11980-3635l150-75v-10l-150 75z" transform="matrix(.1 0 0 .1 1376 440)"/><path class="st3" d="M-11989-3700v2l30 15 40-20v-2l-30-15z" transform="matrix(.1 0 0 .1 1376 440)"/><path d="M-11973-3695l31.9-16 14.1 7-31.9 16zm1-11l14-7 8 4-14 7z" transform="matrix(.1 0 0 .1 1376 440)"/><path class="st1" d="M-11959-3683l-30-15v-2l30 15z" transform="matrix(.1 0 0 .1 1376 440)"/><path class="st2" d="M-11959-3683l40-20v-2l-40 20z" transform="matrix(.1 0 0 .1 1376 440)"/><path class="st16" d="M-11959-3689l2-1-2-1-2 1zm4-2l2-1-2-1-2 1zm4-2l2-1-2-1-2 1zm4-2l2-1-2-1-2 1zm4-2l2-1-2-1-2 1zm4-2l2-1-2-1-2 1zm4-2l2-1-2-1-2 1zm4-2l2-1-2-1-2 1zm-30 12l2-1-2-1-2 1zm4-2l2-1-2-1-2 1zm4-2l2-1-2-1-2 1zm4-2l2-1-2-1-2 1zm4-2l2-1-2-1-2 1zm4-2l2-1-2-1-2 1zm4-2l2-1-2-1-2 1zm4-2l2-1-2-1-2 1zm-33 13l2-1-2-1-2 1zm4-2l2-1-2-1-2 1zm4-2l2-1-2-1-2 1zm4-2l2-1-2-1-2 1zm4-2l2-1-2-1-2 1zm4-2l2-1-2-1-2 1zm4-2l2-1-2-1-2 1zm4-2l2-1-2-1-2 1zm-31 12l2-1-2-1-2 1zm4-2l2-1-2-1-2 1zm4-2l2-1-2-1-2 1zm4-2l2-1-2-1-2 1zm4-2l2-1-2-1-2 1zm4-2l2-1-2-1-2 1zm4-2l2-1-2-1-2 1zm4-2l2-1-2-1-2 1z" transform="matrix(.1 0 0 .1 1376 440)"/><path class="st3" d="M-11950-3711l-9 26 2 1 40-20 9-26-2-1z" transform="matrix(.1 0 0 .1 1376 440)"/><path class="st1" d="M-11957-3684l-2-1 9-26 2 1z" transform="matrix(.1 0 0 .1 1376 440)"/><path class="st2" d="M-11957-3684l40-20 9-26-40 20z" transform="matrix(.1 0 0 .1 1376 440)"/><path class="st12" d="M-12004.8-3775c-3.3.3-8.5 1.5-6 6.9s11.1 16.1 12.6 26.7c1.6 10.6.9 14.6.9 14.6s6-11 3.8-26c-2.3-15-3.9-22.8-11.3-22.2z" transform="matrix(.1 0 0 .1 1376 440)"/><path class="st22" d="M-11997.9-3738.9l-1.1-17.5-1-1.3 1-2.4 1.8-.9.9 1.5-.7 1.9s3.8 12.6 3.8 14.8c-.1 8.6-4.1 16.2-4.1 16.2.1-5.5-.2-8.3-.6-12.3z" transform="matrix(.1 0 0 .1 1376 440)"/><path class="st19" d="M-12004.6-3757l3.1 2.7 2.5-5.8 1.8-.9 2.5 4.1-2.9-2.5-1 .3-2.7 6.4z" transform="matrix(.1 0 0 .1 1376 440)"/><path d="M-11992.2-3775c2.7.3 5.7 2.2 6.9 9.8 1.2 7.6 4.4 21.7 4.4 21.7s5 3.5 11.7 8c6.8 4.6 10.8 6.6 11 8.7.1 2.1-5 8.5-7.8 7.8-2.6-.6-8.6-4.2-13.2-6.8-4.5-2.6-8.3-4.1-10.5-6.1s-2.9-27.1-2.9-27.1l.4-16z" transform="matrix(.1 0 0 .1 1376 440)"/><path class="st12" d="M-11965.6-3723.8c.6-2.9 3.5-4.6 5.1-4.2s2.9 1.2 1.1 4.5c-1 1.8-2.2 3.5-3.6 3.6-.4 0-1.4-.4-1.7-.6-.6-.5-1.2-1.6-.9-3.3z" transform="matrix(.1 0 0 .1 1376 440)"/><path class="st31" d="M-11963.4-3724.6c1.3-2.5 5.8-3.2 10.3-.1 4.3 3 5.9 5.8 5.9 9 0 1.4-1.6 5.4-2.8 4.8-1.4-.7-.6-4.9-1.8-5.6s-7-2.9-7-2.9.7 1-.2 1.7c-.9.5-6.6-2.9-4.4-6.9z" transform="matrix(.1 0 0 .1 1376 440)"/><path class="st19" d="M-11954.5-3721.9c-2.9-1.5-4.9-.8-5 .1-.1.7.5 1.8.7 2.3.6.2 5.8 2.2 7 2.9.1.1.2.1.3.2-.2-1.2-.8-4.4-3-5.5z" transform="matrix(.1 0 0 .1 1376 440)"/><path d="M-12025.7-3760.6c-4.9-.2-7.9 4.7-9.5 12.2-1.6 7.5-4.8 36.6 1.3 39.6 4.7 2.3 23.2 4.1 27.2 4.3s10.1.8 11 .2c.9-.5 1.7-1.7 2.3-5.4.6-3.7.4-5.5-1.2-6-1.5-.5-6.9-2.1-14.1-4.1-6-1.6-11-3.3-11-3.3s1.9-9.3 3-15.2c1.2-6 4.1-21.7-9-22.3z" transform="matrix(.1 0 0 .1 1376 440)"/><path class="st12" d="M-11994.2-3714.2s-1.5.7-2 5.3c-.2 1.9.2 3.2.2 3.2l2.4.2s1.6-3.2 1.7-5.6c.1-2.5-.4-2.9-.4-2.9l-1.9-.2z" transform="matrix(.1 0 0 .1 1376 440)"/><path class="st31" d="M-11992.9-3713s-1.1 2-1.2 3.6c-.1 1.6-.1 2.9.3 3.2.4.3 7.5 2.4 9.4 3.1 1.8.7 5.1 2 6.4 2.7 2.1 1.2 3.1 1 4.2.6.9-.3 4-3.4 2.5-6.1-1.5-2.7-5.5-7-9.7-7.4-4.4-.3-10.7-.5-11.9.3z" transform="matrix(.1 0 0 .1 1376 440)"/><path class="st19" d="M-12014.1-3770.5s-.7 5.4.1 9.3c1 5.3 2.8 8.4 2.8 8.4l4.5 1.1-1.3 3.5s4 3.3 6.1 8.6c1.9 4.5 3.2 16.1 3.2 16.1s-1.8-10.6-4.2-15.9c-2.5-5.6-6.4-8.3-6.4-8.3l1.6-3.6-4.9-.7s-1.4-3.7-2.3-9.2c-.7-4.9.8-9.3.8-9.3z" transform="matrix(.1 0 0 .1 1376 440)"/><path class="st31" d="M-12007.9-3793.6c4.5-2.5 15.1-.7 16.8 7.8 1.7 8.5 1 19.3-1.3 20.8-2.4 1.5-4.6.8-4.6.8s.4 3.5-1.8 3.4c-2.2-.1-7.8-4.7-9.7-7.8-1.9-3.1-2.3-3.8-3.4-6.1-1-2.3-6.4-13 4-18.9z" transform="matrix(.1 0 0 .1 1376 440)"/><path class="st4" d="M-12005-3781.3s4.8 1.1 7.3.3 3.1-3 4.6-3.7c1.8-.8 2.6-.6 2.6-.6-1.9-11.5-16.1-12.8-21.7-5.8-5.5 7-.2 15.7-.2 15.7s.4-2.5 1.9-2.7c1.5-.2 2.9 4.5 2.9 4.5s3.2-3.5 2.6-7.7z" transform="matrix(.1 0 0 .1 1376 440)"/></g></svg>