<svg xmlns="http://www.w3.org/2000/svg" width="194" height="108"><style>.st0{fill:#539b00}.st1{opacity:.29}.st1,.st2,.st3{enable-background:new}.st2{opacity:.11}.st3{opacity:.2;fill:#fff}.st4{fill:#baa794}</style><g id="i1205_1_"><path class="st0" d="M-934-440s.7-.2 1.5-.6c.4-.2.6-.4 1.2-.7.6-.6 1.2-.7 1.9-.9.7-.8 3.5-2 4.3-2.1.8-.2 1.7-.4 2.6-1.3.9-.7 1.9-1.1 2.9-1.5.5-.2.4-.6.9-.9s1-.5 1.5-.8c.9.3 2.4-.6 3.3-1.3 1 .2 3.9-2.3 4.9-2.4 1 .8 1.9-1.7 2.9-1.4.9-.5 1.2-1.2 2.1-1.7 1-.5 4.8-1.9 5.8-2.3 1-.8 3.9-2.4 4.8-2.4.9-.2 1.7-.4 2.5-1.2.8-.8 1.4-1.2 2.1-1 .6-.3.7-.9 1.1-1.1.8-.5 1.7-.4 1.7-.4v-8l-8-4s-2.1 1.3-2.9 1.7c-.4.2-1.2.4-1.7.7-.6-.6-3.2 2.7-3.9 1.9-.7.4-1.5.4-2.3 1.1-.8.1-1.7.6-2.6 1.3-.9.3-1.9 1.2-2.8 1.4-.5.2-2.3 1.5-2.8 1.8-.5.3-1.7.5-2.2.7-.9.2-1.9.8-2.9 1.4-1 1.5-1.9.4-2.9 1.4-1 .2-1.9 2.2-2.9 1.4-.9-.2-3.9 1.9-4.8 2.4-1 .5-2 1.2-3 1.6-1 0-2-.1-2.9 1.3-.9-.4-1.7.6-2.5 1.2-.8 1.9-1.4-.1-2.1 1-.6-1-1.1.6-1.6.8-.7.7-1.2.9-1.2.9v8s.1.1.3.2c.2.1.7.7 1.1.9.4.1.6.3 1.1.2.5.4 1 .7 1.5.7.5.2 1 0 1.5.7.5.2.9-.1 1.3.1.7.4 1.2 1.2 1.2 1.2z" transform="translate(1080 476)"/><path class="st1" d="M-934-440s.7-.2 1.5-.6c.4-.2.6-.4 1.2-.7.6-.6 1.2-.7 1.9-.9.7-.8 3.5-2 4.3-2.1.8-.2 1.7-.4 2.6-1.3.9-.7 1.9-1.1 2.9-1.5.5-.2.4-.6.9-.9s1-.5 1.5-.8c.9.3 2.4-.6 3.3-1.3 1 .2 3.9-2.3 4.9-2.4 1 .8 1.9-1.7 2.9-1.4.9-.5 1.2-1.2 2.1-1.7 1-.5 4.8-1.9 5.8-2.3 1-.8 3.9-2.4 4.8-2.4.9-.2 1.7-.4 2.5-1.2.8-.8 1.4-1.2 2.1-1 .6-.3.7-.9 1.1-1.1.8-.5 1.7-.4 1.7-.4v-8s-.5.7-2.5 1.8c-.3.1-1.5.2-1.9.4-.4.1-.8 1.1-1.2.6-.4-.3-.9-.2-1.3.7-.5.5-.9.8-1.4.7-.5.5-2.8 1.7-3.3 2.3-.5.4-3.2.5-3.7 1.2-.5.3-1.1.5-1.6.8-.6.3-1.4.2-2 .5-.5.2-.6.8-1.1 1s-.6.8-1.1 1.3c-.5.4-1.3.2-1.8.1-.5.7-1 .2-1.4.7-.5.1-3 2.3-3.4 1.7-.5-.1-1 .7-1.4.7-.5.2-2.2 2.1-2.7 2.4-1.9.9-1.1-.6-2.8.3-.5.2-1.4 1.3-1.8 1.6-.5.1-1.8.8-2.2.6-.4 0-2.8 1.3-3.2 1.6-.4-.7-.8.9-1.1.6-.4.5-1.1-1.1-1.4-.3-.3.4-.3.5-.6 1.3-.3-.2-.7.8-1 1-1.6.6-2.1.4-2.1.4v8z" transform="translate(1080 476)"/><path class="st2" d="M-942-452v8s.1.1.3.2c.2.1.7.7 1.1.9.4.1.6.3 1.1.2.5.4 1 .7 1.5.7.5.2 1 0 1.5.7.5.2.9-.1 1.3.1.7.4 1.2 1.2 1.2 1.2v-8s-.1-.1-.3-.2c-.3-.1-1.3.4-1.7.2-.4-.7-.1-1.6-.5-1.3-.5-.3-1-.3-1.5-.7s-1-1.4-1.5-.7c-.4-.6-1.1-.1-1.5-.3s-.4-.7-.7-.8c-.2-.1-.3-.2-.3-.2z" transform="translate(1080 476)"/><path class="st3" d="M-902-466.4c0 .4.1.4.3-.9.2 3-1.4-1.1-1-.5.5.3.6.3.8-.1.2 1.1-1.5.8-.6 1.1.6-1.8 1.1.1 1.6-.4.5-.3 2.9-1.1 3.2-1.3.3-.1.5-.1.5-.1s-.2.2-.5.6c-.3.7-2.8 2.2-3.2 2-.5 1-1-.5-1.4.5-.4.6 1-.7.5-.8-6.1 3.6 1.2-2.1.5-.5-.4-.5-.7 1.4-.7.4zm-30 11c0 .4.1.4.3-.9.2 3-1.4-1.1-1-.5.5.3.6.3.8-.1.2 1.1-1.5.8-.6 1.1.6-1.8 1.1.1 1.6-.4.5-.3.9-.1 1.2-.3.3-.1.5-.1.5-.1s-.2.2-.5.6c-.3.7-.8 1.2-1.2 1-.5 1-1-.5-1.4.5-.4.6 1-.7.5-.8-6.1 3.6 1.2-2.1.5-.5-.4-.5-.7 1.4-.7.4zm14-4c0 .4.1.4.3-.9.2 3 .6-2.1 1-1.5.5.3.6.3.8-.1.2 1.1.5-.2 1.4.1.6-1.8-.9 1.1-.4.6.5-.3.9-.1 1.2-.3.3-.1.5-.1.5-.1s-.2.2-.5.6c-.3.7-.8 1.2-1.2 1-.5 1 1-1.5.6-.5-.4.6-1 .3-1.5.2-.5.3-1.1-.5-1.5.5-.4-.5-.7 1.4-.7.4zm-6.6 4.7c0 .4.1.4.3-.9.2 3 .6-2.1 1-1.5.5.3.6.3.8-.1.2 1.1.6-1.3 1.5-1 .6-1.8 1.2 1.1 1.7.6.5-.3.9-.1 1.2-.3.3-.1.5-.1.5-.1s-.2.2-.5.6c-.3.7-.8 1.2-1.2 1-.5 1-1.1-1.5-1.5-.5-.4.6-1.1 1.5-1.6 1.4-.6.3-1.1-.5-1.5.5-.4-.5-.7 1.4-.7.3zm30-16.5c0 .4.1.4.3-.9.2 3 .6-2.1 1-1.5.5.3 2.7.3 2.9-.1.2 1.1-1.5.8-.6 1.1.6-1.8 1.2 1.1 1.7.6.6-.3-1 1-.7.7.3-.1.5-.1.5-.1s-.2.2-.5.6c-.3.7 1.2.2.8 0-.5 1-1.1-1.5-1.5-.5-.4.6 1-.7.5-.8-.5.3-3.2-.5-3.6.5-.5-.4-.8 1.4-.8.4z" transform="translate(1080 476)"/><path class="st3" d="M-934.7-449.1c0 .4.1.4.3-.9.2 3 .8-2.2 1.3-1.6.5.3.6.3.8-.1.2 1.1.5-.2 1.4.1.6-1.8 2.4-1.2 2.8-1.6.5-.3 2.7-.8 3-1.1.3-.1 1.5-1.2 1.5-1.2s-.2.2-.5.6c-.3.7-2.8 2.2-3.2 2-.5 1 2.9-1.4 2.5-.4-.4.6-3 1.3-3.5 1.2-.5.3-5.3 1.6-5.7 2.6-.4-.4-.7 1.4-.7.4zm20-14c0 .4.1.4.3-.9.2 3 6.8-5.2 7.3-4.6.5.3.6.3.8-.1.2 1.1.5-.2 1.4.1.6-1.8-1.6.8-1.2.4.5-.3.7.2 1-.1.3-.1 1.5-1.2 1.5-1.2s-.2.2-.5.6c-.3.7-.8 1.2-1.2 1-.5 1 .9-.4.5.6-.4.6-1 .3-1.5.2-.5.3-7.3 2.6-7.7 3.6-.4-.4-.7 1.4-.7.4z" transform="translate(1080 476)"/></g><g id="i1206_1_"><path class="st0" d="M-934-440s.7-.2 1.5-.6c.4-.2.6-.4 1.2-.7.6-.6 1.2-.7 1.9-.9.7-.8 3.5-2 4.3-2.1.8-.2 1.7-.4 2.6-1.3.9-.7 1.9-1.1 2.9-1.5.5-.2.4-.6.9-.9s1-.5 1.5-.8c.9.3 2.4-.6 3.3-1.3 1 .2 3.9-2.3 4.9-2.4 1 .8 1.9-1.7 2.9-1.4.9-.5 1.2-1.2 2.1-1.7 1-.5 4.8-1.9 5.8-2.3 1-.8 3.9-2.4 4.8-2.4.9-.2 1.7-.4 2.5-1.2.8-.8 1.4-1.2 2.1-1 .6-.3.7-.9 1.1-1.1.8-.5 1.7-.4 1.7-.4v-8l-8-4s-2.1 1.3-2.9 1.7c-.4.2-1.2.4-1.7.7-.6-.6-3.2 2.7-3.9 1.9-.7.4-1.5.4-2.3 1.1-.8.1-1.7.6-2.6 1.3-.9.3-1.9 1.2-2.8 1.4-.5.2-2.3 1.5-2.8 1.8-.5.3-1.7.5-2.2.7-.9.2-1.9.8-2.9 1.4-1 1.5-1.9.4-2.9 1.4-1 .2-1.9 2.2-2.9 1.4-.9-.2-3.9 1.9-4.8 2.4-1 .5-2 1.2-3 1.6-1 0-2-.1-2.9 1.3-.9-.4-1.7.6-2.5 1.2-.8 1.9-1.4-.1-2.1 1-.6-1-1.1.6-1.6.8-.7.7-1.2.9-1.2.9v8s.1.1.3.2c.2.1.7.7 1.1.9.4.1.6.3 1.1.2.5.4 1 .7 1.5.7.5.2 1 0 1.5.7.5.2.9-.1 1.3.1.7.4 1.2 1.2 1.2 1.2z" transform="translate(1048 492)"/><path class="st1" d="M-934-440s.7-.2 1.5-.6c.4-.2.6-.4 1.2-.7.6-.6 1.2-.7 1.9-.9.7-.8 3.5-2 4.3-2.1.8-.2 1.7-.4 2.6-1.3.9-.7 1.9-1.1 2.9-1.5.5-.2.4-.6.9-.9s1-.5 1.5-.8c.9.3 2.4-.6 3.3-1.3 1 .2 3.9-2.3 4.9-2.4 1 .8 1.9-1.7 2.9-1.4.9-.5 1.2-1.2 2.1-1.7 1-.5 4.8-1.9 5.8-2.3 1-.8 3.9-2.4 4.8-2.4.9-.2 1.7-.4 2.5-1.2.8-.8 1.4-1.2 2.1-1 .6-.3.7-.9 1.1-1.1.8-.5 1.7-.4 1.7-.4v-8s-.5.7-2.5 1.8c-.3.1-1.5.2-1.9.4-.4.1-.8 1.1-1.2.6-.4-.3-.9-.2-1.3.7-.5.5-.9.8-1.4.7-.5.5-2.8 1.7-3.3 2.3-.5.4-3.2.5-3.7 1.2-.5.3-1.1.5-1.6.8-.6.3-1.4.2-2 .5-.5.2-.6.8-1.1 1s-.6.8-1.1 1.3c-.5.4-1.3.2-1.8.1-.5.7-1 .2-1.4.7-.5.1-3 2.3-3.4 1.7-.5-.1-1 .7-1.4.7-.5.2-2.2 2.1-2.7 2.4-1.9.9-1.1-.6-2.8.3-.5.2-1.4 1.3-1.8 1.6-.5.1-1.8.8-2.2.6-.4 0-2.8 1.3-3.2 1.6-.4-.7-.8.9-1.1.6-.4.5-1.1-1.1-1.4-.3-.3.4-.3.5-.6 1.3-.3-.2-.7.8-1 1-1.6.6-2.1.4-2.1.4v8z" transform="translate(1048 492)"/><path class="st2" d="M-942-452v8s.1.1.3.2c.2.1.7.7 1.1.9.4.1.6.3 1.1.2.5.4 1 .7 1.5.7.5.2 1 0 1.5.7.5.2.9-.1 1.3.1.7.4 1.2 1.2 1.2 1.2v-8s-.1-.1-.3-.2c-.3-.1-1.3.4-1.7.2-.4-.7-.1-1.6-.5-1.3-.5-.3-1-.3-1.5-.7s-1-1.4-1.5-.7c-.4-.6-1.1-.1-1.5-.3s-.4-.7-.7-.8c-.2-.1-.3-.2-.3-.2z" transform="translate(1048 492)"/><path class="st3" d="M-902-466.4c0 .4.1.4.3-.9.2 3-1.4-1.1-1-.5.5.3.6.3.8-.1.2 1.1-1.5.8-.6 1.1.6-1.8 1.1.1 1.6-.4.5-.3 2.9-1.1 3.2-1.3.3-.1.5-.1.5-.1s-.2.2-.5.6c-.3.7-2.8 2.2-3.2 2-.5 1-1-.5-1.4.5-.4.6 1-.7.5-.8-6.1 3.6 1.2-2.1.5-.5-.4-.5-.7 1.4-.7.4zm-30 11c0 .4.1.4.3-.9.2 3-1.4-1.1-1-.5.5.3.6.3.8-.1.2 1.1-1.5.8-.6 1.1.6-1.8 1.1.1 1.6-.4.5-.3.9-.1 1.2-.3.3-.1.5-.1.5-.1s-.2.2-.5.6c-.3.7-.8 1.2-1.2 1-.5 1-1-.5-1.4.5-.4.6 1-.7.5-.8-6.1 3.6 1.2-2.1.5-.5-.4-.5-.7 1.4-.7.4zm14-4c0 .4.1.4.3-.9.2 3 .6-2.1 1-1.5.5.3.6.3.8-.1.2 1.1.5-.2 1.4.1.6-1.8-.9 1.1-.4.6.5-.3.9-.1 1.2-.3.3-.1.5-.1.5-.1s-.2.2-.5.6c-.3.7-.8 1.2-1.2 1-.5 1 1-1.5.6-.5-.4.6-1 .3-1.5.2-.5.3-1.1-.5-1.5.5-.4-.5-.7 1.4-.7.4zm-6.6 4.7c0 .4.1.4.3-.9.2 3 .6-2.1 1-1.5.5.3.6.3.8-.1.2 1.1.6-1.3 1.5-1 .6-1.8 1.2 1.1 1.7.6.5-.3.9-.1 1.2-.3.3-.1.5-.1.5-.1s-.2.2-.5.6c-.3.7-.8 1.2-1.2 1-.5 1-1.1-1.5-1.5-.5-.4.6-1.1 1.5-1.6 1.4-.6.3-1.1-.5-1.5.5-.4-.5-.7 1.4-.7.3zm30-16.5c0 .4.1.4.3-.9.2 3 .6-2.1 1-1.5.5.3 2.7.3 2.9-.1.2 1.1-1.5.8-.6 1.1.6-1.8 1.2 1.1 1.7.6.6-.3-1 1-.7.7.3-.1.5-.1.5-.1s-.2.2-.5.6c-.3.7 1.2.2.8 0-.5 1-1.1-1.5-1.5-.5-.4.6 1-.7.5-.8-.5.3-3.2-.5-3.6.5-.5-.4-.8 1.4-.8.4z" transform="translate(1048 492)"/><path class="st3" d="M-934.7-449.1c0 .4.1.4.3-.9.2 3 .8-2.2 1.3-1.6.5.3.6.3.8-.1.2 1.1.5-.2 1.4.1.6-1.8 2.4-1.2 2.8-1.6.5-.3 2.7-.8 3-1.1.3-.1 1.5-1.2 1.5-1.2s-.2.2-.5.6c-.3.7-2.8 2.2-3.2 2-.5 1 2.9-1.4 2.5-.4-.4.6-3 1.3-3.5 1.2-.5.3-5.3 1.6-5.7 2.6-.4-.4-.7 1.4-.7.4zm20-14c0 .4.1.4.3-.9.2 3 6.8-5.2 7.3-4.6.5.3.6.3.8-.1.2 1.1.5-.2 1.4.1.6-1.8-1.6.8-1.2.4.5-.3.7.2 1-.1.3-.1 1.5-1.2 1.5-1.2s-.2.2-.5.6c-.3.7-.8 1.2-1.2 1-.5 1 .9-.4.5.6-.4.6-1 .3-1.5.2-.5.3-7.3 2.6-7.7 3.6-.4-.4-.7 1.4-.7.4z" transform="translate(1048 492)"/></g><g id="i1207_1_"><path class="st0" d="M-934-440s.7-.2 1.5-.6c.4-.2.6-.4 1.2-.7.6-.6 1.2-.7 1.9-.9.7-.8 3.5-2 4.3-2.1.8-.2 1.7-.4 2.6-1.3.9-.7 1.9-1.1 2.9-1.5.5-.2.4-.6.9-.9s1-.5 1.5-.8c.9.3 2.4-.6 3.3-1.3 1 .2 3.9-2.3 4.9-2.4 1 .8 1.9-1.7 2.9-1.4.9-.5 1.2-1.2 2.1-1.7 1-.5 4.8-1.9 5.8-2.3 1-.8 3.9-2.4 4.8-2.4.9-.2 1.7-.4 2.5-1.2.8-.8 1.4-1.2 2.1-1 .6-.3.7-.9 1.1-1.1.8-.5 1.7-.4 1.7-.4v-8l-8-4s-2.1 1.3-2.9 1.7c-.4.2-1.2.4-1.7.7-.6-.6-3.2 2.7-3.9 1.9-.7.4-1.5.4-2.3 1.1-.8.1-1.7.6-2.6 1.3-.9.3-1.9 1.2-2.8 1.4-.5.2-2.3 1.5-2.8 1.8-.5.3-1.7.5-2.2.7-.9.2-1.9.8-2.9 1.4-1 1.5-1.9.4-2.9 1.4-1 .2-1.9 2.2-2.9 1.4-.9-.2-3.9 1.9-4.8 2.4-1 .5-2 1.2-3 1.6-1 0-2-.1-2.9 1.3-.9-.4-1.7.6-2.5 1.2-.8 1.9-1.4-.1-2.1 1-.6-1-1.1.6-1.6.8-.7.7-1.2.9-1.2.9v8s.1.1.3.2c.2.1.7.7 1.1.9.4.1.6.3 1.1.2.5.4 1 .7 1.5.7.5.2 1 0 1.5.7.5.2.9-.1 1.3.1.7.4 1.2 1.2 1.2 1.2z" transform="translate(1000 516)"/><path class="st1" d="M-934-440s.7-.2 1.5-.6c.4-.2.6-.4 1.2-.7.6-.6 1.2-.7 1.9-.9.7-.8 3.5-2 4.3-2.1.8-.2 1.7-.4 2.6-1.3.9-.7 1.9-1.1 2.9-1.5.5-.2.4-.6.9-.9s1-.5 1.5-.8c.9.3 2.4-.6 3.3-1.3 1 .2 3.9-2.3 4.9-2.4 1 .8 1.9-1.7 2.9-1.4.9-.5 1.2-1.2 2.1-1.7 1-.5 4.8-1.9 5.8-2.3 1-.8 3.9-2.4 4.8-2.4.9-.2 1.7-.4 2.5-1.2.8-.8 1.4-1.2 2.1-1 .6-.3.7-.9 1.1-1.1.8-.5 1.7-.4 1.7-.4v-8s-.5.7-2.5 1.8c-.3.1-1.5.2-1.9.4-.4.1-.8 1.1-1.2.6-.4-.3-.9-.2-1.3.7-.5.5-.9.8-1.4.7-.5.5-2.8 1.7-3.3 2.3-.5.4-3.2.5-3.7 1.2-.5.3-1.1.5-1.6.8-.6.3-1.4.2-2 .5-.5.2-.6.8-1.1 1s-.6.8-1.1 1.3c-.5.4-1.3.2-1.8.1-.5.7-1 .2-1.4.7-.5.1-3 2.3-3.4 1.7-.5-.1-1 .7-1.4.7-.5.2-2.2 2.1-2.7 2.4-1.9.9-1.1-.6-2.8.3-.5.2-1.4 1.3-1.8 1.6-.5.1-1.8.8-2.2.6-.4 0-2.8 1.3-3.2 1.6-.4-.7-.8.9-1.1.6-.4.5-1.1-1.1-1.4-.3-.3.4-.3.5-.6 1.3-.3-.2-.7.8-1 1-1.6.6-2.1.4-2.1.4v8z" transform="translate(1000 516)"/><path class="st2" d="M-942-452v8s.1.1.3.2c.2.1.7.7 1.1.9.4.1.6.3 1.1.2.5.4 1 .7 1.5.7.5.2 1 0 1.5.7.5.2.9-.1 1.3.1.7.4 1.2 1.2 1.2 1.2v-8s-.1-.1-.3-.2c-.3-.1-1.3.4-1.7.2-.4-.7-.1-1.6-.5-1.3-.5-.3-1-.3-1.5-.7s-1-1.4-1.5-.7c-.4-.6-1.1-.1-1.5-.3s-.4-.7-.7-.8c-.2-.1-.3-.2-.3-.2z" transform="translate(1000 516)"/><path class="st3" d="M-902-466.4c0 .4.1.4.3-.9.2 3-1.4-1.1-1-.5.5.3.6.3.8-.1.2 1.1-1.5.8-.6 1.1.6-1.8 1.1.1 1.6-.4.5-.3 2.9-1.1 3.2-1.3.3-.1.5-.1.5-.1s-.2.2-.5.6c-.3.7-2.8 2.2-3.2 2-.5 1-1-.5-1.4.5-.4.6 1-.7.5-.8-6.1 3.6 1.2-2.1.5-.5-.4-.5-.7 1.4-.7.4zm-30 11c0 .4.1.4.3-.9.2 3-1.4-1.1-1-.5.5.3.6.3.8-.1.2 1.1-1.5.8-.6 1.1.6-1.8 1.1.1 1.6-.4.5-.3.9-.1 1.2-.3.3-.1.5-.1.5-.1s-.2.2-.5.6c-.3.7-.8 1.2-1.2 1-.5 1-1-.5-1.4.5-.4.6 1-.7.5-.8-6.1 3.6 1.2-2.1.5-.5-.4-.5-.7 1.4-.7.4zm14-4c0 .4.1.4.3-.9.2 3 .6-2.1 1-1.5.5.3.6.3.8-.1.2 1.1.5-.2 1.4.1.6-1.8-.9 1.1-.4.6.5-.3.9-.1 1.2-.3.3-.1.5-.1.5-.1s-.2.2-.5.6c-.3.7-.8 1.2-1.2 1-.5 1 1-1.5.6-.5-.4.6-1 .3-1.5.2-.5.3-1.1-.5-1.5.5-.4-.5-.7 1.4-.7.4zm-6.6 4.7c0 .4.1.4.3-.9.2 3 .6-2.1 1-1.5.5.3.6.3.8-.1.2 1.1.6-1.3 1.5-1 .6-1.8 1.2 1.1 1.7.6.5-.3.9-.1 1.2-.3.3-.1.5-.1.5-.1s-.2.2-.5.6c-.3.7-.8 1.2-1.2 1-.5 1-1.1-1.5-1.5-.5-.4.6-1.1 1.5-1.6 1.4-.6.3-1.1-.5-1.5.5-.4-.5-.7 1.4-.7.3zm30-16.5c0 .4.1.4.3-.9.2 3 .6-2.1 1-1.5.5.3 2.7.3 2.9-.1.2 1.1-1.5.8-.6 1.1.6-1.8 1.2 1.1 1.7.6.6-.3-1 1-.7.7.3-.1.5-.1.5-.1s-.2.2-.5.6c-.3.7 1.2.2.8 0-.5 1-1.1-1.5-1.5-.5-.4.6 1-.7.5-.8-.5.3-3.2-.5-3.6.5-.5-.4-.8 1.4-.8.4z" transform="translate(1000 516)"/><path class="st3" d="M-934.7-449.1c0 .4.1.4.3-.9.2 3 .8-2.2 1.3-1.6.5.3.6.3.8-.1.2 1.1.5-.2 1.4.1.6-1.8 2.4-1.2 2.8-1.6.5-.3 2.7-.8 3-1.1.3-.1 1.5-1.2 1.5-1.2s-.2.2-.5.6c-.3.7-2.8 2.2-3.2 2-.5 1 2.9-1.4 2.5-.4-.4.6-3 1.3-3.5 1.2-.5.3-5.3 1.6-5.7 2.6-.4-.4-.7 1.4-.7.4zm20-14c0 .4.1.4.3-.9.2 3 6.8-5.2 7.3-4.6.5.3.6.3.8-.1.2 1.1.5-.2 1.4.1.6-1.8-1.6.8-1.2.4.5-.3.7.2 1-.1.3-.1 1.5-1.2 1.5-1.2s-.2.2-.5.6c-.3.7-.8 1.2-1.2 1-.5 1 .9-.4.5.6-.4.6-1 .3-1.5.2-.5.3-7.3 2.6-7.7 3.6-.4-.4-.7 1.4-.7.4z" transform="translate(1000 516)"/></g><g id="i1468_1_"><path class="st4" d="M-872-471l2-1 2 1v18l-2 1-2-1z" transform="translate(936 528)"/><path class="st2" d="M-870-452l-2-1v-18l2 1z" transform="translate(936 528)"/><path class="st1" d="M-870-452l2-1v-18l-2 1z" transform="translate(936 528)"/><path d="M-872-462v-2l1-.5-1-.5v-.5l-.5-2.5-.5 3v.5l-1 .5v-.5l-.5-2.5-.5 3v.5l-1 .5v-.5l-.5-2.5-.5 3v.5l-1 .5v-.5l-.5-2.5-.5 3v.5l-1 .5v-.5l-.5-2.5-.5 3v.5l-1 .5v-.5l-.5-2.5-.5 3v.5l-1 .5v-.5l-.5-2.5-.5 3v.5l-1 .5v-.5l-.5-2.5-.5 3v.5l-1 .5v-.5l-.5-2.5-.5 3v.5l-1 .5v-.5l-.5-2.5-.5 3v.5l-1 .5v-.5l-.5-2.5-.5 3v.5l-1 .5v-.5l-.5-2.5-.5 3v.5l-1 .5v-.5l-.5-2.5-.5 3v.5l-1 .5v-.5l-.5-2.5-.5 3v.5l-1 .5v-.5l-.5-2.5-.5 3v.5l-1 .5v-.5l-.5-2.5-.5 3v.5l-1 .5v-.5l-.5-2.5-.5 3v.5l-1 .5v-.5l-.5-2.5-.5 3v.5l-1 .5v-.5l-.5-2.5-.5 3v.5l-1 .5v-.5l-.5-2.5-.5 3v.5l-1 .5v-.5l-.5-2.5-.5 3v.5l-1 .5v-.5l-.5-2.5-.5 3v.5l-1 .5v-.5l-.5-2.5-.5 3v.5l-1 .5v-.5l-.5-2.5-.5 3v.5l-1 .5v-.5l-.5-2.5-.5 3v.5l-1 .5v-.5l-.5-2.5-.5 3v.5l-1 .5v-.5l-.5-2.5-.5 3v.5l-1 .5v-.5l-.5-2.5-.5 3v.5l-1 .5v-.5l-.5-2.5-.5 3v.5l-1 .5v-.5l-.5-2.5-.5 3v.5l-4 2 1 .5 3-1.5v2l-4 2 1 .5 3-1.5v9.5l1-.5v-9.5l1-.5v9.5l1-.5v-9.5l1-.5v9.5l1-.5v-9.5l1-.5v9.5l1-.5v-9.5l1-.5v9.5l1-.5v-9.5l1-.5v9.5l1-.5v-9.5l1-.5v9.5l1-.5v-9.5l1-.5v9.5l1-.5v-9.5l1-.5v9.5l1-.5v-9.5l1-.5v9.5l1-.5v-9.5l1-.5v9.5l1-.5v-9.5l1-.5v9.5l1-.5v-9.5l1-.5v9.5l1-.5v-9.5l1-.5v9.5l1-.5v-9.5l1-.5v9.5l1-.5v-9.5l1-.5v9.5l1-.5v-9.5l1-.5v9.5l1-.5v-9.5l1-.5v9.5l1-.5v-9.5l1-.5v9.5l1-.5v-9.5l1-.5v9.5l1-.5v-9.5l1-.5v9.5l1-.5v-9.5l1-.5v9.5l1-.5v-9.5l1-.5v9.5l1-.5v-9.5l1-.5v9.5l1-.5v-9.5l1-.5v9.5l1-.5v-9.5l1-.5v9.5l1-.5v-9.5l1-.5v9.5l1-.5v-9.5l1-.5v9.5l1-.5v-9.5l1-.5v9.5l1-.5v-9.5l1-.5v9.5l1-.5v-9.5l1-.5-1-.5zm-58 29v-2l1-.5v2l-1 .5zm2-1v-2l1-.5v2l-1 .5zm2-1v-2l1-.5v2l-1 .5zm2-1v-2l1-.5v2l-1 .5zm2-1v-2l1-.5v2l-1 .5zm2-1v-2l1-.5v2l-1 .5zm2-1v-2l1-.5v2l-1 .5zm2-1v-2l1-.5v2l-1 .5zm2-1v-2l1-.5v2l-1 .5zm2-1v-2l1-.5v2l-1 .5zm2-1v-2l1-.5v2l-1 .5zm2-1v-2l1-.5v2l-1 .5zm2-1v-2l1-.5v2l-1 .5zm2-1v-2l1-.5v2l-1 .5zm2-1v-2l1-.5v2l-1 .5zm2-1v-2l1-.5v2l-1 .5zm2-1v-2l1-.5v2l-1 .5zm2-1v-2l1-.5v2l-1 .5zm2-1v-2l1-.5v2l-1 .5zm2-1v-2l1-.5v2l-1 .5zm2-1v-2l1-.5v2l-1 .5zm2-1v-2l1-.5v2l-1 .5zm2-1v-2l1-.5v2l-1 .5zm2-1v-2l1-.5v2l-1 .5zm2-1v-2l1-.5v2l-1 .5zm2-1v-2l1-.5v2l-1 .5zm2-1v-2l1-.5v2l-1 .5zm2-1v-2l1-.5v2l-1 .5zm2-1v-2l1-.5v2l-1 .5z" fill="#2d3134" transform="translate(936 528)"/><path class="st4" d="M-936-439l2-1 2 1v18l-2 1-2-1z" transform="translate(936 528)"/><path class="st2" d="M-934-420l-2-1v-18l2 1z" transform="translate(936 528)"/><path class="st1" d="M-934-420l2-1v-18l-2 1z" transform="translate(936 528)"/></g></svg>