<svg xmlns="http://www.w3.org/2000/svg" xmlns:xlink="http://www.w3.org/1999/xlink" width="97.9" height="61.3"><style>.st0{opacity:.3;enable-background:new}.st1{fill:#2d3134}.st2{opacity:.11;enable-background:new}.st3{fill:#999}.st4,.st5{opacity:.15;enable-background:new}.st5{opacity:.29}.st6{fill:#06547a}.st8,.st9{opacity:.3;fill:#2d3134;enable-background:new}.st9{fill:#fff}.st12{fill:#539b00}.st14{fill:#fc0}.st18{opacity:6.000000e-02;enable-background:new}</style><g id="i1579_1_"><path class="st0" d="M8861-3682.4l141-70 749 375-140 70z" transform="matrix(-.1 0 0 .1 984 392)"/><path class="st1" d="M8932-3716.1c-7.5-3.7-14.2-4.2-19.2-1.9l-14 7c-5.4 2.4-8.8 7.9-8.8 15.9 0 15.5 12.5 34.3 28 42 7.6 3.8 14.6 4.2 19.6 1.8 0 0 13.9-6.9 15.1-7.6 4.5-2.7 7.3-7.9 7.3-15.2 0-15.5-12.5-34.3-28-42z" transform="matrix(-.1 0 0 .1 984 392)"/><path class="st2" d="M8937.9-3651.5c2-1 13.7-6.8 14.8-7.5 4.5-2.7 7.3-7.9 7.3-15.2 0-6.2-2.1-13-5.5-19.3l-14 7c3.4 6.4 5.5 13.1 5.5 19.3 0 7.8-3.1 13.1-8.1 15.7z" transform="matrix(-.1 0 0 .1 984 392)"/><path class="st3" d="M8935.9-3672.3c0 9.9-8 13.9-17.9 8.9-9.9-4.9-17.9-17-17.9-26.8s8-13.9 17.9-8.9c9.9 4.9 17.9 16.9 17.9 26.8z" transform="matrix(-.1 0 0 .1 984 392)"/><path class="st4" d="M8919.5-3664c-9.9-4.9-17.9-17-17.9-26.8 0-4.9 1.9-8.3 5.1-9.9-4 1.3-6.6 5-6.6 10.6 0 9.9 8 21.9 17.9 26.8 5 2.5 9.6 2.7 12.8 1-3.1.9-7 .4-11.3-1.7z" transform="matrix(-.1 0 0 .1 984 392)"/><path class="st1" d="M8926.9-3678.2c0 4.1-3.3 5.8-7.5 3.7-4.1-2.1-7.5-7.1-7.5-11.2s3.3-5.8 7.5-3.7c4.2 2.1 7.5 7.1 7.5 11.2z" transform="matrix(-.1 0 0 .1 984 392)"/><path class="st2" d="M8926.9-3678.2c0 4.1-3.3 5.8-7.5 3.7-4.1-2.1-7.5-7.1-7.5-11.2s3.3-5.8 7.5-3.7c4.2 2.1 7.5 7.1 7.5 11.2z" transform="matrix(-.1 0 0 .1 984 392)"/><path class="st1" d="M8925.5-3677.5c0 4.1-3.3 5.8-7.5 3.7-4.1-2.1-7.5-7.1-7.5-11.2s3.3-5.8 7.5-3.7c4.1 2.1 7.5 7.1 7.5 11.2z" transform="matrix(-.1 0 0 .1 984 392)"/><path class="st5" d="M8946-3667.1c0 15.5-12.5 21.7-28 14-15.5-7.7-28-26.5-28-42s12.5-21.7 28-14c15.5 7.7 28 26.5 28 42z" transform="matrix(-.1 0 0 .1 984 392)"/><path class="st6" d="M9088-3754.4l-140 70v31l32 16 140-70v-31z" transform="matrix(-.1 0 0 .1 984 392)"/><path class="st5" d="M8948-3684.4v31l32 16v-31z" transform="matrix(-.1 0 0 .1 984 392)"/><path class="st2" d="M9120-3738.4v31l-140 70v-31z" transform="matrix(-.1 0 0 .1 984 392)"/><path class="st6" d="M9120-3738.4l-10 5v31l52 26 10-5v-31z" transform="matrix(-.1 0 0 .1 984 392)"/><path class="st5" d="M9110-3733.4v31l52 26v-31z" transform="matrix(-.1 0 0 .1 984 392)"/><path class="st2" d="M9172-3712.4v31l-10 5v-31z" transform="matrix(-.1 0 0 .1 984 392)"/><path class="st3" d="M9104-3726.4l-20 10v27l44 22 20-10v-27z" transform="matrix(-.1 0 0 .1 984 392)"/><path class="st1" d="M9118-3719.4l-4-2-20 10v27l4 2v-27zm20 10l-4-2-20 10v27l4 2v-27z" transform="matrix(-.1 0 0 .1 984 392)"/><path class="st2" d="M9148-3704.4v27l-20 10v-27z" transform="matrix(-.1 0 0 .1 984 392)"/><path class="st5" d="M9084-3716.4v27l44 22v-27z" transform="matrix(-.1 0 0 .1 984 392)"/><path class="st6" d="M9074-3715.4l-4 2v31l156 78 4-2v-31z" transform="matrix(-.1 0 0 .1 984 392)"/><path class="st5" d="M9070-3713.4v31l156 78v-31z" transform="matrix(-.1 0 0 .1 984 392)"/><path class="st2" d="M9230-3637.4v31l-4 2v-31z" transform="matrix(-.1 0 0 .1 984 392)"/><path class="st6" d="M9070-3711.4l-36 18v31l24 12 36-18v-31z" transform="matrix(-.1 0 0 .1 984 392)"/><path class="st5" d="M9034-3693.4v31l24 12v-31z" transform="matrix(-.1 0 0 .1 984 392)"/><path class="st2" d="M9094-3699.4v31l-36 18v-31z" transform="matrix(-.1 0 0 .1 984 392)"/><path class="st6" d="M9030-3693.4l-4 2v31l156 78 4-2v-31z" transform="matrix(-.1 0 0 .1 984 392)"/><path class="st5" d="M9026-3691.4v31l156 78v-31z" transform="matrix(-.1 0 0 .1 984 392)"/><path class="st2" d="M9186-3615.4v31l-4 2v-31z" transform="matrix(-.1 0 0 .1 984 392)"/><path class="st3" d="M9016-3682.4l-20 10v27l44 22 20-10v-27z" transform="matrix(-.1 0 0 .1 984 392)"/><path class="st1" d="M9030-3675.4l-4-2-20 10v27l4 2v-27zm20 10l-4-2-20 10v27l4 2v-27z" transform="matrix(-.1 0 0 .1 984 392)"/><path class="st2" d="M9060-3660.4v27l-20 10v-27z" transform="matrix(-.1 0 0 .1 984 392)"/><path class="st5" d="M8996-3672.4v27l44 22v-27z" transform="matrix(-.1 0 0 .1 984 392)"/><path class="st6" d="M8990-3673.4l-10 5v31l52 26 10-5v-31z" transform="matrix(-.1 0 0 .1 984 392)"/><path class="st5" d="M8980-3668.4v31l52 26v-31z" transform="matrix(-.1 0 0 .1 984 392)"/><path class="st2" d="M9042-3647.4v31l-10 5v-31z" transform="matrix(-.1 0 0 .1 984 392)"/><path class="st1" d="M9040-3646.8l36-18-12 20-36 18z" transform="matrix(-.1 0 0 .1 984 392)"/><path class="st2" d="M9040-3646.8l36-18-12 20-36 18z" transform="matrix(-.1 0 0 .1 984 392)"/><path class="st1" d="M9094.4-3654.2c-7.5-3.7-14.2-4.2-19.2-1.9l-14 7c-5.4 2.4-8.8 7.9-8.8 15.9 0 15.5 12.5 34.3 28 42 7.6 3.8 14.6 4.2 19.6 1.8 0 0 13.9-6.9 15.1-7.6 4.5-2.7 7.3-7.9 7.3-15.2 0-15.4-12.6-34.2-28-42z" transform="matrix(-.1 0 0 .1 984 392)"/><path class="st2" d="M9100.3-3589.6c2-1 13.7-6.8 14.8-7.5 4.5-2.7 7.3-7.9 7.3-15.2 0-6.2-2.1-13-5.5-19.3l-14 7c3.4 6.4 5.5 13.1 5.5 19.3 0 7.8-3.1 13.2-8.1 15.7z" transform="matrix(-.1 0 0 .1 984 392)"/><path class="st3" d="M9098.3-3610.4c0 9.9-8 13.9-17.9 8.9-9.9-4.9-17.9-17-17.9-26.8s8-13.9 17.9-8.9c9.8 4.9 17.9 16.9 17.9 26.8z" transform="matrix(-.1 0 0 .1 984 392)"/><path class="st4" d="M9081.9-3602.1c-9.9-4.9-17.9-17-17.9-26.8 0-4.9 1.9-8.3 5.1-9.9-4 1.3-6.6 5-6.6 10.6 0 9.9 8 21.9 17.9 26.8 5 2.5 9.6 2.7 12.8 1-3.1.9-7 .4-11.3-1.7z" transform="matrix(-.1 0 0 .1 984 392)"/><path class="st1" d="M9089.3-3616.3c0 4.1-3.3 5.8-7.5 3.7-4.1-2.1-7.5-7.1-7.5-11.2s3.3-5.8 7.5-3.7 7.5 7.1 7.5 11.2z" transform="matrix(-.1 0 0 .1 984 392)"/><path class="st2" d="M9089.3-3616.3c0 4.1-3.3 5.8-7.5 3.7-4.1-2.1-7.5-7.1-7.5-11.2s3.3-5.8 7.5-3.7 7.5 7.1 7.5 11.2z" transform="matrix(-.1 0 0 .1 984 392)"/><path class="st1" d="M9087.8-3615.6c0 4.1-3.3 5.8-7.5 3.7-4.1-2.1-7.5-7.1-7.5-11.2s3.3-5.8 7.5-3.7c4.2 2.1 7.5 7.1 7.5 11.2z" transform="matrix(-.1 0 0 .1 984 392)"/><path class="st5" d="M9108.4-3605.2c0 15.5-12.5 21.7-28 14s-28-26.5-28-42 12.5-21.7 28-14c15.4 7.8 28 26.6 28 42z" transform="matrix(-.1 0 0 .1 984 392)"/><path class="st1" d="M9075-3644.7c-7.5-3.7-14.2-4.2-19.2-1.9l-14 7c-5.4 2.4-8.8 7.9-8.8 15.9 0 15.5 12.5 34.3 28 42 7.6 3.8 14.6 4.2 19.6 1.8 0 0 13.9-6.9 15.1-7.6 4.5-2.7 7.3-7.9 7.3-15.2 0-15.5-12.5-34.3-28-42z" transform="matrix(-.1 0 0 .1 984 392)"/><path class="st2" d="M9080.9-3580.1c2-1 13.7-6.8 14.8-7.5 4.5-2.7 7.3-7.9 7.3-15.2 0-6.2-2.1-13-5.5-19.3l-14 7c3.4 6.4 5.5 13.1 5.5 19.3 0 7.7-3.1 13.1-8.1 15.7z" transform="matrix(-.1 0 0 .1 984 392)"/><path class="st3" d="M9078.9-3601c0 9.9-8 13.9-17.9 8.9-9.9-4.9-17.9-17-17.9-26.8s8-13.9 17.9-8.9 17.9 17 17.9 26.8z" transform="matrix(-.1 0 0 .1 984 392)"/><path class="st4" d="M9062.5-3592.6c-9.9-4.9-17.9-17-17.9-26.8 0-4.9 1.9-8.3 5.1-9.9-4 1.3-6.6 5-6.6 10.6 0 9.9 8 21.9 17.9 26.8 5 2.5 9.6 2.7 12.8 1-3.1.9-7 .4-11.3-1.7z" transform="matrix(-.1 0 0 .1 984 392)"/><path class="st1" d="M9069.9-3606.8c0 4.1-3.3 5.8-7.5 3.7-4.1-2.1-7.5-7.1-7.5-11.2s3.3-5.8 7.5-3.7c4.2 2.1 7.5 7.1 7.5 11.2z" transform="matrix(-.1 0 0 .1 984 392)"/><path class="st2" d="M9069.9-3606.8c0 4.1-3.3 5.8-7.5 3.7-4.1-2.1-7.5-7.1-7.5-11.2s3.3-5.8 7.5-3.7c4.2 2.1 7.5 7.1 7.5 11.2z" transform="matrix(-.1 0 0 .1 984 392)"/><path class="st1" d="M9068.5-3606.1c0 4.1-3.3 5.8-7.5 3.7-4.2-2.1-7.5-7.1-7.5-11.2s3.3-5.8 7.5-3.7c4.1 2.1 7.5 7.1 7.5 11.2z" transform="matrix(-.1 0 0 .1 984 392)"/><path class="st5" d="M9089-3595.7c0 15.5-12.5 21.7-28 14s-28-26.5-28-42 12.5-21.7 28-14 28 26.5 28 42z" transform="matrix(-.1 0 0 .1 984 392)"/><path class="st1" d="M9040-3646.8l36-18 36 18-36 18z" transform="matrix(-.1 0 0 .1 984 392)"/><path class="st1" d="M9090-3603.8l36-18-14-25-36 18z" transform="matrix(-.1 0 0 .1 984 392)"/><path class="st2" d="M9090-3603.8l36-18-14-25-36 18z" transform="matrix(-.1 0 0 .1 984 392)"/><path class="st1" d="M9098-3616.8l36-18-12 20-36 18z" transform="matrix(-.1 0 0 .1 984 392)"/><path class="st2" d="M9098-3616.8l36-18-12 20-36 18z" transform="matrix(-.1 0 0 .1 984 392)"/><path class="st1" d="M9152.4-3624.2c-7.5-3.7-14.2-4.2-19.2-1.9l-14 7c-5.4 2.4-8.8 7.9-8.8 15.9 0 15.5 12.5 34.3 28 42 7.6 3.8 14.6 4.2 19.6 1.8 0 0 13.9-6.9 15.1-7.6 4.5-2.7 7.3-7.9 7.3-15.2 0-15.4-12.6-34.2-28-42z" transform="matrix(-.1 0 0 .1 984 392)"/><path class="st2" d="M9158.3-3559.6c2-1 13.7-6.8 14.8-7.5 4.5-2.7 7.3-7.9 7.3-15.2 0-6.2-2.1-13-5.5-19.3l-14 7c3.4 6.4 5.5 13.1 5.5 19.3 0 7.8-3.1 13.2-8.1 15.7z" transform="matrix(-.1 0 0 .1 984 392)"/><path class="st3" d="M9156.3-3580.4c0 9.9-8 13.9-17.9 8.9-9.9-4.9-17.9-17-17.9-26.8s8-13.9 17.9-8.9c9.8 4.9 17.9 16.9 17.9 26.8z" transform="matrix(-.1 0 0 .1 984 392)"/><path class="st4" d="M9139.9-3572.1c-9.9-4.9-17.9-17-17.9-26.8 0-4.9 1.9-8.3 5.1-9.9-4 1.3-6.6 5-6.6 10.6 0 9.9 8 21.9 17.9 26.8 5 2.5 9.6 2.7 12.8 1-3.1.9-7 .4-11.3-1.7z" transform="matrix(-.1 0 0 .1 984 392)"/><path class="st1" d="M9147.3-3586.3c0 4.1-3.3 5.8-7.5 3.7-4.1-2.1-7.5-7.1-7.5-11.2s3.3-5.8 7.5-3.7 7.5 7.1 7.5 11.2z" transform="matrix(-.1 0 0 .1 984 392)"/><path class="st2" d="M9147.3-3586.3c0 4.1-3.3 5.8-7.5 3.7-4.1-2.1-7.5-7.1-7.5-11.2s3.3-5.8 7.5-3.7 7.5 7.1 7.5 11.2z" transform="matrix(-.1 0 0 .1 984 392)"/><path class="st1" d="M9145.8-3585.6c0 4.1-3.3 5.8-7.5 3.7-4.1-2.1-7.5-7.1-7.5-11.2s3.3-5.8 7.5-3.7c4.2 2.1 7.5 7.1 7.5 11.2z" transform="matrix(-.1 0 0 .1 984 392)"/><path class="st5" d="M9166.4-3575.2c0 15.5-12.5 21.7-28 14s-28-26.5-28-42 12.5-21.7 28-14c15.4 7.8 28 26.6 28 42z" transform="matrix(-.1 0 0 .1 984 392)"/><path class="st1" d="M9133-3614.7c-7.5-3.7-14.2-4.2-19.2-1.9l-14 7c-5.4 2.4-8.8 7.9-8.8 15.9 0 15.5 12.5 34.3 28 42 7.6 3.8 14.6 4.2 19.6 1.8 0 0 13.9-6.9 15.1-7.6 4.5-2.7 7.3-7.9 7.3-15.2 0-15.5-12.5-34.3-28-42z" transform="matrix(-.1 0 0 .1 984 392)"/><path class="st2" d="M9138.9-3550.1c2-1 13.7-6.8 14.8-7.5 4.5-2.7 7.3-7.9 7.3-15.2 0-6.2-2.1-13-5.5-19.3l-14 7c3.4 6.4 5.5 13.1 5.5 19.3 0 7.7-3.1 13.1-8.1 15.7z" transform="matrix(-.1 0 0 .1 984 392)"/><path class="st3" d="M9136.9-3571c0 9.9-8 13.9-17.9 8.9-9.9-4.9-17.9-17-17.9-26.8s8-13.9 17.9-8.9 17.9 17 17.9 26.8z" transform="matrix(-.1 0 0 .1 984 392)"/><path class="st4" d="M9120.5-3562.6c-9.9-4.9-17.9-17-17.9-26.8 0-4.9 1.9-8.3 5.1-9.9-4 1.3-6.6 5-6.6 10.6 0 9.9 8 21.9 17.9 26.8 5 2.5 9.6 2.7 12.8 1-3.1.9-7 .4-11.3-1.7z" transform="matrix(-.1 0 0 .1 984 392)"/><path class="st1" d="M9127.9-3576.8c0 4.1-3.3 5.8-7.5 3.7-4.1-2.1-7.5-7.1-7.5-11.2s3.3-5.8 7.5-3.7c4.2 2.1 7.5 7.1 7.5 11.2z" transform="matrix(-.1 0 0 .1 984 392)"/><path class="st2" d="M9127.9-3576.8c0 4.1-3.3 5.8-7.5 3.7-4.1-2.1-7.5-7.1-7.5-11.2s3.3-5.8 7.5-3.7c4.2 2.1 7.5 7.1 7.5 11.2z" transform="matrix(-.1 0 0 .1 984 392)"/><path class="st1" d="M9126.5-3576.1c0 4.1-3.3 5.8-7.5 3.7-4.2-2.1-7.5-7.1-7.5-11.2s3.3-5.8 7.5-3.7c4.1 2.1 7.5 7.1 7.5 11.2z" transform="matrix(-.1 0 0 .1 984 392)"/><path class="st5" d="M9147-3565.7c0 15.5-12.5 21.7-28 14s-28-26.5-28-42 12.5-21.7 28-14 28 26.5 28 42z" transform="matrix(-.1 0 0 .1 984 392)"/><path class="st1" d="M9098-3616.8l36-18 36 18-36 18z" transform="matrix(-.1 0 0 .1 984 392)"/><path class="st1" d="M9148-3573.8l36-18-14-25-36 18z" transform="matrix(-.1 0 0 .1 984 392)"/><path class="st2" d="M9148-3573.8l36-18-14-25-36 18z" transform="matrix(-.1 0 0 .1 984 392)"/><path class="st1" d="M9398-3468l36-18-12 20-36 18z" transform="matrix(-.1 0 0 .1 984 392)"/><path class="st2" d="M9398-3468l36-18-12 20-36 18z" transform="matrix(-.1 0 0 .1 984 392)"/><path class="st1" d="M9452.4-3475.4c-7.5-3.7-14.2-4.2-19.2-1.9l-14 7c-5.4 2.4-8.8 7.9-8.8 15.9 0 15.5 12.5 34.3 28 42 7.6 3.8 14.6 4.2 19.6 1.8 0 0 13.9-6.9 15.1-7.6 4.5-2.7 7.3-7.9 7.3-15.2 0-15.5-12.6-34.3-28-42z" transform="matrix(-.1 0 0 .1 984 392)"/><path class="st2" d="M9458.3-3410.8c2-1 13.7-6.8 14.8-7.5 4.5-2.7 7.3-7.9 7.3-15.2 0-6.2-2.1-13-5.5-19.3l-14 7c3.4 6.4 5.5 13.1 5.5 19.3 0 7.7-3.1 13.1-8.1 15.7z" transform="matrix(-.1 0 0 .1 984 392)"/><path class="st3" d="M9456.3-3431.7c0 9.9-8 13.9-17.9 8.9-9.9-4.9-17.9-17-17.9-26.8s8-13.9 17.9-8.9c9.8 5 17.9 17 17.9 26.8z" transform="matrix(-.1 0 0 .1 984 392)"/><path class="st4" d="M9439.9-3423.3c-9.9-4.9-17.9-17-17.9-26.8 0-4.9 1.9-8.3 5.1-9.9-4 1.3-6.6 5-6.6 10.6 0 9.9 8 21.9 17.9 26.8 5 2.5 9.6 2.7 12.8 1-3.1.9-7 .4-11.3-1.7z" transform="matrix(-.1 0 0 .1 984 392)"/><path class="st1" d="M9447.3-3437.5c0 4.1-3.3 5.8-7.5 3.7-4.2-2.1-7.5-7.1-7.5-11.2s3.3-5.8 7.5-3.7c4.2 2.1 7.5 7.1 7.5 11.2z" transform="matrix(-.1 0 0 .1 984 392)"/><path class="st2" d="M9447.3-3437.5c0 4.1-3.3 5.8-7.5 3.7-4.2-2.1-7.5-7.1-7.5-11.2s3.3-5.8 7.5-3.7c4.2 2.1 7.5 7.1 7.5 11.2z" transform="matrix(-.1 0 0 .1 984 392)"/><path class="st1" d="M9445.8-3436.8c0 4.1-3.3 5.8-7.5 3.7-4.1-2.1-7.5-7.1-7.5-11.2s3.3-5.8 7.5-3.7c4.2 2.1 7.5 7.1 7.5 11.2z" transform="matrix(-.1 0 0 .1 984 392)"/><path class="st5" d="M9466.4-3426.4c0 15.5-12.5 21.7-28 14-15.5-7.7-28-26.5-28-42s12.5-21.7 28-14c15.4 7.7 28 26.5 28 42z" transform="matrix(-.1 0 0 .1 984 392)"/><path class="st1" d="M9433-3466c-7.5-3.7-14.2-4.2-19.2-1.9l-14 7c-5.4 2.4-8.8 7.9-8.8 15.9 0 15.5 12.5 34.3 28 42 7.6 3.8 14.6 4.2 19.6 1.8 0 0 13.9-6.9 15.1-7.6 4.5-2.7 7.3-7.9 7.3-15.2 0-15.4-12.5-34.2-28-42z" transform="matrix(-.1 0 0 .1 984 392)"/><path class="st2" d="M9438.9-3401.3c2-1 13.7-6.8 14.8-7.5 4.5-2.7 7.3-7.9 7.3-15.2 0-6.2-2.1-13-5.5-19.3l-14 7c3.4 6.4 5.5 13.1 5.5 19.3 0 7.7-3.1 13.1-8.1 15.7z" transform="matrix(-.1 0 0 .1 984 392)"/><path class="st3" d="M9436.9-3422.2c0 9.9-8 13.9-17.9 8.9-9.9-4.9-17.9-17-17.9-26.8 0-9.9 8-13.9 17.9-8.9s17.9 16.9 17.9 26.8z" transform="matrix(-.1 0 0 .1 984 392)"/><path class="st4" d="M9420.5-3413.9c-9.9-4.9-17.9-17-17.9-26.8 0-4.9 1.9-8.3 5.1-9.9-4 1.3-6.6 5-6.6 10.6 0 9.9 8 21.9 17.9 26.8 5 2.5 9.6 2.7 12.8 1-3.1.9-7 .5-11.3-1.7z" transform="matrix(-.1 0 0 .1 984 392)"/><path class="st1" d="M9427.9-3428c0 4.1-3.3 5.8-7.5 3.7-4.1-2.1-7.5-7.1-7.5-11.2s3.3-5.8 7.5-3.7c4.2 2.1 7.5 7.1 7.5 11.2z" transform="matrix(-.1 0 0 .1 984 392)"/><path class="st2" d="M9427.9-3428c0 4.1-3.3 5.8-7.5 3.7-4.1-2.1-7.5-7.1-7.5-11.2s3.3-5.8 7.5-3.7c4.2 2.1 7.5 7.1 7.5 11.2z" transform="matrix(-.1 0 0 .1 984 392)"/><path class="st1" d="M9426.5-3427.3c0 4.1-3.3 5.8-7.5 3.7-4.2-2.1-7.5-7.1-7.5-11.2s3.3-5.8 7.5-3.7c4.2 2.1 7.5 7.1 7.5 11.2z" transform="matrix(-.1 0 0 .1 984 392)"/><path class="st5" d="M9447-3416.9c0 15.5-12.5 21.7-28 14-15.5-7.7-28-26.5-28-42s12.5-21.7 28-14c15.5 7.7 28 26.5 28 42z" transform="matrix(-.1 0 0 .1 984 392)"/><path class="st1" d="M9398-3468l36-18 36 18-36 18z" transform="matrix(-.1 0 0 .1 984 392)"/><path class="st1" d="M9448-3425l36-18-14-25-36 18z" transform="matrix(-.1 0 0 .1 984 392)"/><path class="st2" d="M9448-3425l36-18-14-25-36 18z" transform="matrix(-.1 0 0 .1 984 392)"/><path class="st1" d="M9457-3437.6l36-18-12 20-36 18z" transform="matrix(-.1 0 0 .1 984 392)"/><path class="st2" d="M9457-3437.6l36-18-12 20-36 18z" transform="matrix(-.1 0 0 .1 984 392)"/><path class="st1" d="M9511.4-3445c-7.5-3.7-14.2-4.2-19.2-1.9l-14 7c-5.4 2.4-8.8 7.9-8.8 15.9 0 15.5 12.5 34.3 28 42 7.6 3.8 14.6 4.2 19.6 1.8 0 0 13.9-6.9 15.1-7.6 4.5-2.7 7.3-7.9 7.3-15.2 0-15.5-12.6-34.3-28-42z" transform="matrix(-.1 0 0 .1 984 392)"/><path class="st2" d="M9517.3-3380.4c2-1 13.7-6.8 14.8-7.5 4.5-2.7 7.3-7.9 7.3-15.2 0-6.2-2.1-13-5.5-19.3l-14 7c3.4 6.4 5.5 13.1 5.5 19.3 0 7.7-3.1 13.1-8.1 15.7z" transform="matrix(-.1 0 0 .1 984 392)"/><path class="st3" d="M9515.3-3401.3c0 9.9-8 13.9-17.9 8.9-9.9-4.9-17.9-17-17.9-26.8 0-9.9 8-13.9 17.9-8.9 9.8 5 17.9 17 17.9 26.8z" transform="matrix(-.1 0 0 .1 984 392)"/><path class="st4" d="M9498.9-3392.9c-9.9-4.9-17.9-17-17.9-26.8 0-4.9 1.9-8.3 5.1-9.9-4 1.3-6.6 5-6.6 10.6 0 9.9 8 21.9 17.9 26.8 5 2.5 9.6 2.7 12.8 1-3.1.9-7 .4-11.3-1.7z" transform="matrix(-.1 0 0 .1 984 392)"/><path class="st1" d="M9506.3-3407.1c0 4.1-3.3 5.8-7.5 3.7-4.1-2.1-7.5-7.1-7.5-11.2s3.3-5.8 7.5-3.7c4.2 2.1 7.5 7.1 7.5 11.2z" transform="matrix(-.1 0 0 .1 984 392)"/><path class="st2" d="M9506.3-3407.1c0 4.1-3.3 5.8-7.5 3.7-4.1-2.1-7.5-7.1-7.5-11.2s3.3-5.8 7.5-3.7c4.2 2.1 7.5 7.1 7.5 11.2z" transform="matrix(-.1 0 0 .1 984 392)"/><path class="st1" d="M9504.8-3406.4c0 4.1-3.3 5.8-7.5 3.7-4.1-2.1-7.5-7.1-7.5-11.2s3.3-5.8 7.5-3.7c4.2 2.1 7.5 7.1 7.5 11.2z" transform="matrix(-.1 0 0 .1 984 392)"/><path class="st5" d="M9525.4-3396c0 15.5-12.5 21.7-28 14s-28-26.5-28-42 12.5-21.7 28-14c15.4 7.7 28 26.5 28 42z" transform="matrix(-.1 0 0 .1 984 392)"/><path class="st1" d="M9492-3435.5c-7.5-3.7-14.2-4.2-19.2-1.9l-14 7c-5.4 2.4-8.8 7.9-8.8 15.9 0 15.5 12.5 34.3 28 42 7.6 3.8 14.6 4.2 19.6 1.8 0 0 13.9-6.9 15.1-7.6 4.5-2.7 7.3-7.9 7.3-15.2 0-15.5-12.5-34.3-28-42z" transform="matrix(-.1 0 0 .1 984 392)"/><path class="st2" d="M9497.9-3370.9c2-1 13.7-6.8 14.8-7.5 4.5-2.7 7.3-7.9 7.3-15.2 0-6.2-2.1-13-5.5-19.3l-14 7c3.4 6.4 5.5 13.1 5.5 19.3 0 7.7-3.1 13.1-8.1 15.7z" transform="matrix(-.1 0 0 .1 984 392)"/><path class="st3" d="M9495.9-3391.8c0 9.9-8 13.9-17.9 8.9s-17.9-17-17.9-26.8c0-9.9 8-13.9 17.9-8.9 9.9 4.9 17.9 16.9 17.9 26.8z" transform="matrix(-.1 0 0 .1 984 392)"/><path class="st4" d="M9479.5-3383.5c-9.9-4.9-17.9-17-17.9-26.8 0-4.9 1.9-8.3 5.1-9.9-4 1.3-6.6 5-6.6 10.6 0 9.9 8 21.9 17.9 26.8 5 2.5 9.6 2.7 12.8 1-3.1.9-7 .5-11.3-1.7z" transform="matrix(-.1 0 0 .1 984 392)"/><path class="st1" d="M9486.9-3397.6c0 4.1-3.3 5.8-7.5 3.7-4.1-2.1-7.5-7.1-7.5-11.2s3.3-5.8 7.5-3.7c4.2 2.1 7.5 7.1 7.5 11.2z" transform="matrix(-.1 0 0 .1 984 392)"/><path class="st2" d="M9486.9-3397.6c0 4.1-3.3 5.8-7.5 3.7-4.1-2.1-7.5-7.1-7.5-11.2s3.3-5.8 7.5-3.7c4.2 2.1 7.5 7.1 7.5 11.2z" transform="matrix(-.1 0 0 .1 984 392)"/><path class="st1" d="M9485.5-3396.9c0 4.1-3.3 5.8-7.5 3.7-4.2-2.1-7.5-7.1-7.5-11.2s3.3-5.8 7.5-3.7c4.2 2.1 7.5 7.1 7.5 11.2z" transform="matrix(-.1 0 0 .1 984 392)"/><path class="st5" d="M9506-3386.5c0 15.5-12.5 21.7-28 14s-28-26.5-28-42 12.5-21.7 28-14 28 26.5 28 42z" transform="matrix(-.1 0 0 .1 984 392)"/><path class="st1" d="M9457-3437.6l36-18 36 18-36 18z" transform="matrix(-.1 0 0 .1 984 392)"/><path class="st1" d="M9507-3394.6l36-18-14-25-36 18z" transform="matrix(-.1 0 0 .1 984 392)"/><path class="st2" d="M9507-3394.6l36-18-14-25-36 18z" transform="matrix(-.1 0 0 .1 984 392)"/><path class="st1" d="M9516-3408l36-18-12 20-36 18z" transform="matrix(-.1 0 0 .1 984 392)"/><path class="st2" d="M9516-3408l36-18-12 20-36 18z" transform="matrix(-.1 0 0 .1 984 392)"/><path class="st1" d="M9570.4-3415.4c-7.5-3.7-14.2-4.2-19.2-1.9l-14 7c-5.4 2.4-8.8 7.9-8.8 15.9 0 15.5 12.5 34.3 28 42 7.6 3.8 14.6 4.2 19.6 1.8 0 0 13.9-6.9 15.1-7.6 4.5-2.7 7.3-7.9 7.3-15.2 0-15.5-12.6-34.3-28-42z" transform="matrix(-.1 0 0 .1 984 392)"/><path class="st2" d="M9576.3-3350.8c2-1 13.7-6.8 14.8-7.5 4.5-2.7 7.3-7.9 7.3-15.2 0-6.2-2.1-13-5.5-19.3l-14 7c3.4 6.4 5.5 13.1 5.5 19.3 0 7.7-3.1 13.1-8.1 15.7z" transform="matrix(-.1 0 0 .1 984 392)"/><path class="st3" d="M9574.3-3371.7c0 9.9-8 13.9-17.9 8.9-9.9-4.9-17.9-17-17.9-26.8 0-9.9 8-13.9 17.9-8.9 9.8 5 17.9 17 17.9 26.8z" transform="matrix(-.1 0 0 .1 984 392)"/><path class="st4" d="M9557.9-3363.3c-9.9-4.9-17.9-17-17.9-26.8 0-4.9 1.9-8.3 5.1-9.9-4 1.3-6.6 5-6.6 10.6 0 9.9 8 21.9 17.9 26.8 5 2.5 9.6 2.7 12.8 1-3.1.9-7 .4-11.3-1.7z" transform="matrix(-.1 0 0 .1 984 392)"/><path class="st1" d="M9565.3-3377.5c0 4.1-3.3 5.8-7.5 3.7-4.2-2.1-7.5-7.1-7.5-11.2s3.3-5.8 7.5-3.7c4.2 2.1 7.5 7.1 7.5 11.2z" transform="matrix(-.1 0 0 .1 984 392)"/><path class="st2" d="M9565.3-3377.5c0 4.1-3.3 5.8-7.5 3.7-4.2-2.1-7.5-7.1-7.5-11.2s3.3-5.8 7.5-3.7c4.2 2.1 7.5 7.1 7.5 11.2z" transform="matrix(-.1 0 0 .1 984 392)"/><path class="st1" d="M9563.8-3376.8c0 4.1-3.3 5.8-7.5 3.7-4.1-2.1-7.5-7.1-7.5-11.2s3.3-5.8 7.5-3.7c4.2 2.1 7.5 7.1 7.5 11.2z" transform="matrix(-.1 0 0 .1 984 392)"/><path class="st5" d="M9584.4-3366.4c0 15.5-12.5 21.7-28 14-15.5-7.7-28-26.5-28-42s12.5-21.7 28-14c15.4 7.7 28 26.5 28 42z" transform="matrix(-.1 0 0 .1 984 392)"/><path class="st1" d="M9551-3406c-7.5-3.7-14.2-4.2-19.2-1.9l-14 7c-5.4 2.4-8.8 7.9-8.8 15.9 0 15.5 12.5 34.3 28 42 7.6 3.8 14.6 4.2 19.6 1.8 0 0 13.9-6.9 15.1-7.6 4.5-2.7 7.3-7.9 7.3-15.2 0-15.4-12.5-34.2-28-42z" transform="matrix(-.1 0 0 .1 984 392)"/><path class="st2" d="M9556.9-3341.3c2-1 13.7-6.8 14.8-7.5 4.5-2.7 7.3-7.9 7.3-15.2 0-6.2-2.1-13-5.5-19.3l-14 7c3.4 6.4 5.5 13.1 5.5 19.3 0 7.7-3.1 13.1-8.1 15.7z" transform="matrix(-.1 0 0 .1 984 392)"/><path class="st3" d="M9554.9-3362.2c0 9.9-8 13.9-17.9 8.9-9.9-4.9-17.9-17-17.9-26.8 0-9.9 8-13.9 17.9-8.9 9.9 4.9 17.9 16.9 17.9 26.8z" transform="matrix(-.1 0 0 .1 984 392)"/><path class="st4" d="M9538.5-3353.9c-9.9-4.9-17.9-17-17.9-26.8 0-4.9 1.9-8.3 5.1-9.9-4 1.3-6.6 5-6.6 10.6 0 9.9 8 21.9 17.9 26.8 5 2.5 9.6 2.7 12.8 1-3.1.9-7 .5-11.3-1.7z" transform="matrix(-.1 0 0 .1 984 392)"/><path class="st1" d="M9545.9-3368c0 4.1-3.3 5.8-7.5 3.7-4.1-2.1-7.5-7.1-7.5-11.2s3.3-5.8 7.5-3.7c4.2 2.1 7.5 7.1 7.5 11.2z" transform="matrix(-.1 0 0 .1 984 392)"/><path class="st2" d="M9545.9-3368c0 4.1-3.3 5.8-7.5 3.7-4.1-2.1-7.5-7.1-7.5-11.2s3.3-5.8 7.5-3.7c4.2 2.1 7.5 7.1 7.5 11.2z" transform="matrix(-.1 0 0 .1 984 392)"/><path class="st1" d="M9544.5-3367.3c0 4.1-3.3 5.8-7.5 3.7-4.2-2.1-7.5-7.1-7.5-11.2s3.3-5.8 7.5-3.7c4.2 2.1 7.5 7.1 7.5 11.2z" transform="matrix(-.1 0 0 .1 984 392)"/><path class="st5" d="M9565-3356.9c0 15.5-12.5 21.7-28 14-15.5-7.7-28-26.5-28-42s12.5-21.7 28-14c15.5 7.7 28 26.5 28 42z" transform="matrix(-.1 0 0 .1 984 392)"/><path class="st1" d="M9516-3408l36-18 36 18-36 18z" transform="matrix(-.1 0 0 .1 984 392)"/><path class="st1" d="M9566-3365l36-18-14-25-36 18z" transform="matrix(-.1 0 0 .1 984 392)"/><path class="st2" d="M9566-3365l36-18-14-25-36 18z" transform="matrix(-.1 0 0 .1 984 392)"/><path class="st6" d="M9001-3822.4l-140 70v50l28.9 14.4v-2.9c.5-9.6 4.7-19.4 12.5-21.2 7.5-1.7 15 2.2 23.6 6.6 2.6 1.3 43 22 43 22l18 9 140-70v-15l-126-62.9z" transform="matrix(-.1 0 0 .1 984 392)"/><path class="st6" d="M9017-3917.4l-140 70-6.5 17.4c-6.3 16.6-9.5 36.9-9.5 60.6v15l126 63 140-70v-101l-110-55z" transform="matrix(-.1 0 0 .1 984 392)"/><path class="st2" d="M8987-3674.4l140-70v-15l-140 70zm0-17l140-70v-101l-140 70z" transform="matrix(-.1 0 0 .1 984 392)"/><path d="M8932.7-3773.7c-.1 0-.2 0-.3-.1l-35-17.6c-1.2-.6-2.2-.9-3.2-.9-2.6 0-4.1 2-4.1 5.4 0 1.7-.5 2.5-1.5 2.5-.5 0-1.1-.2-1.7-.5l-14.4-7.1c-2-1-4.3-5.2-4-6.8 1.5-9.5 3.8-18.2 6.8-25.9l4.6-12.1c.4-1.1 1.1-1.6 2.2-1.6.8 0 1.7.3 2.7.8l43.9 22c1.8.9 4 4.6 4 6.5v35.1c.1.2 0 .3 0 .3z" fill="#656565" transform="matrix(-.1 0 0 .1 984 392)"/><path class="st1" d="M8882.1-3837.4c.4 0 1.2.1 2.3.7l43.9 22c1.4.7 3.5 4 3.5 5.6v33.8l-33.9-17c-1.3-.6-2.5-1-3.6-1-1.6 0-3 .7-3.9 2-.8 1.1-1.2 2.6-1.2 4.4 0 1-.3 1.4-.3 1.5h-.2c-.2 0-.6-.1-1.3-.4l-14.4-7.1c-1.7-.9-3.7-4.6-3.5-5.8 1.5-9.4 3.8-18 6.7-25.7l4.6-12.1c.3-.7.7-.9 1.3-.9m0-2c-1.5 0-2.6.8-3.1 2.2l-4.6 12.1c-3 7.8-5.3 16.6-6.8 26.1-.4 2.2 2.3 6.7 4.6 7.9l14.4 7.1c.8.4 1.6.6 2.2.6 1.6 0 2.5-1.2 2.5-3.5 0-2.8 1.1-4.4 3.1-4.4.8 0 1.7.3 2.7.8l35 17.6c.3.2.6.2.8.2.6 0 .9-.5.9-1.3v-35.1c0-2.4-2.5-6.4-4.6-7.4l-43.9-22c-1.2-.6-2.3-.9-3.2-.9z" transform="matrix(-.1 0 0 .1 984 392)"/><path class="st5" d="M8987-3689.4v15l-18-9s-40.4-20.7-43-22c-8.6-4.5-16.1-8.3-23.6-6.6-8.6 2-12.8 13.7-12.5 24.1l-28.9-14.5v-50l126 63z" transform="matrix(-.1 0 0 .1 984 392)"/><path class="st8" d="M8934-3762.9v5l-10-5v-5z" transform="matrix(-.1 0 0 .1 984 392)"/><path class="st9" d="M8924-3760.4l10 5v-2.5l-10-5z" transform="matrix(-.1 0 0 .1 984 392)"/><path class="st8" d="M8969-3700.4l-2-1v-100.7l2 1z" transform="matrix(-.1 0 0 .1 984 392)"/><path class="st9" d="M8971-3699.4l-2-1v-100.7l2 1z" transform="matrix(-.1 0 0 .1 984 392)"/><path class="st8" d="M8877-3694.4l-2-1v-50l2 1z" transform="matrix(-.1 0 0 .1 984 392)"/><path class="st9" d="M8879-3693.4l-2-1v-50l2 1z" transform="matrix(-.1 0 0 .1 984 392)"/><path class="st1" d="M8875.3-3788.2c-1.1 0-2.2-.3-3.1-.9-1.8-1.1-2.8-3-2.8-5.1v-32.2c0-2.3 1.3-4.3 3.3-5.3l3.7-1.8.4.9-3.7 1.8c-1.7.8-2.7 2.5-2.7 4.4v32.3c0 1.7.9 3.3 2.4 4.2 1.5.9 3.3 1 4.8.2l.6-.3.4.9-.6.3c-.8.4-1.7.6-2.7.6z" transform="matrix(-.1 0 0 .1 984 392)"/><path class="st1" d="M8869.6-3827.3l.7-.3c2.4-.8 4.9 1 4.9 3.5v21.4c0 3.1-1.9 6-4.9 7.1l-.9.3c-2.4.9-5.1-.9-5.1-3.5v-21.5c.2-3 2.2-5.9 5.3-7z" transform="matrix(-.1 0 0 .1 984 392)"/><path class="st5" d="M8877-3847.4l110 55v101l-126-63v-15c0-23.7 3.2-44.1 9.5-60.6l6.5-17.4z" transform="matrix(-.1 0 0 .1 984 392)"/><path class="st6" d="M9058.4-3919.9c-3-.3-5.5.2-7.5 1.5h-.1l-138.6 69.3c-.3.1-.6.3-.9.5l-.4.2-.1.1c-3.8 2.4-5.8 7.5-5.8 14.9l82 41 140-70v-36l-68.6-21.5z" transform="matrix(-.1 0 0 .1 984 392)"/><path class="st5" d="M8987-3828.4v36l-82-41c0-11.5 4.9-17.5 13.4-16.5l68.6 21.5z" transform="matrix(-.1 0 0 .1 984 392)"/><path class="st2" d="M8987-3828.4v36l140-70v-36z" transform="matrix(-.1 0 0 .1 984 392)"/><path class="st6" d="M9123-3763.4l-10-5v-118l10-5z" transform="matrix(-.1 0 0 .1 984 392)"/><path class="st5" d="M9123-3763.4l-10-5v-118l10-5z" transform="matrix(-.1 0 0 .1 984 392)"/><path class="st6" d="M9123-3763.4l-10-5-122 61v10z" transform="matrix(-.1 0 0 .1 984 392)"/><path class="st1" d="M9749-3426.4l-140 70 19 19 22 11 140-70v-10z" transform="matrix(-.1 0 0 .1 984 392)"/><path d="M9785-3403.9v9.5l-10 5v-9.5zm-15 7.5v9.5l-10 5v-9.5zm-90 45v9.5l-10 5v-9.5zm-15 7.5v9.5l-10 5v-9.5z" transform="matrix(-.1 0 0 .1 984 392)" fill="#cc291f"/><path class="st5" d="M9609-3356.4l19 19 22 11v-10z" transform="matrix(-.1 0 0 .1 984 392)"/><path fill="#fff" d="M9745-3383.4v9l-50 25v-9z" transform="matrix(-.1 0 0 .1 984 392)"/><path class="st2" d="M9790-3406.4v10l-140 70v-10z" transform="matrix(-.1 0 0 .1 984 392)"/><path class="st1" d="M9110-3728.4l-74 37v10l620 310 74-37v-10z" transform="matrix(-.1 0 0 .1 984 392)"/><path class="st5" d="M9036-3691.4v10l620 310v-10z" transform="matrix(-.1 0 0 .1 984 392)"/><path class="st1" d="M9304-3649.4l-140 70 20 20 184 92h20l140-70z" transform="matrix(-.1 0 0 .1 984 392)"/><path class="st5" d="M9164-3579.4l20 20 184 92h20z" transform="matrix(-.1 0 0 .1 984 392)"/><path class="st1" d="M9170-3726.4l-140 70v10l620 310 140-70v-10z" transform="matrix(-.1 0 0 .1 984 392)"/><path class="st5" d="M9030-3656.4v10l620 310v-10z" transform="matrix(-.1 0 0 .1 984 392)"/><path class="st4" d="M9150-3716.4l-8 4 620 310 8-4zm-92 46l-8 4 620 310 8-4z" transform="matrix(-.1 0 0 .1 984 392)"/><path class="st2" d="M9790-3416.4v10l-140 70v-10z" transform="matrix(-.1 0 0 .1 984 392)"/></g><g id="i1578_1_"><path class="st12" d="M901-394.6l-14 7v15l62 31 14-7v-15z" transform="matrix(-1 0 0 1 968 400)"/><path class="st5" d="M887-387.6v15l62 31v-15z" transform="matrix(-1 0 0 1 968 400)"/><path class="st2" d="M963-363.6v15l-14 7v-15z" transform="matrix(-1 0 0 1 968 400)"/><path class="st4" d="M961-349.6l-4 2v-11l4-2zm-6 3l-4 2v-11l4-2zm-65-37.5l-1-.5v11l1 .5zm2 1l-1-.5v11l1 .5zm2 1l-1-.5v11l1 .5zm2 1l-1-.5v11l1 .5zm2 1l-1-.5v11l1 .5zm2 1l-1-.5v11l1 .5zm2 1l-1-.5v11l1 .5zm2 1l-1-.5v11l1 .5zm2 1l-1-.5v11l1 .5zm2 1l-1-.5v11l1 .5zm2 1l-1-.5v11l1 .5zm2 1l-1-.5v11l1 .5zm2 1l-1-.5v11l1 .5zm2 1l-1-.5v11l1 .5zm2 1l-1-.5v11l1 .5zm2 1l-1-.5v11l1 .5zm2 1l-1-.5v11l1 .5zm2 1l-1-.5v11l1 .5zm2 1l-1-.5v11l1 .5zm2 1l-1-.5v11l1 .5zm2 1l-1-.5v11l1 .5zm2 1l-1-.5v11l1 .5zm2 1l-1-.5v11l1 .5zm2 1l-1-.5v11l1 .5zm2 1l-1-.5v11l1 .5zm2 1l-1-.5v11l1 .5zm2 1l-1-.5v11l1 .5zm2 1l-1-.5v11l1 .5zm2 1l-1-.5v11l1 .5zm2 1l-1-.5v11l1 .5z" transform="matrix(-1 0 0 1 968 400)"/><path class="st4" d="M950-355.9v12.9l12-6v-12.9l-12 6zm11.5 6.6l-5.3 2.6v-11.8l5.3-2.6v11.8zm-11-6.3l5.3-2.6v11.8l-5.3 2.6v-11.8z" transform="matrix(-1 0 0 1 968 400)"/><path class="st1" d="M962.3-350.5v.5l-1 .5v-.5zm-11.5 5.7v.5l-1 .5v-.5zm11.5-16.2v.5l-1 .5v-.5zm-11.5 5.7v.5l-1 .5v-.5z" transform="matrix(-1 0 0 1 968 400)"/><g transform="matrix(-1 0 0 1 968 400)"><defs><path id="SVGID_1_" d="M950-355.9l12-6v12.4l-12 6z"/></defs><clipPath id="SVGID_2_"><use xlink:href="#SVGID_1_" overflow="visible"/></clipPath><g clip-path="url(#SVGID_2_)"><path class="st14" d="M949.4-356v6l6.8 3.4 6.6-3.3v-6l-6.8-3.4z"/><path class="st5" d="M956.2-346.6l-6.8-3.4v-6l6.8 3.4z"/><path class="st0" d="M953.6-358.1l-1.8.9 6.8 3.4v2.9l1.8-.9v-2.9z"/><path class="st2" d="M956.2-346.6l6.6-3.3v-6l-6.6 3.3z"/></g></g><g transform="matrix(-1 0 0 1 968 400)"><defs><path id="SVGID_3_" d="M950-355.9l12-6v12.4l-12 6z"/></defs><clipPath id="SVGID_4_"><use xlink:href="#SVGID_3_" overflow="visible"/></clipPath><g clip-path="url(#SVGID_4_)"><path class="st14" d="M942.4-352.5v6l6.8 3.4 6.6-3.3v-6l-6.8-3.4z"/><path class="st5" d="M949.2-343.1l-6.8-3.4v-6l6.8 3.4z"/><path class="st0" d="M946.6-354.6l-1.8.9 6.8 3.4v2.9l1.8-.9v-2.9z"/><path class="st2" d="M949.2-343.1l6.6-3.3v-6l-6.6 3.3z"/></g></g><g transform="matrix(-1 0 0 1 968 400)"><defs><path id="SVGID_5_" d="M950-355.9l12-6v12.4l-12 6z"/></defs><clipPath id="SVGID_6_"><use xlink:href="#SVGID_5_" overflow="visible"/></clipPath><g clip-path="url(#SVGID_6_)"><path class="st14" d="M949.4-362.4v6l6.8 3.4 6.6-3.3v-6l-6.8-3.4z"/><path class="st5" d="M956.2-353l-6.8-3.4v-6l6.8 3.4z"/><path class="st0" d="M953.6-364.5l-1.8.9 6.8 3.4v2.9l1.8-.9v-2.9z"/><path class="st2" d="M956.2-353l6.6-3.3v-6l-6.6 3.3z"/></g></g><g transform="matrix(-1 0 0 1 968 400)"><defs><path id="SVGID_7_" d="M950-355.9l12-6v12.4l-12 6z"/></defs><clipPath id="SVGID_8_"><use xlink:href="#SVGID_7_" overflow="visible"/></clipPath><g clip-path="url(#SVGID_8_)"><path class="st14" d="M942.4-358.9v6l6.8 3.4 6.6-3.3v-6l-6.8-3.4z"/><path class="st5" d="M949.2-349.5l-6.8-3.4v-6l6.8 3.4z"/><path class="st0" d="M946.6-361l-1.8.9 6.8 3.4v2.9l1.8-.9v-2.9z"/><path class="st2" d="M949.2-349.5l6.6-3.3v-6l-6.6 3.3z"/></g></g><path class="st12" d="M962-362l6-2.1v12.5l-6 2.1z" transform="matrix(-1 0 0 1 968 400)"/><path class="st18" d="M962-362l6-2.1v12.5l-6 2.1z" transform="matrix(-1 0 0 1 968 400)"/><path class="st12" d="M944-352.1l6-3.9v12.5l-6 3.9z" transform="matrix(-1 0 0 1 968 400)"/><path class="st18" d="M944-352.1l6-3.9v12.5l-6 3.9z" transform="matrix(-1 0 0 1 968 400)"/></g></svg>