<svg xmlns="http://www.w3.org/2000/svg" width="217" height="164"><style>.st0{fill:#9c3}.st1{opacity:.3;enable-background:new}.st2{fill:#825012}.st3{fill:#539b00}.st4{opacity:.2;fill:#fff;enable-background:new}.st5{fill:#28896d}.st6{opacity:.2;enable-background:new}.st7{fill:#2d3134}.st8{fill:#762c07}</style><g id="i1347_1_"><path class="st0" d="M-1103-534l64 32-64 32-64-32z" transform="translate(1256 576)"/><path class="st0" d="M-1103-534l64 32-64 32-64-32z" transform="translate(1256 576)"/><g transform="translate(1256 576)"><ellipse class="st1" cx="-1104.5" cy="-521" rx="7.5" ry="4"/><path class="st2" d="M-1106-548v27c0 .6.7 1 1.5 1s1.5-.4 1.5-1v-27h-3z"/><circle class="st3" cx="-1111.5" cy="-552.5" r="6.5"/><circle class="st3" cx="-1107" cy="-561" r="9"/><path class="st2" d="M-1104-532.6c2.6 0 3-.9 3-3.4v-8h1v10c0 1.7-1.3 3-3 3h-1v-1.6zm0-.6c-1.7 0-3-.4-3-2.1v-9.7h-1v10c0 1.7 1.3 3 3 3h1v-1.2zm-2-21c-1.7 0-3-.4-3-2.1v-2.7h-1v3c0 1.7 1.3 3 3 3h1v-1.2z"/><circle class="st3" cx="-1099.5" cy="-545.5" r="7.5"/><circle class="st3" cx="-1095" cy="-549" r="6"/><path class="st2" d="M-1100-546.2c1.7 0 3-.4 3-2.1v-2.7h1v3c0 1.7-1.3 3-3 3h-1v-1.2zm-7-15.4h1v9.6h-1z"/><circle class="st3" cx="-1098" cy="-559" r="8"/><circle class="st3" cx="-1103" cy="-568" r="8"/><path class="st4" d="M-1102.5-560c2.2 0 4.1 1.3 4.9 3.1.3-.1.7-.1 1.1-.1 1.8 0 3.4.9 4.4 2.2-.4-1.8-2-3.2-3.9-3.2h-.1c-.5-2.3-2.5-4-4.9-4-2 0-3.7 1.2-4.5 2.9.8-.6 1.9-.9 3-.9z"/><circle class="st3" cx="-1112" cy="-560.6" r="3.6"/><path class="st4" d="M-1112-560.5c0-2.5 1.7-4.6 4-5.3.2-2.9 2.5-5.2 5.5-5.2 1.7 0 3.3.8 4.3 2.1-.6-2.4-2.8-4.1-5.3-4.1-2.9 0-5.3 2.2-5.5 5.1-2.3.5-4 2.5-4 4.9 0 1.1.4 2.2 1 3v-.5z"/><circle class="st3" cx="-1106.7" cy="-545.2" r="9.3"/><circle class="st3" cx="-1094.7" cy="-551.2" r="3.3"/><path class="st1" d="M-1089-549c0-.4 0-.8-.1-1.2-.6 3.8-3.9 6.7-7.9 6.7h-.4c.7.3 1.6.5 2.4.5.7 0 1.3-.1 1.9-.3-1.4 1.4-3.3 2.3-5.4 2.3-1 0-2-.2-2.9-.6-1.6 1.6-3.9 2.6-6.3 2.6-3.5 0-6.6-2-8.1-4.8.7 4.4 4.5 7.8 9.1 7.8 2.2 0 4.3-.8 5.9-2.1.4.1.8.1 1.3.1 3.5 0 6.5-2.4 7.3-5.7 1.9-1 3.2-3 3.2-5.3z"/><path class="st4" d="M-1109.5-550c.8 0 1.5.1 2.2.4.9-1.4 2.5-2.4 4.3-2.4 1 0 1.9.3 2.7.8-.7-1.7-2.3-2.8-4.2-2.8-1.6 0-3 .8-3.8 2h-.7c-2.9 0-5.4 2.1-5.9 4.9 1.2-1.8 3.2-2.9 5.4-2.9z"/><path class="st1" d="M-1114-549.5c-1.9-.8-3.4-2.4-3.9-4.5-.1.5-.2 1-.2 1.5 0 2.4 1.3 4.4 3.2 5.6.2-.9.5-1.8.9-2.6z"/></g><g transform="translate(1256 576)"><ellipse class="st1" cx="-1131.5" cy="-511" rx="7.5" ry="4"/><path class="st2" d="M-1130-535v24c0 .6-.7 1-1.5 1s-1.5-.4-1.5-1v-24h3z"/><circle class="st3" cx="-1122.5" cy="-536.5" r="6.5"/><circle class="st3" cx="-1126" cy="-545" r="9"/><path class="st2" d="M-1132-522.6c-2.6 0-3-.9-3-3.4v-8h-1v10c0 1.7 1.3 3 3 3h1v-1.6zm1 1.4c1.7 0 3-.4 3-2.1v-9.7h1v10c0 1.7-1.3 3-3 3h-1v-1.2z"/><path class="st2" d="M-1135-524.2c-1.7 0-2-1.3-2-2.1v-9.7h-1v10c0 1.7 1.3 3 3 3v-1.2z"/><circle class="st3" cx="-1136" cy="-535" r="9"/><circle class="st3" cx="-1141" cy="-539" r="6"/><path class="st2" d="M-1136-535.2c-1.7 0-3-.4-3-2.1v-2.7h-1v3c0 1.7 1.3 3 3 3h1v-1.2z"/><circle class="st3" cx="-1137" cy="-547" r="8"/><circle class="st3" cx="-1133" cy="-551" r="8"/><circle class="st3" cx="-1126.5" cy="-553.5" r="4.5"/><path class="st4" d="M-1140.9-545c2.2 0 4.1 1.3 4.9 3.1.3-.1.7-.1 1.1-.1 1.8 0 3.4.9 4.4 2.2-.4-1.8-2-3.2-3.9-3.2h-.1c-.5-2.3-2.5-4-4.9-4-2 0-3.7 1.2-4.5 2.9.8-.6 1.9-.9 3-.9z"/><path class="st2" d="M-1133-547.6c.2.2.5.4.7.6h.3v-3c-.3 0-.7-.1-1-.2v2.6z"/><path class="st4" d="M-1132.5-555c2.4 0 4.3 1.9 4.5 4.2.5-.1 1-.2 1.5-.2 2.5 0 4.6 1.6 5.3 3.9.1-.4.2-.9.2-1.4 0-2.5-2-4.5-4.5-4.5-.5 0-1 .1-1.5.3-.1-1.8-1.6-3.3-3.5-3.3-1 0-1.9.4-2.5 1h.5z"/><path class="st1" d="M-1117.1-543.6c-1.7 1.9-4.1 3.1-6.8 3.1h-.6c1 1.1 1.6 2.4 1.7 3.9 2.9-1.1 5.2-3.8 5.7-7zm-2.4 10.3c.3.7.4 1.5.5 2.3 1.7-1.1 2.9-2.9 3-5-.8 1.3-2.1 2.2-3.5 2.7zm-21.8-11.7c-1.6-1.4-2.7-3.5-2.7-5.9-.6 1.1-1 2.5-1 3.9 0 1.1.2 2.1.6 3.1.9-.7 2-1 3.1-1.1z"/><path class="st2" d="M-1126-543.4c0 1.7-1.3 2.1-3 2.1v1.3h1c1.7 0 3-1.3 3-3v-2c-.3 0-.7-.1-1-.2v1.8z"/><circle class="st3" cx="-1128.2" cy="-532.2" r="9.3"/><path class="st4" d="M-1132-535c1.2 0 2.3.3 3.3.8 1.2-1.1 2.9-1.8 4.7-1.8 1.6 0 3.1.5 4.2 1.4-1.1-2-3.3-3.4-5.7-3.4-1.6 0-3.1.6-4.2 1.6-.7-.4-1.5-.6-2.3-.6-2.4 0-4.4 1.7-4.9 4 1.3-1.2 3-2 4.9-2z"/><path class="st1" d="M-1127.2-525c-3.8 0-7-2-8.8-5h-.9c-3.5 0-6.5-2-8-4.9.1 4.9 4.1 8.9 9 8.9h.9c1.7 1.9 4.1 3 6.8 3 3.6 0 6.6-2 8.2-4.9-1.9 1.8-4.5 2.9-7.2 2.9z"/></g><path class="st1" d="M-1155.7-503l-5.3 1.9 3.8.2-2.4 1.5h5.5l3.1-.9-.5 2.7 3.3-.6 2.4-2 4.6 1.5 4.8-.7-1.5-.9 1.7-.5-6.9-1.8z" transform="translate(1256 576)"/><path class="st5" d="M-1153.6-523c3.9-.5 5.8-8 5.8-8s.8 7.4 5.8 9.4c.1.7-1.7 1.3-3.3.6-.1 1.5 3.2 3.9 5.2 4.4.1.8-1.8 2-3.6 1.4.8 1.8 2.2 3.3 5.2 4.1-1.4.8-3.6.1-5 0 0 1.2 4.4 2.3 6.6 2.2-.4 1.1-2.5 2.3-4.4 2.2 0 1.3 4.3 2.4 5.5 2.8.1 1.1-3 1.8-5.2 1.1-.1 1.3 2.2 2.5 3.3 3 0 1-7.1.7-8.3-1.4-1.3.5-2.2 3.3-4.8 3.1.3-.7 1.1-3.1-.2-3.6-1 1.4-5.4 2.5-7.2 1.7.5-.5 3-.8 2.2-2.5-2.3-.1-5.3-2.1-5.2-3 .6.4 4.3 1 4.4 0-1.7-.1-2.7-1.4-2.8-2.5.6.3 4.3.9 4.4-.3-1.3-.5-2.9-1.4-2.8-2.5 1.1.1 3.4.1 3.6-1.1-1.4-.5-2.7-2.5-2.8-3.3 1 .3 5 .1 5-.8-1.7-.1-3.2-.8-3-1.9 2.2-.2 4.7-2.5 4.7-3.6-.7.1-2.5-.2-3.1-1.5z" transform="translate(1256 576)"/><path class="st4" d="M-1138.4-511.2s-2.8.1-5.2-2.2c-2.4-2.3-3-3.9-3-3.9s-.6.8-2.5 1.9c-1.9 1.2-6.1 1.1-6.1 1.1s2.6 2 6.3.8c1.8-.6 1.7-1 1.7-1s2.6 2.2 3.6 2.6c3.7 1.5 5.2.7 5.2.7z" transform="translate(1256 576)"/><path class="st4" d="M-1153.8-517.8c3.3-1.8 5.4-3.2 6.1-6.1-.2 1.3 2.6 5 5.2 6.9-1.9-.2-4.4-3.4-5.5-3.3-.3 1-3.6 2.3-5.8 2.5z" transform="translate(1256 576)"/><path class="st4" d="M-1152.3-522.7c3.3-1.8 3.9-4.1 4.5-6.9-.2 1.3 1.5 5.5 4.1 7.4-1.9-.2-3.6-3-4.4-3.6-.2 1-2 2.9-4.2 3.1zm-4.9 12.3s4.1-.1 7.2-1.6c1-.1 2.3 2.9 3 3 .8-.2 1.2-.4 2-.9.7 2.8 5.7 5.3 8.5 6.1-5.2 0-8.8-3.4-9.4-4.4-.6.5-.8 1.9-1.9 1.9-1-1.4-2.4-3.4-2.8-4.4-1-.1-5 1.2-6.6.3z" transform="translate(1256 576)"/><path class="st4" d="M-1159.7-504.8c5.8.6 7.9-2 8.9-3.1-.6 4-7.2 5.1-8.9 3.1zm15.3-.7c1.6 2.7 2.3 4.2 6 5.5-6.1.3-6.7-4.3-6-5.5zm-5.5 6.6c.3.2 3.9-5.5 1.3-6.5-1.4.8-.2 3.7-1.3 6.5z" transform="translate(1256 576)"/><path class="st1" d="M-1145.8-522.3l-1.5-1.2s1.2 1.5 2 2.4c1.6.8 3.4.1 3.3-.6 0 .1-2.3.6-3.8-.6zm2 20.8c-1.8-1.9-2.3-4.8-2.3-4.8s-1.1 3.8-2 5.6c-.6 1.1-1.1 2-2.5 2.4v.1c2.6.2 3.5-2.6 4.8-3.1 1.2 2.1 8.3 2.4 8.3 1.4-.1 0-4.5.3-6.3-1.6zm3.2-6.6c-1.8-.1-4.4-3.5-4.4-3.5s-1.3.6-2 .1-1.4-1.1-1.4-1.1.7 3.2 1.7 3.1 1.6-.4 2-.9c.5 2.5 3.7 3.8 3.7 3.8 1.9.1 4-1.1 4.4-2.2-.2-.2-2.2.8-4 .7zm-11.3-8c.5 0 1.1 0 1.6-.1 1.4-.2 3.8-1.5 3.8-1.5l-1.8.2.7-1.6s-2.1 1.7-4 2c-1.9.2-3.3-.9-3.3-.9-.2 1 1.3 1.7 3 1.9zm-3 7.7c-.1 1.2-3.8.6-4.4.3 2.7 1.8 7.8-.3 7.8-.3h-2.5l2.8-1.4s-6.3.4-6.5-1.2c-.1 1.2 1.5 2.1 2.8 2.6z" transform="translate(1256 576)"/><path class="st1" d="M-1152.3-507.1s-2 .6-3.3.6c-1.3 0-3.6-1.2-3.7-1.6.1 1 1.1 2.3 2.7 2.4 3.2.3 4.3-1.4 4.3-1.4zm2.5 5.9c0-1.1-.3-7.6-.3-7.6s-.1 3.9-3.6 7.2c-1.2 1.1-4.3 1.4-4.3 1.4 1.8.8 6.1-.2 7.2-1.7 1 .4.7 1.9.4 2.9.3-.5.6-1.5.6-2.2zm49-7.7l-9.4 3.3 6.7.4-4.1 2.8 9.6-.2 5.6-1.4-.9 4.7 5.9-1 4.2-3.6 8.2 2.6 8.5-1.1-2.7-1.7 3-.8-12.3-3.4z" transform="translate(1256 576)"/><path class="st5" d="M-1065.2-510.7c-2.1-.6-9.8-2.6-9.8-4.9 3.3.2 7.1-1.9 7.8-3.9-2.5.2-6.4-.6-9.1-1.7-.4-.5-.7-1-.8-1.5 2.3.6 5 .4 6.9-.7-1.1-.3-2.1-.6-2.9-1 1.2-1 2-2.3 2.5-3.1-2.4.7-6.9-.1-6.9-2.2 2.6.2 5.5-1.8 6.1-3.7-.9.1-2.1-.1-3.3-.3-1.7-.8-3.7-2-5.2-3.3 1.8.3 4.5 1.1 6.2-.1-2.4-.8-4-1.9-5.2-3.3 1.4-.2 2.5-.9 2.4-1.6-1.1-.4-2.1-1.1-3-1.8 2 0 3.6-1.5 3.5-2.6-2.8-.9-7.5-4.8-7.3-7.4 2.2 1.3 4.7.2 4.6-.9-6.9-3.3-8-15.7-8-15.7s-2.6 13.7-8.1 14.4c.8 2.2 3.4 2.3 4.6 1.2 0 1.7-3.4 5.7-6.5 6-.1 1.4 1 2.4 2.7 2.9-.9.7-2 1.1-3.1 1.3l.3.6c-1.1.1-2.1 0-2.6-.2.1 1.3 1.9 4.7 3.8 5.5-.2 2-3.4 2.1-5 1.8-.1 1.3.8 2.3 2.1 3.2.6.4 1.2.7 1.7 1-.2 2-5.3 1-6.1.5 0 .6.2 1.2.5 1.8.4 1 .9 2.2 1.7 3.2-1.6.1-4-.4-4.5-.9-.1 1.3 2.7 3.7 5.4 4.7-1.4.5-3.5.5-4.7.3-.2 2 2.6 3.5 4.9 4.4-.2 2.1-6.8 1.1-7.8.5.1 1.8 2 4.2 4.9 4.4-.2 1.7-6.9.7-7.8 0-.1 1.7 5.3 5.3 9.3 5.4 1.3 2.9-3.1 3.5-3.9 4.4 3.2 1.5 10.9-.4 12.7-2.9 2.2 1 .9 5.2.3 6.4 4.6.3 6.2-4.6 8.5-5.5 2.1 3.7 14.7 4.3 14.7 2.4-2-1-6-3.1-5.9-5.4 4 1.5 9.7.3 9.4-1.7z" transform="translate(1256 576)"/><path class="st4" d="M-1070.1-523.4s-5 .2-9.3-3.9c-4.3-4.2-5.4-6.9-5.4-6.9s-1 1.3-4.4 3.4c-3.4 2.1-10.8 2-10.8 2s4.7 3.5 11.3 1.5c3.2-1 2.9-1.7 2.9-1.7s4.6 3.9 6.4 4.6c6.6 2.4 9.3 1 9.3 1zm-28.4-20.2c5.5-.1 8.8-2 11-3.9.4 1.4 2.5 6.6 10.6 9.6-3.4-.4-11.4-3.8-11.2-5.9-.4 1.7-6.8 4.2-10.4.2zm6.6-13.1c5.1-3.2 4.3-4.9 5.2-8.9-.4 2.3 1.7 7.5 6.3 11-4.4-.9-5.7-3.7-6.6-5.8-.3 1.6-2 2.8-4.9 3.7z" transform="translate(1256 576)"/><path class="st4" d="M-1094.2-548.1c5.9-3.2 7.6-3.4 8.8-8.4-.4 2.3 2 5.9 6.6 9.3-3.4-.4-4.9-3.6-6.3-4.7-.3 1.7-5 3.4-9.1 3.8zm-9.3 26s7.3-.1 12.9-2.8c1.7-.1 4.2 5.1 5.4 5.4 1.3-.4 2.1-.7 3.5-1.6 1.2 5 10.1 9.4 15.1 10.9-9.2 0-15.7-6-16.6-7.8-1.1.9-1.3 3.4-3.4 3.4-1.7-2.4-4.3-6-4.9-7.8-1.9-.4-9.2 2-12 .3z" transform="translate(1256 576)"/><path class="st4" d="M-1107.9-512.1c10.3 1.1 14-3.6 15.8-5.5-1.1 7.2-12.7 9.1-15.8 5.5zm27.2-1.3c2.9 4.8 4 7.5 10.7 9.7-10.8.7-11.9-7.4-10.7-9.7zm-9.7 11.7c.6.3 6.9-9.7 2.3-11.5-2.6 1.4-.4 6.6-2.3 11.5z" transform="translate(1256 576)"/><path class="st1" d="M-1083.1-543.1l-2.6-2.1s2.1 2.6 3.5 4.3c2.8 1.4 6 .2 5.9-1-.1-.1-4.2.9-6.8-1.2zm3.4 36.9c-3.3-3.4-4-8.5-4-8.5s-2 6.8-3.5 9.9c-1 2-1.9 3.6-4.5 4.3 0 .1 0 .1-.1.2 4.6.3 6.2-4.6 8.5-5.5 2.1 3.7 14.7 4.3 14.7 2.4 0 .1-7.8.6-11.1-2.8zm5.7-11.8c-3.3-.2-7.8-6.3-7.8-6.3s-2.3 1.1-3.6.2c-1.3-.9-2.5-2-2.5-2s1.2 5.7 2.9 5.4c1.8-.3 2.8-.8 3.5-1.6.8 4.4 6.5 6.8 6.5 6.7 3.3.2 7.1-1.9 7.8-3.9.1 0-3.5 1.7-6.8 1.5zm-20.3-14.2v-.6c1 0 1.9.5 2.8.4 2.5-.3 6.7-3.3 6.7-3.3l-3.2.4 1.3-2.8s-3.8 3.1-7.1 3.5c-3.4.4-6.4-1.8-6.4-1.8-.3 1.9 2.8 3.9 5.9 4.2zm-5.1 13.7c-.2 2.1-6.8 1.1-7.8.5 4.8 3.1 13.9-.5 13.9-.5l-4.4.1 5-2.4s-11.1.7-11.6-2.1c-.3 1.9 2.5 3.5 4.9 4.4z" transform="translate(1256 576)"/><path class="st1" d="M-1094.8-516.2s-3.5 1-5.9 1c-2.2 0-6.4-2.2-6.6-2.8.2 1.8 2 4.1 4.9 4.3 5.7.6 7.6-2.5 7.6-2.5zm4.5 10.4c0-2-.5-13.5-.5-13.5s-.3 6.9-6.5 12.8c-2.1 2-7.5 2.6-7.5 2.6 3.2 1.5 10.9-.4 12.7-2.9 1.7.8 1.3 3.4.8 5.2.4-1.2 1-2.9 1-4.2zm19-27.7s-3.3 1.8-6.6 1-5.7-3-5.7-3 1.3 3.7 2.8 6c1.6 2.4 7.5 4.5 10.3 2-2.4.7-6.9-.1-6.9-2.2 2.6.1 5.5-1.9 6.1-3.8zm-8.3-12.7c-2.8-.4-5.6-3.9-5.6-3.9s-2.8 1.5-.1 3.3c2.7 1.7.3 2.2 5.8 3.1 2 0 3.6-1.5 3.5-2.6.1-.1-.9.4-3.6.1zm-17-2.5s2 .5 6.6-2.4 3-8 3-8-1.7 2.3-3.5 2.6c-1.5.2-3.1.7-4 .6h-.3c.8 2.2 3.4 2.3 4.6 1.2.1 1.8-3.3 5.7-6.4 6z" transform="translate(1256 576)"/><g transform="translate(1256 576)"><ellipse class="st1" cx="-1115.5" cy="-488" rx="7.5" ry="4"/><path class="st2" d="M-1117-515v27c0 .6.7 1 1.5 1s1.5-.4 1.5-1v-27h-3z"/><circle class="st3" cx="-1122.5" cy="-519.5" r="6.5"/><circle class="st3" cx="-1118" cy="-528" r="9"/><path class="st2" d="M-1115-499.6c2.6 0 3-.9 3-3.4v-8h1v10c0 1.7-1.3 3-3 3h-1v-1.6zm0-.6c-1.7 0-3-.4-3-2.1v-9.7h-1v10c0 1.7 1.3 3 3 3h1v-1.2zm-2-21c-1.7 0-3-.4-3-2.1v-2.7h-1v3c0 1.7 1.3 3 3 3h1v-1.2z"/><circle class="st3" cx="-1110.5" cy="-512.5" r="7.5"/><circle class="st3" cx="-1106" cy="-516" r="6"/><path class="st2" d="M-1111-513.2c1.7 0 3-.4 3-2.1v-2.7h1v3c0 1.7-1.3 3-3 3h-1v-1.2zm-7-15.4h1v9.6h-1z"/><circle class="st3" cx="-1109" cy="-526" r="8"/><circle class="st3" cx="-1114" cy="-535" r="8"/><path class="st4" d="M-1113.5-527c2.2 0 4.1 1.3 4.9 3.1.3-.1.7-.1 1.1-.1 1.8 0 3.4.9 4.4 2.2-.4-1.8-2-3.2-3.9-3.2h-.1c-.5-2.3-2.5-4-4.9-4-2 0-3.7 1.2-4.5 2.9.8-.6 1.9-.9 3-.9z"/><circle class="st3" cx="-1123" cy="-527.6" r="3.6"/><path class="st4" d="M-1123-527.5c0-2.5 1.7-4.6 4-5.3.2-2.9 2.5-5.2 5.5-5.2 1.7 0 3.3.8 4.3 2.1-.6-2.4-2.8-4.1-5.3-4.1-2.9 0-5.3 2.2-5.5 5.1-2.3.5-4 2.5-4 4.9 0 1.1.4 2.2 1 3v-.5z"/><circle class="st3" cx="-1117.7" cy="-512.2" r="9.3"/><circle class="st3" cx="-1105.7" cy="-518.2" r="3.3"/><path class="st1" d="M-1100-516c0-.4 0-.8-.1-1.2-.6 3.8-3.9 6.7-7.9 6.7h-.4c.7.3 1.6.5 2.4.5.7 0 1.3-.1 1.9-.3-1.4 1.4-3.3 2.3-5.4 2.3-1 0-2-.2-2.9-.6-1.6 1.6-3.9 2.6-6.3 2.6-3.5 0-6.6-2-8.1-4.8.7 4.4 4.5 7.8 9.1 7.8 2.2 0 4.3-.8 5.9-2.1.4.1.8.1 1.3.1 3.5 0 6.5-2.4 7.3-5.7 1.9-1 3.2-3 3.2-5.3z"/><path class="st4" d="M-1120.5-517c.8 0 1.5.1 2.2.4.9-1.4 2.5-2.4 4.3-2.4 1 0 1.9.3 2.7.8-.7-1.7-2.3-2.8-4.2-2.8-1.6 0-3 .8-3.8 2h-.7c-2.9 0-5.4 2.1-5.9 4.9 1.2-1.8 3.2-2.9 5.4-2.9z"/><path class="st1" d="M-1125-516.5c-1.9-.8-3.4-2.4-3.9-4.5-.1.5-.2 1-.2 1.5 0 2.4 1.3 4.4 3.2 5.6.2-.9.5-1.8.9-2.6z"/></g><g transform="translate(1256 576)"><ellipse class="st1" cx="-1065.5" cy="-499" rx="7.5" ry="4"/><path class="st2" d="M-1064-523v24c0 .6-.7 1-1.5 1s-1.5-.4-1.5-1v-24h3z"/><circle class="st3" cx="-1056.5" cy="-524.5" r="6.5"/><circle class="st3" cx="-1060" cy="-533" r="9"/><path class="st2" d="M-1066-510.6c-2.6 0-3-.9-3-3.4v-8h-1v10c0 1.7 1.3 3 3 3h1v-1.6zm1 1.4c1.7 0 3-.4 3-2.1v-9.7h1v10c0 1.7-1.3 3-3 3h-1v-1.2z"/><path class="st2" d="M-1069-512.2c-1.7 0-2-1.3-2-2.1v-9.7h-1v10c0 1.7 1.3 3 3 3v-1.2z"/><circle class="st3" cx="-1070" cy="-523" r="9"/><circle class="st3" cx="-1075" cy="-527" r="6"/><path class="st2" d="M-1070-523.2c-1.7 0-3-.4-3-2.1v-2.7h-1v3c0 1.7 1.3 3 3 3h1v-1.2z"/><circle class="st3" cx="-1071" cy="-535" r="8"/><circle class="st3" cx="-1067" cy="-539" r="8"/><circle class="st3" cx="-1060.5" cy="-541.5" r="4.5"/><path class="st4" d="M-1074.9-533c2.2 0 4.1 1.3 4.9 3.1.3-.1.7-.1 1.1-.1 1.8 0 3.4.9 4.4 2.2-.4-1.8-2-3.2-3.9-3.2h-.1c-.5-2.3-2.5-4-4.9-4-2 0-3.7 1.2-4.5 2.9.8-.6 1.9-.9 3-.9z"/><path class="st2" d="M-1067-535.6c.2.2.5.4.7.6h.3v-3c-.3 0-.7-.1-1-.2v2.6z"/><path class="st4" d="M-1066.5-543c2.4 0 4.3 1.9 4.5 4.2.5-.1 1-.2 1.5-.2 2.5 0 4.6 1.6 5.3 3.9.1-.4.2-.9.2-1.4 0-2.5-2-4.5-4.5-4.5-.5 0-1 .1-1.5.3-.1-1.8-1.6-3.3-3.5-3.3-1 0-1.9.4-2.5 1h.5z"/><path class="st1" d="M-1051.1-531.6c-1.7 1.9-4.1 3.1-6.8 3.1h-.6c1 1.1 1.6 2.4 1.7 3.9 2.9-1.1 5.2-3.8 5.7-7zm-2.4 10.3c.3.7.4 1.5.5 2.3 1.7-1.1 2.9-2.9 3-5-.8 1.3-2.1 2.2-3.5 2.7zm-21.8-11.7c-1.6-1.4-2.7-3.5-2.7-5.9-.6 1.1-1 2.5-1 3.9 0 1.1.2 2.1.6 3.1.9-.7 2-1 3.1-1.1z"/><path class="st2" d="M-1060-531.4c0 1.7-1.3 2.1-3 2.1v1.3h1c1.7 0 3-1.3 3-3v-2c-.3 0-.7-.1-1-.2v1.8z"/><circle class="st3" cx="-1062.2" cy="-520.2" r="9.3"/><path class="st4" d="M-1066-523c1.2 0 2.3.3 3.3.8 1.2-1.1 2.9-1.8 4.7-1.8 1.6 0 3.1.5 4.2 1.4-1.1-2-3.3-3.4-5.7-3.4-1.6 0-3.1.6-4.2 1.6-.7-.4-1.4-.6-2.3-.6-2.4 0-4.4 1.7-4.9 4 1.3-1.2 3-2 4.9-2z"/><path class="st1" d="M-1061.2-513c-3.8 0-7-2-8.8-5h-.9c-3.5 0-6.5-2-8-4.9.1 4.9 4.1 8.9 9 8.9h.9c1.7 1.9 4.1 3 6.8 3 3.6 0 6.6-2 8.2-4.9-1.9 1.8-4.5 2.9-7.2 2.9z"/></g><path class="st1" d="M-1095.6-488.8l-5.7 2 4.1.2-2.5 1.7 5.8-.1 3.4-.8-.6 2.8 3.6-.6 2.6-2.2 4.9 1.6 5.2-.7-1.6-1 1.8-.5-7.5-2z" transform="translate(1256 576)"/><path class="st5" d="M-1093.3-510.3c4.2-.5 6.2-8.6 6.2-8.6s.9 8 6.2 10.1c.1.7-1.9 1.4-3.6.6-.1 1.6 3.5 4.1 5.6 4.7.1.9-1.9 2.1-3.9 1.5.9 1.9 2.3 3.6 5.6 4.4-1.5.9-3.9.1-5.3 0 0 1.3 4.7 2.5 7.1 2.4-.4 1.2-2.7 2.5-4.7 2.4 0 1.4 4.7 2.6 5.9 3 .1 1.2-3.3 1.9-5.6 1.2-.1 1.4 2.4 2.7 3.6 3.3 0 1.1-7.6.7-8.9-1.5-1.4.5-2.4 3.5-5.1 3.3.4-.8 1.1-3.3-.2-3.9-1.1 1.6-5.8 2.7-7.7 1.8.5-.5 3.2-.9 2.4-2.7-2.4-.1-5.7-2.2-5.6-3.3.6.4 4.6 1 4.7 0-1.8-.1-2.9-1.6-3-2.7.6.3 4.6 1 4.7-.3-1.4-.5-3.1-1.5-3-2.7 1.2.1 3.7.1 3.9-1.2-1.5-.5-2.9-2.7-3-3.6 1.1.3 5.4.1 5.3-.9-1.9-.1-3.4-.9-3.3-2.1 2.4-.2 5-2.7 5-3.9-.7.4-2.6.1-3.3-1.3z" transform="translate(1256 576)"/><path class="st4" d="M-1077-497.6s-3 .1-5.6-2.4-3.3-4.1-3.3-4.1-.6.8-2.7 2.1-6.5 1.2-6.5 1.2 2.8 2.1 6.8.9c2-.6 1.8-1 1.8-1s2.8 2.4 3.8 2.8c4.1 1.4 5.7.5 5.7.5zm-16.6-7.1c3.6-1.9 5.8-3.5 6.5-6.5-.2 1.4 2.8 5.3 5.6 7.4-2.1-.2-4.7-3.7-5.9-3.6-.2 1.1-3.7 2.5-6.2 2.7z" transform="translate(1256 576)"/><path class="st4" d="M-1091.9-510c3.6-1.9 4.2-4.4 4.9-7.5-.2 1.4 1.6 5.9 4.4 8-2.1-.2-3.9-3.2-4.7-3.9-.3 1.1-2.2 3.2-4.6 3.4zm-5.3 13.2s4.4-.1 7.8-1.7c1-.1 2.5 3.1 3.3 3.3.8-.2 1.3-.4 2.1-1 .7 3.1 6.1 5.7 9.1 6.6-5.5 0-9.5-3.6-10.1-4.7-.7.5-.8 2.1-2.1 2.1-1-1.5-2.6-3.6-3-4.7-1-.3-5.4 1.1-7.1.1z" transform="translate(1256 576)"/><path class="st4" d="M-1099.9-490.7c6.2.7 8.5-2.2 9.5-3.3-.6 4.3-7.6 5.5-9.5 3.3zm16.5-.8c1.8 2.9 2.4 4.6 6.5 5.9-6.6.4-7.3-4.6-6.5-5.9zm-5.9 7.1c.4.2 4.2-5.9 1.4-7-1.6.8-.2 4-1.4 7z" transform="translate(1256 576)"/><path class="st1" d="M-1084.9-509.5l-1.6-1.3s1.3 1.6 2.1 2.6c1.7.8 3.7.1 3.6-.6 0-.1-2.5.6-4.1-.7zm2.1 22.3c-2-2-2.4-5.1-2.4-5.1s-1.2 4.1-2.1 6c-.6 1.2-1.2 2.2-2.7 2.6v.1c2.8.2 3.7-2.8 5.1-3.3 1.3 2.2 8.9 2.6 8.9 1.5-.1 0-4.8.3-6.8-1.8zm3.4-7.1c-2-.1-4.7-3.8-4.7-3.8s-1.4.7-2.2.1c-.8-.6-1.5-1.2-1.5-1.2s.7 3.5 1.8 3.3c1.1-.2 1.7-.5 2.1-1 .5 2.6 3.9 4.1 3.9 4.1 2 .1 4.3-1.1 4.7-2.4.1 0-2.1 1-4.1.9zm-12.1-8.6c.6 0 1.2 0 1.7-.1 1.5-.2 4.1-1.6 4.1-1.6l-2 .2.8-1.7s-2.3 1.9-4.3 2.1c-2 .3-3.5-1-3.5-1-.2 1.2 1.4 1.9 3.2 2.1zm-3.3 8.3c-.1 1.3-4.1.6-4.7.3 2.9 1.9 8.4-.3 8.4-.3l-2.6.1 3-1.5s-6.7.4-7-1.3c-.2 1.2 1.5 2.2 2.9 2.7z" transform="translate(1256 576)"/><path class="st1" d="M-1091.9-493.2s-2.1.6-3.6.6c-1.4 0-3.8-1.3-4-1.7.1 1.1 1.2 2.5 3 2.6 3.4.3 4.6-1.5 4.6-1.5zm2.6 6.3c0-1.2-.3-8.2-.3-8.2s-.2 4.2-3.9 7.8c-1.3 1.2-4.6 1.6-4.6 1.6 1.9.9 6.6-.2 7.7-1.8 1 .5.8 2.1.5 3.2.3-.8.6-1.9.6-2.6zm-17.2 7.3l-3.5 1.3 2.5.1-1.5 1h3.5l2.1-.5-.3 1.7 2.1-.4 1.6-1.3 3 1 3.2-.5-1-.6 1.1-.3-4.5-1.2z" transform="translate(1256 576)"/><path class="st5" d="M-1105.1-492.7c2.6-.3 3.8-5.3 3.8-5.3s.5 4.9 3.8 6.2c.1.5-1.1.9-2.2.4-.1 1 2.1 2.5 3.4 2.9 0 .5-1.2 1.3-2.4.9.5 1.2 1.4 2.2 3.4 2.7-.9.5-2.4 0-3.3 0 0 .8 2.9 1.5 4.4 1.5-.3.8-1.7 1.5-2.9 1.5 0 .9 2.9 1.6 3.6 1.8.1.7-2 1.2-3.4.7 0 .9 1.5 1.6 2.2 2 0 .7-4.7.5-5.4-.9-.9.3-1.4 2.2-3.1 2 .2-.5.7-2-.1-2.4-.7 1-3.5 1.6-4.7 1.1.3-.3 2-.5 1.5-1.6-1.5 0-3.5-1.4-3.4-2 .4.3 2.8.6 2.9 0-1.1-.1-1.8-1-1.8-1.6.4.2 2.8.6 2.9-.2-.9-.3-1.9-.9-1.8-1.6.7.1 2.3 0 2.4-.7-.9-.3-1.8-1.7-1.8-2.2.7.2 3.3 0 3.3-.5-1.1-.1-2.1-.5-2-1.3 1.5-.1 3.1-1.7 3.1-2.4-.8 0-2-.2-2.4-1z" transform="translate(1256 576)"/><path class="st4" d="M-1095.1-484.9s-1.9.1-3.4-1.5c-1.6-1.5-2-2.5-2-2.5s-.4.5-1.6 1.3c-1.3.8-4 .7-4 .7s1.7 1.3 4.2.5c1.2-.4 1.1-.6 1.1-.6s1.7 1.5 2.4 1.7c2.3.9 3.3.4 3.3.4zm-10.2-4.4c2.2-1.2 3.5-2.1 4-4-.1.9 1.7 3.3 3.4 4.5-1.3-.1-2.9-2.3-3.6-2.2-.1.7-2.3 1.6-3.8 1.7z" transform="translate(1256 576)"/><path class="st4" d="M-1104.3-492.5c2.2-1.2 2.5-2.7 3-4.6-.1.9 1 3.6 2.7 4.9-1.3-.1-2.4-1.9-2.9-2.4-.1.7-1.3 1.9-2.8 2.1zm-3.2 8.1s2.7 0 4.8-1c.6 0 1.5 1.9 2 2 .5-.1.8-.3 1.3-.6.4 1.9 3.7 3.5 5.6 4-3.4 0-5.8-2.2-6.2-2.9-.4.3-.5 1.3-1.3 1.3-.6-.9-1.6-2.2-1.8-2.9-.7-.2-3.4.7-4.4.1z" transform="translate(1256 576)"/><path class="st4" d="M-1109.1-480.7c3.8.4 5.2-1.3 5.8-2-.4 2.6-4.7 3.3-5.8 2zm10-.5c1.1 1.8 1.5 2.8 4 3.6-4 .2-4.4-2.8-4-3.6zm-3.6 4.3c.2.1 2.6-3.6.8-4.3-.9.6 0 2.5-.8 4.3z" transform="translate(1256 576)"/><path class="st1" d="M-1100-492.2l-1-.8s.8 1 1.3 1.6c1 .5 2.2.1 2.2-.4 0 0-1.5.3-2.5-.4zm1.3 13.7c-1.2-1.2-1.5-3.1-1.5-3.1s-.7 2.5-1.3 3.7c-.4.7-.7 1.3-1.7 1.6v.1c1.7.1 2.3-1.7 3.1-2 .8 1.4 5.4 1.6 5.4.9.1-.2-2.8 0-4-1.2zm2.1-4.4c-1.2-.1-2.9-2.3-2.9-2.3s-.8.4-1.3.1-.9-.7-.9-.7.4 2.1 1.1 2c.7-.1 1-.3 1.3-.6.3 1.6 2.4 2.5 2.4 2.5 1.2.1 2.6-.7 2.9-1.5 0-.1-1.4.5-2.6.5zm-7.4-5.3c.4 0 .7 0 1.1-.1.9-.1 2.5-1 2.5-1l-1.2.1.5-1.1s-1.4 1.1-2.6 1.3c-1.2.2-2.2-.6-2.2-.6-.2.9.8 1.3 1.9 1.4zm-2 5.1c-.1.8-2.5.4-2.9.2 1.8 1.2 5.2-.2 5.2-.2h-1.6l1.9-.9s-4.1.2-4.3-.8c-.2.8.8 1.4 1.7 1.7z" transform="translate(1256 576)"/><path class="st1" d="M-1104.3-482.2s-1.3.4-2.2.4c-.8 0-2.4-.8-2.4-1 .1.7.7 1.5 1.8 1.6 2.1.1 2.8-1 2.8-1zm1.7 3.8c0-.7-.2-5-.2-5s-.1 2.5-2.4 4.8c-.8.7-2.8 1-2.8 1 1.2.5 4-.1 4.7-1.1.6.3.5 1.3.3 1.9.2-.5.4-1.1.4-1.6z" transform="translate(1256 576)"/></g><g id="i1334_1_"><path class="st6" d="M-11584.9-5689.2c-17.5-9.5-55.3-26.4-29.3-42.3 24.3-14.8 57.8 6.3 75 15.4 25.3 13.4 50.7 31.7 35.2 41.4-15.7 10-47.9 3.4-80.9-14.5z" transform="matrix(.1 0 0 .1 1344 664)"/><path class="st7" d="M-11592.4-5731.4s-.9 4.3 1 5.6c1.9 1.2 6.2 2.8 8.7 1.6 2.5-1.2-1-7.3-1-7.3l-8.7.1z" transform="matrix(.1 0 0 .1 1344 664)"/><path class="st8" d="M-11595.4-5772.3s1.7 28.3 2.2 33.2-.6 10.1 1.6 11c2.2.9 8.7-1.4 8.3-2.8-1.1-3.7-2.5-19.7-1.9-25.4.6-5.6 6.5-25.1 6.5-25.1l-16.7 9.1z" transform="matrix(.1 0 0 .1 1344 664)"/><path class="st6" d="M-11595.4-5772.3s1.7 28.3 2.2 33.2-.6 10.1 1.6 11c2.2.9 8.7-1.4 8.3-2.8-1.1-3.7-2.5-19.7-1.9-25.4.6-5.6 6.5-25.1 6.5-25.1l-16.7 9.1z" transform="matrix(.1 0 0 .1 1344 664)"/><path class="st8" d="M-11601.5-5838.4c-7-3-15.5.9-16.4 8.4-.9 7.5 11.7-1.8 11.7-1.8l4.7-6.6z" transform="matrix(.1 0 0 .1 1344 664)"/><path class="st7" d="M-11510.8-5686.5s.2 4.1 1.1 4.4c.9.3 7.3 1.4 8.9.7 1.6-.8-1.2-6.5-1.2-6.5l-8.8 1.4zm-23.6 6.2s-.7 3.4 1.3 4.3 7.3 1.2 8.5.7c1.1-.6-.8-5.7-.8-5.7l-9 .7zm-86-37.2c-.1.9-.6 3.2 2.7 5s5.7 1.8 7.2.9-.9-6.5-.9-6.5l-8.6.6h-.4z" transform="matrix(.1 0 0 .1 1344 664)"/><path class="st8" d="M-11517.6-5821.1c-4 3.7-21.8.9-34-8s-31.8-24.5-51.2-10.7c-19.4 13.8-8 33.6-10.2 48.9-2.2 15.3-4.4 23.8-5.8 26.7-1.4 2.9-1.9 6.2-1.9 13.3s-1 33-.1 34.3c.9 1.3 9.2 1.8 10-.4.5-1.4-.9-12.2-.1-20 .4-4.2.1-12 7.2-19.8 7.1-7.8 12.2-16.2 12.2-16.2s13.3 7.1 23.6 10.9c10.2 3.8 16.5 6 16.5 6s9.8 25.8 10.7 28.5c.9 2.7 4 18.9 4.7 29.1s0 18.2 1.1 19.1c1.1.9 9.6.9 9.6-1.6 0-2.4-3.1-23.8-2.7-34.7.4-10.9 4.9-29.1 5.6-30.9.7-1.8 20-5.1 24-16.7s5.3-28.5 7.8-34.5c2.4-6 7.3-16.5 7.3-16.5s10 5.6 16.9 4.1c6.9-1.5 6.2-10.5 2-16.7-4.2-6.2-6.9-14.5-7.8-16.3-.9-1.8-.4-11.8-8.2-14-7.8-2.2-21.1.4-24 8.7-2.9 8.3-8.1 22.8-13.2 27.4z" transform="matrix(.1 0 0 .1 1344 664)"/><path class="st8" d="M-11501-5842.2c3.1-7.9-16.9-6.6-18.4-6.7 2.2 3.6 14.2 17.4 18.4 6.7zm21.5-7.9c6.3 2.9 6-13.6 6.2-14.9-3.1 1.8-14.8 11.1-6.2 14.9z" transform="matrix(.1 0 0 .1 1344 664)"/><path class="st7" d="M-11493-5835.2s1.2-2.1 4-2c2.8.1 4.2 2.8 4.2 2.8s-1.8 2.4-4.1 2.2c-2.3-.2-4.1-3-4.1-3z" transform="matrix(.1 0 0 .1 1344 664)"/><path class="st2" d="M-11476.9-5811.6c3.4 1.3 7.4 2.2 10.5 1.5 6.9-1.6 6.2-10.5 2-16.7-.1-.2-.2-.4-.4-.6-3.9.5-8.7 1.5-10.6 6.9-1 2.9-1.4 6.1-1.5 8.9z" transform="matrix(.1 0 0 .1 1344 664)"/><path class="st7" d="M-11464.3-5822.4c-1.9.5-5 0-4.5 2.4s3.1 1.9 4.4 2.3c.6.2 1.6 2.2 1.6 2.2s.3-2.3 1.2-3.2c.9-.9.7-4 0-4.4-.7-.4-1.9.5-2.7.7z" transform="matrix(.1 0 0 .1 1344 664)"/><path class="st8" d="M-11521.4-5751s7 30.9 8.1 42c1 11.1 1.6 23 2.7 23.9 1 .9 9.6.3 9.5-1.6-.1-1.9-2.5-17.3-3.6-26.5-1-9.2 1.2-26.2 1.5-32.4.3-6.2 4.3-18.5 4.3-18.5l-22.5 13.1z" transform="matrix(.1 0 0 .1 1344 664)"/><path class="st6" d="M-11521.4-5751s7 30.9 8.1 42c1 11.1 1.6 23 2.7 23.9 1 .9 9.6.3 9.5-1.6-.1-1.9-2.5-17.3-3.6-26.5-1-9.2 1.2-26.2 1.5-32.4.3-6.2 4.3-18.5 4.3-18.5l-22.5 13.1z" transform="matrix(.1 0 0 .1 1344 664)"/><path class="st2" d="M-11495.4-5852.6c-1.5-1.4-20.1-15-32.8-26.8-.1-2-.1-4.5.3-7 1.6-9.5 11.2-17.8 11.2-17.8s-4.7 2.2-9.6 6.9c-3.7 3.6-6.4 9.7-7.5 12.5-2.5-2.7-4.4-5.1-5.4-7-.9-6.6 2.5-12.6 4.1-14.8-2.4 1.4-5.4 5.3-6.7 8.5-3.1-8.5-4.2-17 1.6-32.2-4.9 7-17.2 28.8 5.5 51.7l11.9 11.9c-3.3-.9-14.2-3.9-19.6-8.9-6.5-5.9-10.7-14.6-10.7-14.6s1.1 16.7 18.1 24.2c7.7 3.4 14.8 5.4 20 6.4 8.8 8.4 13.1 11.9 14.8 12.9 2.7 1.7 7-3.9 4.8-5.9z" transform="matrix(.1 0 0 .1 1344 664)"/><path class="st2" d="M-11483.4-5857c-.9-1.7-13.6-19.3-21.5-33.6.5-1.8 1.2-4 2.3-6.2 4.2-8 15.2-12.6 15.2-12.6s-4.8.6-10.6 3.3c-4.4 2.1-8.6 6.8-10.3 9-1.5-3.1-2.5-5.8-2.8-7.9 1.1-6.2 5.9-10.5 8-12.1-2.6.6-6.4 3.2-8.5 5.7-.3-8.5 1.2-16.4 10.8-28.4-6.4 4.9-23.8 20.7-10.2 47.9 2.7 5.4 5.1 10.1 7.2 14.1-2.7-1.7-11.6-7.7-15-13.7-4.1-7.1-5.3-16.2-5.3-16.2s-4.1 15.3 9 27c5.9 5.3 11.7 9.1 16 11.6 5.4 10.1 8.2 14.5 9.5 15.9 2.1 2.4 7.6-1.4 6.2-3.8zm-15 93.8c4-11.6 5.3-28.5 7.8-34.5 2.4-6 7.3-16.5 7.3-16.5l-10.8-8.1s-13.6 22.8-17.5 32.3c-3.9 9.5-10.7 19.9-11.3 28.2-.6 8.3.4 15.2.4 15.2.7-1.7 20.1-5.1 24.1-16.6z" transform="matrix(.1 0 0 .1 1344 664)"/></g><g id="i1346_1_"><path class="st0" d="M-1104-541.8l64 32-64 32-64-32z" transform="translate(1168 616)"/><path class="st0" d="M-1104-541.8l64 32-64 32-64-32z" transform="translate(1168 616)"/><g transform="translate(1168 616)"><ellipse class="st1" cx="-1097.5" cy="-525.8" rx="7.5" ry="4"/><path class="st2" d="M-1099-552.8v27c0 .6.7 1 1.5 1s1.5-.4 1.5-1v-27h-3z"/><circle class="st3" cx="-1104.5" cy="-557.3" r="6.5"/><circle class="st3" cx="-1100" cy="-565.8" r="9"/><path class="st2" d="M-1097-537.4c2.6 0 3-.9 3-3.4v-8h1v10c0 1.7-1.3 3-3 3h-1v-1.6zm0-.6c-1.7 0-3-.4-3-2.1v-9.7h-1v10c0 1.7 1.3 3 3 3h1v-1.2zm-2-21c-1.7 0-3-.4-3-2.1v-2.7h-1v3c0 1.7 1.3 3 3 3h1v-1.2z"/><circle class="st3" cx="-1092.5" cy="-550.3" r="7.5"/><circle class="st3" cx="-1088" cy="-553.8" r="6"/><path class="st2" d="M-1093-551c1.7 0 3-.4 3-2.1v-2.7h1v3c0 1.7-1.3 3-3 3h-1v-1.2zm-7-15.4h1v9.6h-1z"/><circle class="st3" cx="-1091" cy="-563.8" r="8"/><circle class="st3" cx="-1096" cy="-572.8" r="8"/><path class="st4" d="M-1095.5-564.8c2.2 0 4.1 1.3 4.9 3.1.3-.1.7-.1 1.1-.1 1.8 0 3.4.9 4.4 2.2-.4-1.8-2-3.2-3.9-3.2h-.1c-.5-2.3-2.5-4-4.9-4-2 0-3.7 1.2-4.5 2.9.8-.6 1.9-.9 3-.9z"/><circle class="st3" cx="-1105" cy="-565.4" r="3.6"/><path class="st4" d="M-1105-565.3c0-2.5 1.7-4.6 4-5.3.2-2.9 2.5-5.2 5.5-5.2 1.7 0 3.3.8 4.3 2.1-.6-2.4-2.8-4.1-5.3-4.1-2.9 0-5.3 2.2-5.5 5.1-2.3.5-4 2.5-4 4.9 0 1.1.4 2.2 1 3v-.5z"/><circle class="st3" cx="-1099.7" cy="-550" r="9.3"/><circle class="st3" cx="-1087.7" cy="-556" r="3.3"/><path class="st1" d="M-1082-553.8c0-.4 0-.8-.1-1.2-.6 3.8-3.9 6.7-7.9 6.7h-.4c.7.3 1.6.5 2.4.5.7 0 1.3-.1 1.9-.3-1.4 1.4-3.3 2.3-5.4 2.3-1 0-2-.2-2.9-.6-1.6 1.6-3.9 2.6-6.3 2.6-3.5 0-6.6-2-8.1-4.8.7 4.4 4.5 7.8 9.1 7.8 2.2 0 4.3-.8 5.9-2.1.4.1.8.1 1.3.1 3.5 0 6.5-2.4 7.3-5.7 1.9-1 3.2-3 3.2-5.3z"/><path class="st4" d="M-1102.5-554.8c.8 0 1.5.1 2.2.4.9-1.4 2.5-2.4 4.3-2.4 1 0 1.9.3 2.7.8-.7-1.7-2.3-2.8-4.2-2.8-1.6 0-3 .8-3.8 2h-.7c-2.9 0-5.4 2.1-5.9 4.9 1.2-1.8 3.2-2.9 5.4-2.9z"/><path class="st1" d="M-1107-554.3c-1.9-.8-3.4-2.4-3.9-4.5-.1.5-.2 1-.2 1.5 0 2.4 1.3 4.4 3.2 5.6.2-.9.5-1.8.9-2.6z"/></g><g transform="translate(1168 616)"><ellipse class="st1" cx="-1125.5" cy="-512.8" rx="7.5" ry="4"/><path class="st2" d="M-1124-536.8v24c0 .6-.7 1-1.5 1s-1.5-.4-1.5-1v-24h3z"/><circle class="st3" cx="-1116.5" cy="-538.3" r="6.5"/><circle class="st3" cx="-1120" cy="-546.8" r="9"/><path class="st2" d="M-1126-524.4c-2.6 0-3-.9-3-3.4v-8h-1v10c0 1.7 1.3 3 3 3h1v-1.6zm1 1.4c1.7 0 3-.4 3-2.1v-9.7h1v10c0 1.7-1.3 3-3 3h-1v-1.2z"/><path class="st2" d="M-1129-526c-1.7 0-2-1.3-2-2.1v-9.7h-1v10c0 1.7 1.3 3 3 3v-1.2z"/><circle class="st3" cx="-1130" cy="-536.8" r="9"/><circle class="st3" cx="-1135" cy="-540.8" r="6"/><path class="st2" d="M-1130-537c-1.7 0-3-.4-3-2.1v-2.7h-1v3c0 1.7 1.3 3 3 3h1v-1.2z"/><circle class="st3" cx="-1131" cy="-548.8" r="8"/><circle class="st3" cx="-1127" cy="-552.8" r="8"/><circle class="st3" cx="-1120.5" cy="-555.3" r="4.5"/><path class="st4" d="M-1134.9-546.8c2.2 0 4.1 1.3 4.9 3.1.3-.1.7-.1 1.1-.1 1.8 0 3.4.9 4.4 2.2-.4-1.8-2-3.2-3.9-3.2h-.1c-.5-2.3-2.5-4-4.9-4-2 0-3.7 1.2-4.5 2.9.8-.6 1.9-.9 3-.9z"/><path class="st2" d="M-1127-549.4c.2.2.5.4.7.6h.3v-3c-.3 0-.7-.1-1-.2v2.6z"/><path class="st4" d="M-1126.5-556.8c2.4 0 4.3 1.9 4.5 4.2.5-.1 1-.2 1.5-.2 2.5 0 4.6 1.6 5.3 3.9.1-.4.2-.9.2-1.4 0-2.5-2-4.5-4.5-4.5-.5 0-1 .1-1.5.3-.1-1.8-1.6-3.3-3.5-3.3-1 0-1.9.4-2.5 1h.5z"/><path class="st1" d="M-1111.1-545.4c-1.7 1.9-4.1 3.1-6.8 3.1h-.6c1 1.1 1.6 2.4 1.7 3.9 2.9-1.1 5.2-3.8 5.7-7zm-2.4 10.3c.3.7.4 1.5.5 2.3 1.7-1.1 2.9-2.9 3-5-.8 1.3-2.1 2.2-3.5 2.7zm-21.8-11.7c-1.6-1.4-2.7-3.5-2.7-5.9-.6 1.1-1 2.5-1 3.9 0 1.1.2 2.1.6 3.1.9-.7 2-1 3.1-1.1z"/><path class="st2" d="M-1120-545.2c0 1.7-1.3 2.1-3 2.1v1.3h1c1.7 0 3-1.3 3-3v-2c-.3 0-.7-.1-1-.2v1.8z"/><circle class="st3" cx="-1122.2" cy="-534" r="9.3"/><path class="st4" d="M-1126-536.8c1.2 0 2.3.3 3.3.8 1.2-1.1 2.9-1.8 4.7-1.8 1.6 0 3.1.5 4.2 1.4-1.1-2-3.3-3.4-5.7-3.4-1.6 0-3.1.6-4.2 1.6-.7-.4-1.5-.6-2.3-.6-2.4 0-4.4 1.7-4.9 4 1.3-1.2 3-2 4.9-2z"/><path class="st1" d="M-1121.2-526.8c-3.8 0-7-2-8.8-5h-.9c-3.5 0-6.5-2-8-4.9.1 4.9 4.1 8.9 9 8.9h.9c1.7 1.9 4.1 3 6.8 3 3.6 0 6.6-2 8.2-4.9-1.9 1.8-4.5 2.9-7.2 2.9z"/></g><g transform="translate(1168 616)"><ellipse class="st1" cx="-1081.5" cy="-513.8" rx="7.5" ry="4"/><path class="st2" d="M-1080-537.8v24c0 .6-.7 1-1.5 1s-1.5-.4-1.5-1v-24h3z"/><circle class="st3" cx="-1072.5" cy="-539.3" r="6.5"/><circle class="st3" cx="-1076" cy="-547.8" r="9"/><path class="st2" d="M-1082-525.4c-2.6 0-3-.9-3-3.4v-8h-1v10c0 1.7 1.3 3 3 3h1v-1.6zm1 1.4c1.7 0 3-.4 3-2.1v-9.7h1v10c0 1.7-1.3 3-3 3h-1v-1.2z"/><path class="st2" d="M-1085-527c-1.7 0-2-1.3-2-2.1v-9.7h-1v10c0 1.7 1.3 3 3 3v-1.2z"/><circle class="st3" cx="-1086" cy="-537.8" r="9"/><circle class="st3" cx="-1091" cy="-541.8" r="6"/><path class="st2" d="M-1086-538c-1.7 0-3-.4-3-2.1v-2.7h-1v3c0 1.7 1.3 3 3 3h1v-1.2z"/><circle class="st3" cx="-1087" cy="-549.8" r="8"/><circle class="st3" cx="-1083" cy="-553.8" r="8"/><circle class="st3" cx="-1076.5" cy="-556.3" r="4.5"/><path class="st4" d="M-1090.9-547.8c2.2 0 4.1 1.3 4.9 3.1.3-.1.7-.1 1.1-.1 1.8 0 3.4.9 4.4 2.2-.4-1.8-2-3.2-3.9-3.2h-.1c-.5-2.3-2.5-4-4.9-4-2 0-3.7 1.2-4.5 2.9.8-.6 1.9-.9 3-.9z"/><path class="st2" d="M-1083-550.4c.2.2.5.4.7.6h.3v-3c-.3 0-.7-.1-1-.2v2.6z"/><path class="st4" d="M-1082.5-557.8c2.4 0 4.3 1.9 4.5 4.2.5-.1 1-.2 1.5-.2 2.5 0 4.6 1.6 5.3 3.9.1-.4.2-.9.2-1.4 0-2.5-2-4.5-4.5-4.5-.5 0-1 .1-1.5.3-.1-1.8-1.6-3.3-3.5-3.3-1 0-1.9.4-2.5 1h.5z"/><path class="st1" d="M-1067.1-546.4c-1.7 1.9-4.1 3.1-6.8 3.1h-.6c1 1.1 1.6 2.4 1.7 3.9 2.9-1.1 5.2-3.8 5.7-7zm-2.4 10.3c.3.7.4 1.5.5 2.3 1.7-1.1 2.9-2.9 3-5-.8 1.3-2.1 2.2-3.5 2.7zm-21.8-11.7c-1.6-1.4-2.7-3.5-2.7-5.9-.6 1.1-1 2.5-1 3.9 0 1.1.2 2.1.6 3.1.9-.7 2-1 3.1-1.1z"/><path class="st2" d="M-1076-546.2c0 1.7-1.3 2.1-3 2.1v1.3h1c1.7 0 3-1.3 3-3v-2c-.3 0-.7-.1-1-.2v1.8z"/><circle class="st3" cx="-1078.2" cy="-535" r="9.3"/><path class="st4" d="M-1082-537.8c1.2 0 2.3.3 3.3.8 1.2-1.1 2.9-1.8 4.7-1.8 1.6 0 3.1.5 4.2 1.4-1.1-2-3.3-3.4-5.7-3.4-1.6 0-3.1.6-4.2 1.6-.7-.4-1.5-.6-2.3-.6-2.4 0-4.4 1.7-4.9 4 1.3-1.2 3-2 4.9-2z"/><path class="st1" d="M-1077.2-527.8c-3.8 0-7-2-8.8-5h-.9c-3.5 0-6.5-2-8-4.9.1 4.9 4.1 8.9 9 8.9h.9c1.7 1.9 4.1 3 6.8 3 3.6 0 6.6-2 8.2-4.9-1.9 1.8-4.5 2.9-7.2 2.9z"/></g><path class="st1" d="M-1113.6-500.7l-5.7 2 4.1.2-2.5 1.7h5.8l3.4-.9-.6 2.8 3.6-.6 2.6-2.1 4.9 1.5 5.2-.7-1.6-1 1.8-.4-7.5-2.1z" transform="translate(1168 616)"/><path class="st5" d="M-1111.3-522.2c4.3-.5 6.3-8.6 6.3-8.6s.9 8 6.2 10.1c.1.7-1.9 1.4-3.6.6-.1 1.6 3.5 4.1 5.6 4.7.1.9-1.9 2.1-3.9 1.5.9 1.9 2.3 3.6 5.6 4.4-1.5.9-3.9.1-5.3 0 0 1.3 4.7 2.5 7.1 2.4-.4 1.2-2.7 2.5-4.7 2.4 0 1.4 4.7 2.6 5.9 3 .1 1.2-3.3 1.9-5.6 1.2-.1 1.4 2.4 2.7 3.6 3.3 0 1.1-7.6.7-8.9-1.5-1.4.5-2.4 3.5-5.1 3.3.4-.8 1.1-3.3-.2-3.9-1.1 1.6-5.8 2.7-7.7 1.8.5-.5 3.2-.9 2.4-2.7-2.4-.1-5.7-2.2-5.6-3.3.6.4 4.6 1 4.7 0-1.8-.1-2.9-1.6-3-2.7.6.3 4.6 1 4.7-.3-1.4-.5-3.1-1.5-3-2.7 1.2.1 3.7.1 3.9-1.2-1.5-.5-2.9-2.7-3-3.6 1.1.3 5.4.1 5.3-.9-1.9-.1-3.4-.9-3.3-2.1 2.4-.2 5-2.7 5-3.9-.8.5-2.7.1-3.4-1.3z" transform="translate(1168 616)"/><path class="st4" d="M-1095-509.5s-3 .1-5.6-2.4c-2.6-2.5-3.3-4.1-3.3-4.1s-.6.8-2.7 2.1-6.5 1.2-6.5 1.2 2.8 2.1 6.8.9c2-.6 1.8-1 1.8-1s2.8 2.4 3.8 2.8c4.1 1.4 5.7.5 5.7.5zm-16.6-7.1c3.6-1.9 5.8-3.5 6.5-6.5-.2 1.4 2.8 5.3 5.6 7.4-2.1-.2-4.7-3.7-5.9-3.6-.2 1.1-3.7 2.5-6.2 2.7z" transform="translate(1168 616)"/><path class="st4" d="M-1109.9-521.9c3.6-1.9 4.2-4.4 4.9-7.5-.2 1.4 1.6 5.9 4.4 8-2.1-.2-3.9-3.2-4.7-3.9-.3 1.2-2.2 3.2-4.6 3.4zm-5.3 13.2s4.4-.1 7.8-1.7c1-.1 2.5 3.1 3.3 3.3.8-.2 1.3-.4 2.1-1 .7 3.1 6.1 5.7 9.1 6.6-5.5 0-9.5-3.6-10.1-4.7-.7.5-.8 2.1-2.1 2.1-1-1.5-2.6-3.6-3-4.7-1-.3-5.4 1.2-7.1.1z" transform="translate(1168 616)"/><path class="st4" d="M-1117.9-502.6c6.2.7 8.5-2.2 9.5-3.3-.6 4.3-7.6 5.5-9.5 3.3zm16.5-.8c1.8 2.9 2.4 4.6 6.5 5.9-6.6.4-7.3-4.5-6.5-5.9zm-5.9 7.1c.4.2 4.2-5.9 1.4-7-1.6.9-.2 4-1.4 7z" transform="translate(1168 616)"/><path class="st1" d="M-1102.9-521.4l-1.6-1.3s1.3 1.6 2.1 2.6c1.7.8 3.7.1 3.6-.6 0 0-2.5.6-4.1-.7zm2.1 22.4c-2-2-2.4-5.1-2.4-5.1s-1.2 4.1-2.1 6c-.6 1.2-1.2 2.2-2.7 2.6v.1c2.8.2 3.7-2.8 5.1-3.3 1.3 2.2 8.9 2.6 8.9 1.5-.1-.1-4.8.2-6.8-1.8zm3.4-7.2c-2-.1-4.7-3.8-4.7-3.8s-1.4.7-2.2.1c-.8-.6-1.5-1.2-1.5-1.2s.7 3.5 1.8 3.3c1.1-.2 1.7-.5 2.1-1 .5 2.6 3.9 4.1 3.9 4.1 2 .1 4.3-1.1 4.7-2.4.1 0-2.1 1-4.1.9zm-12.1-8.6c.6 0 1.2 0 1.7-.1 1.5-.2 4.1-1.6 4.1-1.6l-2 .2.8-1.7s-2.3 1.9-4.3 2.1c-2 .3-3.5-1-3.5-1-.2 1.2 1.4 2 3.2 2.1zm-3.3 8.3c-.1 1.3-4.1.6-4.7.3 2.9 1.9 8.4-.3 8.4-.3l-2.6.1 3-1.5s-6.7.4-7-1.3c-.2 1.2 1.5 2.2 2.9 2.7z" transform="translate(1168 616)"/><path class="st1" d="M-1109.9-505.1s-2.1.6-3.6.6c-1.4 0-3.8-1.3-4-1.7.1 1.1 1.2 2.5 3 2.6 3.4.4 4.6-1.5 4.6-1.5zm2.6 6.3c0-1.2-.3-8.2-.3-8.2s-.2 4.2-3.9 7.8c-1.3 1.2-4.6 1.6-4.6 1.6 1.9.9 6.6-.2 7.7-1.8 1 .5.8 2.1.5 3.2.3-.7.6-1.8.6-2.6zm7.1 6.4l-3.5 1.3 2.5.1-1.5 1h3.5l2.1-.5-.3 1.7 2.1-.4 1.6-1.3 3 1 3.2-.5-1-.6 1.1-.3-4.5-1.2z" transform="translate(1168 616)"/><path class="st5" d="M-1098.8-505.5c2.6-.3 3.8-5.3 3.8-5.3s.5 4.9 3.8 6.2c.1.5-1.1.9-2.2.4-.1 1 2.1 2.5 3.4 2.9 0 .5-1.2 1.3-2.4.9.5 1.2 1.4 2.2 3.4 2.7-.9.5-2.4 0-3.3 0 0 .8 2.9 1.5 4.4 1.5-.3.8-1.7 1.5-2.9 1.5 0 .9 2.9 1.6 3.6 1.8.1.7-2 1.2-3.4.7 0 .9 1.5 1.6 2.2 2 0 .7-4.7.5-5.4-.9-.9.3-1.4 2.2-3.1 2 .2-.5.7-2-.1-2.4-.7 1-3.5 1.6-4.7 1.1.3-.3 2-.5 1.5-1.6-1.5 0-3.5-1.4-3.4-2 .4.3 2.8.6 2.9 0-1.1-.1-1.8-1-1.8-1.6.4.2 2.8.6 2.9-.2-.9-.3-1.9-.9-1.8-1.6.7.1 2.3 0 2.4-.7-.9-.3-1.8-1.7-1.8-2.2.7.2 3.3 0 3.3-.5-1.1-.1-2.1-.5-2-1.3 1.5-.1 3.1-1.7 3.1-2.4-.8 0-2-.2-2.4-1z" transform="translate(1168 616)"/><path class="st4" d="M-1088.8-497.7s-1.9.1-3.4-1.5c-1.6-1.5-2-2.5-2-2.5s-.4.5-1.6 1.3c-1.3.8-4 .7-4 .7s1.7 1.3 4.2.5c1.2-.4 1.1-.6 1.1-.6s1.7 1.5 2.4 1.7c2.3.9 3.3.4 3.3.4zm-10.2-4.4c2.2-1.2 3.5-2.1 4-4-.1.9 1.7 3.3 3.4 4.5-1.3-.1-2.9-2.3-3.6-2.2-.1.7-2.3 1.6-3.8 1.7z" transform="translate(1168 616)"/><path class="st4" d="M-1098-505.3c2.2-1.2 2.5-2.7 3-4.6-.1.9 1 3.6 2.7 4.9-1.3-.1-2.4-1.9-2.9-2.4-.1.7-1.3 1.9-2.8 2.1zm-3.2 8.1s2.7 0 4.8-1c.6 0 1.5 1.9 2 2 .5-.1.8-.3 1.3-.6.4 1.9 3.7 3.5 5.6 4-3.4 0-5.8-2.2-6.2-2.9-.4.3-.5 1.3-1.3 1.3-.6-.9-1.6-2.2-1.8-2.9-.7-.2-3.4.7-4.4.1z" transform="translate(1168 616)"/><path class="st4" d="M-1102.8-493.5c3.8.4 5.2-1.3 5.8-2-.4 2.6-4.7 3.3-5.8 2zm10-.5c1.1 1.8 1.5 2.8 4 3.6-4 .2-4.4-2.8-4-3.6zm-3.6 4.3c.2.1 2.6-3.6.8-4.3-.9.6 0 2.5-.8 4.3z" transform="translate(1168 616)"/><path class="st1" d="M-1093.7-505l-1-.8s.8 1 1.3 1.6c1 .5 2.2.1 2.2-.4 0 0-1.5.3-2.5-.4zm1.3 13.7c-1.2-1.2-1.5-3.1-1.5-3.1s-.7 2.5-1.3 3.7c-.4.7-.7 1.3-1.7 1.6v.1c1.7.1 2.3-1.7 3.1-2 .8 1.4 5.4 1.6 5.4.9.1-.2-2.8 0-4-1.2zm2.1-4.4c-1.2-.1-2.9-2.3-2.9-2.3s-.8.4-1.3.1c-.5-.3-.9-.7-.9-.7s.4 2.1 1.1 2c.7-.1 1-.3 1.3-.6.3 1.6 2.4 2.5 2.4 2.5 1.2.1 2.6-.7 2.9-1.5 0-.1-1.4.5-2.6.5zm-7.4-5.3c.4 0 .7 0 1.1-.1.9-.1 2.5-1 2.5-1l-1.2.1.5-1.1s-1.4 1.1-2.6 1.3c-1.2.2-2.2-.6-2.2-.6-.2.9.8 1.3 1.9 1.4zm-2 5.1c-.1.8-2.5.4-2.9.2 1.8 1.2 5.2-.2 5.2-.2h-1.6l1.9-.9s-4.1.2-4.3-.8c-.2.8.8 1.4 1.7 1.7z" transform="translate(1168 616)"/><path class="st1" d="M-1098-495s-1.3.4-2.2.4c-.8 0-2.4-.8-2.4-1 .1.7.7 1.5 1.8 1.6 2.1.1 2.8-1 2.8-1zm1.7 3.8c0-.7-.2-5-.2-5s-.1 2.5-2.4 4.8c-.8.7-2.8 1-2.8 1 1.2.5 4-.1 4.7-1.1.6.3.5 1.3.3 1.9.2-.5.4-1.1.4-1.6z" transform="translate(1168 616)"/></g><g transform="translate(1232 720)" id="i1345_1_"><ellipse class="st1" cx="-1151.5" cy="-559" rx="5.6" ry="3"/><path class="st2" d="M-1151-572c.6 0 1 .4 1 1v12c0 .6-.4 1-1 1s-1-.4-1-1v-12c0-.6.4-1 1-1z"/><path class="st3" d="M-1149.5-562c-1.4 0-2.5-1.1-2.5-2.5v-16c0-1.4 1.1-2.5 2.5-2.5s2.5 1.1 2.5 2.5v16c0 1.4-1.1 2.5-2.5 2.5z"/><path class="st3" d="M-1146.5-567c-1.4 0-2.5-1.1-2.5-2.5v-16c0-1.4 1.1-2.5 2.5-2.5s2.5 1.1 2.5 2.5v16c0 1.4-1.1 2.5-2.5 2.5z"/><path class="st3" d="M-1147.5-570c-1.4 0-2.5-1.1-2.5-2.5v-16c0-1.4 1.1-2.5 2.5-2.5s2.5 1.1 2.5 2.5v16c0 1.4-1.1 2.5-2.5 2.5z"/><path class="st3" d="M-1149.8-597c-1.3.1-2.2 1.3-2.2 2.6 0 .3-.2.5-.5.4-.5-.1-1-.1-1.6.2-1.2.5-1.9 1.8-1.9 3.1v1.3c0 .2-.2.4-.4.4s-.4 0-.6.1c-1.2.2-2 1.3-2 2.5v15.8c0 .8.4 1.6 1 2.1s1 1.3 1 2.1v.9c0 1.4 1.1 2.5 2.5 2.5h1c1.4 0 2.5-1.1 2.5-2.5v-5.1c.6-.6 1-1.5 1-2.4v-8.1c.3.1.6.1 1 0 1.2-.2 2-1.4 2-2.6v-10.9c0-1.4-1.3-2.6-2.8-2.4z"/><path class="st3" d="M-1151-570.6c.6-.6 1-1.5 1-2.4v-2c0 .9-.4 1.8-1 2.4v2z"/><path d="M-1149.5-564c-1.1 0-2-.7-2.3-1.6-.4.4-1 .6-1.7.6h-1c-1.4 0-2.5-1.1-2.5-2.5v2c0 1.4 1.1 2.5 2.5 2.5h1c.6 0 1.2-.2 1.7-.6.4 1 1.3 1.6 2.3 1.6 1.4 0 2.5-1.1 2.5-2.5v-2c0 1.4-1.1 2.5-2.5 2.5zm3-5c-.2 0-.3 0-.5-.1v2c.2 0 .3.1.5.1 1.4 0 2.5-1.1 2.5-2.5v-2c0 1.4-1.1 2.5-2.5 2.5zm-3-4h-1c-.5.6-1.2 1-2 1-1.4 0-2.5-1.1-2.5-2.5v2c0 1.4 1.1 2.5 2.5 2.5.8 0 1.5-.4 2-1h1c1.4 0 2.5-1.1 2.5-2.5v-2c0 1.4-1.1 2.5-2.5 2.5zm0-8c-.2 0-.3 0-.5-.1v2c.2 0 .3.1.5.1 1.4 0 2.5-1.1 2.5-2.5v-2c0 1.4-1.1 2.5-2.5 2.5z"/><path class="st4" d="M-1150-592c-1.1 0-2 .9-2 2v.3h-1.2c-1.1 0-2 .9-2 2v1.4c-.9.2-1.6 1-1.6 2v2c0-1 .7-1.8 1.6-2v-1.4c0-1.1.9-2 2-2h1.2v-.3c0-1.1.9-2 2-2s2 .9 2 2v-2c0-1.1-.9-2-2-2z"/><path class="st1" d="M-1157-567.5v-.9c0-.8-.3-1.6-1-2.1-.6-.5-1-1.3-1-2.1v2c0 .8.4 1.6 1 2.1s1 1.3 1 2.1v-1.1z"/></g><g transform="translate(1248 712)" id="i1344_1_"><ellipse class="st1" cx="-1151.5" cy="-581" rx="6.5" ry="2"/><path class="st2" d="M-1153-584h3v4h-3z"/><circle class="st3" cx="-1146" cy="-585.9" r="3.8"/><circle class="st3" cx="-1148.1" cy="-590.9" r="5.3"/><circle class="st3" cx="-1153.4" cy="-587.4" r="5.3"/><circle class="st3" cx="-1156.3" cy="-589.8" r="3.5"/><path class="st2" d="M-1153.9-592.9c-1 0-1.8-.3-1.8-1.2v-1.5h-.6v1.8c0 1 .8 1.8 1.8 1.8h.6v-.9z"/><circle class="st3" cx="-1154.1" cy="-586.1" r="5.7"/><path class="st1" d="M-1154.1-581.8c-2.9 0-5.3-2.2-5.7-5v.7c0 3.2 2.6 5.7 5.7 5.7s5.7-2.6 5.7-5.7v-.7c-.4 2.8-2.8 5-5.7 5z"/><circle class="st3" cx="-1152.2" cy="-593.3" r="4.7"/><circle class="st3" cx="-1148.4" cy="-594.8" r="2.6"/><path class="st4" d="M-1156.8-590.9c1.3 0 2.4.7 2.9 1.8.2 0 .4-.1.6-.1 1.1 0 2 .5 2.6 1.3-.2-1.1-1.2-1.9-2.3-1.9h-.1c-.3-1.3-1.5-2.4-2.9-2.4-1.2 0-2.2.7-2.7 1.7.6-.2 1.2-.4 1.9-.4z"/><path class="st2" d="M-1152.2-592.5c.1.1.3.2.4.3h.2v-1.7c-.2 0-.4 0-.6-.1v1.5z"/><path class="st4" d="M-1151.9-595.6c1.4 0 2.5 1.1 2.6 2.5.3-.1.6-.1.9-.1 1.5 0 2.7 1 3.1 2.3.1-.3.1-.5.1-.8 0-1.5-1.2-2.6-2.6-2.6-.3 0-.6.1-.9.2-.1-1.1-1-1.9-2-1.9-.6 0-1.1.2-1.5.6.1-.2.2-.2.3-.2z"/><path class="st1" d="M-1142.8-590.1c-1 1.1-2.4 1.8-4 1.8h-.4c.6.6.9 1.4 1 2.3 1.8-.6 3.1-2.2 3.4-4.1zm-1.5 6c.2.4.3.9.3 1.4 1-.6 1.7-1.7 1.8-2.9-.5.7-1.2 1.3-2.1 1.5z"/><circle class="st3" cx="-1148.8" cy="-585.8" r="5.4"/><path class="st4" d="M-1151-587.4c.7 0 1.4.2 1.9.5.7-.7 1.7-1.1 2.8-1.1.9 0 1.8.3 2.5.8-.6-1.2-1.9-2-3.4-2-1 0-1.8.3-2.5.9-.4-.2-.9-.3-1.3-.3-1.4 0-2.6 1-2.9 2.4.8-.8 1.8-1.2 2.9-1.2z"/><path class="st1" d="M-1148.2-581.5c-2.2 0-4.1-1.2-5.2-3-.2 0-.2 4.1 4.6 4.1 2.1 0 3.9-1.2 4.8-2.9-1.1 1.1-2.6 1.8-4.2 1.8z"/><path class="st2" d="M-1149-590.6c0 1-.9 1.2-2 1.2v.4h.6c1 0 1.4-.4 1.4-1.4v-1.2 1z"/></g></svg>