<svg xmlns="http://www.w3.org/2000/svg" width="175" height="128"><style>.st0{opacity:.2;enable-background:new}.st1{fill:#2d3134}.st2{fill:#762c07}.st3{fill:#825012}.st4{opacity:.3;enable-background:new}.st5{fill:#539b00}.st6{opacity:.2;fill:#fff;enable-background:new}.st7{fill:#28896d}.st8{fill:#656565}.st9{fill:#f8ebcb}.st11{fill:#9c3}</style><g id="i1348_1_"><path class="st0" d="M-13599.7-5897.2c-17.4 9.4-55.1 26.3-29.2 42.1 24.2 14.8 57.6-6.3 74.7-15.4 25.2-13.4 50.5-31.6 35.1-41.2-15.7-9.9-47.8-3.3-80.6 14.5z" transform="matrix(.1 0 0 .1 1400 656)"/><path class="st1" d="M-13544.6-5911.1c0 1.5-.8 3.6 2.3 4.7 3.1 1 7.7-1.9 8.1-3 .4-1-2.7-3.8-2.7-3.8l-7.7 2.1z" transform="matrix(.1 0 0 .1 1400 656)"/><path class="st2" d="M-13552.2-5960.5c1.9 6.4 5.3 29 5.7 34.1s.9 15.5 2 16.6c1.2 1.2 4.9 1 6.5-.1 1.6-1.2 2.2-1.5 1.8-3.1-.4-1.6-2.5-19.4-2.8-24.4s2.2-36.6 2.2-36.6l-15.4 13.5z" transform="matrix(.1 0 0 .1 1400 656)"/><path class="st0" d="M-13552.2-5960.5c1.9 6.4 5.3 29 5.7 34.1s.9 15.5 2 16.6c1.2 1.2 4.9 1 6.5-.1 1.6-1.2 2.2-1.5 1.8-3.1-.4-1.6-2.5-19.4-2.8-24.4s2.2-36.6 2.2-36.6l-15.4 13.5z" transform="matrix(.1 0 0 .1 1400 656)"/><path class="st1" d="M-13529.4-5901.9c-.1 1 0 3.6 3.4 4.4 3.4.7 7.1-1.9 7.1-3.3s-2.8-3.8-2.8-3.8l-7.7 2.7zm-81.8 46.2c-.1 1-1 2.9 0 3.9 1.6 1.6 7 1.8 9 .7 2-1 2.3-1.8 2-2.6-.3-.9-1.2-3.1-1.2-3.1l-9.8 1.1zm-24.2-15.9c-.9 2.5-.1 4.3 1.3 4.7 4.9 1.6 10-.2 9.8-1.8-.1-.6-2.2-3.9-2.2-3.9l-8.9 1z" transform="matrix(.1 0 0 .1 1400 656)"/><path class="st2" d="M-13520.9-6078.5c4.5-5.4 16.8-5.8 21.9-1.5 5.1 4.4 10.5 6.7 12.7 7.9 2.2 1.2 5.1 7.7.7 11.7-4.4 4-13.7 7.4-15.5 10.8-1.8 3.4-4.6 11.6-7 21.3-2.3 9.6-5 20.3-4.7 23.6.3 3.4.3 17.1-1.6 27.3-1.9 10.2-9 35.7-9.2 40.5-.1 4.8.7 23.5 1.9 28.3 1.2 4.8 1.4 5.5.7 6.8-.8 1.4-7.4 3.7-8.4 1.4-1-2.3-1.2-10.2-1.3-15.6-.1-5.4-3.9-32.4-5.1-36.6-1.2-4.2-4.7-10.5-4.7-10.5s-8.7 7.8-12.8 9.8c-5.5 2.6-15.5 9.2-15.5 9.2s-6 17.2-12.8 26.5c-6.9 9.3-16.3 19.3-18.8 28.7-2.5 9.5.3 30.9-.4 33.1-.7 2.2-6.1 3.6-9.2 2.3s-1.3-7-1.5-11.4c-.1-4.4-2.5-29-2-31.5.4-2.5 9.3-19.4 8.3-25.4s-9.3-22.3-10.9-23.6c-1.6-1.3-11.4-14.4-11.4-27.1s3.6-25.8 14.4-33.1c5.9-4 25.1-7.6 38.1-10.4s31.8-10.2 36.6-20c4.8-9.8 11-34.7 17.5-42.5z" transform="matrix(.1 0 0 .1 1400 656)"/><path class="st2" d="M-13520.3-6072.7c1-4.8-9.3-9-17-5.2 3.3 1.9 15.3 14.2 17 5.2z" transform="matrix(.1 0 0 .1 1400 656)"/><path class="st3" d="M-13486.3-6072.1c-.3-.2-.8-.4-1.3-.7 1.2 3.4 1.6 8.7 1.4 12.9.2-.2.4-.4.6-.5 4.4-4 1.5-10.5-.7-11.7z" transform="matrix(.1 0 0 .1 1400 656)"/><path class="st2" d="M-13625.4-5976.6c-3.1 10.1-5.4 39.2-6.9 46.1s-2.9 9.2-3.2 11.7 0 27.7-.1 32.1c-.1 4.4-1.2 15.6.7 16.6 1.9 1 8.9 2.1 9.2-.5s-1.3-17.4-1.2-22.6c.1-5.2 3.6-24.9 11.7-39.2 8-14.3 12-22.2 12-22.2l-22.2-22z" transform="matrix(.1 0 0 .1 1400 656)"/><path class="st0" d="M-13625.4-5976.6c-3.1 10.1-5.4 39.2-6.9 46.1s-2.9 9.2-3.2 11.7 0 27.7-.1 32.1c-.1 4.4-1.2 15.6.7 16.6 1.9 1 8.9 2.1 9.2-.5s-1.3-17.4-1.2-22.6c.1-5.2 3.6-24.9 11.7-39.2 8-14.3 12-22.2 12-22.2l-22.2-22z" transform="matrix(.1 0 0 .1 1400 656)"/><path class="st3" d="M-13619.3-5943c3.9-2.6 5.9-1.5 5.9-1.5l1.5 6.1c5.8-10.6 8.7-16.3 8.7-16.3l-22.2-21.9c-3.1 10.1-5.4 39.2-6.9 46.1s-2.9 9.2-3.2 11.7 0 27.7-.1 32.1c-.1 4.4-1.2 15.6.7 16.6.7.4 2.1.9 3.6 1.2-.2-12.2-.5-38.8 1-45.9 2-9.1 7-25.5 11-28.2z" transform="matrix(.1 0 0 .1 1400 656)"/><path class="st3" d="M-13591.8-5973.2c-12.6-20.4-24.5-21-32.5-18-2.3 5.8-3.2 12.3-3.2 18.6 0 12.7 9.8 25.8 11.4 27.1.1.1.4.4.6.7 1.3-.2 2 .2 2 .2l1.5 6c2.9 5.6 6.2 13.1 6.8 16.7 1 6-7.9 22.9-8.3 25.4s1.9 27.1 2 31.5-1.6 10.1 1.5 11.4c.8.3 1.8.5 2.8.5-.7-10.6-2.2-37.3.1-41.8 2.9-5.6 28.9-56.4 15.3-78.3zm75.9-107.2c-1.4-1.1-19.1-12.1-31.3-21.8-.3-1.8-.4-4-.2-6.3.8-8.7 8.8-16.8 8.8-16.8s-4.1 2.3-8.1 6.8c-3.1 3.5-5.1 9.2-5.8 11.7-2.4-2.2-4.3-4.3-5.3-5.9-1.3-5.9 1.4-11.5 2.6-13.6-2.1 1.4-4.5 5.1-5.4 8.1-3.4-7.4-5-15-.8-29-3.9 6.6-13.4 27.1 8.6 46 4.4 3.8 8.2 7 11.6 9.8-3-.5-13-2.5-18.2-6.6-6.2-4.8-10.6-12.3-10.6-12.3s2 15 17.8 20.6c7.1 2.5 13.7 3.8 18.4 4.4 8.5 6.9 12.6 9.8 14.2 10.5 2.3 1.4 5.8-4 3.7-5.6z" transform="matrix(.1 0 0 .1 1400 656)"/><path class="st3" d="M-13503.8-6074.5c-1.2-1.4-16.6-15.3-26.8-27.1.1-1.8.3-4 .9-6.3 2.3-8.4 11.7-14.9 11.7-14.9s-4.4 1.5-9.2 5.2c-3.7 2.8-6.6 8.1-7.9 10.5-2-2.6-3.5-5-4.2-6.8-.2-6 3.4-11 5-12.9-2.3 1-5.4 4.2-6.8 7-2-7.9-2.2-15.6 4.4-28.7-5 5.8-18.1 24.2.1 46.8 3.6 4.5 6.8 8.4 9.6 11.8-2.9-1.1-12.3-4.8-16.8-9.8-5.2-5.9-8.2-14.1-8.2-14.1s-.7 15.1 13.8 23.5c6.6 3.8 12.8 6.2 17.3 7.6 7.1 8.3 10.6 11.9 12.1 13 2.4 1.8 6.7-2.8 5-4.8z" transform="matrix(.1 0 0 .1 1400 656)"/><path class="st2" d="M-13610.1-5997.1c-3.8-3-13.1.8-17.9 10.1-2.1 4-4.1 14.7.1 14.4 4.2-.3 10.5-11.8 12.8-14 4.7-4.4 6.3-9.5 5-10.5z" transform="matrix(.1 0 0 .1 1400 656)"/><path class="st1" d="M-13488-6072.7c-.8.1.3 1.7 1.8 2.2s2 .7 2 .7-.9-3.2-3.8-2.9z" transform="matrix(.1 0 0 .1 1400 656)"/></g><g transform="translate(1384 616)" id="i1349_1_"><ellipse class="st4" cx="-1353.5" cy="-561" rx="7.5" ry="4"/><path class="st3" d="M-1355-588v27c0 .6.7 1 1.5 1s1.5-.4 1.5-1v-27h-3z"/><circle class="st5" cx="-1360.5" cy="-592.5" r="6.5"/><circle class="st5" cx="-1356" cy="-601" r="9"/><path class="st3" d="M-1353-572.6c2.6 0 3-.9 3-3.4v-8h1v10c0 1.7-1.3 3-3 3h-1v-1.6zm0-.6c-1.7 0-3-.4-3-2.1v-9.7h-1v10c0 1.7 1.3 3 3 3h1v-1.2zm-2-21c-1.7 0-3-.4-3-2.1v-2.7h-1v3c0 1.7 1.3 3 3 3h1v-1.2z"/><circle class="st5" cx="-1348.5" cy="-585.5" r="7.5"/><circle class="st5" cx="-1344" cy="-589" r="6"/><path class="st3" d="M-1349-586.2c1.7 0 3-.4 3-2.1v-2.7h1v3c0 1.7-1.3 3-3 3h-1v-1.2zm-7-15.4h1v9.6h-1z"/><circle class="st5" cx="-1347" cy="-599" r="8"/><circle class="st5" cx="-1352" cy="-608" r="8"/><path class="st6" d="M-1351.5-600c2.2 0 4.1 1.3 4.9 3.1.3-.1.7-.1 1.1-.1 1.8 0 3.4.9 4.4 2.2-.4-1.8-2-3.2-3.9-3.2h-.1c-.5-2.3-2.5-4-4.9-4-2 0-3.7 1.2-4.5 2.9.8-.6 1.9-.9 3-.9z"/><circle class="st5" cx="-1361" cy="-600.6" r="3.6"/><path class="st6" d="M-1361-600.5c0-2.5 1.7-4.6 4-5.3.2-2.9 2.6-5.2 5.5-5.2 1.7 0 3.3.8 4.3 2.1-.6-2.4-2.8-4.1-5.3-4.1-2.9 0-5.3 2.2-5.5 5.1-2.3.5-4 2.5-4 4.9 0 1.1.4 2.2 1 3v-.5z"/><circle class="st5" cx="-1355.7" cy="-585.2" r="9.3"/><circle class="st5" cx="-1343.7" cy="-591.2" r="3.3"/><path class="st4" d="M-1338-589c0-.4 0-.8-.1-1.2-.6 3.8-3.9 6.7-7.9 6.7h-.4c.7.3 1.6.5 2.4.5.7 0 1.3-.1 1.9-.3-1.4 1.4-3.3 2.3-5.4 2.3-1 0-2-.2-2.9-.6-1.6 1.6-3.9 2.6-6.3 2.6-3.5 0-6.6-2-8.1-4.8.7 4.4 4.5 7.8 9.1 7.8 2.2 0 4.3-.8 5.9-2.1.4.1.8.1 1.3.1 3.5 0 6.5-2.4 7.3-5.7 1.9-1 3.2-3 3.2-5.3z"/><path class="st6" d="M-1358.5-590c.8 0 1.5.1 2.2.4.9-1.4 2.5-2.4 4.3-2.4 1 0 1.9.3 2.7.8-.7-1.7-2.3-2.8-4.2-2.8-1.6 0-3 .8-3.8 2h-.7c-2.9 0-5.4 2.1-5.9 4.9 1.2-1.8 3.2-2.9 5.4-2.9z"/><path class="st4" d="M-1363-589.5c-1.9-.8-3.4-2.4-3.9-4.5 0 .5-.1 1-.1 1.5 0 2.4 1.3 4.4 3.2 5.6.1-.9.4-1.8.8-2.6z"/></g><g transform="translate(1368 648)" id="i1350_1_"><ellipse class="st4" cx="-1352.5" cy="-561" rx="7.5" ry="4"/><path class="st3" d="M-1351-585v24c0 .6-.7 1-1.5 1s-1.5-.4-1.5-1v-24h3z"/><circle class="st5" cx="-1343.5" cy="-586.5" r="6.5"/><circle class="st5" cx="-1347" cy="-595" r="9"/><path class="st3" d="M-1353-572.6c-2.6 0-3-.9-3-3.4v-8h-1v10c0 1.7 1.3 3 3 3h1v-1.6zm1 1.4c1.7 0 3-.4 3-2.1v-9.7h1v10c0 1.7-1.3 3-3 3h-1v-1.2z"/><path class="st3" d="M-1356-574.2c-1.7 0-2-1.3-2-2.1v-9.7h-1v10c0 1.7 1.3 3 3 3v-1.2z"/><circle class="st5" cx="-1357" cy="-585" r="9"/><circle class="st5" cx="-1362" cy="-589" r="6"/><path class="st3" d="M-1357-585.2c-1.7 0-3-.4-3-2.1v-2.7h-1v3c0 1.7 1.3 3 3 3h1v-1.2z"/><circle class="st5" cx="-1358" cy="-597" r="8"/><circle class="st5" cx="-1354" cy="-601" r="8"/><circle class="st5" cx="-1347.5" cy="-603.5" r="4.5"/><path class="st6" d="M-1361.9-595c2.2 0 4.1 1.3 4.9 3.1.3-.1.7-.1 1.1-.1 1.8 0 3.4.9 4.4 2.2-.4-1.8-2-3.2-3.9-3.2h-.1c-.5-2.3-2.5-4-4.9-4-2 0-3.7 1.2-4.5 2.9.8-.6 1.9-.9 3-.9z"/><path class="st3" d="M-1354-597.6c.2.2.5.4.7.6h.3v-3c-.3 0-.7-.1-1-.2v2.6z"/><path class="st6" d="M-1353.5-605c2.4 0 4.3 1.9 4.5 4.2.5-.1 1-.2 1.5-.2 2.5 0 4.6 1.6 5.3 3.9.1-.4.2-.9.2-1.4 0-2.5-2-4.5-4.5-4.5-.5 0-1 .1-1.5.3-.1-1.8-1.6-3.3-3.5-3.3-1 0-1.9.4-2.5 1h.5z"/><path class="st4" d="M-1338.1-593.6c-1.7 1.9-4.1 3.1-6.8 3.1h-.6c1 1.1 1.6 2.4 1.7 3.9 2.9-1.1 5.2-3.8 5.7-7zm-2.4 10.3c.3.7.4 1.5.5 2.3 1.7-1.1 2.9-2.9 3-5-.8 1.3-2.1 2.2-3.5 2.7zm-21.8-11.7c-1.6-1.4-2.7-3.5-2.7-5.9-.6 1.1-1 2.5-1 3.9 0 1.1.2 2.1.6 3.1.9-.7 2-1 3.1-1.1z"/><path class="st3" d="M-1347-593.4c0 1.7-1.3 2.1-3 2.1v1.3h1c1.7 0 3-1.3 3-3v-2c-.3 0-.7-.1-1-.2v1.8z"/><circle class="st5" cx="-1349.2" cy="-582.2" r="9.3"/><path class="st6" d="M-1353-585c1.2 0 2.3.3 3.3.8 1.2-1.1 2.9-1.8 4.7-1.8 1.6 0 3.1.5 4.2 1.4-1.1-2-3.3-3.4-5.7-3.4-1.6 0-3.1.6-4.2 1.6-.7-.4-1.5-.6-2.3-.6-2.4 0-4.4 1.7-4.9 4 1.3-1.2 3-2 4.9-2z"/><path class="st4" d="M-1348.2-575c-3.8 0-7-2-8.8-5h-.9c-3.5 0-6.5-2-8-4.9 0 4.9 4 8.9 8.9 8.9h.9c1.7 1.9 4.1 3 6.8 3 3.6 0 6.6-2 8.2-4.9-1.8 1.8-4.4 2.9-7.1 2.9z"/></g><g id="i1351_1_"><path class="st4" d="M-1360.2-586.4l-5.2 1.9 3.7.2-2.3 1.5h5.4l3.2-.8-.5 2.6 3.3-.6 2.4-2 4.6 1.5 4.7-.7-1.5-.9 1.7-.4-6.9-1.9z" transform="translate(1376 704)"/><path class="st7" d="M-1358-606.4c3.9-.5 5.8-8 5.8-8s.8 7.4 5.8 9.4c.1.7-1.7 1.3-3.3.6-.1 1.5 3.2 3.9 5.2 4.4.1.8-1.8 2-3.6 1.4.8 1.8 2.2 3.3 5.2 4.1-1.4.8-3.6.1-5 0 0 1.2 4.4 2.3 6.6 2.2-.4 1.1-2.5 2.3-4.4 2.2 0 1.3 4.3 2.4 5.5 2.8.1 1.1-3 1.8-5.2 1.1-.1 1.3 2.2 2.5 3.3 3 0 1-7.1.7-8.3-1.4-1.3.5-2.2 3.3-4.8 3.1.3-.7 1.1-3.1-.2-3.6-1 1.4-5.4 2.5-7.2 1.7.6-.6 3.2-1 2.4-2.6-2.3-.1-5.3-2.1-5.2-3 .6.4 4.3 1 4.4 0-1.7-.1-2.7-1.4-2.8-2.5.6.3 4.3.9 4.4-.3-1.3-.5-2.9-1.4-2.8-2.5 1.1.1 3.4.1 3.6-1.1-1.4-.5-2.7-2.5-2.8-3.3 1 .3 5 .1 5-.8-1.7-.1-3.2-.8-3-1.9 2.2-.2 4.7-2.5 4.7-3.6-.9.2-2.7-.1-3.3-1.4z" transform="translate(1376 704)"/><path class="st6" d="M-1342.9-594.6s-2.8.1-5.2-2.2-3-3.9-3-3.9-.6.8-2.5 1.9c-1.9 1.1-6.1 1.1-6.1 1.1s2.6 2 6.3.8c1.8-.6 1.7-1 1.7-1s2.6 2.2 3.6 2.6c3.7 1.5 5.2.7 5.2.7z" transform="translate(1376 704)"/><path class="st6" d="M-1358.3-601.2c3.3-1.8 5.4-3.2 6.1-6.1-.2 1.3 2.6 5 5.2 6.9-1.9-.2-4.4-3.4-5.5-3.3-.2 1-3.5 2.3-5.8 2.5z" transform="translate(1376 704)"/><path class="st6" d="M-1356.8-606.1c3.3-1.8 3.9-4.1 4.5-6.9-.2 1.3 1.5 5.5 4.1 7.4-1.9-.2-3.6-3-4.4-3.6-.1 1-1.9 2.9-4.2 3.1zm-4.9 12.3s4.1-.1 7.2-1.6c1-.1 2.3 2.9 3 3 .8-.2 1.2-.4 2-.9.7 2.8 5.7 5.3 8.5 6.1-5.2 0-8.8-3.4-9.4-4.4-.6.5-.8 1.9-1.9 1.9-.9-1.3-2.3-3.3-2.7-4.3-1-.2-5.1 1.1-6.7.2z" transform="translate(1376 704)"/><path class="st6" d="M-1364.1-588.2c5.8.6 7.9-2 8.9-3.1-.7 4-7.2 5.1-8.9 3.1zm15.3-.7c1.6 2.7 2.3 4.2 6 5.5-6.1.3-6.7-4.3-6-5.5zm-5.5 6.6c.3.2 3.9-5.5 1.3-6.5-1.5.8-.2 3.7-1.3 6.5z" transform="translate(1376 704)"/><path class="st4" d="M-1350.2-605.7l-1.5-1.2s1.2 1.5 2 2.4c1.6.8 3.4.1 3.3-.6 0 .1-2.3.6-3.8-.6zm1.9 20.8c-1.8-1.9-2.3-4.8-2.3-4.8s-1.1 3.8-2 5.6c-.6 1.1-1.1 2-2.5 2.4v.1c2.6.2 3.5-2.6 4.8-3.1 1.2 2.1 8.3 2.4 8.3 1.4 0 0-4.4.3-6.3-1.6zm3.2-6.6c-1.8-.1-4.4-3.5-4.4-3.5s-1.3.6-2 .1c-.8-.5-1.4-1.1-1.4-1.1s.7 3.2 1.7 3.1c1-.1 1.6-.4 2-.9.5 2.5 3.7 3.8 3.7 3.8 1.9.1 4-1.1 4.4-2.2-.1-.2-2.1.8-4 .7zm-11.3-8c.1 0 0 0 0 0 .5 0 1.1 0 1.6-.1 1.4-.2 3.8-1.5 3.8-1.5l-1.8.2.7-1.6s-2.1 1.7-4 2c-1.9.2-3.3-.9-3.3-.9-.1 1.1 1.3 1.7 3 1.9zm-3 7.7c-.1 1.2-3.8.6-4.4.3 2.7 1.8 7.8-.3 7.8-.3h-2.5l2.8-1.4s-6.3.4-6.5-1.2c-.1 1.2 1.5 2.1 2.8 2.6z" transform="translate(1376 704)"/><path class="st4" d="M-1356.8-590.5s-2 .6-3.3.6c-1.3 0-3.6-1.2-3.7-1.6.1 1 1.1 2.3 2.7 2.4 3.2.3 4.3-1.4 4.3-1.4zm2.5 5.9c0-1.1-.3-7.6-.3-7.6s-.1 3.9-3.6 7.2c-1.2 1.1-4.2 1.5-4.2 1.5 1.8.8 6.1-.2 7.2-1.7 1 .4.7 1.9.4 2.9.2-.6.5-1.6.5-2.3z" transform="translate(1376 704)"/></g><g id="i1352_1_"><path class="st0" d="M-13612.2-6043.8c-10.8 5.8-45.4 20.5-29.4 30.4 15 9.2 47-8.2 57.5-13.8 15.6-8.3 31.3-19.6 21.8-25.5-9.7-6.2-29.6-2.2-49.9 8.9z" transform="matrix(.1 0 0 .1 1432 728)"/><path class="st8" d="M-13589.7-6076.5c2.1 3.6 3.3 7.7 3.5 13.6.3 7.2-2.1 12.3-2.3 12.6-.4.9 7.5.3 7.9-.6.1-.2.2-3.6.2-4s-.6-1.5-.5-2.1c.1-.7.9-.8.6-2.4s-1-2.3-.7-5.6 1.7-18.9 1.7-18.9l-10.4 7.4z" transform="matrix(.1 0 0 .1 1432 728)"/><path class="st1" d="M-13587.3-6053.5c-.5 1.9-1.1 3.1-1.2 3.3-.4.9 2.5 1.8 3.5 1.7 2.7-.3 4-1.4 4.4-2.3.1-.2.1-2 .2-3.2-1 1.1-5.2 2.5-6.9.5z" transform="matrix(.1 0 0 .1 1432 728)"/><path class="st8" d="M-13640.5-6062.9c1.8 4.1 5.2 12.7 5 22.2s-2.2 15.5-2.2 16 7.1.2 7.5-1.2c.4-1.4-.4-3.8-.5-5.1-.1-1.2 1.5-.9 1.2-3.2-.3-2.3-1.3-6.2-1.2-10.3.1-4.1 1.8-17.1 1.8-17.1l-11.6-1.3zm15.1 3.7s2.6 9.2 3.6 15.8.4 15.5.1 18.2c-.3 2.7-2.1 7.5-2.3 8.1s8.1-.6 8.4-1.4c.3-.8-.4-4.8-.5-5.6-.1-.8 1.5-.6 1.2-3.3-.3-2.7-1.6-5.4-1-9.6.6-4.2 1.7-12.8 4.6-19.3 2.9-6.5 4.7-13.2 4.7-13.2l-18.8 10.3zm41.3-20.9c2.7.7 10.6 7.9 12.3 13.9s1.6 13.5 1 17.1c-.6 3.6-2.4 6.2-2.4 6.9 0 .7 8.1-.8 8.5-1.8.4-1-.4-4.6-.4-5.3 0-.7 1.2-.3 1-2.5-.2-2.2-1.7-11.4-1.3-14.4.4-3 .9-7 .4-8.2-.5-1.2-2.3-4.9-2.4-7.3-.1-2.4-.7-9.8-.7-11.9s-16 13.5-16 13.5z" transform="matrix(.1 0 0 .1 1432 728)"/><path class="st1" d="M-13636.9-6027.7c-.4 1.8-.7 2.8-.7 3 0 .5 1.1 1.1 2.3 1.2s4.8-1.1 5.2-2.4c.2-.5.2-1.1.1-1.7-2.6.7-5 .7-6.9-.1zm16.2 7.6c-.7-.2-1.3-.6-1.9-1-.6 2-1.2 3.8-1.4 4.1-.2.6 2.1 1.4 3.3 1.3 3-.1 4.8-1.9 5.1-2.8.1-.2.1-.7.1-1.3-1.6.3-3.4.2-5.2-.3zm47.5-22.1c0 .7 2.1 1.2 3.1 1.1 2.9-.2 5-1.9 5.4-3 .1-.3.1-.9.1-1.6-1.6.9-5.7 1-6.8-1-.8 2.4-1.8 4-1.8 4.5z" transform="matrix(.1 0 0 .1 1432 728)"/><path class="st9" d="M-13559.5-6102.6c0-2-1.2-3.6-3-4.3.3-.6.5-1.3.5-2 0-1.6-.8-3.1-2.1-3.9.1-.4.2-.9.2-1.4 0-2.2-1.6-4.1-3.7-4.5.1-.4.1-.7.1-1.1 0-2.5-2.1-4.6-4.6-4.6-.4 0-.7 0-1 .1-.7-1.7-2.3-3-4.3-3-.6 0-1.2.1-1.7.3-.7-1.6-2.3-2.8-4.2-2.8-1.6 0-3.1.9-3.9 2.2-.7-.5-1.6-.7-2.5-.7-2 0-3.6 1.2-4.3 2.9-.6-.3-1.3-.5-2.1-.5-2.3 0-4.2 1.7-4.5 3.8-.8-.7-1.9-1.2-3-1.2-2 0-3.8 1.3-4.4 3.2-.8-.9-2.1-1.5-3.4-1.5-2.2 0-4 1.5-4.5 3.5-.7-.4-1.5-.6-2.3-.6-2.4 0-4.3 1.8-4.6 4.1-.7-.5-1.6-.8-2.6-.8-1.8 0-3.3 1-4.1 2.5-.8-.5-1.7-.9-2.7-.9-.4 0-.8.1-1.1.1-.8-1.2-2.2-2-3.8-2-.8 0-1.6.2-2.3.6-.8-1.1-2.2-1.8-3.7-1.8-2.5 0-4.6 2.1-4.6 4.6 0 .3 0 .6.1.9-1.4.8-2.3 2.3-2.3 4 0 1.5.7 2.9 1.9 3.7l-.4 1.2c-.4-.1-.9-.2-1.3-.2-2.5 0-4.6 2.1-4.6 4.6 0 .9.2 1.7.7 2.4-1.9.6-3.3 2.3-3.3 4.4 0 1.6.8 3.1 2.1 3.9-.9.8-1.4 2-1.4 3.3 0 1.9 1.2 3.6 2.9 4.3-.6.8-.9 1.7-.9 2.8 0 1.7 1 3.3 2.4 4-.2.5-.2 1-.2 1.5 0 1.6.8 3.1 2.1 3.9-.1.4-.2.8-.2 1.2 0 2.5 2.1 4.6 4.6 4.6h.4v.6c0 2.5 2.1 4.6 4.6 4.6 1.3 0 2.5-.5 3.3-1.4.8 1.4 2.3 2.4 4.1 2.4 1.7 0 3.1-.9 3.9-2.2.7.6 1.6 1 2.5 1.1.6 1.9 2.3 3.3 4.4 3.3.8 0 1.5-.2 2.1-.5.8.7 1.9 1.1 3 1.1 2 0 3.7-1.2 4.3-3 .3.1.7.1 1 .1 2.3 0 4.2-1.6 4.5-3.8 2.5-.1 4.5-2.1 4.5-4.6 0-.6-.1-1.1-.3-1.6 1.5-.7 2.5-2.2 2.5-4 .5.2 1.1.3 1.8.3 1.8 0 3.3-1 4.1-2.5.5.1.9.2 1.4.2 2.5 0 4.6-2.1 4.6-4.6v-.3c.6.3 1.3.4 2 .4.8 0 1.6-.2 2.3-.6.8 1.5 2.3 2.5 4.1 2.5 1.4 0 2.7-.7 3.6-1.7.8.8 2 1.3 3.2 1.3 2.4 0 4.4-1.8 4.6-4.2 2.4-.1 4.4-2.1 4.4-4.6 0-.4-.1-.8-.2-1.2 2-.5 3.5-2.3 3.5-4.5 0-1-.4-2-.9-2.8 1.4-.8 2.3-2.3 2.3-4 0-1.3-.5-2.4-1.3-3.3 1-.5 1.7-1.8 1.7-3.3z" transform="matrix(.1 0 0 .1 1432 728)"/><path class="st8" d="M-13668.4-6112c-1.4 2.6-10 19-7.5 23.1 2.8 4.6 7.7 5 13.2.2 2.1-1.8 3.9-2.6 5.3-2.7.2 0 .3 0 .5-.1 3.7-.7 6.7-3.3 8.1-6.8l4.6-12.1-11.2-8.6s-6.4 1.4-10.6-1-13 0-13 0 1.7 4.2 4.9 5.9c3.1 1.7 5.7 2.1 5.7 2.1z" transform="matrix(.1 0 0 .1 1432 728)"/><path class="st1" d="M-13659.7-6101.6s.3-2.7 2.4-3.4c2.2-.7 2.6.2 2.6.2s0 2.2-1.6 3c-1.5.7-3.4.2-3.4.2zm-13.3 11.2c1.4 0 3.2-.9 3.4-1 .2-.1.2-.3.1-.4-.1-.2-.3-.2-.4-.1-.7.4-2.9 1.2-3.8.8-1.1-.5-.9-1.6-.9-1.7 0-.2-.1-.3-.2-.4-.2 0-.3.1-.4.2-.1.6 0 1.8 1.2 2.3h.1c-.4 2.2.6 4 1.2 4.8.3.1.6.3.9.3 0-.1 0-.2-.1-.2 0 0-1.9-2.1-1.5-4.7.2.1.3.1.4.1z" transform="matrix(.1 0 0 .1 1432 728)"/><path class="st8" d="M-13649.9-6107.4c8-4 13.4 8.5 13.4 8.5s-5.4 3.7-9.9.7-5.5-8.2-3.5-9.2z" transform="matrix(.1 0 0 .1 1432 728)"/><path class="st9" d="M-13642.5-6115.8c0-2.5-2.1-4.6-4.6-4.6-.9 0-1.7.2-2.4.7-.7-1.6-2.3-2.7-4.2-2.7-1.2 0-2.3.5-3.2 1.3-.8-.7-1.9-1.2-3.1-1.2-2.5 0-4.6 2.1-4.6 4.6-1.2.8-2 2.2-2 3.8 0 2.5 1.9 4.5 4.4 4.6.8 1.2 2.2 2.1 3.8 2.1 1.4 0 2.6-.6 3.5-1.6.8 1 2.1 1.6 3.5 1.6.8 0 1.5-.2 2.1-.5.6.5 1.4.9 2.3.9 1.9 0 3.5-1.5 3.5-3.5 0-.7-.2-1.4-.6-1.9 1-.9 1.6-2.2 1.6-3.6z" transform="matrix(.1 0 0 .1 1432 728)"/><path d="M-13564.7-6083.2c0-.4-.1-.8-.2-1.2 2-.5 3.5-2.3 3.5-4.5 0-1-.4-2-.9-2.8-1.2 0-4-.1-4.3 2.1-.2 1 .3 2 .7 2.8-.8.3-1.4.8-1.8 1.5-.4-.2-.8-.2-1.3-.2-1.6 0-2.9 1-3.4 2.3-.7-.8-1.7-1.4-2.9-1.4-.6 0-1.2.2-1.7.4-.6-1.3-1.9-2.1-3.3-2.1-.9 0-1.6.3-2.3.8-.6-1.2-1.8-2-3.3-2-1.3 0-2.5.7-3.1 1.7-.6-.4-1.3-.7-2.1-.7-1.2 0-2.3.6-3 1.5-.4-.2-.9-.3-1.3-.3-2 0-3.6 1.6-3.7 3.5-.3-.1-.7-.2-1.1-.2-1.7 0-3.1 1.2-3.6 2.7-.3-.1-.6-.1-.9-.1-2 0-3.7 1.7-3.7 3.7 0 .4.1.7.2 1.1-2 0-3.7 1.7-3.7 3.7 0 .8.3 1.6.8 2.2-1.7.4-2.9 1.8-2.9 3.6 0 .6.1 1.1.3 1.6-1.1.6-1.9 1.8-1.9 3.2 0 .3-1.8-.4-3-.4s-2.5.7-3.4 1.4c.1-.3.1-.5.1-.8 0-2-1.7-3.7-3.7-3.7h-.5c-.2-1.6-1.4-2.9-2.9-3.2.3-.5.5-1.1.5-1.8 0-2-1.7-3.7-3.7-3.7-.2 0-.4 0-.6.1.1-.3.1-.6.1-1 0-2-1.7-3.7-3.7-3.7s-3.7 1.7-3.7 3.7c0 .6.1 1.1.3 1.6-.9.5-1.6 1.4-1.8 2.4-3-.8-7 4-3.9 7.5.1.1.2 0 .4 0v.6c0 2.5 2.1 4.6 4.6 4.6 1.3 0 2.5-.5 3.3-1.4.8 1.4 2.3 2.4 4.1 2.4 1.7 0 3.1-.9 3.9-2.2.7.6 1.6 1 2.5 1.1.6 1.9 2.3 3.3 4.4 3.3.8 0 1.5-.2 2.1-.5.8.7 1.9 1.1 3 1.1 2 0 3.7-1.2 4.3-3 .3.1.7.1 1 .1 2.3 0 4.2-1.6 4.5-3.8 2.5-.1 4.5-2.1 4.5-4.6 0-.6-.1-1.1-.3-1.6 1.5-.7 2.5-2.2 2.5-4 .5.2 1.1.3 1.8.3 1.8 0 3.3-1 4.1-2.5.5.1.9.2 1.4.2 2.5 0 4.6-2.1 4.6-4.6v-.3c.6.3 1.3.4 2 .4.8 0 1.6-.2 2.3-.6.8 1.5 2.3 2.5 4.1 2.5 1.4 0 2.7-.7 3.6-1.7.8.8 2 1.3 3.2 1.3 2.4 0 4.4-1.8 4.6-4.2 2.3.2 4.3-1.8 4.3-4.2z" opacity=".15" transform="matrix(.1 0 0 .1 1432 728)"/></g><g id="i1353_1_"><path class="st11" d="M-1305-552l64 32-64 32-64-32z" transform="translate(1416 616)"/><path class="st11" d="M-1305-552l64 32-64 32-64-32z" transform="translate(1416 616)"/><g transform="translate(1416 616)"><ellipse class="st4" cx="-1306.5" cy="-539" rx="7.5" ry="4"/><path class="st3" d="M-1308-566v27c0 .6.7 1 1.5 1s1.5-.4 1.5-1v-27h-3z"/><circle class="st5" cx="-1313.5" cy="-570.5" r="6.5"/><circle class="st5" cx="-1309" cy="-579" r="9"/><path class="st3" d="M-1306-550.6c2.6 0 3-.9 3-3.4v-8h1v10c0 1.7-1.3 3-3 3h-1v-1.6zm0-.6c-1.7 0-3-.4-3-2.1v-9.7h-1v10c0 1.7 1.3 3 3 3h1v-1.2zm-2-21c-1.7 0-3-.4-3-2.1v-2.7h-1v3c0 1.7 1.3 3 3 3h1v-1.2z"/><circle class="st5" cx="-1301.5" cy="-563.5" r="7.5"/><circle class="st5" cx="-1297" cy="-567" r="6"/><path class="st3" d="M-1302-564.2c1.7 0 3-.4 3-2.1v-2.7h1v3c0 1.7-1.3 3-3 3h-1v-1.2zm-7-15.4h1v9.6h-1z"/><circle class="st5" cx="-1300" cy="-577" r="8"/><circle class="st5" cx="-1305" cy="-586" r="8"/><path class="st6" d="M-1304.5-578c2.2 0 4.1 1.3 4.9 3.1.3-.1.7-.1 1.1-.1 1.8 0 3.4.9 4.4 2.2-.4-1.8-2-3.2-3.9-3.2h-.1c-.5-2.3-2.5-4-4.9-4-2 0-3.7 1.2-4.5 2.9.8-.6 1.9-.9 3-.9z"/><circle class="st5" cx="-1314" cy="-578.6" r="3.6"/><path class="st6" d="M-1314-578.5c0-2.5 1.7-4.6 4-5.3.2-2.9 2.5-5.2 5.5-5.2 1.7 0 3.3.8 4.3 2.1-.6-2.4-2.8-4.1-5.3-4.1-2.9 0-5.3 2.2-5.5 5.1-2.3.5-4 2.5-4 4.9 0 1.1.4 2.2 1 3v-.5z"/><circle class="st5" cx="-1308.7" cy="-563.2" r="9.3"/><circle class="st5" cx="-1296.7" cy="-569.2" r="3.3"/><path class="st4" d="M-1291-567c0-.4 0-.8-.1-1.2-.6 3.8-3.9 6.7-7.9 6.7h-.4c.7.3 1.6.5 2.4.5.7 0 1.3-.1 1.9-.3-1.4 1.4-3.3 2.3-5.4 2.3-1 0-2-.2-2.9-.6-1.6 1.6-3.9 2.6-6.3 2.6-3.5 0-6.6-2-8.1-4.8.7 4.4 4.5 7.8 9.1 7.8 2.2 0 4.3-.8 5.9-2.1.4.1.8.1 1.3.1 3.5 0 6.5-2.4 7.3-5.7 1.9-1 3.2-3 3.2-5.3z"/><path class="st6" d="M-1311.5-568c.8 0 1.5.1 2.2.4.9-1.4 2.5-2.4 4.3-2.4 1 0 1.9.3 2.7.8-.7-1.7-2.3-2.8-4.2-2.8-1.6 0-3 .8-3.8 2h-.7c-2.9 0-5.4 2.1-5.9 4.9 1.2-1.8 3.2-2.9 5.4-2.9z"/><path class="st4" d="M-1316-567.5c-1.9-.8-3.4-2.4-3.9-4.5-.1.5-.2 1-.2 1.5 0 2.4 1.3 4.4 3.2 5.6.2-.9.5-1.8.9-2.6z"/></g><g transform="translate(1416 616)"><ellipse class="st4" cx="-1333.5" cy="-529" rx="7.5" ry="4"/><path class="st3" d="M-1332-553v24c0 .6-.7 1-1.5 1s-1.5-.4-1.5-1v-24h3z"/><circle class="st5" cx="-1324.5" cy="-554.5" r="6.5"/><circle class="st5" cx="-1328" cy="-563" r="9"/><path class="st3" d="M-1334-540.6c-2.6 0-3-.9-3-3.4v-8h-1v10c0 1.7 1.3 3 3 3h1v-1.6zm1 1.4c1.7 0 3-.4 3-2.1v-9.7h1v10c0 1.7-1.3 3-3 3h-1v-1.2z"/><path class="st3" d="M-1337-542.2c-1.7 0-2-1.3-2-2.1v-9.7h-1v10c0 1.7 1.3 3 3 3v-1.2z"/><circle class="st5" cx="-1338" cy="-553" r="9"/><circle class="st5" cx="-1343" cy="-557" r="6"/><path class="st3" d="M-1338-553.2c-1.7 0-3-.4-3-2.1v-2.7h-1v3c0 1.7 1.3 3 3 3h1v-1.2z"/><circle class="st5" cx="-1339" cy="-565" r="8"/><circle class="st5" cx="-1335" cy="-569" r="8"/><circle class="st5" cx="-1328.5" cy="-571.5" r="4.5"/><path class="st6" d="M-1342.9-563c2.2 0 4.1 1.3 4.9 3.1.3-.1.7-.1 1.1-.1 1.8 0 3.4.9 4.4 2.2-.4-1.8-2-3.2-3.9-3.2h-.1c-.5-2.3-2.5-4-4.9-4-2 0-3.7 1.2-4.5 2.9.8-.6 1.9-.9 3-.9z"/><path class="st3" d="M-1335-565.6c.2.2.5.4.7.6h.3v-3c-.3 0-.7-.1-1-.2v2.6z"/><path class="st6" d="M-1334.5-573c2.4 0 4.3 1.9 4.5 4.2.5-.1 1-.2 1.5-.2 2.5 0 4.6 1.6 5.3 3.9.1-.4.2-.9.2-1.4 0-2.5-2-4.5-4.5-4.5-.5 0-1 .1-1.5.3-.1-1.8-1.6-3.3-3.5-3.3-1 0-1.9.4-2.5 1h.5z"/><path class="st4" d="M-1319.1-561.6c-1.7 1.9-4.1 3.1-6.8 3.1h-.6c1 1.1 1.6 2.4 1.7 3.9 2.9-1.1 5.2-3.8 5.7-7zm-2.4 10.3c.3.7.4 1.5.5 2.3 1.7-1.1 2.9-2.9 3-5-.8 1.3-2.1 2.2-3.5 2.7zm-21.8-11.7c-1.6-1.4-2.7-3.5-2.7-5.9-.6 1.1-1 2.5-1 3.9 0 1.1.2 2.1.6 3.1.9-.7 2-1 3.1-1.1z"/><path class="st3" d="M-1328-561.4c0 1.7-1.3 2.1-3 2.1v1.3h1c1.7 0 3-1.3 3-3v-2c-.3 0-.7-.1-1-.2v1.8z"/><circle class="st5" cx="-1330.2" cy="-550.2" r="9.3"/><path class="st6" d="M-1334-553c1.2 0 2.3.3 3.3.8 1.2-1.1 2.9-1.8 4.7-1.8 1.6 0 3.1.5 4.2 1.4-1.1-2-3.3-3.4-5.7-3.4-1.6 0-3.1.6-4.2 1.6-.7-.4-1.5-.6-2.3-.6-2.4 0-4.4 1.7-4.9 4 1.3-1.2 3-2 4.9-2z"/><path class="st4" d="M-1329.2-543c-3.8 0-7-2-8.8-5h-.9c-3.5 0-6.5-2-8-4.9.1 4.9 4.1 8.9 9 8.9h.9c1.7 1.9 4.1 3 6.8 3 3.6 0 6.6-2 8.2-4.9-1.9 1.8-4.5 2.9-7.2 2.9z"/></g><path class="st4" d="M-1357.7-521l-5.3 1.9 3.8.2-2.4 1.5h5.5l3.1-.9-.5 2.7 3.3-.6 2.4-2 4.6 1.5 4.8-.7-1.5-.9 1.7-.5-6.9-1.8z" transform="translate(1416 616)"/><path class="st7" d="M-1355.6-541c3.9-.5 5.8-8 5.8-8s.8 7.4 5.8 9.4c.1.7-1.7 1.3-3.3.6-.1 1.5 3.2 3.9 5.2 4.4.1.8-1.8 2-3.6 1.4.8 1.8 2.2 3.3 5.2 4.1-1.4.8-3.6.1-5 0 0 1.2 4.4 2.3 6.6 2.2-.4 1.1-2.5 2.3-4.4 2.2 0 1.3 4.3 2.4 5.5 2.8.1 1.1-3 1.8-5.2 1.1-.1 1.3 2.2 2.5 3.3 3 0 1-7.1.7-8.3-1.4-1.3.5-2.2 3.3-4.8 3.1.3-.7 1.1-3.1-.2-3.6-1 1.4-5.4 2.5-7.2 1.7.5-.5 3-.8 2.2-2.5-2.3-.1-5.3-2.1-5.2-3 .6.4 4.3 1 4.4 0-1.7-.1-2.7-1.4-2.8-2.5.6.3 4.3.9 4.4-.3-1.3-.5-2.9-1.4-2.8-2.5 1.1.1 3.4.1 3.6-1.1-1.4-.5-2.7-2.5-2.8-3.3 1 .3 5 .1 5-.8-1.7-.1-3.2-.8-3-1.9 2.2-.2 4.7-2.5 4.7-3.6-.7.1-2.5-.2-3.1-1.5z" transform="translate(1416 616)"/><path class="st6" d="M-1340.4-529.2s-2.8.1-5.2-2.2c-2.4-2.3-3-3.9-3-3.9s-.6.8-2.5 1.9c-1.9 1.2-6.1 1.1-6.1 1.1s2.6 2 6.3.8c1.8-.6 1.7-1 1.7-1s2.6 2.2 3.6 2.6c3.7 1.5 5.2.7 5.2.7z" transform="translate(1416 616)"/><path class="st6" d="M-1355.8-535.8c3.3-1.8 5.4-3.2 6.1-6.1-.2 1.3 2.6 5 5.2 6.9-1.9-.2-4.4-3.4-5.5-3.3-.3 1-3.6 2.3-5.8 2.5z" transform="translate(1416 616)"/><path class="st6" d="M-1354.3-540.7c3.3-1.8 3.9-4.1 4.5-6.9-.2 1.3 1.5 5.5 4.1 7.4-1.9-.2-3.6-3-4.4-3.6-.2 1-2 2.9-4.2 3.1zm-4.9 12.3s4.1-.1 7.2-1.6c1-.1 2.3 2.9 3 3 .8-.2 1.2-.4 2-.9.7 2.8 5.7 5.3 8.5 6.1-5.2 0-8.8-3.4-9.4-4.4-.6.5-.8 1.9-1.9 1.9-1-1.4-2.4-3.4-2.8-4.4-1-.1-5 1.2-6.6.3z" transform="translate(1416 616)"/><path class="st6" d="M-1361.7-522.8c5.8.6 7.9-2 8.9-3.1-.6 4-7.2 5.1-8.9 3.1zm15.3-.7c1.6 2.7 2.3 4.2 6 5.5-6.1.3-6.7-4.3-6-5.5zm-5.5 6.6c.3.2 3.9-5.5 1.3-6.5-1.4.8-.2 3.7-1.3 6.5z" transform="translate(1416 616)"/><path class="st4" d="M-1347.8-540.3l-1.5-1.2s1.2 1.5 2 2.4c1.6.8 3.4.1 3.3-.6 0 .1-2.3.6-3.8-.6zm2 20.8c-1.8-1.9-2.3-4.8-2.3-4.8s-1.1 3.8-2 5.6c-.6 1.1-1.1 2-2.5 2.4v.1c2.6.2 3.5-2.6 4.8-3.1 1.2 2.1 8.3 2.4 8.3 1.4-.1 0-4.5.3-6.3-1.6zm3.2-6.6c-1.8-.1-4.4-3.5-4.4-3.5s-1.3.6-2 .1-1.4-1.1-1.4-1.1.7 3.2 1.7 3.1 1.6-.4 2-.9c.5 2.5 3.7 3.8 3.7 3.8 1.9.1 4-1.1 4.4-2.2-.2-.2-2.2.8-4 .7zm-11.3-8c.5 0 1.1 0 1.6-.1 1.4-.2 3.8-1.5 3.8-1.5l-1.8.2.7-1.6s-2.1 1.7-4 2c-1.9.2-3.3-.9-3.3-.9-.2 1 1.3 1.7 3 1.9zm-3 7.7c-.1 1.2-3.8.6-4.4.3 2.7 1.8 7.8-.3 7.8-.3h-2.5l2.8-1.4s-6.3.4-6.5-1.2c-.1 1.2 1.5 2.1 2.8 2.6z" transform="translate(1416 616)"/><path class="st4" d="M-1354.3-525.1s-2 .6-3.3.6c-1.3 0-3.6-1.2-3.7-1.6.1 1 1.1 2.3 2.7 2.4 3.2.3 4.3-1.4 4.3-1.4zm2.5 5.9c0-1.1-.3-7.6-.3-7.6s-.1 3.9-3.6 7.2c-1.2 1.1-4.3 1.4-4.3 1.4 1.8.8 6.1-.2 7.2-1.7 1 .4.7 1.9.4 2.9.3-.5.6-1.5.6-2.2zm49-7.7l-9.4 3.3 6.7.4-4.1 2.8 9.6-.2 5.6-1.4-.9 4.7 5.9-1 4.2-3.6 8.2 2.6 8.5-1.1-2.7-1.7 3-.8-12.3-3.4z" transform="translate(1416 616)"/><path class="st7" d="M-1267.2-528.7c-2.1-.6-9.8-2.6-9.8-4.9 3.3.2 7.1-1.9 7.8-3.9-2.5.2-6.4-.6-9.1-1.7-.4-.5-.7-1-.8-1.5 2.3.6 5 .4 6.9-.7-1.1-.3-2.1-.6-2.9-1 1.2-1 2-2.3 2.5-3.1-2.4.7-6.9-.1-6.9-2.2 2.6.2 5.5-1.8 6.1-3.7-.9.1-2.1-.1-3.3-.3-1.7-.8-3.7-2-5.2-3.3 1.8.3 4.5 1.1 6.2-.1-2.4-.8-4-1.9-5.2-3.3 1.4-.2 2.5-.9 2.4-1.6-1.1-.4-2.1-1.1-3-1.8 2 0 3.6-1.5 3.5-2.6-2.8-.9-7.5-4.8-7.3-7.4 2.2 1.3 4.7.2 4.6-.9-6.9-3.3-8-15.7-8-15.7s-2.6 13.7-8.1 14.4c.8 2.2 3.4 2.3 4.6 1.2 0 1.7-3.4 5.7-6.5 6-.1 1.4 1 2.4 2.7 2.9-.9.7-2 1.1-3.1 1.3l.3.6c-1.1.1-2.1 0-2.6-.2.1 1.3 1.9 4.7 3.8 5.5-.2 2-3.4 2.1-5 1.8-.1 1.3.8 2.3 2.1 3.2.6.4 1.2.7 1.7 1-.2 2-5.3 1-6.1.5 0 .6.2 1.2.5 1.8.4 1 .9 2.2 1.7 3.2-1.6.1-4-.4-4.5-.9-.1 1.3 2.7 3.7 5.4 4.7-1.4.5-3.5.5-4.7.3-.2 2 2.6 3.5 4.9 4.4-.2 2.1-6.8 1.1-7.8.5.1 1.8 2 4.2 4.9 4.4-.2 1.7-6.9.7-7.8 0-.1 1.7 5.3 5.3 9.3 5.4 1.3 2.9-3.1 3.5-3.9 4.4 3.2 1.5 10.9-.4 12.7-2.9 2.2 1 .9 5.2.3 6.4 4.6.3 6.2-4.6 8.5-5.5 2.1 3.7 14.7 4.3 14.7 2.4-2-1-6-3.1-5.9-5.4 4 1.5 9.7.3 9.4-1.7z" transform="translate(1416 616)"/><path class="st6" d="M-1272.1-541.4s-5 .2-9.3-3.9c-4.3-4.2-5.4-6.9-5.4-6.9s-1 1.3-4.4 3.4c-3.4 2.1-10.8 2-10.8 2s4.7 3.5 11.3 1.5c3.2-1 2.9-1.7 2.9-1.7s4.6 3.9 6.4 4.6c6.6 2.4 9.3 1 9.3 1zm-28.4-20.2c5.5-.1 8.8-2 11-3.9.4 1.4 2.5 6.6 10.6 9.6-3.4-.4-11.4-3.8-11.2-5.9-.4 1.7-6.8 4.2-10.4.2zm6.6-13.1c5.1-3.2 4.3-4.9 5.2-8.9-.4 2.3 1.7 7.5 6.3 11-4.4-.9-5.7-3.7-6.6-5.8-.3 1.6-2 2.8-4.9 3.7z" transform="translate(1416 616)"/><path class="st6" d="M-1296.2-566.1c5.9-3.2 7.6-3.4 8.8-8.4-.4 2.3 2 5.9 6.6 9.3-3.4-.4-4.9-3.6-6.3-4.7-.3 1.7-5 3.4-9.1 3.8zm-9.3 26s7.3-.1 12.9-2.8c1.7-.1 4.2 5.1 5.4 5.4 1.3-.4 2.1-.7 3.5-1.6 1.2 5 10.1 9.4 15.1 10.9-9.2 0-15.7-6-16.6-7.8-1.1.9-1.3 3.4-3.4 3.4-1.7-2.4-4.3-6-4.9-7.8-1.9-.4-9.2 2-12 .3z" transform="translate(1416 616)"/><path class="st6" d="M-1309.9-530.1c10.3 1.1 14-3.6 15.8-5.5-1.1 7.2-12.7 9.1-15.8 5.5zm27.2-1.3c2.9 4.8 4 7.5 10.7 9.7-10.8.7-11.9-7.4-10.7-9.7zm-9.7 11.7c.6.3 6.9-9.7 2.3-11.5-2.6 1.4-.4 6.6-2.3 11.5z" transform="translate(1416 616)"/><path class="st4" d="M-1285.1-561.1l-2.6-2.1s2.1 2.6 3.5 4.3c2.8 1.4 6 .2 5.9-1-.1-.1-4.2.9-6.8-1.2zm3.4 36.9c-3.3-3.4-4-8.5-4-8.5s-2 6.8-3.5 9.9c-1 2-1.9 3.6-4.5 4.3 0 .1 0 .1-.1.2 4.6.3 6.2-4.6 8.5-5.5 2.1 3.7 14.7 4.3 14.7 2.4 0 .1-7.8.6-11.1-2.8zm5.7-11.8c-3.3-.2-7.8-6.3-7.8-6.3s-2.3 1.1-3.6.2c-1.3-.9-2.5-2-2.5-2s1.2 5.7 2.9 5.4c1.8-.3 2.8-.8 3.5-1.6.8 4.4 6.5 6.8 6.5 6.7 3.3.2 7.1-1.9 7.8-3.9.1 0-3.5 1.7-6.8 1.5zm-20.3-14.2v-.6c1 0 1.9.5 2.8.4 2.5-.3 6.7-3.3 6.7-3.3l-3.2.4 1.3-2.8s-3.8 3.1-7.1 3.5c-3.4.4-6.4-1.8-6.4-1.8-.3 1.9 2.8 3.9 5.9 4.2zm-5.1 13.7c-.2 2.1-6.8 1.1-7.8.5 4.8 3.1 13.9-.5 13.9-.5l-4.4.1 5-2.4s-11.1.7-11.6-2.1c-.3 1.9 2.5 3.5 4.9 4.4z" transform="translate(1416 616)"/><path class="st4" d="M-1296.8-534.2s-3.5 1-5.9 1c-2.2 0-6.4-2.2-6.6-2.8.2 1.8 2 4.1 4.9 4.3 5.7.6 7.6-2.5 7.6-2.5zm4.5 10.4c0-2-.5-13.5-.5-13.5s-.3 6.9-6.5 12.8c-2.1 2-7.5 2.6-7.5 2.6 3.2 1.5 10.9-.4 12.7-2.9 1.7.8 1.3 3.4.8 5.2.4-1.2 1-2.9 1-4.2zm19-27.7s-3.3 1.8-6.6 1-5.7-3-5.7-3 1.3 3.7 2.8 6c1.6 2.4 7.5 4.5 10.3 2-2.4.7-6.9-.1-6.9-2.2 2.6.1 5.5-1.9 6.1-3.8zm-8.3-12.7c-2.8-.4-5.6-3.9-5.6-3.9s-2.8 1.5-.1 3.3c2.7 1.7.3 2.2 5.8 3.1 2 0 3.6-1.5 3.5-2.6.1-.1-.9.4-3.6.1zm-17-2.5s2 .5 6.6-2.4 3-8 3-8-1.7 2.3-3.5 2.6c-1.5.2-3.1.7-4 .6h-.3c.8 2.2 3.4 2.3 4.6 1.2.1 1.8-3.3 5.7-6.4 6z" transform="translate(1416 616)"/><g transform="translate(1416 616)"><ellipse class="st4" cx="-1317.5" cy="-506" rx="7.5" ry="4"/><path class="st3" d="M-1319-533v27c0 .6.7 1 1.5 1s1.5-.4 1.5-1v-27h-3z"/><circle class="st5" cx="-1324.5" cy="-537.5" r="6.5"/><circle class="st5" cx="-1320" cy="-546" r="9"/><path class="st3" d="M-1317-517.6c2.6 0 3-.9 3-3.4v-8h1v10c0 1.7-1.3 3-3 3h-1v-1.6zm0-.6c-1.7 0-3-.4-3-2.1v-9.7h-1v10c0 1.7 1.3 3 3 3h1v-1.2zm-2-21c-1.7 0-3-.4-3-2.1v-2.7h-1v3c0 1.7 1.3 3 3 3h1v-1.2z"/><circle class="st5" cx="-1312.5" cy="-530.5" r="7.5"/><circle class="st5" cx="-1308" cy="-534" r="6"/><path class="st3" d="M-1313-531.2c1.7 0 3-.4 3-2.1v-2.7h1v3c0 1.7-1.3 3-3 3h-1v-1.2zm-7-15.4h1v9.6h-1z"/><circle class="st5" cx="-1311" cy="-544" r="8"/><circle class="st5" cx="-1316" cy="-553" r="8"/><path class="st6" d="M-1315.5-545c2.2 0 4.1 1.3 4.9 3.1.3-.1.7-.1 1.1-.1 1.8 0 3.4.9 4.4 2.2-.4-1.8-2-3.2-3.9-3.2h-.1c-.5-2.3-2.5-4-4.9-4-2 0-3.7 1.2-4.5 2.9.8-.6 1.9-.9 3-.9z"/><circle class="st5" cx="-1325" cy="-545.6" r="3.6"/><path class="st6" d="M-1325-545.5c0-2.5 1.7-4.6 4-5.3.2-2.9 2.5-5.2 5.5-5.2 1.7 0 3.3.8 4.3 2.1-.6-2.4-2.8-4.1-5.3-4.1-2.9 0-5.3 2.2-5.5 5.1-2.3.5-4 2.5-4 4.9 0 1.1.4 2.2 1 3v-.5z"/><circle class="st5" cx="-1319.7" cy="-530.2" r="9.3"/><circle class="st5" cx="-1307.7" cy="-536.2" r="3.3"/><path class="st4" d="M-1302-534c0-.4 0-.8-.1-1.2-.6 3.8-3.9 6.7-7.9 6.7h-.4c.7.3 1.6.5 2.4.5.7 0 1.3-.1 1.9-.3-1.4 1.4-3.3 2.3-5.4 2.3-1 0-2-.2-2.9-.6-1.6 1.6-3.9 2.6-6.3 2.6-3.5 0-6.6-2-8.1-4.8.7 4.4 4.5 7.8 9.1 7.8 2.2 0 4.3-.8 5.9-2.1.4.1.8.1 1.3.1 3.5 0 6.5-2.4 7.3-5.7 1.9-1 3.2-3 3.2-5.3z"/><path class="st6" d="M-1322.5-535c.8 0 1.5.1 2.2.4.9-1.4 2.5-2.4 4.3-2.4 1 0 1.9.3 2.7.8-.7-1.7-2.3-2.8-4.2-2.8-1.6 0-3 .8-3.8 2h-.7c-2.9 0-5.4 2.1-5.9 4.9 1.2-1.8 3.2-2.9 5.4-2.9z"/><path class="st4" d="M-1327-534.5c-1.9-.8-3.4-2.4-3.9-4.5-.1.5-.2 1-.2 1.5 0 2.4 1.3 4.4 3.2 5.6.2-.9.5-1.8.9-2.6z"/></g><g transform="translate(1416 616)"><ellipse class="st4" cx="-1267.5" cy="-517" rx="7.5" ry="4"/><path class="st3" d="M-1266-541v24c0 .6-.7 1-1.5 1s-1.5-.4-1.5-1v-24h3z"/><circle class="st5" cx="-1258.5" cy="-542.5" r="6.5"/><circle class="st5" cx="-1262" cy="-551" r="9"/><path class="st3" d="M-1268-528.6c-2.6 0-3-.9-3-3.4v-8h-1v10c0 1.7 1.3 3 3 3h1v-1.6zm1 1.4c1.7 0 3-.4 3-2.1v-9.7h1v10c0 1.7-1.3 3-3 3h-1v-1.2z"/><path class="st3" d="M-1271-530.2c-1.7 0-2-1.3-2-2.1v-9.7h-1v10c0 1.7 1.3 3 3 3v-1.2z"/><circle class="st5" cx="-1272" cy="-541" r="9"/><circle class="st5" cx="-1277" cy="-545" r="6"/><path class="st3" d="M-1272-541.2c-1.7 0-3-.4-3-2.1v-2.7h-1v3c0 1.7 1.3 3 3 3h1v-1.2z"/><circle class="st5" cx="-1273" cy="-553" r="8"/><circle class="st5" cx="-1269" cy="-557" r="8"/><circle class="st5" cx="-1262.5" cy="-559.5" r="4.5"/><path class="st6" d="M-1276.9-551c2.2 0 4.1 1.3 4.9 3.1.3-.1.7-.1 1.1-.1 1.8 0 3.4.9 4.4 2.2-.4-1.8-2-3.2-3.9-3.2h-.1c-.5-2.3-2.5-4-4.9-4-2 0-3.7 1.2-4.5 2.9.8-.6 1.9-.9 3-.9z"/><path class="st3" d="M-1269-553.6c.2.2.5.4.7.6h.3v-3c-.3 0-.7-.1-1-.2v2.6z"/><path class="st6" d="M-1268.5-561c2.4 0 4.3 1.9 4.5 4.2.5-.1 1-.2 1.5-.2 2.5 0 4.6 1.6 5.3 3.9.1-.4.2-.9.2-1.4 0-2.5-2-4.5-4.5-4.5-.5 0-1 .1-1.5.3-.1-1.8-1.6-3.3-3.5-3.3-1 0-1.9.4-2.5 1h.5z"/><path class="st4" d="M-1253.1-549.6c-1.7 1.9-4.1 3.1-6.8 3.1h-.6c1 1.1 1.6 2.4 1.7 3.9 2.9-1.1 5.2-3.8 5.7-7zm-2.4 10.3c.3.7.4 1.5.5 2.3 1.7-1.1 2.9-2.9 3-5-.8 1.3-2.1 2.2-3.5 2.7zm-21.8-11.7c-1.6-1.4-2.7-3.5-2.7-5.9-.6 1.1-1 2.5-1 3.9 0 1.1.2 2.1.6 3.1.9-.7 2-1 3.1-1.1z"/><path class="st3" d="M-1262-549.4c0 1.7-1.3 2.1-3 2.1v1.3h1c1.7 0 3-1.3 3-3v-2c-.3 0-.7-.1-1-.2v1.8z"/><circle class="st5" cx="-1264.2" cy="-538.2" r="9.3"/><path class="st6" d="M-1268-541c1.2 0 2.3.3 3.3.8 1.2-1.1 2.9-1.8 4.7-1.8 1.6 0 3.1.5 4.2 1.4-1.1-2-3.3-3.4-5.7-3.4-1.6 0-3.1.6-4.2 1.6-.7-.4-1.4-.6-2.3-.6-2.4 0-4.4 1.7-4.9 4 1.3-1.2 3-2 4.9-2z"/><path class="st4" d="M-1263.2-531c-3.8 0-7-2-8.8-5h-.9c-3.5 0-6.5-2-8-4.9.1 4.9 4.1 8.9 9 8.9h.9c1.7 1.9 4.1 3 6.8 3 3.6 0 6.6-2 8.2-4.9-1.9 1.8-4.5 2.9-7.2 2.9z"/></g><path class="st4" d="M-1297.6-506.8l-5.7 2 4.1.2-2.5 1.7 5.8-.1 3.4-.8-.6 2.8 3.6-.6 2.6-2.2 4.9 1.6 5.2-.7-1.6-1 1.8-.5-7.5-2z" transform="translate(1416 616)"/><path class="st7" d="M-1295.3-528.3c4.2-.5 6.2-8.6 6.2-8.6s.9 8 6.2 10.1c.1.7-1.9 1.4-3.6.6-.1 1.6 3.5 4.1 5.6 4.7.1.9-1.9 2.1-3.9 1.5.9 1.9 2.3 3.6 5.6 4.4-1.5.9-3.9.1-5.3 0 0 1.3 4.7 2.5 7.1 2.4-.4 1.2-2.7 2.5-4.7 2.4 0 1.4 4.7 2.6 5.9 3 .1 1.2-3.3 1.9-5.6 1.2-.1 1.4 2.4 2.7 3.6 3.3 0 1.1-7.6.7-8.9-1.5-1.4.5-2.4 3.5-5.1 3.3.4-.8 1.1-3.3-.2-3.9-1.1 1.6-5.8 2.7-7.7 1.8.5-.5 3.2-.9 2.4-2.7-2.4-.1-5.7-2.2-5.6-3.3.6.4 4.6 1 4.7 0-1.8-.1-2.9-1.6-3-2.7.6.3 4.6 1 4.7-.3-1.4-.5-3.1-1.5-3-2.7 1.2.1 3.7.1 3.9-1.2-1.5-.5-2.9-2.7-3-3.6 1.1.3 5.4.1 5.3-.9-1.9-.1-3.4-.9-3.3-2.1 2.4-.2 5-2.7 5-3.9-.7.4-2.6.1-3.3-1.3z" transform="translate(1416 616)"/><path class="st6" d="M-1279-515.6s-3 .1-5.6-2.4-3.3-4.1-3.3-4.1-.6.8-2.7 2.1-6.5 1.2-6.5 1.2 2.8 2.1 6.8.9c2-.6 1.8-1 1.8-1s2.8 2.4 3.8 2.8c4.1 1.4 5.7.5 5.7.5zm-16.6-7.1c3.6-1.9 5.8-3.5 6.5-6.5-.2 1.4 2.8 5.3 5.6 7.4-2.1-.2-4.7-3.7-5.9-3.6-.2 1.1-3.7 2.5-6.2 2.7z" transform="translate(1416 616)"/><path class="st6" d="M-1293.9-528c3.6-1.9 4.2-4.4 4.9-7.5-.2 1.4 1.6 5.9 4.4 8-2.1-.2-3.9-3.2-4.7-3.9-.3 1.1-2.2 3.2-4.6 3.4zm-5.3 13.2s4.4-.1 7.8-1.7c1-.1 2.5 3.1 3.3 3.3.8-.2 1.3-.4 2.1-1 .7 3.1 6.1 5.7 9.1 6.6-5.5 0-9.5-3.6-10.1-4.7-.7.5-.8 2.1-2.1 2.1-1-1.5-2.6-3.6-3-4.7-1-.3-5.4 1.1-7.1.1z" transform="translate(1416 616)"/><path class="st6" d="M-1301.9-508.7c6.2.7 8.5-2.2 9.5-3.3-.6 4.3-7.6 5.5-9.5 3.3zm16.5-.8c1.8 2.9 2.4 4.6 6.5 5.9-6.6.4-7.3-4.6-6.5-5.9zm-5.9 7.1c.4.2 4.2-5.9 1.4-7-1.6.8-.2 4-1.4 7z" transform="translate(1416 616)"/><path class="st4" d="M-1286.9-527.5l-1.6-1.3s1.3 1.6 2.1 2.6c1.7.8 3.7.1 3.6-.6 0-.1-2.5.6-4.1-.7zm2.1 22.3c-2-2-2.4-5.1-2.4-5.1s-1.2 4.1-2.1 6c-.6 1.2-1.2 2.2-2.7 2.6v.1c2.8.2 3.7-2.8 5.1-3.3 1.3 2.2 8.9 2.6 8.9 1.5-.1 0-4.8.3-6.8-1.8zm3.4-7.1c-2-.1-4.7-3.8-4.7-3.8s-1.4.7-2.2.1c-.8-.6-1.5-1.2-1.5-1.2s.7 3.5 1.8 3.3c1.1-.2 1.7-.5 2.1-1 .5 2.6 3.9 4.1 3.9 4.1 2 .1 4.3-1.1 4.7-2.4.1 0-2.1 1-4.1.9zm-12.1-8.6c.6 0 1.2 0 1.7-.1 1.5-.2 4.1-1.6 4.1-1.6l-2 .2.8-1.7s-2.3 1.9-4.3 2.1c-2 .3-3.5-1-3.5-1-.2 1.2 1.4 1.9 3.2 2.1zm-3.3 8.3c-.1 1.3-4.1.6-4.7.3 2.9 1.9 8.4-.3 8.4-.3l-2.6.1 3-1.5s-6.7.4-7-1.3c-.2 1.2 1.5 2.2 2.9 2.7z" transform="translate(1416 616)"/><path class="st4" d="M-1293.9-511.2s-2.1.6-3.6.6c-1.4 0-3.8-1.3-4-1.7.1 1.1 1.2 2.5 3 2.6 3.4.3 4.6-1.5 4.6-1.5zm2.6 6.3c0-1.2-.3-8.2-.3-8.2s-.2 4.2-3.9 7.8c-1.3 1.2-4.6 1.6-4.6 1.6 1.9.9 6.6-.2 7.7-1.8 1 .5.8 2.1.5 3.2.3-.8.6-1.9.6-2.6zm-17.2 7.3l-3.5 1.3 2.5.1-1.5 1h3.5l2.1-.5-.3 1.7 2.1-.4 1.6-1.3 3 1 3.2-.5-1-.6 1.1-.3-4.5-1.2z" transform="translate(1416 616)"/><path class="st7" d="M-1307.1-510.7c2.6-.3 3.8-5.3 3.8-5.3s.5 4.9 3.8 6.2c.1.5-1.1.9-2.2.4-.1 1 2.1 2.5 3.4 2.9 0 .5-1.2 1.3-2.4.9.5 1.2 1.4 2.2 3.4 2.7-.9.5-2.4 0-3.3 0 0 .8 2.9 1.5 4.4 1.5-.3.8-1.7 1.5-2.9 1.5 0 .9 2.9 1.6 3.6 1.8.1.7-2 1.2-3.4.7 0 .9 1.5 1.6 2.2 2 0 .7-4.7.5-5.4-.9-.9.3-1.4 2.2-3.1 2 .2-.5.7-2-.1-2.4-.7 1-3.5 1.6-4.7 1.1.3-.3 2-.5 1.5-1.6-1.5 0-3.5-1.4-3.4-2 .4.3 2.8.6 2.9 0-1.1-.1-1.8-1-1.8-1.6.4.2 2.8.6 2.9-.2-.9-.3-1.9-.9-1.8-1.6.7.1 2.3 0 2.4-.7-.9-.3-1.8-1.7-1.8-2.2.7.2 3.3 0 3.3-.5-1.1-.1-2.1-.5-2-1.3 1.5-.1 3.1-1.7 3.1-2.4-.8 0-2-.2-2.4-1z" transform="translate(1416 616)"/><path class="st6" d="M-1297.1-502.9s-1.9.1-3.4-1.5c-1.6-1.5-2-2.5-2-2.5s-.4.5-1.6 1.3c-1.3.8-4 .7-4 .7s1.7 1.3 4.2.5c1.2-.4 1.1-.6 1.1-.6s1.7 1.5 2.4 1.7c2.3.9 3.3.4 3.3.4zm-10.2-4.4c2.2-1.2 3.5-2.1 4-4-.1.9 1.7 3.3 3.4 4.5-1.3-.1-2.9-2.3-3.6-2.2-.1.7-2.3 1.6-3.8 1.7z" transform="translate(1416 616)"/><path class="st6" d="M-1306.3-510.5c2.2-1.2 2.5-2.7 3-4.6-.1.9 1 3.6 2.7 4.9-1.3-.1-2.4-1.9-2.9-2.4-.1.7-1.3 1.9-2.8 2.1zm-3.2 8.1s2.7 0 4.8-1c.6 0 1.5 1.9 2 2 .5-.1.8-.3 1.3-.6.4 1.9 3.7 3.5 5.6 4-3.4 0-5.8-2.2-6.2-2.9-.4.3-.5 1.3-1.3 1.3-.6-.9-1.6-2.2-1.8-2.9-.7-.2-3.4.7-4.4.1z" transform="translate(1416 616)"/><path class="st6" d="M-1311.1-498.7c3.8.4 5.2-1.3 5.8-2-.4 2.6-4.7 3.3-5.8 2zm10-.5c1.1 1.8 1.5 2.8 4 3.6-4 .2-4.4-2.8-4-3.6zm-3.6 4.3c.2.1 2.6-3.6.8-4.3-.9.6 0 2.5-.8 4.3z" transform="translate(1416 616)"/><path class="st4" d="M-1302-510.2l-1-.8s.8 1 1.3 1.6c1 .5 2.2.1 2.2-.4 0 0-1.5.3-2.5-.4zm1.3 13.7c-1.2-1.2-1.5-3.1-1.5-3.1s-.7 2.5-1.3 3.7c-.4.7-.7 1.3-1.7 1.6v.1c1.7.1 2.3-1.7 3.1-2 .8 1.4 5.4 1.6 5.4.9.1-.2-2.8 0-4-1.2zm2.1-4.4c-1.2-.1-2.9-2.3-2.9-2.3s-.8.4-1.3.1c-.5-.3-.9-.7-.9-.7s.4 2.1 1.1 2c.7-.1 1-.3 1.3-.6.3 1.6 2.4 2.5 2.4 2.5 1.2.1 2.6-.7 2.9-1.5 0-.1-1.4.5-2.6.5zm-7.4-5.3c.4 0 .7 0 1.1-.1.9-.1 2.5-1 2.5-1l-1.2.1.5-1.1s-1.4 1.1-2.6 1.3c-1.2.2-2.2-.6-2.2-.6-.2.9.8 1.3 1.9 1.4zm-2 5.1c-.1.8-2.5.4-2.9.2 1.8 1.2 5.2-.2 5.2-.2h-1.6l1.9-.9s-4.1.2-4.3-.8c-.2.8.8 1.4 1.7 1.7z" transform="translate(1416 616)"/><path class="st4" d="M-1306.3-500.2s-1.3.4-2.2.4c-.8 0-2.4-.8-2.4-1 .1.7.7 1.5 1.8 1.6 2.1.1 2.8-1 2.8-1zm1.7 3.8c0-.7-.2-5-.2-5s-.1 2.5-2.4 4.8c-.8.7-2.8 1-2.8 1 1.2.5 4-.1 4.7-1.1.6.3.5 1.3.3 1.9.2-.5.4-1.1.4-1.6z" transform="translate(1416 616)"/></g></svg>