<svg xmlns="http://www.w3.org/2000/svg" width="128" height="124"><style>.st0{fill:#9c3}.st1{opacity:.3;enable-background:new}.st2{fill:#825012}.st3{fill:#539b00}.st4{opacity:.2;fill:#fff;enable-background:new}.st5{fill:#28896d}.st6{fill:#999}.st7{opacity:.2;enable-background:new}.st8{fill:#fc0}</style><g id="i2340_1_"><path class="st0" d="M-848-969l64 32-64 32-64-32z" transform="translate(912 1008)"/><path class="st0" d="M-848-969l64 32-64 32-64-32z" transform="translate(912 1008)"/><g transform="translate(912 1008)"><ellipse class="st1" cx="-841.5" cy="-953" rx="7.5" ry="4"/><path class="st2" d="M-843-980v27c0 .6.7 1 1.5 1s1.5-.4 1.5-1v-27h-3z"/><circle class="st3" cx="-848.5" cy="-984.5" r="6.5"/><circle class="st3" cx="-844" cy="-993" r="9"/><path class="st2" d="M-841-964.6c2.6 0 3-.9 3-3.4v-8h1v10c0 1.7-1.3 3-3 3h-1v-1.6zm0-.6c-1.7 0-3-.4-3-2.1v-9.7h-1v10c0 1.7 1.3 3 3 3h1v-1.2zm-2-21c-1.7 0-3-.4-3-2.1v-2.7h-1v3c0 1.7 1.3 3 3 3h1v-1.2z"/><circle class="st3" cx="-836.5" cy="-977.5" r="7.5"/><circle class="st3" cx="-832" cy="-981" r="6"/><path class="st2" d="M-837-978.2c1.7 0 3-.4 3-2.1v-2.7h1v3c0 1.7-1.3 3-3 3h-1v-1.2zm-7-15.4h1v9.6h-1z"/><circle class="st3" cx="-835" cy="-991" r="8"/><circle class="st3" cx="-840" cy="-1000" r="8"/><path class="st4" d="M-839.5-992c2.2 0 4.1 1.3 4.9 3.1.3-.1.7-.1 1.1-.1 1.8 0 3.4.9 4.4 2.2-.4-1.8-2-3.2-3.9-3.2h-.1c-.5-2.3-2.5-4-4.9-4-2 0-3.7 1.2-4.5 2.9.8-.6 1.9-.9 3-.9z"/><circle class="st3" cx="-849" cy="-992.6" r="3.6"/><path class="st4" d="M-849-992.5c0-2.5 1.7-4.6 4-5.3.2-2.9 2.5-5.2 5.5-5.2 1.7 0 3.3.8 4.3 2.1-.6-2.4-2.8-4.1-5.3-4.1-2.9 0-5.3 2.2-5.5 5.1-2.3.5-4 2.5-4 4.9 0 1.1.4 2.2 1 3v-.5z"/><circle class="st3" cx="-843.7" cy="-977.2" r="9.3"/><circle class="st3" cx="-831.7" cy="-983.2" r="3.3"/><path class="st1" d="M-826-981c0-.4 0-.8-.1-1.2-.6 3.8-3.9 6.7-7.9 6.7h-.4c.7.3 1.6.5 2.4.5.7 0 1.3-.1 1.9-.3-1.4 1.4-3.3 2.3-5.4 2.3-1 0-2-.2-2.9-.6-1.6 1.6-3.9 2.6-6.3 2.6-3.5 0-6.6-2-8.1-4.8.7 4.4 4.5 7.8 9.1 7.8 2.2 0 4.3-.8 5.9-2.1.4.1.8.1 1.3.1 3.5 0 6.5-2.4 7.3-5.7 1.9-1 3.2-3 3.2-5.3z"/><path class="st4" d="M-846.5-982c.8 0 1.5.1 2.2.4.9-1.4 2.5-2.4 4.3-2.4 1 0 1.9.3 2.7.8-.7-1.7-2.3-2.8-4.2-2.8-1.6 0-3 .8-3.8 2h-.7c-2.9 0-5.4 2.1-5.9 4.9 1.2-1.8 3.2-2.9 5.4-2.9z"/><path class="st1" d="M-851-981.5c-1.9-.8-3.4-2.4-3.9-4.5-.1.5-.2 1-.2 1.5 0 2.4 1.3 4.4 3.2 5.6.2-.9.5-1.8.9-2.6z"/></g><g transform="translate(912 1008)"><ellipse class="st1" cx="-869.5" cy="-940" rx="7.5" ry="4"/><path class="st2" d="M-868-964v24c0 .6-.7 1-1.5 1s-1.5-.4-1.5-1v-24h3z"/><circle class="st3" cx="-860.5" cy="-965.5" r="6.5"/><circle class="st3" cx="-864" cy="-974" r="9"/><path class="st2" d="M-870-951.6c-2.6 0-3-.9-3-3.4v-8h-1v10c0 1.7 1.3 3 3 3h1v-1.6zm1 1.4c1.7 0 3-.4 3-2.1v-9.7h1v10c0 1.7-1.3 3-3 3h-1v-1.2z"/><path class="st2" d="M-873-953.2c-1.7 0-2-1.3-2-2.1v-9.7h-1v10c0 1.7 1.3 3 3 3v-1.2z"/><circle class="st3" cx="-874" cy="-964" r="9"/><circle class="st3" cx="-879" cy="-968" r="6"/><path class="st2" d="M-874-964.2c-1.7 0-3-.4-3-2.1v-2.7h-1v3c0 1.7 1.3 3 3 3h1v-1.2z"/><circle class="st3" cx="-875" cy="-976" r="8"/><circle class="st3" cx="-871" cy="-980" r="8"/><circle class="st3" cx="-864.5" cy="-982.5" r="4.5"/><path class="st4" d="M-878.9-974c2.2 0 4.1 1.3 4.9 3.1.3-.1.7-.1 1.1-.1 1.8 0 3.4.9 4.4 2.2-.4-1.8-2-3.2-3.9-3.2h-.1c-.5-2.3-2.5-4-4.9-4-2 0-3.7 1.2-4.5 2.9.8-.6 1.9-.9 3-.9z"/><path class="st2" d="M-871-976.6c.2.2.5.4.7.6h.3v-3c-.3 0-.7-.1-1-.2v2.6z"/><path class="st4" d="M-870.5-984c2.4 0 4.3 1.9 4.5 4.2.5-.1 1-.2 1.5-.2 2.5 0 4.6 1.6 5.3 3.9.1-.4.2-.9.2-1.4 0-2.5-2-4.5-4.5-4.5-.5 0-1 .1-1.5.3-.1-1.8-1.6-3.3-3.5-3.3-1 0-1.9.4-2.5 1h.5z"/><path class="st1" d="M-855.1-972.6c-1.7 1.9-4.1 3.1-6.8 3.1h-.6c1 1.1 1.6 2.4 1.7 3.9 2.9-1.1 5.2-3.8 5.7-7zm-2.4 10.3c.3.7.4 1.5.5 2.3 1.7-1.1 2.9-2.9 3-5-.8 1.3-2.1 2.2-3.5 2.7zm-21.8-11.7c-1.6-1.4-2.7-3.5-2.7-5.9-.6 1.1-1 2.5-1 3.9 0 1.1.2 2.1.6 3.1.9-.7 2-1 3.1-1.1z"/><path class="st2" d="M-864-972.4c0 1.7-1.3 2.1-3 2.1v1.3h1c1.7 0 3-1.3 3-3v-2c-.3 0-.7-.1-1-.2v1.8z"/><circle class="st3" cx="-866.2" cy="-961.2" r="9.3"/><path class="st4" d="M-870-964c1.2 0 2.3.3 3.3.8 1.2-1.1 2.9-1.8 4.7-1.8 1.6 0 3.1.5 4.2 1.4-1.1-2-3.3-3.4-5.7-3.4-1.6 0-3.1.6-4.2 1.6-.7-.4-1.5-.6-2.3-.6-2.4 0-4.4 1.7-4.9 4 1.3-1.2 3-2 4.9-2z"/><path class="st1" d="M-865.2-954c-3.8 0-7-2-8.8-5h-.9c-3.5 0-6.5-2-8-4.9.1 4.9 4.1 8.9 9 8.9h.9c1.7 1.9 4.1 3 6.8 3 3.6 0 6.6-2 8.2-4.9-1.9 1.8-4.5 2.9-7.2 2.9z"/></g><g transform="translate(912 1008)"><ellipse class="st1" cx="-825.5" cy="-941" rx="7.5" ry="4"/><path class="st2" d="M-824-965v24c0 .6-.7 1-1.5 1s-1.5-.4-1.5-1v-24h3z"/><circle class="st3" cx="-816.5" cy="-966.5" r="6.5"/><circle class="st3" cx="-820" cy="-975" r="9"/><path class="st2" d="M-826-952.6c-2.6 0-3-.9-3-3.4v-8h-1v10c0 1.7 1.3 3 3 3h1v-1.6zm1 1.4c1.7 0 3-.4 3-2.1v-9.7h1v10c0 1.7-1.3 3-3 3h-1v-1.2z"/><path class="st2" d="M-829-954.2c-1.7 0-2-1.3-2-2.1v-9.7h-1v10c0 1.7 1.3 3 3 3v-1.2z"/><circle class="st3" cx="-830" cy="-965" r="9"/><circle class="st3" cx="-835" cy="-969" r="6"/><path class="st2" d="M-830-965.2c-1.7 0-3-.4-3-2.1v-2.7h-1v3c0 1.7 1.3 3 3 3h1v-1.2z"/><circle class="st3" cx="-831" cy="-977" r="8"/><circle class="st3" cx="-827" cy="-981" r="8"/><circle class="st3" cx="-820.5" cy="-983.5" r="4.5"/><path class="st4" d="M-834.9-975c2.2 0 4.1 1.3 4.9 3.1.3-.1.7-.1 1.1-.1 1.8 0 3.4.9 4.4 2.2-.4-1.8-2-3.2-3.9-3.2h-.1c-.5-2.3-2.5-4-4.9-4-2 0-3.7 1.2-4.5 2.9.8-.6 1.9-.9 3-.9z"/><path class="st2" d="M-827-977.6c.2.2.5.4.7.6h.3v-3c-.3 0-.7-.1-1-.2v2.6z"/><path class="st4" d="M-826.5-985c2.4 0 4.3 1.9 4.5 4.2.5-.1 1-.2 1.5-.2 2.5 0 4.6 1.6 5.3 3.9.1-.4.2-.9.2-1.4 0-2.5-2-4.5-4.5-4.5-.5 0-1 .1-1.5.3-.1-1.8-1.6-3.3-3.5-3.3-1 0-1.9.4-2.5 1h.5z"/><path class="st1" d="M-811.1-973.6c-1.7 1.9-4.1 3.1-6.8 3.1h-.6c1 1.1 1.6 2.4 1.7 3.9 2.9-1.1 5.2-3.8 5.7-7zm-2.4 10.3c.3.7.4 1.5.5 2.3 1.7-1.1 2.9-2.9 3-5-.8 1.3-2.1 2.2-3.5 2.7zm-21.8-11.7c-1.6-1.4-2.7-3.5-2.7-5.9-.6 1.1-1 2.5-1 3.9 0 1.1.2 2.1.6 3.1.9-.7 2-1 3.1-1.1z"/><path class="st2" d="M-820-973.4c0 1.7-1.3 2.1-3 2.1v1.3h1c1.7 0 3-1.3 3-3v-2c-.3 0-.7-.1-1-.2v1.8z"/><circle class="st3" cx="-822.2" cy="-962.2" r="9.3"/><path class="st4" d="M-826-965c1.2 0 2.3.3 3.3.8 1.2-1.1 2.9-1.8 4.7-1.8 1.6 0 3.1.5 4.2 1.4-1.1-2-3.3-3.4-5.7-3.4-1.6 0-3.1.6-4.2 1.6-.7-.4-1.5-.6-2.3-.6-2.4 0-4.4 1.7-4.9 4 1.3-1.2 3-2 4.9-2z"/><path class="st1" d="M-821.2-955c-3.8 0-7-2-8.8-5h-.9c-3.5 0-6.5-2-8-4.9.1 4.9 4.1 8.9 9 8.9h.9c1.7 1.9 4.1 3 6.8 3 3.6 0 6.6-2 8.2-4.9-1.9 1.8-4.5 2.9-7.2 2.9z"/></g><path class="st1" d="M-857.6-927.9l-5.7 2 4.1.2-2.5 1.7h5.8l3.4-.9-.6 2.8 3.6-.6 2.6-2.1 4.9 1.5 5.2-.7-1.6-1 1.8-.4-7.5-2.1z" transform="translate(912 1008)"/><path class="st5" d="M-855.3-949.4c4.3-.5 6.3-8.6 6.3-8.6s.9 8 6.2 10.1c.1.7-1.9 1.4-3.6.6-.1 1.6 3.5 4.1 5.6 4.7.1.9-1.9 2.1-3.9 1.5.9 1.9 2.3 3.6 5.6 4.4-1.5.9-3.9.1-5.3 0 0 1.3 4.7 2.5 7.1 2.4-.4 1.2-2.7 2.5-4.7 2.4 0 1.4 4.7 2.6 5.9 3 .1 1.2-3.3 1.9-5.6 1.2-.1 1.4 2.4 2.7 3.6 3.3 0 1.1-7.6.7-8.9-1.5-1.4.5-2.4 3.5-5.1 3.3.4-.8 1.1-3.3-.2-3.9-1.1 1.6-5.8 2.7-7.7 1.8.5-.5 3.2-.9 2.4-2.7-2.4-.1-5.7-2.2-5.6-3.3.6.4 4.6 1 4.7 0-1.8-.1-2.9-1.6-3-2.7.6.3 4.6 1 4.7-.3-1.4-.5-3.1-1.5-3-2.7 1.2.1 3.7.1 3.9-1.2-1.5-.5-2.9-2.7-3-3.6 1.1.3 5.4.1 5.3-.9-1.9-.1-3.4-.9-3.3-2.1 2.4-.2 5-2.7 5-3.9-.8.5-2.7.1-3.4-1.3z" transform="translate(912 1008)"/><path class="st4" d="M-839-936.7s-3 .1-5.6-2.4c-2.6-2.5-3.3-4.1-3.3-4.1s-.6.8-2.7 2.1-6.5 1.2-6.5 1.2 2.8 2.1 6.8.9c2-.6 1.8-1 1.8-1s2.8 2.4 3.8 2.8c4.1 1.4 5.7.5 5.7.5zm-16.6-7.1c3.6-1.9 5.8-3.5 6.5-6.5-.2 1.4 2.8 5.3 5.6 7.4-2.1-.2-4.7-3.7-5.9-3.6-.2 1.1-3.7 2.5-6.2 2.7z" transform="translate(912 1008)"/><path class="st4" d="M-853.9-949.1c3.6-1.9 4.2-4.4 4.9-7.5-.2 1.4 1.6 5.9 4.4 8-2.1-.2-3.9-3.2-4.7-3.9-.3 1.2-2.2 3.2-4.6 3.4zm-5.3 13.2s4.4-.1 7.8-1.7c1-.1 2.5 3.1 3.3 3.3.8-.2 1.3-.4 2.1-1 .7 3.1 6.1 5.7 9.1 6.6-5.5 0-9.5-3.6-10.1-4.7-.7.5-.8 2.1-2.1 2.1-1-1.5-2.6-3.6-3-4.7-1-.3-5.4 1.2-7.1.1z" transform="translate(912 1008)"/><path class="st4" d="M-861.9-929.8c6.2.7 8.5-2.2 9.5-3.3-.6 4.3-7.6 5.5-9.5 3.3zm16.5-.8c1.8 2.9 2.4 4.6 6.5 5.9-6.6.4-7.3-4.5-6.5-5.9zm-5.9 7.1c.4.2 4.2-5.9 1.4-7-1.6.9-.2 4-1.4 7z" transform="translate(912 1008)"/><path class="st1" d="M-846.9-948.6l-1.6-1.3s1.3 1.6 2.1 2.6c1.7.8 3.7.1 3.6-.6 0 0-2.5.6-4.1-.7zm2.1 22.4c-2-2-2.4-5.1-2.4-5.1s-1.2 4.1-2.1 6c-.6 1.2-1.2 2.2-2.7 2.6v.1c2.8.2 3.7-2.8 5.1-3.3 1.3 2.2 8.9 2.6 8.9 1.5-.1-.1-4.8.2-6.8-1.8zm3.4-7.2c-2-.1-4.7-3.8-4.7-3.8s-1.4.7-2.2.1c-.8-.6-1.5-1.2-1.5-1.2s.7 3.5 1.8 3.3 1.7-.5 2.1-1c.5 2.6 3.9 4.1 3.9 4.1 2 .1 4.3-1.1 4.7-2.4.1 0-2.1 1-4.1.9zm-12.1-8.6c.6 0 1.2 0 1.7-.1 1.5-.2 4.1-1.6 4.1-1.6l-2 .2.8-1.7s-2.3 1.9-4.3 2.1c-2 .3-3.5-1-3.5-1-.2 1.2 1.4 2 3.2 2.1zm-3.3 8.3c-.1 1.3-4.1.6-4.7.3 2.9 1.9 8.4-.3 8.4-.3l-2.6.1 3-1.5s-6.7.4-7-1.3c-.2 1.2 1.5 2.2 2.9 2.7z" transform="translate(912 1008)"/><path class="st1" d="M-853.9-932.3s-2.1.6-3.6.6c-1.4 0-3.8-1.3-4-1.7.1 1.1 1.2 2.5 3 2.6 3.4.4 4.6-1.5 4.6-1.5zm2.6 6.3c0-1.2-.3-8.2-.3-8.2s-.2 4.2-3.9 7.8c-1.3 1.2-4.6 1.6-4.6 1.6 1.9.9 6.6-.2 7.7-1.8 1 .5.8 2.1.5 3.2.3-.7.6-1.8.6-2.6zm7.1 6.4l-3.5 1.3 2.5.1-1.5 1h3.5l2.1-.5-.3 1.7 2.1-.4 1.6-1.3 3 1 3.2-.5-1-.6 1.1-.3-4.5-1.2z" transform="translate(912 1008)"/><path class="st5" d="M-842.8-932.7c2.6-.3 3.8-5.3 3.8-5.3s.5 4.9 3.8 6.2c.1.5-1.1.9-2.2.4-.1 1 2.1 2.5 3.4 2.9 0 .5-1.2 1.3-2.4.9.5 1.2 1.4 2.2 3.4 2.7-.9.5-2.4 0-3.3 0 0 .8 2.9 1.5 4.4 1.5-.3.8-1.7 1.5-2.9 1.5 0 .9 2.9 1.6 3.6 1.8.1.7-2 1.2-3.4.7 0 .9 1.5 1.6 2.2 2 0 .7-4.7.5-5.4-.9-.9.3-1.4 2.2-3.1 2 .2-.5.7-2-.1-2.4-.7 1-3.5 1.6-4.7 1.1.3-.3 2-.5 1.5-1.6-1.5 0-3.5-1.4-3.4-2 .4.3 2.8.6 2.9 0-1.1-.1-1.8-1-1.8-1.6.4.2 2.8.6 2.9-.2-.9-.3-1.9-.9-1.8-1.6.7.1 2.3 0 2.4-.7-.9-.3-1.8-1.7-1.8-2.2.7.2 3.3 0 3.3-.5-1.1-.1-2.1-.5-2-1.3 1.5-.1 3.1-1.7 3.1-2.4-.8 0-2-.2-2.4-1z" transform="translate(912 1008)"/><path class="st4" d="M-832.8-924.9s-1.9.1-3.4-1.5c-1.6-1.5-2-2.5-2-2.5s-.4.5-1.6 1.3c-1.3.8-4 .7-4 .7s1.7 1.3 4.2.5c1.2-.4 1.1-.6 1.1-.6s1.7 1.5 2.4 1.7c2.3.9 3.3.4 3.3.4zm-10.2-4.4c2.2-1.2 3.5-2.1 4-4-.1.9 1.7 3.3 3.4 4.5-1.3-.1-2.9-2.3-3.6-2.2-.1.7-2.3 1.6-3.8 1.7z" transform="translate(912 1008)"/><path class="st4" d="M-842-932.5c2.2-1.2 2.5-2.7 3-4.6-.1.9 1 3.6 2.7 4.9-1.3-.1-2.4-1.9-2.9-2.4-.1.7-1.3 1.9-2.8 2.1zm-3.2 8.1s2.7 0 4.8-1c.6 0 1.5 1.9 2 2 .5-.1.8-.3 1.3-.6.4 1.9 3.7 3.5 5.6 4-3.4 0-5.8-2.2-6.2-2.9-.4.3-.5 1.3-1.3 1.3-.6-.9-1.6-2.2-1.8-2.9-.7-.2-3.4.7-4.4.1z" transform="translate(912 1008)"/><path class="st4" d="M-846.8-920.7c3.8.4 5.2-1.3 5.8-2-.4 2.6-4.7 3.3-5.8 2zm10-.5c1.1 1.8 1.5 2.8 4 3.6-4 .2-4.4-2.8-4-3.6zm-3.6 4.3c.2.1 2.6-3.6.8-4.3-.9.6 0 2.5-.8 4.3z" transform="translate(912 1008)"/><path class="st1" d="M-837.7-932.2l-1-.8s.8 1 1.3 1.6c1 .5 2.2.1 2.2-.4 0 0-1.5.3-2.5-.4zm1.3 13.7c-1.2-1.2-1.5-3.1-1.5-3.1s-.7 2.5-1.3 3.7c-.4.7-.7 1.3-1.7 1.6v.1c1.7.1 2.3-1.7 3.1-2 .8 1.4 5.4 1.6 5.4.9.1-.2-2.8 0-4-1.2zm2.1-4.4c-1.2-.1-2.9-2.3-2.9-2.3s-.8.4-1.3.1c-.5-.3-.9-.7-.9-.7s.4 2.1 1.1 2c.7-.1 1-.3 1.3-.6.3 1.6 2.4 2.5 2.4 2.5 1.2.1 2.6-.7 2.9-1.5 0-.1-1.4.5-2.6.5zm-7.4-5.3c.4 0 .7 0 1.1-.1.9-.1 2.5-1 2.5-1l-1.2.1.5-1.1s-1.4 1.1-2.6 1.3c-1.2.2-2.2-.6-2.2-.6-.2.9.8 1.3 1.9 1.4zm-2 5.1c-.1.8-2.5.4-2.9.2 1.8 1.2 5.2-.2 5.2-.2h-1.6l1.9-.9s-4.1.2-4.3-.8c-.2.8.8 1.4 1.7 1.7z" transform="translate(912 1008)"/><path class="st1" d="M-842-922.2s-1.3.4-2.2.4c-.8 0-2.4-.8-2.4-1 .1.7.7 1.5 1.8 1.6 2.1.1 2.8-1 2.8-1zm1.7 3.8c0-.7-.2-5-.2-5s-.1 2.5-2.4 4.8c-.8.7-2.8 1-2.8 1 1.2.5 4-.1 4.7-1.1.6.3.5 1.3.3 1.9.2-.5.4-1.1.4-1.6z" transform="translate(912 1008)"/></g><g transform="translate(992 1112)" id="i2330_1_"><ellipse class="st6" cx="-904" cy="-998.7" rx="1.5" ry=".8"/><path class="st6" d="M-904-1026l4-2-4-4-4 4zm1 3.7h-2v23.5c0 .3.4.5 1 .5s1-.2 1-.5v-23.5z"/><path class="st7" d="M-903-1022.3h-2v23.5c0 .3.4.5 1 .5s1-.2 1-.5v-23.5z"/><path class="st6" d="M-904-998c-.8 0-1.5-.3-1.5-.8v10c0 .5.7.8 1.5.8s1.5-.3 1.5-.8v-10c0 .5-.7.8-1.5.8z"/><path class="st7" d="M-904-998c-.8 0-1.5-.3-1.5-.8v10c0 .5.7.8 1.5.8s1.5-.3 1.5-.8v-10c0 .5-.7.8-1.5.8z"/><path class="st6" d="M-904-1026l-4-2 2 7 2 1 2-1 2-7z"/><path class="st8" d="M-903.5-1025.7l2.7-1.3-1.6 5.7-1.1.5z"/><path opacity=".15" d="M-903-1026l2.2-1-1.6 5.7z"/><path class="st8" d="M-905.6-1021.3l-1.6-5.7 2.7 1.3v4.9z"/><path class="st4" d="M-905.6-1021.3l-1.6-5.7 2.7 6.2z"/><path opacity=".39" d="M-904-1020l2-1 2-7-4 2z"/><path opacity=".06" d="M-904-1020l-2-1-2-7 4 2z"/><circle class="st6" cx="-904" cy="-1032" r="1"/></g></svg>