<svg xmlns="http://www.w3.org/2000/svg" width="132" height="88"><style>.st0{opacity:.2;enable-background:new}.st1{fill:#262626}.st2{fill:#fff}.st3{fill:#06547a}.st4{fill:#fbd7c7}.st5{fill:#e5e5e5}.st6{fill:#825012}.st7,.st8{opacity:.11;enable-background:new}.st8{opacity:.29}.st9{fill:#fc0}.st10{fill:#cc291f}.st11{fill:#f90}.st13{fill:#baa794}.st14{fill:#2d3134}.st15{opacity:.39}.st15,.st16,.st17{enable-background:new}.st16{opacity:6.000000e-02}.st17{opacity:.3}.st19{fill:#539b00}</style><g id="i2335_1_"><path class="st0" d="M-10278.9-10104.4c8.8 4.6 19.7 1.3 24.8-1.3 5.1-2.6 8.3-.3 9.5 1.9 1.2 2.2 3.3 10 9.1 12.3s12.3 2.3 19.7-5c7.5-7.3 14.5-5.5 18.6-3.5 4.1 2 8 8.2 9.7 9.1 1.8.9 1.1-2.8 3.4-1.8 2.4 1.1 8.5 5.1 12 2.7 3.4-2.5-4.7-7.5-9.8-9.8-24.6-11-9-14.8-20.3-22.6-11.3-7.8-20.3 2.7-28.3-2.6s-17-3.4-24.7 1.4c-7.7 4.8-36.9 12.3-23.7 19.2z" transform="matrix(.1 0 0 .1 1080 1056)"/><path class="st1" d="M-10245.4-10111c-3.6 2.1-12.3 6.9-16.2 7.3-4.8.5-7.4-1.6-8.3-5.1-1.4-5.2 18.2-13.5 18.2-13.5l6.3 11.3z" transform="matrix(.1 0 0 .1 1080 1056)"/><path class="st2" d="M-10247.2-10112.3c-4.5 2-12.3 7.5-16.9 6-4.5-1.6-4.6-4.4-3.4-6.7 2.4-4.6 17.4-7.2 17.4-7.2l2.9 7.9z" transform="matrix(.1 0 0 .1 1080 1056)"/><path class="st1" d="M-10253-10118.2c1.7-.2 1.3 2.9.4 3.9s-7.6 4.5-11.5 6.1c-3.9 1.6-10.3 3-13.5 2.5-3.2-.5-3.4-3.7-1.9-4.9 1.6-1.2 6.4-2.4 9.2-5.7 2-2.4 4.6-6.5 4.6-6.5l12.7 4.6z" transform="matrix(.1 0 0 .1 1080 1056)"/><path class="st2" d="M-10254.9-10116.9c-2.1 1-7.6 4.6-12.4 6.1s-9.6 2.2-11.6.9c-1.3-.9 3.8-1.7 6.5-4 3.8-3.1 5.1-6.6 5.1-6.6l12.4 3.6z" transform="matrix(.1 0 0 .1 1080 1056)"/><path class="st3" d="M-10241.5-10128.9c-3-.3-8.1 1.1-9.9 6.2-1.8 5.1-1.2 9.7 1 10.6 2.2.9 3.5.1 4.4 1.5.9 1.4 3.3 7 4.5 10.1s3.2 6.4 5.5 8 6.2 2.7 10.2.4c4-2.4 8-6.5 11.6-8.8 4.7-3 14.9-12.6 17.2-16.3s2.1-6.2 2.1-6.2l-24.4-10.8s-9.5 9.1-9.7 10.2 2.2 3.3 1.9 4.6c-.3 1.3-.6 2-.6 2s-7.7-10.9-13.8-11.5z" transform="matrix(.1 0 0 .1 1080 1056)"/><path class="st3" d="M-10219.7-10131.8l-9 8.1s-2.3-1.2-3.7-3c-1.6-2.1-5.7-12.6-5.7-12.6s-3.6 7-4.7 9.8c-1.1 2.8-7.6 8.8-7.8 10.5-.2 1.7-.1 3.4-1.9 3.6-1.8.2-14.1-.2-16.6-1.8-1.9-1.2-.7-5.1 2.5-7.1 2-1.3 2.8-3.3 3.8-6.2 1-2.8 3.7-4.9 5.5-8.6 1.8-3.7 7.3-20.2 9.3-24.4 2-4 6.5-9.2 13-4.9 6.8 4.5 7.9 5.7 11.6 10.2 3.5 4.2 7.3 9.2 7.3 9.2l-3.6 17.2z" transform="matrix(.1 0 0 .1 1080 1056)"/><path class="st0" d="M-10219.7-10131.8l-9 8.1s-2.3-1.2-3.7-3c-1.6-2.1-5.7-12.6-5.7-12.6s-3.6 7-4.7 9.8c-1.1 2.8-7.6 8.8-7.8 10.5-.2 1.7-.1 3.4-1.9 3.6-1.8.2-14.1-.2-16.6-1.8-1.9-1.2-.7-5.1 2.5-7.1 2-1.3 2.8-3.3 3.8-6.2 1-2.8 3.7-4.9 5.5-8.6 1.8-3.7 7.3-20.2 9.3-24.4 2-4 6.5-9.2 13-4.9 6.8 4.5 7.9 5.7 11.6 10.2 3.5 4.2 7.3 9.2 7.3 9.2l-3.6 17.2z" transform="matrix(.1 0 0 .1 1080 1056)"/><path class="st4" d="M-10212.1-10180.8c-5 .1-13.4-1.6-17.7-2.6s-7.6-1.7-9.5 2.6c-1.9 4.3-6.6 19.9-7 21.5-.4 1.6-1.9 8.3-2.1 10.5-.1 1.3.8 5 1.5 5.7.7.7 1.4 0 1.5.4.2.3.9 3.1 1.7 3.5.8.3 1.3-.4 1.6-.2.3.2.8 2.2 2 2.1 1-.1.8-.8.8-.8s.9 1.5 1.8 1.2c1.2-.4-.1-3.1-.3-5.6-.2-3.2.1-4.4.1-4.4s1.1-.3 1.3-1.3c.2-1 .5-5.5-.2-6.7-.7-1.2-2.6-2.9-2.6-3.9s1.1-4.6 3.7-8c2.6-3.4 3.5-6.5 3.5-6.5s3.8 2.1 9.1 3.8c5.3 1.6 10.5 2.6 10.5 2.6l.3-13.9z" transform="matrix(.1 0 0 .1 1080 1056)"/><path class="st5" d="M-10204.1-10179.3c-3.3-.8-4.1-1.9-7.5-2.2-3.4-.3-4.2-.2-4.9.9-.7 1.1-1.5 5-1 8.5s1.8 5.2 2 7.2.2 5 .9 8.2c.6 3.2 1.3 4.9 1.3 4.9s-2 .9-3.3 1.6c-1.4.7-2.5 7-3.9 10.4-1.4 3.4-3.5 5.7.6 11.2 4.5 5.9 9.7 12.4 16.2 12.9 4 .3 6.4.1 7.6-1.9 1.3-2 2.2-5.3 3.2-6.4s12.1-11.1 13.2-13.6c1.1-2.5.3-2.7 1.9-4.5 1.6-1.8 3.5-7.4 2.6-11.2-.9-3.8-6.7-12.4-10.3-16.8-8.1-9.6-18.6-9.2-18.6-9.2z" transform="matrix(.1 0 0 .1 1080 1056)"/><path class="st4" d="M-10191.2-10175.4s.1 1.3 1.5 2.2c1.4.9 4.6 3.8 4.7 6.2s-6.3 9.7-11.6 9.3c-5.3-.4-7.5-7.3-7.4-8.6s5.4-9.6 5.4-9.6l7.4.5z" transform="matrix(.1 0 0 .1 1080 1056)"/><path class="st4" d="M-10188.6-10179.4s1.6 1-1 3.9c-2.6 2.8-3.3 1.9-3.3 1.9s-.7 3.8-4.5 5.6c-3.8 1.8-9.9 4.9-12.3 2.4-2.2-2.3-1.7-11.4-1.2-16.7s4.3-12.2 10-13.8c5.2-1.4 13 .9 13.9 7.2.9 6.3-1.6 9.5-1.6 9.5z" transform="matrix(.1 0 0 .1 1080 1056)"/><path class="st6" d="M-10188.6-10179.4s2.5-3.2 1.6-9.5c-.9-6.3-8.7-8.6-13.9-7.2-2.5.7-4.6 2.4-6.2 4.5.3 1.2-.7 3.6 1.4 4.9 2.4 1.4 5.2-.7 8.2.8s2 9.3 2 9.3l2.2-.1s.6-2 2.2-2.6c1.1-.5 1.9-.4 2.5-.1z" transform="matrix(.1 0 0 .1 1080 1056)"/><path class="st4" d="M-10191.1-10143.9s3.6 2.8 6.7 3.1c3.1.3 6.2-.8 6.2-.8s-1.2 5.9-1.4 8.8c-.2 2.9 0 7.5-1.4 11.4-1.4 3.9-5.6 17.2-5.2 17.9.3.7 8.8 4.2 10.3 5s4.1 2.7 4.2 3.2c0 .1 0 .4-.5.7 1 .8 2.8 2.1 2.2 2.8-.5.6-1.1.6-1.5.4.1.1 1.2.9.8 1.5-.7.8-2.5-.1-3.4-.7.3.3.3.7-.2 1.2-.6.6-2.8-.3-4.1-1.1-1.3-.8-7.3-4.1-7.3-4.1s.7 1.6.5 2.8-1.4 1.3-1.9.8-2.2-3.6-2.7-3.9c-.5-.3-1.3-1.6-1.2-2.3s-.1-1.5-.7-2.9-.9-2-.5-6.5c.5-4.5.2-10.7 1.3-15.3.7-3.2 1.6-5.2 1.4-6.2-.1-1-1.7-5.8-1.8-9.8-.1-3.1.2-6 .2-6z" transform="matrix(.1 0 0 .1 1080 1056)"/></g><g id="i2266_1_"><path class="st6" d="M-998-1018l-32 16v2l32 16 32-16v-2z" transform="translate(1064 1072)"/><path class="st7" d="M-1030-1002l32 16v2l-32-16z" transform="translate(1064 1072)"/><path class="st8" d="M-966-1002v2l-32 16v-2zm-32-10v-4l-28 14 4 2z" transform="translate(1064 1072)"/><path class="st7" d="M-998-1012l24 12 4-2-28-14z" transform="translate(1064 1072)"/><path class="st9" d="M-1025-1001.5l27 13.5 27-13.5-27-13.5z" transform="translate(1064 1072)"/><path class="st10" d="M-1007.5-1005c-1 0-1.8.4-1.8.9l-.7 3.8c0 .7 1.1 1.3 2.5 1.3s2.5-.6 2.5-1.3l-.8-3.8c.1-.5-.7-.9-1.7-.9z" transform="translate(1064 1072)"/><path class="st0" d="M-1007.5-1003.3c-1 0-1.8-.4-1.8-.9l-.7 3.9c0 .7 1.1 1.3 2.5 1.3s2.5-.6 2.5-1.3l-.8-3.8c.1.5-.7.8-1.7.8z" transform="translate(1064 1072)"/><g transform="translate(1064 1072)"><path class="st11" d="M-996-1000.1c0 .6-.6 1.2-1.4 1.2-.8 0-1.4-.5-1.4-1.2"/><path class="st0" d="M-996-1000.1c0 .6-.6 1.2-1.4 1.2-.8 0-1.4-.5-1.4-1.2"/><path class="st7" d="M-997.4-999.1c-.4 0-.8-.1-1.1-.3.2.3.6.4 1.1.3.5.1.9-.1 1.1-.3-.3.2-.7.3-1.1.3z"/><ellipse class="st11" cx="-997.4" cy="-1000.2" rx="1.4" ry=".7"/><ellipse cx="-997.4" cy="-1000.2" rx="1.1" ry=".4" opacity=".5" fill="#202426"/><path class="st11" d="M-998.4-999.7l-.2-.2-3.4 1.2v.2l1 .5 2.6-1.4z"/><path class="st8" d="M-1001-998.2v.2l2.6-1.4v-.3z"/><path class="st7" d="M-1001-998.2v.2l-1-.5v-.2z"/></g><path class="st0" d="M-983.4-1002.1c0 .6-1.2 1.1-2.8 1.1-1.5 0-2.8-.5-2.8-1.1 0-.6 1.2-3.9 2.8-3.9 1.5 0 2.8 3.3 2.8 3.9zm-8.2-1.6c0 .4-.7.7-1.7.7s-1.7-.3-1.7-.7c0-.4.7-2.3 1.7-2.3s1.7 2 1.7 2.3z" transform="translate(1064 1072)"/></g><g id="i2259_1_"><path class="st13" d="M-1020-1019l-2-1-2 1v18l2 1 2-1z" transform="translate(1088 1024)"/><path class="st8" d="M-1022-1000l2-1v-18l-2 1z" transform="translate(1088 1024)"/><path class="st7" d="M-1022-1000l-2-1v-18l2 1z" transform="translate(1088 1024)"/><path class="st14" d="M-961-982.5l3 1.5 1-.5-4-2v-.5l-.5-3-.5 2.5v.5l-1-.5v-.5l-.5-3-.5 2.5v.5l-1-.5v-.5l-.5-3-.5 2.5v.5l-1-.5v-.5l-.5-3-.5 2.5v.5l-1-.5v-.5l-.5-3-.5 2.5v.5l-1-.5v-.5l-.5-3-.5 2.5v.5l-1-.5v-.5l-.5-3-.5 2.5v.5l-1-.5v-.5l-.5-3-.5 2.5v.5l-1-.5v-.5l-.5-3-.5 2.5v.5l-1-.5v-.5l-.5-3-.5 2.5v.5l-1-.5v-.5l-.5-3-.5 2.5v.5l-1-.5v-.5l-.5-3-.5 2.5v.5l-1-.5v-.5l-.5-3-.5 2.5v.5l-1-.5v-.5l-.5-3-.5 2.5v.5l-1-.5v-.5l-.5-3-.5 2.5v.5l-1-.5v-.5l-.5-3-.5 2.5v.5l-1-.5v-.5l-.5-3-.5 2.5v.5l-1-.5v-.5l-.5-3-.5 2.5v.5l-1-.5v-.5l-.5-3-.5 2.5v.5l-1-.5v-.5l-.5-3-.5 2.5v.5l-1-.5v-.5l-.5-3-.5 2.5v.5l-1-.5v-.5l-.5-3-.5 2.5v.5l-1-.5v-.5l-.5-3-.5 2.5v.5l-1-.5v-.5l-.5-3-.5 2.5v.5l-1-.5v-.5l-.5-3-.5 2.5v.5l-1-.5v-.5l-.5-3-.5 2.5v.5l-1-.5v-.5l-.5-3-.5 2.5v.5l-1-.5v-.5l-.5-3-.5 2.5v.5l-1-.5v-.5l-.5-3-.5 2.5v.5l-1-.5v-.5l-.5-3-.5 2.5v.5l-1 .5 1 .5v2l-1 .5 1 .5v9.5l1 .5v-9.5l1 .5v9.5l1 .5v-9.5l1 .5v9.5l1 .5v-9.5l1 .5v9.5l1 .5v-9.5l1 .5v9.5l1 .5v-9.5l1 .5v9.5l1 .5v-9.5l1 .5v9.5l1 .5v-9.5l1 .5v9.5l1 .5v-9.5l1 .5v9.5l1 .5v-9.5l1 .5v9.5l1 .5v-9.5l1 .5v9.5l1 .5v-9.5l1 .5v9.5l1 .5v-9.5l1 .5v9.5l1 .5v-9.5l1 .5v9.5l1 .5v-9.5l1 .5v9.5l1 .5v-9.5l1 .5v9.5l1 .5v-9.5l1 .5v9.5l1 .5v-9.5l1 .5v9.5l1 .5v-9.5l1 .5v9.5l1 .5v-9.5l1 .5v9.5l1 .5v-9.5l1 .5v9.5l1 .5v-9.5l1 .5v9.5l1 .5v-9.5l1 .5v9.5l1 .5v-9.5l1 .5v9.5l1 .5v-9.5l1 .5v9.5l1 .5v-9.5l1 .5v9.5l1 .5v-9.5l1 .5v9.5l1 .5v-9.5l1 .5v9.5l1 .5v-9.5l1 .5v9.5l1 .5v-9.5l1 .5v9.5l1 .5v-9.5l3 1.5 1-.5-4-2v-2zm-58-27v-2l1 .5v2l-1-.5zm2 1v-2l1 .5v2l-1-.5zm2 1v-2l1 .5v2l-1-.5zm2 1v-2l1 .5v2l-1-.5zm2 1v-2l1 .5v2l-1-.5zm2 1v-2l1 .5v2l-1-.5zm2 1v-2l1 .5v2l-1-.5zm2 1v-2l1 .5v2l-1-.5zm2 1v-2l1 .5v2l-1-.5zm2 1v-2l1 .5v2l-1-.5zm2 1v-2l1 .5v2l-1-.5zm2 1v-2l1 .5v2l-1-.5zm2 1v-2l1 .5v2l-1-.5zm2 1v-2l1 .5v2l-1-.5zm2 1v-2l1 .5v2l-1-.5zm2 1v-2l1 .5v2l-1-.5zm2 1v-2l1 .5v2l-1-.5zm2 1v-2l1 .5v2l-1-.5zm2 1v-2l1 .5v2l-1-.5zm2 1v-2l1 .5v2l-1-.5zm2 1v-2l1 .5v2l-1-.5zm2 1v-2l1 .5v2l-1-.5zm2 1v-2l1 .5v2l-1-.5zm2 1v-2l1 .5v2l-1-.5zm2 1v-2l1 .5v2l-1-.5zm2 1v-2l1 .5v2l-1-.5zm2 1v-2l1 .5v2l-1-.5zm2 1v-2l1 .5v2l-1-.5zm2 1v-2l1 .5v2l-1-.5z" transform="translate(1088 1024)"/><path class="st13" d="M-956-987l-2-1-2 1v18l2 1 2-1z" transform="translate(1088 1024)"/><path class="st8" d="M-958-968l2-1v-18l-2 1z" transform="translate(1088 1024)"/><path class="st7" d="M-958-968l-2-1v-18l2 1z" transform="translate(1088 1024)"/></g><g id="i2261_1_"><path class="st13" d="M-960-1019l2-1 2 1v18l-2 1-2-1z" transform="translate(1024 1024)"/><path class="st7" d="M-958-1000l-2-1v-18l2 1z" transform="translate(1024 1024)"/><path class="st8" d="M-958-1000l2-1v-18l-2 1z" transform="translate(1024 1024)"/><path class="st14" d="M-960-1010v-2l1-.5-1-.5v-.5l-.5-2.5-.5 3v.5l-1 .5v-.5l-.5-2.5-.5 3v.5l-1 .5v-.5l-.5-2.5-.5 3v.5l-1 .5v-.5l-.5-2.5-.5 3v.5l-1 .5v-.5l-.5-2.5-.5 3v.5l-1 .5v-.5l-.5-2.5-.5 3v.5l-1 .5v-.5l-.5-2.5-.5 3v.5l-1 .5v-.5l-.5-2.5-.5 3v.5l-1 .5v-.5l-.5-2.5-.5 3v.5l-1 .5v-.5l-.5-2.5-.5 3v.5l-1 .5v-.5l-.5-2.5-.5 3v.5l-1 .5v-.5l-.5-2.5-.5 3v.5l-1 .5v-.5l-.5-2.5-.5 3v.5l-1 .5v-.5l-.5-2.5-.5 3v.5l-1 .5v-.5l-.5-2.5-.5 3v.5l-1 .5v-.5l-.5-2.5-.5 3v.5l-1 .5v-.5l-.5-2.5-.5 3v.5l-1 .5v-.5l-.5-2.5-.5 3v.5l-1 .5v-.5l-.5-2.5-.5 3v.5l-1 .5v-.5l-.5-2.5-.5 3v.5l-1 .5v-.5l-.5-2.5-.5 3v.5l-1 .5v-.5l-.5-2.5-.5 3v.5l-1 .5v-.5l-.5-2.5-.5 3v.5l-1 .5v-.5l-.5-2.5-.5 3v.5l-1 .5v-.5l-.5-2.5-.5 3v.5l-1 .5v-.5l-.5-2.5-.5 3v.5l-1 .5v-.5l-.5-2.5-.5 3v.5l-1 .5v-.5l-.5-2.5-.5 3v.5l-1 .5v-.5l-.5-2.5-.5 3v.5l-1 .5v-.5l-.5-2.5-.5 3v.5l-4 2 1 .5 3-1.5v2l-4 2 1 .5 3-1.5v9.5l1-.5v-9.5l1-.5v9.5l1-.5v-9.5l1-.5v9.5l1-.5v-9.5l1-.5v9.5l1-.5v-9.5l1-.5v9.5l1-.5v-9.5l1-.5v9.5l1-.5v-9.5l1-.5v9.5l1-.5v-9.5l1-.5v9.5l1-.5v-9.5l1-.5v9.5l1-.5v-9.5l1-.5v9.5l1-.5v-9.5l1-.5v9.5l1-.5v-9.5l1-.5v9.5l1-.5v-9.5l1-.5v9.5l1-.5v-9.5l1-.5v9.5l1-.5v-9.5l1-.5v9.5l1-.5v-9.5l1-.5v9.5l1-.5v-9.5l1-.5v9.5l1-.5v-9.5l1-.5v9.5l1-.5v-9.5l1-.5v9.5l1-.5v-9.5l1-.5v9.5l1-.5v-9.5l1-.5v9.5l1-.5v-9.5l1-.5v9.5l1-.5v-9.5l1-.5v9.5l1-.5v-9.5l1-.5v9.5l1-.5v-9.5l1-.5v9.5l1-.5v-9.5l1-.5v9.5l1-.5v-9.5l1-.5v9.5l1-.5v-9.5l1-.5v9.5l1-.5v-9.5l1-.5v9.5l1-.5v-9.5l1-.5v9.5l1-.5v-9.5l1-.5-1-.5zm-58 29v-2l1-.5v2l-1 .5zm2-1v-2l1-.5v2l-1 .5zm2-1v-2l1-.5v2l-1 .5zm2-1v-2l1-.5v2l-1 .5zm2-1v-2l1-.5v2l-1 .5zm2-1v-2l1-.5v2l-1 .5zm2-1v-2l1-.5v2l-1 .5zm2-1v-2l1-.5v2l-1 .5zm2-1v-2l1-.5v2l-1 .5zm2-1v-2l1-.5v2l-1 .5zm2-1v-2l1-.5v2l-1 .5zm2-1v-2l1-.5v2l-1 .5zm2-1v-2l1-.5v2l-1 .5zm2-1v-2l1-.5v2l-1 .5zm2-1v-2l1-.5v2l-1 .5zm2-1v-2l1-.5v2l-1 .5zm2-1v-2l1-.5v2l-1 .5zm2-1v-2l1-.5v2l-1 .5zm2-1v-2l1-.5v2l-1 .5zm2-1v-2l1-.5v2l-1 .5zm2-1v-2l1-.5v2l-1 .5zm2-1v-2l1-.5v2l-1 .5zm2-1v-2l1-.5v2l-1 .5zm2-1v-2l1-.5v2l-1 .5zm2-1v-2l1-.5v2l-1 .5zm2-1v-2l1-.5v2l-1 .5zm2-1v-2l1-.5v2l-1 .5zm2-1v-2l1-.5v2l-1 .5zm2-1v-2l1-.5v2l-1 .5z" transform="translate(1024 1024)"/><path class="st13" d="M-1024-987l2-1 2 1v18l-2 1-2-1z" transform="translate(1024 1024)"/><path class="st7" d="M-1022-968l-2-1v-18l2 1z" transform="translate(1024 1024)"/><path class="st8" d="M-1022-968l2-1v-18l-2 1z" transform="translate(1024 1024)"/></g><g id="i2262_1_"><path class="st13" d="M-1020-1019l-2-1-2 1v18l2 1 2-1z" transform="translate(1024 1056)"/><path class="st8" d="M-1022-1000l2-1v-18l-2 1z" transform="translate(1024 1056)"/><path class="st7" d="M-1022-1000l-2-1v-18l2 1z" transform="translate(1024 1056)"/><path class="st14" d="M-961-982.5l3 1.5 1-.5-4-2v-.5l-.5-3-.5 2.5v.5l-1-.5v-.5l-.5-3-.5 2.5v.5l-1-.5v-.5l-.5-3-.5 2.5v.5l-1-.5v-.5l-.5-3-.5 2.5v.5l-1-.5v-.5l-.5-3-.5 2.5v.5l-1-.5v-.5l-.5-3-.5 2.5v.5l-1-.5v-.5l-.5-3-.5 2.5v.5l-1-.5v-.5l-.5-3-.5 2.5v.5l-1-.5v-.5l-.5-3-.5 2.5v.5l-1-.5v-.5l-.5-3-.5 2.5v.5l-1-.5v-.5l-.5-3-.5 2.5v.5l-1-.5v-.5l-.5-3-.5 2.5v.5l-1-.5v-.5l-.5-3-.5 2.5v.5l-1-.5v-.5l-.5-3-.5 2.5v.5l-1-.5v-.5l-.5-3-.5 2.5v.5l-1-.5v-.5l-.5-3-.5 2.5v.5l-1-.5v-.5l-.5-3-.5 2.5v.5l-1-.5v-.5l-.5-3-.5 2.5v.5l-1-.5v-.5l-.5-3-.5 2.5v.5l-1-.5v-.5l-.5-3-.5 2.5v.5l-1-.5v-.5l-.5-3-.5 2.5v.5l-1-.5v-.5l-.5-3-.5 2.5v.5l-1-.5v-.5l-.5-3-.5 2.5v.5l-1-.5v-.5l-.5-3-.5 2.5v.5l-1-.5v-.5l-.5-3-.5 2.5v.5l-1-.5v-.5l-.5-3-.5 2.5v.5l-1-.5v-.5l-.5-3-.5 2.5v.5l-1-.5v-.5l-.5-3-.5 2.5v.5l-1-.5v-.5l-.5-3-.5 2.5v.5l-1-.5v-.5l-.5-3-.5 2.5v.5l-1 .5 1 .5v2l-1 .5 1 .5v9.5l1 .5v-9.5l1 .5v9.5l1 .5v-9.5l1 .5v9.5l1 .5v-9.5l1 .5v9.5l1 .5v-9.5l1 .5v9.5l1 .5v-9.5l1 .5v9.5l1 .5v-9.5l1 .5v9.5l1 .5v-9.5l1 .5v9.5l1 .5v-9.5l1 .5v9.5l1 .5v-9.5l1 .5v9.5l1 .5v-9.5l1 .5v9.5l1 .5v-9.5l1 .5v9.5l1 .5v-9.5l1 .5v9.5l1 .5v-9.5l1 .5v9.5l1 .5v-9.5l1 .5v9.5l1 .5v-9.5l1 .5v9.5l1 .5v-9.5l1 .5v9.5l1 .5v-9.5l1 .5v9.5l1 .5v-9.5l1 .5v9.5l1 .5v-9.5l1 .5v9.5l1 .5v-9.5l1 .5v9.5l1 .5v-9.5l1 .5v9.5l1 .5v-9.5l1 .5v9.5l1 .5v-9.5l1 .5v9.5l1 .5v-9.5l1 .5v9.5l1 .5v-9.5l1 .5v9.5l1 .5v-9.5l1 .5v9.5l1 .5v-9.5l1 .5v9.5l1 .5v-9.5l1 .5v9.5l1 .5v-9.5l1 .5v9.5l1 .5v-9.5l3 1.5 1-.5-4-2v-2zm-58-27v-2l1 .5v2l-1-.5zm2 1v-2l1 .5v2l-1-.5zm2 1v-2l1 .5v2l-1-.5zm2 1v-2l1 .5v2l-1-.5zm2 1v-2l1 .5v2l-1-.5zm2 1v-2l1 .5v2l-1-.5zm2 1v-2l1 .5v2l-1-.5zm2 1v-2l1 .5v2l-1-.5zm2 1v-2l1 .5v2l-1-.5zm2 1v-2l1 .5v2l-1-.5zm2 1v-2l1 .5v2l-1-.5zm2 1v-2l1 .5v2l-1-.5zm2 1v-2l1 .5v2l-1-.5zm2 1v-2l1 .5v2l-1-.5zm2 1v-2l1 .5v2l-1-.5zm2 1v-2l1 .5v2l-1-.5zm2 1v-2l1 .5v2l-1-.5zm2 1v-2l1 .5v2l-1-.5zm2 1v-2l1 .5v2l-1-.5zm2 1v-2l1 .5v2l-1-.5zm2 1v-2l1 .5v2l-1-.5zm2 1v-2l1 .5v2l-1-.5zm2 1v-2l1 .5v2l-1-.5zm2 1v-2l1 .5v2l-1-.5zm2 1v-2l1 .5v2l-1-.5zm2 1v-2l1 .5v2l-1-.5zm2 1v-2l1 .5v2l-1-.5zm2 1v-2l1 .5v2l-1-.5zm2 1v-2l1 .5v2l-1-.5z" transform="translate(1024 1056)"/><path class="st13" d="M-956-987l-2-1-2 1v18l2 1 2-1z" transform="translate(1024 1056)"/><path class="st8" d="M-958-968l2-1v-18l-2 1z" transform="translate(1024 1056)"/><path class="st7" d="M-958-968l-2-1v-18l2 1z" transform="translate(1024 1056)"/></g><g id="i2265_1_"><path class="st10" d="M-996-1007l-14.2 7.1.4.9 2.8-1.4v8h1v-8.5l1-.5v8h1v-8.5l1-.5v8.3h1v-8.8l1-.5v8.2h1v-8.7l1-.5v8.2h1v-8.7l2-1z" transform="translate(1064 1024)"/><path class="st15" d="M-996-1007l-14.2 7.1.4.9 2.8-1.4v8h1v-8.5l1-.5v8h1v-8.5l1-.5v8.3h1v-8.8l1-.5v8.2h1v-8.7l1-.5v8.2h1v-8.7l2-1z" transform="translate(1064 1024)"/><path class="st10" d="M-986-1001l-12-6v1.1l2 1v8.7h1v-8.2l1 .5v8.8h1v-8.3l1 .5v8.5h1v-8l1 .5v8.5h1v-8l1 .5v8.5h1v-8l1 .4z" transform="translate(1064 1024)"/><path class="st16" d="M-986-1001l-12-6v1.1l2 1v8.7h1v-8.2l1 .5v8.8h1v-8.3l1 .5v8.5h1v-8l1 .5v8.5h1v-8l1 .5v8.5h1v-8l1 .4z" transform="translate(1064 1024)"/><path class="st17" d="M-978-978l-10 5-14-7-16 8-4-2 16-8-4-2 10-5z" transform="translate(1064 1024)"/><path class="st6" d="M-986-1011l-2 1v27l2 1 2-1v-27z" transform="translate(1064 1024)"/><path class="st15" d="M-984-983l-2 1v-27l2-1z" transform="translate(1064 1024)"/><path class="st16" d="M-988-983l2 1v-27l-2-1z" transform="translate(1064 1024)"/><path class="st6" d="M-986-993l-12-6-12 6v1l12 6 12-6z" transform="translate(1064 1024)"/><path class="st15" d="M-998-987v1l12-6v-1z" transform="translate(1064 1024)"/><path class="st16" d="M-998-987l-12-6v1l12 6z" transform="translate(1064 1024)"/><path class="st6" d="M-978-991l-2 1v11l2 1 2-1v-11z" transform="translate(1064 1024)"/><path class="st15" d="M-976-979l-2 1v-11l2-1z" transform="translate(1064 1024)"/><path class="st16" d="M-980-979l2 1v-11l-2-1z" transform="translate(1064 1024)"/><path class="st11" d="M-978-983.1l-9-13.4-.4.2v3l9 13.5.4-.2z" transform="translate(1064 1024)"/><path class="st15" d="M-978.4-982.9l.4-.2v3.1l-.4.2z" transform="translate(1064 1024)"/><path class="st10" d="M-978.6-982.1c0 .1-.1.2-.2.1s-.2-.2-.2-.4.1-.2.2-.1c.1.2.2.3.2.4zm-8.2-11.9c0 .1-.1.2-.2.1s-.2-.2-.2-.4.1-.2.2-.1c.1.2.2.3.2.4z" transform="translate(1064 1024)"/><path class="st16" d="M-987.4-996.3v3l9 13.5v-3.1z" transform="translate(1064 1024)"/><path class="st11" d="M-978-988.7l-9-13.4-.4.2v3l9 13.5.4-.2z" transform="translate(1064 1024)"/><path class="st15" d="M-978.4-988.5l.4-.2v3.1l-.4.2z" transform="translate(1064 1024)"/><path class="st10" d="M-978.6-987.7c0 .1-.1.2-.2.1s-.2-.2-.2-.4c0-.1.1-.2.2-.1.1.2.2.3.2.4zm-8.2-11.9c0 .1-.1.2-.2.1s-.2-.2-.2-.4c0-.1.1-.2.2-.1.1.2.2.3.2.4z" transform="translate(1064 1024)"/><path class="st16" d="M-987.4-1001.9v3l9 13.5v-3.1z" transform="translate(1064 1024)"/><path class="st6" d="M-996-986v1l2 1 9.6-4.8v-1l-2-1z" transform="translate(1064 1024)"/><path class="st15" d="M-994-985v1l9.6-4.8v-1z" transform="translate(1064 1024)"/><path class="st16" d="M-996-986v1l2 1v-1z" transform="translate(1064 1024)"/><path class="st6" d="M-994-983v1l2 1 9.6-4.8v-1l-2-1z" transform="translate(1064 1024)"/><path class="st15" d="M-992-982v1l9.6-4.8v-1z" transform="translate(1064 1024)"/><path class="st16" d="M-994-983v1l2 1v-1z" transform="translate(1064 1024)"/><path class="st6" d="M-992-980v1l2 1 9.6-4.8v-1l-2-1z" transform="translate(1064 1024)"/><path class="st15" d="M-990-979v1l9.6-4.8v-1z" transform="translate(1064 1024)"/><path class="st16" d="M-992-980v1l2 1v-1z" transform="translate(1064 1024)"/><path class="st6" d="M-990-977v1l2 1 9.6-4.8v-1l-2-1z" transform="translate(1064 1024)"/><path class="st15" d="M-988-976v1l9.6-4.8v-1z" transform="translate(1064 1024)"/><path class="st16" d="M-990-977v1l2 1v-1z" transform="translate(1064 1024)"/><path class="st11" d="M-987.6-978.3l-9-13.4-.4.2v3l9 13.5.4-.2z" transform="translate(1064 1024)"/><path class="st15" d="M-988-978.1l.4-.2v3.1l-.4.2z" transform="translate(1064 1024)"/><path class="st10" d="M-988.2-977.3c0 .1-.1.2-.2.1s-.2-.2-.2-.4c0-.1.1-.2.2-.1.1.2.2.3.2.4zm-8.2-11.9c0 .1-.1.2-.2.1s-.2-.2-.2-.4c0-.1.1-.2.2-.1s.2.3.2.4z" transform="translate(1064 1024)"/><path class="st16" d="M-997-991.5v3l9 13.5v-3.1z" transform="translate(1064 1024)"/><path class="st11" d="M-987.6-983.9l-9-13.4-.4.2v3l9 13.5.4-.2z" transform="translate(1064 1024)"/><path class="st15" d="M-988-983.7l.4-.2v3.1l-.4.2z" transform="translate(1064 1024)"/><path class="st10" d="M-988.2-982.9c0 .1-.1.2-.2.1s-.2-.2-.2-.4.1-.2.2-.1c.1.2.2.3.2.4zm-8.2-11.9c0 .1-.1.2-.2.1s-.2-.2-.2-.4c0-.1.1-.2.2-.1s.2.3.2.4z" transform="translate(1064 1024)"/><path class="st16" d="M-997-997.1v3l9 13.5v-3.1z" transform="translate(1064 1024)"/><path class="st6" d="M-990-985l-2 1v11l2 1 2-1v-11z" transform="translate(1064 1024)"/><path class="st15" d="M-988-973l-2 1v-11l2-1z" transform="translate(1064 1024)"/><path class="st16" d="M-992-973l2 1v-11l-2-1z" transform="translate(1064 1024)"/><path class="st6" d="M-998-1007l-2 1v29l2 1 2-1v-29z" transform="translate(1064 1024)"/><path class="st15" d="M-996-977l-2 1v-29l2-1z" transform="translate(1064 1024)"/><path class="st16" d="M-1000-977l2 1v-29l-2-1z" transform="translate(1064 1024)"/><path class="st6" d="M-1010-1011l-2 1v27l2 1 2-1v-27z" transform="translate(1064 1024)"/><path class="st15" d="M-1008-983l-2 1v-27l2-1z" transform="translate(1064 1024)"/><path class="st16" d="M-1012-983l2 1v-27l-2-1z" transform="translate(1064 1024)"/><path class="st10" d="M-1010-989.8l-2 1-.4-.2v-11l2-1 .4.2z" transform="translate(1064 1024)"/><path class="st16" d="M-1012.4-989l.4.2v-11l-.4-.2z" transform="translate(1064 1024)"/><path class="st11" d="M-1011.3-997c0 .1.1.2.2.1s.2-.2.2-.4c0-.1-.1-.2-.2-.1s-.2.3-.2.4zm0 4.2c0 .1.1.2.2.1s.2-.2.2-.4-.1-.2-.2-.1-.2.3-.2.4z" transform="translate(1064 1024)"/><path class="st15" d="M-1010-989.8l-2 1v-11l2-1z" transform="translate(1064 1024)"/><path class="st9" d="M-1012-1010l15-8 6-6-14 7z" transform="translate(1064 1024)"/><path class="st11" d="M-991-1024l-14 7 7 14v1l14-7v-1z" transform="translate(1064 1024)"/><path class="st15" d="M-998-1003l14-7v1l-14 7z" transform="translate(1064 1024)"/><path class="st10" d="M-1005-1017l-7 7v1l14 7v-1z" transform="translate(1064 1024)"/><path class="st11" d="M-1010.8-1009c0 .1-.1.2-.2.1s-.2-.2-.2-.4.1-.2.2-.1.2.3.2.4zm12.1 6c0 .1-.1.2-.2.1s-.2-.2-.2-.4.1-.2.2-.1.2.3.2.4z" transform="translate(1064 1024)"/><path class="st16" d="M-1005-1017l-7 7v1l14 7v-1z" transform="translate(1064 1024)"/><path class="st10" d="M-1008-993l-2.7 1.3c-.9.4-1.6 1.1-2 1.9l-5.5 9.4c-.5.8-1.2 1.5-2 1.9l-2 1c-1.8 1-2.8 2.7-2.8 4.5l.4.1 4.7-2.3c.9-.4 1.6-1.1 2-1.9l5.5-9.4c.5-.8 1.2-1.5 2-1.9l2.7-1.3v-3l-.3-.3z" transform="translate(1064 1024)"/><path class="st15" d="M-1007.6-992.9v3l-2.7 1.3c-.9.4-1.6 1.1-2 1.9l-5.5 9.4c-.5.8-1.2 1.5-2 1.9l-4.7 2.3c0-1.8 1-3.5 2.7-4.3l2-1c.9-.4 1.6-1.1 2-1.9l5.5-9.4c.5-.8 1.2-1.5 2-1.9l2.7-1.3z" transform="translate(1064 1024)"/><path d="M-1008-991l6 3-2.7 1.3c-.9.4-1.6 1.1-2 1.9l-5.5 9.4c-.5.8-1.2 1.5-2 1.9l-1.8.9c-.7.4-1 1-1 1.6l-6-3c0-.6.3-1.2.9-1.4l1.8-.9c.9-.4 1.6-1.1 2-1.9l5.5-9.4c.5-.8 1.2-1.5 2-1.9l2.8-1.5z" fill="#999" transform="translate(1064 1024)"/><path class="st10" d="M-1002.4-990.1l-2.7 1.3c-.9.4-1.6 1.1-2 1.9l-5.5 9.4c-.5.8-1.2 1.5-2 1.9l-2 1c-1.6.8-2.7 2.5-2.7 4.3l.3.3 4.7-2.3c.9-.4 1.6-1.1 2-1.9l5.5-9.4c.5-.8 1.2-1.5 2-1.9l2.8-1.5v-3l-.4-.1z" transform="translate(1064 1024)"/><path class="st15" d="M-1002-990v3l-2.7 1.3c-.9.4-1.6 1.1-2 1.9l-5.5 9.4c-.5.8-1.2 1.5-2 1.9l-4.8 2.5c0-1.8 1-3.5 2.7-4.3l2-1c.9-.4 1.6-1.1 2-1.9l5.5-9.4c.5-.8 1.2-1.5 2-1.9l2.8-1.5z" transform="translate(1064 1024)"/><path class="st10" d="M-1001-991.5c-.1 0-.2 0-.2-.1l-10-5c-.2-.1-.3-.4-.2-.7.1-.2.4-.3.7-.2l10 5c.2.1.3.4.2.7-.1.2-.3.3-.5.3z" transform="translate(1064 1024)"/><path class="st10" d="M-1000-985l-2 1-.4-.2v-11l2-1 .4.2z" transform="translate(1064 1024)"/><path class="st16" d="M-1002.4-984.2l.4.2v-11l-.4-.2z" transform="translate(1064 1024)"/><path class="st11" d="M-1001.3-992.2c0 .1.1.2.2.1s.2-.2.2-.4-.1-.2-.2-.1-.2.3-.2.4zm0 4.2c0 .1.1.2.2.1s.2-.2.2-.4c0-.1-.1-.2-.2-.1s-.2.3-.2.4z" transform="translate(1064 1024)"/><path class="st15" d="M-1000-985l-2 1v-11l2-1z" transform="translate(1064 1024)"/></g><g transform="translate(1040 1032)" id="i2267_1_"><ellipse class="st17" cx="-1014.5" cy="-985" rx="5.6" ry="3"/><path class="st6" d="M-1014-998c.6 0 1 .4 1 1v12c0 .6-.4 1-1 1s-1-.4-1-1v-12c0-.6.4-1 1-1z"/><path class="st19" d="M-1012.5-988c-1.4 0-2.5-1.1-2.5-2.5v-16c0-1.4 1.1-2.5 2.5-2.5s2.5 1.1 2.5 2.5v16c0 1.4-1.1 2.5-2.5 2.5z"/><path class="st19" d="M-1009.5-993c-1.4 0-2.5-1.1-2.5-2.5v-16c0-1.4 1.1-2.5 2.5-2.5s2.5 1.1 2.5 2.5v16c0 1.4-1.1 2.5-2.5 2.5z"/><path class="st19" d="M-1010.5-996c-1.4 0-2.5-1.1-2.5-2.5v-16c0-1.4 1.1-2.5 2.5-2.5s2.5 1.1 2.5 2.5v16c0 1.4-1.1 2.5-2.5 2.5z"/><path class="st19" d="M-1012.8-1023c-1.3.1-2.2 1.3-2.2 2.6 0 .3-.2.5-.5.4-.5-.1-1-.1-1.6.2-1.2.5-1.9 1.8-1.9 3.1v1.3c0 .2-.2.4-.4.4s-.4 0-.6.1c-1.2.2-2 1.3-2 2.5v15.8c0 .8.4 1.6 1 2.1s1 1.3 1 2.1v.9c0 1.4 1.1 2.5 2.5 2.5h1c1.4 0 2.5-1.1 2.5-2.5v-5.1c.6-.6 1-1.5 1-2.4v-8.1c.3.1.6.1 1 0 1.2-.2 2-1.4 2-2.6v-10.9c0-1.4-1.3-2.6-2.8-2.4z"/><path class="st19" d="M-1014-996.6c.6-.6 1-1.5 1-2.4v-2c0 .9-.4 1.8-1 2.4v2z"/><path d="M-1012.5-990c-1.1 0-2-.7-2.3-1.6-.4.4-1 .6-1.7.6h-1c-1.4 0-2.5-1.1-2.5-2.5v2c0 1.4 1.1 2.5 2.5 2.5h1c.6 0 1.2-.2 1.7-.6.4 1 1.3 1.6 2.3 1.6 1.4 0 2.5-1.1 2.5-2.5v-2c0 1.4-1.1 2.5-2.5 2.5zm3-5c-.2 0-.3 0-.5-.1v2c.2 0 .3.1.5.1 1.4 0 2.5-1.1 2.5-2.5v-2c0 1.4-1.1 2.5-2.5 2.5zm-3-4h-1c-.5.6-1.2 1-2 1-1.4 0-2.5-1.1-2.5-2.5v2c0 1.4 1.1 2.5 2.5 2.5.8 0 1.5-.4 2-1h1c1.4 0 2.5-1.1 2.5-2.5v-2c0 1.4-1.1 2.5-2.5 2.5zm0-8c-.2 0-.3 0-.5-.1v2c.2 0 .3.1.5.1 1.4 0 2.5-1.1 2.5-2.5v-2c0 1.4-1.1 2.5-2.5 2.5z"/><path d="M-1013-1018c-1.1 0-2 .9-2 2v.3h-1.2c-1.1 0-2 .9-2 2v1.4c-.9.2-1.6 1-1.6 2v2c0-1 .7-1.8 1.6-2v-1.4c0-1.1.9-2 2-2h1.2v-.3c0-1.1.9-2 2-2s2 .9 2 2v-2c0-1.1-.9-2-2-2z" opacity=".2" fill="#fff"/><path class="st17" d="M-1020-993.5v-.9c0-.8-.3-1.6-1-2.1-.6-.5-1-1.3-1-2.1v2c0 .8.4 1.6 1 2.1s1 1.3 1 2.1v-1.1z"/></g><g id="i2268_1_"><path class="st17" d="M-1025-1017.5l-4 2 14 7 4-2z" transform="translate(1128 1064)"/><path class="st5" d="M-1024.2-1023.3l-1-.5c-.1-.1-.3-.1-.4 0l-3.5 1.8c-.6.2-.9.8-.9 1.4v4.6l1 .5 4.7-2.9.1-4.9z" transform="translate(1128 1064)"/><path class="st5" d="M-1029-1015.5v-4.6c0-.6.3-1.2.9-1.4l3.5-1.8c.3-.1.6.1.6.4v4.9l-5 2.5z" transform="translate(1128 1064)"/><path class="st16" d="M-1030-1016l1 .5v-4.6l-1-.5z" transform="translate(1128 1064)"/><path class="st15" d="M-1029-1015.5v-4.6c0-.6.3-1.2.9-1.4l3.5-1.8c.3-.1.6.1.6.4v4.9l-5 2.5z" transform="translate(1128 1064)"/><path class="st6" d="M-1024-1021.5l-5 2.5v1l14 7v-1l5-2.5z" transform="translate(1128 1064)"/><path class="st16" d="M-1015-1012l-14-7v1l14 7z" transform="translate(1128 1064)"/><path class="st17" d="M-1013.8-1012.6l-14-7-.2.1 14 7zm1-.5l-14-7-.2.1 14 7zm1-.5l-14-7-.2.1 14 7zm1-.5l-14-7-.2.1 14 7z" transform="translate(1128 1064)"/><path class="st5" d="M-1009.2-1015.8l-1-.5c-.1-.1-.3-.1-.4 0l-3.5 1.8c-.5.3-.9.8-.9 1.4v4.6l1 .5 4.7-2.9.1-4.9z" transform="translate(1128 1064)"/><path class="st5" d="M-1014-1008v-4.6c0-.6.3-1.2.9-1.4l3.5-1.8c.3-.1.6.1.6.4v4.9l-5 2.5z" transform="translate(1128 1064)"/><path class="st16" d="M-1015-1008.5l1 .5v-4.6l-1-.5z" transform="translate(1128 1064)"/><path class="st15" d="M-1014-1008v-4.6c0-.6.3-1.2.9-1.4l3.5-1.8c.3-.1.6.1.6.4v4.9l-5 2.5z" transform="translate(1128 1064)"/></g></svg>