<svg xmlns="http://www.w3.org/2000/svg" width="88.8" height="98"><style>.st0{fill:#cc291f}.st1{opacity:.39}.st1,.st2,.st3{enable-background:new}.st2{opacity:6.000000e-02}.st3{opacity:.3}.st4{fill:#825012}.st5{fill:#f90}.st8{fill:#539b00}.st9{opacity:.2;fill:#fff;enable-background:new}</style><g id="i2144_1_"><path class="st0" d="M-406-784l-14.2 7.1.4.9 2.8-1.4v8h1v-8.5l1-.5v8h1v-8.5l1-.5v8.3h1v-8.8l1-.5v8.2h1v-8.7l1-.5v8.2h1v-8.7l2-1z" transform="translate(464 832)"/><path class="st1" d="M-406-784l-14.2 7.1.4.9 2.8-1.4v8h1v-8.5l1-.5v8h1v-8.5l1-.5v8.3h1v-8.8l1-.5v8.2h1v-8.7l1-.5v8.2h1v-8.7l2-1z" transform="translate(464 832)"/><path class="st0" d="M-396-778l-12-6v1.1l2 1v8.7h1v-8.2l1 .5v8.8h1v-8.3l1 .5v8.5h1v-8l1 .5v8.5h1v-8l1 .5v8.5h1v-8l1 .4z" transform="translate(464 832)"/><path class="st2" d="M-396-778l-12-6v1.1l2 1v8.7h1v-8.2l1 .5v8.8h1v-8.3l1 .5v8.5h1v-8l1 .5v8.5h1v-8l1 .5v8.5h1v-8l1 .4z" transform="translate(464 832)"/><path class="st3" d="M-388-755l-10 5-14-7-16 8-4-2 16-8-4-2 10-5z" transform="translate(464 832)"/><path class="st4" d="M-396-788l-2 1v27l2 1 2-1v-27z" transform="translate(464 832)"/><path class="st1" d="M-394-760l-2 1v-27l2-1z" transform="translate(464 832)"/><path class="st2" d="M-398-760l2 1v-27l-2-1z" transform="translate(464 832)"/><path class="st4" d="M-396-770l-12-6-12 6v1l12 6 12-6z" transform="translate(464 832)"/><path class="st1" d="M-408-764v1l12-6v-1z" transform="translate(464 832)"/><path class="st2" d="M-408-764l-12-6v1l12 6z" transform="translate(464 832)"/><path class="st4" d="M-388-768l-2 1v11l2 1 2-1v-11z" transform="translate(464 832)"/><path class="st1" d="M-386-756l-2 1v-11l2-1z" transform="translate(464 832)"/><path class="st2" d="M-390-756l2 1v-11l-2-1z" transform="translate(464 832)"/><path class="st5" d="M-388-760.1l-9-13.4-.4.2v3l9 13.5.4-.2z" transform="translate(464 832)"/><path class="st1" d="M-388.4-759.9l.4-.2v3.1l-.4.2z" transform="translate(464 832)"/><path class="st0" d="M-388.6-759.1c0 .1-.1.2-.2.1s-.2-.2-.2-.4.1-.2.2-.1c.1.2.2.3.2.4zm-8.2-11.9c0 .1-.1.2-.2.1s-.2-.2-.2-.4.1-.2.2-.1c.1.2.2.3.2.4z" transform="translate(464 832)"/><path class="st2" d="M-397.4-773.3v3l9 13.5v-3.1z" transform="translate(464 832)"/><path class="st5" d="M-388-765.7l-9-13.4-.4.2v3l9 13.5.4-.2z" transform="translate(464 832)"/><path class="st1" d="M-388.4-765.5l.4-.2v3.1l-.4.2z" transform="translate(464 832)"/><path class="st0" d="M-388.6-764.7c0 .1-.1.2-.2.1s-.2-.2-.2-.4c0-.1.1-.2.2-.1.1.2.2.3.2.4zm-8.2-11.9c0 .1-.1.2-.2.1s-.2-.2-.2-.4c0-.1.1-.2.2-.1.1.2.2.3.2.4z" transform="translate(464 832)"/><path class="st2" d="M-397.4-778.9v3l9 13.5v-3.1z" transform="translate(464 832)"/><path class="st4" d="M-406-763v1l2 1 9.6-4.8v-1l-2-1z" transform="translate(464 832)"/><path class="st1" d="M-404-762v1l9.6-4.8v-1z" transform="translate(464 832)"/><path class="st2" d="M-406-763v1l2 1v-1z" transform="translate(464 832)"/><path class="st4" d="M-404-760v1l2 1 9.6-4.8v-1l-2-1z" transform="translate(464 832)"/><path class="st1" d="M-402-759v1l9.6-4.8v-1z" transform="translate(464 832)"/><path class="st2" d="M-404-760v1l2 1v-1z" transform="translate(464 832)"/><path class="st4" d="M-402-757v1l2 1 9.6-4.8v-1l-2-1z" transform="translate(464 832)"/><path class="st1" d="M-400-756v1l9.6-4.8v-1z" transform="translate(464 832)"/><path class="st2" d="M-402-757v1l2 1v-1z" transform="translate(464 832)"/><path class="st4" d="M-400-754v1l2 1 9.6-4.8v-1l-2-1z" transform="translate(464 832)"/><path class="st1" d="M-398-753v1l9.6-4.8v-1z" transform="translate(464 832)"/><path class="st2" d="M-400-754v1l2 1v-1z" transform="translate(464 832)"/><path class="st5" d="M-397.6-755.3l-9-13.4-.4.2v3l9 13.5.4-.2z" transform="translate(464 832)"/><path class="st1" d="M-398-755.1l.4-.2v3.1l-.4.2z" transform="translate(464 832)"/><path class="st0" d="M-398.2-754.3c0 .1-.1.2-.2.1s-.2-.2-.2-.4c0-.1.1-.2.2-.1.1.2.2.3.2.4zm-8.2-11.9c0 .1-.1.2-.2.1s-.2-.2-.2-.4c0-.1.1-.2.2-.1s.2.3.2.4z" transform="translate(464 832)"/><path class="st2" d="M-407-768.5v3l9 13.5v-3.1z" transform="translate(464 832)"/><path class="st5" d="M-397.6-760.9l-9-13.4-.4.2v3l9 13.5.4-.2z" transform="translate(464 832)"/><path class="st1" d="M-398-760.7l.4-.2v3.1l-.4.2z" transform="translate(464 832)"/><path class="st0" d="M-398.2-759.9c0 .1-.1.2-.2.1s-.2-.2-.2-.4.1-.2.2-.1c.1.2.2.3.2.4zm-8.2-11.9c0 .1-.1.2-.2.1s-.2-.2-.2-.4c0-.1.1-.2.2-.1s.2.3.2.4z" transform="translate(464 832)"/><path class="st2" d="M-407-774.1v3l9 13.5v-3.1z" transform="translate(464 832)"/><path class="st4" d="M-400-762l-2 1v11l2 1 2-1v-11z" transform="translate(464 832)"/><path class="st1" d="M-398-750l-2 1v-11l2-1z" transform="translate(464 832)"/><path class="st2" d="M-402-750l2 1v-11l-2-1z" transform="translate(464 832)"/><path class="st4" d="M-408-784l-2 1v29l2 1 2-1v-29z" transform="translate(464 832)"/><path class="st1" d="M-406-754l-2 1v-29l2-1z" transform="translate(464 832)"/><path class="st2" d="M-410-754l2 1v-29l-2-1z" transform="translate(464 832)"/><path class="st4" d="M-420-788l-2 1v27l2 1 2-1v-27z" transform="translate(464 832)"/><path class="st1" d="M-418-760l-2 1v-27l2-1z" transform="translate(464 832)"/><path class="st2" d="M-422-760l2 1v-27l-2-1z" transform="translate(464 832)"/><path class="st0" d="M-420-766.8l-2 1-.4-.2v-11l2-1 .4.2z" transform="translate(464 832)"/><path class="st2" d="M-422.4-766l.4.2v-11l-.4-.2z" transform="translate(464 832)"/><path class="st5" d="M-421.3-774c0 .1.1.2.2.1s.2-.2.2-.4c0-.1-.1-.2-.2-.1s-.2.3-.2.4zm0 4.2c0 .1.1.2.2.1s.2-.2.2-.4-.1-.2-.2-.1-.2.3-.2.4z" transform="translate(464 832)"/><path class="st1" d="M-420-766.8l-2 1v-11l2-1z" transform="translate(464 832)"/><path fill="#fc0" d="M-422-787l15-8 6-6-14 7z" transform="translate(464 832)"/><path class="st5" d="M-401-801l-14 7 7 14v1l14-7v-1z" transform="translate(464 832)"/><path class="st1" d="M-408-780l14-7v1l-14 7z" transform="translate(464 832)"/><path class="st0" d="M-415-794l-7 7v1l14 7v-1z" transform="translate(464 832)"/><path class="st5" d="M-420.8-786c0 .1-.1.2-.2.1s-.2-.2-.2-.4.1-.2.2-.1.2.3.2.4zm12.1 6c0 .1-.1.2-.2.1s-.2-.2-.2-.4.1-.2.2-.1.2.3.2.4z" transform="translate(464 832)"/><path class="st2" d="M-415-794l-7 7v1l14 7v-1z" transform="translate(464 832)"/><path class="st0" d="M-418-770l-2.7 1.3c-.9.4-1.6 1.1-2 1.9l-5.5 9.4c-.5.8-1.2 1.5-2 1.9l-2 1c-1.8 1-2.8 2.7-2.8 4.5l.4.1 4.7-2.3c.9-.4 1.6-1.1 2-1.9l5.5-9.4c.5-.8 1.2-1.5 2-1.9l2.7-1.3v-3l-.3-.3z" transform="translate(464 832)"/><path class="st1" d="M-417.6-769.9v3l-2.7 1.3c-.9.4-1.6 1.1-2 1.9l-5.5 9.4c-.5.8-1.2 1.5-2 1.9l-4.7 2.3c0-1.8 1-3.5 2.7-4.3l2-1c.9-.4 1.6-1.1 2-1.9l5.5-9.4c.5-.8 1.2-1.5 2-1.9l2.7-1.3z" transform="translate(464 832)"/><path d="M-418-768l6 3-2.7 1.3c-.9.4-1.6 1.1-2 1.9l-5.5 9.4c-.5.8-1.2 1.5-2 1.9l-1.8.9c-.7.4-1 1-1 1.6l-6-3c0-.6.3-1.2.9-1.4l1.8-.9c.9-.4 1.6-1.1 2-1.9l5.5-9.4c.5-.8 1.2-1.5 2-1.9l2.8-1.5z" fill="#999" transform="translate(464 832)"/><path class="st0" d="M-412.4-767.1l-2.7 1.3c-.9.4-1.6 1.1-2 1.9l-5.5 9.4c-.5.8-1.2 1.5-2 1.9l-2 1c-1.6.8-2.7 2.5-2.7 4.3l.3.3 4.7-2.3c.9-.4 1.6-1.1 2-1.9l5.5-9.4c.5-.8 1.2-1.5 2-1.9l2.8-1.5v-3l-.4-.1z" transform="translate(464 832)"/><path class="st1" d="M-412-767v3l-2.7 1.3c-.9.4-1.6 1.1-2 1.9l-5.5 9.4c-.5.8-1.2 1.5-2 1.9l-4.8 2.5c0-1.8 1-3.5 2.7-4.3l2-1c.9-.4 1.6-1.1 2-1.9l5.5-9.4c.5-.8 1.2-1.5 2-1.9l2.8-1.5z" transform="translate(464 832)"/><path class="st0" d="M-411-768.5c-.1 0-.2 0-.2-.1l-10-5c-.2-.1-.3-.4-.2-.7.1-.2.4-.3.7-.2l10 5c.2.1.3.4.2.7-.1.2-.3.3-.5.3z" transform="translate(464 832)"/><path class="st0" d="M-410-762l-2 1-.4-.2v-11l2-1 .4.2z" transform="translate(464 832)"/><path class="st2" d="M-412.4-761.2l.4.2v-11l-.4-.2z" transform="translate(464 832)"/><path class="st5" d="M-411.3-769.2c0 .1.1.2.2.1s.2-.2.2-.4-.1-.2-.2-.1-.2.3-.2.4zm0 4.2c0 .1.1.2.2.1s.2-.2.2-.4c0-.1-.1-.2-.2-.1s-.2.3-.2.4z" transform="translate(464 832)"/><path class="st1" d="M-410-762l-2 1v-11l2-1z" transform="translate(464 832)"/></g><g transform="translate(480 808)" id="i2154_1_"><ellipse class="st3" cx="-424.5" cy="-784" rx="6.5" ry="2"/><path class="st4" d="M-426-787h3v4h-3z"/><circle class="st8" cx="-419" cy="-788.9" r="3.8"/><circle class="st8" cx="-421.1" cy="-793.9" r="5.3"/><circle class="st8" cx="-426.4" cy="-790.4" r="5.3"/><circle class="st8" cx="-429.3" cy="-792.8" r="3.5"/><path class="st4" d="M-426.9-795.9c-1 0-1.8-.3-1.8-1.2v-1.5h-.6v1.8c0 1 .8 1.8 1.8 1.8h.6v-.9z"/><circle class="st8" cx="-427.1" cy="-789.1" r="5.7"/><path class="st3" d="M-427.1-784.8c-2.9 0-5.3-2.2-5.7-5v.7c0 3.2 2.6 5.7 5.7 5.7s5.7-2.6 5.7-5.7v-.7c-.4 2.8-2.8 5-5.7 5z"/><circle class="st8" cx="-425.2" cy="-796.3" r="4.7"/><circle class="st8" cx="-421.4" cy="-797.8" r="2.6"/><path class="st9" d="M-429.8-793.9c1.3 0 2.4.7 2.9 1.8.2 0 .4-.1.6-.1 1.1 0 2 .5 2.6 1.3-.2-1.1-1.2-1.9-2.3-1.9h-.1c-.3-1.3-1.5-2.4-2.9-2.4-1.2 0-2.2.7-2.7 1.7.6-.2 1.2-.4 1.9-.4z"/><path class="st4" d="M-425.2-795.5c.1.1.3.2.4.3h.2v-1.7c-.2 0-.4 0-.6-.1v1.5z"/><path class="st9" d="M-424.9-798.6c1.4 0 2.5 1.1 2.6 2.5.3-.1.6-.1.9-.1 1.5 0 2.7 1 3.1 2.3.1-.3.1-.5.1-.8 0-1.5-1.2-2.6-2.6-2.6-.3 0-.6.1-.9.2-.1-1.1-1-1.9-2-1.9-.6 0-1.1.2-1.5.6.1-.2.2-.2.3-.2z"/><path class="st3" d="M-415.8-793.1c-1 1.1-2.4 1.8-4 1.8h-.4c.6.6.9 1.4 1 2.3 1.8-.6 3.1-2.2 3.4-4.1zm-1.5 6c.2.4.3.9.3 1.4 1-.6 1.7-1.7 1.8-2.9-.5.7-1.2 1.3-2.1 1.5z"/><circle class="st8" cx="-421.8" cy="-788.8" r="5.4"/><path class="st9" d="M-424-790.4c.7 0 1.4.2 1.9.5.7-.7 1.7-1.1 2.8-1.1.9 0 1.8.3 2.5.8-.6-1.2-1.9-2-3.4-2-1 0-1.8.3-2.5.9-.4-.2-.9-.3-1.3-.3-1.4 0-2.6 1-2.9 2.4.8-.8 1.8-1.2 2.9-1.2z"/><path class="st3" d="M-421.2-784.5c-2.2 0-4.1-1.2-5.2-3-.2 0-.2 4.1 4.6 4.1 2.1 0 3.9-1.2 4.8-2.9-1.1 1.1-2.6 1.8-4.2 1.8z"/><path class="st4" d="M-422-793.6c0 1-.9 1.2-2 1.2v.4h.6c1 0 1.4-.4 1.4-1.4v-1.2 1z"/></g><g transform="translate(432 800)" id="i2155_1_"><ellipse class="st3" cx="-424.5" cy="-762" rx="5.6" ry="3"/><path class="st4" d="M-424-775c.6 0 1 .4 1 1v12c0 .6-.4 1-1 1s-1-.4-1-1v-12c0-.6.4-1 1-1z"/><path class="st8" d="M-422.5-765c-1.4 0-2.5-1.1-2.5-2.5v-16c0-1.4 1.1-2.5 2.5-2.5s2.5 1.1 2.5 2.5v16c0 1.4-1.1 2.5-2.5 2.5z"/><path class="st8" d="M-419.5-770c-1.4 0-2.5-1.1-2.5-2.5v-16c0-1.4 1.1-2.5 2.5-2.5s2.5 1.1 2.5 2.5v16c0 1.4-1.1 2.5-2.5 2.5z"/><path class="st8" d="M-420.5-773c-1.4 0-2.5-1.1-2.5-2.5v-16c0-1.4 1.1-2.5 2.5-2.5s2.5 1.1 2.5 2.5v16c0 1.4-1.1 2.5-2.5 2.5z"/><path class="st8" d="M-422.8-800c-1.3.1-2.2 1.3-2.2 2.6 0 .3-.2.5-.5.4-.5-.1-1-.1-1.6.2-1.2.5-1.9 1.8-1.9 3.1v1.3c0 .2-.2.4-.4.4s-.4 0-.6.1c-1.2.2-2 1.3-2 2.5v15.8c0 .8.4 1.6 1 2.1s1 1.3 1 2.1v.9c0 1.4 1.1 2.5 2.5 2.5h1c1.4 0 2.5-1.1 2.5-2.5v-5.1c.6-.6 1-1.5 1-2.4v-8.1c.3.1.6.1 1 0 1.2-.2 2-1.4 2-2.6v-10.9c0-1.4-1.3-2.6-2.8-2.4z"/><path class="st8" d="M-424-773.6c.6-.6 1-1.5 1-2.4v-2c0 .9-.4 1.8-1 2.4v2z"/><path d="M-422.5-767c-1.1 0-2-.7-2.3-1.6-.4.4-1 .6-1.7.6h-1c-1.4 0-2.5-1.1-2.5-2.5v2c0 1.4 1.1 2.5 2.5 2.5h1c.6 0 1.2-.2 1.7-.6.4 1 1.3 1.6 2.3 1.6 1.4 0 2.5-1.1 2.5-2.5v-2c0 1.4-1.1 2.5-2.5 2.5zm3-5c-.2 0-.3 0-.5-.1v2c.2 0 .3.1.5.1 1.4 0 2.5-1.1 2.5-2.5v-2c0 1.4-1.1 2.5-2.5 2.5zm-3-4h-1c-.5.6-1.2 1-2 1-1.4 0-2.5-1.1-2.5-2.5v2c0 1.4 1.1 2.5 2.5 2.5.8 0 1.5-.4 2-1h1c1.4 0 2.5-1.1 2.5-2.5v-2c0 1.4-1.1 2.5-2.5 2.5zm0-8c-.2 0-.3 0-.5-.1v2c.2 0 .3.1.5.1 1.4 0 2.5-1.1 2.5-2.5v-2c0 1.4-1.1 2.5-2.5 2.5z"/><path class="st9" d="M-423-795c-1.1 0-2 .9-2 2v.3h-1.2c-1.1 0-2 .9-2 2v1.4c-.9.2-1.6 1-1.6 2v2c0-1 .7-1.8 1.6-2v-1.4c0-1.1.9-2 2-2h1.2v-.3c0-1.1.9-2 2-2s2 .9 2 2v-2c0-1.1-.9-2-2-2z"/><path class="st3" d="M-430-770.5v-.9c0-.8-.3-1.6-1-2.1-.6-.5-1-1.3-1-2.1v2c0 .8.4 1.6 1 2.1s1 1.3 1 2.1v-1.1z"/></g><g transform="translate(504 880)" id="i2156_1_"><ellipse class="st3" cx="-424.5" cy="-784" rx="6.5" ry="2"/><path class="st4" d="M-426-787h3v4h-3z"/><circle class="st8" cx="-419" cy="-788.9" r="3.8"/><circle class="st8" cx="-421.1" cy="-793.9" r="5.3"/><circle class="st8" cx="-426.4" cy="-790.4" r="5.3"/><circle class="st8" cx="-429.3" cy="-792.8" r="3.5"/><path class="st4" d="M-426.9-795.9c-1 0-1.8-.3-1.8-1.2v-1.5h-.6v1.8c0 1 .8 1.8 1.8 1.8h.6v-.9z"/><circle class="st8" cx="-427.1" cy="-789.1" r="5.7"/><path class="st3" d="M-427.1-784.8c-2.9 0-5.3-2.2-5.7-5v.7c0 3.2 2.6 5.7 5.7 5.7s5.7-2.6 5.7-5.7v-.7c-.4 2.8-2.8 5-5.7 5z"/><circle class="st8" cx="-425.2" cy="-796.3" r="4.7"/><circle class="st8" cx="-421.4" cy="-797.8" r="2.6"/><path class="st9" d="M-429.8-793.9c1.3 0 2.4.7 2.9 1.8.2 0 .4-.1.6-.1 1.1 0 2 .5 2.6 1.3-.2-1.1-1.2-1.9-2.3-1.9h-.1c-.3-1.3-1.5-2.4-2.9-2.4-1.2 0-2.2.7-2.7 1.7.6-.2 1.2-.4 1.9-.4z"/><path class="st4" d="M-425.2-795.5c.1.1.3.2.4.3h.2v-1.7c-.2 0-.4 0-.6-.1v1.5z"/><path class="st9" d="M-424.9-798.6c1.4 0 2.5 1.1 2.6 2.5.3-.1.6-.1.9-.1 1.5 0 2.7 1 3.1 2.3.1-.3.1-.5.1-.8 0-1.5-1.2-2.6-2.6-2.6-.3 0-.6.1-.9.2-.1-1.1-1-1.9-2-1.9-.6 0-1.1.2-1.5.6.1-.2.2-.2.3-.2z"/><path class="st3" d="M-415.8-793.1c-1 1.1-2.4 1.8-4 1.8h-.4c.6.6.9 1.4 1 2.3 1.8-.6 3.1-2.2 3.4-4.1zm-1.5 6c.2.4.3.9.3 1.4 1-.6 1.7-1.7 1.8-2.9-.5.7-1.2 1.3-2.1 1.5z"/><circle class="st8" cx="-421.8" cy="-788.8" r="5.4"/><path class="st9" d="M-424-790.4c.7 0 1.4.2 1.9.5.7-.7 1.7-1.1 2.8-1.1.9 0 1.8.3 2.5.8-.6-1.2-1.9-2-3.4-2-1 0-1.8.3-2.5.9-.4-.2-.9-.3-1.3-.3-1.4 0-2.6 1-2.9 2.4.8-.8 1.8-1.2 2.9-1.2z"/><path class="st3" d="M-421.2-784.5c-2.2 0-4.1-1.2-5.2-3-.2 0-.2 4.1 4.6 4.1 2.1 0 3.9-1.2 4.8-2.9-1.1 1.1-2.6 1.8-4.2 1.8z"/><path class="st4" d="M-422-793.6c0 1-.9 1.2-2 1.2v.4h.6c1 0 1.4-.4 1.4-1.4v-1.2 1z"/></g><g transform="translate(440 824)" id="i2157_1_"><ellipse class="st3" cx="-423.5" cy="-746" rx="7.5" ry="4"/><path class="st4" d="M-422-770v24c0 .6-.7 1-1.5 1s-1.5-.4-1.5-1v-24h3z"/><circle class="st8" cx="-414.5" cy="-771.5" r="6.5"/><circle class="st8" cx="-418" cy="-780" r="9"/><path class="st4" d="M-424-757.6c-2.6 0-3-.9-3-3.4v-8h-1v10c0 1.7 1.3 3 3 3h1v-1.6zm1 1.4c1.7 0 3-.4 3-2.1v-9.7h1v10c0 1.7-1.3 3-3 3h-1v-1.2z"/><path class="st4" d="M-427-759.2c-1.7 0-2-1.3-2-2.1v-9.7h-1v10c0 1.7 1.3 3 3 3v-1.2z"/><circle class="st8" cx="-428" cy="-770" r="9"/><circle class="st8" cx="-433" cy="-774" r="6"/><path class="st4" d="M-428-770.2c-1.7 0-3-.4-3-2.1v-2.7h-1v3c0 1.7 1.3 3 3 3h1v-1.2z"/><circle class="st8" cx="-429" cy="-782" r="8"/><circle class="st8" cx="-425" cy="-786" r="8"/><circle class="st8" cx="-418.5" cy="-788.5" r="4.5"/><path class="st9" d="M-432.9-780c2.2 0 4.1 1.3 4.9 3.1.3-.1.7-.1 1.1-.1 1.8 0 3.4.9 4.4 2.2-.4-1.8-2-3.2-3.9-3.2h-.1c-.5-2.3-2.5-4-4.9-4-2 0-3.7 1.2-4.5 2.9.8-.6 1.9-.9 3-.9z"/><path class="st4" d="M-425-782.6c.2.2.5.4.7.6h.3v-3c-.3 0-.7-.1-1-.2v2.6z"/><path class="st9" d="M-424.5-790c2.4 0 4.3 1.9 4.5 4.2.5-.1 1-.2 1.5-.2 2.5 0 4.6 1.6 5.3 3.9.1-.4.2-.9.2-1.4 0-2.5-2-4.5-4.5-4.5-.5 0-1 .1-1.5.3-.1-1.8-1.6-3.3-3.5-3.3-1 0-1.9.4-2.5 1h.5z"/><path class="st3" d="M-409.1-778.6c-1.7 1.9-4.1 3.1-6.8 3.1h-.6c1 1.1 1.6 2.4 1.7 3.9 2.9-1.1 5.2-3.8 5.7-7zm-2.4 10.3c.3.7.4 1.5.5 2.3 1.7-1.1 2.9-2.9 3-5-.8 1.3-2.1 2.2-3.5 2.7zm-21.8-11.7c-1.6-1.4-2.7-3.5-2.7-5.9-.6 1.1-1 2.5-1 3.9 0 1.1.2 2.1.6 3.1.9-.7 2-1 3.1-1.1z"/><path class="st4" d="M-418-778.4c0 1.7-1.3 2.1-3 2.1v1.3h1c1.7 0 3-1.3 3-3v-2c-.3 0-.7-.1-1-.2v1.8z"/><circle class="st8" cx="-420.2" cy="-767.2" r="9.3"/><path class="st9" d="M-424-770c1.2 0 2.3.3 3.3.8 1.2-1.1 2.9-1.8 4.7-1.8 1.6 0 3.1.5 4.2 1.4-1.1-2-3.3-3.4-5.7-3.4-1.6 0-3.1.6-4.2 1.6-.7-.4-1.5-.6-2.3-.6-2.4 0-4.4 1.7-4.9 4 1.3-1.2 3-2 4.9-2z"/><path class="st3" d="M-419.2-760c-3.8 0-7-2-8.8-5h-.9c-3.5 0-6.5-2-8-4.9 0 4.9 4 8.9 8.9 8.9h.9c1.7 1.9 4.1 3 6.8 3 3.6 0 6.6-2 8.2-4.9-1.8 1.8-4.4 2.9-7.1 2.9z"/></g></svg>