<svg xmlns="http://www.w3.org/2000/svg" width="40.3" height="40.1"><style>.st1{fill:#2d3134}.st2{fill:#f90}.st3{opacity:.29}.st3,.st4,.st5,.st7{enable-background:new}.st4{opacity:.11}.st5{opacity:.2}.st7{opacity:6.000000e-02}.st8{fill:#a9abb0}.st9{fill:#808285}.st10{opacity:.39;enable-background:new}</style><g id="i1582_1_"><path opacity=".3" d="M8840-4079.1l-20 9.9-100-49.8-20 10 60 30-40 20-60-30-20 10 100 49.8-20 10.1 200 100 120-60z" transform="matrix(-.1 0 0 .1 904 432)"/><path class="st1" d="M8918.8-3945.8l78.2-39.1-11.4-16.8-79.6 39.8z" transform="matrix(-.1 0 0 .1 904 432)"/><path class="st2" d="M8790-4089.1l10.5-5.2v-4.5L8698-4150l-10.5 5.3v1.5l13.5 9.7z" transform="matrix(-.1 0 0 .1 904 432)"/><path class="st3" d="M8687.5-4144.7v1.5l13.5 9.7 89 44.4v-4.5z" transform="matrix(-.1 0 0 .1 904 432)"/><path class="st2" d="M8740-4064l10.5-5.2v-4.5L8648-4125l-10.5 5.3v1.5l13.5 9.7z" transform="matrix(-.1 0 0 .1 904 432)"/><path class="st3" d="M8637.5-4119.7v1.5l13.5 9.7 89 44.5v-4.5z" transform="matrix(-.1 0 0 .1 904 432)"/><path class="st2" d="M8800.5-4162.5l-10.5 5.3v68.2l6 3 10.5-5.2v-52.5l4.5-2.3v-11.2z" transform="matrix(-.1 0 0 .1 904 432)"/><path class="st3" d="M8790-4157.2v68.2l6 3v-57l4.5 2.3v-11.3z" transform="matrix(-.1 0 0 .1 904 432)"/><path class="st4" d="M8806.5-4143.7v52.5l-10.5 5.2v-57l4.5 2.3z" transform="matrix(-.1 0 0 .1 904 432)"/><path class="st2" d="M8750.5-4137.5l-10.5 5.3v68.2l6 3 10.5-5.2v-52.5l4.5-2.3v-11.2z" transform="matrix(-.1 0 0 .1 904 432)"/><path class="st3" d="M8740-4132.2v68.2l6 3v-57l4.5 2.3v-11.3z" transform="matrix(-.1 0 0 .1 904 432)"/><path class="st4" d="M8756.5-4118.7v52.5l-10.5 5.2v-57l4.5 2.3zm54.5-38.5v11.2l-10.5 5.3v-11.3z" transform="matrix(-.1 0 0 .1 904 432)"/><path class="st4" d="M8761-4132.2v11.2l-10.5 5.3v-11.3z" transform="matrix(-.1 0 0 .1 904 432)"/><path class="st1" d="M8833-4100.5l3-1.5v-129.7l-7.5-3.8-3 1.5v129.8z" transform="matrix(-.1 0 0 .1 904 432)"/><path class="st4" d="M8836-4231.7v129.7l-3 1.5v-129.7z" transform="matrix(-.1 0 0 .1 904 432)"/><path class="st3" d="M8825.5-4234v129.8l7.5 3.7v-129.7z" transform="matrix(-.1 0 0 .1 904 432)"/><path class="st1" d="M8737-4096l94.5-47.2v-9l-3-1.5-94.5 47.2v9z" transform="matrix(-.1 0 0 .1 904 432)"/><path class="st4" d="M8831.5-4152.2v9L8737-4096v-9z" transform="matrix(-.1 0 0 .1 904 432)"/><path class="st3" d="M8734-4106.5v9l3 1.5v-9z" transform="matrix(-.1 0 0 .1 904 432)"/><path class="st1" d="M8738.5-4174l94.5-47.2v-9l-7.5-3.8-94.5 47.3v9z" transform="matrix(-.1 0 0 .1 904 432)"/><path class="st4" d="M8833-4230.2v9l-94.5 47.2v-9z" transform="matrix(-.1 0 0 .1 904 432)"/><path class="st3" d="M8731-4186.7v9l7.5 3.7v-9z" transform="matrix(-.1 0 0 .1 904 432)"/><path class="st1" d="M8737-4055.5l94.5-47.2v-9l-3-1.5-94.5 47.2v9z" transform="matrix(-.1 0 0 .1 904 432)"/><path class="st4" d="M8831.5-4111.7v9l-94.5 47.2v-9z" transform="matrix(-.1 0 0 .1 904 432)"/><path class="st3" d="M8734-4066v9l3 1.5v-9z" transform="matrix(-.1 0 0 .1 904 432)"/><path class="st1" d="M8735.5-4051.7l3-1.5V-4183l-7.5-3.7-3 1.5v129.7z" transform="matrix(-.1 0 0 .1 904 432)"/><path class="st4" d="M8738.5-4183v129.8l-3 1.5v-129.8z" transform="matrix(-.1 0 0 .1 904 432)"/><path class="st3" d="M8728-4185.2v129.7l7.5 3.8v-129.8z" transform="matrix(-.1 0 0 .1 904 432)"/><path class="st1" d="M8794.8-4242.7l12.7-6 12 6v208.8l-50.2 25.5-12-6v-208.8l12-6 12 6v185.6l13.5-6.8z" transform="matrix(-.1 0 0 .1 904 432)"/><path class="st4" d="M8807.5-4236.7v199.1l-26.2 12.7v-198.3l-12 6v208.8l50.2-25.5v-208.8z" transform="matrix(-.1 0 0 .1 904 432)"/><path class="st3" d="M8757.3-4014.4l12 6v-208.8l-12-6zm37.5-30l12.7 6.8v-199.1l-12.7-6z" transform="matrix(-.1 0 0 .1 904 432)"/><path class="st1" d="M8807.5-4239l7.5-3.7v-71.3l-7.5-3.7-7.5 3.7v71.3z" transform="matrix(-.1 0 0 .1 904 432)"/><path class="st4" d="M8815-4314v71.3l-7.5 3.7v-71.2z" transform="matrix(-.1 0 0 .1 904 432)"/><path class="st3" d="M8800-4314v71.3l7.5 3.7v-71.2z" transform="matrix(-.1 0 0 .1 904 432)"/><path class="st1" d="M8769.3-4219.5l7.5-3.7v-71.3l-7.5-3.7-7.5 3.7v71.3z" transform="matrix(-.1 0 0 .1 904 432)"/><path class="st4" d="M8776.8-4294.5v71.3l-7.5 3.7v-71.2z" transform="matrix(-.1 0 0 .1 904 432)"/><path class="st3" d="M8761.8-4294.5v71.3l7.5 3.7v-71.2z" transform="matrix(-.1 0 0 .1 904 432)"/><path class="st1" d="M8788.8-4204.5c-2.9 0-5.3 1.2-5.3 2.6v166.9c0 1.4 2.4 2.6 5.3 2.6s5.3-1.2 5.3-2.6v-166.9c-.1-1.4-2.5-2.6-5.3-2.6z" transform="matrix(-.1 0 0 .1 904 432)"/><path class="st5" d="M8788.8-4199.2c-2.9 0-5.3-1.2-5.3-2.6v166.8c0 1.4 2.4 2.6 5.3 2.6s5.3-1.2 5.3-2.6v-166.9c-.1 1.5-2.5 2.7-5.3 2.7z" transform="matrix(-.1 0 0 .1 904 432)"/><path class="st1" d="M8788.8-4224c-4.1 0-7.5 1.7-7.5 3.8v25.5c0 2.1 3.4 3.8 7.5 3.8s7.5-1.7 7.5-3.8v-25.5c0-2.1-3.4-3.8-7.5-3.8z" transform="matrix(-.1 0 0 .1 904 432)"/><path class="st5" d="M8788.8-4216.5c-4.1 0-7.5-1.7-7.5-3.8v25.5c0 2.1 3.4 3.8 7.5 3.8s7.5-1.7 7.5-3.8v-25.5c0 2.1-3.4 3.8-7.5 3.8z" transform="matrix(-.1 0 0 .1 904 432)"/><path d="M8788.8-4289.2c-2.1 0-3.8.8-3.8 1.9v66.8c0 1 1.7 1.9 3.8 1.9 2.1 0 3.8-.8 3.8-1.9v-66.9c-.1-1-1.8-1.8-3.8-1.8z" fill="#e5e5e5" transform="matrix(-.1 0 0 .1 904 432)"/><path class="st5" d="M8788.8-4285.5c-2.1 0-3.8-.8-3.8-1.9v66.8c0 1 1.7 1.9 3.8 1.9 2.1 0 3.8-.8 3.8-1.9v-66.8c-.1 1.1-1.8 1.9-3.8 1.9z" transform="matrix(-.1 0 0 .1 904 432)"/><path class="st1" d="M8788.8-4308c-4.1 0-7.5 1.7-7.5 3.8v16.5c0 2.1 3.4 3.8 7.5 3.8s7.5-1.7 7.5-3.8v-16.5c0-2.1-3.4-3.8-7.5-3.8z" transform="matrix(-.1 0 0 .1 904 432)"/><path class="st5" d="M8788.8-4300.5c-4.1 0-7.5-1.7-7.5-3.8v16.5c0 2.1 3.4 3.8 7.5 3.8s7.5-1.7 7.5-3.8v-16.4c0 2-3.4 3.7-7.5 3.7z" transform="matrix(-.1 0 0 .1 904 432)"/><path class="st1" d="M8767-4288.5l49.5-24.7v-3l-7.5-3.8-49.5 24.8v3z" transform="matrix(-.1 0 0 .1 904 432)"/><path class="st4" d="M8816.5-4316.2v3l-49.5 24.7v-3z" transform="matrix(-.1 0 0 .1 904 432)"/><path class="st3" d="M8759.5-4295.2v3l7.5 3.7v-3z" transform="matrix(-.1 0 0 .1 904 432)"/><path class="st1" d="M9003.5-4024.9c-6.8-3.4-13-3.8-17.6-1.8l-12.8 6.4c-4.9 2.2-8 7.3-8 14.6 0 14.2 11.5 31.4 25.7 38.5 7 3.5 13.4 3.9 18 1.6 0 0 12.8-6.4 13.8-7 4.1-2.5 6.7-7.3 6.7-13.9-.1-14.1-11.6-31.3-25.8-38.4z" transform="matrix(-.1 0 0 .1 904 432)"/><path class="st7" d="M9009-3965.7c1.8-.9 12.6-6.3 13.5-6.8 4.1-2.5 6.7-7.3 6.7-13.9 0-5.7-1.9-11.9-5-17.7l-12.8 6.4c3.1 5.8 5 12 5 17.7 0 7-2.9 12-7.4 14.3z" transform="matrix(-.1 0 0 .1 904 432)"/><path class="st8" d="M9009.9-3983.4c0 10.6-8.6 14.9-19.3 9.6-10.6-5.3-19.3-18.3-19.3-28.9s8.6-14.9 19.3-9.6c10.7 5.4 19.3 18.3 19.3 28.9z" transform="matrix(-.1 0 0 .1 904 432)"/><path class="st9" d="M8992.3-3974.4c-10.6-5.3-19.3-18.3-19.3-28.9 0-5.2 2.1-8.9 5.5-10.7-4.3 1.4-7.1 5.4-7.1 11.4 0 10.6 8.6 23.6 19.3 28.9 5.4 2.7 10.3 2.9 13.8 1.1-3.4 1-7.6.5-12.2-1.8z" transform="matrix(-.1 0 0 .1 904 432)"/><path class="st1" d="M9000.3-3989.7c0 4.4-3.6 6.2-8 4s-8-7.6-8-12 3.6-6.2 8-4 8 7.6 8 12z" transform="matrix(-.1 0 0 .1 904 432)"/><path class="st7" d="M9000.3-3989.7c0 4.4-3.6 6.2-8 4s-8-7.6-8-12 3.6-6.2 8-4 8 7.6 8 12z" transform="matrix(-.1 0 0 .1 904 432)"/><path class="st1" d="M8998.7-3988.9c0 4.4-3.6 6.2-8 4s-8-7.6-8-12 3.6-6.2 8-4 8 7.6 8 12z" transform="matrix(-.1 0 0 .1 904 432)"/><path class="st10" d="M9016.4-3980c0 14.2-11.5 19.9-25.7 12.8-14.2-7.1-25.7-24.3-25.7-38.5s11.5-19.9 25.7-12.8 25.7 24.3 25.7 38.5z" transform="matrix(-.1 0 0 .1 904 432)"/><path class="st1" d="M8923.6-3985.1c-6.8-3.4-13-3.8-17.6-1.8l-12.8 6.4c-4.9 2.2-8 7.3-8 14.6 0 14.2 11.5 31.4 25.7 38.5 7 3.5 13.4 3.9 18 1.6 0 0 12.8-6.4 13.8-7 4.1-2.5 6.7-7.3 6.7-13.9-.1-14.1-11.6-31.3-25.8-38.4z" transform="matrix(-.1 0 0 .1 904 432)"/><path class="st7" d="M8929-3925.8c1.8-.9 12.6-6.3 13.5-6.8 4.1-2.5 6.7-7.3 6.7-13.9 0-5.7-1.9-11.9-5-17.7l-12.8 6.4c3.1 5.8 5 12 5 17.7 0 7-2.8 11.9-7.4 14.3z" transform="matrix(-.1 0 0 .1 904 432)"/><path class="st8" d="M8930-3943.5c0 10.6-8.6 14.9-19.3 9.6-10.6-5.3-19.3-18.3-19.3-28.9 0-10.6 8.6-14.9 19.3-9.6 10.7 5.3 19.3 18.2 19.3 28.9z" transform="matrix(-.1 0 0 .1 904 432)"/><path class="st9" d="M8912.3-3934.6c-10.6-5.3-19.3-18.3-19.3-28.9 0-5.2 2.1-8.9 5.5-10.7-4.3 1.4-7.1 5.4-7.1 11.4 0 10.6 8.6 23.6 19.3 28.9 5.4 2.7 10.3 2.9 13.8 1.1-3.3 1-7.5.5-12.2-1.8z" transform="matrix(-.1 0 0 .1 904 432)"/><path class="st1" d="M8920.4-3949.8c0 4.4-3.6 6.2-8 4s-8-7.6-8-12 3.6-6.2 8-4 8 7.5 8 12z" transform="matrix(-.1 0 0 .1 904 432)"/><path class="st7" d="M8920.4-3949.8c0 4.4-3.6 6.2-8 4s-8-7.6-8-12 3.6-6.2 8-4 8 7.5 8 12z" transform="matrix(-.1 0 0 .1 904 432)"/><path class="st1" d="M8918.8-3949.1c0 4.4-3.6 6.2-8 4s-8-7.6-8-12 3.6-6.2 8-4 8 7.6 8 12z" transform="matrix(-.1 0 0 .1 904 432)"/><path class="st10" d="M8936.4-3940.2c0 14.2-11.5 19.9-25.7 12.8-14.2-7.1-25.7-24.3-25.7-38.5s11.5-19.9 25.7-12.8c14.2 7.1 25.7 24.4 25.7 38.5z" transform="matrix(-.1 0 0 .1 904 432)"/><path class="st1" d="M8777.7-4061.4c-7.3-3.7-14-4.1-19-1.9l-13.8 6.9c-5.3 2.4-8.6 7.8-8.6 15.7 0 15.3 12.3 33.8 27.6 41.4 7.5 3.8 14.4 4.2 19.3 1.7 0 0 13.7-6.8 14.9-7.5 4.5-2.7 7.2-7.8 7.2-15 0-15.1-12.4-33.6-27.6-41.3z" transform="matrix(-.1 0 0 .1 904 432)"/><path class="st7" d="M8783.5-3997.6c2-1 13.5-6.7 14.5-7.4 4.5-2.7 7.2-7.8 7.2-15 0-6.1-2-12.8-5.4-19.1l-13.8 6.9c3.4 6.3 5.4 12.9 5.4 19.1.1 7.6-3 13-7.9 15.5z" transform="matrix(-.1 0 0 .1 904 432)"/><path class="st8" d="M8784.6-4016.7c0 11.4-9.3 16.1-20.7 10.4-11.4-5.7-20.7-19.6-20.7-31.1 0-11.4 9.3-16.1 20.7-10.4 11.4 5.7 20.7 19.7 20.7 31.1z" transform="matrix(-.1 0 0 .1 904 432)"/><path class="st9" d="M8765.6-4007c-11.4-5.7-20.7-19.6-20.7-31.1 0-5.6 2.2-9.6 5.9-11.5-4.6 1.5-7.6 5.8-7.6 12.2 0 11.4 9.3 25.4 20.7 31.1 5.8 2.9 11 3.1 14.8 1.2-3.6 1.1-8.1.6-13.1-1.9z" transform="matrix(-.1 0 0 .1 904 432)"/><path class="st1" d="M8774.2-4023.4c0 4.8-3.9 6.7-8.6 4.3-4.8-2.4-8.6-8.2-8.6-13 0-4.8 3.9-6.7 8.6-4.3 4.8 2.4 8.6 8.2 8.6 13z" transform="matrix(-.1 0 0 .1 904 432)"/><path class="st7" d="M8774.2-4023.4c0 4.8-3.9 6.7-8.6 4.3-4.8-2.4-8.6-8.2-8.6-13 0-4.8 3.9-6.7 8.6-4.3 4.8 2.4 8.6 8.2 8.6 13z" transform="matrix(-.1 0 0 .1 904 432)"/><path class="st1" d="M8772.5-4022.6c0 4.8-3.9 6.7-8.6 4.3-4.7-2.4-8.6-8.2-8.6-13s3.9-6.7 8.6-4.3c4.7 2.4 8.6 8.2 8.6 13z" transform="matrix(-.1 0 0 .1 904 432)"/><path class="st10" d="M8791.5-4013c0 15.3-12.3 21.4-27.6 13.8-15.3-7.6-27.6-26.2-27.6-41.4s12.3-21.4 27.6-13.8c15.3 7.6 27.6 26.1 27.6 41.4z" transform="matrix(-.1 0 0 .1 904 432)"/><path class="st2" d="M8838.3-4115.6l-74.3 37.5v13.5l36.8 18 8.3 38.3 66 33 25.5-20.3 50.3 24 14.2 26.1.1.1.2-.2c26-4.4 44.8-16.8 44.8-31.3v-53.3l-171.9-85.4z" transform="matrix(-.1 0 0 .1 904 432)"/><path class="st1" d="M8806-4057.1l34.1 16.8 73.2-37-32.3-16.7z" transform="matrix(-.1 0 0 .1 904 432)"/><path class="st2" d="M8900.5-3995.6l-25.5 20.2 33.1-16.6z" transform="matrix(-.1 0 0 .1 904 432)"/><path opacity=".4" d="M8900.5-3995.6l-25.5 20.2 33.1-16.6z" transform="matrix(-.1 0 0 .1 904 432)"/><path class="st2" d="M8793.6-4108.9l76.9-36.7 10.5 14.1v37.5l-75 36.9-29.2-14.9z" transform="matrix(-.1 0 0 .1 904 432)"/><path class="st3" d="M8793.6-4108.9l12.4 14.3v37.5l-29.2-14.9z" transform="matrix(-.1 0 0 .1 904 432)"/><path class="st4" d="M8806-4094.6l75-36.9v37.5l-75 36.9z" transform="matrix(-.1 0 0 .1 904 432)"/><path class="st1" d="M8851.6-4145.2c1.6.6 2.7 1.8 2.4 2.6l-10.4 26.3c-.3.8-1.9 1-3.5.3-1.6-.6-2.7-1.8-2.4-2.6l10.4-26.3c.3-.8 1.9-1 3.5-.3z" transform="matrix(-.1 0 0 .1 904 432)"/><path class="st5" d="M8850.4-4142.3c1.6.6 3.2.5 3.5-.3l-10.4 26.3c-.3.8-1.9 1-3.5.3-1.6-.6-2.7-1.8-2.4-2.6l10.4-26.3c-.2.8.8 2 2.4 2.6z" transform="matrix(-.1 0 0 .1 904 432)"/><path class="st2" d="M9010-4072.3c0-9.2-7.6-17.4-19.9-23.3l-20.2-10.6-4.7 3.7-40.8-20.9-89.3 45.8v36.2l62.9 32.5c11.8 6.5 28.7 10.5 47.5 10.5 35.2 0 63.8-14.2 64.3-31.8v-41.4c.2-.1.2-.4.2-.7z" transform="matrix(-.1 0 0 .1 904 432)"/><path class="st5" d="M8848.8-4084.5l61.5 31.9 75-37.5-64.6-31.2zm126.7 56.9v20.7l6 3v-25.5h-.2c-1.9.7-3.8 1.2-5.8 1.8zm-12 2.5v21.2l6 3v-25.3c-2 .4-4 .8-6 1.1zm36-13.7v16.9l6 3v-25.5h-.2c-1.6 2-3.5 3.9-5.8 5.6zm-12 7v19.7l6 3v-25.5h-.3c-1.8 1-3.7 1.9-5.7 2.8z" transform="matrix(-.1 0 0 .1 904 432)"/><path class="st3" d="M8945.7-3998.3c-18.8 0-35.8-4.1-47.5-10.5L8764-4078v13.4l36.8 18 8.3 38.3 66 33 25.5-20.3 50.3 24 14.2 26.1.1.1.2-.2c26-4.4 44.8-16.8 44.8-31.3v-53.3c-.6 17.7-29.2 31.9-64.5 31.9z" transform="matrix(-.1 0 0 .1 904 432)"/><path class="st1" d="M8881.8-4073.6l34.5-17.3v-4.5l-27-13.5-34.5 17.3v4.5z" transform="matrix(-.1 0 0 .1 904 432)"/><path class="st4" d="M8916.3-4095.4v4.5l-34.5 17.3v-4.5z" transform="matrix(-.1 0 0 .1 904 432)"/><path class="st3" d="M8854.8-4091.6v4.5l27 13.5v-4.5z" transform="matrix(-.1 0 0 .1 904 432)"/><path class="st1" d="M8870.7-4151.5c-3.6-4.4-9-7.8-15.2-9.5-2.8-.8-5.6-1.1-8.4-1.1-10 0-18.1 5-20.1 12.4-2.6 9.7 5.9 20.5 19 24.1 2.8.8 5.6 1.1 8.4 1.1 10 0 18.1-5 20.1-12.4 1.2-4.8-.1-10-3.8-14.6zm-16-6.6c5.6 1.5 10.5 4.5 13.7 8.5 1.2 1.5 2.1 3.1 2.7 4.7h-19.8l-12.6-12.9c2.5-.9 5.3-1.4 8.3-1.4 2.6 0 5.1.4 7.7 1.1zm-24.9 9.1c.8-3.1 3-5.6 6-7.4l13.1 13.4-5.1 13.5c-9.8-3.8-16-12.1-14-19.5zm41.7 11.3c-1.6 6.1-8.5 10.2-17.2 10.2-2.5 0-5.1-.3-7.6-1l5-13.3h20.1c.2 1.3.1 2.7-.3 4.1zm17.8 67.8l34.5-17.2v-42l-3-1.5-34.5 17.2-4.5 35.3v4.5z" transform="matrix(-.1 0 0 .1 904 432)"/><path class="st4" d="M8923.8-4129.1v42l-34.5 17.2v-42z" transform="matrix(-.1 0 0 .1 904 432)"/><path class="st3" d="M8886.3-4113.4l-4.5 35.3v4.5l7.5 3.7v-42z" transform="matrix(-.1 0 0 .1 904 432)"/><path class="st1" d="M8991.3-4178.1l-4.5-2.3-93-46.5-6 3-5.3 12 11.3 5.1 3-6.6 82.5 41.3v79l6 3 6-3z" transform="matrix(-.1 0 0 .1 904 432)"/><path class="st4" d="M8991.3-4178.1v85l-6 3v-85z" transform="matrix(-.1 0 0 .1 904 432)"/><path class="st3" d="M8985.3-4175.1l-4.5-2.3-93-46.5-5.3 12 6.4 3.8 3.4-7.5 87 43.5v79l6 3z" transform="matrix(-.1 0 0 .1 904 432)"/><path class="st1" d="M8907.3-4139.1l72-36v-1.5l-88.5-44.3-72 36v1.5z" transform="matrix(-.1 0 0 .1 904 432)"/><path class="st4" d="M8979.3-4176.6v1.5l-72 36v-1.5z" transform="matrix(-.1 0 0 .1 904 432)"/><path class="st3" d="M8818.8-4184.9v1.5l88.5 44.3v-1.5z" transform="matrix(-.1 0 0 .1 904 432)"/><path class="st1" d="M8913.3-4139.1l-4.5-2.3-93-46.5-6 3-42.8 108.3 6 3 6-3 39.8-97.8 82.5 41.3v79l6 3 6-3z" transform="matrix(-.1 0 0 .1 904 432)"/><path class="st4" d="M8913.3-4139.1v85l-6 3v-85z" transform="matrix(-.1 0 0 .1 904 432)"/><path class="st3" d="M8907.3-4136.1l-4.5-2.3-93-46.5-42.8 108.3 6 3 41.3-103 87 43.5v79l6 3z" transform="matrix(-.1 0 0 .1 904 432)"/><path class="st4" d="M8814.3-4176.6l-41.3 103 6-3 39.8-97.8z" transform="matrix(-.1 0 0 .1 904 432)"/><path class="st2" d="M8763.2-4079.5l34 17.8 19.3 57.3-8.3 2.8-3.9-1.7-16.8-49.3-32.5-16.5v-7.7z" transform="matrix(-.1 0 0 .1 904 432)"/><path class="st3" d="M8804.4-4003.3l3.8 1.7.1-.1-19.3-57.2-34-17.9v7.7l32.5 16.5z" transform="matrix(-.1 0 0 .1 904 432)"/><path class="st4" d="M8797.2-4061.7l-8.2 2.8 19.3 57.2-.1.1 8.3-2.8z" transform="matrix(-.1 0 0 .1 904 432)"/><path class="st5" d="M8876.1-4019.8l-.5-.2-40.5-21 .3-.7 40 20.7v-35.4h.7z" transform="matrix(-.1 0 0 .1 904 432)"/><path class="st3" d="M9010-4071.5v-.4c-.4 17.6-29 31.8-64.3 31.8-18.8 0-35.8-4.1-47.5-10.5l-17.9-9.5-4.5 3.8-40.5-21v36l62.9 32.5c11.8 6.5 28.7 10.5 47.5 10.5 6.2 0 12.1-.4 17.8-1.3v-4.3l6 3v.3c2.1-.4 4.1-.9 6-1.4v-4.9l6 3v.1c2.1-.7 4.1-1.5 6-2.3v-6.1l6 3v.1c2.2-1.2 4.2-2.5 6-3.9v-9l6 3v.2c2.8-3.5 4.4-7.4 4.5-11.4v-41.3z" transform="matrix(-.1 0 0 .1 904 432)"/></g></svg>