<svg xmlns="http://www.w3.org/2000/svg" width="119" height="147"><style>.st0{fill:#e5e5e5}.st1{fill:#fff}.st2{fill:#39c}.st4,.st8{opacity:.3;enable-background:new}.st8{opacity:.2}.st9{fill:#fbd7c7}.st10{fill:#262626}.st12{fill:#06547a}.st13{fill:#825012}.st14{fill:#539b00}.st15{opacity:.2;fill:#fff;enable-background:new}</style><g id="i1360_1_"><path class="st0" d="M896-712l-16-8v-24l16 8z" transform="matrix(-1 0 0 1 912 800)"/><path class="st1" d="M893-730.5l-10-5v17l10 5z" transform="matrix(-1 0 0 1 912 800)"/><path class="st2" d="M892-714l-8-4v-16l8 4z" transform="matrix(-1 0 0 1 912 800)"/><path opacity=".15" d="M892-720l-8-14 8 4z" transform="matrix(-1 0 0 1 912 800)"/><path class="st4" d="M885-718.5v-15l-1-.5v16l8 4v-1z" transform="matrix(-1 0 0 1 912 800)"/><path class="st0" d="M912-720l-16 8v-24l16-8z" transform="matrix(-1 0 0 1 912 800)"/><path class="st1" d="M910-736l-12 6v9l12-6z" transform="matrix(-1 0 0 1 912 800)"/><path class="st2" d="M909-727.5l-10 5v-7l10-5z" transform="matrix(-1 0 0 1 912 800)"/><path class="st4" d="M909-727.5l-10 5v-1l10-5z" transform="matrix(-1 0 0 1 912 800)"/><path fill="#2d3134" d="M896-736l16-8-16-8-16 8z" transform="matrix(-1 0 0 1 912 800)"/><path opacity=".06" d="M912-720l-16 8v-24l16-8z" transform="matrix(-1 0 0 1 912 800)"/><path opacity=".39" d="M896-712l-16-8v-24l16 8z" transform="matrix(-1 0 0 1 912 800)"/></g><g id="i1361_1_"><path class="st8" d="M8899.9-7288.6c26.9-13.2 1-17.9-14.1-26.3-20.8-11.6-27.5-15.7-43-6.1-17.1 10.6.2 17.9 16.1 25.3 18.1 8.4 25 14.9 41 7.1z" transform="matrix(-.1 0 0 .1 912 824)"/><path class="st9" d="M8851.8-7440.4c-.1 6-1.4 12.5-2.9 17.5s-1 10.7-.5 11.7 1.8 4.7 2 5.6c.3.9 1.6.9 1.8-.8.3-1.6-.4-5 .2-6 .6-1 2.3-.1 2.7-2.4.4-2.3-2.8-5.8-2.4-7.5.5-1.7 5.1-5.6 5-8.4-.1-2.7.1-9.2.1-9.2l-6-.5z" transform="matrix(-.1 0 0 .1 912 824)"/><path class="st10" d="M8852.9-7325.3c-2.2 2.3-5.1 5.4-8.1 7-3 1.6-5.8 3.8-5.3 6s3.9 4.6 10.1 3c3.7-.9 5.3-4.4 7.9-5.1 2.6-.7 6.5-2.3 6.8-3.6.3-1.4.3-5.2.3-5.2l-11.7-2.1zm38.5 19.5c-1 2.5-2.7 5.6-5.3 8.1-2.7 2.6-4.7 6.3-3.2 8.1 1.5 1.9 8.1 2.5 11.4.6 3.2-1.9 10-7.7 10.5-8.8.5-1.2-.1-6.2-.1-6.2l-13.3-1.8z" transform="matrix(-.1 0 0 .1 912 824)"/><path d="M8864.2-7318.1c.1-.4.1-.9.2-1.5-1.3 1.1-4.3 2.5-7.1 3.3-3.4.9-5.8 4.8-9.4 5.9-3.2.9-8-.5-8.4-3.3-.2.5-.2.9-.1 1.4.5 2.2 3.9 4.6 10.1 3 3.7-.9 5.3-4.4 7.9-5.1 2.6-.7 6.5-2.3 6.8-3.7zm40.5 20.3c.2-.4.2-1.2.2-2.2-1.1 1.5-3.6 3.6-5.4 5.4-2.2 2.1-5.5 5-9.6 5.5-3.2.4-6.3-.2-7.6-2.5-.1.8 0 1.5.5 2.1 1.5 1.9 8.1 2.5 11.4.6s10.1-7.7 10.5-8.9z" transform="matrix(-.1 0 0 .1 912 824)" opacity=".5"/><path class="st12" d="M8853.8-7417.9s-3 9.5-4 23.3.6 35.7.6 46.6 1.1 19.3.4 21.4-1.2 3.3 0 3.3 5.9 2.2 8.7 2.7c2.8.6 5.1 1 5.7-.9.6-1.9 3-23.8 2.7-31.2-.3-7.4.2-12.8 2-19.3s5.3-26.9 5.3-26.9l.3-13.9-21.7-5.1z" transform="matrix(-.1 0 0 .1 912 824)"/><path class="st8" d="M8853.8-7417.9s-3 9.5-4 23.3.6 35.7.6 46.6 1.1 19.3.4 21.4-1.2 3.3 0 3.3 5.9 2.2 8.7 2.7c2.8.6 5.1 1 5.7-.9.6-1.9 3-23.8 2.7-31.2-.3-7.4.2-12.8 2-19.3s5.3-26.9 5.3-26.9l.3-13.9-21.7-5.1z" transform="matrix(-.1 0 0 .1 912 824)"/><path class="st12" d="M8862.7-7414.8c-.1 1.4.3 20 1.5 23.5 1.2 3.4 5.1 5.3 7.9 13.3 2.7 8 3.5 15.3 6.2 23.8 2.7 8.4 10.1 36.2 10.6 41.9.5 5.7-.5 8.7.4 9.3 1.6 1 3.6 1.8 5.8 2.4 2.3.7 7.5 1.1 9.6-.1 2.2-1.3 2.6-2.3 1.8-7.3s-3.2-25.2-5.2-32.3c-2-7.1-6.2-33.6-6.5-42.1s.5-17.2-2.8-24.3c-3.3-7.1-6.4-9.4-6.4-9.4l-22.9 1.3z" transform="matrix(-.1 0 0 .1 912 824)"/><path class="st10" d="M8853.2-7420l-.1 3.7s1.1 6 13.9 7.1c12.8 1.2 20.5-4.8 20.5-4.8l-.7-3.1s-11.1 5.3-21.7 3.7c-10.6-1.7-11.9-6.6-11.9-6.6z" transform="matrix(-.1 0 0 .1 912 824)"/><path class="st2" d="M8867.3-7475.2c-4.6 1.6-11.1 1.3-13 6.9-1.9 5.6-5 14.7-4.3 20.5.7 5.8 2.4 12.1 2.6 15.3.1 3.2-.6 8.2.1 10.7s.8 5.1 4.9 6.9c6.1 2.7 11.7 3.4 18.7 2.4 8.1-1.1 10.7-3.3 11.3-5.4.7-2.1 1.2-5.6 2-10 .8-4.5 2.3-10.5 2.3-10.5s3.1 4.6 4.5 5.2c1.5.7 3.2.6 3.2.6s1.6 1.4 2.3 1.4c.7 0 4.5-1 7.2-2.7 2.7-1.6 3.9-2.8 3.9-3.2s-1.1-2.3-1.1-2.3 1.2-1.1.5-2.2c-.7-1-6.5-8.4-8.4-11.8s-4.8-10-9.1-12.2c-4.3-2.2-9.4-1.9-10.9-2.6-1.6-.7.3-3.3-.4-4.3-.7-.7-9.8-5.1-16.3-2.7z" transform="matrix(-.1 0 0 .1 912 824)"/><path class="st10" d="M8869.3-7412.7l9 .2.6 17.3-9.4-.1z" transform="matrix(-.1 0 0 .1 912 824)"/><path class="st9" d="M8861.6-7453.6l3.9-7.9s3.3-.9 6.2-3.5c2.9-2.6 8.6-5.4 8.6-5.4s-2.9-2.7-3.3-5.6c-.3-2.9 3.1-7.1 1.8-13.9-1.2-6.7-7.1-11.5-16.4-7.4-9.3 4.1-8.4 19.2-6.4 25.8 1.9 6.6 7.3 4.3 7.3 4.3s-1.1 5.2-1.2 7c-.1 1.8-.5 6.6-.5 6.6zm51.3 16.8s3 4 3.9 6.8c.9 2.8-3 8.7-9.8 13.3-6.7 4.6-15.4 8.9-17.3 10.3-1.9 1.4-8.5 6.7-11.2 7.4-5.4 1.4-8.2-.6-8.8-2.7-.6-2.1 6.4-5.3 7.2-6.3.8-1 0-2.8-.8-3-.8-.3-2.8-.6-3.3-2s1.2-.9 2.6-.6c1.4.3 4.5 1.2 5.5 1.5 1 .3 1.6 1.5 3.2.9s8.8-9.1 12.8-12.4c3.7-3.1 7.5-4.1 7.5-4.1l-2-3.3s2.6-.5 6.1-2.4c2.2-1.4 4.4-3.4 4.4-3.4z" transform="matrix(-.1 0 0 .1 912 824)"/><path class="st13" d="M8855.7-7490c-.1 1.2.9 2.5 3.9 3.2 3.8.9 7.9-2.1 11-.2 1.7 1.1 2.3 7.2 3.3 7.2.4-1.9 1.1-3.8 2.8-3.5 1.5.3 1.3 2.2 1.2 2.9.9.4 3.8-8 .2-13.9-3.5-6-11.6-6.1-16.4-3.4-4.8 2.7-5.9 6.5-6 7.7z" transform="matrix(-.1 0 0 .1 912 824)"/><path class="st12" d="M8854.7-7489.4s-5.5 4.7.2 7.5 17.8-1.6 17.8-1.6l7.5-1.6.5-1.1s3.7.4 4.5-1.4c.9-1.8-5.4-9.7-13.2-12.1-7.8-2.4-17.6-5.2-19-1.9-1.4 3.3 2.8 8 2.8 8l-1.1 4.2z" transform="matrix(-.1 0 0 .1 912 824)"/><path class="st10" d="M8880.7-7486.2l-.9 2s-10.7 1.5-18-1c-6.6-2.3-7.1-4.3-7.1-4.3l1-4.3s1.6 2.9 8.9 5.2c6.5 2.2 16.1 2.4 16.1 2.4z" transform="matrix(-.1 0 0 .1 912 824)"/><path class="st0" d="M8862.3-7461.9c-.1.7-.2 1.3-.2 1.7-.1 1.8-.5 6.5-.5 6.5l3.6-7.2-2.9-1z" transform="matrix(-.1 0 0 .1 912 824)"/><path class="st12" d="M8888.7-7462.5s.8-1.5 1.7-2.2c.8-.6 1.7-.8 1.7-.8s-8.3-2.3-9.4-1.1c-1 1.1-.5 2.4 1.3 2.9 1.9.4 4.7 1.2 4.7 1.2zm4.7 16.6l-.1-3.1 1.9-.7.1-1.9 1.8-.2.5-1.8 2.8.3s-.1 1.4.4 1.9c.7.8 2.5 1.3 3 2.8.5 1.6-1.3 5.8-1.3 5.8s-4.4 1.8-5.8.8c-1.3-.9-.7-2.6-1.5-3.5-.7-.7-1.8-.4-1.8-.4z" transform="matrix(-.1 0 0 .1 912 824)"/><path class="st0" d="M8897.6-7447.7l-.2-1.5 1.4.2.8-1.3.6 1.4 1.2-.2-.1 1.4 1.1.8-1.5.7-.1 1.7-1.2-.2-.8 1.3-.9-1.2-1.2.4.4-1.7-1.1-1z" transform="matrix(-.1 0 0 .1 912 824)"/><path class="st12" d="M8865.2-7446.3l16.2 5.3-1.2 3.7h-9.6l-6.4-5.2zm-7.7-3l-.7 2.8-5.3.8-2-4.3.7-3.7z" transform="matrix(-.1 0 0 .1 912 824)"/><path class="st10" d="M8853.1-7418.9l2.7 4.1s-1.9 13.4-4.5 14.7c-2.6 1.3-.5-12.3-.5-12.3l2.3-6.5z" transform="matrix(-.1 0 0 .1 912 824)"/><path class="st0" d="M8888.6-7465.8l.9 1.2-1.9.9.3-.7.8-.3-.3-.5z" transform="matrix(-.1 0 0 .1 912 824)"/></g><g transform="translate(928 752)" id="i2177_1_"><ellipse class="st4" cx="-864.5" cy="-697" rx="7.5" ry="4"/><path class="st13" d="M-866-724v27c0 .6.7 1 1.5 1s1.5-.4 1.5-1v-27h-3z"/><circle class="st14" cx="-871.5" cy="-728.5" r="6.5"/><circle class="st14" cx="-867" cy="-737" r="9"/><path class="st13" d="M-864-708.6c2.6 0 3-.9 3-3.4v-8h1v10c0 1.7-1.3 3-3 3h-1v-1.6zm0-.6c-1.7 0-3-.4-3-2.1v-9.7h-1v10c0 1.7 1.3 3 3 3h1v-1.2zm-2-21c-1.7 0-3-.4-3-2.1v-2.7h-1v3c0 1.7 1.3 3 3 3h1v-1.2z"/><circle class="st14" cx="-859.5" cy="-721.5" r="7.5"/><circle class="st14" cx="-855" cy="-725" r="6"/><path class="st13" d="M-860-722.2c1.7 0 3-.4 3-2.1v-2.7h1v3c0 1.7-1.3 3-3 3h-1v-1.2zm-7-15.4h1v9.6h-1z"/><circle class="st14" cx="-858" cy="-735" r="8"/><circle class="st14" cx="-863" cy="-744" r="8"/><path class="st15" d="M-862.5-736c2.2 0 4.1 1.3 4.9 3.1.3-.1.7-.1 1.1-.1 1.8 0 3.4.9 4.4 2.2-.4-1.8-2-3.2-3.9-3.2h-.1c-.5-2.3-2.5-4-4.9-4-2 0-3.7 1.2-4.5 2.9.8-.6 1.9-.9 3-.9z"/><circle class="st14" cx="-872" cy="-736.6" r="3.6"/><path class="st15" d="M-872-736.5c0-2.5 1.7-4.6 4-5.3.2-2.9 2.6-5.2 5.5-5.2 1.7 0 3.3.8 4.3 2.1-.6-2.4-2.8-4.1-5.3-4.1-2.9 0-5.3 2.2-5.5 5.1-2.3.5-4 2.5-4 4.9 0 1.1.4 2.2 1 3v-.5z"/><circle class="st14" cx="-866.7" cy="-721.2" r="9.3"/><circle class="st14" cx="-854.7" cy="-727.2" r="3.3"/><path class="st4" d="M-849-725c0-.4 0-.8-.1-1.2-.6 3.8-3.9 6.7-7.9 6.7h-.4c.7.3 1.6.5 2.4.5.7 0 1.3-.1 1.9-.3-1.4 1.4-3.3 2.3-5.4 2.3-1 0-2-.2-2.9-.6-1.6 1.6-3.9 2.6-6.3 2.6-3.5 0-6.6-2-8.1-4.8.7 4.4 4.5 7.8 9.1 7.8 2.2 0 4.3-.8 5.9-2.1.4.1.8.1 1.3.1 3.5 0 6.5-2.4 7.3-5.7 1.9-1 3.2-3 3.2-5.3z"/><path class="st15" d="M-869.5-726c.8 0 1.5.1 2.2.4.9-1.4 2.5-2.4 4.3-2.4 1 0 1.9.3 2.7.8-.7-1.7-2.3-2.8-4.2-2.8-1.6 0-3 .8-3.8 2h-.7c-2.9 0-5.4 2.1-5.9 4.9 1.2-1.8 3.2-2.9 5.4-2.9z"/><path class="st4" d="M-874-725.5c-1.9-.8-3.4-2.4-3.9-4.5 0 .5-.1 1-.1 1.5 0 2.4 1.3 4.4 3.2 5.6.1-.9.4-1.8.8-2.6z"/></g><g transform="translate(976 760)" id="i2178_1_"><ellipse class="st4" cx="-864.5" cy="-713" rx="5.6" ry="3"/><path class="st13" d="M-864-726c.6 0 1 .4 1 1v12c0 .6-.4 1-1 1s-1-.4-1-1v-12c0-.6.4-1 1-1z"/><path class="st14" d="M-862.5-716c-1.4 0-2.5-1.1-2.5-2.5v-16c0-1.4 1.1-2.5 2.5-2.5s2.5 1.1 2.5 2.5v16c0 1.4-1.1 2.5-2.5 2.5z"/><path class="st14" d="M-859.5-721c-1.4 0-2.5-1.1-2.5-2.5v-16c0-1.4 1.1-2.5 2.5-2.5s2.5 1.1 2.5 2.5v16c0 1.4-1.1 2.5-2.5 2.5z"/><path class="st14" d="M-860.5-724c-1.4 0-2.5-1.1-2.5-2.5v-16c0-1.4 1.1-2.5 2.5-2.5s2.5 1.1 2.5 2.5v16c0 1.4-1.1 2.5-2.5 2.5z"/><path class="st14" d="M-862.8-751c-1.3.1-2.2 1.3-2.2 2.6 0 .3-.2.5-.5.4-.5-.1-1-.1-1.6.2-1.2.5-1.9 1.8-1.9 3.1v1.3c0 .2-.2.4-.4.4s-.4 0-.6.1c-1.2.2-2 1.3-2 2.5v15.8c0 .8.4 1.6 1 2.1s1 1.3 1 2.1v.9c0 1.4 1.1 2.5 2.5 2.5h1c1.4 0 2.5-1.1 2.5-2.5v-5.1c.6-.6 1-1.5 1-2.4v-8.1c.3.1.6.1 1 0 1.2-.2 2-1.4 2-2.6v-10.9c0-1.4-1.3-2.6-2.8-2.4z"/><path class="st14" d="M-864-724.6c.6-.6 1-1.5 1-2.4v-2c0 .9-.4 1.8-1 2.4v2z"/><path d="M-862.5-718c-1.1 0-2-.7-2.3-1.6-.4.4-1 .6-1.7.6h-1c-1.4 0-2.5-1.1-2.5-2.5v2c0 1.4 1.1 2.5 2.5 2.5h1c.6 0 1.2-.2 1.7-.6.4 1 1.3 1.6 2.3 1.6 1.4 0 2.5-1.1 2.5-2.5v-2c0 1.4-1.1 2.5-2.5 2.5zm3-5c-.2 0-.3 0-.5-.1v2c.2 0 .3.1.5.1 1.4 0 2.5-1.1 2.5-2.5v-2c0 1.4-1.1 2.5-2.5 2.5zm-3-4h-1c-.5.6-1.2 1-2 1-1.4 0-2.5-1.1-2.5-2.5v2c0 1.4 1.1 2.5 2.5 2.5.8 0 1.5-.4 2-1h1c1.4 0 2.5-1.1 2.5-2.5v-2c0 1.4-1.1 2.5-2.5 2.5zm0-8c-.2 0-.3 0-.5-.1v2c.2 0 .3.1.5.1 1.4 0 2.5-1.1 2.5-2.5v-2c0 1.4-1.1 2.5-2.5 2.5z"/><path class="st15" d="M-863-746c-1.1 0-2 .9-2 2v.3h-1.2c-1.1 0-2 .9-2 2v1.4c-.9.2-1.6 1-1.6 2v2c0-1 .7-1.8 1.6-2v-1.4c0-1.1.9-2 2-2h1.2v-.3c0-1.1.9-2 2-2s2 .9 2 2v-2c0-1.1-.9-2-2-2z"/><path class="st4" d="M-870-721.5v-.9c0-.8-.3-1.6-1-2.1-.6-.5-1-1.3-1-2.1v2c0 .8.4 1.6 1 2.1s1 1.3 1 2.1v-1.1z"/></g><g transform="translate(920 816)" id="i2179_1_"><ellipse class="st4" cx="-863.5" cy="-697" rx="7.5" ry="4"/><path class="st13" d="M-862-721v24c0 .6-.7 1-1.5 1s-1.5-.4-1.5-1v-24h3z"/><circle class="st14" cx="-854.5" cy="-722.5" r="6.5"/><circle class="st14" cx="-858" cy="-731" r="9"/><path class="st13" d="M-864-708.6c-2.6 0-3-.9-3-3.4v-8h-1v10c0 1.7 1.3 3 3 3h1v-1.6zm1 1.4c1.7 0 3-.4 3-2.1v-9.7h1v10c0 1.7-1.3 3-3 3h-1v-1.2z"/><path class="st13" d="M-867-710.2c-1.7 0-2-1.3-2-2.1v-9.7h-1v10c0 1.7 1.3 3 3 3v-1.2z"/><circle class="st14" cx="-868" cy="-721" r="9"/><circle class="st14" cx="-873" cy="-725" r="6"/><path class="st13" d="M-868-721.2c-1.7 0-3-.4-3-2.1v-2.7h-1v3c0 1.7 1.3 3 3 3h1v-1.2z"/><circle class="st14" cx="-869" cy="-733" r="8"/><circle class="st14" cx="-865" cy="-737" r="8"/><circle class="st14" cx="-858.5" cy="-739.5" r="4.5"/><path class="st15" d="M-872.9-731c2.2 0 4.1 1.3 4.9 3.1.3-.1.7-.1 1.1-.1 1.8 0 3.4.9 4.4 2.2-.4-1.8-2-3.2-3.9-3.2h-.1c-.5-2.3-2.5-4-4.9-4-2 0-3.7 1.2-4.5 2.9.8-.6 1.9-.9 3-.9z"/><path class="st13" d="M-865-733.6c.2.2.5.4.7.6h.3v-3c-.3 0-.7-.1-1-.2v2.6z"/><path class="st15" d="M-864.5-741c2.4 0 4.3 1.9 4.5 4.2.5-.1 1-.2 1.5-.2 2.5 0 4.6 1.6 5.3 3.9.1-.4.2-.9.2-1.4 0-2.5-2-4.5-4.5-4.5-.5 0-1 .1-1.5.3-.1-1.8-1.6-3.3-3.5-3.3-1 0-1.9.4-2.5 1h.5z"/><path class="st4" d="M-849.1-729.6c-1.7 1.9-4.1 3.1-6.8 3.1h-.6c1 1.1 1.6 2.4 1.7 3.9 2.9-1.1 5.2-3.8 5.7-7zm-2.4 10.3c.3.7.4 1.5.5 2.3 1.7-1.1 2.9-2.9 3-5-.8 1.3-2.1 2.2-3.5 2.7zm-21.8-11.7c-1.6-1.4-2.7-3.5-2.7-5.9-.6 1.1-1 2.5-1 3.9 0 1.1.2 2.1.6 3.1.9-.7 2-1 3.1-1.1z"/><path class="st13" d="M-858-729.4c0 1.7-1.3 2.1-3 2.1v1.3h1c1.7 0 3-1.3 3-3v-2c-.3 0-.7-.1-1-.2v1.8z"/><circle class="st14" cx="-860.2" cy="-718.2" r="9.3"/><path class="st15" d="M-864-721c1.2 0 2.3.3 3.3.8 1.2-1.1 2.9-1.8 4.7-1.8 1.6 0 3.1.5 4.2 1.4-1.1-2-3.3-3.4-5.7-3.4-1.6 0-3.1.6-4.2 1.6-.7-.4-1.5-.6-2.3-.6-2.4 0-4.4 1.7-4.9 4 1.3-1.2 3-2 4.9-2z"/><path class="st4" d="M-859.2-711c-3.8 0-7-2-8.8-5h-.9c-3.5 0-6.5-2-8-4.9 0 4.9 4 8.9 8.9 8.9h.9c1.7 1.9 4.1 3 6.8 3 3.6 0 6.6-2 8.2-4.9-1.8 1.8-4.4 2.9-7.1 2.9z"/></g><g transform="translate(968 840)" id="i2180_1_"><ellipse class="st4" cx="-864.5" cy="-697" rx="7.5" ry="4"/><path class="st13" d="M-866-724v27c0 .6.7 1 1.5 1s1.5-.4 1.5-1v-27h-3z"/><circle class="st14" cx="-871.5" cy="-728.5" r="6.5"/><circle class="st14" cx="-867" cy="-737" r="9"/><path class="st13" d="M-864-708.6c2.6 0 3-.9 3-3.4v-8h1v10c0 1.7-1.3 3-3 3h-1v-1.6zm0-.6c-1.7 0-3-.4-3-2.1v-9.7h-1v10c0 1.7 1.3 3 3 3h1v-1.2zm-2-21c-1.7 0-3-.4-3-2.1v-2.7h-1v3c0 1.7 1.3 3 3 3h1v-1.2z"/><circle class="st14" cx="-859.5" cy="-721.5" r="7.5"/><circle class="st14" cx="-855" cy="-725" r="6"/><path class="st13" d="M-860-722.2c1.7 0 3-.4 3-2.1v-2.7h1v3c0 1.7-1.3 3-3 3h-1v-1.2zm-7-15.4h1v9.6h-1z"/><circle class="st14" cx="-858" cy="-735" r="8"/><circle class="st14" cx="-863" cy="-744" r="8"/><path class="st15" d="M-862.5-736c2.2 0 4.1 1.3 4.9 3.1.3-.1.7-.1 1.1-.1 1.8 0 3.4.9 4.4 2.2-.4-1.8-2-3.2-3.9-3.2h-.1c-.5-2.3-2.5-4-4.9-4-2 0-3.7 1.2-4.5 2.9.8-.6 1.9-.9 3-.9z"/><circle class="st14" cx="-872" cy="-736.6" r="3.6"/><path class="st15" d="M-872-736.5c0-2.5 1.7-4.6 4-5.3.2-2.9 2.6-5.2 5.5-5.2 1.7 0 3.3.8 4.3 2.1-.6-2.4-2.8-4.1-5.3-4.1-2.9 0-5.3 2.2-5.5 5.1-2.3.5-4 2.5-4 4.9 0 1.1.4 2.2 1 3v-.5z"/><circle class="st14" cx="-866.7" cy="-721.2" r="9.3"/><circle class="st14" cx="-854.7" cy="-727.2" r="3.3"/><path class="st4" d="M-849-725c0-.4 0-.8-.1-1.2-.6 3.8-3.9 6.7-7.9 6.7h-.4c.7.3 1.6.5 2.4.5.7 0 1.3-.1 1.9-.3-1.4 1.4-3.3 2.3-5.4 2.3-1 0-2-.2-2.9-.6-1.6 1.6-3.9 2.6-6.3 2.6-3.5 0-6.6-2-8.1-4.8.7 4.4 4.5 7.8 9.1 7.8 2.2 0 4.3-.8 5.9-2.1.4.1.8.1 1.3.1 3.5 0 6.5-2.4 7.3-5.7 1.9-1 3.2-3 3.2-5.3z"/><path class="st15" d="M-869.5-726c.8 0 1.5.1 2.2.4.9-1.4 2.5-2.4 4.3-2.4 1 0 1.9.3 2.7.8-.7-1.7-2.3-2.8-4.2-2.8-1.6 0-3 .8-3.8 2h-.7c-2.9 0-5.4 2.1-5.9 4.9 1.2-1.8 3.2-2.9 5.4-2.9z"/><path class="st4" d="M-874-725.5c-1.9-.8-3.4-2.4-3.9-4.5 0 .5-.1 1-.1 1.5 0 2.4 1.3 4.4 3.2 5.6.1-.9.4-1.8.8-2.6z"/></g><g transform="translate(912 800)" id="i2181_1_"><ellipse class="st4" cx="-864.5" cy="-735" rx="6.5" ry="2"/><path class="st13" d="M-866-738h3v4h-3z"/><circle class="st14" cx="-859" cy="-739.9" r="3.8"/><circle class="st14" cx="-861.1" cy="-744.9" r="5.3"/><circle class="st14" cx="-866.4" cy="-741.4" r="5.3"/><circle class="st14" cx="-869.3" cy="-743.8" r="3.5"/><path class="st13" d="M-866.9-746.9c-1 0-1.8-.3-1.8-1.2v-1.5h-.6v1.8c0 1 .8 1.8 1.8 1.8h.6v-.9z"/><circle class="st14" cx="-867.1" cy="-740.1" r="5.7"/><path class="st4" d="M-867.1-735.8c-2.9 0-5.3-2.2-5.7-5v.7c0 3.2 2.6 5.7 5.7 5.7s5.7-2.6 5.7-5.7v-.7c-.4 2.8-2.8 5-5.7 5z"/><circle class="st14" cx="-865.2" cy="-747.3" r="4.7"/><circle class="st14" cx="-861.4" cy="-748.8" r="2.6"/><path class="st15" d="M-869.8-744.9c1.3 0 2.4.7 2.9 1.8.2 0 .4-.1.6-.1 1.1 0 2 .5 2.6 1.3-.2-1.1-1.2-1.9-2.3-1.9h-.1c-.3-1.3-1.5-2.4-2.9-2.4-1.2 0-2.2.7-2.7 1.7.6-.2 1.2-.4 1.9-.4z"/><path class="st13" d="M-865.2-746.5c.1.1.3.2.4.3h.2v-1.7c-.2 0-.4 0-.6-.1v1.5z"/><path class="st15" d="M-864.9-749.6c1.4 0 2.5 1.1 2.6 2.5.3-.1.6-.1.9-.1 1.5 0 2.7 1 3.1 2.3.1-.3.1-.5.1-.8 0-1.5-1.2-2.6-2.6-2.6-.3 0-.6.1-.9.2-.1-1.1-1-1.9-2-1.9-.6 0-1.1.2-1.5.6.1-.2.2-.2.3-.2z"/><path class="st4" d="M-855.8-744.1c-1 1.1-2.4 1.8-4 1.8h-.4c.6.6.9 1.4 1 2.3 1.8-.6 3.1-2.2 3.4-4.1zm-1.5 6c.2.4.3.9.3 1.4 1-.6 1.7-1.7 1.8-2.9-.5.7-1.2 1.3-2.1 1.5z"/><circle class="st14" cx="-861.8" cy="-739.8" r="5.4"/><path class="st15" d="M-864-741.4c.7 0 1.4.2 1.9.5.7-.7 1.7-1.1 2.8-1.1.9 0 1.8.3 2.5.8-.6-1.2-1.9-2-3.4-2-1 0-1.8.3-2.5.9-.4-.2-.9-.3-1.3-.3-1.4 0-2.6 1-2.9 2.4.8-.8 1.8-1.2 2.9-1.2z"/><path class="st4" d="M-861.2-735.5c-2.2 0-4.1-1.2-5.2-3-.2 0-.2 4.1 4.6 4.1 2.1 0 3.9-1.2 4.8-2.9-1.1 1.1-2.6 1.8-4.2 1.8z"/><path class="st13" d="M-862-744.6c0 1-.9 1.2-2 1.2v.4h.6c1 0 1.4-.4 1.4-1.4v-1.2 1z"/></g></svg>