<svg xmlns="http://www.w3.org/2000/svg" width="46" height="28.5"><style>.st1{fill:#2d3134}.st2{opacity:.29;enable-background:new}.st3{fill:#e5e5e5}.st4{opacity:.11;enable-background:new}.st7{fill:#656565}.st8{fill:#fff}.st10,.st8,.st9{enable-background:new}.st8,.st9{opacity:.2}.st10{opacity:.3}.st11,.st12{fill:#fff}.st12{opacity:.4;enable-background:new}.st13{fill:#cc291f}.st14{fill:#39c}.st16{fill:#fbd7c7}.st17{fill:#262626}.st19{fill:#06547a}</style><g id="i2033_1_"><path opacity=".3" fill="#262626" d="M-6500-6354.8l-140-70 320-160 140 70z" transform="matrix(.1 0 0 .1 664 664)"/><path class="st1" d="M-6239.3-6513.4l-50.2-14 34.6-19.9 17.5 16.9zm-192.4 99.8l-50.2-14 34.7-19.9 17.5 16.9z" transform="matrix(.1 0 0 .1 664 664)"/><path class="st2" d="M-6239.3-6513.4l-50.2-14 34.6-19.9 17.5 16.9zm-192.4 99.8l-50.2-14 34.7-19.9 17.5 16.9z" transform="matrix(.1 0 0 .1 664 664)"/><path class="st1" d="M-6468.4-6433.5c6.7-3.4 12.8-3.8 17.3-1.7l9.5 5.1c4.8 2.2 7.9 7.1 7.9 14.3 0 13.9-11.3 30.9-25.2 37.8-6.9 3.4-13.1 3.8-17.7 1.6 0 0-9.4-5-10.4-5.6-4.1-2.4-6.6-7.1-6.6-13.6 0-14 11.3-30.9 25.2-37.9z" transform="matrix(.1 0 0 .1 664 664)"/><path class="st2" d="M-6476.9-6376.5c-1.8-.9-9.2-4.9-10.1-5.5-4.1-2.4-6.6-7.1-6.6-13.6 0-5.6 1.8-11.7 4.9-17.4l9.5 5.1c-3.1 5.7-4.9 11.8-4.9 17.4-.1 6.8 2.7 11.7 7.2 14z" transform="matrix(.1 0 0 .1 664 664)"/><path class="st1" d="M-6484.2-6390.5c0 13.9 11.3 19.6 25.2 12.6s25.2-23.9 25.2-37.8-11.3-19.6-25.2-12.6c-13.9 6.9-25.2 23.9-25.2 37.8z" transform="matrix(.1 0 0 .1 664 664)"/><path class="st3" d="M-6478.6-6393.3c0 10.9 8.8 15.3 19.7 9.9 10.9-5.4 19.7-18.7 19.7-29.6s-8.8-15.3-19.7-9.9c-10.9 5.5-19.7 18.7-19.7 29.6z" transform="matrix(.1 0 0 .1 664 664)"/><path class="st1" d="M-6471.9-6384.5c-3-1.7-4.8-5-4.8-9.7v-1.1l11-1.7-6.2 12.5zm8.8-21.7l-11.5 2.5c2.4-5.7 6.7-11.3 11.9-14.9l-.4 12.4zm8.3-4.1l-.4-12c5.2-1.5 9.5-.3 11.9 3l-11.5 9zm13.6-2.8v1.1c0 4.7-1.8 9.8-4.8 14.5l-6.3-6.2 11.1-9.4zm-17.7 17.5l6.8 5.5c-2.1 1.9-4.4 3.5-6.8 4.7-2.4 1.2-4.7 1.9-6.8 2l6.8-12.2z" transform="matrix(.1 0 0 .1 664 664)"/><path class="st4" d="M-6484.2-6390.5c0 13.9 11.3 19.6 25.2 12.6s25.2-23.9 25.2-37.8-11.3-19.6-25.2-12.6c-13.9 6.9-25.2 23.9-25.2 37.8z" transform="matrix(.1 0 0 .1 664 664)"/><path class="st1" d="M-6276.2-6530.2c6.7-3.4 12.8-3.8 17.3-1.7l9.5 5.1c4.8 2.2 7.9 7.1 7.9 14.3 0 13.9-11.3 30.9-25.2 37.8-6.9 3.4-13.1 3.8-17.7 1.6 0 0-9.4-5-10.4-5.6-4.1-2.4-6.6-7.1-6.6-13.6-.1-14 11.2-30.9 25.2-37.9z" transform="matrix(.1 0 0 .1 664 664)"/><path class="st2" d="M-6284.8-6473.2c-1.8-.9-9.2-4.9-10.1-5.5-4.1-2.4-6.6-7.1-6.6-13.6 0-5.6 1.8-11.7 4.9-17.4l9.5 5.1c-3.1 5.7-4.9 11.8-4.9 17.4 0 6.8 2.8 11.6 7.2 14z" transform="matrix(.1 0 0 .1 664 664)"/><path class="st1" d="M-6292-6487.3c0 13.9 11.3 19.6 25.2 12.6 13.9-7 25.2-23.9 25.2-37.8s-11.3-19.6-25.2-12.6c-13.9 7-25.2 23.9-25.2 37.8z" transform="matrix(.1 0 0 .1 664 664)"/><path class="st3" d="M-6286.5-6490c0 10.9 8.8 15.3 19.7 9.9 10.9-5.4 19.7-18.7 19.7-29.6s-8.8-15.3-19.7-9.9c-10.9 5.5-19.7 18.7-19.7 29.6z" transform="matrix(.1 0 0 .1 664 664)"/><path class="st1" d="M-6279.8-6481.3c-3-1.7-4.8-5-4.8-9.7v-1.1l11-1.7-6.2 12.5zm8.9-21.7l-11.5 2.5c2.4-5.7 6.7-11.3 11.9-14.9l-.4 12.4zm8.2-4.1l-.4-12c5.2-1.5 9.5-.3 11.9 3l-11.5 9zm13.6-2.8v1.1c0 4.7-1.8 9.8-4.8 14.5l-6.3-6.2 11.1-9.4zm-17.7 17.6l6.8 5.5c-2.1 1.9-4.4 3.5-6.8 4.7-2.4 1.2-4.7 1.9-6.8 2l6.8-12.2z" transform="matrix(.1 0 0 .1 664 664)"/><path class="st4" d="M-6292-6487.3c0 13.9 11.3 19.6 25.2 12.6 13.9-7 25.2-23.9 25.2-37.8s-11.3-19.6-25.2-12.6c-13.9 7-25.2 23.9-25.2 37.8z" transform="matrix(.1 0 0 .1 664 664)"/><path d="M-6611-6488.8c19.3-17.2 102.5-82.6 116.4-92.9 13.9-10.3 64.2-41.9 98-50.6 33.8-8.7 38-3.6 44.9-5.1 6.9-1.5 27.4-6.3 57.6 3 12.9 4 28.2 8.4 40.7 19.6 16.6 14.8 29.4 37.8 35.6 50.3l1.3 4.2c2.3 7.5 1.3 15.7-2.7 22.4-3.4 5.7-7.7 12.3-10.9 15.9-2.8 3.1-6.2 6.4-9.1 9.2v-.7c0-10.6-6.2-17.4-15.8-17.4-3.8 0-7.9 1.1-12.1 3.2-14.5 7.2-26.2 24.9-26.2 39.4 0 1.9.2 3.7.6 5.4l-138.9 69.4c.1-1.1.2-2.2.2-3.2 0-10.6-6.2-17.4-15.8-17.4-3.8 0-7.9 1.1-12.1 3.2-14.5 7.2-26.2 24.9-26.2 39.4 0 1.7.2 3.2.5 4.7l-11.1 5.5s-20.8 5.4-34.1 4.2c-13.3-1.2-40.7-10.2-62.7-21.1s-40.6-30.1-41-40.1c-.2-3.8 3.6-33.3 22.9-50.5z" fill="#339" transform="matrix(.1 0 0 .1 664 664)"/><path class="st3" d="M-6433.9-6472.6c0 .1 83-47.9 82.9-48l.9-.2c0 .2 69.4-40.6 69.4-40.9l.9-.1c0 .3 2.4 26.5-7.4 47.3-9.9 20.8-20 34.3-20.1 34.4l-.1.1-121.6 61.6v-.7c0-.3-.9-29.6-2.4-37.9-1.5-8.3-3.3-15.3-3.3-15.3l.8-.3z" transform="matrix(.1 0 0 .1 664 664)"/><path class="st1" d="M-6533.8-6547.3s1.2-8.4 0-10.6c-1.2-2.1-3.3-5.4-6-3-2.7 2.4-5.7 9.3-3 15.7 2.7 6.4 9-2.1 9-2.1z" transform="matrix(.1 0 0 .1 664 664)"/><path d="M-6228.8-6580.1s-64.4 44.5-138.4 84.3-112.9 62.4-112.9 62.4l45.7-39.2 163.9-95.6 41.7-11.9z" opacity=".3" fill="#fff" transform="matrix(.1 0 0 .1 664 664)"/><path class="st1" d="M-6272.1-6567.2l-162.2 94.7s15.7-69 71.1-96.8c55.4-27.8 91.1 2.1 91.1 2.1zm-67.6-51.2c-21.6-10.2-39.2-13.3-39.2-15.4 0-2.1 55.5-4.8 89.8 12.4s32.6 32 19.6 30.4-30.4-3-35.9-5.7-15.9-13-34.3-21.7z" transform="matrix(.1 0 0 .1 664 664)"/><path class="st7" d="M-6268.9-6593.3c1.3 0 4.4-.3 4.9-2.6.8-3.4-3.8-12.9-27.1-24.5-25.5-12.7-61.4-13.7-71.8-13.7-5.3 0-9.3.2-12 .5 1.4.5 2.9 1 4.5 1.5 7.2 2.3 18.1 5.8 30.2 11.6 12.3 5.8 21.3 12.5 27.2 16.8 3.1 2.2 5.5 4 7.2 4.9 4.2 2.1 17.2 3.5 28.6 4.8 2.3.3 4.6.5 6.7.7h1.6z" transform="matrix(.1 0 0 .1 664 664)"/><path class="st1" d="M-6414.4-6540.3c2 5.5-30.1 59.7-40.1 62.4-9.9 2.7-39.8 1.8-69.3-14.5s-35-28.9-33.5-33.5c1.5-4.5 58.2-52.2 67.5-53.1 9.3-.9 73 32 75.4 38.7z" transform="matrix(.1 0 0 .1 664 664)"/><path class="st8" d="M-6493.1-6422.8s-4.2-5.6-15.5-6.9c-11.3-1.2-25.1-.1-35.4 9.1-7.7 6.9-10.5 9.8-10.5 9.8s21.8 7.1 32.6 5.6c10.7-1.5 28.8-17.6 28.8-17.6z" transform="matrix(.1 0 0 .1 664 664)"/><path class="st3" d="M-6495.2-6424.7s-3.9-5.2-14.3-6.3-23.2-.1-32.7 8.4c-7.1 6.3-9.7 9-9.7 9s20.1 6.6 30.1 5.2c9.9-1.4 26.6-16.3 26.6-16.3z" transform="matrix(.1 0 0 .1 664 664)"/><path class="st8" d="M-6614.4-6442.4s-15.2-14.2-14.4-18.2c.8-4.1 12.5-24.3 14-21.3s4.7 7.8 3.5 11.9c-1.2 4.1-3.4 24-3.1 27.6z" transform="matrix(.1 0 0 .1 664 664)"/><path class="st3" d="M-6614.3-6445.2s-14.3-14.2-13.6-18.2c.8-4.1 12.5-24.3 14-21.3s4.7 7.8 3.5 11.9c-1.2 4-4.2 23.9-3.9 27.6z" transform="matrix(.1 0 0 .1 664 664)"/><path class="st1" d="M-6523.7-6385.3l.5 4.4s-44.7-5.7-72.8-23c-28-17.4-34.8-30.9-34.8-30.9s21.6 23.4 48 34.2c27.7 11.3 59.1 15.3 59.1 15.3z" transform="matrix(.1 0 0 .1 664 664)"/><path class="st7" d="M-6550.9-6529.6c5.1-4.9 14.8-13.5 27.1-23.4 20-16.2 31.7-23.7 34.5-23.9h.1c4.1 0 20.4 6.8 38.6 16.2 20.9 10.7 32.1 18.3 33.7 20.6-.2 2.8-5.7 14.7-15.9 31.1-11.3 18.1-19.5 27.1-22.2 27.9-1.5.4-3.4.7-5.6.9-13.2-2-36-7.1-58.2-20.2-18.8-11.1-27.8-21.8-32.1-29.2zm265.1-41.4l2.1 6.3-62.4 36.4-10-40.2.3-.4c13.2-5.8 26.2-8.7 38.9-8.7 13.3.1 23.9 3.4 31.1 6.6zm-131.5 84.3l-2.5-15.3c1.1-2.3 2.2-4.6 3.5-7 9.4-17.8 26-41.7 52.3-55.8l6.2 43.3-59.5 34.8z" transform="matrix(.1 0 0 .1 664 664)"/><path class="st9" d="M-6296.2-6540.2c0 2.9 2.4 4.1 5.3 2.7 2.9-1.5 5.3-5 5.3-8s-2.4-4.1-5.3-2.7c-2.9 1.5-5.3 5-5.3 8z" transform="matrix(.1 0 0 .1 664 664)"/><path class="st3" d="M-6282.4-6549.2l2.3 2.6s-16.7 10.9-18.2 8.7c-1.6-2.1 15.9-11.3 15.9-11.3z" transform="matrix(.1 0 0 .1 664 664)"/><path class="st9" d="M-6367.4-6499.7c0 2.9 2.4 4.1 5.3 2.7 2.9-1.5 5.3-5 5.3-8 0-2.9-2.4-4.1-5.3-2.7-2.9 1.5-5.3 5-5.3 8z" transform="matrix(.1 0 0 .1 664 664)"/><path class="st3" d="M-6353.6-6508.8l2.3 2.6s-16.7 10.9-18.2 8.7c-1.6-2.1 15.9-11.3 15.9-11.3z" transform="matrix(.1 0 0 .1 664 664)"/><path class="st9" d="M-6433.9-6472.6c0 .1 1.8 7 3.3 15.4 1.4 7.6 2.2 32.8 2.4 37.3l79.6-40.3c.1-1.6 1.2-16.5 1.2-30.1 0-14.3-3.6-30.2-3.6-30.3l.9-.2c0 .2 3.6 16.2 3.6 30.5 0 12.6-.9 26.4-1.2 29.6l39.6-20c.9-1.2 10.5-14.3 19.9-34.2 9.7-20.5 7.4-46.5 7.3-46.8l.9-.1c0 .3 2.4 26.5-7.4 47.3-9.9 20.8-20 34.3-20.1 34.4l-.1.1-121.4 61.6v-.7c0-.3-.9-29.6-2.4-37.9-1.5-8.3-3.3-15.3-3.3-15.3l.8-.3z" transform="matrix(.1 0 0 .1 664 664)"/><path class="st10" d="M-6529.1-6423.6c0 3.6 2.9 7.9 6.5 9.7 3.6 1.8 6.5.3 6.5-3.2 0-3.6-2.9-7.9-6.5-9.7-3.6-1.8-6.5-.4-6.5 3.2zm-10 2.6c0 2.5 2 5.5 4.5 6.8 2.5 1.2 4.5.2 4.5-2.3s-2-5.5-4.5-6.8c-2.5-1.2-4.5-.2-4.5 2.3z" transform="matrix(.1 0 0 .1 664 664)"/><path class="st11" d="M-6514.7-6417.7c0 1.3 1.1 3 2.4 3.6 1.3.7 2.4.1 2.4-1.2s-1.1-3-2.4-3.6c-1.3-.7-2.4-.2-2.4 1.2z" transform="matrix(.1 0 0 .1 664 664)"/><path class="st12" d="M-6526.4-6420.9c0 1.8 1.5 4 3.2 4.9 1.8.9 3.2.2 3.2-1.6s-1.5-4-3.2-4.9c-1.7-.9-3.2-.2-3.2 1.6zm-11 1.7c0 1.3 1.1 3 2.4 3.6 1.3.7 2.4.1 2.4-1.2s-1.1-3-2.4-3.6c-1.3-.7-2.4-.1-2.4 1.2z" transform="matrix(.1 0 0 .1 664 664)"/><path class="st11" d="M-6511.1-6425.8c0 1.3 1.1 3 2.4 3.6 1.3.6 2.4.1 2.4-1.2s-1.1-3-2.4-3.6c-1.3-.6-2.4-.1-2.4 1.2zm-106.9-52.6c0 1.3 1.1 3 2.4 3.6 1.3.7 2.4.1 2.4-1.2s-1.1-3-2.4-3.6c-1.3-.7-2.4-.2-2.4 1.2zm-4.5 6.3c0 1.3 1.1 3 2.4 3.6 1.3.7 2.4.1 2.4-1.2s-1.1-3-2.4-3.6c-1.3-.7-2.4-.1-2.4 1.2z" transform="matrix(.1 0 0 .1 664 664)"/><path class="st10" d="M-6623.9-6467.9c0 3.1 2.5 6.8 5.6 8.3 3.1 1.5 5.6.3 5.6-2.8 0-3.1-2.5-6.8-5.6-8.3-3.1-1.5-5.6-.2-5.6 2.8z" transform="matrix(.1 0 0 .1 664 664)"/><path class="st12" d="M-6620.6-6464.6c0 1.6 1.3 3.5 2.8 4.3 1.6.8 2.8.1 2.8-1.4s-1.3-3.5-2.8-4.3c-1.5-.8-2.8-.2-2.8 1.4z" transform="matrix(.1 0 0 .1 664 664)"/><path class="st10" d="M-6619.4-6459.5c0-2.5 2-3.5 4.5-2.3.8.4 1.5.9 2.1 1.6-.4 2.7-.8 5.5-1.1 7.9-.3-.1-.7-.2-1.1-.4-2.4-1.2-4.4-4.3-4.4-6.8zm124.2 34.7c-4.9-.4-18.7-1.1-27.4 1s-23.8 7.9-29.2 10.1c.6-.6 3.4-3.4 9.6-8.9 9.5-8.5 22.3-9.5 32.7-8.4 9.5 1 13.6 5.4 14.3 6.2z" transform="matrix(.1 0 0 .1 664 664)"/><path class="st1" d="M-6411.7-6496.9s-7.5 3.6-10.9 8.1c-3.3 4.5-3.3 6.9-3.3 6.9s20.8 4.5 31.1-2.1c10.9-7.1-16.9-12.9-16.9-12.9zm-54.7 17.4l-3.8-.3-35-17-1.9-3.5-21.3-9.9.9-1.7 40.7 18.1-1.2 1.5-15.8-7 .9 1 34.2 16.4z" transform="matrix(.1 0 0 .1 664 664)"/><path class="st1" d="M-6503.4-6488.9h-3.3l-27.9-20.7-3.4-8-10.7-13.6.7-1 20.1 22.9-.8 1.2-5.4-4.8 1.5 2.7 28.3 19.6zm-42.2 66l-11.6 10.4s-16.8-3.2-31.8-10.9-24-18.1-24-18.1l1.2-15.2s6.8 12.3 26.4 22c17.4 8.7 39.8 11.8 39.8 11.8z" transform="matrix(.1 0 0 .1 664 664)"/><path class="st2" d="M-6592.2-6400.9c-21.9-11-40.6-29.6-41-39.6-.1-1.7-.2-4.5 2.2-12.4.2-.7 1.1-.8 1.5-.2 7.7 11 20.8 25.3 41.2 35.1 21.2 10.2 47.2 18.9 67.2 17.9 4.7-.2 5.5 4.5 5.9 11.9.2 4.8-3.8 8.8-8.6 8.3-17.2-1.7-44.8-9.2-68.4-21z" transform="matrix(.1 0 0 .1 664 664)"/><path class="st13" d="M-6219.4-6561.3s-6.3-16.1-9.8-21.1-7.4-9.5-7.4-9.5l1.1-3s7.4 2.6 8.7 4.8c1.4 2.3 8.9 25.6 8.9 25.6l-1.5 3.2z" transform="matrix(.1 0 0 .1 664 664)"/><path class="st9" d="M-6549-6526.7c-.7-1-1.3-2-1.8-2.9 5.1-4.9 14.8-13.5 27.1-23.4 20-16.2 31.7-23.7 34.5-23.9h.1c4.1 0 20.4 6.8 38.6 16.2 20.9 10.7 32.1 18.3 33.7 20.6-.1.9-.7 2.9-1.9 5.6-42.7-13.8-89.4-11.1-130.3 7.8z" transform="matrix(.1 0 0 .1 664 664)"/><path class="st3" d="M-6578.4-6406.6v14.6l-26.3-13.1v-14.5z" transform="matrix(.1 0 0 .1 664 664)"/><path class="st9" d="M-6614.3-6445.2s-14.3-14.2-13.6-18.2c.8-4.1 12.5-24.3 14-21.3s4.7 7.8 3.5 11.9c-1.2 4-4.2 23.9-3.9 27.6z" transform="matrix(.1 0 0 .1 664 664)"/><path class="st1" d="M-6415.8-6535.9c3.2-7.9 25.4-33.1 50-45.2 31-15.2 58-15.2 63.5-14.4l.2-1.3c-5.6-.8-33-.8-64.3 14.5-10.9 5.3-22.7 14-33.4 24.4-8.5 8.2-15.4 16.9-17.3 21.5l1.3.5zm-79.3-38.9l.1-.1c10-7.3 36.7-26.7 61.3-38.7 30.9-15.1 55-19.8 60.3-19.8v-1.4c-5.4 0-29.8 4.7-60.9 20-24.7 12.1-51.4 31.5-61.5 38.8l-.1.1.8 1.1zm91 125v-18.6l6-3.1c2.3-1.2 3.8-1.8 4.5-2 1.1-.3 2-.1 2.7.5.7.6 1.1 1.6 1.1 3.1 0 1.1-.2 2.2-.6 3.2s-.9 1.9-1.6 2.6c-.6.8-1.3 1.4-1.9 1.9-.9.6-2.2 1.4-3.9 2.3l-2.5 1.2v7l-3.8 1.9zm3.7-17.3v5.3l2.1-1c1.5-.8 2.5-1.4 3-1.8s.9-1 1.2-1.5c.3-.6.4-1.1.4-1.7 0-.7-.2-1.1-.6-1.4-.4-.2-.9-.3-1.5-.1-.4.1-1.4.6-2.7 1.3l-1.9.9zm12.9-.3c0-1.9.3-3.6.9-5.2.4-1.2 1-2.3 1.7-3.4s1.5-2.1 2.4-2.9c1.2-1.1 2.5-2 4-2.8 2.7-1.4 4.9-1.7 6.6-.8 1.6.9 2.5 2.8 2.5 5.8s-.8 5.8-2.5 8.3c-1.6 2.5-3.8 4.5-6.6 5.9s-5 1.7-6.6.8c-1.6-.8-2.4-2.7-2.4-5.7zm3.8-2.1c0 2.1.5 3.5 1.5 4 1 .6 2.2.5 3.7-.3s2.7-1.9 3.7-3.5 1.4-3.4 1.4-5.6c0-2.1-.5-3.5-1.4-4.1-.9-.6-2.2-.5-3.7.3s-2.8 2-3.7 3.5c-.9 1.5-1.5 3.6-1.5 5.7zm17.3.5v-18.5l3.8-1.9v15.3l9.3-4.8v3.1l-13.1 6.8zm15.6-7.9v-18.6l3.8-1.9v18.6l-3.8 1.9zm19.3-16.7l3.6-.7c-.6 2.3-1.5 4.3-2.8 5.9-1.3 1.6-2.9 3-4.9 4-2.5 1.3-4.5 1.5-6.1.6-1.6-.9-2.4-2.8-2.4-5.7 0-3.1.8-5.9 2.4-8.4 1.6-2.5 3.7-4.5 6.3-5.8 2.3-1.2 4.1-1.4 5.5-.8.8.4 1.5 1.2 1.9 2.5l-3.7 2.8c-.2-.9-.7-1.4-1.4-1.6-.7-.2-1.5-.1-2.5.5-1.4.7-2.5 1.8-3.4 3.2s-1.3 3.3-1.3 5.5c0 2.4.4 3.8 1.3 4.4.8.6 1.9.5 3.3-.2 1-.5 1.9-1.3 2.6-2.3.7-1.1 1.3-2.4 1.6-3.9zm6.8 3.4v-18.6l13.8-7v3.1l-10 5.1v4.1l9.3-4.8v3.1l-9.3 4.8v5.1l10.4-5.3v3.1l-14.2 7.3z" transform="matrix(.1 0 0 .1 664 664)"/><path class="st4" d="M-6498.2-6414c7-7.9 47-49.9 57.4-66.3 13.6-21.3 35.8-73.4 76.7-92.9 41-19.5 87.4-11.2 101.4-10.2 8.5.5 21.7-2.6 30.9-5.2 6 9.1 10.7 17.9 13.8 24.2l1.3 4.2c2.3 7.5 1.3 15.7-2.7 22.4-3.4 5.7-7.7 12.3-10.9 15.9-2.8 3.1-6.2 6.4-9.1 9.2v-.7c0-10.6-6.2-17.4-15.8-17.4-3.8 0-7.9 1.1-12.1 3.2-14.5 7.2-26.2 24.9-26.2 39.4 0 1.9.2 3.7.6 5.4l-138.9 69.4c.1-1.1.2-2.2.2-3.2 0-10.6-6.2-17.4-15.8-17.4-3.8 0-7.9 1.1-12.1 3.2-14.5 7.2-26.2 24.9-26.2 39.4 0 1.7.2 3.2.5 4.7l-11.1 5.5s-5.8 1.5-13.2 2.8c1.8-14.7 5.5-29 11.3-35.6z" transform="matrix(.1 0 0 .1 664 664)"/><path class="st1" d="M-6382-6578.8l-58-30 22-11 59 29z" transform="matrix(.1 0 0 .1 664 664)"/><path class="st14" d="M-6380-6609.8l15.5 7.8c2.7 1.4 4.5 4.2 4.5 7.2 0 3.1-1.7 5.9-4.5 7.2l-11.9 6c-2.3 1.1-5 1.1-7.2 0l-16.4-8.2v-10l20-10z" transform="matrix(.1 0 0 .1 664 664)"/><path class="st13" d="M-6435.5-6622l11.9-6c2.3-1.1 5-1.1 7.2 0l16.4 8.2-20 10v10l-15.5-7.8c-2.7-1.4-4.5-4.2-4.5-7.2 0-3.1 1.7-5.9 4.5-7.2z" transform="matrix(.1 0 0 .1 664 664)"/><path class="st3" d="M-6400-6619.8l20 10-20 10v10l-20-10v-10z" transform="matrix(.1 0 0 .1 664 664)"/><path class="st2" d="M-6400-6599.8v10l-20-10v-10zm-20-10v10l-15.5-7.8c-2.7-1.4-4.5-4.2-4.5-7.2 0-1.6.5-3.1 1.3-4.4l18.7 9.4zm40 20v9c-1.2 0-2.5-.3-3.6-.9l-16.4-8.1v-10l20 10z" transform="matrix(.1 0 0 .1 664 664)"/><path class="st4" d="M-6361.3-6599.2c.8 1.3 1.3 2.8 1.3 4.4 0 3.1-1.7 5.9-4.5 7.2l-11.9 6c-1.1.6-2.4.9-3.6.9v-9l18.7-9.5z" transform="matrix(.1 0 0 .1 664 664)"/><path d="M-6362-6598.8l-18 9-20-10 20 8zm-58-11l-17-9-1-1 17-9-15 9z" transform="matrix(.1 0 0 .1 664 664)" opacity=".8" fill="#fff"/></g><g id="i2040_1_"><path class="st9" d="M-6550.1-6478.4c26.9-13.2 1-17.9-14.1-26.3-20.8-11.6-27.5-15.7-43-6.1-17.1 10.6.2 17.9 16.1 25.3 18.1 8.4 25 14.9 41 7.1z" transform="matrix(.1 0 0 .1 696 672)"/><path class="st16" d="M-6598.2-6630.2c-.1 6-1.4 12.5-2.9 17.5s-1 10.7-.5 11.7 1.8 4.7 2 5.6c.3.9 1.6.9 1.8-.8.3-1.6-.4-5 .2-6s2.3-.1 2.7-2.4-2.8-5.8-2.4-7.5c.5-1.7 5.1-5.6 5-8.4-.1-2.7.1-9.2.1-9.2l-6-.5z" transform="matrix(.1 0 0 .1 696 672)"/><path class="st17" d="M-6597.1-6515.1c-2.2 2.3-5.1 5.4-8.1 7s-5.8 3.8-5.3 6 3.9 4.6 10.1 3c3.7-.9 5.3-4.4 7.9-5.1 2.6-.7 6.5-2.3 6.8-3.6.3-1.4.3-5.2.3-5.2l-11.7-2.1zm38.5 19.5c-1 2.5-2.7 5.6-5.3 8.1-2.7 2.6-4.7 6.3-3.2 8.1 1.5 1.9 8.1 2.5 11.4.6 3.2-1.9 10-7.7 10.5-8.8.5-1.2-.1-6.2-.1-6.2l-13.3-1.8z" transform="matrix(.1 0 0 .1 696 672)"/><path d="M-6585.8-6507.9c.1-.4.1-.9.2-1.5-1.3 1.1-4.3 2.5-7.1 3.3-3.4.9-5.8 4.8-9.4 5.9-3.2.9-8-.5-8.4-3.3-.2.5-.2.9-.1 1.4.5 2.2 3.9 4.6 10.1 3 3.7-.9 5.3-4.4 7.9-5.1 2.6-.7 6.5-2.3 6.8-3.7zm40.5 20.3c.2-.4.2-1.2.2-2.2-1.1 1.5-3.6 3.6-5.4 5.4-2.2 2.1-5.5 5-9.6 5.5-3.2.4-6.3-.2-7.6-2.5-.1.8 0 1.5.5 2.1 1.5 1.9 8.1 2.5 11.4.6 3.3-1.9 10.1-7.7 10.5-8.9z" transform="matrix(.1 0 0 .1 696 672)" opacity=".5"/><path class="st19" d="M-6596.2-6607.7s-3 9.5-4 23.3.6 35.7.6 46.6c0 10.9 1.1 19.3.4 21.4-.7 2.1-1.2 3.3 0 3.3s5.9 2.2 8.7 2.7c2.8.6 5.1 1 5.7-.9.6-1.9 3-23.8 2.7-31.2-.3-7.4.2-12.8 2-19.3s5.3-26.9 5.3-26.9l.3-13.9-21.7-5.1z" transform="matrix(.1 0 0 .1 696 672)"/><path class="st9" d="M-6596.2-6607.7s-3 9.5-4 23.3.6 35.7.6 46.6c0 10.9 1.1 19.3.4 21.4-.7 2.1-1.2 3.3 0 3.3s5.9 2.2 8.7 2.7c2.8.6 5.1 1 5.7-.9.6-1.9 3-23.8 2.7-31.2-.3-7.4.2-12.8 2-19.3s5.3-26.9 5.3-26.9l.3-13.9-21.7-5.1z" transform="matrix(.1 0 0 .1 696 672)"/><path class="st19" d="M-6587.3-6604.6c-.1 1.4.3 20 1.5 23.5 1.2 3.4 5.1 5.3 7.9 13.3 2.7 8 3.5 15.3 6.2 23.8 2.7 8.4 10.1 36.2 10.6 41.9s-.5 8.7.4 9.3c1.6 1 3.6 1.8 5.8 2.4 2.3.7 7.5 1.1 9.6-.1 2.2-1.3 2.6-2.3 1.8-7.3s-3.2-25.2-5.2-32.3-6.2-33.6-6.5-42.1c-.3-8.5.5-17.2-2.8-24.3s-6.4-9.4-6.4-9.4l-22.9 1.3z" transform="matrix(.1 0 0 .1 696 672)"/><path class="st17" d="M-6596.8-6609.8l-.1 3.7s1.1 6 13.9 7.1c12.8 1.2 20.5-4.8 20.5-4.8l-.7-3.1s-11.1 5.3-21.7 3.7c-10.6-1.7-11.9-6.6-11.9-6.6z" transform="matrix(.1 0 0 .1 696 672)"/><path class="st14" d="M-6582.7-6665c-4.6 1.6-11.1 1.3-13 6.9-1.9 5.6-5 14.7-4.3 20.5s2.4 12.1 2.6 15.3c.1 3.2-.6 8.2.1 10.7s.8 5.1 4.9 6.9c6.1 2.7 11.7 3.4 18.7 2.4 8.1-1.1 10.7-3.3 11.3-5.4.7-2.1 1.2-5.6 2-10 .8-4.5 2.3-10.5 2.3-10.5s3.1 4.6 4.5 5.2c1.5.7 3.2.6 3.2.6s1.6 1.4 2.3 1.4c.7 0 4.5-1 7.2-2.7 2.7-1.6 3.9-2.8 3.9-3.2 0-.4-1.1-2.3-1.1-2.3s1.2-1.1.5-2.2c-.7-1-6.5-8.4-8.4-11.8s-4.8-10-9.1-12.2c-4.3-2.2-9.4-1.9-10.9-2.6-1.6-.7.3-3.3-.4-4.3-.7-.7-9.8-5.1-16.3-2.7z" transform="matrix(.1 0 0 .1 696 672)"/><path class="st17" d="M-6580.7-6602.5l9 .2.6 17.3-9.4-.1z" transform="matrix(.1 0 0 .1 696 672)"/><path class="st16" d="M-6588.4-6643.4l3.9-7.9s3.3-.9 6.2-3.5c2.9-2.6 8.6-5.4 8.6-5.4s-2.9-2.7-3.3-5.6c-.3-2.9 3.1-7.1 1.8-13.9-1.2-6.7-7.1-11.5-16.4-7.4-9.3 4.1-8.4 19.2-6.4 25.8 1.9 6.6 7.3 4.3 7.3 4.3s-1.1 5.2-1.2 7c-.1 1.8-.5 6.6-.5 6.6zm51.3 16.8s3 4 3.9 6.8c.9 2.8-3 8.7-9.8 13.3-6.7 4.6-15.4 8.9-17.3 10.3-1.9 1.4-8.5 6.7-11.2 7.4-5.4 1.4-8.2-.6-8.8-2.7-.6-2.1 6.4-5.3 7.2-6.3.8-1 0-2.8-.8-3-.8-.3-2.8-.6-3.3-2s1.2-.9 2.6-.6c1.4.3 4.5 1.2 5.5 1.5 1 .3 1.6 1.5 3.2.9s8.8-9.1 12.8-12.4c3.7-3.1 7.5-4.1 7.5-4.1l-2-3.3s2.6-.5 6.1-2.4c2.2-1.4 4.4-3.4 4.4-3.4z" transform="matrix(.1 0 0 .1 696 672)"/><path d="M-6594.3-6679.8c-.1 1.2.9 2.5 3.9 3.2 3.8.9 7.9-2.1 11-.2 1.7 1.1 2.3 7.2 3.3 7.2.4-1.9 1.1-3.8 2.8-3.5 1.5.3 1.3 2.2 1.2 2.9.9.4 3.8-8 .2-13.9-3.5-6-11.6-6.1-16.4-3.4-4.8 2.7-5.9 6.5-6 7.7z" fill="#825012" transform="matrix(.1 0 0 .1 696 672)"/><path class="st19" d="M-6595.3-6679.2s-5.5 4.7.2 7.5 17.8-1.6 17.8-1.6l7.5-1.6.5-1.1s3.7.4 4.5-1.4c.9-1.8-5.4-9.7-13.2-12.1s-17.6-5.2-19-1.9c-1.4 3.3 2.8 8 2.8 8l-1.1 4.2z" transform="matrix(.1 0 0 .1 696 672)"/><path class="st17" d="M-6569.3-6676l-.9 2s-10.7 1.5-18-1c-6.6-2.3-7.1-4.3-7.1-4.3l1-4.3s1.6 2.9 8.9 5.2c6.5 2.2 16.1 2.4 16.1 2.4z" transform="matrix(.1 0 0 .1 696 672)"/><path class="st3" d="M-6587.7-6651.7c-.1.7-.2 1.3-.2 1.7-.1 1.8-.5 6.5-.5 6.5l3.6-7.2-2.9-1z" transform="matrix(.1 0 0 .1 696 672)"/><path class="st19" d="M-6561.3-6652.3s.8-1.5 1.7-2.2c.8-.6 1.7-.8 1.7-.8s-8.3-2.3-9.4-1.1c-1 1.1-.5 2.4 1.3 2.9 1.9.4 4.7 1.2 4.7 1.2zm4.7 16.6l-.1-3.1 1.9-.7.1-1.9 1.8-.2.5-1.8 2.8.3s-.1 1.4.4 1.9c.7.8 2.5 1.3 3 2.8.5 1.6-1.3 5.8-1.3 5.8s-4.4 1.8-5.8.8c-1.3-.9-.7-2.6-1.5-3.5-.7-.7-1.8-.4-1.8-.4z" transform="matrix(.1 0 0 .1 696 672)"/><path class="st3" d="M-6552.4-6637.5l-.2-1.5 1.4.2.8-1.3.6 1.4 1.2-.2-.1 1.4 1.1.8-1.5.7-.1 1.7-1.2-.2-.8 1.3-.9-1.2-1.2.4.4-1.7-1.1-1z" transform="matrix(.1 0 0 .1 696 672)"/><path class="st19" d="M-6584.8-6636.1l16.2 5.3-1.2 3.7h-9.6l-6.4-5.2zm-7.7-3l-.7 2.8-5.3.8-2-4.3.7-3.7z" transform="matrix(.1 0 0 .1 696 672)"/><path class="st17" d="M-6596.9-6608.7l2.7 4.1s-1.9 13.4-4.5 14.7c-2.6 1.3-.5-12.3-.5-12.3l2.3-6.5z" transform="matrix(.1 0 0 .1 696 672)"/><path class="st3" d="M-6561.4-6655.6l.9 1.2-1.9.9.3-.7.8-.3-.3-.5z" transform="matrix(.1 0 0 .1 696 672)"/></g></svg>