<svg xmlns="http://www.w3.org/2000/svg" width="36.4" height="47.3"><style>.st0{fill:#e5e5e5}.st1{fill:#fff}.st2{fill:#39c}.st3,.st4{opacity:.15;enable-background:new}.st4{opacity:.3}.st5{fill:#2d3134}.st6{opacity:.39}.st6,.st7,.st8{enable-background:new}.st7{opacity:6.000000e-02}.st8{opacity:.2}.st9{fill:#fbd7c7}.st10{fill:#262626}.st12{fill:#06547a}.st13{fill:#825012}.st14{fill:#999}.st15{fill:#fc0}</style><g id="i1445_1_"><path class="st0" d="M-1227.6-464l-16-8v-24l16 8z" transform="translate(1248 504)"/><path class="st1" d="M-1230.6-482.5l-10-5v17l10 5z" transform="translate(1248 504)"/><path class="st2" d="M-1231.6-466l-8-4v-16l8 4z" transform="translate(1248 504)"/><path class="st3" d="M-1231.6-472l-8-14 8 4z" transform="translate(1248 504)"/><path class="st4" d="M-1238.6-470.5v-15l-1-.5v16l8 4v-1z" transform="translate(1248 504)"/><path class="st0" d="M-1211.6-472l-16 8v-24l16-8z" transform="translate(1248 504)"/><path class="st1" d="M-1213.6-488l-12 6v9l12-6z" transform="translate(1248 504)"/><path class="st2" d="M-1214.6-479.5l-10 5v-7l10-5z" transform="translate(1248 504)"/><path class="st4" d="M-1214.6-479.5l-10 5v-1l10-5z" transform="translate(1248 504)"/><path class="st5" d="M-1227.6-488l16-8-16-8-16 8z" transform="translate(1248 504)"/><path class="st6" d="M-1211.6-472l-16 8v-24l16-8z" transform="translate(1248 504)"/><path class="st7" d="M-1227.6-464l-16-8v-24l16 8z" transform="translate(1248 504)"/></g><g id="i1442_1_"><path class="st8" d="M-12335.8-4808.6c26.9-13.2 1-17.9-14.1-26.3-20.8-11.6-27.5-15.7-43-6.1-17.1 10.6.2 17.9 16.1 25.3 18.1 8.4 25 14.9 41 7.1z" transform="matrix(.1 0 0 .1 1240 520)"/><path class="st9" d="M-12383.9-4960.4c-.1 6-1.4 12.5-2.9 17.5s-1 10.7-.5 11.7 1.8 4.7 2 5.6c.3.9 1.6.9 1.8-.8.3-1.6-.4-5 .2-6s2.3-.1 2.7-2.4c.4-2.3-2.8-5.8-2.4-7.5.5-1.7 5.1-5.6 5-8.4-.1-2.7.1-9.2.1-9.2l-6-.5z" transform="matrix(.1 0 0 .1 1240 520)"/><path class="st10" d="M-12382.8-4845.3c-2.2 2.3-5.1 5.4-8.1 7-3 1.6-5.8 3.8-5.3 6s3.9 4.6 10.1 3c3.7-.9 5.3-4.4 7.9-5.1 2.6-.7 6.5-2.3 6.8-3.6.3-1.4.3-5.2.3-5.2l-11.7-2.1zm38.5 19.5c-1 2.5-2.7 5.6-5.3 8.1-2.7 2.6-4.7 6.3-3.2 8.1 1.5 1.9 8.1 2.5 11.4.6 3.2-1.9 10-7.7 10.5-8.8.5-1.2-.1-6.2-.1-6.2l-13.3-1.8z" transform="matrix(.1 0 0 .1 1240 520)"/><path d="M-12371.5-4838.1c.1-.4.1-.9.2-1.5-1.3 1.1-4.3 2.5-7.1 3.3-3.4.9-5.8 4.8-9.4 5.9-3.2.9-8-.5-8.4-3.3-.2.5-.2.9-.1 1.4.5 2.2 3.9 4.6 10.1 3 3.7-.9 5.3-4.4 7.9-5.1 2.6-.7 6.5-2.3 6.8-3.7zm40.5 20.3c.2-.4.2-1.2.2-2.2-1.1 1.5-3.6 3.6-5.4 5.4-2.2 2.1-5.5 5-9.6 5.5-3.2.4-6.3-.2-7.6-2.5-.1.8 0 1.5.5 2.1 1.5 1.9 8.1 2.5 11.4.6s10.1-7.7 10.5-8.9z" transform="matrix(.1 0 0 .1 1240 520)" opacity=".5"/><path class="st12" d="M-12381.9-4937.9s-3 9.5-4 23.3.6 35.7.6 46.6 1.1 19.3.4 21.4c-.7 2.1-1.2 3.3 0 3.3s5.9 2.2 8.7 2.7c2.8.6 5.1 1 5.7-.9.6-1.9 3-23.8 2.7-31.2-.3-7.4.2-12.8 2-19.3s5.3-26.9 5.3-26.9l.3-13.9-21.7-5.1z" transform="matrix(.1 0 0 .1 1240 520)"/><path class="st8" d="M-12381.9-4937.9s-3 9.5-4 23.3.6 35.7.6 46.6 1.1 19.3.4 21.4c-.7 2.1-1.2 3.3 0 3.3s5.9 2.2 8.7 2.7c2.8.6 5.1 1 5.7-.9.6-1.9 3-23.8 2.7-31.2-.3-7.4.2-12.8 2-19.3s5.3-26.9 5.3-26.9l.3-13.9-21.7-5.1z" transform="matrix(.1 0 0 .1 1240 520)"/><path class="st12" d="M-12373-4934.8c-.1 1.4.3 20 1.5 23.5 1.2 3.4 5.1 5.3 7.9 13.3 2.7 8 3.5 15.3 6.2 23.8 2.7 8.4 10.1 36.2 10.6 41.9.5 5.7-.5 8.7.4 9.3 1.6 1 3.6 1.8 5.8 2.4 2.3.7 7.5 1.1 9.6-.1 2.2-1.3 2.6-2.3 1.8-7.3s-3.2-25.2-5.2-32.3c-2-7.1-6.2-33.6-6.5-42.1-.3-8.5.5-17.2-2.8-24.3-3.3-7.1-6.4-9.4-6.4-9.4l-22.9 1.3z" transform="matrix(.1 0 0 .1 1240 520)"/><path class="st10" d="M-12382.5-4940l-.1 3.7s1.1 6 13.9 7.1c12.8 1.2 20.5-4.8 20.5-4.8l-.7-3.1s-11.1 5.3-21.7 3.7c-10.6-1.7-11.9-6.6-11.9-6.6z" transform="matrix(.1 0 0 .1 1240 520)"/><path class="st2" d="M-12368.4-4995.2c-4.6 1.6-11.1 1.3-13 6.9-1.9 5.6-5 14.7-4.3 20.5.7 5.8 2.4 12.1 2.6 15.3.1 3.2-.6 8.2.1 10.7s.8 5.1 4.9 6.9c6.1 2.7 11.7 3.4 18.7 2.4 8.1-1.1 10.7-3.3 11.3-5.4.7-2.1 1.2-5.6 2-10 .8-4.5 2.3-10.5 2.3-10.5s3.1 4.6 4.5 5.2c1.5.7 3.2.6 3.2.6s1.6 1.4 2.3 1.4 4.5-1 7.2-2.7c2.7-1.6 3.9-2.8 3.9-3.2s-1.1-2.3-1.1-2.3 1.2-1.1.5-2.2c-.7-1-6.5-8.4-8.4-11.8-1.9-3.4-4.8-10-9.1-12.2-4.3-2.2-9.4-1.9-10.9-2.6-1.6-.7.3-3.3-.4-4.3-.7-.7-9.8-5.1-16.3-2.7z" transform="matrix(.1 0 0 .1 1240 520)"/><path class="st10" d="M-12366.4-4932.7l9 .2.6 17.3-9.4-.1z" transform="matrix(.1 0 0 .1 1240 520)"/><path class="st9" d="M-12374.1-4973.6l3.9-7.9s3.3-.9 6.2-3.5c2.9-2.6 8.6-5.4 8.6-5.4s-2.9-2.7-3.3-5.6c-.3-2.9 3.1-7.1 1.8-13.9-1.2-6.7-7.1-11.5-16.4-7.4-9.3 4.1-8.4 19.2-6.4 25.8 1.9 6.6 7.3 4.3 7.3 4.3s-1.1 5.2-1.2 7c-.1 1.8-.5 6.6-.5 6.6zm51.3 16.8s3 4 3.9 6.8c.9 2.8-3 8.7-9.8 13.3-6.7 4.6-15.4 8.9-17.3 10.3-1.9 1.4-8.5 6.7-11.2 7.4-5.4 1.4-8.2-.6-8.8-2.7-.6-2.1 6.4-5.3 7.2-6.3s0-2.8-.8-3c-.8-.3-2.8-.6-3.3-2s1.2-.9 2.6-.6c1.4.3 4.5 1.2 5.5 1.5 1 .3 1.6 1.5 3.2.9s8.8-9.1 12.8-12.4c3.7-3.1 7.5-4.1 7.5-4.1l-2-3.3s2.6-.5 6.1-2.4c2.2-1.4 4.4-3.4 4.4-3.4z" transform="matrix(.1 0 0 .1 1240 520)"/><path class="st13" d="M-12380-5010c-.1 1.2.9 2.5 3.9 3.2 3.8.9 7.9-2.1 11-.2 1.7 1.1 2.3 7.2 3.3 7.2.4-1.9 1.1-3.8 2.8-3.5 1.5.3 1.3 2.2 1.2 2.9.9.4 3.8-8 .2-13.9-3.5-6-11.6-6.1-16.4-3.4-4.8 2.7-5.9 6.5-6 7.7z" transform="matrix(.1 0 0 .1 1240 520)"/><path class="st12" d="M-12381-5009.4s-5.5 4.7.2 7.5 17.8-1.6 17.8-1.6l7.5-1.6.5-1.1s3.7.4 4.5-1.4c.9-1.8-5.4-9.7-13.2-12.1-7.8-2.4-17.6-5.2-19-1.9-1.4 3.3 2.8 8 2.8 8l-1.1 4.2z" transform="matrix(.1 0 0 .1 1240 520)"/><path class="st10" d="M-12355-5006.2l-.9 2s-10.7 1.5-18-1c-6.6-2.3-7.1-4.3-7.1-4.3l1-4.3s1.6 2.9 8.9 5.2c6.5 2.2 16.1 2.4 16.1 2.4z" transform="matrix(.1 0 0 .1 1240 520)"/><path class="st0" d="M-12373.4-4981.9c-.1.7-.2 1.3-.2 1.7-.1 1.8-.5 6.5-.5 6.5l3.6-7.2-2.9-1z" transform="matrix(.1 0 0 .1 1240 520)"/><path class="st12" d="M-12347-4982.5s.8-1.5 1.7-2.2c.8-.6 1.7-.8 1.7-.8s-8.3-2.3-9.4-1.1c-1 1.1-.5 2.4 1.3 2.9 1.9.4 4.7 1.2 4.7 1.2zm4.7 16.6l-.1-3.1 1.9-.7.1-1.9 1.8-.2.5-1.8 2.8.3s-.1 1.4.4 1.9c.7.8 2.5 1.3 3 2.8.5 1.6-1.3 5.8-1.3 5.8s-4.4 1.8-5.8.8c-1.3-.9-.7-2.6-1.5-3.5-.7-.7-1.8-.4-1.8-.4z" transform="matrix(.1 0 0 .1 1240 520)"/><path class="st0" d="M-12338.1-4967.7l-.2-1.5 1.4.2.8-1.3.6 1.4 1.2-.2-.1 1.4 1.1.8-1.5.7-.1 1.7-1.2-.2-.8 1.3-.9-1.2-1.2.4.4-1.7-1.1-1z" transform="matrix(.1 0 0 .1 1240 520)"/><path class="st12" d="M-12370.5-4966.3l16.2 5.3-1.2 3.7h-9.6l-6.4-5.2zm-7.7-3l-.7 2.8-5.3.8-2-4.3.7-3.7z" transform="matrix(.1 0 0 .1 1240 520)"/><path class="st10" d="M-12382.6-4938.9l2.7 4.1s-1.9 13.4-4.5 14.7c-2.6 1.3-.5-12.3-.5-12.3l2.3-6.5z" transform="matrix(.1 0 0 .1 1240 520)"/><path class="st0" d="M-12347.1-4985.8l.9 1.2-1.9.9.3-.7.8-.3-.3-.5z" transform="matrix(.1 0 0 .1 1240 520)"/></g><g transform="matrix(.1 0 0 .1 1256 536)" id="i1443_1_"><ellipse transform="rotate(-16.973 -12395.404 -4903.35)" class="st8" cx="-12394.8" cy="-4903.1" rx="26.8" ry="14.6"/><path class="st13" d="M-12394.6-4925.6s-12.3.8-17.3 2.2-3.7 8.6.8 11.3c4.5 2.7 7.4 3.8 7.4 3.8s-7.3.1-9.2 1c-1.9.9-6 2.7-5.6 5.4.4 2.7 3.8 4.1 6.3 3.1 2.4-1 6.2-4.2 8.3-4.7 2.1-.5 8.3 0 8.8-.5s.9-1.3.9-1.3l3.5.9 12.7-12.9-16.6-8.3z"/><path class="st8" d="M-12394.6-4925.6s-12.3.8-17.3 2.2-3.7 8.6.8 11.3c4.5 2.7 7.4 3.8 7.4 3.8s-7.3.1-9.2 1c-1.9.9-6 2.7-5.6 5.4.4 2.7 3.8 4.1 6.3 3.1 2.4-1 6.2-4.2 8.3-4.7 2.1-.5 8.3 0 8.8-.5s.9-1.3.9-1.3l3.5.9 12.7-12.9-16.6-8.3z"/><path class="st13" d="M-12372-4912.8c-.2-2.9-4.9-6.2-10.4-4.4-5.5 1.8-10.4 7.2-10 10.4.4 3.2 4.1 6.8 4.1 6.8s-4.3-.1-5.9 1.3c-1.7 1.4-1.4 2.4-2.7 4.2-1.3 1.8-3.1 4.2-.3 5.2 2.8 1 5 .9 6.4-.6s1.8-4.9 1.8-4.9 5.1-1.2 6.4-1.9c2.6-1.4 1.4-4.6 1.4-4.6s4.3-1 6.6-4.2 2.9-3.4 2.6-7.3z"/><path class="st5" d="M-12421.2-4975.3c2.5-2.4 7.6-5.6 8.1-6.7.5-1.2-.7-5.2.4-5.9 1.1-.7 3.5-1.4 3.5-1.4s0-2.1.8-4.8c.8-2.7 1-5.3 1-5.3s2.3 2.6 2.8 4.1 2.2 3.5 2.2 3.5 2.3-.7 4.5.4c1.9.9 2.5 1.8 2.5 1.8l.9-4.4s2.5 2.6 3.1 6.1c.5 3 .4 3.8.4 3.8s2.2 4.6 2.4 9.5 2.3 9.8 5.6 14.3 9 11 10.1 17.3c1.1 6.3 4.2 17.6 3.9 22.7-.3 5.4-.8 13.8-5.7 17.2-3.3 2.3-6.4 1.8-6.4 1.8s-4.9-4.2-5-5.1c-.1-.9 7-6.8 8.8-8.3 1.8-1.4.5-2.6.5-2.6s-4.3-1.1-6.2-1.5c-4.6-1.2-9-4-9-4s-1.5 5.3-1.3 8.7c.3 3.4.4 6.9-1.1 9.1s-3.4 6.4-3.5 8.7c-.1 2.3-.6 5.3-2.9 6.4-2.3 1.2-6.6-.2-6.6-1.5s1.5-3.2 3-4.8c1.5-1.6 5.3-10.1 5.7-12.6.4-2.5.5-18.2.5-18.2l-5.6-2s.1 8.7.2 11.4c.1 2.8-.2 6.3-1.5 10.2s-2.6 9.3-3.1 10.7c-.5 1.3-2 3.2-3.9 3.5-3.2.4-6.2-1.5-5.3-3.3.9-1.7 3.7-3.8 5-6 1.4-2.4 3.2-6.2 3.4-10.3.3-8-1.9-19.9-2.3-22.1-.4-2.2-3-4.7-2-11s5.1-10.9 5.2-13.1c.1-2.2 1.3-8.3-.4-9s-6.3 2-10.5-1.3c-4.2-3.2-2.2-6-2.2-6z"/><path class="st13" d="M-12395.8-4974.2c-.4-1-7.1-1-12.8-2.1-3.5-.7-7.8-.8-10.5-.7-.8.6-1.5 1.2-2.1 1.8 0 0-2 2.8 2.1 6.1s8.8.5 10.5 1.3c.5.2.8 1 .9 2 .6 1.2 1.6 2.5 2.6 2.2 1.8-.6 9.7-9.6 9.3-10.6z"/><path d="M-12407.2-4980.5c-.1-.7 3.8-.7 3.9-.1s-3.7 1.4-3.9.1z"/><path class="st13" d="M-12396-4980.1c-1.4-.7-1.2-3.9 0-6.3 1.2-2.3 2.1-5.3 2.1-5.3s2.4 4.7 2 7.4c-.4 2.6-1.8 5.3-4.1 4.2z"/><path class="st10" d="M-12419.9-4973.1c-.7-.6-1.9-2.2-1.3-3.7.6-1.4 4-2.9 5.6-1.6 1.6 1.3.2 4.1-.5 4.9-.8.9-2.7 1.3-3.8.4z"/></g><g transform="translate(1264 504)" id="i1444_1_"><ellipse class="st14" cx="-1235.6" cy="-469.7" rx="1.5" ry=".8"/><path class="st14" d="M-1235.6-497l4-2-4-4-4 4zm1 3.7h-2v23.5c0 .3.4.5 1 .5s1-.2 1-.5v-23.5z"/><path class="st8" d="M-1234.6-493.3h-2v23.5c0 .3.4.5 1 .5s1-.2 1-.5v-23.5z"/><path class="st14" d="M-1235.6-469c-.8 0-1.5-.3-1.5-.8v10c0 .5.7.8 1.5.8s1.5-.3 1.5-.8v-10c0 .5-.7.8-1.5.8z"/><path class="st8" d="M-1235.6-469c-.8 0-1.5-.3-1.5-.8v10c0 .5.7.8 1.5.8s1.5-.3 1.5-.8v-10c0 .5-.7.8-1.5.8z"/><path class="st14" d="M-1235.6-497l-4-2 2 7 2 1 2-1 2-7z"/><path class="st15" d="M-1235.1-496.7l2.7-1.3-1.6 5.7-1.1.5z"/><path class="st3" d="M-1234.6-497l2.2-1-1.6 5.7z"/><path class="st15" d="M-1237.2-492.3l-1.6-5.7 2.7 1.3v4.9z"/><path opacity=".2" fill="#fff" d="M-1237.2-492.3l-1.6-5.7 2.7 6.2z"/><path class="st6" d="M-1235.6-491l2-1 2-7-4 2z"/><path class="st7" d="M-1235.6-491l-2-1-2-7 4 2z"/><circle class="st14" cx="-1235.6" cy="-503" r="1"/></g></svg>