<svg xmlns="http://www.w3.org/2000/svg" width="40" height="25.8"><style>.st1{fill:#2d3134}.st2{opacity:6.000000e-02;enable-background:new}.st3{fill:#c4c6cc}.st4{opacity:.39;enable-background:new}.st5{fill:#cc291f}.st6{fill:#39c}.st7{opacity:.15;enable-background:new}</style><g id="i2035_1_"><path opacity=".3" fill="#262626" d="M490-598.2l14-7-26-13-14 7z" transform="matrix(-1 0 0 1 504 624)"/><path class="st1" d="M491.3-602.2l11.5-5.8-25-12.5-11.5 5.5 14.4 7.3.6.5z" transform="matrix(-1 0 0 1 504 624)"/><path class="st1" d="M487.1-607.5c-.8-.4-1.5-.4-2-.2l-1.1.6c-.6.3-.9.8-.9 1.7 0 1.6 1.3 3.6 2.9 4.4.8.4 1.5.4 2.1.2 0 0 1.1-.6 1.2-.7.5-.3.8-.8.8-1.6-.1-1.6-1.4-3.6-3-4.4z" transform="matrix(-1 0 0 1 504 624)"/><path class="st2" d="M488-600.9c.2-.1 1.1-.6 1.2-.6.5-.3.8-.8.8-1.6 0-.7-.2-1.4-.6-2l-1.1.6c.4.7.6 1.4.6 2 0 .8-.3 1.4-.9 1.6z" transform="matrix(-1 0 0 1 504 624)"/><path class="st3" d="M485.9-606.2c-1.2-.6-2.2-.1-2.2 1.1 0 1.2 1 2.7 2.2 3.3 1.2.6 2.2.1 2.2-1.1.1-1.2-.9-2.7-2.2-3.3zm1.5 1.5c.2.3.3.6.1.7-.1.1-.8 0-1.1-.1 0-.1-.1-.1-.1-.2.1-.3.3-.8.5-.9.1-.1.4.2.6.5zm-1.5-1.3c.3.2.6.4.6.6 0 .2-.3.7-.5.9 0 0-.1 0-.1-.1s-.1 0-.1 0c-.2-.4-.5-1.1-.5-1.3.1-.3.3-.3.6-.1zm-1.4-.1c.2-.1.5-.1.7.2.1.2.4 1 .5 1.3-.1 0-.1 0-.1.1-.3-.3-1-.8-1.1-1-.3-.4-.2-.5 0-.6zm-.6 1.1c0-.3.1-.5.4-.4.2.1.8.7 1.1 1v.2c-.3 0-.9 0-1.1-.1-.3-.1-.4-.4-.4-.7zm.6 1.7c-.2-.3-.3-.6-.1-.7.1-.1.8 0 1.1.1 0 .1.1.1.1.2-.1.3-.3.8-.5.9-.1.1-.4-.2-.6-.5zm1.4 1.3c-.3-.2-.6-.4-.6-.6 0-.2.3-.7.5-.9 0 0 .1 0 .1.1h.1c.2.4.5 1.1.5 1.3 0 .3-.2.3-.6.1zm1.5.2c-.2.1-.5.1-.7-.2-.1-.2-.4-1-.5-1.3.1 0 .1 0 .1-.1.3.3 1 .8 1.1 1 .3.3.2.4 0 .6zm.2-.8c-.2-.1-.8-.7-1.1-1v-.2c.3 0 .9 0 1.1.1.3.1.4.4.4.7s-.1.5-.4.4z" transform="matrix(-1 0 0 1 504 624)"/><path class="st4" d="M486.1-601.9c-1.2-.6-2.2-2.1-2.2-3.3 0-.6.2-1 .6-1.2-.5.2-.8.6-.8 1.3 0 1.2 1 2.7 2.2 3.3.6.3 1.2.3 1.6.1-.4.2-.8.1-1.4-.2z" transform="matrix(-1 0 0 1 504 624)"/><path class="st4" d="M488.9-602.5c0 1.6-1.3 2.3-2.9 1.5s-3-2.8-3-4.5 1.3-2.3 2.9-1.5c1.7.9 3 2.9 3 4.5z" transform="matrix(-1 0 0 1 504 624)"/><path class="st1" d="M472.1-615c-.8-.4-1.5-.4-2-.2l-1.2.6c-.5.2-.9.8-.9 1.6 0 1.6 1.3 3.6 2.9 4.4.8.4 1.5.4 2.1.2 0 0 1.1-.6 1.2-.7.5-.3.8-.8.8-1.6 0-1.5-1.3-3.5-2.9-4.3z" transform="matrix(-1 0 0 1 504 624)"/><path class="st2" d="M473-608.4c.2-.1 1.1-.6 1.2-.6.5-.3.8-.8.8-1.6 0-.7-.2-1.4-.6-2l-1.1.6c.4.7.6 1.4.6 2 0 .8-.3 1.4-.9 1.6z" transform="matrix(-1 0 0 1 504 624)"/><path class="st3" d="M470.9-613.7c-1.2-.6-2.2-.1-2.2 1.1 0 1.2 1 2.7 2.2 3.3 1.2.6 2.2.1 2.2-1.1.1-1.2-.9-2.7-2.2-3.3zm1.5 1.5c.2.3.3.6.1.7-.1.1-.8 0-1.1-.1 0-.1-.1-.1-.1-.2.1-.3.3-.8.5-.9.1-.1.4.2.6.5zm-1.5-1.3c.3.2.6.4.6.6 0 .2-.3.7-.5.9 0 0-.1 0-.1-.1h-.1c-.2-.4-.5-1.1-.5-1.3.1-.3.3-.3.6-.1zm-1.4-.1c.2-.1.5-.1.7.2.1.2.4 1 .5 1.3-.1 0-.1 0-.1.1-.3-.3-1-.8-1.1-1-.3-.4-.2-.5 0-.6zm-.6 1.1c0-.3.1-.5.4-.4.2.1.8.7 1.1 1v.2c-.3 0-.9 0-1.1-.1-.3-.1-.4-.4-.4-.7zm.6 1.7c-.2-.3-.3-.6-.1-.7.1-.1.8 0 1.1.1 0 .1.1.1.1.2-.1.3-.3.8-.5.9-.1.1-.4-.2-.6-.5zm1.4 1.3c-.3-.2-.6-.4-.6-.6 0-.2.3-.7.5-.9 0 0 .1 0 .1.1h.1c.2.4.5 1.1.5 1.3 0 .3-.2.3-.6.1zm1.5.2c-.2.1-.5.1-.7-.2-.1-.2-.4-1-.5-1.3.1 0 .1 0 .1-.1.3.3 1 .8 1.1 1 .3.3.2.4 0 .6zm.2-.8c-.2-.1-.8-.7-1.1-1v-.2c.3 0 .9 0 1.1.1.3.1.4.4.4.7s-.1.5-.4.4z" transform="matrix(-1 0 0 1 504 624)"/><path class="st4" d="M471.1-609.4c-1.2-.6-2.2-2.1-2.2-3.3 0-.6.2-1 .6-1.2-.5.2-.8.6-.8 1.3 0 1.2 1 2.7 2.2 3.3.6.3 1.2.3 1.6.1-.4.2-.8.1-1.4-.2z" transform="matrix(-1 0 0 1 504 624)"/><path class="st4" d="M473.9-610c0 1.6-1.3 2.3-2.9 1.5-1.7-.9-3-2.8-3-4.5s1.3-2.3 2.9-1.5c1.7.9 3 2.9 3 4.5z" transform="matrix(-1 0 0 1 504 624)"/><path class="st5" d="M499.8-613l-3.8-5.2-8-4-7.3-.3-6.3-1.5-9 4.5v4l2 1.3c.6-1.2 1.9-1.6 3.5-.8 1.8.9 3.2 2.9 3.5 4.7l8 4.1c.2-1.7 1.7-2.3 3.5-1.4 1.8.9 3.3 3 3.5 4.9h.3l2.8 1.3 10.5-5.3v-4l-3.2-2.3z" transform="matrix(-1 0 0 1 504 624)"/><path class="st6" d="M486.7-613l9.4-4.6 3.2 4.4-9.4 4.6z" transform="matrix(-1 0 0 1 504 624)"/><path class="st7" d="M490.2-614.7l5.9-2.9 3.2 4.4z" transform="matrix(-1 0 0 1 504 624)"/><path class="st6" d="M472.7-617.9l8.6-4.2 5.1.1-8.5 4.3z" transform="matrix(-1 0 0 1 504 624)"/><path opacity=".06" fill="#fff" d="M472.7-617.9l10.2-2.3-5 2.5z" transform="matrix(-1 0 0 1 504 624)"/><path class="st1" d="M473.3-618l8.3-4.1h-.3l-8.6 4.2z" transform="matrix(-1 0 0 1 504 624)"/><path d="M503-610.2l-1.5.7v1l1.5-.7zm-10.5 5.2l2-1v1l-2 1-.5-.2v-1z" transform="matrix(-1 0 0 1 504 624)" fill="#f90"/><path fill="#fff" d="M495.5-606l5-2.5v1.3l-5 2.5z" transform="matrix(-1 0 0 1 504 624)"/><path fill="#fc0" d="M466-618.7l-.5-.3v1.8l.5.2z" transform="matrix(-1 0 0 1 504 624)"/><path class="st6" d="M482.3-611.5l5.5 2.8-2.8-4.5-2.7-1.4zm-.8-3.5l-3.5-1.7h-6.2l9.7 4.9z" transform="matrix(-1 0 0 1 504 624)"/><path class="st7" d="M482.8-611.5v-2.8l-.5-.3v3.1l5.5 2.8-.3-.4zm-10.5-5.2h-.5l9.7 4.9v-.3z" transform="matrix(-1 0 0 1 504 624)"/><path class="st4" d="M489.8-608l-3.8-5.2-8-4-7.3-.3-5.3-2v4l2 1.3c.6-1.2 1.9-1.6 3.5-.8 1.8.9 3.2 2.9 3.5 4.7l7.2 3.7.8.4c.2-1.7 1.7-2.3 3.5-1.4 1.8.9 3.3 3 3.5 4.9h.3l2.8 1.3v-4l-2.7-2.6z" transform="matrix(-1 0 0 1 504 624)"/><path class="st5" d="M492.3-601l11.5-5.7v-1.5l-11.5 5.7-1-.5v1.5z" transform="matrix(-1 0 0 1 504 624)"/><path class="st2" d="M492.3-601l11.5-5.7v-1.5l-11.5 5.7-1-.5v1.5z" transform="matrix(-1 0 0 1 504 624)"/><path class="st5" d="M492.3-603l11-5.5.5.3-11.5 5.7-1-.5.5-.2zm-27-13.2l1 .5v1l-1-.5z" transform="matrix(-1 0 0 1 504 624)"/><path class="st2" d="M465.3-616.2l1 .5v1l-1-.5z" transform="matrix(-1 0 0 1 504 624)"/><path class="st5" d="M466.3-615.7v1l.2-.3v-1l-1-.5-.2.3z" transform="matrix(-1 0 0 1 504 624)"/><path class="st2" d="M499.8-613l-10 5-3.8-5.2 10-5z" transform="matrix(-1 0 0 1 504 624)"/><path class="st5" d="M473.3-616.8l-1 .4c-.2.2-.3.3-.3.5s.2.4.4.4h1.8l-.3-1c-.1-.2-.4-.4-.6-.3z" transform="matrix(-1 0 0 1 504 624)"/><path class="st2" d="M473.3-616.8l-1 .4c-.2.2-.3.3-.3.5s.2.4.4.4h1.8l-.3-1c-.1-.2-.4-.4-.6-.3z" transform="matrix(-1 0 0 1 504 624)"/><path class="st1" d="M472.4-615.7c-.1 0-.2-.1-.2-.2s0-.2.1-.2l1-.4h.1c.1 0 .2.1.2.1l.2.7h-1.4z" transform="matrix(-1 0 0 1 504 624)"/><path class="st2" d="M503-610.7l-10.5 5.2v2.4l10.5-5.3z" transform="matrix(-1 0 0 1 504 624)"/></g></svg>