<svg xmlns="http://www.w3.org/2000/svg" width="124" height="80"><style>.st0{fill:#825012}.st1,.st2{opacity:.11;enable-background:new}.st2{opacity:.29}.st3{fill:#fc0}.st5{opacity:.2;enable-background:new}.st6{fill:#f90}.st8{opacity:.3;enable-background:new}.st9{fill:#e5e5e5}.st10{opacity:.39}.st10,.st11,.st12{enable-background:new}.st11{opacity:6.000000e-02}.st12{opacity:.4}.st13{fill:#fbd7c7}.st14{fill:#939}.st15{opacity:.15;enable-background:new}.st18{fill:#999}</style><g id="i2143_1_"><path class="st0" d="M-364-842l-32 16v2l32 16 32-16v-2z" transform="translate(456 888)"/><path class="st1" d="M-396-826l32 16v2l-32-16z" transform="translate(456 888)"/><path class="st2" d="M-332-826v2l-32 16v-2zm-32-10v-4l-28 14 4 2z" transform="translate(456 888)"/><path class="st1" d="M-364-836l24 12 4-2-28-14z" transform="translate(456 888)"/><path class="st3" d="M-391-825.5l27 13.5 27-13.5-27-13.5z" transform="translate(456 888)"/><path d="M-373.5-829c-1 0-1.8.4-1.8.9l-.7 3.8c0 .7 1.1 1.3 2.5 1.3s2.5-.6 2.5-1.3l-.8-3.8c.1-.5-.7-.9-1.7-.9z" fill="#cc291f" transform="translate(456 888)"/><path class="st5" d="M-373.5-827.3c-1 0-1.8-.4-1.8-.9l-.7 3.9c0 .7 1.1 1.3 2.5 1.3s2.5-.6 2.5-1.3l-.8-3.8c.1.5-.7.8-1.7.8z" transform="translate(456 888)"/><g transform="translate(456 888)"><path class="st6" d="M-362-824.1c0 .6-.6 1.2-1.4 1.2-.8 0-1.4-.5-1.4-1.2"/><path class="st5" d="M-362-824.1c0 .6-.6 1.2-1.4 1.2-.8 0-1.4-.5-1.4-1.2"/><path class="st1" d="M-363.4-823.1c-.4 0-.8-.1-1.1-.3.2.3.6.4 1.1.3.5.1.9-.1 1.1-.3-.3.2-.7.3-1.1.3z"/><ellipse class="st6" cx="-363.4" cy="-824.2" rx="1.4" ry=".7"/><ellipse cx="-363.4" cy="-824.2" rx="1.1" ry=".4" opacity=".5" fill="#202426"/><path class="st6" d="M-364.4-823.7l-.2-.2-3.4 1.2v.2l1 .5 2.6-1.4z"/><path class="st2" d="M-367-822.2v.2l2.6-1.4v-.3z"/><path class="st1" d="M-367-822.2v.2l-1-.5v-.2z"/></g><path class="st5" d="M-349.4-826.1c0 .6-1.2 1.1-2.8 1.1-1.5 0-2.8-.5-2.8-1.1 0-.6 1.2-3.9 2.8-3.9 1.5 0 2.8 3.3 2.8 3.9zm-8.2-1.6c0 .4-.7.7-1.7.7s-1.7-.3-1.7-.7c0-.4.7-2.3 1.7-2.3s1.7 2 1.7 2.3z" transform="translate(456 888)"/></g><g id="i2145_1_"><path class="st8" d="M401-841.5l-4 2 14 7 4-2z" transform="matrix(-1 0 0 1 448 880)"/><path class="st9" d="M401.8-847.3l-1-.5c-.1-.1-.3-.1-.4 0l-3.5 1.8c-.6.2-.9.8-.9 1.4v4.6l1 .5 4.7-2.9.1-4.9z" transform="matrix(-1 0 0 1 448 880)"/><path class="st9" d="M397-839.5v-4.6c0-.6.3-1.2.9-1.4l3.5-1.8c.3-.1.6.1.6.4v4.9l-5 2.5z" transform="matrix(-1 0 0 1 448 880)"/><path class="st10" d="M396-840l1 .5v-4.6l-1-.5z" transform="matrix(-1 0 0 1 448 880)"/><path class="st11" d="M397-839.5v-4.6c0-.6.3-1.2.9-1.4l3.5-1.8c.3-.1.6.1.6.4v4.9l-5 2.5z" transform="matrix(-1 0 0 1 448 880)"/><path class="st0" d="M402-845.5l-5 2.5v1l14 7v-1l5-2.5z" transform="matrix(-1 0 0 1 448 880)"/><path class="st10" d="M411-836l-14-7v1l14 7z" transform="matrix(-1 0 0 1 448 880)"/><path class="st8" d="M412.2-836.6l-14-7-.2.1 14 7zm1-.5l-14-7-.2.1 14 7zm1-.5l-14-7-.2.1 14 7zm1-.5l-14-7-.2.1 14 7z" transform="matrix(-1 0 0 1 448 880)"/><path class="st9" d="M416.8-839.8l-1-.5c-.1-.1-.3-.1-.4 0l-3.5 1.8c-.5.3-.9.8-.9 1.4v4.6l1 .5 4.7-2.9.1-4.9z" transform="matrix(-1 0 0 1 448 880)"/><path class="st9" d="M412-832v-4.6c0-.6.3-1.2.9-1.4l3.5-1.8c.3-.1.6.1.6.4v4.9l-5 2.5z" transform="matrix(-1 0 0 1 448 880)"/><path class="st10" d="M411-832.5l1 .5v-4.6l-1-.5z" transform="matrix(-1 0 0 1 448 880)"/><path class="st11" d="M412-832v-4.6c0-.6.3-1.2.9-1.4l3.5-1.8c.3-.1.6.1.6.4v4.9l-5 2.5z" transform="matrix(-1 0 0 1 448 880)"/></g><g transform="translate(416 888)" id="i2146_1_"><path class="st9" d="M-388-844c-1.7 0-3 .7-3 1.5v6c0 .8 1.3 1.5 3 1.5s3-.7 3-1.5v-6c0-.8-1.3-1.5-3-1.5z"/><path class="st5" d="M-388-841c-1.7 0-3-.7-3-1.5v6c0 .8 1.3 1.5 3 1.5s3-.7 3-1.5v-6c0 .8-1.3 1.5-3 1.5z"/><ellipse class="st12" cx="-388" cy="-842.5" rx="2.3" ry=".9"/></g><g id="i2147_1_"><path class="st5" d="M4026.6-8270.7c-11.2 7.2-11.7 13.7 0 19.9 12.8 6.9 21.3 3.1 31.3-2.5s11.2-12.7-3.5-18.6c-11.9-4.7-19.4-4.2-27.8 1.2z" transform="matrix(-.1 0 0 .1 448 872)"/><path class="st13" d="M4027.6-8302.9c.5 6 1.5 16 1.2 22.4-.3 7-1.1 11-2 15-.9 4.2-6.2 7.7-2.4 8.7 3.8.9 8.8-.9 10.2-5.1 1.4-4.2 7-9.6 7.5-11.4s-3.8-4.5-3.9-7.5c-.1-3 .8-9.3 2.4-14.6 1.6-5.3.8-7.9.8-7.9l-13.8.4z" transform="matrix(-.1 0 0 .1 448 872)"/><path class="st9" d="M4027.8-8273.4s5 1.4 7.7-.4c2.6-1.8 3.5-5.1 3.5-5.1s3 2.1 3.5 5.1-1.3 9.3-1.3 9.3l-2 2-3.1-1s-1.1 5.7-4.3 7.5c-3.5 1.9-9.8 1-10.2-.8-.7-3.2 2.4-4.2 3.7-6.3 1.3-2.1 2.5-10.3 2.5-10.3z" transform="matrix(-.1 0 0 .1 448 872)"/><path class="st12" d="M4021.6-8257.4c0 .2 0 .4.1.6.4 1.8 6.7 2.7 10.2.8 3.3-1.8 4.3-7.5 4.3-7.5l3.1 1 2-2s1.3-4.6 1.4-7.9c-.4.8-1.1 1.5-2.1 2.1-3.4 2-3.9 3.3-5.1 6.7-1.1 3-1.6 6.1-5.7 7.2-2.5.8-6.3.3-8.2-1z" transform="matrix(-.1 0 0 .1 448 872)"/><path class="st13" d="M4042.2-8300.1c0 2 1.6 16.8 1.2 22-.4 5.2-1.1 12.5-3.2 16.4-2.2 3.9-7.1 6.8-4.2 8.4 2.9 1.6 10.1 1.8 12.2-2.8 2.1-4.6 8-12.5 6.7-14.6-1.3-2.1-3.5-4.3-2.4-10.2 1.2-5.9 4.7-14.6 5.1-16.9.3-2.3-15.4-2.3-15.4-2.3z" transform="matrix(-.1 0 0 .1 448 872)"/><path class="st9" d="M4041.8-8268.3s3.8 1.4 6.2 0c2.4-1.4 4.7-6.7 4.7-6.7s2.8 1.2 2.8 5.1c0 3.9-.7 4.7-.7 6.4s.3 3 .3 3l-1.6 1.6-3.1-.8s-1.1 6.1-4 8c-3.9 2.7-10.5 1.4-12.3-.5-1-1.1-.8-3.3 1.7-5s4.5-5.2 4.9-6.7c.4-1.5 1.1-4.4 1.1-4.4z" transform="matrix(-.1 0 0 .1 448 872)"/><path class="st12" d="M4050.5-8259.7l3.1.8 1.6-1.6s-.3-1.3-.3-3c0-1.6.6-2.4.7-6.4v-.4c-1.1 3-3 4.4-5.1 8.2-1.9 3.5-1.2 7.9-6.3 10.2-3.6 1.7-8.8-.3-10.4-1.4.1.4.3.7.5.9 1.8 1.9 8.4 3.1 12.3.5 2.7-1.7 3.9-7.8 3.9-7.8z" transform="matrix(-.1 0 0 .1 448 872)"/><path class="st14" d="M4046.2-8348.4c-1.8 1.8-13.1 11.8-16.1 15.5-3 3.7-5.2 9.3-4.3 13.8.9 4.5 1.9 20.1 1.8 24.7-.1 4-.6 8.5.4 9.1 1 .7 9 2.2 12-.5 1.2-1 3.3-17.3 3.7-23 .4-5.8 1.7-10.4 5-12.7 3.3-2.4 14.2-9.8 15.1-13.6.9-3.8.5-10.2.5-10.2l-18.1-3.1z" transform="matrix(-.1 0 0 .1 448 872)"/><path class="st15" d="M4046.2-8348.4c-1.8 1.8-13.1 11.8-16.1 15.5-3 3.7-5.2 9.3-4.3 13.8.9 4.5 1.9 20.1 1.8 24.7-.1 4-.6 8.5.4 9.1 1 .7 9 2.2 12-.5 1.2-1 3.3-17.3 3.7-23 .4-5.8 1.7-10.4 5-12.7 3.3-2.4 14.2-9.8 15.1-13.6.9-3.8.5-10.2.5-10.2l-18.1-3.1z" transform="matrix(-.1 0 0 .1 448 872)"/><path class="st14" d="M4053.2-8343.6l.1 10.2s-7 5.3-10.4 9.2c-2.8 3.2-3.5 6.8-3 11.2.5 4.3.3 10.5.3 15.6 0 3.7-.2 14.2.2 15.5.4 1.3 5.5 1.4 8.5 1 3-.4 6.2-1.3 6.4-2 .3-.7.9-9.6 2.2-15 1.3-5.4 1.3-12.7 1.3-12.7s11.3-4.6 16.4-6.6c5.1-2 11-6.4 13-14.2 2-7.7-1-15.1-1-15.1l-34 2.9z" transform="matrix(-.1 0 0 .1 448 872)"/><path d="M4040.3-8379.5l4.5 2s-2.4 3.5-2.2 8.1c.3 4.6 3.5 5.2 3.1 11.4-.2 4-3 6.9-4.6 9.8-1.4 2.6-3.5 6.7-4 8.6-1 3.6 7.3 6.5 11.8 7.4 9.8 2 39 6 40.1-3.4 1.1-9.2-3.5-14.1-5.4-20.9-1.7-6.1.9-24.2.3-28.5-.7-4.3-3-7.1-9.4-9.6-5.7-2.3-13.1-4.1-18.5-4.3-5.4-.3-11.7-1.5-13.4 7.1-1.6 8.1-2.3 12.3-2.3 12.3z" fill="#baa794" transform="matrix(-.1 0 0 .1 448 872)"/><path class="st13" d="M4070.7-8371.2l10 .6s-.8 16.5-1.2 18.5-2 4.5-6.3 11c-3.8 5.8-12.6 13.8-13.4 15.7-.8 2-2.1 4-4.5 4.9-2.4.9-3.3 1.6-4.4 3-1 1.3-2.8 3-5.8 2.2s-4.1-2.8-2.3-5.1c1.8-2.4 3.5-6 5.2-6.5s5.1-.8 5.9-1.2c1.2-.6 5.2-5.9 6.7-9.8 3.3-9.1 9.3-13.8 9.8-16.9.6-3.1.3-16.4.3-16.4z" transform="matrix(-.1 0 0 .1 448 872)"/><path class="st15" d="M4070.9-8362.7l-.4-12.2s-3.8 13.5-10.2 12.2c-6.4-1.3-5.9-13.8-5.9-13.8s-3.3 8.8-7.9 9.4c-1.8.3-2.9-.1-3.6-.6.6 2.3 2.1 3.6 2.7 6.3 3.6 1.3 7.3-4.9 7.3-4.9s.5 8.3 7.5 8.7c6.8.4 10.5-5.1 10.5-5.1z" transform="matrix(-.1 0 0 .1 448 872)"/><path class="st13" d="M4040.9-8379.2l3.8 1.6s-2.4 6.3-2 8.8c.5 2.7 2.1 5.4 2.1 5.4s.6 1.1-.1 4.5c-.4 1.8-1.1 6.2-3.1 11.4-2.1 5.2-5.1 10-5.3 11.7-.1 1.7-.4 2.1-1.6 3.5-1.2 1.4-2.9 1.4-3.1 2.4-.2 1 .1 3.9-.8 5.1-.9 1.2-4.4 1.3-4.8 1s-1.9-6.7-1.1-8.1c.8-1.4 4.5-2.5 5.1-3.9.7-1.4 3.3-11.3 4.1-15.3.8-3.9 1.4-10.4 3.5-15.4 2.1-4.9 3.3-12.7 3.3-12.7zm16-46c-5.1 3.3-5.5 10.4-5.4 15.2.2 4.8.3 8.8 2.1 10.4 1.8 1.6 2 2.3 2.2 3.5.2 1.1-5.5 5.5-.6 7.7s6.6-.3 10.5-2c4.2-1.8 7-3.1 7-3.1s-2.1-3-1.9-6.3c.2-3.2.9-5.6 2.5-8.9 1.6-3.3 4-12.2-1.1-15.7-5-3.5-11.8-3-15.3-.8z" transform="matrix(-.1 0 0 .1 448 872)"/><path d="M4069.8-8426.8s-3.3-4.1-9.8-2c-6.5 2.1-7.9 7.6-7.9 7.6l2.6-1.7-1.6 3.4 2.4-2.1s-1.1 2.5-1.1 2.4c0-.1 2.5-2 2.5-2s-1.7 4.4-1.7 4.2 6.2-5.9 6.2-5.9l-3.2 6.9 1.5-.5-1.4 7 1.4-2.4.3 5.4 1.7-6 1 4.1 1.1-3.9 1.4 6.5 1.3-3.3.8 2.9 1.7-4.3.4 1.7 1.5-2.6.2 1.6 1-.2-1.9 7.2 1.8-3.5-.5 6.1 3-7 .3 1.5 1.5-6.5.3 3.1.6-4.7.9.9-.7-4.2.9.5-1.8-3.5 1.2.5c-.2 0-2-7.5-7.9-7.2z" fill="#2d3134" transform="matrix(-.1 0 0 .1 448 872)"/></g><g transform="translate(392 848)" id="i2160_1_"><ellipse class="st18" cx="-388" cy="-813.7" rx="1.5" ry=".8"/><path class="st18" d="M-388-841l4-2-4-4-4 4zm1 3.7h-2v23.5c0 .3.4.5 1 .5s1-.2 1-.5v-23.5z"/><path class="st5" d="M-387-837.3h-2v23.5c0 .3.4.5 1 .5s1-.2 1-.5v-23.5z"/><path class="st18" d="M-388-813c-.8 0-1.5-.3-1.5-.8v10c0 .5.7.8 1.5.8s1.5-.3 1.5-.8v-10c0 .5-.7.8-1.5.8z"/><path class="st5" d="M-388-813c-.8 0-1.5-.3-1.5-.8v10c0 .5.7.8 1.5.8s1.5-.3 1.5-.8v-10c0 .5-.7.8-1.5.8z"/><path class="st18" d="M-388-841l-4-2 2 7 2 1 2-1 2-7z"/><path class="st3" d="M-387.5-840.7l2.7-1.3-1.6 5.7-1.1.5z"/><path class="st15" d="M-387-841l2.2-1-1.6 5.7z"/><path class="st3" d="M-389.6-836.3l-1.6-5.7 2.7 1.3v4.9z"/><path opacity=".2" fill="#fff" d="M-389.6-836.3l-1.6-5.7 2.7 6.2z"/><path class="st10" d="M-388-835l2-1 2-7-4 2z"/><path class="st11" d="M-388-835l-2-1-2-7 4 2z"/><circle class="st18" cx="-388" cy="-847" r="1"/></g></svg>