<svg xmlns="http://www.w3.org/2000/svg" width="79.3" height="99.8"><path d="M79.3 60l-2.1-34.9C76.3 10.4 63.6-.8 48.8 0c-8.5.5-16.3 4.3-21.9 10.7L2 38.9a7.99 7.99 0 0 0-2 5.7c.3 4.3 4 7.7 8.3 7.4 1.9-.1 3.8-.7 5.4-1.6l11-6.4 2.9 48c.3 4.5 4.2 8 8.7 7.7s8-4.2 7.7-8.7l-.8-13.4c1.3.6 2.7.9 4.2.9 3.6-.2 6.5-2.7 7.4-6 1.4.8 3 1.2 4.7 1.1 3.6-.2 6.5-2.7 7.4-6 1.4.8 3 1.2 4.7 1.1 4.5-.2 8-4.1 7.7-8.7zm-4.1.3c.1 2.3-1.6 4.2-3.9 4.4-2.3.1-4.2-1.6-4.4-3.9l-.6-10.3c-.1-1.1-1-2-2.2-1.9s-2 1-1.9 2.2l.9 14.4c.1 2.3-1.6 4.2-3.9 4.4S55 68 54.8 65.7L54 51.3c-.1-1.1-1-2-2.2-1.9-1.1.1-2 1-1.9 2.2L51 70c.1 2.3-1.6 4.2-3.9 4.4s-4.2-1.6-4.4-3.9l-1-18.5c-.1-1.1-1-2-2.2-1.9-1.1.1-2 1-1.9 2.2l2.4 39c.1 2.3-1.6 4.2-3.9 4.4-2.3.1-4.2-1.6-4.4-3.9l-3.1-51.3c0-.7-.5-1.3-1.1-1.7-.6-.3-1.4-.3-2 0l-13.8 8c-1.1.6-2.4 1-3.6 1.1-2.1.1-3.8-1.4-4-3.5-.1-1 .3-2 .9-2.7l25-28.2c4.9-5.6 11.7-8.9 19.1-9.3 12.5-.8 23.2 8.8 24 21.2l2.1 34.9z" fill="#d80027"/></svg>