<svg xmlns="http://www.w3.org/2000/svg" width="32" height="27.3"><style>.st1{fill:#fc0}.st2{fill:#f90}</style><g id="i2100_1_"><path d="M-129.3-695.6l5.1 2.6c1.7.9 1.7 3.3 0 4.1l-5.1 2.6c-4.2 2.1-9.2 2.1-13.5 0l-5.1-2.6c-1.7-.9-1.7-3.3 0-4.1l5.1-2.6c4.3-2.2 9.3-2.2 13.5 0z" opacity=".3" transform="translate(152 712)"/><path class="st1" d="M-134-686.7l11-17.1-14.7-7.3c-1.5-1.2-3.7-1.2-6.3 0-4.4 2.2-8 7.6-8 12 0 2 .8 3.5 2 4.3l.6.3 15.4 7.8z" transform="translate(152 712)"/><path class="st2" d="M-135.8-710.1s-.3-.2-.8-.4c-.6-.2-1.4-.3-2.4-.2-1 .1-2.1.5-3.1 1.1-.6.3-1.1.7-1.6 1-.5.4-1 .8-1.5 1.3-.4.5-.9 1-1.3 1.5s-.8 1-1.1 1.5c-.3.5-.7 1-.9 1.5-.3.5-.5 1-.7 1.5s-.3.9-.5 1.3c-.1.4-.2.7-.3 1-.1.6-.2.9-.2.9v-.9c0-.3 0-.7.1-1.1 0-.4.1-.9.3-1.4.1-.5.3-1 .6-1.6.2-.6.5-1.1.8-1.7.4-.5.7-1.1 1.2-1.6.4-.6.9-1.1 1.4-1.6s1-.9 1.6-1.3c.6-.4 1.2-.8 1.7-1 1.2-.6 2.4-.9 3.5-.9s1.9.3 2.5.6c.3.1.5.3.6.4l.1.1zm7 3.5s-.3-.2-.8-.4c-.6-.2-1.4-.3-2.4-.2-1 .1-2.1.5-3.1 1.1-.6.3-1.1.7-1.6 1-.5.4-1 .8-1.5 1.3s-.9.9-1.3 1.4-.8 1-1.1 1.5c-.3.5-.7 1-.9 1.5-.3.5-.5 1-.7 1.5s-.3.9-.5 1.3c-.1.4-.2.7-.3 1-.1.6-.2.9-.2.9v-.9c0-.3 0-.7.1-1.1.1-.3.2-.8.3-1.3.1-.5.3-1 .6-1.6.2-.6.5-1.1.8-1.7.3-.6.7-1.1 1.1-1.7.4-.5.9-1.1 1.4-1.6s1-.9 1.6-1.3c.6-.4 1.2-.8 1.7-1 1.2-.6 2.4-.9 3.5-.9s1.9.3 2.5.6c.3.1.5.3.6.4l.2.2zM-143-704s-.1.2-.3.5-.4.8-.7 1.4c-.5 1.1-1.2 2.7-1.5 4.3-.1.4-.1.8-.2 1.2v1.2c0 .7.2 1.4.4 2 .2.6.5 1 .8 1.3.2.3.4.4.4.4s-.2-.1-.5-.3c-.3-.2-.8-.6-1.1-1.1-.4-.6-.7-1.3-.8-2.2 0-.2 0-.4-.1-.6v-.7c0-.4.1-.9.2-1.3.2-.9.5-1.7.8-2.5.4-.7.8-1.4 1.2-1.9.4-.5.8-.9 1-1.2.2-.4.4-.5.4-.5z" transform="translate(152 712)"/><path class="st2" d="M-131.1-704.5s-.3.2-.7.5c-.2.2-.5.4-.8.6-.3.3-.6.5-.9.9-.3.3-.7.7-1 1.1-.3.4-.7.8-1 1.3-.4.5-.7 1-1 1.5s-.6 1-.9 1.6c-.3.5-.5 1.1-.7 1.7-.2.6-.4 1.1-.4 1.7-.1.6-.2 1.1-.2 1.6s0 1 .1 1.4c.2.9.6 1.6.9 2 .3.4.6.6.6.6s-.1 0-.2-.1-.3-.2-.5-.4c-.4-.4-1-1-1.3-1.9-.2-.5-.3-1-.3-1.6v-1.8c.1-.6.2-1.2.4-1.8.2-.6.4-1.2.7-1.8.3-.6.6-1.1.9-1.7.3-.5.7-1 1.1-1.5.4-.5.8-.9 1.2-1.3.4-.4.8-.7 1.2-1 .8-.6 1.5-.9 2-1.2l.8-.4z" transform="translate(152 712)"/><path class="st1" d="M-120-699.1c0 4.4-3.6 9.8-8 12-4.4 2.2-8 .4-8-4s3.6-9.8 8-12c4.4-2.2 8-.4 8 4z" transform="translate(152 712)"/><path class="st2" d="M-120.2-700v.6c0 .4-.1.9-.2 1.6-.3 1.4-1.1 3.3-2.6 5.2-.8.9-1.7 1.9-2.9 2.7-.6.4-1.2.8-2 1-.7.2-1.5.4-2.4.2-.8-.2-1.6-.7-2.1-1.4-.5-.8-.6-1.6-.6-2.5.1-1.7.9-3.3 1.9-4.6.5-.6 1.2-1.2 1.9-1.7s1.5-.9 2.4-.9c.5 0 .9 0 1.4.3.4.2.8.6 1 1 .2.4.3.8.3 1.3 0 .2 0 .4-.1.6 0 .2-.1.4-.2.6-.5 1.5-1.7 2.7-3 3.4-.4.1-.7.2-1.1.2-.4 0-.8-.2-1.1-.6-.5-.7-.3-1.5-.1-2.1.2-.6.6-1.1 1.1-1.5.4-.4 1-.7 1.5-.6.3 0 .6.2.7.4.1.2.1.5.1.7-.1.5-.3.8-.5 1.1-.5.5-1.1.8-1.5.6-.3-.3-.2-.5-.2-.5s-.1.3.2.5c.3.2.9-.1 1.3-.6.2-.3.4-.6.4-1s-.2-.8-.6-.8-.9.3-1.2.6c-.4.4-.7.8-.9 1.3s-.2 1.1.1 1.5c.3.4.9.4 1.5.1 1.1-.6 2.1-1.7 2.5-3 .1-.2.1-.3.1-.5v-.5c0-.3-.1-.7-.2-.9-.3-.6-.9-.9-1.5-.8-.7.1-1.4.4-2 .8-.6.4-1.2 1-1.7 1.6-1 1.2-1.7 2.6-1.8 4.1 0 .7.1 1.5.4 2 .3.6.9 1 1.6 1.1 1.3.2 2.7-.3 3.8-1 1.1-.7 2.1-1.6 2.9-2.4 1.6-1.8 2.5-3.6 2.9-4.9.2-.7.3-1.2.3-1.6.2-.5.2-.7.2-.7z" transform="translate(152 712)"/><path d="M-120-699.1c0 4.4-3.6 9.8-8 12-4.4 2.2-8 .4-8-4s3.6-9.8 8-12c4.4-2.2 8-.4 8 4z" opacity=".29" transform="translate(152 712)"/><path d="M-136-691.1c0-4.4 3.6-9.8 8-12 1.9-.9 3.6-1.1 4.9-.8l-14.6-7.2c-1.5-1.2-3.7-1.2-6.3 0-4.4 2.2-8 7.6-8 12 0 2 .8 3.5 2 4.3l.6.3 15.4 7.8c-1.2-.8-2-2.3-2-4.4z" opacity=".11" transform="translate(152 712)"/><path d="M-145-710.5c-1.1.7-2.1 1.5-3 2.5l16 8c.9-1 1.9-1.8 3-2.5l-16-8z" opacity=".3" fill="#fff" transform="translate(152 712)"/></g></svg>