<svg xmlns="http://www.w3.org/2000/svg" width="552" height="328" id="svg1808"><style id="style2">.st1{opacity:.15;enable-background:new}.st2{fill:#e5e5e5}.st3,.st5{opacity:.2;enable-background:new}.st5{opacity:.29}.st6{fill:#656565}.st7{opacity:.11;enable-background:new}.st8{fill:#f90}.st9{fill:#fc0}.st10{fill:#539b00}.st12{fill:#06547a}.st14{fill:#fbd7c7}.st15{fill:#262626}</style><g id="i1174_1_"><path class="st2" d="M280-240v-5l-16.1-8c-14.4-7.4-31.1-12-51.9-12-37.6 0-68 18.2-68 37 0 9.4 9.9 19.9 24.1 28l7.9 4 8 4 8 8L512-24h8l80 40 96-48-80-40h-8L288-232l-8-8z" transform="matrix(-1 0 0 1 696 288)" id="path8"/><path class="st3" d="M212-261c20.8 0 37.5 5.6 51.9 13l16.1 8v-5l-16.1-8c-14.4-7.4-31.1-12-51.9-12-37.6 0-68 18.2-68 37 0-.4.1 4.6.1 4.6s-.5-4.5 1.1-9.1c5.4-16 33.1-28.5 66.8-28.5z" transform="matrix(-1 0 0 1 696 288)" id="path10"/><path class="st2" d="M188-272c-1.1 0-2 .4-2 1v34c0 .6.9 1 2 1s2-.4 2-1v-34c0-.6-.9-1-2-1z" transform="matrix(-1 0 0 1 696 288)" id="path12"/><path class="st3" d="M188-270c-1.1 0-2-.4-2-1v34c0 .6.9 1 2 1s2-.4 2-1v-34c0 .6-.9 1-2 1z" transform="matrix(-1 0 0 1 696 288)" id="path14"/><path class="st2" d="M188-275c-3.3 0-6 1.3-6 3v1c0 1.7 2.7 3 6 3s6-1.3 6-3v-1c0-1.7-2.7-3-6-3zm0-4c3.3 0 6 1.3 6 3v-1c0-1.7-2.7-3-6-3s-6 1.3-6 3v1c0-1.7 2.7-3 6-3z" transform="matrix(-1 0 0 1 696 288)" id="path16"/><path d="M188-279c3.3 0 6 1.3 6 3v-1c0-1.7-2.7-3-6-3s-6 1.3-6 3v1c0-1.7 2.7-3 6-3z" opacity=".1" transform="matrix(-1 0 0 1 696 288)" id="path18"/><path class="st2" d="M188-288c-1.1 0-2 .4-2 1v15c0 .6.9 1 2 1s2-.4 2-1v-15c0-.6-.9-1-2-1z" transform="matrix(-1 0 0 1 696 288)" id="path20"/><path class="st3" d="M188-286c-1.1 0-2-.4-2-1v15c0 .6.9 1 2 1s2-.4 2-1v-15c0 .6-.9 1-2 1z" transform="matrix(-1 0 0 1 696 288)" id="path22"/><path class="st2" d="M188-274c-3.3 0-6-1.3-6-3v6l1 1v-4.3c.3.2.6.4 1 .6v4.7h1v-4.4c.9.3 1.9.4 3 .4s2.1-.1 3-.4v4.4h1v-4.8c.4-.2.7-.4 1-.6v4.4l1-1v-6c0 1.7-2.7 3-6 3z" transform="matrix(-1 0 0 1 696 288)" id="path24"/><path class="st3" d="M188-274c-3.3 0-6-1.3-6-3v6c0 1.7 2.7 3 6 3s6-1.3 6-3v-6c0 1.7-2.7 3-6 3zm5-.3v4c-.3.2-.6.4-1 .6v-4c.4-.2.7-.4 1-.6zm-9 .5v4c-.4-.2-.7-.4-1-.6v-4c.3.3.6.5 1 .6zm1 4.4v-4c.9.3 1.9.4 3 .4s2.1-.1 3-.4v4c-.9.3-1.9.4-3 .4s-2.1-.1-3-.4z" transform="matrix(-1 0 0 1 696 288)" id="path26"/><path class="st2" d="M180-243c-1.1 0-2 .4-2 1v6c0 .6.9 1 2 1s2-.4 2-1v-6c0-.6-.9-1-2-1z" transform="matrix(-1 0 0 1 696 288)" id="path28"/><path class="st3" d="M180-241c-1.1 0-2-.4-2-1v6c0 .6.9 1 2 1s2-.4 2-1v-6c0 .6-.9 1-2 1z" transform="matrix(-1 0 0 1 696 288)" id="path30"/><path class="st2" d="M196-251c-1.1 0-2 .4-2 1v6c0 .6.9 1 2 1s2-.4 2-1v-6c0-.6-.9-1-2-1z" transform="matrix(-1 0 0 1 696 288)" id="path32"/><path class="st3" d="M196-249c-1.1 0-2-.4-2-1v6c0 .6.9 1 2 1s2-.4 2-1v-6c0 .6-.9 1-2 1z" transform="matrix(-1 0 0 1 696 288)" id="path34"/><path class="st2" d="M536-26c-1.1 0-2 .4-2 1v6c0 .6.9 1 2 1s2-.4 2-1v-6c0-.6-.9-1-2-1z" transform="matrix(-1 0 0 1 696 288)" id="path36"/><path class="st3" d="M536-24c-1.1 0-2-.4-2-1v6c0 .6.9 1 2 1s2-.4 2-1v-6c0 .6-.9 1-2 1z" transform="matrix(-1 0 0 1 696 288)" id="path38"/><path class="st2" d="M552-18c-1.1 0-2 .4-2 1v6c0 .6.9 1 2 1s2-.4 2-1v-6c0-.6-.9-1-2-1z" transform="matrix(-1 0 0 1 696 288)" id="path40"/><path class="st3" d="M552-16c-1.1 0-2-.4-2-1v6c0 .6.9 1 2 1s2-.4 2-1v-6c0 .6-.9 1-2 1z" transform="matrix(-1 0 0 1 696 288)" id="path42"/><path class="st2" d="M568-10c-1.1 0-2 .4-2 1v6c0 .6.9 1 2 1s2-.4 2-1v-6c0-.6-.9-1-2-1z" transform="matrix(-1 0 0 1 696 288)" id="path44"/><path class="st3" d="M568-8c-1.1 0-2-.4-2-1v6c0 .6.9 1 2 1s2-.4 2-1v-6c0 .6-.9 1-2 1z" transform="matrix(-1 0 0 1 696 288)" id="path46"/><path class="st2" d="M584-2c-1.1 0-2 .4-2 1v6c0 .6.9 1 2 1s2-.4 2-1v-6c0-.6-.9-1-2-1z" transform="matrix(-1 0 0 1 696 288)" id="path48"/><path class="st3" d="M584 0c-1.1 0-2-.4-2-1v6c0 .6.9 1 2 1s2-.4 2-1v-6c0 .6-.9 1-2 1z" transform="matrix(-1 0 0 1 696 288)" id="path50"/><path class="st2" d="M544-22c-1.1 0-2 .4-2 1v6c0 .6.9 1 2 1s2-.4 2-1v-6c0-.6-.9-1-2-1z" transform="matrix(-1 0 0 1 696 288)" id="path52"/><path class="st3" d="M544-20c-1.1 0-2-.4-2-1v6c0 .6.9 1 2 1s2-.4 2-1v-6c0 .6-.9 1-2 1z" transform="matrix(-1 0 0 1 696 288)" id="path54"/><path class="st2" d="M560-14c-1.1 0-2 .4-2 1v6c0 .6.9 1 2 1s2-.4 2-1v-6c0-.6-.9-1-2-1z" transform="matrix(-1 0 0 1 696 288)" id="path56"/><path class="st3" d="M560-12c-1.1 0-2-.4-2-1v6c0 .6.9 1 2 1s2-.4 2-1v-6c0 .6-.9 1-2 1z" transform="matrix(-1 0 0 1 696 288)" id="path58"/><path class="st2" d="M576-6c-1.1 0-2 .4-2 1v6c0 .6.9 1 2 1s2-.4 2-1v-6c0-.6-.9-1-2-1z" transform="matrix(-1 0 0 1 696 288)" id="path60"/><path class="st3" d="M576-4c-1.1 0-2-.4-2-1v6c0 .6.9 1 2 1s2-.4 2-1v-6c0 .6-.9 1-2 1z" transform="matrix(-1 0 0 1 696 288)" id="path62"/><path class="st2" d="M592 2c-1.1 0-2 .4-2 1v6c0 .6.9 1 2 1s2-.4 2-1V3c0-.6-.9-1-2-1z" transform="matrix(-1 0 0 1 696 288)" id="path64"/><path class="st3" d="M592 4c-1.1 0-2-.4-2-1v6c0 .6.9 1 2 1s2-.4 2-1V3c0 .6-.9 1-2 1z" transform="matrix(-1 0 0 1 696 288)" id="path66"/><path class="st2" d="M640-65c-1.1 0-2 .4-2 1v6c0 .6.9 1 2 1s2-.4 2-1v-6c0-.6-.9-1-2-1z" transform="matrix(-1 0 0 1 696 288)" id="path68"/><path class="st3" d="M640-63c-1.1 0-2-.4-2-1v6c0 .6.9 1 2 1s2-.4 2-1v-6c0 .6-.9 1-2 1z" transform="matrix(-1 0 0 1 696 288)" id="path70"/><path class="st2" d="M656-57c-1.1 0-2 .4-2 1v6c0 .6.9 1 2 1s2-.4 2-1v-6c0-.6-.9-1-2-1z" transform="matrix(-1 0 0 1 696 288)" id="path72"/><path class="st3" d="M656-55c-1.1 0-2-.4-2-1v6c0 .6.9 1 2 1s2-.4 2-1v-6c0 .6-.9 1-2 1z" transform="matrix(-1 0 0 1 696 288)" id="path74"/><path class="st2" d="M672-49c-1.1 0-2 .4-2 1v6c0 .6.9 1 2 1s2-.4 2-1v-6c0-.6-.9-1-2-1z" transform="matrix(-1 0 0 1 696 288)" id="path76"/><path class="st3" d="M672-47c-1.1 0-2-.4-2-1v6c0 .6.9 1 2 1s2-.4 2-1v-6c0 .6-.9 1-2 1z" transform="matrix(-1 0 0 1 696 288)" id="path78"/><path class="st2" d="M648-61c-1.1 0-2 .4-2 1v6c0 .6.9 1 2 1s2-.4 2-1v-6c0-.6-.9-1-2-1z" transform="matrix(-1 0 0 1 696 288)" id="path80"/><path class="st3" d="M648-59c-1.1 0-2-.4-2-1v6c0 .6.9 1 2 1s2-.4 2-1v-6c0 .6-.9 1-2 1z" transform="matrix(-1 0 0 1 696 288)" id="path82"/><path class="st2" d="M664-53c-1.1 0-2 .4-2 1v6c0 .6.9 1 2 1s2-.4 2-1v-6c0-.6-.9-1-2-1z" transform="matrix(-1 0 0 1 696 288)" id="path84"/><path class="st3" d="M664-51c-1.1 0-2-.4-2-1v6c0 .6.9 1 2 1s2-.4 2-1v-6c0 .6-.9 1-2 1z" transform="matrix(-1 0 0 1 696 288)" id="path86"/><path class="st2" d="M680-45c-1.1 0-2 .4-2 1v6c0 .6.9 1 2 1s2-.4 2-1v-6c0-.6-.9-1-2-1z" transform="matrix(-1 0 0 1 696 288)" id="path88"/><path class="st3" d="M680-43c-1.1 0-2-.4-2-1v6c0 .6.9 1 2 1s2-.4 2-1v-6c0 .6-.9 1-2 1z" transform="matrix(-1 0 0 1 696 288)" id="path90"/><path class="st1" d="M222-169l2 1 96-48-2-1zm32 16l2 1 96-48-2-1zm32 16l2 1 96-48-2-1zm32 16l2 1 96-48-2-1zm32 16l2 1 96-48-2-1zm32 16l2 1 96-48-2-1zm32 16l2 1 96-48-2-1zm32 16l2 1 96-48-2-1zm32 16l2 1 96-48-2-1z" transform="matrix(-1 0 0 1 696 288)" id="path92"/><path class="st3" d="M616-72l-96 48h-8l96-48z" transform="matrix(-1 0 0 1 696 288)" id="path94"/><g id="g100"><path class="st2" d="M528-30c-1.1 0-2 .4-2 1v6c0 .6.9 1 2 1s2-.4 2-1v-6c0-.6-.9-1-2-1z" transform="matrix(-1 0 0 1 696 288)" id="path96"/><path class="st3" d="M528-28c-1.1 0-2-.4-2-1v6c0 .6.9 1 2 1s2-.4 2-1v-6c0 .6-.9 1-2 1z" transform="matrix(-1 0 0 1 696 288)" id="path98"/></g><g id="g112"><path class="st2" d="M171-218c0-1-.8-2.3-1.9-2.8-1-.5-1.9-.1-1.9.9v2.2l3.7 1.9v-1.9c.1-.1.1-.2.1-.3z" transform="matrix(-1 0 0 1 696 288)" id="path102"/><path class="st5" d="M171-218c0-1-.8-2.3-1.9-2.8-1-.5-1.9-.1-1.9.9v2.2l3.7 1.9v-1.9c.1-.1.1-.2.1-.3z" transform="matrix(-1 0 0 1 696 288)" id="path104"/><path class="st6" d="M170.6-218.2c0-.8-.6-1.8-1.4-2.2-.3-.2-.7-.2-.9-.1l-3.7 1.9c-.3.1-.5.4-.5.9 0 .8.6 1.8 1.4 2.2.3.2.6.2.9.1l3.7-1.9c.2-.1.5-.4.5-.9z" transform="matrix(-1 0 0 1 696 288)" id="path106"/><path class="st2" d="M167.2-216.1c0-1-.8-2.3-1.9-2.8-1-.5-1.9-.1-1.9.9v2.2l3.7 1.9v-1.9c.1-.2.1-.2.1-.3z" transform="matrix(-1 0 0 1 696 288)" id="path108"/><path class="st5" d="M167.2-216.1c0-1-.8-2.3-1.9-2.8-1-.5-1.9-.1-1.9.9v2.2l3.7 1.9v-1.9c.1-.2.1-.2.1-.3z" transform="matrix(-1 0 0 1 696 288)" id="path110"/></g><g id="g124"><path class="st2" d="M237-251c0-1-.8-2.3-1.9-2.8-1-.5-1.9-.1-1.9.9v2.2l3.7 1.9v-1.9c.1-.1.1-.2.1-.3z" transform="matrix(-1 0 0 1 696 288)" id="path114"/><path class="st5" d="M237-251c0-1-.8-2.3-1.9-2.8-1-.5-1.9-.1-1.9.9v2.2l3.7 1.9v-1.9c.1-.1.1-.2.1-.3z" transform="matrix(-1 0 0 1 696 288)" id="path116"/><path class="st6" d="M236.6-251.2c0-.8-.6-1.8-1.4-2.2-.3-.2-.7-.2-.9-.1l-3.7 1.9c-.3.1-.5.4-.5.9 0 .8.6 1.8 1.4 2.2.3.2.6.2.9.1l3.7-1.9c.2-.1.5-.4.5-.9z" transform="matrix(-1 0 0 1 696 288)" id="path118"/><path class="st2" d="M233.2-249.1c0-1-.8-2.3-1.9-2.8-1-.5-1.9-.1-1.9.9v2.2l3.7 1.9v-1.9c.1-.2.1-.2.1-.3z" transform="matrix(-1 0 0 1 696 288)" id="path120"/><path class="st5" d="M233.2-249.1c0-1-.8-2.3-1.9-2.8-1-.5-1.9-.1-1.9.9v2.2l3.7 1.9v-1.9c.1-.2.1-.2.1-.3z" transform="matrix(-1 0 0 1 696 288)" id="path122"/></g><g id="g136"><path class="st2" d="M168.5-237c0-1-.8-2.3-1.9-2.8-1-.5-1.9-.1-1.9.9v2.2l3.7 1.9v-1.9c.1-.1.1-.2.1-.3z" transform="matrix(-1 0 0 1 696 288)" id="path126"/><path class="st5" d="M168.5-237c0-1-.8-2.3-1.9-2.8-1-.5-1.9-.1-1.9.9v2.2l3.7 1.9v-1.9c.1-.1.1-.2.1-.3z" transform="matrix(-1 0 0 1 696 288)" id="path128"/><path class="st6" d="M168-237.2c0-.8-.6-1.8-1.4-2.2-.3-.2-.7-.2-.9-.1l-3.7 1.9c-.3.1-.5.4-.5.9 0 .8.6 1.8 1.4 2.2.3.2.6.2.9.1l3.7-1.9c.3-.1.5-.4.5-.9z" transform="matrix(-1 0 0 1 696 288)" id="path130"/><path class="st2" d="M164.7-235.1c0-1-.8-2.3-1.9-2.8-1-.5-1.8-.1-1.8.9v2.2l3.7 1.9v-2.2z" transform="matrix(-1 0 0 1 696 288)" id="path132"/><path class="st5" d="M164.7-235.1c0-1-.8-2.3-1.9-2.8-1-.5-1.8-.1-1.8.9v2.2l3.7 1.9v-2.2z" transform="matrix(-1 0 0 1 696 288)" id="path134"/></g><g id="g148"><path class="st2" d="M204.5-255c0-1-.8-2.3-1.9-2.8-1-.5-1.9-.1-1.9.9v2.2l3.7 1.9v-1.9c.1-.1.1-.2.1-.3z" transform="matrix(-1 0 0 1 696 288)" id="path138"/><path class="st5" d="M204.5-255c0-1-.8-2.3-1.9-2.8-1-.5-1.9-.1-1.9.9v2.2l3.7 1.9v-1.9c.1-.1.1-.2.1-.3z" transform="matrix(-1 0 0 1 696 288)" id="path140"/><path class="st6" d="M204-255.2c0-.8-.6-1.8-1.4-2.2-.3-.2-.7-.2-.9-.1l-3.7 1.9c-.3.1-.5.4-.5.9 0 .8.6 1.8 1.4 2.2.3.2.6.2.9.1l3.7-1.9c.3-.1.5-.4.5-.9z" transform="matrix(-1 0 0 1 696 288)" id="path142"/><path class="st2" d="M200.7-253.1c0-1-.8-2.3-1.9-2.8-1-.5-1.8-.1-1.8.9v2.2l3.7 1.9v-2.2z" transform="matrix(-1 0 0 1 696 288)" id="path144"/><path class="st5" d="M200.7-253.1c0-1-.8-2.3-1.9-2.8-1-.5-1.8-.1-1.8.9v2.2l3.7 1.9v-2.2z" transform="matrix(-1 0 0 1 696 288)" id="path146"/></g><g id="g156"><path class="st2" d="M278-246l-96 48v5l2 1 96-48v-5z" transform="matrix(-1 0 0 1 696 288)" id="path150"/><path class="st5" d="M184-192l-2-1v-5l2 1z" transform="matrix(-1 0 0 1 696 288)" id="path152"/><path class="st7" d="M280-240v-5l-96 48v5l8 8 96-48z" transform="matrix(-1 0 0 1 696 288)" id="path154"/></g><g id="g164"><path class="st2" d="M174-252l-6 3v2l4 2 6-3v-2z" transform="matrix(-1 0 0 1 696 288)" id="path158"/><path class="st5" d="M172-245l-4-2v-2l4 2z" transform="matrix(-1 0 0 1 696 288)" id="path160"/><path class="st7" d="M178-248l-6 3v-2l6-3z" transform="matrix(-1 0 0 1 696 288)" id="path162"/></g><g id="g172"><path class="st2" d="M205-239l-10 5v2l8 4 10-5v-2z" transform="matrix(-1 0 0 1 696 288)" id="path166"/><path class="st5" d="M203-228l-8-4v-2l8 4z" transform="matrix(-1 0 0 1 696 288)" id="path168"/><path class="st7" d="M213-233l-10 5v-2l10-5z" transform="matrix(-1 0 0 1 696 288)" id="path170"/></g><g id="g180"><path class="st2" d="M246-240l-8 4v2l4 2 8-4v-2z" transform="matrix(-1 0 0 1 696 288)" id="path174"/><path class="st5" d="M242-232l-4-2v-2l4 2z" transform="matrix(-1 0 0 1 696 288)" id="path176"/><path class="st7" d="M250-236l-8 4v-2l8-4z" transform="matrix(-1 0 0 1 696 288)" id="path178"/></g><g id="g188"><path class="st2" d="M199-217l-8 4v2l4 2 8-4v-2z" transform="matrix(-1 0 0 1 696 288)" id="path182"/><path class="st5" d="M195-209l-4-2v-2l4 2z" transform="matrix(-1 0 0 1 696 288)" id="path184"/><path class="st7" d="M203-213l-8 4v-2l8-4z" transform="matrix(-1 0 0 1 696 288)" id="path186"/></g><g id="g1732"><path class="st8" d="M208-207l-14 7v15l30 15 14-7v-15z" transform="matrix(-1 0 0 1 696 288)" id="path190"/><path class="st5" d="M194-200v15l30 15v-15z" transform="matrix(-1 0 0 1 696 288)" id="path192"/><path class="st7" d="M238-192v15l-14 7v-15z" transform="matrix(-1 0 0 1 696 288)" id="path194"/><path class="st1" d="M197-196.5l-1-.5v11l1 .5zm2 1l-1-.5v11l1 .5zm2 1l-1-.5v11l1 .5zm2 1l-1-.5v11l1 .5zm2 1l-1-.5v11l1 .5zm2 1l-1-.5v11l1 .5zm2 1l-1-.5v11l1 .5zm2 1l-1-.5v11l1 .5zm2 1l-1-.5v11l1 .5zm2 1l-1-.5v11l1 .5zm2 1l-1-.5v11l1 .5zm2 1l-1-.5v11l1 .5zm2 1l-1-.5v11l1 .5zm2 1l-1-.5v11l1 .5z" transform="matrix(-1 0 0 1 696 288)" id="path196"/><g id="g206"><path class="st9" d="M240-191l-14 7v15l30 15 14-7v-15z" transform="matrix(-1 0 0 1 696 288)" id="path198"/><path class="st5" d="M226-184v15l30 15v-15z" transform="matrix(-1 0 0 1 696 288)" id="path200"/><path class="st7" d="M270-176v15l-14 7v-15z" transform="matrix(-1 0 0 1 696 288)" id="path202"/><path class="st1" d="M229-180.5l-1-.5v11l1 .5zm2 1l-1-.5v11l1 .5zm2 1l-1-.5v11l1 .5zm2 1l-1-.5v11l1 .5zm2 1l-1-.5v11l1 .5zm2 1l-1-.5v11l1 .5zm2 1l-1-.5v11l1 .5zm2 1l-1-.5v11l1 .5zm2 1l-1-.5v11l1 .5zm2 1l-1-.5v11l1 .5zm2 1l-1-.5v11l1 .5zm2 1l-1-.5v11l1 .5zm2 1l-1-.5v11l1 .5zm2 1l-1-.5v11l1 .5z" transform="matrix(-1 0 0 1 696 288)" id="path204"/></g><g id="g216"><path class="st9" d="M272-175l-14 7v15l30 15 14-7v-15z" transform="matrix(-1 0 0 1 696 288)" id="path208"/><path class="st5" d="M258-168v15l30 15v-15z" transform="matrix(-1 0 0 1 696 288)" id="path210"/><path class="st7" d="M302-160v15l-14 7v-15z" transform="matrix(-1 0 0 1 696 288)" id="path212"/><path class="st1" d="M261-164.5l-1-.5v11l1 .5zm2 1l-1-.5v11l1 .5zm2 1l-1-.5v11l1 .5zm2 1l-1-.5v11l1 .5zm2 1l-1-.5v11l1 .5zm2 1l-1-.5v11l1 .5zm2 1l-1-.5v11l1 .5zm2 1l-1-.5v11l1 .5zm2 1l-1-.5v11l1 .5zm2 1l-1-.5v11l1 .5zm2 1l-1-.5v11l1 .5zm2 1l-1-.5v11l1 .5zm2 1l-1-.5v11l1 .5zm2 1l-1-.5v11l1 .5z" transform="matrix(-1 0 0 1 696 288)" id="path214"/></g><g id="g226"><path class="st8" d="M304-159l-14 7v15l30 15 14-7v-15z" transform="matrix(-1 0 0 1 696 288)" id="path218"/><path class="st5" d="M290-152v15l30 15v-15z" transform="matrix(-1 0 0 1 696 288)" id="path220"/><path class="st7" d="M334-144v15l-14 7v-15z" transform="matrix(-1 0 0 1 696 288)" id="path222"/><path class="st1" d="M293-148.5l-1-.5v11l1 .5zm2 1l-1-.5v11l1 .5zm2 1l-1-.5v11l1 .5zm2 1l-1-.5v11l1 .5zm2 1l-1-.5v11l1 .5zm2 1l-1-.5v11l1 .5zm2 1l-1-.5v11l1 .5zm2 1l-1-.5v11l1 .5zm2 1l-1-.5v11l1 .5zm2 1l-1-.5v11l1 .5zm2 1l-1-.5v11l1 .5zm2 1l-1-.5v11l1 .5zm2 1l-1-.5v11l1 .5zm2 1l-1-.5v11l1 .5z" transform="matrix(-1 0 0 1 696 288)" id="path224"/></g><g id="g236"><path class="st10" d="M336-143l-14 7v15l30 15 14-7v-15z" transform="matrix(-1 0 0 1 696 288)" id="path228"/><path class="st5" d="M322-136v15l30 15v-15z" transform="matrix(-1 0 0 1 696 288)" id="path230"/><path class="st7" d="M366-128v15l-14 7v-15z" transform="matrix(-1 0 0 1 696 288)" id="path232"/><path class="st1" d="M325-132.5l-1-.5v11l1 .5zm2 1l-1-.5v11l1 .5zm2 1l-1-.5v11l1 .5zm2 1l-1-.5v11l1 .5zm2 1l-1-.5v11l1 .5zm2 1l-1-.5v11l1 .5zm2 1l-1-.5v11l1 .5zm2 1l-1-.5v11l1 .5zm2 1l-1-.5v11l1 .5zm2 1l-1-.5v11l1 .5zm2 1l-1-.5v11l1 .5zm2 1l-1-.5v11l1 .5zm2 1l-1-.5v11l1 .5zm2 1l-1-.5v11l1 .5z" transform="matrix(-1 0 0 1 696 288)" id="path234"/></g><g id="g246"><path class="st8" d="M368-127l-14 7v15l30 15 14-7v-15z" transform="matrix(-1 0 0 1 696 288)" id="path238"/><path class="st5" d="M354-120v15l30 15v-15z" transform="matrix(-1 0 0 1 696 288)" id="path240"/><path class="st7" d="M398-112v15l-14 7v-15z" transform="matrix(-1 0 0 1 696 288)" id="path242"/><path class="st1" d="M357-116.5l-1-.5v11l1 .5zm2 1l-1-.5v11l1 .5zm2 1l-1-.5v11l1 .5zm2 1l-1-.5v11l1 .5zm2 1l-1-.5v11l1 .5zm2 1l-1-.5v11l1 .5zm2 1l-1-.5v11l1 .5zm2 1l-1-.5v11l1 .5zm2 1l-1-.5v11l1 .5zm2 1l-1-.5v11l1 .5zm2 1l-1-.5v11l1 .5zm2 1l-1-.5v11l1 .5zm2 1l-1-.5v11l1 .5zm2 1l-1-.5v11l1 .5z" transform="matrix(-1 0 0 1 696 288)" id="path244"/></g><g id="g256"><path class="st8" d="M400-111l-14 7v15l30 15 14-7v-15z" transform="matrix(-1 0 0 1 696 288)" id="path248"/><path class="st5" d="M386-104v15l30 15v-15z" transform="matrix(-1 0 0 1 696 288)" id="path250"/><path class="st7" d="M430-96v15l-14 7v-15z" transform="matrix(-1 0 0 1 696 288)" id="path252"/><path class="st1" d="M389-100.5l-1-.5v11l1 .5zm2 1l-1-.5v11l1 .5zm2 1l-1-.5v11l1 .5zm2 1l-1-.5v11l1 .5zm2 1l-1-.5v11l1 .5zm2 1l-1-.5v11l1 .5zm2 1l-1-.5v11l1 .5zm2 1l-1-.5v11l1 .5zm2 1l-1-.5v11l1 .5zm2 1l-1-.5v11l1 .5zm2 1l-1-.5v11l1 .5zm2 1l-1-.5v11l1 .5zm2 1l-1-.5v11l1 .5zm2 1l-1-.5v11l1 .5z" transform="matrix(-1 0 0 1 696 288)" id="path254"/></g><g id="g266"><path class="st10" d="M432-95l-14 7v15l30 15 14-7v-15z" transform="matrix(-1 0 0 1 696 288)" id="path258"/><path class="st5" d="M418-88v15l30 15v-15z" transform="matrix(-1 0 0 1 696 288)" id="path260"/><path class="st7" d="M462-80v15l-14 7v-15z" transform="matrix(-1 0 0 1 696 288)" id="path262"/><path class="st1" d="M421-84.5l-1-.5v11l1 .5zm2 1l-1-.5v11l1 .5zm2 1l-1-.5v11l1 .5zm2 1l-1-.5v11l1 .5zm2 1l-1-.5v11l1 .5zm2 1l-1-.5v11l1 .5zm2 1l-1-.5v11l1 .5zm2 1l-1-.5v11l1 .5zm2 1l-1-.5v11l1 .5zm2 1l-1-.5v11l1 .5zm2 1l-1-.5v11l1 .5zm2 1l-1-.5v11l1 .5zm2 1l-1-.5v11l1 .5zm2 1l-1-.5v11l1 .5z" transform="matrix(-1 0 0 1 696 288)" id="path264"/></g><g id="g276"><path class="st8" d="M464-79l-14 7v15l30 15 14-7v-15z" transform="matrix(-1 0 0 1 696 288)" id="path268"/><path class="st5" d="M450-72v15l30 15v-15z" transform="matrix(-1 0 0 1 696 288)" id="path270"/><path class="st7" d="M494-64v15l-14 7v-15z" transform="matrix(-1 0 0 1 696 288)" id="path272"/><path class="st1" d="M453-68.5l-1-.5v11l1 .5zm2 1l-1-.5v11l1 .5zm2 1l-1-.5v11l1 .5zm2 1l-1-.5v11l1 .5zm2 1l-1-.5v11l1 .5zm2 1l-1-.5v11l1 .5zm2 1l-1-.5v11l1 .5zm2 1l-1-.5v11l1 .5zm2 1l-1-.5v11l1 .5zm2 1l-1-.5v11l1 .5zm2 1l-1-.5v11l1 .5zm2 1l-1-.5v11l1 .5zm2 1l-1-.5v11l1 .5zm2 1l-1-.5v11l1 .5z" transform="matrix(-1 0 0 1 696 288)" id="path274"/></g><g id="g286"><path class="st9" d="M576-103l-14 7v15l30 15 14-7v-15z" transform="matrix(-1 0 0 1 696 288)" id="path278"/><path class="st5" d="M562-96v15l30 15v-15z" transform="matrix(-1 0 0 1 696 288)" id="path280"/><path class="st7" d="M606-88v15l-14 7v-15z" transform="matrix(-1 0 0 1 696 288)" id="path282"/><path class="st1" d="M604-74l-4 2v-11l4-2zm-6 3l-4 2v-11l4-2z" transform="matrix(-1 0 0 1 696 288)" id="path284"/></g><g id="g296"><path class="st10" d="M560-95l-14 7v15l30 15 14-7v-15z" transform="matrix(-1 0 0 1 696 288)" id="path288"/><path class="st5" d="M546-88v15l30 15v-15z" transform="matrix(-1 0 0 1 696 288)" id="path290"/><path class="st7" d="M590-80v15l-14 7v-15z" transform="matrix(-1 0 0 1 696 288)" id="path292"/><path class="st1" d="M588-66l-4 2v-11l4-2zm-6 3l-4 2v-11l4-2z" transform="matrix(-1 0 0 1 696 288)" id="path294"/></g><g id="g306"><path class="st9" d="M544-87l-14 7v15l30 15 14-7v-15z" transform="matrix(-1 0 0 1 696 288)" id="path298"/><path class="st5" d="M530-80v15l30 15v-15z" transform="matrix(-1 0 0 1 696 288)" id="path300"/><path class="st7" d="M574-72v15l-14 7v-15z" transform="matrix(-1 0 0 1 696 288)" id="path302"/><path class="st1" d="M572-58l-4 2v-11l4-2zm-6 3l-4 2v-11l4-2z" transform="matrix(-1 0 0 1 696 288)" id="path304"/></g><g id="g316"><path class="st8" d="M528-79l-14 7v15l30 15 14-7v-15z" transform="matrix(-1 0 0 1 696 288)" id="path308"/><path class="st5" d="M514-72v15l30 15v-15z" transform="matrix(-1 0 0 1 696 288)" id="path310"/><path class="st7" d="M558-64v15l-14 7v-15z" transform="matrix(-1 0 0 1 696 288)" id="path312"/><path class="st1" d="M556-50l-4 2v-11l4-2zm-6 3l-4 2v-11l4-2z" transform="matrix(-1 0 0 1 696 288)" id="path314"/></g><g id="g326"><path class="st10" d="M512-71l-14 7v15l30 15 14-7v-15z" transform="matrix(-1 0 0 1 696 288)" id="path318"/><path class="st5" d="M498-64v15l30 15v-15z" transform="matrix(-1 0 0 1 696 288)" id="path320"/><path class="st7" d="M542-56v15l-14 7v-15z" transform="matrix(-1 0 0 1 696 288)" id="path322"/><path class="st1" d="M540-42l-4 2v-11l4-2zm-6 3l-4 2v-11l4-2z" transform="matrix(-1 0 0 1 696 288)" id="path324"/></g><g id="g336"><path class="st10" d="M496-63l-14 7v15l30 15 14-7v-15z" transform="matrix(-1 0 0 1 696 288)" id="path328"/><path class="st5" d="M482-56v15l30 15v-15z" transform="matrix(-1 0 0 1 696 288)" id="path330"/><path class="st7" d="M526-48v15l-14 7v-15z" transform="matrix(-1 0 0 1 696 288)" id="path332"/><path class="st1" d="M524-34l-4 2v-11l4-2zm-6 3l-4 2v-11l4-2zm-33-21.5l-1-.5v11l1 .5zm2 1l-1-.5v11l1 .5zm2 1l-1-.5v11l1 .5zm2 1l-1-.5v11l1 .5zm2 1l-1-.5v11l1 .5zm2 1l-1-.5v11l1 .5zm2 1l-1-.5v11l1 .5zm2 1l-1-.5v11l1 .5zm2 1l-1-.5v11l1 .5zm2 1l-1-.5v11l1 .5zm2 1l-1-.5v11l1 .5zm2 1l-1-.5v11l1 .5zm2 1l-1-.5v11l1 .5zm2 1l-1-.5v11l1 .5z" transform="matrix(-1 0 0 1 696 288)" id="path334"/></g><g id="g500"><path class="st10" d="M224-231l-14 7v15l30 15 14-7v-15z" transform="matrix(-1 0 0 1 696 288)" id="path338"/><path class="st5" d="M210-224v15l30 15v-15z" transform="matrix(-1 0 0 1 696 288)" id="path340"/><path class="st7" d="M254-216v15l-14 7v-15z" transform="matrix(-1 0 0 1 696 288)" id="path342"/><path class="st8" d="M480-103l-14 7v15l30 15 14-7v-15z" transform="matrix(-1 0 0 1 696 288)" id="path344"/><path class="st5" d="M466-96v15l30 15v-15z" transform="matrix(-1 0 0 1 696 288)" id="path346"/><path class="st7" d="M510-88v15l-14 7v-15z" transform="matrix(-1 0 0 1 696 288)" id="path348"/><path class="st1" d="M508-74l-4 2v-11l4-2zm-6 3l-4 2v-11l4-2z" transform="matrix(-1 0 0 1 696 288)" id="path350"/><path class="st10" d="M208-223l-14 7v15l30 15 14-7v-15z" transform="matrix(-1 0 0 1 696 288)" id="path352"/><path class="st5" d="M194-216v15l30 15v-15z" transform="matrix(-1 0 0 1 696 288)" id="path354"/><path class="st7" d="M238-208v15l-14 7v-15z" transform="matrix(-1 0 0 1 696 288)" id="path356"/><path class="st1" d="M197-212.5l-1-.5v11l1 .5zm2 1l-1-.5v11l1 .5zm2 1l-1-.5v11l1 .5zm2 1l-1-.5v11l1 .5zm2 1l-1-.5v11l1 .5zm2 1l-1-.5v11l1 .5zm2 1l-1-.5v11l1 .5zm2 1l-1-.5v11l1 .5zm2 1l-1-.5v11l1 .5zm2 1l-1-.5v11l1 .5zm2 1l-1-.5v11l1 .5zm2 1l-1-.5v11l1 .5zm2 1l-1-.5v11l1 .5zm2 1l-1-.5v11l1 .5z" transform="matrix(-1 0 0 1 696 288)" id="path358"/><g id="g368"><path class="st8" d="M240-207l-14 7v15l30 15 14-7v-15z" transform="matrix(-1 0 0 1 696 288)" id="path360"/><path class="st5" d="M226-200v15l30 15v-15z" transform="matrix(-1 0 0 1 696 288)" id="path362"/><path class="st7" d="M270-192v15l-14 7v-15z" transform="matrix(-1 0 0 1 696 288)" id="path364"/><path class="st1" d="M229-196.5l-1-.5v11l1 .5zm2 1l-1-.5v11l1 .5zm2 1l-1-.5v11l1 .5zm2 1l-1-.5v11l1 .5zm2 1l-1-.5v11l1 .5zm2 1l-1-.5v11l1 .5zm2 1l-1-.5v11l1 .5zm2 1l-1-.5v11l1 .5zm2 1l-1-.5v11l1 .5zm2 1l-1-.5v11l1 .5zm2 1l-1-.5v11l1 .5zm2 1l-1-.5v11l1 .5zm2 1l-1-.5v11l1 .5zm2 1l-1-.5v11l1 .5z" transform="matrix(-1 0 0 1 696 288)" id="path366"/></g><g id="g378"><path class="st8" d="M272-191l-14 7v15l30 15 14-7v-15z" transform="matrix(-1 0 0 1 696 288)" id="path370"/><path class="st5" d="M258-184v15l30 15v-15z" transform="matrix(-1 0 0 1 696 288)" id="path372"/><path class="st7" d="M302-176v15l-14 7v-15z" transform="matrix(-1 0 0 1 696 288)" id="path374"/><path class="st1" d="M261-180.5l-1-.5v11l1 .5zm2 1l-1-.5v11l1 .5zm2 1l-1-.5v11l1 .5zm2 1l-1-.5v11l1 .5zm2 1l-1-.5v11l1 .5zm2 1l-1-.5v11l1 .5zm2 1l-1-.5v11l1 .5zm2 1l-1-.5v11l1 .5zm2 1l-1-.5v11l1 .5zm2 1l-1-.5v11l1 .5zm2 1l-1-.5v11l1 .5zm2 1l-1-.5v11l1 .5zm2 1l-1-.5v11l1 .5zm2 1l-1-.5v11l1 .5z" transform="matrix(-1 0 0 1 696 288)" id="path376"/></g><g id="g388"><path class="st9" d="M304-175l-14 7v15l30 15 14-7v-15z" transform="matrix(-1 0 0 1 696 288)" id="path380"/><path class="st5" d="M290-168v15l30 15v-15z" transform="matrix(-1 0 0 1 696 288)" id="path382"/><path class="st7" d="M334-160v15l-14 7v-15z" transform="matrix(-1 0 0 1 696 288)" id="path384"/><path class="st1" d="M293-164.5l-1-.5v11l1 .5zm2 1l-1-.5v11l1 .5zm2 1l-1-.5v11l1 .5zm2 1l-1-.5v11l1 .5zm2 1l-1-.5v11l1 .5zm2 1l-1-.5v11l1 .5zm2 1l-1-.5v11l1 .5zm2 1l-1-.5v11l1 .5zm2 1l-1-.5v11l1 .5zm2 1l-1-.5v11l1 .5zm2 1l-1-.5v11l1 .5zm2 1l-1-.5v11l1 .5zm2 1l-1-.5v11l1 .5zm2 1l-1-.5v11l1 .5z" transform="matrix(-1 0 0 1 696 288)" id="path386"/></g><g id="g398"><path class="st10" d="M336-159l-14 7v15l30 15 14-7v-15z" transform="matrix(-1 0 0 1 696 288)" id="path390"/><path class="st5" d="M322-152v15l30 15v-15z" transform="matrix(-1 0 0 1 696 288)" id="path392"/><path class="st7" d="M366-144v15l-14 7v-15z" transform="matrix(-1 0 0 1 696 288)" id="path394"/><path class="st1" d="M325-148.5l-1-.5v11l1 .5zm2 1l-1-.5v11l1 .5zm2 1l-1-.5v11l1 .5zm2 1l-1-.5v11l1 .5zm2 1l-1-.5v11l1 .5zm2 1l-1-.5v11l1 .5zm2 1l-1-.5v11l1 .5zm2 1l-1-.5v11l1 .5zm2 1l-1-.5v11l1 .5zm2 1l-1-.5v11l1 .5zm2 1l-1-.5v11l1 .5zm2 1l-1-.5v11l1 .5zm2 1l-1-.5v11l1 .5zm2 1l-1-.5v11l1 .5z" transform="matrix(-1 0 0 1 696 288)" id="path396"/></g><g id="g408"><path class="st10" d="M368-143l-14 7v15l30 15 14-7v-15z" transform="matrix(-1 0 0 1 696 288)" id="path400"/><path class="st5" d="M354-136v15l30 15v-15z" transform="matrix(-1 0 0 1 696 288)" id="path402"/><path class="st7" d="M398-128v15l-14 7v-15z" transform="matrix(-1 0 0 1 696 288)" id="path404"/><path class="st1" d="M357-132.5l-1-.5v11l1 .5zm2 1l-1-.5v11l1 .5zm2 1l-1-.5v11l1 .5zm2 1l-1-.5v11l1 .5zm2 1l-1-.5v11l1 .5zm2 1l-1-.5v11l1 .5zm2 1l-1-.5v11l1 .5zm2 1l-1-.5v11l1 .5zm2 1l-1-.5v11l1 .5zm2 1l-1-.5v11l1 .5zm2 1l-1-.5v11l1 .5zm2 1l-1-.5v11l1 .5zm2 1l-1-.5v11l1 .5zm2 1l-1-.5v11l1 .5z" transform="matrix(-1 0 0 1 696 288)" id="path406"/></g><g id="g418"><path class="st8" d="M400-127l-14 7v15l30 15 14-7v-15z" transform="matrix(-1 0 0 1 696 288)" id="path410"/><path class="st5" d="M386-120v15l30 15v-15z" transform="matrix(-1 0 0 1 696 288)" id="path412"/><path class="st7" d="M430-112v15l-14 7v-15z" transform="matrix(-1 0 0 1 696 288)" id="path414"/><path class="st1" d="M389-116.5l-1-.5v11l1 .5zm2 1l-1-.5v11l1 .5zm2 1l-1-.5v11l1 .5zm2 1l-1-.5v11l1 .5zm2 1l-1-.5v11l1 .5zm2 1l-1-.5v11l1 .5zm2 1l-1-.5v11l1 .5zm2 1l-1-.5v11l1 .5zm2 1l-1-.5v11l1 .5zm2 1l-1-.5v11l1 .5zm2 1l-1-.5v11l1 .5zm2 1l-1-.5v11l1 .5zm2 1l-1-.5v11l1 .5zm2 1l-1-.5v11l1 .5z" transform="matrix(-1 0 0 1 696 288)" id="path416"/></g><g id="g428"><path class="st9" d="M432-111l-14 7v15l30 15 14-7v-15z" transform="matrix(-1 0 0 1 696 288)" id="path420"/><path class="st5" d="M418-104v15l30 15v-15z" transform="matrix(-1 0 0 1 696 288)" id="path422"/><path class="st7" d="M462-96v15l-14 7v-15z" transform="matrix(-1 0 0 1 696 288)" id="path424"/><path class="st1" d="M421-100.5l-1-.5v11l1 .5zm2 1l-1-.5v11l1 .5zm2 1l-1-.5v11l1 .5zm2 1l-1-.5v11l1 .5zm2 1l-1-.5v11l1 .5zm2 1l-1-.5v11l1 .5zm2 1l-1-.5v11l1 .5zm2 1l-1-.5v11l1 .5zm2 1l-1-.5v11l1 .5zm2 1l-1-.5v11l1 .5zm2 1l-1-.5v11l1 .5zm2 1l-1-.5v11l1 .5zm2 1l-1-.5v11l1 .5zm2 1l-1-.5v11l1 .5z" transform="matrix(-1 0 0 1 696 288)" id="path426"/></g><g id="g438"><path class="st10" d="M464-95l-14 7v15l30 15 14-7v-15z" transform="matrix(-1 0 0 1 696 288)" id="path430"/><path class="st5" d="M450-88v15l30 15v-15z" transform="matrix(-1 0 0 1 696 288)" id="path432"/><path class="st7" d="M494-80v15l-14 7v-15z" transform="matrix(-1 0 0 1 696 288)" id="path434"/><path class="st1" d="M453-84.5l-1-.5v11l1 .5zm2 1l-1-.5v11l1 .5zm2 1l-1-.5v11l1 .5zm2 1l-1-.5v11l1 .5zm2 1l-1-.5v11l1 .5zm2 1l-1-.5v11l1 .5zm2 1l-1-.5v11l1 .5zm2 1l-1-.5v11l1 .5zm2 1l-1-.5v11l1 .5zm2 1l-1-.5v11l1 .5zm2 1l-1-.5v11l1 .5zm2 1l-1-.5v11l1 .5zm2 1l-1-.5v11l1 .5zm2 1l-1-.5v11l1 .5z" transform="matrix(-1 0 0 1 696 288)" id="path436"/></g><g id="g448"><path class="st10" d="M576-119l-14 7v15l30 15 14-7v-15z" transform="matrix(-1 0 0 1 696 288)" id="path440"/><path class="st5" d="M562-112v15l30 15v-15z" transform="matrix(-1 0 0 1 696 288)" id="path442"/><path class="st7" d="M606-104v15l-14 7v-15z" transform="matrix(-1 0 0 1 696 288)" id="path444"/><path class="st1" d="M604-90l-4 2v-11l4-2zm-6 3l-4 2v-11l4-2z" transform="matrix(-1 0 0 1 696 288)" id="path446"/></g><g id="g458"><path class="st8" d="M560-111l-14 7v15l30 15 14-7v-15z" transform="matrix(-1 0 0 1 696 288)" id="path450"/><path class="st5" d="M546-104v15l30 15v-15z" transform="matrix(-1 0 0 1 696 288)" id="path452"/><path class="st7" d="M590-96v15l-14 7v-15z" transform="matrix(-1 0 0 1 696 288)" id="path454"/><path class="st1" d="M588-82l-4 2v-11l4-2zm-6 3l-4 2v-11l4-2z" transform="matrix(-1 0 0 1 696 288)" id="path456"/></g><g id="g468"><path class="st10" d="M544-103l-14 7v15l30 15 14-7v-15z" transform="matrix(-1 0 0 1 696 288)" id="path460"/><path class="st5" d="M530-96v15l30 15v-15z" transform="matrix(-1 0 0 1 696 288)" id="path462"/><path class="st7" d="M574-88v15l-14 7v-15z" transform="matrix(-1 0 0 1 696 288)" id="path464"/><path class="st1" d="M572-74l-4 2v-11l4-2zm-6 3l-4 2v-11l4-2z" transform="matrix(-1 0 0 1 696 288)" id="path466"/></g><g id="g478"><path class="st8" d="M528-95l-14 7v15l30 15 14-7v-15z" transform="matrix(-1 0 0 1 696 288)" id="path470"/><path class="st5" d="M514-88v15l30 15v-15z" transform="matrix(-1 0 0 1 696 288)" id="path472"/><path class="st7" d="M558-80v15l-14 7v-15z" transform="matrix(-1 0 0 1 696 288)" id="path474"/><path class="st1" d="M556-66l-4 2v-11l4-2zm-6 3l-4 2v-11l4-2z" transform="matrix(-1 0 0 1 696 288)" id="path476"/></g><g id="g488"><path class="st8" d="M512-87l-14 7v15l30 15 14-7v-15z" transform="matrix(-1 0 0 1 696 288)" id="path480"/><path class="st5" d="M498-80v15l30 15v-15z" transform="matrix(-1 0 0 1 696 288)" id="path482"/><path class="st7" d="M542-72v15l-14 7v-15z" transform="matrix(-1 0 0 1 696 288)" id="path484"/><path class="st1" d="M540-58l-4 2v-11l4-2zm-6 3l-4 2v-11l4-2z" transform="matrix(-1 0 0 1 696 288)" id="path486"/></g><g id="g498"><path class="st9" d="M496-79l-14 7v15l30 15 14-7v-15z" transform="matrix(-1 0 0 1 696 288)" id="path490"/><path class="st5" d="M482-72v15l30 15v-15z" transform="matrix(-1 0 0 1 696 288)" id="path492"/><path class="st7" d="M526-64v15l-14 7v-15z" transform="matrix(-1 0 0 1 696 288)" id="path494"/><path class="st1" d="M524-50l-4 2v-11l4-2zm-6 3l-4 2v-11l4-2zm-33-21.5l-1-.5v11l1 .5zm2 1l-1-.5v11l1 .5zm2 1l-1-.5v11l1 .5zm2 1l-1-.5v11l1 .5zm2 1l-1-.5v11l1 .5zm2 1l-1-.5v11l1 .5zm2 1l-1-.5v11l1 .5zm2 1l-1-.5v11l1 .5zm2 1l-1-.5v11l1 .5zm2 1l-1-.5v11l1 .5zm2 1l-1-.5v11l1 .5zm2 1l-1-.5v11l1 .5zm2 1l-1-.5v11l1 .5zm2 1l-1-.5v11l1 .5z" transform="matrix(-1 0 0 1 696 288)" id="path496"/></g></g><g id="g982"><path class="st9" d="M288-279l-14 7v15l30 15 14-7v-15z" transform="matrix(-1 0 0 1 696 288)" id="path502"/><path class="st5" d="M274-272v15l30 15v-15z" transform="matrix(-1 0 0 1 696 288)" id="path504"/><path class="st7" d="M318-264v15l-14 7v-15z" transform="matrix(-1 0 0 1 696 288)" id="path506"/><path class="st9" d="M272-271l-14 7v15l30 15 14-7v-15z" transform="matrix(-1 0 0 1 696 288)" id="path508"/><path class="st5" d="M258-264v15l30 15v-15z" transform="matrix(-1 0 0 1 696 288)" id="path510"/><path class="st7" d="M302-256v15l-14 7v-15z" transform="matrix(-1 0 0 1 696 288)" id="path512"/><path class="st10" d="M256-263l-14 7v15l30 15 14-7v-15z" transform="matrix(-1 0 0 1 696 288)" id="path514"/><path class="st5" d="M242-256v15l30 15v-15z" transform="matrix(-1 0 0 1 696 288)" id="path516"/><path class="st7" d="M286-248v15l-14 7v-15z" transform="matrix(-1 0 0 1 696 288)" id="path518"/><path class="st10" d="M240-255l-14 7v15l30 15 14-7v-15z" transform="matrix(-1 0 0 1 696 288)" id="path520"/><path class="st5" d="M226-248v15l30 15v-15z" transform="matrix(-1 0 0 1 696 288)" id="path522"/><path class="st7" d="M270-240v15l-14 7v-15z" transform="matrix(-1 0 0 1 696 288)" id="path524"/><path class="st9" d="M224-247l-14 7v15l30 15 14-7v-15z" transform="matrix(-1 0 0 1 696 288)" id="path526"/><path class="st5" d="M210-240v15l30 15v-15z" transform="matrix(-1 0 0 1 696 288)" id="path528"/><path class="st7" d="M254-232v15l-14 7v-15z" transform="matrix(-1 0 0 1 696 288)" id="path530"/><path class="st1" d="M213-236.5l-1-.5v11l1 .5zm2 1l-1-.5v11l1 .5zm2 1l-1-.5v11l1 .5zm2 1l-1-.5v11l1 .5zm2 1l-1-.5v11l1 .5zm2 1l-1-.5v11l1 .5zm2 1l-1-.5v11l1 .5zm2 1l-1-.5v11l1 .5zm2 1l-1-.5v11l1 .5zm2 1l-1-.5v11l1 .5zm2 1l-1-.5v11l1 .5zm2 1l-1-.5v11l1 .5zm2 1l-1-.5v11l1 .5zm2 1l-1-.5v11l1 .5z" transform="matrix(-1 0 0 1 696 288)" id="path532"/><path class="st9" d="M320-263l-14 7v15l30 15 14-7v-15z" transform="matrix(-1 0 0 1 696 288)" id="path534"/><path class="st5" d="M306-256v15l30 15v-15z" transform="matrix(-1 0 0 1 696 288)" id="path536"/><path class="st7" d="M350-248v15l-14 7v-15z" transform="matrix(-1 0 0 1 696 288)" id="path538"/><path class="st10" d="M304-255l-14 7v15l30 15 14-7v-15z" transform="matrix(-1 0 0 1 696 288)" id="path540"/><path class="st5" d="M290-248v15l30 15v-15z" transform="matrix(-1 0 0 1 696 288)" id="path542"/><path class="st7" d="M334-240v15l-14 7v-15z" transform="matrix(-1 0 0 1 696 288)" id="path544"/><path class="st8" d="M288-247l-14 7v15l30 15 14-7v-15z" transform="matrix(-1 0 0 1 696 288)" id="path546"/><path class="st5" d="M274-240v15l30 15v-15z" transform="matrix(-1 0 0 1 696 288)" id="path548"/><path class="st7" d="M318-232v15l-14 7v-15z" transform="matrix(-1 0 0 1 696 288)" id="path550"/><path class="st9" d="M272-239l-14 7v15l30 15 14-7v-15z" transform="matrix(-1 0 0 1 696 288)" id="path552"/><path class="st5" d="M258-232v15l30 15v-15z" transform="matrix(-1 0 0 1 696 288)" id="path554"/><path class="st7" d="M302-224v15l-14 7v-15z" transform="matrix(-1 0 0 1 696 288)" id="path556"/><path class="st8" d="M256-231l-14 7v15l30 15 14-7v-15z" transform="matrix(-1 0 0 1 696 288)" id="path558"/><path class="st5" d="M242-224v15l30 15v-15z" transform="matrix(-1 0 0 1 696 288)" id="path560"/><path class="st7" d="M286-216v15l-14 7v-15z" transform="matrix(-1 0 0 1 696 288)" id="path562"/><path class="st10" d="M240-223l-14 7v15l30 15 14-7v-15z" transform="matrix(-1 0 0 1 696 288)" id="path564"/><path class="st5" d="M226-216v15l30 15v-15z" transform="matrix(-1 0 0 1 696 288)" id="path566"/><path class="st7" d="M270-208v15l-14 7v-15z" transform="matrix(-1 0 0 1 696 288)" id="path568"/><path class="st1" d="M229-212.5l-1-.5v11l1 .5zm2 1l-1-.5v11l1 .5zm2 1l-1-.5v11l1 .5zm2 1l-1-.5v11l1 .5zm2 1l-1-.5v11l1 .5zm2 1l-1-.5v11l1 .5zm2 1l-1-.5v11l1 .5zm2 1l-1-.5v11l1 .5zm2 1l-1-.5v11l1 .5zm2 1l-1-.5v11l1 .5zm2 1l-1-.5v11l1 .5zm2 1l-1-.5v11l1 .5zm2 1l-1-.5v11l1 .5zm2 1l-1-.5v11l1 .5z" transform="matrix(-1 0 0 1 696 288)" id="path570"/><g id="g578"><path class="st8" d="M352-247l-14 7v15l30 15 14-7v-15z" transform="matrix(-1 0 0 1 696 288)" id="path572"/><path class="st5" d="M338-240v15l30 15v-15z" transform="matrix(-1 0 0 1 696 288)" id="path574"/><path class="st7" d="M382-232v15l-14 7v-15z" transform="matrix(-1 0 0 1 696 288)" id="path576"/></g><g id="g586"><path class="st8" d="M336-239l-14 7v15l30 15 14-7v-15z" transform="matrix(-1 0 0 1 696 288)" id="path580"/><path class="st5" d="M322-232v15l30 15v-15z" transform="matrix(-1 0 0 1 696 288)" id="path582"/><path class="st7" d="M366-224v15l-14 7v-15z" transform="matrix(-1 0 0 1 696 288)" id="path584"/></g><g id="g594"><path class="st10" d="M320-231l-14 7v15l30 15 14-7v-15z" transform="matrix(-1 0 0 1 696 288)" id="path588"/><path class="st5" d="M306-224v15l30 15v-15z" transform="matrix(-1 0 0 1 696 288)" id="path590"/><path class="st7" d="M350-216v15l-14 7v-15z" transform="matrix(-1 0 0 1 696 288)" id="path592"/></g><g id="g602"><path class="st10" d="M304-223l-14 7v15l30 15 14-7v-15z" transform="matrix(-1 0 0 1 696 288)" id="path596"/><path class="st5" d="M290-216v15l30 15v-15z" transform="matrix(-1 0 0 1 696 288)" id="path598"/><path class="st7" d="M334-208v15l-14 7v-15z" transform="matrix(-1 0 0 1 696 288)" id="path600"/></g><g id="g610"><path class="st9" d="M288-215l-14 7v15l30 15 14-7v-15z" transform="matrix(-1 0 0 1 696 288)" id="path604"/><path class="st5" d="M274-208v15l30 15v-15z" transform="matrix(-1 0 0 1 696 288)" id="path606"/><path class="st7" d="M318-200v15l-14 7v-15z" transform="matrix(-1 0 0 1 696 288)" id="path608"/></g><g id="g620"><path class="st9" d="M272-207l-14 7v15l30 15 14-7v-15z" transform="matrix(-1 0 0 1 696 288)" id="path612"/><path class="st5" d="M258-200v15l30 15v-15z" transform="matrix(-1 0 0 1 696 288)" id="path614"/><path class="st7" d="M302-192v15l-14 7v-15z" transform="matrix(-1 0 0 1 696 288)" id="path616"/><path class="st1" d="M261-196.5l-1-.5v11l1 .5zm2 1l-1-.5v11l1 .5zm2 1l-1-.5v11l1 .5zm2 1l-1-.5v11l1 .5zm2 1l-1-.5v11l1 .5zm2 1l-1-.5v11l1 .5zm2 1l-1-.5v11l1 .5zm2 1l-1-.5v11l1 .5zm2 1l-1-.5v11l1 .5zm2 1l-1-.5v11l1 .5zm2 1l-1-.5v11l1 .5zm2 1l-1-.5v11l1 .5zm2 1l-1-.5v11l1 .5zm2 1l-1-.5v11l1 .5z" transform="matrix(-1 0 0 1 696 288)" id="path618"/></g><g id="g628"><path class="st8" d="M384-231l-14 7v15l30 15 14-7v-15z" transform="matrix(-1 0 0 1 696 288)" id="path622"/><path class="st5" d="M370-224v15l30 15v-15z" transform="matrix(-1 0 0 1 696 288)" id="path624"/><path class="st7" d="M414-216v15l-14 7v-15z" transform="matrix(-1 0 0 1 696 288)" id="path626"/></g><g id="g636"><path class="st9" d="M368-223l-14 7v15l30 15 14-7v-15z" transform="matrix(-1 0 0 1 696 288)" id="path630"/><path class="st5" d="M354-216v15l30 15v-15z" transform="matrix(-1 0 0 1 696 288)" id="path632"/><path class="st7" d="M398-208v15l-14 7v-15z" transform="matrix(-1 0 0 1 696 288)" id="path634"/></g><g id="g644"><path class="st9" d="M352-215l-14 7v15l30 15 14-7v-15z" transform="matrix(-1 0 0 1 696 288)" id="path638"/><path class="st5" d="M338-208v15l30 15v-15z" transform="matrix(-1 0 0 1 696 288)" id="path640"/><path class="st7" d="M382-200v15l-14 7v-15z" transform="matrix(-1 0 0 1 696 288)" id="path642"/></g><g id="g652"><path class="st8" d="M336-207l-14 7v15l30 15 14-7v-15z" transform="matrix(-1 0 0 1 696 288)" id="path646"/><path class="st5" d="M322-200v15l30 15v-15z" transform="matrix(-1 0 0 1 696 288)" id="path648"/><path class="st7" d="M366-192v15l-14 7v-15z" transform="matrix(-1 0 0 1 696 288)" id="path650"/></g><g id="g660"><path class="st10" d="M320-199l-14 7v15l30 15 14-7v-15z" transform="matrix(-1 0 0 1 696 288)" id="path654"/><path class="st5" d="M306-192v15l30 15v-15z" transform="matrix(-1 0 0 1 696 288)" id="path656"/><path class="st7" d="M350-184v15l-14 7v-15z" transform="matrix(-1 0 0 1 696 288)" id="path658"/></g><g id="g670"><path class="st8" d="M304-191l-14 7v15l30 15 14-7v-15z" transform="matrix(-1 0 0 1 696 288)" id="path662"/><path class="st5" d="M290-184v15l30 15v-15z" transform="matrix(-1 0 0 1 696 288)" id="path664"/><path class="st7" d="M334-176v15l-14 7v-15z" transform="matrix(-1 0 0 1 696 288)" id="path666"/><path class="st1" d="M293-180.5l-1-.5v11l1 .5zm2 1l-1-.5v11l1 .5zm2 1l-1-.5v11l1 .5zm2 1l-1-.5v11l1 .5zm2 1l-1-.5v11l1 .5zm2 1l-1-.5v11l1 .5zm2 1l-1-.5v11l1 .5zm2 1l-1-.5v11l1 .5zm2 1l-1-.5v11l1 .5zm2 1l-1-.5v11l1 .5zm2 1l-1-.5v11l1 .5zm2 1l-1-.5v11l1 .5zm2 1l-1-.5v11l1 .5zm2 1l-1-.5v11l1 .5z" transform="matrix(-1 0 0 1 696 288)" id="path668"/></g><g id="g678"><path class="st10" d="M416-215l-14 7v15l30 15 14-7v-15z" transform="matrix(-1 0 0 1 696 288)" id="path672"/><path class="st5" d="M402-208v15l30 15v-15z" transform="matrix(-1 0 0 1 696 288)" id="path674"/><path class="st7" d="M446-200v15l-14 7v-15z" transform="matrix(-1 0 0 1 696 288)" id="path676"/></g><g id="g686"><path class="st8" d="M400-207l-14 7v15l30 15 14-7v-15z" transform="matrix(-1 0 0 1 696 288)" id="path680"/><path class="st5" d="M386-200v15l30 15v-15z" transform="matrix(-1 0 0 1 696 288)" id="path682"/><path class="st7" d="M430-192v15l-14 7v-15z" transform="matrix(-1 0 0 1 696 288)" id="path684"/></g><g id="g694"><path class="st9" d="M384-199l-14 7v15l30 15 14-7v-15z" transform="matrix(-1 0 0 1 696 288)" id="path688"/><path class="st5" d="M370-192v15l30 15v-15z" transform="matrix(-1 0 0 1 696 288)" id="path690"/><path class="st7" d="M414-184v15l-14 7v-15z" transform="matrix(-1 0 0 1 696 288)" id="path692"/></g><g id="g702"><path class="st8" d="M368-191l-14 7v15l30 15 14-7v-15z" transform="matrix(-1 0 0 1 696 288)" id="path696"/><path class="st5" d="M354-184v15l30 15v-15z" transform="matrix(-1 0 0 1 696 288)" id="path698"/><path class="st7" d="M398-176v15l-14 7v-15z" transform="matrix(-1 0 0 1 696 288)" id="path700"/></g><g id="g710"><path class="st10" d="M352-183l-14 7v15l30 15 14-7v-15z" transform="matrix(-1 0 0 1 696 288)" id="path704"/><path class="st5" d="M338-176v15l30 15v-15z" transform="matrix(-1 0 0 1 696 288)" id="path706"/><path class="st7" d="M382-168v15l-14 7v-15z" transform="matrix(-1 0 0 1 696 288)" id="path708"/></g><g id="g720"><path class="st9" d="M336-175l-14 7v15l30 15 14-7v-15z" transform="matrix(-1 0 0 1 696 288)" id="path712"/><path class="st5" d="M322-168v15l30 15v-15z" transform="matrix(-1 0 0 1 696 288)" id="path714"/><path class="st7" d="M366-160v15l-14 7v-15z" transform="matrix(-1 0 0 1 696 288)" id="path716"/><path class="st1" d="M325-164.5l-1-.5v11l1 .5zm2 1l-1-.5v11l1 .5zm2 1l-1-.5v11l1 .5zm2 1l-1-.5v11l1 .5zm2 1l-1-.5v11l1 .5zm2 1l-1-.5v11l1 .5zm2 1l-1-.5v11l1 .5zm2 1l-1-.5v11l1 .5zm2 1l-1-.5v11l1 .5zm2 1l-1-.5v11l1 .5zm2 1l-1-.5v11l1 .5zm2 1l-1-.5v11l1 .5zm2 1l-1-.5v11l1 .5zm2 1l-1-.5v11l1 .5z" transform="matrix(-1 0 0 1 696 288)" id="path718"/></g><g id="g728"><path class="st9" d="M448-199l-14 7v15l30 15 14-7v-15z" transform="matrix(-1 0 0 1 696 288)" id="path722"/><path class="st5" d="M434-192v15l30 15v-15z" transform="matrix(-1 0 0 1 696 288)" id="path724"/><path class="st7" d="M478-184v15l-14 7v-15z" transform="matrix(-1 0 0 1 696 288)" id="path726"/></g><g id="g736"><path class="st10" d="M432-191l-14 7v15l30 15 14-7v-15z" transform="matrix(-1 0 0 1 696 288)" id="path730"/><path class="st5" d="M418-184v15l30 15v-15z" transform="matrix(-1 0 0 1 696 288)" id="path732"/><path class="st7" d="M462-176v15l-14 7v-15z" transform="matrix(-1 0 0 1 696 288)" id="path734"/></g><g id="g744"><path class="st8" d="M416-183l-14 7v15l30 15 14-7v-15z" transform="matrix(-1 0 0 1 696 288)" id="path738"/><path class="st5" d="M402-176v15l30 15v-15z" transform="matrix(-1 0 0 1 696 288)" id="path740"/><path class="st7" d="M446-168v15l-14 7v-15z" transform="matrix(-1 0 0 1 696 288)" id="path742"/></g><g id="g752"><path class="st10" d="M400-175l-14 7v15l30 15 14-7v-15z" transform="matrix(-1 0 0 1 696 288)" id="path746"/><path class="st5" d="M386-168v15l30 15v-15z" transform="matrix(-1 0 0 1 696 288)" id="path748"/><path class="st7" d="M430-160v15l-14 7v-15z" transform="matrix(-1 0 0 1 696 288)" id="path750"/></g><g id="g760"><path class="st8" d="M384-167l-14 7v15l30 15 14-7v-15z" transform="matrix(-1 0 0 1 696 288)" id="path754"/><path class="st5" d="M370-160v15l30 15v-15z" transform="matrix(-1 0 0 1 696 288)" id="path756"/><path class="st7" d="M414-152v15l-14 7v-15z" transform="matrix(-1 0 0 1 696 288)" id="path758"/></g><g id="g770"><path class="st8" d="M368-159l-14 7v15l30 15 14-7v-15z" transform="matrix(-1 0 0 1 696 288)" id="path762"/><path class="st5" d="M354-152v15l30 15v-15z" transform="matrix(-1 0 0 1 696 288)" id="path764"/><path class="st7" d="M398-144v15l-14 7v-15z" transform="matrix(-1 0 0 1 696 288)" id="path766"/><path class="st1" d="M357-148.5l-1-.5v11l1 .5zm2 1l-1-.5v11l1 .5zm2 1l-1-.5v11l1 .5zm2 1l-1-.5v11l1 .5zm2 1l-1-.5v11l1 .5zm2 1l-1-.5v11l1 .5zm2 1l-1-.5v11l1 .5zm2 1l-1-.5v11l1 .5zm2 1l-1-.5v11l1 .5zm2 1l-1-.5v11l1 .5zm2 1l-1-.5v11l1 .5zm2 1l-1-.5v11l1 .5zm2 1l-1-.5v11l1 .5zm2 1l-1-.5v11l1 .5z" transform="matrix(-1 0 0 1 696 288)" id="path768"/></g><g id="g778"><path class="st9" d="M480-183l-14 7v15l30 15 14-7v-15z" transform="matrix(-1 0 0 1 696 288)" id="path772"/><path class="st5" d="M466-176v15l30 15v-15z" transform="matrix(-1 0 0 1 696 288)" id="path774"/><path class="st7" d="M510-168v15l-14 7v-15z" transform="matrix(-1 0 0 1 696 288)" id="path776"/></g><g id="g786"><path class="st9" d="M464-175l-14 7v15l30 15 14-7v-15z" transform="matrix(-1 0 0 1 696 288)" id="path780"/><path class="st5" d="M450-168v15l30 15v-15z" transform="matrix(-1 0 0 1 696 288)" id="path782"/><path class="st7" d="M494-160v15l-14 7v-15z" transform="matrix(-1 0 0 1 696 288)" id="path784"/></g><g id="g794"><path class="st8" d="M448-167l-14 7v15l30 15 14-7v-15z" transform="matrix(-1 0 0 1 696 288)" id="path788"/><path class="st5" d="M434-160v15l30 15v-15z" transform="matrix(-1 0 0 1 696 288)" id="path790"/><path class="st7" d="M478-152v15l-14 7v-15z" transform="matrix(-1 0 0 1 696 288)" id="path792"/></g><g id="g802"><path class="st10" d="M432-159l-14 7v15l30 15 14-7v-15z" transform="matrix(-1 0 0 1 696 288)" id="path796"/><path class="st5" d="M418-152v15l30 15v-15z" transform="matrix(-1 0 0 1 696 288)" id="path798"/><path class="st7" d="M462-144v15l-14 7v-15z" transform="matrix(-1 0 0 1 696 288)" id="path800"/></g><g id="g810"><path class="st10" d="M416-151l-14 7v15l30 15 14-7v-15z" transform="matrix(-1 0 0 1 696 288)" id="path804"/><path class="st5" d="M402-144v15l30 15v-15z" transform="matrix(-1 0 0 1 696 288)" id="path806"/><path class="st7" d="M446-136v15l-14 7v-15z" transform="matrix(-1 0 0 1 696 288)" id="path808"/></g><g id="g820"><path class="st9" d="M400-143l-14 7v15l30 15 14-7v-15z" transform="matrix(-1 0 0 1 696 288)" id="path812"/><path class="st5" d="M386-136v15l30 15v-15z" transform="matrix(-1 0 0 1 696 288)" id="path814"/><path class="st7" d="M430-128v15l-14 7v-15z" transform="matrix(-1 0 0 1 696 288)" id="path816"/><path class="st1" d="M389-132.5l-1-.5v11l1 .5zm2 1l-1-.5v11l1 .5zm2 1l-1-.5v11l1 .5zm2 1l-1-.5v11l1 .5zm2 1l-1-.5v11l1 .5zm2 1l-1-.5v11l1 .5zm2 1l-1-.5v11l1 .5zm2 1l-1-.5v11l1 .5zm2 1l-1-.5v11l1 .5zm2 1l-1-.5v11l1 .5zm2 1l-1-.5v11l1 .5zm2 1l-1-.5v11l1 .5zm2 1l-1-.5v11l1 .5zm2 1l-1-.5v11l1 .5z" transform="matrix(-1 0 0 1 696 288)" id="path818"/></g><g id="g828"><path class="st8" d="M512-167l-14 7v15l30 15 14-7v-15z" transform="matrix(-1 0 0 1 696 288)" id="path822"/><path class="st5" d="M498-160v15l30 15v-15z" transform="matrix(-1 0 0 1 696 288)" id="path824"/><path class="st7" d="M542-152v15l-14 7v-15z" transform="matrix(-1 0 0 1 696 288)" id="path826"/></g><g id="g836"><path class="st8" d="M496-159l-14 7v15l30 15 14-7v-15z" transform="matrix(-1 0 0 1 696 288)" id="path830"/><path class="st5" d="M482-152v15l30 15v-15z" transform="matrix(-1 0 0 1 696 288)" id="path832"/><path class="st7" d="M526-144v15l-14 7v-15z" transform="matrix(-1 0 0 1 696 288)" id="path834"/></g><g id="g844"><path class="st10" d="M480-151l-14 7v15l30 15 14-7v-15z" transform="matrix(-1 0 0 1 696 288)" id="path838"/><path class="st5" d="M466-144v15l30 15v-15z" transform="matrix(-1 0 0 1 696 288)" id="path840"/><path class="st7" d="M510-136v15l-14 7v-15z" transform="matrix(-1 0 0 1 696 288)" id="path842"/></g><g id="g852"><path class="st9" d="M464-143l-14 7v15l30 15 14-7v-15z" transform="matrix(-1 0 0 1 696 288)" id="path846"/><path class="st5" d="M450-136v15l30 15v-15z" transform="matrix(-1 0 0 1 696 288)" id="path848"/><path class="st7" d="M494-128v15l-14 7v-15z" transform="matrix(-1 0 0 1 696 288)" id="path850"/></g><g id="g860"><path class="st9" d="M448-135l-14 7v15l30 15 14-7v-15z" transform="matrix(-1 0 0 1 696 288)" id="path854"/><path class="st5" d="M434-128v15l30 15v-15z" transform="matrix(-1 0 0 1 696 288)" id="path856"/><path class="st7" d="M478-120v15l-14 7v-15z" transform="matrix(-1 0 0 1 696 288)" id="path858"/></g><g id="g870"><path class="st8" d="M432-127l-14 7v15l30 15 14-7v-15z" transform="matrix(-1 0 0 1 696 288)" id="path862"/><path class="st5" d="M418-120v15l30 15v-15z" transform="matrix(-1 0 0 1 696 288)" id="path864"/><path class="st7" d="M462-112v15l-14 7v-15z" transform="matrix(-1 0 0 1 696 288)" id="path866"/><path class="st1" d="M421-116.5l-1-.5v11l1 .5zm2 1l-1-.5v11l1 .5zm2 1l-1-.5v11l1 .5zm2 1l-1-.5v11l1 .5zm2 1l-1-.5v11l1 .5zm2 1l-1-.5v11l1 .5zm2 1l-1-.5v11l1 .5zm2 1l-1-.5v11l1 .5zm2 1l-1-.5v11l1 .5zm2 1l-1-.5v11l1 .5zm2 1l-1-.5v11l1 .5zm2 1l-1-.5v11l1 .5zm2 1l-1-.5v11l1 .5zm2 1l-1-.5v11l1 .5z" transform="matrix(-1 0 0 1 696 288)" id="path868"/></g><g id="g878"><path class="st8" d="M544-151l-14 7v15l30 15 14-7v-15z" transform="matrix(-1 0 0 1 696 288)" id="path872"/><path class="st5" d="M530-144v15l30 15v-15z" transform="matrix(-1 0 0 1 696 288)" id="path874"/><path class="st7" d="M574-136v15l-14 7v-15z" transform="matrix(-1 0 0 1 696 288)" id="path876"/></g><g id="g886"><path class="st9" d="M528-143l-14 7v15l30 15 14-7v-15z" transform="matrix(-1 0 0 1 696 288)" id="path880"/><path class="st5" d="M514-136v15l30 15v-15z" transform="matrix(-1 0 0 1 696 288)" id="path882"/><path class="st7" d="M558-128v15l-14 7v-15z" transform="matrix(-1 0 0 1 696 288)" id="path884"/></g><g id="g894"><path class="st8" d="M512-135l-14 7v15l30 15 14-7v-15z" transform="matrix(-1 0 0 1 696 288)" id="path888"/><path class="st5" d="M498-128v15l30 15v-15z" transform="matrix(-1 0 0 1 696 288)" id="path890"/><path class="st7" d="M542-120v15l-14 7v-15z" transform="matrix(-1 0 0 1 696 288)" id="path892"/></g><g id="g902"><path class="st10" d="M496-127l-14 7v15l30 15 14-7v-15z" transform="matrix(-1 0 0 1 696 288)" id="path896"/><path class="st5" d="M482-120v15l30 15v-15z" transform="matrix(-1 0 0 1 696 288)" id="path898"/><path class="st7" d="M526-112v15l-14 7v-15z" transform="matrix(-1 0 0 1 696 288)" id="path900"/></g><g id="g910"><path class="st9" d="M480-119l-14 7v15l30 15 14-7v-15z" transform="matrix(-1 0 0 1 696 288)" id="path904"/><path class="st5" d="M466-112v15l30 15v-15z" transform="matrix(-1 0 0 1 696 288)" id="path906"/><path class="st7" d="M510-104v15l-14 7v-15z" transform="matrix(-1 0 0 1 696 288)" id="path908"/></g><g id="g920"><path class="st9" d="M576-135l-14 7v15l30 15 14-7v-15z" transform="matrix(-1 0 0 1 696 288)" id="path912"/><path class="st5" d="M562-128v15l30 15v-15z" transform="matrix(-1 0 0 1 696 288)" id="path914"/><path class="st7" d="M606-120v15l-14 7v-15z" transform="matrix(-1 0 0 1 696 288)" id="path916"/><path class="st1" d="M604-106l-4 2v-11l4-2zm-6 3l-4 2v-11l4-2z" transform="matrix(-1 0 0 1 696 288)" id="path918"/></g><g id="g930"><path class="st10" d="M560-127l-14 7v15l30 15 14-7v-15z" transform="matrix(-1 0 0 1 696 288)" id="path922"/><path class="st5" d="M546-120v15l30 15v-15z" transform="matrix(-1 0 0 1 696 288)" id="path924"/><path class="st7" d="M590-112v15l-14 7v-15z" transform="matrix(-1 0 0 1 696 288)" id="path926"/><path class="st1" d="M588-98l-4 2v-11l4-2zm-6 3l-4 2v-11l4-2z" transform="matrix(-1 0 0 1 696 288)" id="path928"/></g><g id="g940"><path class="st9" d="M544-119l-14 7v15l30 15 14-7v-15z" transform="matrix(-1 0 0 1 696 288)" id="path932"/><path class="st5" d="M530-112v15l30 15v-15z" transform="matrix(-1 0 0 1 696 288)" id="path934"/><path class="st7" d="M574-104v15l-14 7v-15z" transform="matrix(-1 0 0 1 696 288)" id="path936"/><path class="st1" d="M572-90l-4 2v-11l4-2zm-6 3l-4 2v-11l4-2z" transform="matrix(-1 0 0 1 696 288)" id="path938"/></g><g id="g950"><path class="st8" d="M528-111l-14 7v15l30 15 14-7v-15z" transform="matrix(-1 0 0 1 696 288)" id="path942"/><path class="st5" d="M514-104v15l30 15v-15z" transform="matrix(-1 0 0 1 696 288)" id="path944"/><path class="st7" d="M558-96v15l-14 7v-15z" transform="matrix(-1 0 0 1 696 288)" id="path946"/><path class="st1" d="M556-82l-4 2v-11l4-2zm-6 3l-4 2v-11l4-2z" transform="matrix(-1 0 0 1 696 288)" id="path948"/></g><g id="g960"><path class="st10" d="M512-103l-14 7v15l30 15 14-7v-15z" transform="matrix(-1 0 0 1 696 288)" id="path952"/><path class="st5" d="M498-96v15l30 15v-15z" transform="matrix(-1 0 0 1 696 288)" id="path954"/><path class="st7" d="M542-88v15l-14 7v-15z" transform="matrix(-1 0 0 1 696 288)" id="path956"/><path class="st1" d="M540-74l-4 2v-11l4-2zm-6 3l-4 2v-11l4-2z" transform="matrix(-1 0 0 1 696 288)" id="path958"/></g><g id="g970"><path class="st8" d="M464-111l-14 7v15l30 15 14-7v-15z" transform="matrix(-1 0 0 1 696 288)" id="path962"/><path class="st5" d="M450-104v15l30 15v-15z" transform="matrix(-1 0 0 1 696 288)" id="path964"/><path class="st7" d="M494-96v15l-14 7v-15z" transform="matrix(-1 0 0 1 696 288)" id="path966"/><path class="st1" d="M492-82l-4 2v-11l4-2zm-6 3l-4 2v-11l4-2zm-33-21.5l-1-.5v11l1 .5zm2 1l-1-.5v11l1 .5zm2 1l-1-.5v11l1 .5zm2 1l-1-.5v11l1 .5zm2 1l-1-.5v11l1 .5zm2 1l-1-.5v11l1 .5zm2 1l-1-.5v11l1 .5zm2 1l-1-.5v11l1 .5zm2 1l-1-.5v11l1 .5zm2 1l-1-.5v11l1 .5zm2 1l-1-.5v11l1 .5zm2 1l-1-.5v11l1 .5zm2 1l-1-.5v11l1 .5zm2 1l-1-.5v11l1 .5z" transform="matrix(-1 0 0 1 696 288)" id="path968"/></g><g id="g980"><path class="st9" d="M496-95l-14 7v15l30 15 14-7v-15z" transform="matrix(-1 0 0 1 696 288)" id="path972"/><path class="st5" d="M482-88v15l30 15v-15z" transform="matrix(-1 0 0 1 696 288)" id="path974"/><path class="st7" d="M526-80v15l-14 7v-15z" transform="matrix(-1 0 0 1 696 288)" id="path976"/><path class="st1" d="M524-66l-4 2v-11l4-2zm-6 3l-4 2v-11l4-2zm-33-21.5l-1-.5v11l1 .5zm2 1l-1-.5v11l1 .5zm2 1l-1-.5v11l1 .5zm2 1l-1-.5v11l1 .5zm2 1l-1-.5v11l1 .5zm2 1l-1-.5v11l1 .5zm2 1l-1-.5v11l1 .5zm2 1l-1-.5v11l1 .5zm2 1l-1-.5v11l1 .5zm2 1l-1-.5v11l1 .5zm2 1l-1-.5v11l1 .5zm2 1l-1-.5v11l1 .5zm2 1l-1-.5v11l1 .5zm2 1l-1-.5v11l1 .5z" transform="matrix(-1 0 0 1 696 288)" id="path978"/></g></g><g id="g1402"><path class="st9" d="M320-279l-14 7v15l30 15 14-7v-15z" transform="matrix(-1 0 0 1 696 288)" id="path984"/><path class="st5" d="M306-272v15l30 15v-15z" transform="matrix(-1 0 0 1 696 288)" id="path986"/><path class="st7" d="M350-264v15l-14 7v-15z" transform="matrix(-1 0 0 1 696 288)" id="path988"/><path class="st10" d="M304-271l-14 7v15l30 15 14-7v-15z" transform="matrix(-1 0 0 1 696 288)" id="path990"/><path class="st5" d="M290-264v15l30 15v-15z" transform="matrix(-1 0 0 1 696 288)" id="path992"/><path class="st7" d="M334-256v15l-14 7v-15z" transform="matrix(-1 0 0 1 696 288)" id="path994"/><path class="st8" d="M288-263l-14 7v15l30 15 14-7v-15z" transform="matrix(-1 0 0 1 696 288)" id="path996"/><path class="st5" d="M274-256v15l30 15v-15z" transform="matrix(-1 0 0 1 696 288)" id="path998"/><path class="st7" d="M318-248v15l-14 7v-15z" transform="matrix(-1 0 0 1 696 288)" id="path1000"/><path class="st9" d="M272-255l-14 7v15l30 15 14-7v-15z" transform="matrix(-1 0 0 1 696 288)" id="path1002"/><path class="st5" d="M258-248v15l30 15v-15z" transform="matrix(-1 0 0 1 696 288)" id="path1004"/><path class="st7" d="M302-240v15l-14 7v-15z" transform="matrix(-1 0 0 1 696 288)" id="path1006"/><path class="st1" d="M261-244.5l-1-.5v11l1 .5zm2 1l-1-.5v11l1 .5zm2 1l-1-.5v11l1 .5zm2 1l-1-.5v11l1 .5zm2 1l-1-.5v11l1 .5zm2 1l-1-.5v11l1 .5zm2 1l-1-.5v11l1 .5zm2 1l-1-.5v11l1 .5zm2 1l-1-.5v11l1 .5zm2 1l-1-.5v11l1 .5zm2 1l-1-.5v11l1 .5zm2 1l-1-.5v11l1 .5zm2 1l-1-.5v11l1 .5zm2 1l-1-.5v11l1 .5z" transform="matrix(-1 0 0 1 696 288)" id="path1008"/><path class="st8" d="M352-263l-14 7v15l30 15 14-7v-15z" transform="matrix(-1 0 0 1 696 288)" id="path1010"/><path class="st5" d="M338-256v15l30 15v-15z" transform="matrix(-1 0 0 1 696 288)" id="path1012"/><path class="st7" d="M382-248v15l-14 7v-15z" transform="matrix(-1 0 0 1 696 288)" id="path1014"/><path class="st8" d="M336-255l-14 7v15l30 15 14-7v-15z" transform="matrix(-1 0 0 1 696 288)" id="path1016"/><path class="st5" d="M322-248v15l30 15v-15z" transform="matrix(-1 0 0 1 696 288)" id="path1018"/><path class="st7" d="M366-240v15l-14 7v-15z" transform="matrix(-1 0 0 1 696 288)" id="path1020"/><path class="st10" d="M320-247l-14 7v15l30 15 14-7v-15z" transform="matrix(-1 0 0 1 696 288)" id="path1022"/><path class="st5" d="M306-240v15l30 15v-15z" transform="matrix(-1 0 0 1 696 288)" id="path1024"/><path class="st7" d="M350-232v15l-14 7v-15z" transform="matrix(-1 0 0 1 696 288)" id="path1026"/><path class="st10" d="M304-239l-14 7v15l30 15 14-7v-15z" transform="matrix(-1 0 0 1 696 288)" id="path1028"/><path class="st5" d="M290-232v15l30 15v-15z" transform="matrix(-1 0 0 1 696 288)" id="path1030"/><path class="st7" d="M334-224v15l-14 7v-15z" transform="matrix(-1 0 0 1 696 288)" id="path1032"/><path class="st9" d="M288-231l-14 7v15l30 15 14-7v-15z" transform="matrix(-1 0 0 1 696 288)" id="path1034"/><path class="st5" d="M274-224v15l30 15v-15z" transform="matrix(-1 0 0 1 696 288)" id="path1036"/><path class="st7" d="M318-216v15l-14 7v-15z" transform="matrix(-1 0 0 1 696 288)" id="path1038"/><path class="st1" d="M277-220.5l-1-.5v11l1 .5zm2 1l-1-.5v11l1 .5zm2 1l-1-.5v11l1 .5zm2 1l-1-.5v11l1 .5zm2 1l-1-.5v11l1 .5zm2 1l-1-.5v11l1 .5zm2 1l-1-.5v11l1 .5zm2 1l-1-.5v11l1 .5zm2 1l-1-.5v11l1 .5zm2 1l-1-.5v11l1 .5zm2 1l-1-.5v11l1 .5zm2 1l-1-.5v11l1 .5zm2 1l-1-.5v11l1 .5zm2 1l-1-.5v11l1 .5z" transform="matrix(-1 0 0 1 696 288)" id="path1040"/><g id="g1048"><path class="st8" d="M384-247l-14 7v15l30 15 14-7v-15z" transform="matrix(-1 0 0 1 696 288)" id="path1042"/><path class="st5" d="M370-240v15l30 15v-15z" transform="matrix(-1 0 0 1 696 288)" id="path1044"/><path class="st7" d="M414-232v15l-14 7v-15z" transform="matrix(-1 0 0 1 696 288)" id="path1046"/></g><g id="g1056"><path class="st9" d="M368-239l-14 7v15l30 15 14-7v-15z" transform="matrix(-1 0 0 1 696 288)" id="path1050"/><path class="st5" d="M354-232v15l30 15v-15z" transform="matrix(-1 0 0 1 696 288)" id="path1052"/><path class="st7" d="M398-224v15l-14 7v-15z" transform="matrix(-1 0 0 1 696 288)" id="path1054"/></g><g id="g1064"><path class="st9" d="M352-231l-14 7v15l30 15 14-7v-15z" transform="matrix(-1 0 0 1 696 288)" id="path1058"/><path class="st5" d="M338-224v15l30 15v-15z" transform="matrix(-1 0 0 1 696 288)" id="path1060"/><path class="st7" d="M382-216v15l-14 7v-15z" transform="matrix(-1 0 0 1 696 288)" id="path1062"/></g><g id="g1072"><path class="st8" d="M336-223l-14 7v15l30 15 14-7v-15z" transform="matrix(-1 0 0 1 696 288)" id="path1066"/><path class="st5" d="M322-216v15l30 15v-15z" transform="matrix(-1 0 0 1 696 288)" id="path1068"/><path class="st7" d="M366-208v15l-14 7v-15z" transform="matrix(-1 0 0 1 696 288)" id="path1070"/></g><g id="g1080"><path class="st10" d="M320-215l-14 7v15l30 15 14-7v-15z" transform="matrix(-1 0 0 1 696 288)" id="path1074"/><path class="st5" d="M306-208v15l30 15v-15z" transform="matrix(-1 0 0 1 696 288)" id="path1076"/><path class="st7" d="M350-200v15l-14 7v-15z" transform="matrix(-1 0 0 1 696 288)" id="path1078"/></g><g id="g1090"><path class="st8" d="M304-207l-14 7v15l30 15 14-7v-15z" transform="matrix(-1 0 0 1 696 288)" id="path1082"/><path class="st5" d="M290-200v15l30 15v-15z" transform="matrix(-1 0 0 1 696 288)" id="path1084"/><path class="st7" d="M334-192v15l-14 7v-15z" transform="matrix(-1 0 0 1 696 288)" id="path1086"/><path class="st1" d="M293-196.5l-1-.5v11l1 .5zm2 1l-1-.5v11l1 .5zm2 1l-1-.5v11l1 .5zm2 1l-1-.5v11l1 .5zm2 1l-1-.5v11l1 .5zm2 1l-1-.5v11l1 .5zm2 1l-1-.5v11l1 .5zm2 1l-1-.5v11l1 .5zm2 1l-1-.5v11l1 .5zm2 1l-1-.5v11l1 .5zm2 1l-1-.5v11l1 .5zm2 1l-1-.5v11l1 .5zm2 1l-1-.5v11l1 .5zm2 1l-1-.5v11l1 .5z" transform="matrix(-1 0 0 1 696 288)" id="path1088"/></g><g id="g1098"><path class="st10" d="M416-231l-14 7v15l30 15 14-7v-15z" transform="matrix(-1 0 0 1 696 288)" id="path1092"/><path class="st5" d="M402-224v15l30 15v-15z" transform="matrix(-1 0 0 1 696 288)" id="path1094"/><path class="st7" d="M446-216v15l-14 7v-15z" transform="matrix(-1 0 0 1 696 288)" id="path1096"/></g><g id="g1106"><path class="st8" d="M400-223l-14 7v15l30 15 14-7v-15z" transform="matrix(-1 0 0 1 696 288)" id="path1100"/><path class="st5" d="M386-216v15l30 15v-15z" transform="matrix(-1 0 0 1 696 288)" id="path1102"/><path class="st7" d="M430-208v15l-14 7v-15z" transform="matrix(-1 0 0 1 696 288)" id="path1104"/></g><g id="g1114"><path class="st9" d="M384-215l-14 7v15l30 15 14-7v-15z" transform="matrix(-1 0 0 1 696 288)" id="path1108"/><path class="st5" d="M370-208v15l30 15v-15z" transform="matrix(-1 0 0 1 696 288)" id="path1110"/><path class="st7" d="M414-200v15l-14 7v-15z" transform="matrix(-1 0 0 1 696 288)" id="path1112"/></g><g id="g1122"><path class="st8" d="M368-207l-14 7v15l30 15 14-7v-15z" transform="matrix(-1 0 0 1 696 288)" id="path1116"/><path class="st5" d="M354-200v15l30 15v-15z" transform="matrix(-1 0 0 1 696 288)" id="path1118"/><path class="st7" d="M398-192v15l-14 7v-15z" transform="matrix(-1 0 0 1 696 288)" id="path1120"/></g><g id="g1130"><path class="st10" d="M352-199l-14 7v15l30 15 14-7v-15z" transform="matrix(-1 0 0 1 696 288)" id="path1124"/><path class="st5" d="M338-192v15l30 15v-15z" transform="matrix(-1 0 0 1 696 288)" id="path1126"/><path class="st7" d="M382-184v15l-14 7v-15z" transform="matrix(-1 0 0 1 696 288)" id="path1128"/></g><g id="g1140"><path class="st10" d="M336-191l-14 7v15l30 15 14-7v-15z" transform="matrix(-1 0 0 1 696 288)" id="path1132"/><path class="st5" d="M322-184v15l30 15v-15z" transform="matrix(-1 0 0 1 696 288)" id="path1134"/><path class="st7" d="M366-176v15l-14 7v-15z" transform="matrix(-1 0 0 1 696 288)" id="path1136"/><path class="st1" d="M325-180.5l-1-.5v11l1 .5zm2 1l-1-.5v11l1 .5zm2 1l-1-.5v11l1 .5zm2 1l-1-.5v11l1 .5zm2 1l-1-.5v11l1 .5zm2 1l-1-.5v11l1 .5zm2 1l-1-.5v11l1 .5zm2 1l-1-.5v11l1 .5zm2 1l-1-.5v11l1 .5zm2 1l-1-.5v11l1 .5zm2 1l-1-.5v11l1 .5zm2 1l-1-.5v11l1 .5zm2 1l-1-.5v11l1 .5zm2 1l-1-.5v11l1 .5z" transform="matrix(-1 0 0 1 696 288)" id="path1138"/></g><g id="g1148"><path class="st9" d="M448-215l-14 7v15l30 15 14-7v-15z" transform="matrix(-1 0 0 1 696 288)" id="path1142"/><path class="st5" d="M434-208v15l30 15v-15z" transform="matrix(-1 0 0 1 696 288)" id="path1144"/><path class="st7" d="M478-200v15l-14 7v-15z" transform="matrix(-1 0 0 1 696 288)" id="path1146"/></g><g id="g1156"><path class="st10" d="M432-207l-14 7v15l30 15 14-7v-15z" transform="matrix(-1 0 0 1 696 288)" id="path1150"/><path class="st5" d="M418-200v15l30 15v-15z" transform="matrix(-1 0 0 1 696 288)" id="path1152"/><path class="st7" d="M462-192v15l-14 7v-15z" transform="matrix(-1 0 0 1 696 288)" id="path1154"/></g><g id="g1164"><path class="st8" d="M416-199l-14 7v15l30 15 14-7v-15z" transform="matrix(-1 0 0 1 696 288)" id="path1158"/><path class="st5" d="M402-192v15l30 15v-15z" transform="matrix(-1 0 0 1 696 288)" id="path1160"/><path class="st7" d="M446-184v15l-14 7v-15z" transform="matrix(-1 0 0 1 696 288)" id="path1162"/></g><g id="g1172"><path class="st10" d="M400-191l-14 7v15l30 15 14-7v-15z" transform="matrix(-1 0 0 1 696 288)" id="path1166"/><path class="st5" d="M386-184v15l30 15v-15z" transform="matrix(-1 0 0 1 696 288)" id="path1168"/><path class="st7" d="M430-176v15l-14 7v-15z" transform="matrix(-1 0 0 1 696 288)" id="path1170"/></g><g id="g1180"><path class="st8" d="M384-183l-14 7v15l30 15 14-7v-15z" transform="matrix(-1 0 0 1 696 288)" id="path1174"/><path class="st5" d="M370-176v15l30 15v-15z" transform="matrix(-1 0 0 1 696 288)" id="path1176"/><path class="st7" d="M414-168v15l-14 7v-15z" transform="matrix(-1 0 0 1 696 288)" id="path1178"/></g><g id="g1190"><path class="st8" d="M368-175l-14 7v15l30 15 14-7v-15z" transform="matrix(-1 0 0 1 696 288)" id="path1182"/><path class="st5" d="M354-168v15l30 15v-15z" transform="matrix(-1 0 0 1 696 288)" id="path1184"/><path class="st7" d="M398-160v15l-14 7v-15z" transform="matrix(-1 0 0 1 696 288)" id="path1186"/><path class="st1" d="M357-164.5l-1-.5v11l1 .5zm2 1l-1-.5v11l1 .5zm2 1l-1-.5v11l1 .5zm2 1l-1-.5v11l1 .5zm2 1l-1-.5v11l1 .5zm2 1l-1-.5v11l1 .5zm2 1l-1-.5v11l1 .5zm2 1l-1-.5v11l1 .5zm2 1l-1-.5v11l1 .5zm2 1l-1-.5v11l1 .5zm2 1l-1-.5v11l1 .5zm2 1l-1-.5v11l1 .5zm2 1l-1-.5v11l1 .5zm2 1l-1-.5v11l1 .5z" transform="matrix(-1 0 0 1 696 288)" id="path1188"/></g><g id="g1198"><path class="st9" d="M480-199l-14 7v15l30 15 14-7v-15z" transform="matrix(-1 0 0 1 696 288)" id="path1192"/><path class="st5" d="M466-192v15l30 15v-15z" transform="matrix(-1 0 0 1 696 288)" id="path1194"/><path class="st7" d="M510-184v15l-14 7v-15z" transform="matrix(-1 0 0 1 696 288)" id="path1196"/></g><g id="g1206"><path class="st9" d="M464-191l-14 7v15l30 15 14-7v-15z" transform="matrix(-1 0 0 1 696 288)" id="path1200"/><path class="st5" d="M450-184v15l30 15v-15z" transform="matrix(-1 0 0 1 696 288)" id="path1202"/><path class="st7" d="M494-176v15l-14 7v-15z" transform="matrix(-1 0 0 1 696 288)" id="path1204"/></g><g id="g1214"><path class="st8" d="M448-183l-14 7v15l30 15 14-7v-15z" transform="matrix(-1 0 0 1 696 288)" id="path1208"/><path class="st5" d="M434-176v15l30 15v-15z" transform="matrix(-1 0 0 1 696 288)" id="path1210"/><path class="st7" d="M478-168v15l-14 7v-15z" transform="matrix(-1 0 0 1 696 288)" id="path1212"/></g><g id="g1222"><path class="st10" d="M432-175l-14 7v15l30 15 14-7v-15z" transform="matrix(-1 0 0 1 696 288)" id="path1216"/><path class="st5" d="M418-168v15l30 15v-15z" transform="matrix(-1 0 0 1 696 288)" id="path1218"/><path class="st7" d="M462-160v15l-14 7v-15z" transform="matrix(-1 0 0 1 696 288)" id="path1220"/></g><g id="g1230"><path class="st10" d="M416-167l-14 7v15l30 15 14-7v-15z" transform="matrix(-1 0 0 1 696 288)" id="path1224"/><path class="st5" d="M402-160v15l30 15v-15z" transform="matrix(-1 0 0 1 696 288)" id="path1226"/><path class="st7" d="M446-152v15l-14 7v-15z" transform="matrix(-1 0 0 1 696 288)" id="path1228"/></g><g id="g1240"><path class="st10" d="M400-159l-14 7v15l30 15 14-7v-15z" transform="matrix(-1 0 0 1 696 288)" id="path1232"/><path class="st5" d="M386-152v15l30 15v-15z" transform="matrix(-1 0 0 1 696 288)" id="path1234"/><path class="st7" d="M430-144v15l-14 7v-15z" transform="matrix(-1 0 0 1 696 288)" id="path1236"/><path class="st1" d="M389-148.5l-1-.5v11l1 .5zm2 1l-1-.5v11l1 .5zm2 1l-1-.5v11l1 .5zm2 1l-1-.5v11l1 .5zm2 1l-1-.5v11l1 .5zm2 1l-1-.5v11l1 .5zm2 1l-1-.5v11l1 .5zm2 1l-1-.5v11l1 .5zm2 1l-1-.5v11l1 .5zm2 1l-1-.5v11l1 .5zm2 1l-1-.5v11l1 .5zm2 1l-1-.5v11l1 .5zm2 1l-1-.5v11l1 .5zm2 1l-1-.5v11l1 .5z" transform="matrix(-1 0 0 1 696 288)" id="path1238"/></g><g id="g1248"><path class="st8" d="M512-183l-14 7v15l30 15 14-7v-15z" transform="matrix(-1 0 0 1 696 288)" id="path1242"/><path class="st5" d="M498-176v15l30 15v-15z" transform="matrix(-1 0 0 1 696 288)" id="path1244"/><path class="st7" d="M542-168v15l-14 7v-15z" transform="matrix(-1 0 0 1 696 288)" id="path1246"/></g><g id="g1256"><path class="st8" d="M496-175l-14 7v15l30 15 14-7v-15z" transform="matrix(-1 0 0 1 696 288)" id="path1250"/><path class="st5" d="M482-168v15l30 15v-15z" transform="matrix(-1 0 0 1 696 288)" id="path1252"/><path class="st7" d="M526-160v15l-14 7v-15z" transform="matrix(-1 0 0 1 696 288)" id="path1254"/></g><g id="g1264"><path class="st10" d="M480-167l-14 7v15l30 15 14-7v-15z" transform="matrix(-1 0 0 1 696 288)" id="path1258"/><path class="st5" d="M466-160v15l30 15v-15z" transform="matrix(-1 0 0 1 696 288)" id="path1260"/><path class="st7" d="M510-152v15l-14 7v-15z" transform="matrix(-1 0 0 1 696 288)" id="path1262"/></g><g id="g1272"><path class="st9" d="M464-159l-14 7v15l30 15 14-7v-15z" transform="matrix(-1 0 0 1 696 288)" id="path1266"/><path class="st5" d="M450-152v15l30 15v-15z" transform="matrix(-1 0 0 1 696 288)" id="path1268"/><path class="st7" d="M494-144v15l-14 7v-15z" transform="matrix(-1 0 0 1 696 288)" id="path1270"/></g><g id="g1280"><path class="st9" d="M448-151l-14 7v15l30 15 14-7v-15z" transform="matrix(-1 0 0 1 696 288)" id="path1274"/><path class="st5" d="M434-144v15l30 15v-15z" transform="matrix(-1 0 0 1 696 288)" id="path1276"/><path class="st7" d="M478-136v15l-14 7v-15z" transform="matrix(-1 0 0 1 696 288)" id="path1278"/></g><g id="g1290"><path class="st9" d="M432-143l-14 7v15l30 15 14-7v-15z" transform="matrix(-1 0 0 1 696 288)" id="path1282"/><path class="st5" d="M418-136v15l30 15v-15z" transform="matrix(-1 0 0 1 696 288)" id="path1284"/><path class="st7" d="M462-128v15l-14 7v-15z" transform="matrix(-1 0 0 1 696 288)" id="path1286"/><path class="st1" d="M421-132.5l-1-.5v11l1 .5zm2 1l-1-.5v11l1 .5zm2 1l-1-.5v11l1 .5zm2 1l-1-.5v11l1 .5zm2 1l-1-.5v11l1 .5zm2 1l-1-.5v11l1 .5zm2 1l-1-.5v11l1 .5zm2 1l-1-.5v11l1 .5zm2 1l-1-.5v11l1 .5zm2 1l-1-.5v11l1 .5zm2 1l-1-.5v11l1 .5zm2 1l-1-.5v11l1 .5zm2 1l-1-.5v11l1 .5zm2 1l-1-.5v11l1 .5z" transform="matrix(-1 0 0 1 696 288)" id="path1288"/></g><g id="g1298"><path class="st8" d="M544-167l-14 7v15l30 15 14-7v-15z" transform="matrix(-1 0 0 1 696 288)" id="path1292"/><path class="st5" d="M530-160v15l30 15v-15z" transform="matrix(-1 0 0 1 696 288)" id="path1294"/><path class="st7" d="M574-152v15l-14 7v-15z" transform="matrix(-1 0 0 1 696 288)" id="path1296"/></g><g id="g1306"><path class="st9" d="M528-159l-14 7v15l30 15 14-7v-15z" transform="matrix(-1 0 0 1 696 288)" id="path1300"/><path class="st5" d="M514-152v15l30 15v-15z" transform="matrix(-1 0 0 1 696 288)" id="path1302"/><path class="st7" d="M558-144v15l-14 7v-15z" transform="matrix(-1 0 0 1 696 288)" id="path1304"/></g><g id="g1314"><path class="st8" d="M512-151l-14 7v15l30 15 14-7v-15z" transform="matrix(-1 0 0 1 696 288)" id="path1308"/><path class="st5" d="M498-144v15l30 15v-15z" transform="matrix(-1 0 0 1 696 288)" id="path1310"/><path class="st7" d="M542-136v15l-14 7v-15z" transform="matrix(-1 0 0 1 696 288)" id="path1312"/></g><g id="g1322"><path class="st10" d="M496-143l-14 7v15l30 15 14-7v-15z" transform="matrix(-1 0 0 1 696 288)" id="path1316"/><path class="st5" d="M482-136v15l30 15v-15z" transform="matrix(-1 0 0 1 696 288)" id="path1318"/><path class="st7" d="M526-128v15l-14 7v-15z" transform="matrix(-1 0 0 1 696 288)" id="path1320"/></g><g id="g1330"><path class="st9" d="M480-135l-14 7v15l30 15 14-7v-15z" transform="matrix(-1 0 0 1 696 288)" id="path1324"/><path class="st5" d="M466-128v15l30 15v-15z" transform="matrix(-1 0 0 1 696 288)" id="path1326"/><path class="st7" d="M510-120v15l-14 7v-15z" transform="matrix(-1 0 0 1 696 288)" id="path1328"/></g><g id="g1340"><path class="st9" d="M576-151l-14 7v15l30 15 14-7v-15z" transform="matrix(-1 0 0 1 696 288)" id="path1332"/><path class="st5" d="M562-144v15l30 15v-15z" transform="matrix(-1 0 0 1 696 288)" id="path1334"/><path class="st7" d="M606-136v15l-14 7v-15z" transform="matrix(-1 0 0 1 696 288)" id="path1336"/><path class="st1" d="M604-122l-4 2v-11l4-2zm-6 3l-4 2v-11l4-2z" transform="matrix(-1 0 0 1 696 288)" id="path1338"/></g><g id="g1350"><path class="st10" d="M560-143l-14 7v15l30 15 14-7v-15z" transform="matrix(-1 0 0 1 696 288)" id="path1342"/><path class="st5" d="M546-136v15l30 15v-15z" transform="matrix(-1 0 0 1 696 288)" id="path1344"/><path class="st7" d="M590-128v15l-14 7v-15z" transform="matrix(-1 0 0 1 696 288)" id="path1346"/><path class="st1" d="M588-114l-4 2v-11l4-2zm-6 3l-4 2v-11l4-2z" transform="matrix(-1 0 0 1 696 288)" id="path1348"/></g><g id="g1360"><path class="st9" d="M544-135l-14 7v15l30 15 14-7v-15z" transform="matrix(-1 0 0 1 696 288)" id="path1352"/><path class="st5" d="M530-128v15l30 15v-15z" transform="matrix(-1 0 0 1 696 288)" id="path1354"/><path class="st7" d="M574-120v15l-14 7v-15z" transform="matrix(-1 0 0 1 696 288)" id="path1356"/><path class="st1" d="M572-106l-4 2v-11l4-2zm-6 3l-4 2v-11l4-2z" transform="matrix(-1 0 0 1 696 288)" id="path1358"/></g><g id="g1370"><path class="st8" d="M528-127l-14 7v15l30 15 14-7v-15z" transform="matrix(-1 0 0 1 696 288)" id="path1362"/><path class="st5" d="M514-120v15l30 15v-15z" transform="matrix(-1 0 0 1 696 288)" id="path1364"/><path class="st7" d="M558-112v15l-14 7v-15z" transform="matrix(-1 0 0 1 696 288)" id="path1366"/><path class="st1" d="M556-98l-4 2v-11l4-2zm-6 3l-4 2v-11l4-2z" transform="matrix(-1 0 0 1 696 288)" id="path1368"/></g><g id="g1380"><path class="st10" d="M512-119l-14 7v15l30 15 14-7v-15z" transform="matrix(-1 0 0 1 696 288)" id="path1372"/><path class="st5" d="M498-112v15l30 15v-15z" transform="matrix(-1 0 0 1 696 288)" id="path1374"/><path class="st7" d="M542-104v15l-14 7v-15z" transform="matrix(-1 0 0 1 696 288)" id="path1376"/><path class="st1" d="M540-90l-4 2v-11l4-2zm-6 3l-4 2v-11l4-2z" transform="matrix(-1 0 0 1 696 288)" id="path1378"/></g><g id="g1390"><path class="st10" d="M464-127l-14 7v15l30 15 14-7v-15z" transform="matrix(-1 0 0 1 696 288)" id="path1382"/><path class="st5" d="M450-120v15l30 15v-15z" transform="matrix(-1 0 0 1 696 288)" id="path1384"/><path class="st7" d="M494-112v15l-14 7v-15z" transform="matrix(-1 0 0 1 696 288)" id="path1386"/><path class="st1" d="M492-98l-4 2v-11l4-2zm-6 3l-4 2v-11l4-2zm-33-21.5l-1-.5v11l1 .5zm2 1l-1-.5v11l1 .5zm2 1l-1-.5v11l1 .5zm2 1l-1-.5v11l1 .5zm2 1l-1-.5v11l1 .5zm2 1l-1-.5v11l1 .5zm2 1l-1-.5v11l1 .5zm2 1l-1-.5v11l1 .5zm2 1l-1-.5v11l1 .5zm2 1l-1-.5v11l1 .5zm2 1l-1-.5v11l1 .5zm2 1l-1-.5v11l1 .5zm2 1l-1-.5v11l1 .5zm2 1l-1-.5v11l1 .5z" transform="matrix(-1 0 0 1 696 288)" id="path1388"/></g><g id="g1400"><path class="st8" d="M496-111l-14 7v15l30 15 14-7v-15z" transform="matrix(-1 0 0 1 696 288)" id="path1392"/><path class="st5" d="M482-104v15l30 15v-15z" transform="matrix(-1 0 0 1 696 288)" id="path1394"/><path class="st7" d="M526-96v15l-14 7v-15z" transform="matrix(-1 0 0 1 696 288)" id="path1396"/><path class="st1" d="M524-82l-4 2v-11l4-2zm-6 3l-4 2v-11l4-2zm-33-21.5l-1-.5v11l1 .5zm2 1l-1-.5v11l1 .5zm2 1l-1-.5v11l1 .5zm2 1l-1-.5v11l1 .5zm2 1l-1-.5v11l1 .5zm2 1l-1-.5v11l1 .5zm2 1l-1-.5v11l1 .5zm2 1l-1-.5v11l1 .5zm2 1l-1-.5v11l1 .5zm2 1l-1-.5v11l1 .5zm2 1l-1-.5v11l1 .5zm2 1l-1-.5v11l1 .5zm2 1l-1-.5v11l1 .5zm2 1l-1-.5v11l1 .5z" transform="matrix(-1 0 0 1 696 288)" id="path1398"/></g></g><g id="g1730"><path class="st8" d="M384-263l-14 7v15l30 15 14-7v-15z" transform="matrix(-1 0 0 1 696 288)" id="path1404"/><path class="st5" d="M370-256v15l30 15v-15z" transform="matrix(-1 0 0 1 696 288)" id="path1406"/><path class="st7" d="M414-248v15l-14 7v-15z" transform="matrix(-1 0 0 1 696 288)" id="path1408"/><path class="st9" d="M368-255l-14 7v15l30 15 14-7v-15z" transform="matrix(-1 0 0 1 696 288)" id="path1410"/><path class="st5" d="M354-248v15l30 15v-15z" transform="matrix(-1 0 0 1 696 288)" id="path1412"/><path class="st7" d="M398-240v15l-14 7v-15z" transform="matrix(-1 0 0 1 696 288)" id="path1414"/><path class="st10" d="M352-247l-14 7v15l30 15 14-7v-15z" transform="matrix(-1 0 0 1 696 288)" id="path1416"/><path class="st5" d="M338-240v15l30 15v-15z" transform="matrix(-1 0 0 1 696 288)" id="path1418"/><path class="st7" d="M382-232v15l-14 7v-15z" transform="matrix(-1 0 0 1 696 288)" id="path1420"/><path class="st9" d="M336-239l-14 7v15l30 15 14-7v-15z" transform="matrix(-1 0 0 1 696 288)" id="path1422"/><path class="st5" d="M322-232v15l30 15v-15z" transform="matrix(-1 0 0 1 696 288)" id="path1424"/><path class="st7" d="M366-224v15l-14 7v-15z" transform="matrix(-1 0 0 1 696 288)" id="path1426"/><path class="st1" d="M325-228.5l-1-.5v11l1 .5zm2 1l-1-.5v11l1 .5zm2 1l-1-.5v11l1 .5zm2 1l-1-.5v11l1 .5zm2 1l-1-.5v11l1 .5zm2 1l-1-.5v11l1 .5zm2 1l-1-.5v11l1 .5zm2 1l-1-.5v11l1 .5zm2 1l-1-.5v11l1 .5zm2 1l-1-.5v11l1 .5zm2 1l-1-.5v11l1 .5zm2 1l-1-.5v11l1 .5zm2 1l-1-.5v11l1 .5zm2 1l-1-.5v11l1 .5z" transform="matrix(-1 0 0 1 696 288)" id="path1428"/><path class="st10" d="M416-247l-14 7v15l30 15 14-7v-15z" transform="matrix(-1 0 0 1 696 288)" id="path1430"/><path class="st5" d="M402-240v15l30 15v-15z" transform="matrix(-1 0 0 1 696 288)" id="path1432"/><path class="st7" d="M446-232v15l-14 7v-15z" transform="matrix(-1 0 0 1 696 288)" id="path1434"/><path class="st8" d="M400-239l-14 7v15l30 15 14-7v-15z" transform="matrix(-1 0 0 1 696 288)" id="path1436"/><path class="st5" d="M386-232v15l30 15v-15z" transform="matrix(-1 0 0 1 696 288)" id="path1438"/><path class="st7" d="M430-224v15l-14 7v-15z" transform="matrix(-1 0 0 1 696 288)" id="path1440"/><path class="st9" d="M384-231l-14 7v15l30 15 14-7v-15z" transform="matrix(-1 0 0 1 696 288)" id="path1442"/><path class="st5" d="M370-224v15l30 15v-15z" transform="matrix(-1 0 0 1 696 288)" id="path1444"/><path class="st7" d="M414-216v15l-14 7v-15z" transform="matrix(-1 0 0 1 696 288)" id="path1446"/><path class="st9" d="M368-223l-14 7v15l30 15 14-7v-15z" transform="matrix(-1 0 0 1 696 288)" id="path1448"/><path class="st5" d="M354-216v15l30 15v-15z" transform="matrix(-1 0 0 1 696 288)" id="path1450"/><path class="st7" d="M398-208v15l-14 7v-15z" transform="matrix(-1 0 0 1 696 288)" id="path1452"/><path class="st10" d="M352-215l-14 7v15l30 15 14-7v-15z" transform="matrix(-1 0 0 1 696 288)" id="path1454"/><path class="st5" d="M338-208v15l30 15v-15z" transform="matrix(-1 0 0 1 696 288)" id="path1456"/><path class="st7" d="M382-200v15l-14 7v-15z" transform="matrix(-1 0 0 1 696 288)" id="path1458"/><g id="g1468"><path class="st9" d="M336-207l-14 7v15l30 15 14-7v-15z" transform="matrix(-1 0 0 1 696 288)" id="path1460"/><path class="st5" d="M322-200v15l30 15v-15z" transform="matrix(-1 0 0 1 696 288)" id="path1462"/><path class="st7" d="M366-192v15l-14 7v-15z" transform="matrix(-1 0 0 1 696 288)" id="path1464"/><path class="st1" d="M325-196.5l-1-.5v11l1 .5zm2 1l-1-.5v11l1 .5zm2 1l-1-.5v11l1 .5zm2 1l-1-.5v11l1 .5zm2 1l-1-.5v11l1 .5zm2 1l-1-.5v11l1 .5zm2 1l-1-.5v11l1 .5zm2 1l-1-.5v11l1 .5zm2 1l-1-.5v11l1 .5zm2 1l-1-.5v11l1 .5zm2 1l-1-.5v11l1 .5zm2 1l-1-.5v11l1 .5zm2 1l-1-.5v11l1 .5zm2 1l-1-.5v11l1 .5z" transform="matrix(-1 0 0 1 696 288)" id="path1466"/></g><g id="g1476"><path class="st9" d="M448-231l-14 7v15l30 15 14-7v-15z" transform="matrix(-1 0 0 1 696 288)" id="path1470"/><path class="st5" d="M434-224v15l30 15v-15z" transform="matrix(-1 0 0 1 696 288)" id="path1472"/><path class="st7" d="M478-216v15l-14 7v-15z" transform="matrix(-1 0 0 1 696 288)" id="path1474"/></g><g id="g1484"><path class="st10" d="M432-223l-14 7v15l30 15 14-7v-15z" transform="matrix(-1 0 0 1 696 288)" id="path1478"/><path class="st5" d="M418-216v15l30 15v-15z" transform="matrix(-1 0 0 1 696 288)" id="path1480"/><path class="st7" d="M462-208v15l-14 7v-15z" transform="matrix(-1 0 0 1 696 288)" id="path1482"/></g><g id="g1492"><path class="st8" d="M416-215l-14 7v15l30 15 14-7v-15z" transform="matrix(-1 0 0 1 696 288)" id="path1486"/><path class="st5" d="M402-208v15l30 15v-15z" transform="matrix(-1 0 0 1 696 288)" id="path1488"/><path class="st7" d="M446-200v15l-14 7v-15z" transform="matrix(-1 0 0 1 696 288)" id="path1490"/></g><g id="g1500"><path class="st10" d="M400-207l-14 7v15l30 15 14-7v-15z" transform="matrix(-1 0 0 1 696 288)" id="path1494"/><path class="st5" d="M386-200v15l30 15v-15z" transform="matrix(-1 0 0 1 696 288)" id="path1496"/><path class="st7" d="M430-192v15l-14 7v-15z" transform="matrix(-1 0 0 1 696 288)" id="path1498"/></g><g id="g1508"><path class="st8" d="M384-199l-14 7v15l30 15 14-7v-15z" transform="matrix(-1 0 0 1 696 288)" id="path1502"/><path class="st5" d="M370-192v15l30 15v-15z" transform="matrix(-1 0 0 1 696 288)" id="path1504"/><path class="st7" d="M414-184v15l-14 7v-15z" transform="matrix(-1 0 0 1 696 288)" id="path1506"/></g><g id="g1518"><path class="st10" d="M368-191l-14 7v15l30 15 14-7v-15z" transform="matrix(-1 0 0 1 696 288)" id="path1510"/><path class="st5" d="M354-184v15l30 15v-15z" transform="matrix(-1 0 0 1 696 288)" id="path1512"/><path class="st7" d="M398-176v15l-14 7v-15z" transform="matrix(-1 0 0 1 696 288)" id="path1514"/><path class="st1" d="M357-180.5l-1-.5v11l1 .5zm2 1l-1-.5v11l1 .5zm2 1l-1-.5v11l1 .5zm2 1l-1-.5v11l1 .5zm2 1l-1-.5v11l1 .5zm2 1l-1-.5v11l1 .5zm2 1l-1-.5v11l1 .5zm2 1l-1-.5v11l1 .5zm2 1l-1-.5v11l1 .5zm2 1l-1-.5v11l1 .5zm2 1l-1-.5v11l1 .5zm2 1l-1-.5v11l1 .5zm2 1l-1-.5v11l1 .5zm2 1l-1-.5v11l1 .5z" transform="matrix(-1 0 0 1 696 288)" id="path1516"/></g><g id="g1526"><path class="st9" d="M480-215l-14 7v15l30 15 14-7v-15z" transform="matrix(-1 0 0 1 696 288)" id="path1520"/><path class="st5" d="M466-208v15l30 15v-15z" transform="matrix(-1 0 0 1 696 288)" id="path1522"/><path class="st7" d="M510-200v15l-14 7v-15z" transform="matrix(-1 0 0 1 696 288)" id="path1524"/></g><g id="g1534"><path class="st9" d="M464-207l-14 7v15l30 15 14-7v-15z" transform="matrix(-1 0 0 1 696 288)" id="path1528"/><path class="st5" d="M450-200v15l30 15v-15z" transform="matrix(-1 0 0 1 696 288)" id="path1530"/><path class="st7" d="M494-192v15l-14 7v-15z" transform="matrix(-1 0 0 1 696 288)" id="path1532"/></g><g id="g1542"><path class="st8" d="M448-199l-14 7v15l30 15 14-7v-15z" transform="matrix(-1 0 0 1 696 288)" id="path1536"/><path class="st5" d="M434-192v15l30 15v-15z" transform="matrix(-1 0 0 1 696 288)" id="path1538"/><path class="st7" d="M478-184v15l-14 7v-15z" transform="matrix(-1 0 0 1 696 288)" id="path1540"/></g><g id="g1550"><path class="st10" d="M432-191l-14 7v15l30 15 14-7v-15z" transform="matrix(-1 0 0 1 696 288)" id="path1544"/><path class="st5" d="M418-184v15l30 15v-15z" transform="matrix(-1 0 0 1 696 288)" id="path1546"/><path class="st7" d="M462-176v15l-14 7v-15z" transform="matrix(-1 0 0 1 696 288)" id="path1548"/></g><g id="g1558"><path class="st10" d="M416-183l-14 7v15l30 15 14-7v-15z" transform="matrix(-1 0 0 1 696 288)" id="path1552"/><path class="st5" d="M402-176v15l30 15v-15z" transform="matrix(-1 0 0 1 696 288)" id="path1554"/><path class="st7" d="M446-168v15l-14 7v-15z" transform="matrix(-1 0 0 1 696 288)" id="path1556"/></g><g id="g1568"><path class="st8" d="M400-175l-14 7v15l30 15 14-7v-15z" transform="matrix(-1 0 0 1 696 288)" id="path1560"/><path class="st5" d="M386-168v15l30 15v-15z" transform="matrix(-1 0 0 1 696 288)" id="path1562"/><path class="st7" d="M430-160v15l-14 7v-15z" transform="matrix(-1 0 0 1 696 288)" id="path1564"/><path class="st1" d="M389-164.5l-1-.5v11l1 .5zm2 1l-1-.5v11l1 .5zm2 1l-1-.5v11l1 .5zm2 1l-1-.5v11l1 .5zm2 1l-1-.5v11l1 .5zm2 1l-1-.5v11l1 .5zm2 1l-1-.5v11l1 .5zm2 1l-1-.5v11l1 .5zm2 1l-1-.5v11l1 .5zm2 1l-1-.5v11l1 .5zm2 1l-1-.5v11l1 .5zm2 1l-1-.5v11l1 .5zm2 1l-1-.5v11l1 .5zm2 1l-1-.5v11l1 .5z" transform="matrix(-1 0 0 1 696 288)" id="path1566"/></g><g id="g1576"><path class="st8" d="M512-199l-14 7v15l30 15 14-7v-15z" transform="matrix(-1 0 0 1 696 288)" id="path1570"/><path class="st5" d="M498-192v15l30 15v-15z" transform="matrix(-1 0 0 1 696 288)" id="path1572"/><path class="st7" d="M542-184v15l-14 7v-15z" transform="matrix(-1 0 0 1 696 288)" id="path1574"/></g><g id="g1584"><path class="st8" d="M496-191l-14 7v15l30 15 14-7v-15z" transform="matrix(-1 0 0 1 696 288)" id="path1578"/><path class="st5" d="M482-184v15l30 15v-15z" transform="matrix(-1 0 0 1 696 288)" id="path1580"/><path class="st7" d="M526-176v15l-14 7v-15z" transform="matrix(-1 0 0 1 696 288)" id="path1582"/></g><g id="g1592"><path class="st10" d="M480-183l-14 7v15l30 15 14-7v-15z" transform="matrix(-1 0 0 1 696 288)" id="path1586"/><path class="st5" d="M466-176v15l30 15v-15z" transform="matrix(-1 0 0 1 696 288)" id="path1588"/><path class="st7" d="M510-168v15l-14 7v-15z" transform="matrix(-1 0 0 1 696 288)" id="path1590"/></g><g id="g1600"><path class="st9" d="M464-175l-14 7v15l30 15 14-7v-15z" transform="matrix(-1 0 0 1 696 288)" id="path1594"/><path class="st5" d="M450-168v15l30 15v-15z" transform="matrix(-1 0 0 1 696 288)" id="path1596"/><path class="st7" d="M494-160v15l-14 7v-15z" transform="matrix(-1 0 0 1 696 288)" id="path1598"/></g><g id="g1608"><path class="st9" d="M448-167l-14 7v15l30 15 14-7v-15z" transform="matrix(-1 0 0 1 696 288)" id="path1602"/><path class="st5" d="M434-160v15l30 15v-15z" transform="matrix(-1 0 0 1 696 288)" id="path1604"/><path class="st7" d="M478-152v15l-14 7v-15z" transform="matrix(-1 0 0 1 696 288)" id="path1606"/></g><g id="g1618"><path class="st8" d="M432-159l-14 7v15l30 15 14-7v-15z" transform="matrix(-1 0 0 1 696 288)" id="path1610"/><path class="st5" d="M418-152v15l30 15v-15z" transform="matrix(-1 0 0 1 696 288)" id="path1612"/><path class="st7" d="M462-144v15l-14 7v-15z" transform="matrix(-1 0 0 1 696 288)" id="path1614"/><path class="st1" d="M421-148.5l-1-.5v11l1 .5zm2 1l-1-.5v11l1 .5zm2 1l-1-.5v11l1 .5zm2 1l-1-.5v11l1 .5zm2 1l-1-.5v11l1 .5zm2 1l-1-.5v11l1 .5zm2 1l-1-.5v11l1 .5zm2 1l-1-.5v11l1 .5zm2 1l-1-.5v11l1 .5zm2 1l-1-.5v11l1 .5zm2 1l-1-.5v11l1 .5zm2 1l-1-.5v11l1 .5zm2 1l-1-.5v11l1 .5zm2 1l-1-.5v11l1 .5z" transform="matrix(-1 0 0 1 696 288)" id="path1616"/></g><g id="g1626"><path class="st8" d="M544-183l-14 7v15l30 15 14-7v-15z" transform="matrix(-1 0 0 1 696 288)" id="path1620"/><path class="st5" d="M530-176v15l30 15v-15z" transform="matrix(-1 0 0 1 696 288)" id="path1622"/><path class="st7" d="M574-168v15l-14 7v-15z" transform="matrix(-1 0 0 1 696 288)" id="path1624"/></g><g id="g1634"><path class="st9" d="M528-175l-14 7v15l30 15 14-7v-15z" transform="matrix(-1 0 0 1 696 288)" id="path1628"/><path class="st5" d="M514-168v15l30 15v-15z" transform="matrix(-1 0 0 1 696 288)" id="path1630"/><path class="st7" d="M558-160v15l-14 7v-15z" transform="matrix(-1 0 0 1 696 288)" id="path1632"/></g><g id="g1642"><path class="st8" d="M512-167l-14 7v15l30 15 14-7v-15z" transform="matrix(-1 0 0 1 696 288)" id="path1636"/><path class="st5" d="M498-160v15l30 15v-15z" transform="matrix(-1 0 0 1 696 288)" id="path1638"/><path class="st7" d="M542-152v15l-14 7v-15z" transform="matrix(-1 0 0 1 696 288)" id="path1640"/></g><g id="g1650"><path class="st10" d="M496-159l-14 7v15l30 15 14-7v-15z" transform="matrix(-1 0 0 1 696 288)" id="path1644"/><path class="st5" d="M482-152v15l30 15v-15z" transform="matrix(-1 0 0 1 696 288)" id="path1646"/><path class="st7" d="M526-144v15l-14 7v-15z" transform="matrix(-1 0 0 1 696 288)" id="path1648"/></g><g id="g1658"><path class="st9" d="M480-151l-14 7v15l30 15 14-7v-15z" transform="matrix(-1 0 0 1 696 288)" id="path1652"/><path class="st5" d="M466-144v15l30 15v-15z" transform="matrix(-1 0 0 1 696 288)" id="path1654"/><path class="st7" d="M510-136v15l-14 7v-15z" transform="matrix(-1 0 0 1 696 288)" id="path1656"/></g><g id="g1668"><path class="st9" d="M576-167l-14 7v15l30 15 14-7v-15z" transform="matrix(-1 0 0 1 696 288)" id="path1660"/><path class="st5" d="M562-160v15l30 15v-15z" transform="matrix(-1 0 0 1 696 288)" id="path1662"/><path class="st7" d="M606-152v15l-14 7v-15z" transform="matrix(-1 0 0 1 696 288)" id="path1664"/><path class="st1" d="M604-138l-4 2v-11l4-2zm-6 3l-4 2v-11l4-2z" transform="matrix(-1 0 0 1 696 288)" id="path1666"/></g><g id="g1678"><path class="st10" d="M560-159l-14 7v15l30 15 14-7v-15z" transform="matrix(-1 0 0 1 696 288)" id="path1670"/><path class="st5" d="M546-152v15l30 15v-15z" transform="matrix(-1 0 0 1 696 288)" id="path1672"/><path class="st7" d="M590-144v15l-14 7v-15z" transform="matrix(-1 0 0 1 696 288)" id="path1674"/><path class="st1" d="M588-130l-4 2v-11l4-2zm-6 3l-4 2v-11l4-2z" transform="matrix(-1 0 0 1 696 288)" id="path1676"/></g><g id="g1688"><path class="st9" d="M544-151l-14 7v15l30 15 14-7v-15z" transform="matrix(-1 0 0 1 696 288)" id="path1680"/><path class="st5" d="M530-144v15l30 15v-15z" transform="matrix(-1 0 0 1 696 288)" id="path1682"/><path class="st7" d="M574-136v15l-14 7v-15z" transform="matrix(-1 0 0 1 696 288)" id="path1684"/><path class="st1" d="M572-122l-4 2v-11l4-2zm-6 3l-4 2v-11l4-2z" transform="matrix(-1 0 0 1 696 288)" id="path1686"/></g><g id="g1698"><path class="st8" d="M528-143l-14 7v15l30 15 14-7v-15z" transform="matrix(-1 0 0 1 696 288)" id="path1690"/><path class="st5" d="M514-136v15l30 15v-15z" transform="matrix(-1 0 0 1 696 288)" id="path1692"/><path class="st7" d="M558-128v15l-14 7v-15z" transform="matrix(-1 0 0 1 696 288)" id="path1694"/><path class="st1" d="M556-114l-4 2v-11l4-2zm-6 3l-4 2v-11l4-2z" transform="matrix(-1 0 0 1 696 288)" id="path1696"/></g><g id="g1708"><path class="st10" d="M512-135l-14 7v15l30 15 14-7v-15z" transform="matrix(-1 0 0 1 696 288)" id="path1700"/><path class="st5" d="M498-128v15l30 15v-15z" transform="matrix(-1 0 0 1 696 288)" id="path1702"/><path class="st7" d="M542-120v15l-14 7v-15z" transform="matrix(-1 0 0 1 696 288)" id="path1704"/><path class="st1" d="M540-106l-4 2v-11l4-2zm-6 3l-4 2v-11l4-2z" transform="matrix(-1 0 0 1 696 288)" id="path1706"/></g><g id="g1718"><path class="st10" d="M464-143l-14 7v15l30 15 14-7v-15z" transform="matrix(-1 0 0 1 696 288)" id="path1710"/><path class="st5" d="M450-136v15l30 15v-15z" transform="matrix(-1 0 0 1 696 288)" id="path1712"/><path class="st7" d="M494-128v15l-14 7v-15z" transform="matrix(-1 0 0 1 696 288)" id="path1714"/><path class="st1" d="M492-114l-4 2v-11l4-2zm-6 3l-4 2v-11l4-2zm-33-21.5l-1-.5v11l1 .5zm2 1l-1-.5v11l1 .5zm2 1l-1-.5v11l1 .5zm2 1l-1-.5v11l1 .5zm2 1l-1-.5v11l1 .5zm2 1l-1-.5v11l1 .5zm2 1l-1-.5v11l1 .5zm2 1l-1-.5v11l1 .5zm2 1l-1-.5v11l1 .5zm2 1l-1-.5v11l1 .5zm2 1l-1-.5v11l1 .5zm2 1l-1-.5v11l1 .5zm2 1l-1-.5v11l1 .5zm2 1l-1-.5v11l1 .5z" transform="matrix(-1 0 0 1 696 288)" id="path1716"/></g><g id="g1728"><path class="st9" d="M496-127l-14 7v15l30 15 14-7v-15z" transform="matrix(-1 0 0 1 696 288)" id="path1720"/><path class="st5" d="M482-120v15l30 15v-15z" transform="matrix(-1 0 0 1 696 288)" id="path1722"/><path class="st7" d="M526-112v15l-14 7v-15z" transform="matrix(-1 0 0 1 696 288)" id="path1724"/><path class="st1" d="M524-98l-4 2v-11l4-2zm-6 3l-4 2v-11l4-2zm-33-21.5l-1-.5v11l1 .5zm2 1l-1-.5v11l1 .5zm2 1l-1-.5v11l1 .5zm2 1l-1-.5v11l1 .5zm2 1l-1-.5v11l1 .5zm2 1l-1-.5v11l1 .5zm2 1l-1-.5v11l1 .5zm2 1l-1-.5v11l1 .5zm2 1l-1-.5v11l1 .5zm2 1l-1-.5v11l1 .5zm2 1l-1-.5v11l1 .5zm2 1l-1-.5v11l1 .5zm2 1l-1-.5v11l1 .5zm2 1l-1-.5v11l1 .5z" transform="matrix(-1 0 0 1 696 288)" id="path1726"/></g></g></g><g id="g1762"><path class="st2" d="M632-132l-96 48v4l16 8v48l24 12 64-32v-56l16-16v-4z" transform="matrix(-1 0 0 1 696 288)" id="path1734"/><path class="st3" d="M632-130l20 10-92 46-20-10z" transform="matrix(-1 0 0 1 696 288)" id="path1736"/><path class="st5" d="M651-119.5l1-.5-20-10v1z" transform="matrix(-1 0 0 1 696 288)" id="path1738"/><path class="st7" d="M632-130l-92 46 1 .5 91-45.5z" transform="matrix(-1 0 0 1 696 288)" id="path1740"/><path class="st2" d="M600-128l-32 16v12l16 8 32-16v-12z" transform="matrix(-1 0 0 1 696 288)" id="path1742"/><path class="st5" d="M584-92l-16-8v-12l16 8z" transform="matrix(-1 0 0 1 696 288)" id="path1744"/><path class="st3" d="M600-126l12 6-28 14-12-6z" transform="matrix(-1 0 0 1 696 288)" id="path1746"/><path d="M566-62v6l4 2v-6l-4-2zm-8 2l4 2v-6l-4-2v6zm8 16l4 2v-6l-4-2v6zm-8-4l4 2v-6l-4-2v6z" fill="#2d3134" transform="matrix(-1 0 0 1 696 288)" id="path1748"/><path class="st7" d="M560-72v4h16v56l64-32v-56l16-16v-4zm56-36l-32 16v-12l32-16z" transform="matrix(-1 0 0 1 696 288)" id="path1750"/><path class="st5" d="M560-68l-24-12v-4l24 12z" transform="matrix(-1 0 0 1 696 288)" id="path1752"/><path class="st5" d="M552-72v48l24 12v-56h-16zm59-47.5l1-.5-12-6v1z" transform="matrix(-1 0 0 1 696 288)" id="path1754"/><path class="st7" d="M600-126l-28 14 1 .5 27-13.5z" transform="matrix(-1 0 0 1 696 288)" id="path1756"/><path class="st2" d="M592-136c-.1 0-.3.1-.3.1l-.8 21.2c0 .3.4.5 1 .5s1-.2 1-.5l-.8-21.2c.2 0 0-.1-.1-.1z" transform="matrix(-1 0 0 1 696 288)" id="path1758"/><path class="st2" d="M596.8-129.3l-9.1 4.6c-.3.1-.6-.1-.6-.4 0-.2.1-.3.2-.4l9.1-4.6c.3-.1.6.1.6.4 0 .1-.1.3-.2.4zm-.9-4.6l-7.4 3.7c-.2.1-.5-.1-.5-.3 0-.1.1-.3.2-.3l7.4-3.7c.2-.1.5.1.5.3 0 .1-.1.2-.2.3z" transform="matrix(-1 0 0 1 696 288)" id="path1760"/></g><g id="g1776"><path class="st12" d="M621-90l-24 12v56l24 12 24-12-8-60z" transform="matrix(-1 0 0 1 696 288)" id="path1764"/><path class="st2" d="M618.3-30.4l24-11.9-3.4-25.6L615-56l-18-9v24z" transform="matrix(-1 0 0 1 696 288)" id="path1766"/><path class="st7" d="M645-22l-24 12-8-60 24-12z" transform="matrix(-1 0 0 1 696 288)" id="path1768"/><path class="st5" d="M621-10l-24-12v-56l16 8z" transform="matrix(-1 0 0 1 696 288)" id="path1770"/><path class="st7" d="M601-78l12 6 8-4v-12z" transform="matrix(-1 0 0 1 696 288)" id="path1772"/><path class="st5" d="M621-88v12l12-6z" transform="matrix(-1 0 0 1 696 288)" id="path1774"/></g><g id="g1784"><path class="st2" d="M694-45L598 3v12l2 1 96-48v-12z" transform="matrix(-1 0 0 1 696 288)" id="path1778"/><path class="st5" d="M600 16l-2-1V3l2 1z" transform="matrix(-1 0 0 1 696 288)" id="path1780"/><path class="st7" d="M696-32l-96 48V4l96-48z" transform="matrix(-1 0 0 1 696 288)" id="path1782"/></g><path class="st12" d="M600 16l-80-40h-8L192-184l-8-8v-5l-8-4-7.9-4c-12.7-7.2-22.2-14.8-24-23-.1-.1-.1 4.8-.1 4.6 1.5 14.3 9.5 31.6 27 46.4 4.9 4.2 12.1 8.6 13 9L600 40l96-48v-24l-96 48z" transform="matrix(-1 0 0 1 696 288)" id="path1786"/><path class="st7" d="M600 40l96-48v-24l-96 48z" transform="matrix(-1 0 0 1 696 288)" id="path1788"/><path class="st5" d="M520-24h-8L192-184l-8-8v-5l-8-4-7.9-4c-12.7-7.2-22.2-14.8-24-23-.1-.1-.1 4.8-.1 4.6 1.5 14.3 9.5 31.6 27 46.4 4.9 4.2 12.1 8.6 13 9L600 40V16l-80-40z" transform="matrix(-1 0 0 1 696 288)" id="path1790"/></g><g id="i1480_1_"><path d="M-1277.8-2855l41.2 20.4c1.6.8 1.6 3 0 3.8l-4.7 2.4c-1.2.6-2.5 1.1-3.7 1.6l-34.3 10.1c-5.2 1.5-10.1 4.1-14.4 7.5l-34.3 27.4c-1.2 1-2.6 1.8-4 2.6-2.6 1.3-5.5 2.1-8.5 2.3l-44 .3c-7.4.2-14.3 3.9-18.6 10l-3.6 5.1c-2.2 3.2-5.3 5.8-8.8 7.6-1.8.9-4 .7-5.6-.4-1.7-1.2-2.5-3.2-2.3-5.2l2.5-18.2c.3-2.2 1.9-4 4-4.6l10.1-2.8 13.1-4.2 40.7-29.9 75.2-35.8z" opacity=".2" fill="#202426" transform="matrix(.1 0 0 .1 168 528)" id="path1793"/><path class="st14" d="M-1417.5-2753.8c2-.1 4.3-4.9 6-8.3 1.7-3.4 4.5-5.6 7.2-8.1s11.1-7.8 11.1-7.8 4.9-.6 8.1-.6c3.2 0 12.2 1.1 21.5 1.8s21.2-.1 24.6-1.1 21.6-12.1 28.8-18.7c7.2-6.6 12.3-14.7 14.9-17 2.5-2.3 8.6-5.2 12.3-6.5 3.7-1.3 13.6-2.3 18.9-3.8 5.4-1.5 17-3.3 21.5-4 4.5-.7 5.8-3.5 6.2-6s-2.9-4.6-4.4-5.3c-1.4-.7-13.2-4.1-16.3-4.9-3.1-.8-6.4-2.8-6.4-2.8-2-1.5-8.6-5.4-9.9-3.4-1.3 2 3.3 6.4 5 7.2 1.6.8 5 2.9 6.2 3.3 1.2.4 8.8 4 8.8 4s-5.3-.4-11.2-.3c-5.9.1-7.5-2.7-9.5-3.8-2-1.1-7.6-7.1-10.6-9.4s-6.9-5.3-6.9-5.3l-3.1 4.4s-8.3 7.7-9.8 8.7-8.8 8.1-9.6 8.7c-.8.6-4.4.9-10 2.2-5.6 1.3-8.9 2-18.9 6.5s-18.7 13.2-22.5 15.1-11 5-16.5 8.5-13.5 12.5-13.5 12.5-2.1-1-4.9-.9c-2.7.1-3.3 2.5-5.3 3.4-1.9.9-9.3 1.9-12.1 2.2-2.8.3-3.4 1.2-4 3.2-.6 2 2.7 4.9 4 5 1.3.1 6.4-.9 6.4-.9s-4.6 1.8-6.6 2.9c-2 1.1-.8 2.6-1 3.4s-1.9 2.6-3 5.8c-1.1 3.3 2.4 10.2 4.5 10.1zm38.8-33.3s5.9-2.7 8.3-4.7c2.4-1.9 5.5-5.7 7.5-6.7s11.9-2 18.8-4.7c6.9-2.6 13.6-6.5 13.6-6.5l2.1 1.6s-6.8 7.9-9.6 11c-2.8 3.1-7.5 9.3-7.5 9.3s-5.8-2.3-12.2-2c-6.5.4-21 2.7-21 2.7z" transform="matrix(.1 0 0 .1 168 528)" id="path1795"/><path class="st14" d="M-1256.2-2863.4c3.6 2.1 3.8 7.2 2 10.1-1.8 2.9-4.9 6.3-7 7.3-2.1 1-6.8 1.2-8.1 2-3 1.9-3.3 5.7-3.3 5.7s-5.5-4-7.2-5.3c-1.7-1.2-4.8-5.4-4.8-5.4s4.5.6 7.1-1.1c2.6-1.7 3.1-6.1 5.3-8.5 2-2.2 7.7-9.5 16-4.8z" transform="matrix(.1 0 0 .1 168 528)" id="path1797"/><path class="st15" d="M-1297.4-2811.6l-1.4 2.6s-9.6-1.3-14.4-1.4c-4.8-.1-12.9.8-13.9 1.4s-1.3 1-1.3 1l-2.1-1.6s2.1-4.5 3-7.3c.9-2.8 1-13.5 1-13.5l3.4-1.1s1.7 7.5 6 10.8c4.3 3.4 19.7 9.1 19.7 9.1z" transform="matrix(.1 0 0 .1 168 528)" id="path1799"/><path class="st14" d="M-1291.7-2854.6c-3-2.1-7.9-.9-11.4 2.2s-12.1 11.2-14 11.8c-1.8.6-9.1 4.8-10.6 5.2-1.5.4-5.4 2.7-7.5 5.3-2.1 2.5-5.7 6.5-4.3 8.1s3.7 1.6 4.6.3c.8-1.3 5.8-4.8 5.8-4.8s-1.4 2.5-1.7 3.3c-.3.8-.2 2.7.4 2.7.6 0 2.5-3.8 3-4s1.5-2.2 1.7-3.3c.2-1.1.8-3.1.8-3.1s5.7-3.2 9-4c3.3-.8 7.8-3.2 8.8-4.3 1-1 11.9-10.3 11.9-10.3s6.5-3 3.5-5.1z" transform="matrix(.1 0 0 .1 168 528)" id="path1801"/><path class="st15" d="M-1273-2839.5s-8.7-.8-11.5 0-6.4 2.4-6.4 2.4l-3.1-2.6s2.4-5 3.8-6.5 3.7-4.8 3.7-4.8l-.8-.4s-3.2 1.2-5.3 1.7c-2 .5-5.9.1-9 2.3-3.1 2.2-2.5 4.7-2.5 4.7s-.3 1.9 3.5 3.2c3.8 1.3 5.6 1.5 6.7 2.3s1.8 5.9 3.6 8.5c3.4 4.8 7.7 8.6 7.7 8.6l2.7-1s-1.9-2.6-1.2-6.3c1.4-7.4 9-11.6 9-11.6l-.9-.5z" transform="matrix(.1 0 0 .1 168 528)" id="path1803"/><path d="M-1258.5-2859.5c2.5 1.1 4.1 4.5 2.1 7.6-2 3.1-8.1 5.9-10.4 6.6-2.3.7-5.9.1-6.9 2.7-.9 2.6-.8 5.4 1.2 6.5 2 1.1 3.8.4 6.7-1.3 1.4-.9 10.1-7.6 11.9-13.8 1.8-6.2 1-9.8-1.6-12.4-2.8-2.9-8.1-4.6-12.7-3.5-4.6 1.1-10.1 4.5-12.7 7.2-3.2 3.3-6.8 7.6-10.9 8.5-8.8 1.9-5.4 7.5 4.2 6.4 2.2-.2 5.2-2.9 7.6-3.1 2.7-.3 4.7-2 5.7-4.3.9-2.3 3.1-3.2 8-4.7 4.1-1.4 5.5-3.4 7.8-2.4z" fill="#762c07" transform="matrix(.1 0 0 .1 168 528)" id="path1805"/></g></svg>