<svg xmlns="http://www.w3.org/2000/svg" width="144.5" height="104"><style>.st0{fill:#9c3}.st1{fill:#baa794}.st2{opacity:.15;enable-background:new}.st3{fill:#999}.st5{fill:#cc291f}.st6{fill:#39c}.st7,.st8{opacity:.2;fill:#fff;enable-background:new}.st8{opacity:.7}.st9{fill:#fc0}.st10,.st11{opacity:.39;enable-background:new}.st11{opacity:6.000000e-02}.st13{fill:#656565}</style><g id="i1979_1_"><path class="st0" d="M-679.5-672l32 16-5.9 3-32-16zm-26.1 13l32 16-5.9 3-32-16z" transform="translate(792 744)"/><path class="st1" d="M-653.4-653l-20.2 10-32-16 20.2-10z" transform="translate(792 744)"/><path class="st0" d="M-679.5-672l32 16-5.9 3-32-16zm-26.1 13l32 16-5.9 3-32-16z" transform="translate(792 744)"/><path class="st1" d="M-653.4-653l-20.2 10-32-16 20.2-10z" transform="translate(792 744)"/><path class="st2" d="M-653.4-653l-20.2 10-32-16 20.2-10z" transform="translate(792 744)"/><path class="st2" d="M-685.4-669l32 16-1.2.5-32-16zm-19 9.5l32 16-1.2.5-32-16z" transform="translate(792 744)"/><path class="st1" d="M-683.5-666l-4-2-6 3 4 2zm18 9l-4 2 8 4-2 1 2 1 6-3zm-12-6l-4-2-6 3 2 1-2 1 2 1zm-10 5l-4-2 2-1-2-1-8 4 6 3z" transform="translate(792 744)"/><path class="st1" d="M-669.5-653l-4-2 6-3-2-1-12 6 6 3zm6 5l-4-2 2-1-2-1-10 5 6 3zm-30-15l-2-1-8 4 2 1zm8 10l8 4-2 1-8-4zm2-1l4-2-4-2-8 4 2 1 4-2zm2-5l6-3 4 2-6 3z" transform="translate(792 744)"/></g><g id="i1974_1_"><path class="st3" d="M776-576l-64-32 64-32 64 32z" transform="matrix(-1 0 0 1 840 672)"/><path fill="#e5e5e5" d="M776-672l-64 32v6l2 1v24l62 31 62-31v-24l2-1v-6z" transform="matrix(-1 0 0 1 840 672)"/><path class="st2" d="M776-601.3l-62-30.9v-.8l62 31z" transform="matrix(-1 0 0 1 840 672)"/><path class="st5" d="M776-602l-64-32v-6l64 32z" transform="matrix(-1 0 0 1 840 672)"/><path class="st6" d="M734-604.5l-17-8.5v-13l17 8.5z" transform="matrix(-1 0 0 1 840 672)"/><path class="st2" d="M734-614.5l-17-8.5v-3l17 8.5z" transform="matrix(-1 0 0 1 840 672)"/><path class="st2" d="M734-615.5l-17-8.5v-2l17 8.5z" transform="matrix(-1 0 0 1 840 672)"/><path class="st2" d="M734-616.5l-17-8.5v-1l17 8.5z" transform="matrix(-1 0 0 1 840 672)"/><path class="st6" d="M753-589.5l-15-7.5v-18.5l15 7.5z" transform="matrix(-1 0 0 1 840 672)"/><path class="st2" d="M753-589.5l-15-26 15 7.5z" transform="matrix(-1 0 0 1 840 672)"/><path class="st7" d="M753-589.5l-15-7.5v-5.7z" transform="matrix(-1 0 0 1 840 672)"/><path class="st2" d="M753-605l-15-7.5v-3l15 7.5z" transform="matrix(-1 0 0 1 840 672)"/><path class="st2" d="M753-606l-15-7.5v-2l15 7.5z" transform="matrix(-1 0 0 1 840 672)"/><path class="st2" d="M753-607l-15-7.5v-1l15 7.5z" transform="matrix(-1 0 0 1 840 672)"/><path class="st8" d="M726-608.5l-1-.5v-13l1 .5z" transform="matrix(-1 0 0 1 840 672)"/><path class="st6" d="M774-584.5l-17-8.5v-13l17 8.5z" transform="matrix(-1 0 0 1 840 672)"/><path class="st2" d="M774-594.5l-17-8.5v-3l17 8.5z" transform="matrix(-1 0 0 1 840 672)"/><path class="st2" d="M774-595.5l-17-8.5v-2l17 8.5z" transform="matrix(-1 0 0 1 840 672)"/><path class="st2" d="M774-596.5l-17-8.5v-1l17 8.5z" transform="matrix(-1 0 0 1 840 672)"/><path class="st8" d="M766-588.5l-1-.5v-13l1 .5zm-20-4.5l-1-.5V-612l1 .5z" transform="matrix(-1 0 0 1 840 672)"/><path class="st5" d="M735-624v25.5l2 1V-617l17 8.5v19.5l2 1v-25.5z" transform="matrix(-1 0 0 1 840 672)"/><path class="st9" d="M738-617.5l-1-.5v-4l1 .5zm2 1l-1-.5v-4l1 .5zm2 1l-1-.5v-4l1 .5zm2 1l-1-.5v-4l1 .5zm2 1l-1-.5v-4l1 .5zm2 1l-1-.5v-4l1 .5zm2 1l-1-.5v-4l1 .5z" transform="matrix(-1 0 0 1 840 672)"/><path class="st7" d="M734-604.5l-17-8.5v-7z" transform="matrix(-1 0 0 1 840 672)"/><path class="st9" d="M752-610.5l-1-.5v-4l1 .5z" transform="matrix(-1 0 0 1 840 672)"/><path class="st7" d="M774-584.5l-17-8.5v-6.7z" transform="matrix(-1 0 0 1 840 672)"/><path class="st9" d="M754-609.5l-1-.5v-4l1 .5z" transform="matrix(-1 0 0 1 840 672)"/><path class="st10" d="M776-578l-62-31v-24l-2-1v-6l64 32z" transform="matrix(-1 0 0 1 840 672)"/><path class="st2" d="M838-632.2l-62 30.9v-.7l62-31z" transform="matrix(-1 0 0 1 840 672)"/><path class="st5" d="M840-634l-64 32v-6l64-32z" transform="matrix(-1 0 0 1 840 672)"/><path class="st6" d="M795-593l-17 8.5v-13l17-8.5z" transform="matrix(-1 0 0 1 840 672)"/><path class="st2" d="M795-603l-17 8.5v-3l17-8.5z" transform="matrix(-1 0 0 1 840 672)"/><path class="st2" d="M795-604l-17 8.5v-2l17-8.5z" transform="matrix(-1 0 0 1 840 672)"/><path class="st2" d="M795-605l-17 8.5v-1l17-8.5z" transform="matrix(-1 0 0 1 840 672)"/><path class="st8" d="M787-589l-1 .5v-13l1-.5z" transform="matrix(-1 0 0 1 840 672)"/><path class="st6" d="M835-613l-17 8.5v-13l17-8.5z" transform="matrix(-1 0 0 1 840 672)"/><path class="st2" d="M835-623l-17 8.5v-3l17-8.5z" transform="matrix(-1 0 0 1 840 672)"/><path class="st2" d="M835-613.3l-17-4.2 17-8.5z" transform="matrix(-1 0 0 1 840 672)"/><path class="st2" d="M835-624l-17 8.5v-2l17-8.5z" transform="matrix(-1 0 0 1 840 672)"/><path class="st2" d="M835-625l-17 8.5v-1l17-8.5z" transform="matrix(-1 0 0 1 840 672)"/><path class="st8" d="M827-609l-1 .5v-13l1-.5z" transform="matrix(-1 0 0 1 840 672)"/><path class="st6" d="M815-603l-17 8.5v-13l17-8.5z" transform="matrix(-1 0 0 1 840 672)"/><path class="st2" d="M795-600.2l-17 2.7 17-8.5zm20-7l-17-.3 17-8.5z" transform="matrix(-1 0 0 1 840 672)"/><path class="st2" d="M815-613l-17 8.5v-3l17-8.5z" transform="matrix(-1 0 0 1 840 672)"/><path class="st2" d="M815-614l-17 8.5v-2l17-8.5z" transform="matrix(-1 0 0 1 840 672)"/><path class="st2" d="M815-615l-17 8.5v-1l17-8.5z" transform="matrix(-1 0 0 1 840 672)"/><path class="st8" d="M807-599l-1 .5v-13l1-.5z" transform="matrix(-1 0 0 1 840 672)"/><path class="st11" d="M838-609l-62 31v-30l64-32v6l-2 1z" transform="matrix(-1 0 0 1 840 672)"/><path opacity=".4" d="M720.9-640l55.1-27.5 55.1 27.5-55.1 27.5z" transform="matrix(-1 0 0 1 840 672)"/><path class="st11" d="M776-665.5v-2L720.9-640l2 1z" transform="matrix(-1 0 0 1 840 672)"/><path class="st10" d="M776-665.5l53.1 26.5 2-1-55.1-27.5z" transform="matrix(-1 0 0 1 840 672)"/><path class="st3" d="M778-663l-24 12v2l12 6 24-12v-2z" transform="matrix(-1 0 0 1 840 672)"/><path class="st11" d="M790-655l-24 12v-2l24-12z" transform="matrix(-1 0 0 1 840 672)"/><path class="st10" d="M754-649l12 6v-2l-12-6z" transform="matrix(-1 0 0 1 840 672)"/><path class="st13" d="M777-659c-2.8 0-5 1.1-5 2.5s2.2 2.5 5 2.5 5-1.1 5-2.5-2.2-2.5-5-2.5zm0 4c-1.7 0-3-.7-3-1.5s1.3-1.5 3-1.5 3 .7 3 1.5-1.3 1.5-3 1.5zm-10 1c-2.8 0-5 1.1-5 2.5s2.2 2.5 5 2.5 5-1.1 5-2.5-2.2-2.5-5-2.5zm0 4c-1.7 0-3-.7-3-1.5s1.3-1.5 3-1.5 3 .7 3 1.5-1.3 1.5-3 1.5z" transform="matrix(-1 0 0 1 840 672)"/><path class="st3" d="M796-654l-24 12v2l12 6 24-12v-2z" transform="matrix(-1 0 0 1 840 672)"/><path class="st11" d="M808-646l-24 12v-2l24-12z" transform="matrix(-1 0 0 1 840 672)"/><path class="st10" d="M772-640l12 6v-2l-12-6z" transform="matrix(-1 0 0 1 840 672)"/><path class="st13" d="M795-650c-2.8 0-5 1.1-5 2.5s2.2 2.5 5 2.5 5-1.1 5-2.5-2.2-2.5-5-2.5zm0 4c-1.7 0-3-.7-3-1.5s1.3-1.5 3-1.5 3 .7 3 1.5-1.3 1.5-3 1.5zm-10 1c-2.8 0-5 1.1-5 2.5s2.2 2.5 5 2.5 5-1.1 5-2.5-2.2-2.5-5-2.5zm0 4c-1.7 0-3-.7-3-1.5s1.3-1.5 3-1.5 3 .7 3 1.5-1.3 1.5-3 1.5z" transform="matrix(-1 0 0 1 840 672)"/></g></svg>