<svg xmlns="http://www.w3.org/2000/svg" xmlns:xlink="http://www.w3.org/1999/xlink" width="109.8" height="256.9"><style>.st1{enable-background:new}.st2{fill:#6a7072}.st3{fill:#aaa}.st4{fill:#5b5f60}.st5{fill:#87b5c4}.st9{fill:#d6d6d6}.st11{fill:#767676}.st12{fill:#e3e5e5}.st13{opacity:.34;fill:#fff;enable-background:new}.st17{fill:#626262}.st18{fill:#91c7d8}.st20{fill:#adadad}.st21{fill:#c65c06}.st23{fill:#38260e}.st25{fill:#ffc050}.st27{fill:#ffac33}.st29{fill:#b26202}.st30{fill:#938548}.st31{fill:#4c4114}.st32{fill:#285b2e}.st33{fill:#487548}</style><g transform="translate(1272 671.78) scale(1.41558)" id="i1226_1_"><g id="XMLID_17_"><path id="XMLID_766_" d="M-854.9-293.1l33.9-20.2-27.4-12.5-17.1 32.7h10.6z" opacity=".25" fill="#231f20"/><g id="XMLID_758_"><g id="XMLID_759_" class="st1"><g id="XMLID_764_"><path id="XMLID_765_" class="st2" d="M-833.4-424.6l-1 113.3-31 18.2.8-113.4 31.2-18.1z"/></g><g id="XMLID_762_"><path id="XMLID_763_" class="st3" d="M-864.6-406.5l-.8 113.4-31.6-18.2 1-113.3 31.4 18.1z"/></g><g id="XMLID_760_"><path id="XMLID_761_" class="st4" d="M-833.4-424.6l-31.2 18.1-31.4-18.1 31.4-18.6 31.2 18.6z"/></g></g></g><g id="XMLID_756_"><path id="XMLID_757_" class="st5" d="M-886.5-305.2l-.8-.5v-105.7h.8v106.2z"/></g><g id="XMLID_754_"><path id="XMLID_755_" class="st5" d="M-896.6-311.1l-.4-.2.9-105.4h.4l-.9 105.6z"/></g><g id="XMLID_752_"><path id="XMLID_753_" class="st5" d="M-875.1-298.7l-.8-.4v-105.8h.8v106.2z"/></g><g id="XMLID_750_"><path id="XMLID_751_" class="st5" d="M-864.9-293.4l-.5.3-.3-.2.6-105.4h.8l-.6 105.3z"/></g><g id="XMLID_748_"><path id="XMLID_749_" class="st5" d="M-853.1-300.3l-.8.4v-105.4h.8v105z"/></g><g id="XMLID_746_"><path id="XMLID_747_" class="st5" d="M-842.6-306.4l-.8.4v-105.7h.8v105.3z"/></g><g id="XMLID_744_"><path id="XMLID_745_" class="st5" d="M-834.3-311.3l-.4.2.9-105.9h.4l-.9 105.7z"/></g><g id="XMLID_736_"><g id="XMLID_737_" class="st1"><g id="XMLID_742_"><path id="XMLID_743_" d="M-839.2-440v15.2l-25.7 14.7.1-15.3 25.6-14.6z" fill="#5f8f9b"/></g><g id="XMLID_740_"><path id="XMLID_741_" d="M-864.8-425.4l-.1 15.3-25-14.9.1-15.3 25 14.9z" fill="#8eb3c1"/></g><g id="XMLID_738_"><path id="XMLID_739_" d="M-839.2-440l-25.6 14.6-25-14.9 26.5-7.1 24.1 7.4z" fill="#9d9d9d"/></g></g></g><g id="XMLID_728_"><g id="XMLID_729_" class="st1"><g id="XMLID_734_"><path id="XMLID_735_" class="st2" d="M-832.5-454.3v17.9l-31.3 18.1.1-17.8 31.2-18.2z"/></g><g id="XMLID_732_"><path id="XMLID_733_" class="st3" d="M-863.7-436.1l-.1 17.8-31.4-18.1.1-17.9 31.4 18.2z"/></g><g id="XMLID_730_"><path id="XMLID_731_" class="st9" d="M-832.5-454.3l-31.2 18.2-31.4-18.2 31.2-18.1 31.4 18.1z"/></g></g></g><g id="XMLID_720_"><g id="XMLID_721_" class="st1"><g id="XMLID_726_"><path id="XMLID_727_" class="st2" d="M-832.5-454.3v17.9l-31.3 18.1.1-17.8 31.2-18.2z"/></g><g id="XMLID_724_"><path id="XMLID_725_" class="st3" d="M-863.7-436.1l-.1 17.8-31.4-18.1.1-17.9 31.4 18.2z"/></g><g id="XMLID_722_"><path id="XMLID_723_" class="st9" d="M-832.5-454.3l-31.2 18.2-31.4-18.2 31.2-18.1 31.4 18.1z"/></g></g></g><g id="XMLID_712_"><g id="XMLID_713_" class="st1"><g id="XMLID_718_"><path id="XMLID_719_" class="st4" d="M-837.4-458.9l2.7 4.6-29.3 17 .1-6.2 26.5-15.4z"/></g><g id="XMLID_716_"><path id="XMLID_717_" d="M-863.9-443.5l-.1 6.2-29.4-17 2.7-4.6 26.8 15.4z" fill="#858a8c"/></g><g id="XMLID_714_"><path id="XMLID_715_" class="st9" d="M-837.4-458.9l-26.5 15.4-26.8-15.4 26.6-15.7 26.7 15.7z"/></g></g></g><g id="XMLID_698_"><g id="XMLID_707_" class="st1"><g id="XMLID_710_"><path id="XMLID_711_" class="st11" d="M-832.5-338.3l-.7-.3-32.8 18.9.8.3 32.7-18.9z"/></g><g id="XMLID_708_"><path id="XMLID_709_" class="st5" d="M-865.4-319.3v.6l32.9-18.9v-.7l-32.9 19z"/></g></g><g id="XMLID_702_" class="st1"><g id="XMLID_705_"><path id="XMLID_706_" class="st11" d="M-832.5-329.5l-.7-.3-32.9 18.9.8.3 32.8-18.9z"/></g><g id="XMLID_703_"><path id="XMLID_704_" class="st5" d="M-865.5-310.5l.1.7 32.8-18.9.1-.8-33 19z"/></g></g><g id="XMLID_699_" class="st1"><g id="XMLID_700_"><path id="XMLID_701_" class="st5" d="M-865.5-310.5l.1.7 32.8-18.9.1-.8-33 19z"/></g></g></g><g id="XMLID_687_"><g id="XMLID_693_" class="st1"><g id="XMLID_696_"><path id="XMLID_697_" class="st11" d="M-832.3-355.7l-.7-.4-32.9 19 .7.4 32.9-19z"/></g><g id="XMLID_694_"><path id="XMLID_695_" class="st5" d="M-865.2-336.8v.6l32.9-18.9v-.6l-32.9 18.9z"/></g></g><g id="XMLID_688_" class="st1"><g id="XMLID_691_"><path id="XMLID_692_" class="st11" d="M-832.3-347l-.7-.4-33 19 .7.4 33-19z"/></g><g id="XMLID_689_"><path id="XMLID_690_" class="st5" d="M-865.3-328.1v.8l33-19v-.7l-33 18.9z"/></g></g></g><g id="XMLID_676_"><g id="XMLID_682_" class="st1"><g id="XMLID_685_"><path id="XMLID_686_" class="st11" d="M-832.2-373.6l-.6-.4-33 19 .8.3 32.8-18.9z"/></g><g id="XMLID_683_"><path id="XMLID_684_" class="st5" d="M-865-354.7v.7l32.8-19v-.6l-32.8 18.9z"/></g></g><g id="XMLID_677_" class="st1"><g id="XMLID_680_"><path id="XMLID_681_" class="st11" d="M-832.3-364.7l-.6-.4-32.9 18.9.8.4 32.7-18.9z"/></g><g id="XMLID_678_"><path id="XMLID_679_" class="st5" d="M-865-345.8v.6l32.7-18.9v-.6l-32.7 18.9z"/></g></g></g><g id="XMLID_665_"><g id="XMLID_671_" class="st1"><g id="XMLID_674_"><path id="XMLID_675_" class="st11" d="M-832.1-391.4l-.6-.4-32.9 19.4.7.5 32.8-19.5z"/></g><g id="XMLID_672_"><path id="XMLID_673_" class="st5" d="M-864.9-372.1v.6l32.8-19.2v-.7l-32.8 19.3z"/></g></g><g id="XMLID_666_" class="st1"><g id="XMLID_669_"><path id="XMLID_670_" class="st11" d="M-832.2-382.4l-.6-.4-32.8 19 .7.3 32.7-18.9z"/></g><g id="XMLID_667_"><path id="XMLID_668_" class="st5" d="M-865-363.6v.8l32.8-19v-.6l-32.8 18.8z"/></g></g></g><g id="XMLID_654_"><g id="XMLID_660_" class="st1"><g id="XMLID_663_"><path id="XMLID_664_" class="st11" d="M-831.9-409.2l-.6-.4-33.1 19.1.8.3 32.9-19z"/></g><g id="XMLID_661_"><path id="XMLID_662_" class="st5" d="M-864.8-390.2l.1.9 32.8-19.2v-.7l-32.9 19z"/></g></g><g id="XMLID_655_" class="st1"><g id="XMLID_658_"><path id="XMLID_659_" class="st5" d="M-864.9-381.4l.1.8 32.9-19.1v-.7l-33 19z"/></g><g id="XMLID_656_"><path id="XMLID_657_" class="st11" d="M-831.9-400.4l-.7-.4-32.8 18.9.6.5 32.9-19z"/></g></g></g><g id="XMLID_641_"><g id="XMLID_647_" class="st1"><g id="XMLID_652_"><path id="XMLID_653_" class="st11" d="M-865.2-407.8l-.8-.3v.7l.8.3v-.7z"/></g><g id="XMLID_650_"><path id="XMLID_651_" class="st11" d="M-833-425.2l-.8-.3-31.5 18.1.7.4 31.6-18.2z"/></g><g id="XMLID_648_"><path id="XMLID_649_" class="st5" d="M-864.6-407.1v.8l31.6-18.3v-.6l-31.6 18.1z"/></g></g><g id="XMLID_642_" class="st1"><g id="XMLID_645_"><path id="XMLID_646_" class="st11" d="M-831.8-418.1l-.6-.4-32.7 19.1.4.6 32.9-19.3z"/></g><g id="XMLID_643_"><path id="XMLID_644_" class="st5" d="M-865.2-398.6l.5.6 32.9-19.2v-.9l-33.4 19.5z"/></g></g></g><g id="XMLID_630_"><g id="XMLID_636_" class="st1"><g id="XMLID_639_"><path id="XMLID_640_" class="st11" d="M-896.7-425.3l.7-.3 32 18.1-.7.4-32-18.2z"/></g><g id="XMLID_637_"><path id="XMLID_638_" class="st5" d="M-864.6-407.1v.8l-32.1-18.3v-.7l32.1 18.2z"/></g></g><g id="XMLID_631_" class="st1"><g id="XMLID_634_"><path id="XMLID_635_" class="st11" d="M-897.7-417.4l.7-.3 32.8 18.2-.5.6-33-18.5z"/></g><g id="XMLID_632_"><path id="XMLID_633_" class="st5" d="M-864.7-398.9v.9l-33-18.7v-.7l33 18.5z"/></g></g></g><path id="XMLID_629_" class="st11" d="M-834.2-329.2v-1.2l1.3.7-1.3.5z"/><g id="XMLID_627_"><path id="XMLID_628_" class="st11" d="M-832.5-323.3l-.7-.4-32.9 18.9.8.3 32.8-18.8z"/></g><g id="XMLID_624_" class="st1"><g id="XMLID_625_"><path id="XMLID_626_" class="st5" d="M-865.5-304.4l.1.7 32.8-18.9.1-.7-33 18.9z"/></g></g><path id="XMLID_623_" class="st11" d="M-834.2-323.1v-1.2l1.3.7-1.3.5z"/><path id="XMLID_622_" class="st11" d="M-834.1-338v-1.2l1.2.7-1.2.5z"/><path id="XMLID_621_" class="st11" d="M-834.1-346.8l.1-1.2 1.2.8-1.3.4z"/><path id="XMLID_620_" class="st11" d="M-834-355.5v-1.2l1.3.7-1.3.5z"/><path id="XMLID_619_" class="st11" d="M-833.9-364.5v-1.2l1.2.7-1.2.5z"/><path id="XMLID_618_" class="st11" d="M-833.8-373.4v-1.2l1.2.7-1.2.5z"/><path id="XMLID_617_" class="st11" d="M-833.7-382.1v-1.2l1.2.7-1.2.5z"/><path id="XMLID_616_" class="st11" d="M-833.7-391.2l.1-1.2 1.2.8-1.3.4z"/><path id="XMLID_615_" class="st11" d="M-833.6-400.2v-1.2l1.2.8-1.2.4z"/><path id="XMLID_614_" class="st11" d="M-833.5-409v-1.2l1.2.8-1.2.4z"/><path id="XMLID_613_" class="st11" d="M-833.4-417.9v-1.2l1.2.8-1.2.4z"/><path id="XMLID_612_" class="st11" d="M-832.5-437.8v-1.2l1.2.8-1.2.4z"/><path id="XMLID_611_" class="st11" d="M-832.5-446.6v-1.2l1.2.7-1.2.5z"/><path id="XMLID_610_" class="st11" d="M-895.2-446.4v-1.1l-1.2.7 1.2.4z"/><path id="XMLID_609_" class="st11" d="M-895.2-437.5v-1.2l-1.2.7 1.2.5z"/><path id="XMLID_608_" class="st11" d="M-896.1-417.1v-1.1l-1.2.6 1.2.5z"/><path id="XMLID_607_" class="st11" d="M-896.1-408.5v-1.1l-1.3.6 1.3.5z"/><path id="XMLID_606_" class="st11" d="M-896.2-399v-1l-1.3.5 1.3.5z"/><path id="XMLID_605_" class="st11" d="M-896.3-390.6v-1.1l-1.3.6 1.3.5z"/><path id="XMLID_604_" class="st11" d="M-896.4-381.9v-1l-1.2.5 1.2.5z"/><path id="XMLID_603_" class="st11" d="M-896.5-373.2v-1.1l-1.2.6 1.2.5z"/><path id="XMLID_602_" class="st11" d="M-896.5-364.4v-1.1l-1.3.5 1.3.6z"/><path id="XMLID_601_" class="st11" d="M-896.6-355.4v-1l-1.2.5 1.2.5z"/><path id="XMLID_600_" class="st11" d="M-896.7-346.6v-1l-1.2.5 1.2.5z"/><path id="XMLID_599_" class="st11" d="M-896.8-337.9v-1.1l-1.2.5 1.2.6z"/><path id="XMLID_598_" class="st11" d="M-896.4-328.9v-1.4l-1.3.9 1.3.5z"/><path id="XMLID_597_" class="st11" d="M-833.5-425.4l-5.7-3.1v.9l4.6 2.5 1.1-.3z"/><path id="XMLID_596_" class="st11" d="M-896.3-425.4l6.5-3.9v1l-5.4 3.2-1.1-.3z"/><g id="XMLID_594_"><path id="XMLID_595_" class="st12" d="M-889.5-424.8l-.3-.2v-8.1l.4.2-.1 8.1z"/></g><g id="XMLID_592_"><path id="XMLID_593_" class="st5" d="M-880.3-427.7l-.8-.8v-17.7l.8.5v18z"/></g><g id="XMLID_590_"><path id="XMLID_591_" class="st5" d="M-846.4-429.2l-.8 1.2v-17.7l.8-.5v17z"/></g><g id="XMLID_588_"><path id="XMLID_589_" class="st12" d="M-864.4-410.4l-.5.3-.3-.3v-8.7l.8.5v8.2z"/></g><g id="XMLID_586_"><path id="XMLID_587_" class="st12" d="M-839.2-424.7l-.4.2v-7.8l.4-.2v7.8z"/></g><g id="XMLID_575_"><g id="XMLID_581_" class="st1"><g id="XMLID_584_"><path id="XMLID_585_" class="st11" d="M-830.9-446.9l-.6-.3-32.4 18.6.1.8 32.9-19.1z"/></g><g id="XMLID_582_"><path id="XMLID_583_" class="st5" d="M-863.7-427.8v.8l32.8-19.2v-.7l-32.8 19.1z"/></g></g><g id="XMLID_576_" class="st1"><g id="XMLID_579_"><path id="XMLID_580_" class="st11" d="M-830.9-438l-.6-.4-32.4 18.6.2.7 32.8-18.9z"/></g><g id="XMLID_577_"><path id="XMLID_578_" class="st5" d="M-863.7-419.1v.8l32.8-19v-.7l-32.8 18.9z"/></g></g></g><path id="XMLID_574_" class="st13" d="M-870-347l-.6-1.2c-1.9-4-3-9.3-3.9-13.5-.4-2.2-.7-4.5-1-6.8-.7-5.4-1.3-10.9-4.3-15.9-1.5-2.4-3.2-4.4-4.9-6.4-2.1-2.5-4.2-4.8-5.6-7.9-.2-.4-.4-.8-.6-1.3-1.1-2.3-2.5-5.2-2.7-7.6-.2-1.7-.2-2.7-.1-4.6 0-.9.1-1.3.1-2.2l-2.4-1.4-.2 12.8c.6 1.6 1.4 3.2 2.1 4.7l.6 1.2c1.6 3.6 3.9 6.2 6.2 8.7 1.7 1.9 3.2 3.7 4.5 5.8 2.6 4.3 3.2 9.2 3.8 14.4.3 2.3.6 4.7 1 7.1.9 4.4 2 9.9 4.1 14.3l.6 1.2c1.3 2.7 2.9 6.1 4.6 8.2.5.6 1.2 1.2 2.3 2 .4.3.5.4.7.6v-4.9c-1.5-1.7-3.1-4.7-4.3-7.3z"/><path id="XMLID_573_" class="st13" d="M-893.8-452.8c1.6 3.6 3.9 6.2 6.2 8.7 1.7 1.9 3.2 3.7 4.5 5.8 2 3.2 2.8 6.9 3.3 10.7l4 2.3c-.6-5.1-1.4-10.3-4.2-14.9-1.5-2.4-3.2-4.4-4.9-6.4-1-1.2-2.1-2.4-3-3.6l-6.4-3.7c.2.4.3.8.5 1.1z"/><g id="XMLID_556_"><g id="XMLID_568_" class="st1"><g id="XMLID_571_"><path id="XMLID_572_" class="st11" d="M-898.6-338.2l.8-.3 33.1 18.8-.7.4-33.2-18.9z"/></g><g id="XMLID_569_"><path id="XMLID_570_" class="st5" d="M-865.4-319.3v.6l-33.2-18.9v-.6l33.2 18.9z"/></g></g><g id="XMLID_563_" class="st1"><g id="XMLID_566_"><path id="XMLID_567_" class="st11" d="M-898.1-329.1l.6-.4 32.7 18.5-.6.5-32.7-18.6z"/></g><g id="XMLID_564_"><path id="XMLID_565_" class="st5" d="M-865.4-310.5v.7l-32.7-18.6v-.7l32.7 18.6z"/></g></g><path id="XMLID_562_" class="st11" d="M-896.8-323v-1.3l-1.3.8 1.3.5z"/><g id="XMLID_557_" class="st1"><g id="XMLID_560_"><path id="XMLID_561_" class="st11" d="M-898.5-323.2l.6-.4 33.1 18.7-.6.5-33.1-18.8z"/></g><g id="XMLID_558_"><path id="XMLID_559_" class="st5" d="M-865.4-304.4v.7l-33-18.8-.1-.7 33.1 18.8z"/></g></g></g><g id="XMLID_545_"><g id="XMLID_551_" class="st1"><g id="XMLID_554_"><path id="XMLID_555_" class="st11" d="M-898.5-355.7l.8-.3 33 18.8-.7.3-33.1-18.8z"/></g><g id="XMLID_552_"><path id="XMLID_553_" class="st5" d="M-865.2-336.8v.7l-33.3-18.9v-.7l33.3 18.9z"/></g></g><g id="XMLID_546_" class="st1"><g id="XMLID_549_"><path id="XMLID_550_" class="st11" d="M-898.5-346.9l.8-.3 32.9 18.7-.6.5-33.1-18.9z"/></g><g id="XMLID_547_"><path id="XMLID_548_" class="st5" d="M-865.3-328.1v.8l-33.2-18.9v-.7l33.2 18.8z"/></g></g></g><g id="XMLID_534_"><g id="XMLID_540_" class="st1"><g id="XMLID_543_"><path id="XMLID_544_" class="st11" d="M-898.3-373.5l.8-.3 32.9 18.7-.8.3-32.9-18.7z"/></g><g id="XMLID_541_"><path id="XMLID_542_" class="st5" d="M-865-354.7l-.1.7-33.2-18.9v-.6l33.3 18.8z"/></g></g><g id="XMLID_535_" class="st1"><g id="XMLID_538_"><path id="XMLID_539_" class="st11" d="M-898.4-364.7l.8-.3 33 18.7-.8.3-33-18.7z"/></g><g id="XMLID_536_"><path id="XMLID_537_" class="st5" d="M-865-345.8v.6l-33.4-18.9v-.6l33.4 18.9z"/></g></g></g><g id="XMLID_523_"><g id="XMLID_529_" class="st1"><g id="XMLID_532_"><path id="XMLID_533_" class="st11" d="M-898.1-390.9l.8-.3 32.7 18.6-.8.3-32.7-18.6z"/></g><g id="XMLID_530_"><path id="XMLID_531_" class="st5" d="M-864.9-372.1v.6l-33.2-18.8v-.6l33.2 18.8z"/></g></g><g id="XMLID_524_" class="st1"><g id="XMLID_527_"><path id="XMLID_528_" class="st11" d="M-898.2-382.2l.8-.3 32.9 18.6-.7.3-33-18.6z"/></g><g id="XMLID_525_"><path id="XMLID_526_" class="st5" d="M-865-363.6v.8l-33.2-18.7v-.7l33.2 18.6z"/></g></g></g><g id="XMLID_512_"><g id="XMLID_518_" class="st1"><g id="XMLID_521_"><path id="XMLID_522_" class="st11" d="M-898-408.8l.8-.3 32.7 18.2-.7.5-32.8-18.4z"/></g><g id="XMLID_519_"><path id="XMLID_520_" class="st5" d="M-864.8-390.2l.1.9-33.3-18.8v-.7l33.2 18.6z"/></g></g><g id="XMLID_513_" class="st1"><g id="XMLID_516_"><path id="XMLID_517_" class="st11" d="M-898-399.3l.7-.3 33 17.7-.6.6-33.1-18z"/></g><g id="XMLID_514_"><path id="XMLID_515_" class="st5" d="M-864.8-381.4v.8l-33.2-18.1v-.6l33.2 17.9z"/></g></g></g><g id="XMLID_501_"><g id="XMLID_507_" class="st1"><g id="XMLID_510_"><path id="XMLID_511_" class="st11" d="M-896.8-446.6l.7-.4 32.3 18.4.1.8-33.1-18.8z"/></g><g id="XMLID_508_"><path id="XMLID_509_" class="st5" d="M-863.7-427.8v.8l-33.1-18.9v-.7l33.1 18.8z"/></g></g><g id="XMLID_502_" class="st1"><g id="XMLID_505_"><path id="XMLID_506_" class="st11" d="M-896.8-437.8l.6-.3 32.4 18.3.1.7-33.1-18.7z"/></g><g id="XMLID_503_"><path id="XMLID_504_" class="st5" d="M-863.7-419.1v.8l-33.1-18.7v-.8l33.1 18.7z"/></g></g></g><g id="XMLID_493_"><g id="XMLID_494_" class="st1"><g id="XMLID_499_"><path id="XMLID_500_" d="M-865.4-454.6l-4.1-2.3v-6.8l4.1 2.4v6.7z" fill="#888"/></g><g id="XMLID_497_"><path id="XMLID_498_" d="M-865.4-461.3l-4.1-2.4 7-4 4.1 2.3-7 4.1z" fill="#e5e5e5"/></g><g id="XMLID_495_"><path id="XMLID_496_" d="M-858.4-465.4l.1 6.8-7.1 4v-6.7l7-4.1z" fill="#c5c5c5"/></g></g></g><path id="XMLID_492_" class="st17" d="M-896.6-315.7v4.6l9.3 5.4v-4.7l-9.3-5.3z"/><path id="XMLID_491_" class="st17" d="M-875.1-303.4v4.7l9.4 5.4v-4.7l-9.4-5.4z"/><path id="XMLID_490_" class="st18" d="M-853.9-304.6v4.7l-10.9 6.4-.1-4.7 11-6.4z"/><path id="XMLID_489_" class="st18" d="M-853.9-316.6v4.7l-10.9 6.4v-4.7l10.9-6.4z"/><path id="XMLID_488_" class="st17" d="M-875.2-315.4v4.7l9.6 5.4v-4.7l-9.6-5.4z"/><path id="XMLID_487_" class="st17" d="M-896.5-327.6v4.8l9.2 5.1v-4.7l-9.2-5.2z"/><path id="XMLID_486_" class="st17" d="M-886.5-321.9v4.7l10.6 6v-4.7l-10.6-6z"/><path id="XMLID_485_" class="st18" d="M-843.5-322.5v4.7l-9.6 5.6v-4.7l9.6-5.6z"/><path id="XMLID_484_" class="st18" d="M-834.6-327.6v4.7l-8 4.6v-4.6l8-4.7z"/><path id="XMLID_483_" class="st18" d="M-843.4-310.7v4.7l-9.7 5.7v-4.7l9.7-5.7z"/><path id="XMLID_482_" class="st18" d="M-834.8-315.8l.1 4.7-7.9 4.7v-4.7l7.8-4.7z"/><path id="XMLID_481_" class="st4" d="M-886.5-305.2v-10.5l10.6 6v10.6l-10.6-6.1z"/><g id="XMLID_457_"><path id="XMLID_480_" d="M-876.6-299.5l-.1-9-8.9-5.2-.1 9 9.1 5.2z" fill="#c2e4ef"/><g id="XMLID_470_"><g id="XMLID_471_" class="st1"><g id="XMLID_478_"><path id="XMLID_479_" class="st17" d="M-885.6-304.4l.2-.2.1-8.9-.3.1v9z"/></g><g id="XMLID_476_"><path id="XMLID_477_" class="st17" d="M-876.8-299.3l.3-.2v-9.2l-.2.2-.1 9.2z"/></g><g id="XMLID_474_"><path id="XMLID_475_" class="st17" d="M-876.7-308.5l.2-.2-9.1-5.3-.2.2 9.1 5.3z"/></g><g id="XMLID_472_"><path id="XMLID_473_" class="st5" d="M-885.8-313.8l-.1 9.2.3.2v-9l8.6 5v8.9l.2.2.1-9.2-9.1-5.3z"/></g></g></g><g id="XMLID_464_"><g id="XMLID_468_"><path id="XMLID_469_" class="st17" d="M-877-305v-.3l-8.4-4.9-.1.1 8.5 5.1z"/></g><path id="XMLID_467_" class="st17" d="M-878.7-300.7v.2l.2-.1v-5.5h-.2v5.4z"/><path id="XMLID_466_" class="st17" d="M-881.3-302.2v.2l.2-.1v-5.4h-.2v5.3z"/><path id="XMLID_465_" class="st17" d="M-883.8-303.6v.2l.2-.1v-5.5h-.2v5.4z"/></g><g id="XMLID_458_"><g id="XMLID_462_"><path id="XMLID_463_" class="st5" d="M-877-304.8v-.3l-8.5-5-.1.3 8.6 5z"/></g><path id="XMLID_461_" class="st5" d="M-878.9-300.6l.2.1v-5.5h-.2v5.4z"/><path id="XMLID_460_" class="st5" d="M-881.5-302.1l.2.1v-5.4h-.2v5.3z"/><path id="XMLID_459_" class="st5" d="M-884-303.5l.2.1.1-5.5h-.2l-.1 5.4z"/></g></g><g id="XMLID_421_"><g id="XMLID_434_"><g id="XMLID_454_"><g id="XMLID_455_"><path id="XMLID_456_" class="st20" d="M-875.9-297.2c.2.1.2.3 0 .4s-.5.1-.7 0c-.2-.1-.2-.3 0-.4.2-.2.5-.2.7 0z"/></g></g><g id="XMLID_449_"><path id="XMLID_453_" class="st21" d="M-876.6-296.8c0-.1-.1-.1 0 0s.5.1.7 0h-.7z"/><defs><path id="SVGID_1_" d="M-876.6-296.8c0-.1-.1-.1 0 0s.5.1.7 0h-.7z"/></defs><clipPath id="SVGID_2_"><use xlink:href="#SVGID_1_" overflow="visible"/></clipPath><g id="XMLID_450_" clip-path="url(#SVGID_2_)"><g id="XMLID_451_"><path id="XMLID_452_" class="st21" d="M-876.6-296.8c.1.1.5.1.7 0h-.7z"/></g></g></g><g id="XMLID_446_"><g id="XMLID_447_"><path id="XMLID_448_" class="st23" d="M-875.6-298.5c.3.2.3.5 0 .7-.4.2-.9.2-1.3 0-.3-.2-.3-.5 0-.7.3-.2.9-.2 1.3 0z"/></g></g><g id="XMLID_443_" class="st1"><defs><path id="SVGID_3_" d="M-875.6-298.5c-.4-.2-1-.2-1.3 0-.4.2-.4.5 0 .7.3.2.9.2 1.3 0 .3-.2.3-.5 0-.7 0 0 .1 0 .1.1.1.1.2.2.2.3 0 .5-1.1.8-1.7.4-.2-.1-.3-.2-.3-.4.1-.6 1.1-.8 1.7-.4z"/></defs><clipPath id="SVGID_4_"><use xlink:href="#SVGID_3_" overflow="visible"/></clipPath><g id="XMLID_444_" clip-path="url(#SVGID_4_)"><path id="XMLID_445_" class="st25" d="M-877.2-298.1c0 .1.1.3.3.4.6.4 1.7.1 1.7-.4-.1-.8-2-.8-2 0zm1.5.3c-.4.2-.9.2-1.3 0-.3-.2 0-.7 0-.7.3 0 1.7.5 1.3.7z"/></g></g><g id="XMLID_439_" class="st1"><defs><path id="SVGID_5_" d="M-877.2-298.1c0 .1.1.3.3.4.6.4 1.7.1 1.7-.4v.2c0 .5-1.1.8-1.7.4-.4-.2-.3-.3-.3-.6z"/></defs><clipPath id="SVGID_6_"><use xlink:href="#SVGID_5_" overflow="visible"/></clipPath><g id="XMLID_440_" clip-path="url(#SVGID_6_)"><g id="XMLID_441_"><path id="XMLID_442_" class="st27" d="M-877.2-297.9v-.2c0 .1.1.3.3.4.6.4 1.7.1 1.7-.4v.2c0 .5-1.1.8-1.7.4-.3-.1-.3-.2-.3-.4z"/></g></g></g><g id="XMLID_435_" class="st1"><defs><path id="SVGID_7_" d="M-877.2-297.9c0 .5 1 .7 1.6.4.2-.1.3-.3.3-.4 0 .9-.8 1.3-1.4 1-.3-.2-.5-.6-.5-1z"/></defs><clipPath id="SVGID_8_"><use xlink:href="#SVGID_7_" overflow="visible"/></clipPath><g id="XMLID_436_" clip-path="url(#SVGID_8_)"><g id="XMLID_437_"><path id="XMLID_438_" class="st29" d="M-876.7-296.9c-.3-.2-.5-.5-.5-1 0 .1.1.3.3.4.6.4 1.7.1 1.7-.4 0 .6-.4.9-.6 1-.3.1-.7.1-.9 0z"/></g></g></g></g><g id="XMLID_432_"><path id="XMLID_433_" class="st30" d="M-876.4-297.9c0 .2.3.1.3 0v-2.7c0-.1-.1-.1-.1-.1-.1 0-.1.1-.1.1v2.7h-.1z"/></g><g id="XMLID_430_"><path id="XMLID_431_" class="st31" d="M-875.4-301.8v-.5h-.2v.5c0 .2 0 .4.3.5l.3.1.1-.1-.3-.1c-.1-.1-.2-.2-.2-.4z"/></g><g id="XMLID_428_"><path id="XMLID_429_" class="st32" d="M-875.3-304s-.1-.1 0-.5v-.6c0-.3-.2-.5-.4-.6-.1 0-.1-.2-.2-.4 0-.1-.1-.5-.1-.5 0-.2-.1-.4-.3-.4-.2 0-.2.1-.3.2 0 0 0 .4-.2.4-.2.1-.4.2-.4.4v.5c0 .4-.2.3-.2.3-.2 0-.4.3-.4.6l.1 1.1s0 .1-.1.2c-.2 0-.5.2-.5 1.3v.9c0 .9.5.9.5.9v.5c0 .3.1.6.3.6s.2.2.2.2c0 .4.4.6.7.6.5 0 .6-.3.8-.5.4 0 .5-.4.5-1.1 0 0 .2 0 .2-.6 0-.4.1-2.2.1-2.2.4-.3.3-1.2-.3-1.3z"/></g><g id="XMLID_426_"><path id="XMLID_427_" class="st33" d="M-875.6-303.5s-.1.4 0-1.4c0-.1.1-.6-.3-.5-.1 0-.1-.4-.1-.4 0-.1 0-.3-.1-.3s-.2.1-.2.2c0 0 0 .3-.1.3-.2 0-.3.1-.3.3v.4c0 .3-.1.3-.1.3-.2 0-.3.2-.3.5v.4c0-.2.1-.7.4-.6.1 0 .2-.3.2-.3 0-.1.1-.2.2-.2s.1.2.1.4c0 0 0 .4.1.4.3-.1.3.5.3.5 0 1.6.2 1.2.2 1.2.3-.4.5.3.4 1 0 0 0 .7-.1 1.2.1-.3.2-.6.2-.8 0-.3.1-1.7.1-1.7.1-.8-.3-1.3-.6-.9z"/></g><g id="XMLID_424_"><path id="XMLID_425_" class="st33" d="M-876.5-302.2c0-.2-.2-.8-.8-.6-.4.1-.4.4-.4.4s-.4 0-.3.6c0 .3.1.5.1.5v-.6c0-.4.6-.6.8-.5.3.1.3.5.3.5.1.9.6-.2.7.8 0 0 .1.8.1.6 0-.3.1-.5.1-.7 0-1-.5-.5-.6-1z"/></g><g id="XMLID_422_"><path id="XMLID_423_" class="st33" d="M-876.1-300.3s.2-.2.4 0c.2.3.2.8.2.8s.1-.8-.1-1c-.2-.2-.4-.1-.4 0-.1 0-.1.2-.1.2z"/></g></g><g id="XMLID_18_"><g id="XMLID_75_"><g id="XMLID_418_"><g id="XMLID_419_"><path id="XMLID_420_" class="st20" d="M-887-303.6c.2.1.2.3 0 .4s-.5.1-.7 0-.2-.3 0-.4c.2-.1.5-.1.7 0z"/></g></g><g id="XMLID_413_"><path id="XMLID_417_" class="st21" d="M-887.6-303.2c-.1 0-.1-.1 0 0 .2.1.5.1.7 0h-.1c-.2.1-.5.1-.6 0z"/><defs><path id="SVGID_9_" d="M-887.6-303.2c-.1 0-.1-.1 0 0 .2.1.5.1.7 0h-.1c-.2.1-.5.1-.6 0z"/></defs><clipPath id="SVGID_10_"><use xlink:href="#SVGID_9_" overflow="visible"/></clipPath><g id="XMLID_414_" clip-path="url(#SVGID_10_)"><g id="XMLID_415_"><path id="XMLID_416_" class="st21" d="M-887.6-303.2c.2.1.5.1.7 0h-.1c-.2.1-.5.1-.6 0z"/></g></g></g><g id="XMLID_410_"><g id="XMLID_411_"><path id="XMLID_412_" class="st23" d="M-886.7-304.9c.3.2.3.5 0 .7-.4.2-.9.2-1.3 0-.3-.2-.3-.5 0-.7.4-.2 1-.2 1.3 0z"/></g></g><g id="XMLID_407_" class="st1"><defs><path id="SVGID_11_" d="M-886.6-304.9s-.1 0 0 0c-.4-.2-.9-.2-1.3 0s-.4.5 0 .7c.3.2.9.2 1.3 0 .3-.2.3-.5 0-.7-.1 0 0 0 0 0s.1 0 .1.1c.1.1.2.2.2.3 0 .5-1.1.8-1.7.4-.2-.1-.3-.2-.3-.4 0-.5 1.1-.7 1.7-.4z"/></defs><clipPath id="SVGID_12_"><use xlink:href="#SVGID_11_" overflow="visible"/></clipPath><g id="XMLID_408_" clip-path="url(#SVGID_12_)"><path id="XMLID_409_" class="st25" d="M-888.3-304.5c0 .1.1.3.3.4.6.4 1.7.1 1.7-.4-.1-.8-2-.7-2 0zm1.6.3c-.4.2-.9.2-1.3 0-.3-.2 0-.7 0-.7.3.1 1.6.6 1.3.7z"/></g></g><g id="XMLID_403_" class="st1"><defs><path id="SVGID_13_" d="M-888.3-304.5c0 .1.1.3.3.4.6.4 1.7.1 1.7-.4v.2c0 .5-1.1.8-1.7.4-.3-.1-.3-.3-.3-.6z"/></defs><clipPath id="SVGID_14_"><use xlink:href="#SVGID_13_" overflow="visible"/></clipPath><g id="XMLID_404_" clip-path="url(#SVGID_14_)"><g id="XMLID_405_"><path id="XMLID_406_" class="st27" d="M-888.3-304.2v-.2c0 .1.1.3.3.4.6.4 1.7.1 1.7-.4v.2c0 .5-1.1.8-1.7.4-.2-.2-.3-.3-.3-.4z"/></g></g></g><g id="XMLID_78_" class="st1"><defs><path id="SVGID_15_" d="M-888.3-304.2c0 .5 1 .7 1.6.4.2-.1.3-.3.3-.4 0 .9-.8 1.3-1.4 1-.3-.3-.5-.6-.5-1z"/></defs><clipPath id="SVGID_16_"><use xlink:href="#SVGID_15_" overflow="visible"/></clipPath><g id="XMLID_79_" clip-path="url(#SVGID_16_)"><g id="XMLID_84_"><path id="XMLID_402_" class="st29" d="M-887.8-303.3c-.3-.2-.5-.5-.5-1 0 .1.1.3.3.4.6.4 1.7.1 1.7-.4 0 .6-.4.9-.6 1-.2.2-.6.2-.9 0 .1 0 0 0 0 0z"/></g></g></g></g><g id="XMLID_69_"><path id="XMLID_74_" class="st30" d="M-887.5-304.3c0 .2.3.1.3 0v-2.8c0-.1-.1-.1-.1-.1-.1 0-.1.1-.1.1l-.1 2.8z"/></g><g id="XMLID_63_"><path id="XMLID_68_" class="st31" d="M-886.4-308.1v-.5h-.2v.5c0 .2 0 .4.3.5l.3.1.1-.1-.3-.1c-.2-.2-.2-.2-.2-.4z"/></g><g id="XMLID_39_"><path id="XMLID_62_" class="st32" d="M-886.3-310.3s-.1-.1 0-.5v-.6c0-.3-.2-.5-.4-.6-.1 0-.1-.2-.2-.4 0-.1-.1-.5-.1-.5 0-.2-.1-.4-.3-.4-.2 0-.2.1-.3.2 0 0 0 .4-.2.4-.2.1-.4.2-.4.4v.5c0 .4-.2.3-.2.3-.3 0-.4.3-.4.6l.1 1.1s0 .1-.1.2c-.2 0-.5.2-.5 1.3v.9c0 .9.5.9.5.9v.5c0 .3.1.6.3.6s.2.2.2.2c0 .4.4.6.7.6.5 0 .6-.3.8-.5.4 0 .5-.4.5-1.1 0 0 .2 0 .2-.6 0-.4.1-2.2.1-2.2.3-.4.2-1.3-.3-1.3z"/></g><g id="XMLID_33_"><path id="XMLID_34_" class="st33" d="M-886.6-309.9s-.1.4 0-1.4c0-.1.1-.6-.3-.5-.1 0-.1-.4-.1-.4 0-.1 0-.3-.1-.3s-.2.1-.2.2c0 0 0 .3-.1.3-.2 0-.3.1-.3.3v.4c0 .3-.1.3-.1.3-.2 0-.3.2-.3.5v.4c0-.2.1-.7.4-.6.1 0 .2-.3.2-.3 0-.1.1-.2.2-.2s.1.2.1.4c0 0 0 .4.1.4.3-.1.3.5.3.5 0 1.6.2 1.2.2 1.2.3-.4.5.3.4 1 0 0 0 .7-.1 1.2.1-.3.2-.6.2-.8 0-.3.1-1.7.1-1.7.1-.8-.3-1.3-.6-.9z"/></g><g id="XMLID_29_"><path id="XMLID_30_" class="st33" d="M-887.5-308.6c0-.2-.2-.8-.8-.6-.4.1-.4.4-.4.4s-.4 0-.3.6c0 .3.1.5.1.5v-.6c0-.4.6-.6.8-.5.3.1.3.5.3.5.1.9.6-.2.7.8 0 0 .1.8.1.6 0-.3.1-.5.1-.7 0-1-.6-.5-.6-1z"/></g><g id="XMLID_23_"><path id="XMLID_24_" class="st33" d="M-887.2-306.7s.2-.2.4 0c.2.3.2.8.2.8s.1-.8-.1-1c-.2-.2-.4-.1-.4 0-.1.1-.1.2-.1.2z"/></g></g></g></g></svg>