<svg xmlns="http://www.w3.org/2000/svg" width="150" height="155"><style>.st0{opacity:.3;enable-background:new}.st1{fill:#825012}.st2{fill:#539b00}.st3{opacity:.2;fill:#fff;enable-background:new}</style><g transform="translate(1600 472)" id="i2183_1_"><ellipse class="st0" cx="-1586.5" cy="-417" rx="7.5" ry="4"/><path class="st1" d="M-1588-444v27c0 .6.7 1 1.5 1s1.5-.4 1.5-1v-27h-3z"/><circle class="st2" cx="-1593.5" cy="-448.5" r="6.5"/><circle class="st2" cx="-1589" cy="-457" r="9"/><path class="st1" d="M-1586-428.6c2.6 0 3-.9 3-3.4v-8h1v10c0 1.7-1.3 3-3 3h-1v-1.6zm0-.6c-1.7 0-3-.4-3-2.1v-9.7h-1v10c0 1.7 1.3 3 3 3h1v-1.2zm-2-21c-1.7 0-3-.4-3-2.1v-2.7h-1v3c0 1.7 1.3 3 3 3h1v-1.2z"/><circle class="st2" cx="-1581.5" cy="-441.5" r="7.5"/><circle class="st2" cx="-1577" cy="-445" r="6"/><path class="st1" d="M-1582-442.2c1.7 0 3-.4 3-2.1v-2.7h1v3c0 1.7-1.3 3-3 3h-1v-1.2zm-7-15.4h1v9.6h-1z"/><circle class="st2" cx="-1580" cy="-455" r="8"/><circle class="st2" cx="-1585" cy="-464" r="8"/><path class="st3" d="M-1584.5-456c2.2 0 4.1 1.3 4.9 3.1.3-.1.7-.1 1.1-.1 1.8 0 3.4.9 4.4 2.2-.4-1.8-2-3.2-3.9-3.2h-.1c-.5-2.3-2.5-4-4.9-4-2 0-3.7 1.2-4.5 2.9.8-.6 1.9-.9 3-.9z"/><circle class="st2" cx="-1594" cy="-456.6" r="3.6"/><path class="st3" d="M-1594-456.5c0-2.5 1.7-4.6 4-5.3.2-2.9 2.6-5.2 5.5-5.2 1.7 0 3.3.8 4.3 2.1-.6-2.4-2.8-4.1-5.3-4.1-2.9 0-5.3 2.2-5.5 5.1-2.3.5-4 2.5-4 4.9 0 1.1.4 2.2 1 3v-.5z"/><circle class="st2" cx="-1588.7" cy="-441.2" r="9.3"/><circle class="st2" cx="-1576.7" cy="-447.2" r="3.3"/><path class="st0" d="M-1571-445c0-.4 0-.8-.1-1.2-.6 3.8-3.9 6.7-7.9 6.7h-.4c.7.3 1.6.5 2.4.5.7 0 1.3-.1 1.9-.3-1.4 1.4-3.3 2.3-5.4 2.3-1 0-2-.2-2.9-.6-1.6 1.6-3.9 2.6-6.3 2.6-3.5 0-6.6-2-8.1-4.8.7 4.4 4.5 7.8 9.1 7.8 2.2 0 4.3-.8 5.9-2.1.4.1.8.1 1.3.1 3.5 0 6.5-2.4 7.3-5.7 1.9-1 3.2-3 3.2-5.3z"/><path class="st3" d="M-1591.5-446c.8 0 1.5.1 2.2.4.9-1.4 2.5-2.4 4.3-2.4 1 0 1.9.3 2.7.8-.7-1.7-2.3-2.8-4.2-2.8-1.6 0-3 .8-3.8 2h-.7c-2.9 0-5.4 2.1-5.9 4.9 1.2-1.8 3.2-2.9 5.4-2.9z"/><path class="st0" d="M-1596-445.5c-1.9-.8-3.4-2.4-3.9-4.5 0 .5-.1 1-.1 1.5 0 2.4 1.3 4.4 3.2 5.6.1-.9.4-1.8.8-2.6z"/></g><g transform="translate(1624 488)" id="i2192_1_"><ellipse class="st0" cx="-1585.5" cy="-417" rx="7.5" ry="4"/><path class="st1" d="M-1584-441v24c0 .6-.7 1-1.5 1s-1.5-.4-1.5-1v-24h3z"/><circle class="st2" cx="-1576.5" cy="-442.5" r="6.5"/><circle class="st2" cx="-1580" cy="-451" r="9"/><path class="st1" d="M-1586-428.6c-2.6 0-3-.9-3-3.4v-8h-1v10c0 1.7 1.3 3 3 3h1v-1.6zm1 1.4c1.7 0 3-.4 3-2.1v-9.7h1v10c0 1.7-1.3 3-3 3h-1v-1.2z"/><path class="st1" d="M-1589-430.2c-1.7 0-2-1.3-2-2.1v-9.7h-1v10c0 1.7 1.3 3 3 3v-1.2z"/><circle class="st2" cx="-1590" cy="-441" r="9"/><circle class="st2" cx="-1595" cy="-445" r="6"/><path class="st1" d="M-1590-441.2c-1.7 0-3-.4-3-2.1v-2.7h-1v3c0 1.7 1.3 3 3 3h1v-1.2z"/><circle class="st2" cx="-1591" cy="-453" r="8"/><circle class="st2" cx="-1587" cy="-457" r="8"/><circle class="st2" cx="-1580.5" cy="-459.5" r="4.5"/><path class="st3" d="M-1594.9-451c2.2 0 4.1 1.3 4.9 3.1.3-.1.7-.1 1.1-.1 1.8 0 3.4.9 4.4 2.2-.4-1.8-2-3.2-3.9-3.2h-.1c-.5-2.3-2.5-4-4.9-4-2 0-3.7 1.2-4.5 2.9.8-.6 1.9-.9 3-.9z"/><path class="st1" d="M-1587-453.6c.2.2.5.4.7.6h.3v-3c-.3 0-.7-.1-1-.2v2.6z"/><path class="st3" d="M-1586.5-461c2.4 0 4.3 1.9 4.5 4.2.5-.1 1-.2 1.5-.2 2.5 0 4.6 1.6 5.3 3.9.1-.4.2-.9.2-1.4 0-2.5-2-4.5-4.5-4.5-.5 0-1 .1-1.5.3-.1-1.8-1.6-3.3-3.5-3.3-1 0-1.9.4-2.5 1h.5z"/><path class="st0" d="M-1571.1-449.6c-1.7 1.9-4.1 3.1-6.8 3.1h-.6c1 1.1 1.6 2.4 1.7 3.9 2.9-1.1 5.2-3.8 5.7-7zm-2.4 10.3c.3.7.4 1.5.5 2.3 1.7-1.1 2.9-2.9 3-5-.8 1.3-2.1 2.2-3.5 2.7zm-21.8-11.7c-1.6-1.4-2.7-3.5-2.7-5.9-.6 1.1-1 2.5-1 3.9 0 1.1.2 2.1.6 3.1.9-.7 2-1 3.1-1.1z"/><path class="st1" d="M-1580-449.4c0 1.7-1.3 2.1-3 2.1v1.3h1c1.7 0 3-1.3 3-3v-2c-.3 0-.7-.1-1-.2v1.8z"/><circle class="st2" cx="-1582.2" cy="-438.2" r="9.3"/><path class="st3" d="M-1586-441c1.2 0 2.3.3 3.3.8 1.2-1.1 2.9-1.8 4.7-1.8 1.6 0 3.1.5 4.2 1.4-1.1-2-3.3-3.4-5.7-3.4-1.6 0-3.1.6-4.2 1.6-.7-.4-1.5-.6-2.3-.6-2.4 0-4.4 1.7-4.9 4 1.3-1.2 3-2 4.9-2z"/><path class="st0" d="M-1581.2-431c-3.8 0-7-2-8.8-5h-.9c-3.5 0-6.5-2-8-4.9 0 4.9 4 8.9 8.9 8.9h.9c1.7 1.9 4.1 3 6.8 3 3.6 0 6.6-2 8.2-4.9-1.8 1.8-4.4 2.9-7.1 2.9z"/></g><g transform="translate(1688 568)" id="i2193_1_"><ellipse class="st0" cx="-1586.5" cy="-417" rx="7.5" ry="4"/><path class="st1" d="M-1588-444v27c0 .6.7 1 1.5 1s1.5-.4 1.5-1v-27h-3z"/><circle class="st2" cx="-1593.5" cy="-448.5" r="6.5"/><circle class="st2" cx="-1589" cy="-457" r="9"/><path class="st1" d="M-1586-428.6c2.6 0 3-.9 3-3.4v-8h1v10c0 1.7-1.3 3-3 3h-1v-1.6zm0-.6c-1.7 0-3-.4-3-2.1v-9.7h-1v10c0 1.7 1.3 3 3 3h1v-1.2zm-2-21c-1.7 0-3-.4-3-2.1v-2.7h-1v3c0 1.7 1.3 3 3 3h1v-1.2z"/><circle class="st2" cx="-1581.5" cy="-441.5" r="7.5"/><circle class="st2" cx="-1577" cy="-445" r="6"/><path class="st1" d="M-1582-442.2c1.7 0 3-.4 3-2.1v-2.7h1v3c0 1.7-1.3 3-3 3h-1v-1.2zm-7-15.4h1v9.6h-1z"/><circle class="st2" cx="-1580" cy="-455" r="8"/><circle class="st2" cx="-1585" cy="-464" r="8"/><path class="st3" d="M-1584.5-456c2.2 0 4.1 1.3 4.9 3.1.3-.1.7-.1 1.1-.1 1.8 0 3.4.9 4.4 2.2-.4-1.8-2-3.2-3.9-3.2h-.1c-.5-2.3-2.5-4-4.9-4-2 0-3.7 1.2-4.5 2.9.8-.6 1.9-.9 3-.9z"/><circle class="st2" cx="-1594" cy="-456.6" r="3.6"/><path class="st3" d="M-1594-456.5c0-2.5 1.7-4.6 4-5.3.2-2.9 2.6-5.2 5.5-5.2 1.7 0 3.3.8 4.3 2.1-.6-2.4-2.8-4.1-5.3-4.1-2.9 0-5.3 2.2-5.5 5.1-2.3.5-4 2.5-4 4.9 0 1.1.4 2.2 1 3v-.5z"/><circle class="st2" cx="-1588.7" cy="-441.2" r="9.3"/><circle class="st2" cx="-1576.7" cy="-447.2" r="3.3"/><path class="st0" d="M-1571-445c0-.4 0-.8-.1-1.2-.6 3.8-3.9 6.7-7.9 6.7h-.4c.7.3 1.6.5 2.4.5.7 0 1.3-.1 1.9-.3-1.4 1.4-3.3 2.3-5.4 2.3-1 0-2-.2-2.9-.6-1.6 1.6-3.9 2.6-6.3 2.6-3.5 0-6.6-2-8.1-4.8.7 4.4 4.5 7.8 9.1 7.8 2.2 0 4.3-.8 5.9-2.1.4.1.8.1 1.3.1 3.5 0 6.5-2.4 7.3-5.7 1.9-1 3.2-3 3.2-5.3z"/><path class="st3" d="M-1591.5-446c.8 0 1.5.1 2.2.4.9-1.4 2.5-2.4 4.3-2.4 1 0 1.9.3 2.7.8-.7-1.7-2.3-2.8-4.2-2.8-1.6 0-3 .8-3.8 2h-.7c-2.9 0-5.4 2.1-5.9 4.9 1.2-1.8 3.2-2.9 5.4-2.9z"/><path class="st0" d="M-1596-445.5c-1.9-.8-3.4-2.4-3.9-4.5 0 .5-.1 1-.1 1.5 0 2.4 1.3 4.4 3.2 5.6.1-.9.4-1.8.8-2.6z"/></g><g transform="translate(1656 536)" id="i2194_1_"><ellipse class="st0" cx="-1586.5" cy="-455" rx="6.5" ry="2"/><path class="st1" d="M-1588-458h3v4h-3z"/><circle class="st2" cx="-1581" cy="-459.9" r="3.8"/><circle class="st2" cx="-1583.1" cy="-464.9" r="5.3"/><circle class="st2" cx="-1588.4" cy="-461.4" r="5.3"/><circle class="st2" cx="-1591.3" cy="-463.8" r="3.5"/><path class="st1" d="M-1588.9-466.9c-1 0-1.8-.3-1.8-1.2v-1.5h-.6v1.8c0 1 .8 1.8 1.8 1.8h.6v-.9z"/><circle class="st2" cx="-1589.1" cy="-460.1" r="5.7"/><path class="st0" d="M-1589.1-455.8c-2.9 0-5.3-2.2-5.7-5v.7c0 3.2 2.6 5.7 5.7 5.7s5.7-2.6 5.7-5.7v-.7c-.4 2.8-2.8 5-5.7 5z"/><circle class="st2" cx="-1587.2" cy="-467.3" r="4.7"/><circle class="st2" cx="-1583.4" cy="-468.8" r="2.6"/><path class="st3" d="M-1591.8-464.9c1.3 0 2.4.7 2.9 1.8.2 0 .4-.1.6-.1 1.1 0 2 .5 2.6 1.3-.2-1.1-1.2-1.9-2.3-1.9h-.1c-.3-1.3-1.5-2.4-2.9-2.4-1.2 0-2.2.7-2.7 1.7.6-.2 1.2-.4 1.9-.4z"/><path class="st1" d="M-1587.2-466.5c.1.1.3.2.4.3h.2v-1.7c-.2 0-.4 0-.6-.1v1.5z"/><path class="st3" d="M-1586.9-469.6c1.4 0 2.5 1.1 2.6 2.5.3-.1.6-.1.9-.1 1.5 0 2.7 1 3.1 2.3.1-.3.1-.5.1-.8 0-1.5-1.2-2.6-2.6-2.6-.3 0-.6.1-.9.2-.1-1.1-1-1.9-2-1.9-.6 0-1.1.2-1.5.6.1-.2.2-.2.3-.2z"/><path class="st0" d="M-1577.8-464.1c-1 1.1-2.4 1.8-4 1.8h-.4c.6.6.9 1.4 1 2.3 1.8-.6 3.1-2.2 3.4-4.1zm-1.5 6c.2.4.3.9.3 1.4 1-.6 1.7-1.7 1.8-2.9-.5.7-1.2 1.3-2.1 1.5z"/><circle class="st2" cx="-1583.8" cy="-459.8" r="5.4"/><path class="st3" d="M-1586-461.4c.7 0 1.4.2 1.9.5.7-.7 1.7-1.1 2.8-1.1.9 0 1.8.3 2.5.8-.6-1.2-1.9-2-3.4-2-1 0-1.8.3-2.5.9-.4-.2-.9-.3-1.3-.3-1.4 0-2.6 1-2.9 2.4.8-.8 1.8-1.2 2.9-1.2z"/><path class="st0" d="M-1583.2-455.5c-2.2 0-4.1-1.2-5.2-3-.2 0-.2 4.1 4.6 4.1 2.1 0 3.9-1.2 4.8-2.9-1.1 1.1-2.6 1.8-4.2 1.8z"/><path class="st1" d="M-1584-464.6c0 1-.9 1.2-2 1.2v.4h.6c1 0 1.4-.4 1.4-1.4v-1.2 1z"/></g><g transform="translate(1672 528)" id="i2195_1_"><ellipse class="st0" cx="-1586.5" cy="-433" rx="5.6" ry="3"/><path class="st1" d="M-1586-446c.6 0 1 .4 1 1v12c0 .6-.4 1-1 1s-1-.4-1-1v-12c0-.6.4-1 1-1z"/><path class="st2" d="M-1584.5-436c-1.4 0-2.5-1.1-2.5-2.5v-16c0-1.4 1.1-2.5 2.5-2.5s2.5 1.1 2.5 2.5v16c0 1.4-1.1 2.5-2.5 2.5z"/><path class="st2" d="M-1581.5-441c-1.4 0-2.5-1.1-2.5-2.5v-16c0-1.4 1.1-2.5 2.5-2.5s2.5 1.1 2.5 2.5v16c0 1.4-1.1 2.5-2.5 2.5z"/><path class="st2" d="M-1582.5-444c-1.4 0-2.5-1.1-2.5-2.5v-16c0-1.4 1.1-2.5 2.5-2.5s2.5 1.1 2.5 2.5v16c0 1.4-1.1 2.5-2.5 2.5z"/><path class="st2" d="M-1584.8-471c-1.3.1-2.2 1.3-2.2 2.6 0 .3-.2.5-.5.4-.5-.1-1-.1-1.6.2-1.2.5-1.9 1.8-1.9 3.1v1.3c0 .2-.2.4-.4.4s-.4 0-.6.1c-1.2.2-2 1.3-2 2.5v15.8c0 .8.4 1.6 1 2.1s1 1.3 1 2.1v.9c0 1.4 1.1 2.5 2.5 2.5h1c1.4 0 2.5-1.1 2.5-2.5v-5.1c.6-.6 1-1.5 1-2.4v-8.1c.3.1.6.1 1 0 1.2-.2 2-1.4 2-2.6v-10.9c0-1.4-1.3-2.6-2.8-2.4z"/><path class="st2" d="M-1586-444.6c.6-.6 1-1.5 1-2.4v-2c0 .9-.4 1.8-1 2.4v2z"/><path d="M-1584.5-438c-1.1 0-2-.7-2.3-1.6-.4.4-1 .6-1.7.6h-1c-1.4 0-2.5-1.1-2.5-2.5v2c0 1.4 1.1 2.5 2.5 2.5h1c.6 0 1.2-.2 1.7-.6.4 1 1.3 1.6 2.3 1.6 1.4 0 2.5-1.1 2.5-2.5v-2c0 1.4-1.1 2.5-2.5 2.5zm3-5c-.2 0-.3 0-.5-.1v2c.2 0 .3.1.5.1 1.4 0 2.5-1.1 2.5-2.5v-2c0 1.4-1.1 2.5-2.5 2.5zm-3-4h-1c-.5.6-1.2 1-2 1-1.4 0-2.5-1.1-2.5-2.5v2c0 1.4 1.1 2.5 2.5 2.5.8 0 1.5-.4 2-1h1c1.4 0 2.5-1.1 2.5-2.5v-2c0 1.4-1.1 2.5-2.5 2.5zm0-8c-.2 0-.3 0-.5-.1v2c.2 0 .3.1.5.1 1.4 0 2.5-1.1 2.5-2.5v-2c0 1.4-1.1 2.5-2.5 2.5z"/><path class="st3" d="M-1585-466c-1.1 0-2 .9-2 2v.3h-1.2c-1.1 0-2 .9-2 2v1.4c-.9.2-1.6 1-1.6 2v2c0-1 .7-1.8 1.6-2v-1.4c0-1.1.9-2 2-2h1.2v-.3c0-1.1.9-2 2-2s2 .9 2 2v-2c0-1.1-.9-2-2-2z"/><path class="st0" d="M-1592-441.5v-.9c0-.8-.3-1.6-1-2.1-.6-.5-1-1.3-1-2.1v2c0 .8.4 1.6 1 2.1s1 1.3 1 2.1v-1.1z"/></g><g transform="translate(1720 528)" id="i2196_1_"><ellipse class="st0" cx="-1585.5" cy="-417" rx="7.5" ry="4"/><path class="st1" d="M-1584-441v24c0 .6-.7 1-1.5 1s-1.5-.4-1.5-1v-24h3z"/><circle class="st2" cx="-1576.5" cy="-442.5" r="6.5"/><circle class="st2" cx="-1580" cy="-451" r="9"/><path class="st1" d="M-1586-428.6c-2.6 0-3-.9-3-3.4v-8h-1v10c0 1.7 1.3 3 3 3h1v-1.6zm1 1.4c1.7 0 3-.4 3-2.1v-9.7h1v10c0 1.7-1.3 3-3 3h-1v-1.2z"/><path class="st1" d="M-1589-430.2c-1.7 0-2-1.3-2-2.1v-9.7h-1v10c0 1.7 1.3 3 3 3v-1.2z"/><circle class="st2" cx="-1590" cy="-441" r="9"/><circle class="st2" cx="-1595" cy="-445" r="6"/><path class="st1" d="M-1590-441.2c-1.7 0-3-.4-3-2.1v-2.7h-1v3c0 1.7 1.3 3 3 3h1v-1.2z"/><circle class="st2" cx="-1591" cy="-453" r="8"/><circle class="st2" cx="-1587" cy="-457" r="8"/><circle class="st2" cx="-1580.5" cy="-459.5" r="4.5"/><path class="st3" d="M-1594.9-451c2.2 0 4.1 1.3 4.9 3.1.3-.1.7-.1 1.1-.1 1.8 0 3.4.9 4.4 2.2-.4-1.8-2-3.2-3.9-3.2h-.1c-.5-2.3-2.5-4-4.9-4-2 0-3.7 1.2-4.5 2.9.8-.6 1.9-.9 3-.9z"/><path class="st1" d="M-1587-453.6c.2.2.5.4.7.6h.3v-3c-.3 0-.7-.1-1-.2v2.6z"/><path class="st3" d="M-1586.5-461c2.4 0 4.3 1.9 4.5 4.2.5-.1 1-.2 1.5-.2 2.5 0 4.6 1.6 5.3 3.9.1-.4.2-.9.2-1.4 0-2.5-2-4.5-4.5-4.5-.5 0-1 .1-1.5.3-.1-1.8-1.6-3.3-3.5-3.3-1 0-1.9.4-2.5 1h.5z"/><path class="st0" d="M-1571.1-449.6c-1.7 1.9-4.1 3.1-6.8 3.1h-.6c1 1.1 1.6 2.4 1.7 3.9 2.9-1.1 5.2-3.8 5.7-7zm-2.4 10.3c.3.7.4 1.5.5 2.3 1.7-1.1 2.9-2.9 3-5-.8 1.3-2.1 2.2-3.5 2.7zm-21.8-11.7c-1.6-1.4-2.7-3.5-2.7-5.9-.6 1.1-1 2.5-1 3.9 0 1.1.2 2.1.6 3.1.9-.7 2-1 3.1-1.1z"/><path class="st1" d="M-1580-449.4c0 1.7-1.3 2.1-3 2.1v1.3h1c1.7 0 3-1.3 3-3v-2c-.3 0-.7-.1-1-.2v1.8z"/><circle class="st2" cx="-1582.2" cy="-438.2" r="9.3"/><path class="st3" d="M-1586-441c1.2 0 2.3.3 3.3.8 1.2-1.1 2.9-1.8 4.7-1.8 1.6 0 3.1.5 4.2 1.4-1.1-2-3.3-3.4-5.7-3.4-1.6 0-3.1.6-4.2 1.6-.7-.4-1.5-.6-2.3-.6-2.4 0-4.4 1.7-4.9 4 1.3-1.2 3-2 4.9-2z"/><path class="st0" d="M-1581.2-431c-3.8 0-7-2-8.8-5h-.9c-3.5 0-6.5-2-8-4.9 0 4.9 4 8.9 8.9 8.9h.9c1.7 1.9 4.1 3 6.8 3 3.6 0 6.6-2 8.2-4.9-1.8 1.8-4.4 2.9-7.1 2.9z"/></g><g id="i2200_1_"><path class="st0" d="M-1590.6-448.6l-3.5 1.3 2.5.1-1.6 1h3.6l2.1-.5-.4 1.7 2.2-.4 1.6-1.3 3 1 3.2-.5-1-.6 1.1-.3-4.6-1.2z" transform="translate(1720 576)"/><path d="M-1589.2-461.7c2.6-.3 3.8-5.3 3.8-5.3s.5 4.9 3.8 6.2c.1.5-1.1.9-2.2.4-.1 1 2.1 2.5 3.4 2.9 0 .5-1.2 1.3-2.4.9.5 1.2 1.4 2.2 3.4 2.7-.9.5-2.4 0-3.3 0 0 .8 2.9 1.5 4.4 1.5-.3.8-1.7 1.5-2.9 1.5 0 .9 2.9 1.6 3.6 1.8.1.7-2 1.2-3.4.7 0 .9 1.5 1.6 2.2 2 0 .7-4.7.5-5.4-.9-.9.3-1.4 2.2-3.1 2 .2-.5.7-2-.1-2.4-.7 1-3.5 1.6-4.7 1.1.3-.3 2-.5 1.5-1.6-1.5 0-3.5-1.4-3.4-2 .4.3 2.8.6 2.9 0-1.1-.1-1.8-1-1.8-1.6.4.2 2.8.6 2.9-.2-1-.4-2-1-1.9-1.8.7.1 2.3 0 2.4-.7-.9-.3-1.8-1.7-1.8-2.2.7.2 3.3 0 3.3-.5-1.1-.1-2.1-.5-2-1.3 1.5-.1 3.1-1.7 3.1-2.4-.8.2-1.9 0-2.3-.8z" fill="#28896d" transform="translate(1720 576)"/><path class="st3" d="M-1579.2-453.9s-1.9.1-3.4-1.5-2-2.5-2-2.5-.4.5-1.6 1.3c-1.2.8-4 .7-4 .7s1.7 1.3 4.2.5c1.1-.4 1-.6 1-.6s1.7 1.5 2.4 1.7c2.4.9 3.4.4 3.4.4zm-10.2-4.4c2.2-1.2 3.5-2.1 4-4-.1.9 1.7 3.3 3.4 4.5-1.3-.1-2.9-2.3-3.6-2.2-.1.7-2.3 1.6-3.8 1.7z" transform="translate(1720 576)"/><path class="st3" d="M-1588.4-461.5c2.2-1.2 2.5-2.7 3-4.6-.1.9 1 3.6 2.7 4.9-1.3-.1-2.3-1.9-2.9-2.4-.1.7-1.3 1.9-2.8 2.1zm-3.2 8.1s2.7 0 4.8-1c.6 0 1.5 1.9 2 2 .5-.1.8-.3 1.3-.6.4 1.9 3.7 3.5 5.6 4-3.4 0-5.8-2.2-6.2-2.9-.4.3-.5 1.3-1.3 1.3-.6-.9-1.6-2.2-1.8-2.9-.7-.2-3.4.7-4.4.1z" transform="translate(1720 576)"/><path class="st3" d="M-1593.2-449.7c3.8.4 5.2-1.3 5.8-2-.4 2.6-4.7 3.3-5.8 2zm10-.5c1.1 1.8 1.5 2.8 4 3.6-4 .2-4.4-2.8-4-3.6zm-3.6 4.3c.2.1 2.6-3.6.8-4.3-.9.6-.1 2.5-.8 4.3z" transform="translate(1720 576)"/><path class="st0" d="M-1584.1-461.2l-1-.8s.8 1 1.3 1.6c1 .5 2.2.1 2.2-.4 0 0-1.5.3-2.5-.4zm1.3 13.7c-1.2-1.2-1.5-3.1-1.5-3.1s-.7 2.4-1.3 3.6c-.4.7-.7 1.3-1.7 1.6v.1c1.7.1 2.3-1.7 3.1-2 .8 1.4 5.4 1.6 5.4.9.1-.1-2.8.1-4-1.1zm2.1-4.4c-1.2-.1-2.9-2.3-2.9-2.3s-.8.4-1.3.1c-.5-.3-.9-.7-.9-.7s.4 2.1 1.1 2c.7-.1 1-.3 1.3-.6.3 1.6 2.4 2.5 2.4 2.5 1.2.1 2.6-.7 2.9-1.5 0-.1-1.4.5-2.6.5zm-7.4-5.3c.4 0 .7 0 1.1-.1.9-.1 2.5-1 2.5-1l-1.2.1.5-1.1s-1.4 1.1-2.6 1.3c-1.2.2-2.2-.6-2.2-.6-.2.9.7 1.3 1.9 1.4zm-2 5.1c-.1.8-2.5.4-2.9.2 1.8 1.2 5.2-.2 5.2-.2h-1.6l1.9-.9s-4.1.2-4.3-.8c-.2.8.8 1.4 1.7 1.7z" transform="translate(1720 576)"/><path class="st0" d="M-1588.4-451.2s-1.3.4-2.2.4c-.8 0-2.4-.8-2.4-1 .1.7.7 1.5 1.8 1.6 2.1.1 2.8-1 2.8-1zm1.6 3.8c0-.7-.2-5-.2-5s-.1 2.5-2.4 4.8c-.8.7-2.8 1-2.8 1 1.2.5 4-.1 4.7-1.1.6.3.5 1.3.3 1.9.2-.5.4-1.1.4-1.6z" transform="translate(1720 576)"/></g></svg>