<svg xmlns="http://www.w3.org/2000/svg" width="128" height="189"><style>.st0{fill:#999}.st1{fill:#baa794}.st2{fill:#f8ebcb}.st3{fill:#762c07}.st4{opacity:.15;enable-background:new}.st5{opacity:.3}.st10{fill:#39c}.st12{opacity:.2;fill:#fff;enable-background:new}.st13{fill:#cc291f}.st14{fill:#fff}.st15,.st18{opacity:.39;enable-background:new}.st18{opacity:6.000000e-02}</style><g id="i2123_1_"><path class="st0" d="M376-499l-64-32 64-32 64 32z" transform="matrix(-1 0 0 1 440 688)"/><path class="st0" d="M376-499l-64-32 64-32 64 32z" transform="matrix(-1 0 0 1 440 688)"/><path class="st1" d="M376-502.7l61-30.6v-92L407-656l-31 61.3z" transform="matrix(-1 0 0 1 440 688)"/><path class="st2" d="M376-501.7l2-1V-598l-2 1zm3-2.5l-1 1.5V-600l1-.5z" transform="matrix(-1 0 0 1 440 688)"/><path class="st3" d="M379-504.2l56-28.1v-4l-56 28.1z" transform="matrix(-1 0 0 1 440 688)"/><path class="st4" d="M379-504.2l-1 1.5v-96.8l1-.5z" transform="matrix(-1 0 0 1 440 688)"/><path class="st2" d="M435-531.3l2-1V-625l-2-2z" transform="matrix(-1 0 0 1 440 688)"/><path class="st4" d="M435-627l-1-1v96.2l1-.5z" transform="matrix(-1 0 0 1 440 688)"/><g class="st5"><path class="st3" d="M431-535.5l3-1.5v-2l-3 1.5zm-4 2l3-1.5v-2l-3 1.5zm-4 2l3-1.5v-2l-3 1.5zm-4 2l3-1.5v-2l-3 1.5zm-4 2l3-1.5v-2l-3 1.5zm-4 2l3-1.5v-2l-3 1.5zm-4 2l3-1.5v-2l-3 1.5zm-4 2l3-1.5v-2l-3 1.5zm-4 2l3-1.5v-2l-3 1.5zm-4 2l3-1.5v-2l-3 1.5zm-4 2l3-1.5v-2l-3 1.5zm-4 2l3-1.5v-2l-3 1.5zm-4 2l3-1.5v-2l-3 1.5zm-4 2l3-1.5v-2l-3 1.5zm52-32l3-1.5v-2l-3 1.5zm-4 2l3-1.5v-2l-3 1.5zm-4 2l3-1.5v-2l-3 1.5zm-4 2l3-1.5v-2l-3 1.5zm-4 2l3-1.5v-2l-3 1.5zm-4 2l3-1.5v-2l-3 1.5zm-4 2l3-1.5v-2l-3 1.5zm-4 2l3-1.5v-2l-3 1.5zm-4 2l3-1.5v-2l-3 1.5zm-4 2l3-1.5v-2l-3 1.5zm-4 2l3-1.5v-2l-3 1.5zm-4 2l3-1.5v-2l-3 1.5zm-4 2l3-1.5v-2l-3 1.5zm-4 2l3-1.5v-2l-3 1.5zm50-22l3-1.5v-2l-3 1.5zm-4 2l3-1.5v-2l-3 1.5zm-4 2l3-1.5v-2l-3 1.5zm-4 2l3-1.5v-2l-3 1.5zm-4 2l3-1.5v-2l-3 1.5zm-4 2l3-1.5v-2l-3 1.5zm-4 2l3-1.5v-2l-3 1.5zm-4 2l3-1.5v-2l-3 1.5zm-4 2l3-1.5v-2l-3 1.5zm-4 2l3-1.5v-2l-3 1.5zm-4 2l3-1.5v-2l-3 1.5zm-4 2l3-1.5v-2l-3 1.5zm-4 2l3-1.5v-2l-3 1.5zm-2 1l1-.5v-2l-1 .5zm54-27l1-.5v-2l-1 .5zm-2-8l3-1.5v-2l-3 1.5zm-4 2l3-1.5v-2l-3 1.5zm-4 2l3-1.5v-2l-3 1.5zm-4 2l3-1.5v-2l-3 1.5zm-4 2l3-1.5v-2l-3 1.5zm-4 2l3-1.5v-2l-3 1.5zm-4 2l3-1.5v-2l-3 1.5zm-4 2l3-1.5v-2l-3 1.5zm-4 2l3-1.5v-2l-3 1.5zm-4 2l3-1.5v-2l-3 1.5zm-4 2l3-1.5v-2l-3 1.5zm-4 2l3-1.5v-2l-3 1.5zm-4 2l3-1.5v-2l-3 1.5zm-4 2l3-1.5v-2l-3 1.5zm50-22l3-1.5v-2l-3 1.5zm-4 2l3-1.5v-2l-3 1.5zm-4 2l3-1.5v-2l-3 1.5zm-4 2l3-1.5v-2l-3 1.5zm-4 2l3-1.5v-2l-3 1.5zm-4 2l3-1.5v-2l-3 1.5zm-4 2l3-1.5v-2l-3 1.5zm-4 2l3-1.5v-2l-3 1.5zm-4 2l3-1.5v-2l-3 1.5zm-4 2l3-1.5v-2l-3 1.5zm-4 2l3-1.5v-2l-3 1.5zm-4 2l3-1.5v-2l-3 1.5zm-4 2l3-1.5v-2l-3 1.5zm-2 1l1-.5v-2l-1 .5zm54-27l1-.5v-2l-1 .5zm-2-8l3-1.5v-2l-3 1.5zm-4 2l3-1.5v-2l-3 1.5zm-4 2l3-1.5v-2l-3 1.5zm-4 2l3-1.5v-2l-3 1.5zm-4 2l3-1.5v-2l-3 1.5zm-4 2l3-1.5v-2l-3 1.5zm-4 2l3-1.5v-2l-3 1.5zm-4 2l3-1.5v-2l-3 1.5zm-4 2l3-1.5v-2l-3 1.5zm-4 2l3-1.5v-2l-3 1.5zm-4 2l3-1.5v-2l-3 1.5zm-4 2l3-1.5v-2l-3 1.5zm-4 2l3-1.5v-2l-3 1.5zm-4 2l3-1.5v-2l-3 1.5zm50-22l3-1.5v-2l-3 1.5zm-4 2l3-1.5v-2l-3 1.5zm-4 2l3-1.5v-2l-3 1.5zm-4 2l3-1.5v-2l-3 1.5zm-4 2l3-1.5v-2l-3 1.5zm-4 2l3-1.5v-2l-3 1.5zm-4 2l3-1.5v-2l-3 1.5zm-4 2l3-1.5v-2l-3 1.5zm-4 2l3-1.5v-2l-3 1.5zm-4 2l3-1.5v-2l-3 1.5zm-4 2l3-1.5v-2l-3 1.5zm-4 2l3-1.5v-2l-3 1.5zm-4 2l3-1.5v-2l-3 1.5zm-2 1l1-.5v-2l-1 .5zm54-27l1-.5v-2l-1 .5zm-2-8l3-1.5v-2l-3 1.5zm-4 2l3-1.5v-2l-3 1.5zm-4 2l3-1.5v-2l-3 1.5zm-4 2l3-1.5v-2l-3 1.5zm-4 2l3-1.5v-2l-3 1.5zm-4 2l3-1.5v-2l-3 1.5zm-4 2l3-1.5v-2l-3 1.5zm-4 2l3-1.5v-2l-3 1.5zm-4 2l3-1.5v-2l-3 1.5zm-4 2l3-1.5v-2l-3 1.5zm-4 2l3-1.5v-2l-3 1.5zm-4 2l3-1.5v-2l-3 1.5zm-4 2l3-1.5v-2l-3 1.5zm-4 2l3-1.5v-2l-3 1.5zm50-22l3-1.5v-2l-3 1.5zm-4 2l3-1.5v-2l-3 1.5zm-4 2l3-1.5v-2l-3 1.5zm-4 2l3-1.5v-2l-3 1.5zm-4 2l3-1.5v-2l-3 1.5zm-4 2l3-1.5v-2l-3 1.5zm-4 2l3-1.5v-2l-3 1.5zm-4 2l3-1.5v-2l-3 1.5zm-4 2l3-1.5v-2l-3 1.5zm-4 2l3-1.5v-2l-3 1.5zm-4 2l3-1.5v-2l-3 1.5zm-4 2l3-1.5v-2l-3 1.5zm-4 2l3-1.5v-2l-3 1.5zm-2 1l1-.5v-2l-1 .5zm54-27l1-.5v-2l-1 .5zm-2-8l3-1.5v-2l-3 1.5zm-4 2l3-1.5v-2l-3 1.5zm-4 2l3-1.5v-2l-3 1.5zm-4 2l3-1.5v-2l-3 1.5zm-4 2l3-1.5v-2l-3 1.5zm-4 2l3-1.5v-2l-3 1.5zm-4 2l3-1.5v-2l-3 1.5zm-4 2l3-1.5v-2l-3 1.5zm-4 2l3-1.5v-2l-3 1.5zm-4 2l3-1.5v-2l-3 1.5zm-4 2l3-1.5v-2l-3 1.5zm-4 2l3-1.5v-2l-3 1.5zm-4 2l3-1.5v-2l-3 1.5zm-4 2l3-1.5v-2l-3 1.5zm50-22l3-1.5v-2l-3 1.5zm-4 2l3-1.5v-2l-3 1.5zm-4 2l3-1.5v-2l-3 1.5zm-4 2l3-1.5v-2l-3 1.5zm-4 2l3-1.5v-2l-3 1.5zm-4 2l3-1.5v-2l-3 1.5zm-4 2l3-1.5v-2l-3 1.5zm-4 2l3-1.5v-2l-3 1.5zm-4 2l3-1.5v-2l-3 1.5zm-4 2l3-1.5v-2l-3 1.5zm-4 2l3-1.5v-2l-3 1.5zm-4 2l3-1.5v-2l-3 1.5zm-4 2l3-1.5v-2l-3 1.5zm-2 1l1-.5v-2l-1 .5zm54-27l1-.5v-2l-1 .5zm-2-8l3-1.5v-2l-3 1.5zm-4 2l3-1.5v-2l-3 1.5zm-4 2l3-1.5v-2l-3 1.5zm-4 2l3-1.5v-2l-3 1.5zm-4 2l3-1.5v-2l-3 1.5zm-4 2l3-1.5v-2l-3 1.5zm-4 2l3-1.5v-2l-3 1.5zm-4 2l3-1.5v-2l-3 1.5zm-4 2l3-1.5v-2l-3 1.5zm-4 2l3-1.5v-2l-3 1.5zm-4 2l3-1.5v-2l-3 1.5zm-4 2l3-1.5v-2l-3 1.5zm-4 2l3-1.5v-2l-3 1.5zm-4 2l3-1.5v-2l-3 1.5zm50-22l3-1.5v-2l-3 1.5zm-4 2l3-1.5v-2l-3 1.5zm-4 2l3-1.5v-2l-3 1.5zm-4 2l3-1.5v-2l-3 1.5zm-4 2l3-1.5v-2l-3 1.5zm-4 2l3-1.5v-2l-3 1.5zm-4 2l3-1.5v-2l-3 1.5zm-4 2l3-1.5v-2l-3 1.5zm-4 2l3-1.5v-2l-3 1.5zm-4 2l3-1.5v-2l-3 1.5zm-4 2l3-1.5v-2l-3 1.5zm-4 2l3-1.5v-2l-3 1.5zm-4 2l3-1.5v-2l-3 1.5zm-2 1l1-.5v-2l-1 .5zm54-27l1-.5v-2l-1 .5zm-2-8l3-1.5v-2l-3 1.5zm-4 2l3-1.5v-2l-3 1.5zm-4 2l3-1.5v-2l-3 1.5zm-4 2l3-1.5v-2l-3 1.5zm-4 2l3-1.5v-2l-3 1.5zm-4 2l3-1.5v-2l-3 1.5zm-4 2l3-1.5v-2l-3 1.5zm-4 2l3-1.5v-2l-3 1.5zm-4 2l3-1.5v-2l-3 1.5zm-4 2l3-1.5v-2l-3 1.5zm-4 2l3-1.5v-2l-3 1.5zm-4 2l3-1.5v-2l-3 1.5zm-4 2l3-1.5v-2l-3 1.5zm-4 2l3-1.5v-2l-3 1.5zm50-22l3-1.5v-2l-3 1.5zm-4 2l3-1.5v-2l-3 1.5zm-4 2l3-1.5v-2l-3 1.5zm-4 2l3-1.5v-2l-3 1.5zm-4 2l3-1.5v-2l-3 1.5zm-4 2l3-1.5v-2l-3 1.5zm-4 2l3-1.5v-2l-3 1.5zm-4 2l3-1.5v-2l-3 1.5zm-4 2l3-1.5v-2l-3 1.5zm-4 2l3-1.5v-2l-3 1.5zm-4 2l3-1.5v-2l-3 1.5zm-4 2l3-1.5v-2l-3 1.5zm-4 2l3-1.5v-2l-3 1.5zm-2 1l1-.5v-2l-1 .5zm54-27l1-.5v-2l-1 .5zm-2-8l3-1.5v-2l-3 1.5zm-4 2l3-1.5v-2l-3 1.5zm-4 2l3-1.5v-2l-3 1.5zm-4 2l3-1.5v-2l-3 1.5zm-4 2l3-1.5v-2l-3 1.5zm-4 2l3-1.5v-2l-3 1.5zm-4 2l3-1.5v-2l-3 1.5zm-4 2l3-1.5v-2l-3 1.5zm-4 2l3-1.5v-2l-3 1.5zm-4 2l3-1.5v-2l-3 1.5zm-4 2l3-1.5v-2l-3 1.5zm-4 2l3-1.5v-2l-3 1.5zm-4 2l3-1.5v-2l-3 1.5zm-4 2l3-1.5v-2l-3 1.5zm50-22l3-1.5v-2l-3 1.5zm-4 2l3-1.5v-2l-3 1.5zm-4 2l3-1.5v-2l-3 1.5zm-4 2l3-1.5v-2l-3 1.5zm-4 2l3-1.5v-2l-3 1.5zm-4 2l3-1.5v-2l-3 1.5zm-4 2l3-1.5v-2l-3 1.5zm-4 2l3-1.5v-2l-3 1.5zm-4 2l3-1.5v-2l-3 1.5zm-4 2l3-1.5v-2l-3 1.5zm-4 2l3-1.5v-2l-3 1.5zm-4 2l3-1.5v-2l-3 1.5zm-4 2l3-1.5v-2l-3 1.5zm-2 1l1-.5v-2l-1 .5zm54-27l1-.5v-2l-1 .5zm-2-8l3-1.5v-2l-3 1.5zm-4 2l3-1.5v-2l-3 1.5zm-4 2l3-1.5v-2l-3 1.5zm-4 2l3-1.5v-2l-3 1.5zm-4 2l3-1.5v-2l-3 1.5zm-4 2l3-1.5v-2l-3 1.5zm-4 2l3-1.5v-2l-3 1.5zm-4 2l3-1.5v-2l-3 1.5zm-4 2l3-1.5v-2l-3 1.5zm-4 2l3-1.5v-2l-3 1.5zm-4 2l3-1.5v-2l-3 1.5zm-4 2l3-1.5v-2l-3 1.5zm-4 2l3-1.5v-2l-3 1.5zm-4 2l3-1.5v-2l-3 1.5zm50-22l3-1.5v-2l-3 1.5zm-4 2l3-1.5v-2l-3 1.5zm-4 2l3-1.5v-2l-3 1.5zm-4 2l3-1.5v-2l-3 1.5zm-4 2l3-1.5v-2l-3 1.5zm-4 2l3-1.5v-2l-3 1.5zm-4 2l3-1.5v-2l-3 1.5zm-4 2l3-1.5v-2l-3 1.5zm-4 2l3-1.5v-2l-3 1.5zm-4 2l3-1.5v-2l-3 1.5zm-4 2l3-1.5v-2l-3 1.5zm-4 2l3-1.5v-2l-3 1.5zm-4 2l3-1.5v-2l-3 1.5zm-2 1l1-.5v-2l-1 .5zm54-27l1-.5v-2l-1 .5zm-2-8l3-1.5v-2l-3 1.5zm-4 2l3-1.5v-2l-3 1.5zm-4 2l3-1.5v-2l-3 1.5zm-4 2l3-1.5v-2l-3 1.5zm-4 2l3-1.5v-2l-3 1.5zm-4 2l3-1.5v-2l-3 1.5zm-4 2l3-1.5v-2l-3 1.5zm-4 2l3-1.5v-2l-3 1.5zm-4 2l3-1.5v-2l-3 1.5zm-4 2l3-1.5v-2l-3 1.5zm-4 2l3-1.5v-2l-3 1.5zm-4 2l3-1.5v-2l-3 1.5zm-4 2l3-1.5v-2l-3 1.5zm-4 2l3-1.5v-2l-3 1.5zm50-22l3-1.5v-2l-3 1.5zm-4 2l3-1.5v-2l-3 1.5zm-4 2l3-1.5v-2l-3 1.5zm-4 2l3-1.5v-2l-3 1.5zm-4 2l3-1.5v-2l-3 1.5zm-4 2l3-1.5v-2l-3 1.5zm-4 2l3-1.5v-2l-3 1.5zm-4 2l3-1.5v-2l-3 1.5zm-4 2l3-1.5v-2l-3 1.5zm-4 2l3-1.5v-2l-3 1.5zm-4 2l3-1.5v-2l-3 1.5zm-4 2l3-1.5v-2l-3 1.5zm-4 2l3-1.5v-2l-3 1.5zm-2 1l1-.5v-2l-1 .5zm54-27l1-.5v-2l-1 .5zm-2-8l3-1.5v-2l-3 1.5zm-4 2l3-1.5v-2l-3 1.5zm-4 2l3-1.5v-2l-3 1.5zm-4 2l3-1.5v-2l-3 1.5zm-4 2l3-1.5v-2l-3 1.5zm-4 2l3-1.5v-2l-3 1.5zm-4 2l3-1.5v-2l-3 1.5zm-4 2l3-1.5v-2l-3 1.5zm-4 2l3-1.5v-2l-3 1.5zm-4 2l3-1.5v-2l-3 1.5zm-4 2l3-1.5v-2l-3 1.5zm-4 2l3-1.5v-2l-3 1.5zm-4 2l3-1.5v-2l-3 1.5zm-4 2l3-1.5v-2l-3 1.5zm50-22l3-1.5v-2l-3 1.5zm-4 2l3-1.5v-2l-3 1.5zm-4 2l3-1.5v-2l-3 1.5zm-4 2l3-1.5v-2l-3 1.5zm-4 2l3-1.5v-2l-3 1.5zm-4 2l3-1.5v-2l-3 1.5zm-4 2l3-1.5v-2l-3 1.5zm-4 2l3-1.5v-2l-3 1.5zm-4 2l3-1.5v-2l-3 1.5zm-4 2l3-1.5v-2l-3 1.5zm-4 2l3-1.5v-2l-3 1.5zm-4 2l3-1.5v-2l-3 1.5zm-4 2l3-1.5v-2l-3 1.5zm-2 1l1-.5v-2l-1 .5zm54-27l1-.5v-2l-1 .5zm-2-8l3-1.5v-2l-3 1.5zm-4 2l3-1.5v-2l-3 1.5zm-4 2l3-1.5v-2l-3 1.5zm-4 2l3-1.5v-2l-3 1.5zm-4 2l3-1.5v-2l-3 1.5zm-4 2l3-1.5v-2l-3 1.5zm-4 2l3-1.5v-2l-3 1.5zm-4 2l3-1.5v-2l-3 1.5zm-4 2l3-1.5v-2l-3 1.5zm-4 2l3-1.5v-2l-3 1.5zm-4 2l3-1.5v-2l-3 1.5zm-4 2l3-1.5v-2l-3 1.5zm-4 2l3-1.5v-2l-3 1.5zm-4 2l3-1.5v-2l-3 1.5zm50-22l3-1.5v-2l-3 1.5zm-4 2l3-1.5v-2l-3 1.5zm-4 2l3-1.5v-2l-3 1.5zm-4 2l3-1.5v-2l-3 1.5zm-4 2l3-1.5v-2l-3 1.5zm-4 2l3-1.5v-2l-3 1.5zm-4 2l3-1.5v-2l-3 1.5zm-4 2l3-1.5v-2l-3 1.5zm-4 2l3-1.5v-2l-3 1.5zm-4 2l3-1.5v-2l-3 1.5zm-4 2l3-1.5v-2l-3 1.5zm-4 2l3-1.5v-2l-3 1.5zm-4 2l3-1.5v-2l-3 1.5zm-2 1l1-.5v-2l-1 .5zm54-27l1-.5v-2l-1 .5zm-2-8l3-1.5v-2l-3 1.5zm-4 2l3-1.5v-2l-3 1.5zm-4 2l3-1.5v-2l-3 1.5zm-4 2l3-1.5v-2l-3 1.5zm-4 2l3-1.5v-2l-3 1.5zm-4 2l3-1.5v-2l-3 1.5zm-4 2l3-1.5v-2l-3 1.5zm-4 2l3-1.5v-2l-3 1.5zm-4 2l3-1.5v-2l-3 1.5zm-4 2l3-1.5v-2l-3 1.5zm-4 2l3-1.5v-2l-3 1.5zm-4 2l3-1.5v-2l-3 1.5zm-4 2l3-1.5v-2l-3 1.5zm-4 2l3-1.5v-2l-3 1.5zm50-22l3-1.5v-2l-3 1.5zm-4 2l3-1.5v-2l-3 1.5zm-4 2l3-1.5v-2l-3 1.5zm-4 2l3-1.5v-2l-3 1.5zm-4 2l3-1.5v-2l-3 1.5zm-4 2l3-1.5v-2l-3 1.5zm-4 2l3-1.5v-2l-3 1.5zm-4 2l3-1.5v-2l-3 1.5zm-4 2l3-1.5v-2l-3 1.5zm-4 2l3-1.5v-2l-3 1.5zm-4 2l3-1.5v-2l-3 1.5zm-4 2l3-1.5v-2l-3 1.5zm-4 2l3-1.5v-2l-3 1.5zm-2 1l1-.5v-2l-1 .5zm54-27l1-.5v-2l-1 .5zm-4-4l3-1.5v-2l-3 1.5zm-4 2l3-1.5v-2l-3 1.5zm-4 2l3-1.5v-2l-3 1.5zm-4 2l3-1.5v-2l-3 1.5zm-4 2l3-1.5v-2l-3 1.5zm-4 2l3-1.5v-2l-3 1.5zm-4 2l3-1.5v-2l-3 1.5zm-4 2l3-1.5v-2l-3 1.5zm-4 2l3-1.5v-2l-3 1.5zm-4 2l3-1.5v-2l-3 1.5zm-4 2l3-1.5v-2l-3 1.5zm-4 2l3-1.5v-2l-3 1.5zm-4 2l3-1.5v-2l-3 1.5zm-2 1l1-.5v-2l-1 .5zm54-27l1-.5v-2l-1 .5z" transform="matrix(-1 0 0 1 440 688)"/></g><g class="st5"><path class="st3" d="M431-619.5l3-1.5v-2l-3 1.5zm-4 2l3-1.5v-2l-3 1.5zm-4 2l3-1.5v-2l-3 1.5zm-4 2l3-1.5v-2l-3 1.5zm-4 2l3-1.5v-2l-3 1.5zm-4 2l3-1.5v-2l-3 1.5zm-4 2l3-1.5v-2l-3 1.5zm-4 2l3-1.5v-2l-3 1.5zm-4 2l3-1.5v-2l-3 1.5zm-4 2l3-1.5v-2l-3 1.5zm-4 2l3-1.5v-2l-3 1.5zm-4 2l3-1.5v-2l-3 1.5zm-4 2l3-1.5v-2l-3 1.5zm-4 2l3-1.5v-2l-3 1.5zm52-32l3-1.5v-2l-3 1.5zm-4 2l3-1.5v-2l-3 1.5zm-4 2l3-1.5v-2l-3 1.5zm-4 2l3-1.5v-2l-3 1.5zm-4 2l3-1.5v-2l-3 1.5zm-4 2l3-1.5v-2l-3 1.5zm-4 2l3-1.5v-2l-3 1.5zm-4 2l3-1.5v-2l-3 1.5zm-4 2l3-1.5v-2l-3 1.5zm-4 2l3-1.5v-2l-3 1.5zm-4 2l3-1.5v-2l-3 1.5zm-4 2l3-1.5v-2l-3 1.5zm-4 2l3-1.5v-2l-3 1.5zm-4 2l3-1.5v-2l-3 1.5zm50-22l3-1.5v-2l-3 1.5zm-4 2l3-1.5v-2l-3 1.5zm-4 2l3-1.5v-2l-3 1.5zm-4 2l3-1.5v-2l-3 1.5zm-4 2l3-1.5v-2l-3 1.5zm-4 2l3-1.5v-2l-3 1.5zm-4 2l3-1.5v-2l-3 1.5zm-4 2l3-1.5v-2l-3 1.5zm-4 2l3-1.5v-2l-3 1.5zm-4 2l3-1.5v-2l-3 1.5zm-4 2l3-1.5v-2l-3 1.5zm-4 2l3-1.5v-2l-3 1.5zm-4 2l3-1.5v-2l-3 1.5zm-2 1l1-.5v-2l-1 .5zm54-27l1-.5v-2l-1 .5zm-6-6l3-1.5v-2l-3 1.5zm-4 2l3-1.5v-2l-3 1.5zm-4 2l3-1.5v-2l-3 1.5zm-4 2l3-1.5v-2l-3 1.5zm-4 2l3-1.5v-2l-3 1.5zm-4 2l3-1.5v-2l-3 1.5zm-4 2l3-1.5v-2l-3 1.5zm-4 2l3-1.5v-2l-3 1.5zm-4 2l3-1.5v-2l-3 1.5zm-4 2l3-1.5v-2l-3 1.5zm-4 2l3-1.5v-2l-3 1.5zm-4 2l3-1.5v-2l-3 1.5zm46-20l3-1.5v-2l-3 1.5zm-4 2l3-1.5v-2l-3 1.5zm-4 2l3-1.5v-2l-3 1.5zm-4 2l3-1.5v-2l-3 1.5zm-4 2l3-1.5v-2l-3 1.5zm-4 2l3-1.5v-2l-3 1.5zm-4 2l3-1.5v-2l-3 1.5zm-4 2l3-1.5v-2l-3 1.5zm-4 2l3-1.5v-2l-3 1.5zm-4 2l3-1.5v-2l-3 1.5zm-4 2l3-1.5v-2l-3 1.5zm-4 2l3-1.5v-2l-3 1.5zm-4 2l3-1.5v-2l-3 1.5zm42-30l3-1.5v-2l-3 1.5zm-4 2l3-1.5v-2l-3 1.5zm-4 2l3-1.5v-2l-3 1.5zm-4 2l3-1.5v-2l-3 1.5zm-4 2l3-1.5v-2l-3 1.5zm-4 2l3-1.5v-2l-3 1.5zm-4 2l3-1.5v-2l-3 1.5zm-4 2l3-1.5v-2l-3 1.5zm-4 2l3-1.5v-2l-3 1.5zm-4 2l3-1.5v-2l-3 1.5zm38-16l3-1.5v-2l-3 1.5zm-4 2l3-1.5v-2l-3 1.5zm-4 2l3-1.5v-2l-3 1.5zm-4 2l3-1.5v-2l-3 1.5zm-4 2l3-1.5v-2l-3 1.5zm-4 2l3-1.5v-2l-3 1.5zm-4 2l3-1.5v-2l-3 1.5zm-4 2l3-1.5v-2l-3 1.5zm-4 2l3-1.5v-2l-3 1.5zm-4 2l3-1.5v-2l-3 1.5zm-4 2l3-1.5v-2l-3 1.5zm34-26l3-1.5v-2l-3 1.5zm-4 2l3-1.5v-2l-3 1.5zm-4 2l3-1.5v-2l-3 1.5zm-4 2l3-1.5v-2l-3 1.5zm-4 2l3-1.5v-2l-3 1.5zm-4 2l3-1.5v-2l-3 1.5zm-4 2l3-1.5v-2l-3 1.5zm-4 2l3-1.5v-2l-3 1.5zm30-12l3-1.5v-2l-3 1.5zm-4 2l3-1.5v-2l-3 1.5zm-4 2l3-1.5v-2l-3 1.5zm-4 2l3-1.5v-2l-3 1.5zm-4 2l3-1.5v-2l-3 1.5zm-4 2l3-1.5v-2l-3 1.5zm-4 2l3-1.5v-2l-3 1.5zm-4 2l3-1.5v-2l-3 1.5zm-4 2l3-1.5v-2l-3 1.5zm26-22l3-1.5v-2l-3 1.5zm-4 2l3-1.5v-2l-3 1.5zm-4 2l3-1.5v-2l-3 1.5zm-4 2l3-1.5v-2l-3 1.5zm-4 2l3-1.5v-2l-3 1.5zm-4 2l3-1.5v-2l-3 1.5zm22-8l3-1.5v-2l-3 1.5zm-4 2l3-1.5v-2l-3 1.5zm-4 2l3-1.5v-2l-3 1.5zm-4 2l3-1.5v-2l-3 1.5zm-4 2l3-1.5v-2l-3 1.5zm-4 2l3-1.5v-2l-3 1.5zm-4 2l3-1.5v-2l-3 1.5zm18-18l3-1.5v-2l-3 1.5zm-4 2l3-1.5v-2l-3 1.5zm-4 2l3-1.5v-2l-3 1.5zm-4 2l3-1.5v-2l-3 1.5zm14-4l3-1.5v-2l-3 1.5zm-4 2l3-1.5v-2l-3 1.5zm-4 2l3-1.5v-2l-3 1.5zm-4 2l3-1.5v-2l-3 1.5zm-4 2l3-1.5v-2l-3 1.5zm10-14l3-1.5v-2l-3 1.5zm-4 2l3-1.5v-2l-3 1.5zm6 0l3-1.5v-2l-3 1.5zm-4 2l3-1.5v-2l-3 1.5zm-4 2l3-1.5v-2l-3 1.5z" transform="matrix(-1 0 0 1 440 688)"/></g><path class="st3" d="M429-537.5l3-1.5v-2l-3 1.5zm-12 6l3-1.5v-2l-3 1.5zm-32 16l3-1.5v-2l-3 1.5zm34-26l3-1.5v-2l-3 1.5zm-32 16l3-1.5v-2l-3 1.5zm10-2l3-1.5v-2l-3 1.5zm26-22l3-1.5v-2l-3 1.5zm-44 22l3-1.5v-2l-3 1.5zm50-22l3-1.5v-2l-3 1.5zm-24 12l3-1.5v-2l-3 1.5zm6-12l3-1.5v-2l-3 1.5zm-14 10l3-1.5v-2l-3 1.5zm10-14l3-1.5v-2l-3 1.5zm22-8l3-1.5v-2l-3 1.5zm-12 6l3-1.5v-2l-3 1.5zm-28 14l3-1.5v-2l-3 1.5zm22-56l3-1.5v-2l-3 1.5zm-14 10l3-1.5v-2l-3 1.5zm10-14l3-1.5v-2l-3 1.5zm-12-6l3-1.5v-2l-3 1.5zm20-16l3-1.5v-2l-3 1.5zm-14-2l3-1.5v-2l-3 1.5zm-2-8l3-1.5v-2l-3 1.5zm-8 22l3-1.5v-2l-3 1.5zm20-28l3-1.5v-2l-3 1.5zm2 26l3-1.5v-2l-3 1.5zm14-10l3-1.5v-2l-3 1.5zm2 14l3-1.5v-2l-3 1.5zm-12 6l3-1.5v-2l-3 1.5zm-28 14l3-1.5v-2l-3 1.5zm38 20l3-1.5v-2l-3 1.5zm0-30l3-1.5v-2l-3 1.5zm-32 46l3-1.5v-2l-3 1.5zm-12 6l3-1.5v-2l-3 1.5zm24-18l3-1.5v-2l-3 1.5zm14-4l3-1.5v-2l-3 1.5zm-2-8l3-1.5v-2l-3 1.5zm-22 14l3-1.5v-2l-3 1.5zm-16 8l3-1.5v-2l-3 1.5zm4-38l3-1.5v-2l-3 1.5zm-4 20l3-1.5v-2l-3 1.5zm48-12l3-1.5v-2l-3 1.5zm-20 10l3-1.5v-2l-3 1.5zm-20 10l3-1.5v-2l-3 1.5z" transform="matrix(-1 0 0 1 440 688)" opacity=".5"/><path class="st3" d="M403-521.2l3-1.5v-2l-3 1.5zm12-6.1l3-1.5v-2l-3 1.5zm-32 16.1l3-1.5v-2l-3 1.5zm32-22.1l3-1.5v-2l-3 1.5zm-32 16.1l3-1.5v-2l-3 1.5zm10-2l3-1.5v-2l-3 1.5zm26-22.1l3-1.5v-2l-3 1.5zm6 0l3-1.5v-2l-3 1.5zm-24 12.1l3-1.5v-2l-3 1.5zm6-12.1l3-1.5v-2l-3 1.5zm-14 10.1l3-1.5v-2l-3 1.5zm10-14l3-1.5v-2l-3 1.5zm22-8.1l3-1.5v-2l-3 1.5zm-12 6l3-1.5v-2l-3 1.5zm-28 14.1l3-1.5v-2l-3 1.5zm38-28.1l3-1.5v-2l-3 1.5zm-32 16.1l3-1.5v-2l-3 1.5zm-12 6l3-1.5v-2l-3 1.5zm24-18l3-1.5v-2l-3 1.5zm14-4.1l3-1.5v-2l-3 1.5zm-2-8l3-1.5v-2l-3 1.5zm-22 14.1l3-1.5v-2l-3 1.5zm32-22.1l3-1.5v-2l-3 1.5zm-20 10.1l3-1.6v-2l-3 1.6zm-20 10l3-1.5v-2l-3 1.5z" transform="matrix(-1 0 0 1 440 688)" opacity=".2"/><path d="M388.6-571.6c-.8-1.3-1.1-3.2-.6-5.4 1.1-4.7 5-9.3 9.2-10.8v-.1c1.2-5.1 5.8-10 10.3-11.1 3.2-.8 5.4.6 6.1 3.3 2.3-2.2 5-3.8 7.6-4.4 6.2-1.5 9.9 2.9 8.3 9.9-.8 3.5-2.8 7-5.4 9.8 0 .7-.1 1.5-.3 2.4-.8 3.4-3.1 6.8-6 9 .4 1.2.4 2.7.1 4.3-1.2 5.1-5.7 10-10.2 11.1-2.8.7-4.9-.3-5.8-2.3-2.5 2.3-5.3 4-8.2 4.6-7 1.7-11.2-3.3-9.4-11.2.7-3.2 2.3-6.3 4.3-9.1z" opacity=".6" fill="#f8ebcb" transform="matrix(-1 0 0 1 440 688)"/><path d="M397.5-578.5c.1-1.7.8-3.6 2-5.4 2.5-3.8 6.5-6 9.3-5.2v-.1c2.7-4.1 7.2-6.3 9.9-5 1.9 1 2.5 3.5 1.7 6.3 2.1-.8 4.1-.9 5.7-.1 3.8 1.9 3.8 8 0 13.6-1.9 2.9-4.4 5-6.9 6.3-.3.7-.7 1.4-1.1 2.1-1.9 2.8-4.5 4.7-6.9 5.2-.3 1.3-.9 2.7-1.8 4.1-2.7 4.1-7.2 6.3-9.9 5-1.7-.8-2.3-2.9-1.9-5.3-2.2.8-4.4.8-6.1 0-4.3-2.1-4.3-9.1 0-15.5 1.7-2.5 3.8-4.6 6-6z" opacity=".6" fill="#fff" transform="matrix(-1 0 0 1 440 688)"/><path class="st3" d="M396-570.2c0 1.9 1.6 2.7 3.5 1.7s3.5-3.3 3.5-5.3-1.6-2.7-3.5-1.7-3.5 3.3-3.5 5.3zm1-.5c0-1.4 1.1-3.1 2.5-3.8s2.5-.1 2.5 1.2-1.1 3.1-2.5 3.8-2.5.1-2.5-1.2zm12-3.6c-5 2.5-9 6.5-9 9s4 2.5 9 0 9-6.5 9-9-4-2.4-9 0c5.5-2.8 10-2.8 10 0s-4.5 7.2-10 10-10 2.8-10 0 4.5-7.2 10-10z" transform="matrix(-1 0 0 1 440 688)"/><path class="st3" d="M401-576.2v4c0 4.4 3.6 6.2 8 4s8-7.6 8-12v-4c0-1.7-3.6-1.2-8 1s-8 5.3-8 7zm15-7.6c0 1.1-3.1 3.6-7 5.5s-7 2.6-7 1.5 3.1-3.6 7-5.5 7-2.6 7-1.5z" transform="matrix(-1 0 0 1 440 688)"/><path class="st3" d="M409-580.3s3-3.8 3-5.5-2-1.6-2-3 1-4.5 1-4.5-3 4.3-3 5.5c0 1.9 2 1.2 2 3 0 1.9-1 4.5-1 4.5zm-1-3.5s-2-2.1-2-4c0-3.8 1-5.5 1-5.5s-3 3.3-3 6.5c0 2.6 4 3 4 3zm-17.4 28.2c-.5-.4-1.4-.7-2.1-.9.8-.9 2-1.3 2.9-.9 1 .5 1.1 1.8.4 3-.1.1-.1.2-.2.3-.2-.5-.5-1.1-1-1.5zm-2.4-.5c.7.6 1.7 1.4 1.8 1.6l1 1c-.8.6-1.8.8-2.5.5-.9-.6-1-2-.3-3.1zm6.8-6c.7-.9 1.4-2.1 2-3.1.5.6.3 1.9-.6 3.2-1 1.5-2.4 2.3-3.2 1.9-.1 0-.1-.1-.2-.1.7-.5 1.4-1.2 2-1.9zm1.8-3.3c-.9 1.2-2.3 2.8-2.5 3.1-.2.2-.9 1-1.5 1.8-.2-.7 0-1.8.8-2.9 1-1.5 2.4-2.4 3.2-2z" transform="matrix(-1 0 0 1 440 688)"/><path class="st1" d="M315-533.3l61 30.6v-92l-61-30.6z" transform="matrix(-1 0 0 1 440 688)"/><path class="st10" d="M356-516.7l16 8v-14l-16-8zm-37-18.6l16 8v-14l-16-8zm21 14.5l11 5.6v-18l-11-5.6z" transform="matrix(-1 0 0 1 440 688)"/><path class="st3" d="M351-515.2l23 11.5v-4l-23-11.5zm-33-16.6l22 11v-4l-22-11z" transform="matrix(-1 0 0 1 440 688)"/><path class="st2" d="M315-532.3l2 1v-91l-2-1zm3 .6l-1 .4v-91l1 .5z" transform="matrix(-1 0 0 1 440 688)"/><path class="st4" d="M318-531.7l-1 .4v-91l1 .5z" transform="matrix(-1 0 0 1 440 688)"/><path class="st2" d="M374-502.7l2 1v-91l-2-1z" transform="matrix(-1 0 0 1 440 688)"/><path class="st4" d="M315-622.3l61 30.6v-1l-61-30.6z" transform="matrix(-1 0 0 1 440 688)"/><path class="st2" d="M315-623.3l61 30.6v-1l-61-30.6z" transform="matrix(-1 0 0 1 440 688)"/><path opacity=".5" fill="#fff" d="M351-530.2v15l-1-.5v-14l-4-2v14l-1-.6v-14l-4-2v14l-1-.5v-15z" transform="matrix(-1 0 0 1 440 688)"/><path class="st4" d="M374-593.7l-1-.5v90l1 .5z" transform="matrix(-1 0 0 1 440 688)"/><path class="st12" d="M351-522.5v7.3l-6-3.1z" transform="matrix(-1 0 0 1 440 688)"/><path class="st4" d="M345-528.3l-4-2v9.8l4-7zm-20-10l-6-3v5.3h6zm38 19.1l-7-3.5v3.7l7 .5z" transform="matrix(-1 0 0 1 440 688)"/><path class="st13" d="M332-537v1c0 .8-.7 1.2-1.5.7s-1.5-1.4-1.5-2.3c0 .8-.7 1.2-1.5.7s-1.5-1.3-1.5-2.1c0 .8-.7 1.2-1.5.8-.8-.4-1.5-1.4-1.5-2.3 0 .8-.7 1.2-1.5.7-.8-.4-1.5-1.4-1.5-2.2 0 .8-.7 1.2-1.5.7s-1.5-1.4-1.5-2.2c0 .8-.7 1.2-1.5.7s-1.5-1.4-1.5-2.2v-.8l18 8.8zm38 19v1c0 .8-.7 1.2-1.5.7s-1.5-1.4-1.5-2.3c0 .8-.7 1.2-1.5.7s-1.5-1.3-1.5-2.1c0 .8-.7 1.2-1.5.7s-1.5-1.4-1.5-2.3c0 .8-.7 1.2-1.5.7s-1.5-1.3-1.5-2.1c0 .8-.7 1.2-1.5.7s-1.5-1.4-1.5-2.3c0 .8-.7 1.2-1.5.7s-1.5-1.3-1.5-2.1v-1l18 9zm-22-11v1c0 .8-.7 1.2-1.5.7s-1.5-1.4-1.5-2.3c0 .8-.7 1.2-1.5.7s-1.5-1.3-1.5-2.1c0 .8-.7 1.2-1.5.7s-1.5-1.4-1.5-2.3c0 .8-.7 1.2-1.5.7s-1.5-1.3-1.5-2.1v-.9l12 5.9z" transform="matrix(-1 0 0 1 440 688)"/><path class="st14" d="M367-518.2l3 1.5v-.1c0 .8-.7 1.1-1.5.7-.8-.4-1.5-1.4-1.5-2.1 0-.3 0 0 0 0z" transform="matrix(-1 0 0 1 440 688)"/><path class="st13" d="M364-521.5l3 1.5v1.5c0 .8-.7 1.2-1.5.7-.8-.4-1.5-1.4-1.5-2.3v-1.4z" transform="matrix(-1 0 0 1 440 688)"/><path class="st14" d="M361-521.2l3 1.5v-.1c0 .8-.7 1.1-1.5.7-.8-.4-1.5-1.4-1.5-2.1 0-.3 0 0 0 0z" transform="matrix(-1 0 0 1 440 688)"/><path class="st13" d="M358-524.5l3 1.5v1.5c0 .8-.7 1.2-1.5.7s-1.5-1.4-1.5-2.2v-1.5z" transform="matrix(-1 0 0 1 440 688)"/><path class="st14" d="M355-524.2l3 1.5v-.1c0 .8-.7 1.1-1.5.7-.8-.4-1.5-1.4-1.5-2.1 0-.3 0 0 0 0z" transform="matrix(-1 0 0 1 440 688)"/><path class="st13" d="M352-527l3 1v1.5c0 .8-.7 1.2-1.5.7s-1.5-1.4-1.5-2.2v-1z" transform="matrix(-1 0 0 1 440 688)"/><path class="st14" d="M367-519.2l3 1.5 4-4.3-3-1.5z" transform="matrix(-1 0 0 1 440 688)"/><path class="st13" d="M370-518l4-4.2v4.8c0 .8-.9 1.7-2 2-1.1.3-2-.2-2-1v-1.6zm-6-2.7l3 1.5 4-4.3-3-1.5z" transform="matrix(-1 0 0 1 440 688)"/><path class="st14" d="M361-522.2l3 1.5 4-4.3-3-1.5z" transform="matrix(-1 0 0 1 440 688)"/><path class="st13" d="M358-523.7l3 1.5 4-4.3-3-1.5z" transform="matrix(-1 0 0 1 440 688)"/><path class="st14" d="M355-525.2l3 1.5 4-4.3-3-1.5z" transform="matrix(-1 0 0 1 440 688)"/><path class="st13" d="M352-526.7l3 1.5 4-4.3-3-1.5z" transform="matrix(-1 0 0 1 440 688)"/><path class="st14" d="M329-537.3l3 1.5v-.1c0 .8-.7 1.1-1.5.7s-1.5-1.3-1.5-2.1c0-.2 0 0 0 0z" transform="matrix(-1 0 0 1 440 688)"/><path class="st13" d="M326-540.5l3 1.5v1.5c0 .8-.7 1.2-1.5.7s-1.5-1.4-1.5-2.2v-1.5z" transform="matrix(-1 0 0 1 440 688)"/><path class="st14" d="M323-540.3l3 1.5v-.1c0 .8-.7 1.1-1.5.7s-1.5-1.3-1.5-2.1c0-.2 0 0 0 0z" transform="matrix(-1 0 0 1 440 688)"/><path class="st13" d="M320-543.5l3 1.5v1.5c0 .8-.7 1.2-1.5.7s-1.5-1.4-1.5-2.2v-1.5z" transform="matrix(-1 0 0 1 440 688)"/><path class="st14" d="M317-543.3l3 1.5v-.1c0 .8-.7 1.1-1.5.7s-1.5-1.3-1.5-2.1c0-.2 0 0 0 0z" transform="matrix(-1 0 0 1 440 688)"/><path class="st13" d="M314-546l3 1v1.5c0 .8-.7 1.2-1.5.7s-1.5-1.4-1.5-2.2v-1z" transform="matrix(-1 0 0 1 440 688)"/><path class="st14" d="M329-538.3l3 1.5 4-4.2-3-1.5z" transform="matrix(-1 0 0 1 440 688)"/><path class="st13" d="M332-537l4-4.2v4.8c0 .8-.9 1.7-2 2-1.1.3-2-.2-2-1v-1.6zm-6-2.8l3 1.5 4-4.2-3-1.5z" transform="matrix(-1 0 0 1 440 688)"/><path class="st14" d="M323-541.3l3 1.5 4-4.2-3-1.5z" transform="matrix(-1 0 0 1 440 688)"/><path class="st13" d="M320-542.8l3 1.5 4-4.2-3-1.5z" transform="matrix(-1 0 0 1 440 688)"/><path class="st14" d="M317-544.3l3 1.5 4-4.2-3-1.5z" transform="matrix(-1 0 0 1 440 688)"/><path class="st13" d="M314-545.8l3 1.5 4-4.2-3-1.5z" transform="matrix(-1 0 0 1 440 688)"/><path class="st14" d="M345-529.3l3 1.5v-.1c0 .8-.7 1.1-1.5.7s-1.5-1.3-1.5-2.1c0-.2 0 0 0 0z" transform="matrix(-1 0 0 1 440 688)"/><path class="st13" d="M342-532.5l3 1.5v1.5c0 .8-.7 1.2-1.5.7s-1.5-1.4-1.5-2.2v-1.5z" transform="matrix(-1 0 0 1 440 688)"/><path class="st14" d="M339-532.3l3 1.5v-.1c0 .8-.7 1.1-1.5.7-.8-.4-1.5-1.3-1.5-2.1 0-.2 0 0 0 0z" transform="matrix(-1 0 0 1 440 688)"/><path class="st13" d="M336-535l3 1v1.5c0 .8-.7 1.2-1.5.7-.8-.4-1.5-1.4-1.5-2.3v-.9z" transform="matrix(-1 0 0 1 440 688)"/><path class="st14" d="M345-530.3l3 1.6 4-4.3-3-1.5z" transform="matrix(-1 0 0 1 440 688)"/><path class="st13" d="M348-529l4-4.2v4.8c0 .8-.9 1.7-2 2-1.1.3-2-.2-2-1v-1.6zm-6-2.8l3 1.5 4-4.2-3-1.5z" transform="matrix(-1 0 0 1 440 688)"/><path class="st14" d="M339-533.3l3 1.5 4-4.2-3-1.5z" transform="matrix(-1 0 0 1 440 688)"/><path class="st13" d="M336-534.8l3 1.5 4-4.2-3-1.5z" transform="matrix(-1 0 0 1 440 688)"/><path class="st3" d="M327-549.3V-560c0-1.9-1.6-4.3-3.5-5.3s-3.5-.2-3.5 1.7v10.8l7 3.5z" transform="matrix(-1 0 0 1 440 688)"/><path class="st10" d="M321-554.3l5 2.5v-8.5c0-1.4-1.1-3.1-2.5-3.8-1.4-.7-2.5-.1-2.5 1.2v8.6z" transform="matrix(-1 0 0 1 440 688)"/><path class="st2" d="M320-552.8l7 3.5v-1l-7-3.5z" transform="matrix(-1 0 0 1 440 688)"/><path class="st3" d="M321-560.3l2 1v-5l1 .5v5l2 1v1l-2-1v6l-1-.5v-6l-2-1zm16 16V-555c0-1.9-1.6-4.3-3.5-5.3s-3.5-.2-3.5 1.7v10.8l7 3.5z" transform="matrix(-1 0 0 1 440 688)"/><path class="st10" d="M331-549.3l5 2.5v-8.5c0-1.4-1.1-3.1-2.5-3.8-1.4-.7-2.5-.1-2.5 1.2v8.6z" transform="matrix(-1 0 0 1 440 688)"/><path class="st2" d="M330-547.8l7 3.5v-1l-7-3.5z" transform="matrix(-1 0 0 1 440 688)"/><path class="st3" d="M331-555.3l2 1v-5l1 .5v5l2 1v1l-2-1v6l-1-.5v-6l-2-1zm30 23.1V-543c0-1.9-1.6-4.3-3.5-5.3s-3.5-.2-3.5 1.7v10.8l7 3.6z" transform="matrix(-1 0 0 1 440 688)"/><path class="st10" d="M355-537.2l5 2.5v-8.5c0-1.4-1.1-3.1-2.5-3.8-1.4-.7-2.5-.1-2.5 1.2v8.6z" transform="matrix(-1 0 0 1 440 688)"/><path class="st2" d="M354-535.7l7 3.5v-1l-7-3.5z" transform="matrix(-1 0 0 1 440 688)"/><path class="st12" d="M360-533.7l-5-2.5 5-4.8z" transform="matrix(-1 0 0 1 440 688)"/><path class="st3" d="M355-543.2l2 1v-5l1 .5v5l2 1v1l-2-1v6l-1-.5v-6l-2-1zm-6 5V-549c0-1.9-1.6-4.3-3.5-5.3s-3.5-.2-3.5 1.7v10.8l7 3.6z" transform="matrix(-1 0 0 1 440 688)"/><path class="st10" d="M343-543.3l5 2.5v-8.5c0-1.4-1.1-3.1-2.5-3.8-1.4-.7-2.5-.1-2.5 1.2v8.6z" transform="matrix(-1 0 0 1 440 688)"/><path class="st2" d="M342-541.8l7 3.6v-1l-7-3.6z" transform="matrix(-1 0 0 1 440 688)"/><path class="st3" d="M343-549.3l2 1v-5l1 .6v5l2 1v1l-2-1v6l-1-.6v-6l-2-1zm28 22.1V-538c0-1.9-1.6-4.3-3.5-5.3s-3.5-.2-3.5 1.7v10.8l7 3.6z" transform="matrix(-1 0 0 1 440 688)"/><path class="st10" d="M365-532.2l5 2.5v-8.5c0-1.4-1.1-3.1-2.5-3.8-1.4-.7-2.5-.1-2.5 1.2v8.6z" transform="matrix(-1 0 0 1 440 688)"/><path class="st2" d="M364-530.7l7 3.5v-1l-7-3.5z" transform="matrix(-1 0 0 1 440 688)"/><path class="st3" d="M365-538.2l2 1v-5l1 .5v5l2 1v1l-2-1v6l-1-.5v-6l-2-1zm-38-29.1V-578c0-1.9-1.6-4.3-3.5-5.3s-3.5-.2-3.5 1.7v10.8l7 3.5z" transform="matrix(-1 0 0 1 440 688)"/><path class="st10" d="M321-572.3l5 2.5v-8.5c0-1.4-1.1-3.1-2.5-3.8-1.4-.7-2.5-.1-2.5 1.2v8.6z" transform="matrix(-1 0 0 1 440 688)"/><path class="st2" d="M320-570.8l7 3.5v-1l-7-3.5z" transform="matrix(-1 0 0 1 440 688)"/><path class="st3" d="M321-578.3l2 1v-5l1 .5v5l2 1v1l-2-1v6l-1-.5v-6l-2-1zm16 16V-573c0-1.9-1.6-4.3-3.5-5.3s-3.5-.2-3.5 1.7v10.8l7 3.5z" transform="matrix(-1 0 0 1 440 688)"/><path class="st10" d="M331-567.3l5 2.5v-8.5c0-1.4-1.1-3.1-2.5-3.8-1.4-.7-2.5-.1-2.5 1.2v8.6z" transform="matrix(-1 0 0 1 440 688)"/><path class="st2" d="M330-565.8l7 3.5v-1l-7-3.5z" transform="matrix(-1 0 0 1 440 688)"/><path class="st3" d="M331-573.3l2 1v-5l1 .5v5l2 1v1l-2-1v6l-1-.5v-6l-2-1zm30 23.1V-561c0-1.9-1.6-4.3-3.5-5.3s-3.5-.2-3.5 1.7v10.8l7 3.6z" transform="matrix(-1 0 0 1 440 688)"/><path class="st10" d="M355-555.2l5 2.5v-8.5c0-1.4-1.1-3.1-2.5-3.8-1.4-.7-2.5-.1-2.5 1.2v8.6z" transform="matrix(-1 0 0 1 440 688)"/><path class="st2" d="M354-553.7l7 3.5v-1l-7-3.5z" transform="matrix(-1 0 0 1 440 688)"/><path class="st12" d="M360-551.7l-5-2.5 5-4.8z" transform="matrix(-1 0 0 1 440 688)"/><path class="st3" d="M355-561.2l2 1v-5l1 .5v5l2 1v1l-2-1v6l-1-.5v-6l-2-1zm-6 5V-567c0-1.9-1.6-4.3-3.5-5.3s-3.5-.2-3.5 1.7v10.8l7 3.6z" transform="matrix(-1 0 0 1 440 688)"/><path class="st10" d="M343-561.3l5 2.5v-8.5c0-1.4-1.1-3.1-2.5-3.8-1.4-.7-2.5-.1-2.5 1.2v8.6z" transform="matrix(-1 0 0 1 440 688)"/><path class="st2" d="M342-559.8l7 3.6v-1l-7-3.6z" transform="matrix(-1 0 0 1 440 688)"/><path class="st3" d="M343-567.3l2 1v-5l1 .6v5l2 1v1l-2-1v6l-1-.6v-6l-2-1zm28 22.1V-556c0-1.9-1.6-4.3-3.5-5.3s-3.5-.2-3.5 1.7v10.8l7 3.6z" transform="matrix(-1 0 0 1 440 688)"/><path class="st10" d="M365-550.2l5 2.5v-8.5c0-1.4-1.1-3.1-2.5-3.8-1.4-.7-2.5-.1-2.5 1.2v8.6z" transform="matrix(-1 0 0 1 440 688)"/><path class="st2" d="M364-548.7l7 3.5v-1l-7-3.5z" transform="matrix(-1 0 0 1 440 688)"/><path class="st12" d="M370-546.7l-5-2.5 5-4.8z" transform="matrix(-1 0 0 1 440 688)"/><path class="st3" d="M365-556.2l2 1v-5l1 .5v5l2 1v1l-2-1v6l-1-.5v-6l-2-1zm6-7V-574c0-1.9-1.6-4.3-3.5-5.3s-3.5-.2-3.5 1.7v10.8l7 3.6z" transform="matrix(-1 0 0 1 440 688)"/><path class="st10" d="M365-568.2l5 2.5v-8.5c0-1.4-1.1-3.1-2.5-3.8-1.4-.7-2.5-.1-2.5 1.2v8.6z" transform="matrix(-1 0 0 1 440 688)"/><path class="st2" d="M364-566.7l7 3.5v-1l-7-3.5z" transform="matrix(-1 0 0 1 440 688)"/><path class="st12" d="M370-564.7l-5-2.5 5-4.8z" transform="matrix(-1 0 0 1 440 688)"/><path class="st3" d="M365-574.2l2 1v-5l1 .5v5l2 1v1l-2-1v6l-1-.5v-6l-2-1zm-38-11.1V-596c0-1.9-1.6-4.3-3.5-5.3s-3.5-.2-3.5 1.7v10.8l7 3.5z" transform="matrix(-1 0 0 1 440 688)"/><path class="st10" d="M321-590.3l5 2.5v-8.5c0-1.4-1.1-3.1-2.5-3.8-1.4-.6-2.5 0-2.5 1.3v8.5z" transform="matrix(-1 0 0 1 440 688)"/><path class="st2" d="M320-588.8l7 3.5v-1l-7-3.5z" transform="matrix(-1 0 0 1 440 688)"/><path class="st3" d="M321-596.3l2 1v-5l1 .5v5l2 1v1l-2-1v6l-1-.5v-6l-2-1zm16 16V-591c0-1.9-1.6-4.3-3.5-5.3s-3.5-.1-3.5 1.8v10.8l7 3.4z" transform="matrix(-1 0 0 1 440 688)"/><path class="st10" d="M331-585.3l5 2.5v-8.5c0-1.4-1.1-3.1-2.5-3.8-1.4-.7-2.5-.1-2.5 1.2v8.6z" transform="matrix(-1 0 0 1 440 688)"/><path class="st2" d="M330-583.8l7 3.5v-1l-7-3.5z" transform="matrix(-1 0 0 1 440 688)"/><path class="st3" d="M331-591.3l2 1v-5l1 .5v5l2 1v1l-2-1v6l-1-.5v-6l-2-1zm30 23.1V-579c0-1.9-1.6-4.3-3.5-5.3s-3.5-.2-3.5 1.7v10.8l7 3.6z" transform="matrix(-1 0 0 1 440 688)"/><path class="st10" d="M355-573.2l5 2.5v-8.5c0-1.4-1.1-3.1-2.5-3.8-1.4-.7-2.5-.1-2.5 1.2v8.6z" transform="matrix(-1 0 0 1 440 688)"/><path class="st2" d="M354-571.7l7 3.5v-1l-7-3.5z" transform="matrix(-1 0 0 1 440 688)"/><path class="st3" d="M355-579.2l2 1v-5l1 .5v5l2 1v1l-2-1v6l-1-.5v-6l-2-1zm-6 5V-585c0-1.9-1.6-4.3-3.5-5.3s-3.5-.2-3.5 1.7v10.8l7 3.6z" transform="matrix(-1 0 0 1 440 688)"/><path class="st10" d="M343-579.3l5 2.5v-8.5c0-1.4-1.1-3.1-2.5-3.8-1.4-.7-2.5-.1-2.5 1.2v8.6z" transform="matrix(-1 0 0 1 440 688)"/><path class="st2" d="M342-577.8l7 3.6v-1l-7-3.6z" transform="matrix(-1 0 0 1 440 688)"/><path class="st3" d="M343-585.3l2 1v-5l1 .6v5l2 1v1l-2-1v6l-1-.6v-6l-2-1zm28 4.1v-5.8c0-1.9-1.6-4.3-3.5-5.3s-3.5-.2-3.5 1.7v5.8l7 3.6z" transform="matrix(-1 0 0 1 440 688)"/><path class="st10" d="M365-586.2l5 2.5v-3.5c0-1.4-1.1-3.1-2.5-3.8-1.4-.7-2.5-.1-2.5 1.2v3.6z" transform="matrix(-1 0 0 1 440 688)"/><path class="st2" d="M364-584.7l7 3.5v-1l-7-3.5z" transform="matrix(-1 0 0 1 440 688)"/><path class="st3" d="M367-585.2l1 .5v-6l-1-.5zm-6-1v-5.8c0-1.9-1.6-4.3-3.5-5.3s-3.5-.2-3.5 1.7v5.8l7 3.6z" transform="matrix(-1 0 0 1 440 688)"/><path class="st10" d="M355-591.2l5 2.5v-3.5c0-1.4-1.1-3.1-2.5-3.8-1.4-.7-2.5-.1-2.5 1.2v3.6z" transform="matrix(-1 0 0 1 440 688)"/><path class="st2" d="M354-589.7l7 3.5v-1l-7-3.5z" transform="matrix(-1 0 0 1 440 688)"/><path class="st3" d="M357-590.2l1 .5v-6l-1-.5zm-20-8.1v-5.7c0-1.9-1.6-4.3-3.5-5.3s-3.5-.1-3.5 1.8v5.8l7 3.4z" transform="matrix(-1 0 0 1 440 688)"/><path class="st10" d="M331-603.3l5 2.5v-3.5c0-1.4-1.1-3.1-2.5-3.8-1.4-.7-2.5-.1-2.5 1.2v3.6z" transform="matrix(-1 0 0 1 440 688)"/><path class="st2" d="M330-601.8l7 3.5v-1l-7-3.5z" transform="matrix(-1 0 0 1 440 688)"/><path class="st3" d="M333-602.3l1 .5v-6l-1-.5zm-6-1v-5.7c0-1.9-1.6-4.3-3.5-5.3s-3.5-.2-3.5 1.7v5.8l7 3.5z" transform="matrix(-1 0 0 1 440 688)"/><path class="st10" d="M321-608.3l5 2.5v-3.5c0-1.4-1.1-3.1-2.5-3.8-1.4-.6-2.5 0-2.5 1.3v3.5z" transform="matrix(-1 0 0 1 440 688)"/><path class="st2" d="M320-606.8l7 3.5v-1l-7-3.5z" transform="matrix(-1 0 0 1 440 688)"/><path class="st3" d="M323-607.3l1 .5v-6l-1-.5zm26 15.1v-5.8c0-1.9-1.6-4.3-3.5-5.3s-3.5-.2-3.5 1.7v5.8l7 3.6z" transform="matrix(-1 0 0 1 440 688)"/><path class="st10" d="M343-597.3l5 2.5v-3.5c0-1.4-1.1-3.1-2.5-3.8-1.4-.7-2.5-.1-2.5 1.2v3.6z" transform="matrix(-1 0 0 1 440 688)"/><path class="st2" d="M342-595.8l7 3.6v-1l-7-3.6z" transform="matrix(-1 0 0 1 440 688)"/><path class="st3" d="M345-596.3l1 .6v-6l-1-.6z" transform="matrix(-1 0 0 1 440 688)"/><path class="st15" d="M315-625.3v78.4l3-3.2 18 9v4.8c0 .8-.9 1.7-2 2s-2-.2-2-1v-1.5l-17-8.5v13l2 1 1-.4v-.1l56 28v1l2 1v-93l-61-30.5zm37 98.5l4-4.2 18 9-4 4.2 4-4.2v4.8c0 .8-.9 1.7-2 2s-2-.2-2-1v-1.5l-18-9.1zm-16-8l4-4.2 12 6v4.8c0 .8-.9 1.7-2 2s-2-.2-2-1v-1.5l-12-6.1z" transform="matrix(-1 0 0 1 440 688)"/><path d="M374-522.2v4.8c0 .8-.9 1.7-2 2-1.1.3-2-.2-2-1v-1.5l4-4.3zM332-537l4-4.2v4.8c0 .8-.9 1.7-2 2-1.1.3-2-.2-2-1v-1.6zm20 3.8v4.8c0 .8-.9 1.7-2 2-1.1.3-2-.2-2-1v-1.5l4-4.3z" transform="matrix(-1 0 0 1 440 688)" opacity=".06"/><path fill="#2d3134" d="M407-656l-63-32-31 62 63 32h1l30-61 29 30 1-.3z" transform="matrix(-1 0 0 1 440 688)"/><path class="st15" d="M313-626l63 32 31-62-63-32z" transform="matrix(-1 0 0 1 440 688)"/><path class="st12" d="M343.2-686.4l63 32 .8-1.6-63-32z" transform="matrix(-1 0 0 1 440 688)"/><path class="st18" d="M368-603.6l14-25.4-21.8 9.9 6.8 7.5z" transform="matrix(-1 0 0 1 440 688)"/><path class="st1" d="M368-603.6v-8.4c0-2.5-2-5.5-4.5-6.8s-4.5-.2-4.5 2.3v8.4l9 4.5z" transform="matrix(-1 0 0 1 440 688)"/><path class="st3" d="M367-605.2v-5.8c0-1.9-1.6-4.3-3.5-5.3s-3.5-.2-3.5 1.7v5.8l7 3.6z" transform="matrix(-1 0 0 1 440 688)"/><path class="st10" d="M361-610.2l5 2.5v-3.5c0-1.4-1.1-3.1-2.5-3.8-1.4-.7-2.5-.1-2.5 1.2v3.6z" transform="matrix(-1 0 0 1 440 688)"/><path class="st2" d="M360-608.7l7 3.5v-1l-7-3.5z" transform="matrix(-1 0 0 1 440 688)"/><path class="st3" d="M363-609.2l1 .5v-6l-1-.5z" transform="matrix(-1 0 0 1 440 688)"/><path class="st15" d="M368-603.6v-8.4c0-2.5-2-5.5-4.5-6.8s-4.5-.2-4.5 2.3v8.4l9 4.5z" transform="matrix(-1 0 0 1 440 688)"/><path class="st18" d="M351-612.6l14-25.4-21.8 9.9 6.8 7.5z" transform="matrix(-1 0 0 1 440 688)"/><path class="st1" d="M351-612.6v-8.4c0-2.5-2-5.5-4.5-6.8-2.5-1.2-4.5-.2-4.5 2.3v8.4l9 4.5z" transform="matrix(-1 0 0 1 440 688)"/><path class="st3" d="M350-614.2v-5.8c0-1.9-1.6-4.3-3.5-5.3s-3.5-.2-3.5 1.7v5.8l7 3.6z" transform="matrix(-1 0 0 1 440 688)"/><path class="st10" d="M344-619.2l5 2.5v-3.5c0-1.4-1.1-3.1-2.5-3.8-1.4-.7-2.5-.1-2.5 1.2v3.6z" transform="matrix(-1 0 0 1 440 688)"/><path class="st2" d="M343-617.7l7 3.5v-1l-7-3.5z" transform="matrix(-1 0 0 1 440 688)"/><path class="st3" d="M346-618.2l1 .5v-6l-1-.5z" transform="matrix(-1 0 0 1 440 688)"/><path class="st15" d="M351-612.6v-8.4c0-2.5-2-5.5-4.5-6.8-2.5-1.2-4.5-.2-4.5 2.3v8.4l9 4.5z" transform="matrix(-1 0 0 1 440 688)"/><path class="st18" d="M334-620.6l14-25.4-21.8 9.9 6.8 7.5z" transform="matrix(-1 0 0 1 440 688)"/><path class="st1" d="M334-620.6v-8.4c0-2.5-2-5.5-4.5-6.8-2.5-1.2-4.5-.2-4.5 2.3v8.4l9 4.5z" transform="matrix(-1 0 0 1 440 688)"/><path class="st3" d="M333-622.2v-5.8c0-1.9-1.6-4.3-3.5-5.3s-3.5-.1-3.5 1.8v5.8l7 3.5z" transform="matrix(-1 0 0 1 440 688)"/><path class="st10" d="M327-627.2l5 2.5v-3.5c0-1.4-1.1-3.1-2.5-3.8-1.4-.7-2.5-.1-2.5 1.2v3.6z" transform="matrix(-1 0 0 1 440 688)"/><path class="st2" d="M326-625.7l7 3.5v-1l-7-3.5z" transform="matrix(-1 0 0 1 440 688)"/><path class="st3" d="M329-626.2l1 .5v-6l-1-.5z" transform="matrix(-1 0 0 1 440 688)"/><path class="st15" d="M334-620.6v-8.4c0-2.5-2-5.5-4.5-6.8-2.5-1.2-4.5-.2-4.5 2.3v8.4l9 4.5z" transform="matrix(-1 0 0 1 440 688)"/><path class="st18" d="M437-625.3v93l-2 1v-1l-56 28.1-1 1.5-2 1v-93l31-61.3z" transform="matrix(-1 0 0 1 440 688)"/></g></svg>