<svg xmlns="http://www.w3.org/2000/svg" width="8" height="45"><style>.st0{fill:#999}.st1{opacity:.2;enable-background:new}.st2{fill:#fc0}</style><g transform="translate(864 392)" id="i1216_1_"><ellipse class="st0" cx="-860" cy="-357.7" rx="1.5" ry=".8"/><path class="st0" d="M-860-385l4-2-4-4-4 4zm1 3.7h-2v23.5c0 .3.4.5 1 .5s1-.2 1-.5v-23.5z"/><path class="st1" d="M-859-381.3h-2v23.5c0 .3.4.5 1 .5s1-.2 1-.5v-23.5z"/><path class="st0" d="M-860-357c-.8 0-1.5-.3-1.5-.8v10c0 .5.7.8 1.5.8s1.5-.3 1.5-.8v-10c0 .5-.7.8-1.5.8z"/><path class="st1" d="M-860-357c-.8 0-1.5-.3-1.5-.8v10c0 .5.7.8 1.5.8s1.5-.3 1.5-.8v-10c0 .5-.7.8-1.5.8z"/><path class="st0" d="M-860-385l-4-2 2 7 2 1 2-1 2-7z"/><path class="st2" d="M-859.5-384.7l2.7-1.3-1.6 5.7-1.1.5z"/><path opacity=".15" d="M-859-385l2.2-1-1.6 5.7z"/><path class="st2" d="M-861.6-380.3l-1.6-5.7 2.7 1.3v4.9z"/><path opacity=".2" fill="#fff" d="M-861.6-380.3l-1.6-5.7 2.7 6.2z"/><path opacity=".39" d="M-860-379l2-1 2-7-4 2z"/><path opacity=".06" d="M-860-379l-2-1-2-7 4 2z"/><circle class="st0" cx="-860" cy="-391" r="1"/></g></svg>