<svg xmlns="http://www.w3.org/2000/svg" width="46" height="26.1"><style>.st1{fill:#2d3134}.st2{opacity:.29;enable-background:new}.st3{fill:#e5e5e5}.st4{opacity:.11;enable-background:new}.st5{fill:#fc0}.st6{opacity:.2;enable-background:new}.st7{fill:#656565}</style><g id="i1535_1_"><path opacity=".3" fill="#262626" d="M-15680-7498.6l140-70-320-160-140 70z" transform="matrix(.1 0 0 .1 1600 776)"/><path class="st1" d="M-15754.1-7554.3l50.2-13.9-34.6-19.9-17.5 16.9z" transform="matrix(.1 0 0 .1 1600 776)"/><path class="st2" d="M-15754.1-7554.3l50.2-13.9-34.6-19.9-17.5 16.9z" transform="matrix(.1 0 0 .1 1600 776)"/><path class="st1" d="M-15945.5-7651.6l50.2-14-34.7-19.9-17.5 16.9z" transform="matrix(.1 0 0 .1 1600 776)"/><path class="st2" d="M-15945.5-7651.6l50.2-14-34.7-19.9-17.5 16.9z" transform="matrix(.1 0 0 .1 1600 776)"/><path class="st1" d="M-15716.6-7577.3c-6.7-3.4-12.8-3.8-17.3-1.7l-9.5 5.1c-4.8 2.2-7.9 7.1-7.9 14.3 0 13.9 11.3 30.9 25.2 37.8 6.9 3.4 13.1 3.8 17.7 1.6 0 0 9.4-5 10.4-5.6 4.1-2.4 6.6-7.1 6.6-13.6 0-14-11.3-30.9-25.2-37.9z" transform="matrix(.1 0 0 .1 1600 776)"/><path class="st2" d="M-15708.1-7520.3c1.8-.9 9.2-4.9 10.1-5.5 4.1-2.4 6.6-7.1 6.6-13.6 0-5.6-1.8-11.7-4.9-17.4l-9.5 5.1c3.1 5.7 4.9 11.8 4.9 17.4.1 6.8-2.7 11.7-7.2 14z" transform="matrix(.1 0 0 .1 1600 776)"/><path class="st1" d="M-15700.8-7534.3c0 13.9-11.3 19.6-25.2 12.6s-25.2-23.9-25.2-37.8c0-13.9 11.3-19.6 25.2-12.6 13.9 6.9 25.2 23.9 25.2 37.8z" transform="matrix(.1 0 0 .1 1600 776)"/><path class="st3" d="M-15706.3-7537.1c0 10.9-8.8 15.3-19.7 9.9s-19.7-18.7-19.7-29.6 8.8-15.3 19.7-9.9c10.8 5.5 19.7 18.7 19.7 29.6z" transform="matrix(.1 0 0 .1 1600 776)"/><path class="st1" d="M-15713.1-7528.3c3-1.7 4.8-5 4.8-9.7v-1.1l-11-1.7 6.2 12.5zm-8.8-21.7l11.5 2.5c-2.4-5.7-6.7-11.3-11.9-14.9l.4 12.4zm-8.2-4.1l.4-12c-5.2-1.5-9.5-.3-11.9 3l11.5 9zm-13.6-2.8v1.1c0 4.7 1.8 9.8 4.8 14.5l6.3-6.2-11.1-9.4zm17.7 17.5l-6.8 5.5c2.1 1.9 4.4 3.5 6.8 4.7 2.4 1.2 4.7 1.9 6.8 2l-6.8-12.2z" transform="matrix(.1 0 0 .1 1600 776)"/><path class="st4" d="M-15700.8-7534.3c0 13.9-11.3 19.6-25.2 12.6s-25.2-23.9-25.2-37.8c0-13.9 11.3-19.6 25.2-12.6 13.9 6.9 25.2 23.9 25.2 37.8z" transform="matrix(.1 0 0 .1 1600 776)"/><path class="st1" d="M-15908.7-7674c-6.7-3.4-12.8-3.8-17.3-1.7l-9.5 5.1c-4.8 2.2-7.9 7.1-7.9 14.3 0 13.9 11.3 30.9 25.2 37.8 6.9 3.4 13.1 3.8 17.7 1.6 0 0 9.4-5 10.4-5.6 4.1-2.4 6.6-7.1 6.6-13.6 0-14-11.3-30.9-25.2-37.9z" transform="matrix(.1 0 0 .1 1600 776)"/><path class="st2" d="M-15900.2-7617c1.8-.9 9.2-4.9 10.1-5.5 4.1-2.4 6.6-7.1 6.6-13.6 0-5.6-1.8-11.7-4.9-17.4l-9.5 5.1c3.1 5.7 4.9 11.8 4.9 17.4 0 6.8-2.7 11.6-7.2 14z" transform="matrix(.1 0 0 .1 1600 776)"/><path class="st1" d="M-15893-7631.1c0 13.9-11.3 19.6-25.2 12.6-13.9-7-25.2-23.9-25.2-37.8s11.3-19.6 25.2-12.6c14 7 25.2 23.9 25.2 37.8z" transform="matrix(.1 0 0 .1 1600 776)"/><path class="st3" d="M-15898.5-7633.8c0 10.9-8.8 15.3-19.7 9.9-10.9-5.4-19.7-18.7-19.7-29.6 0-10.9 8.8-15.3 19.7-9.9 10.9 5.4 19.7 18.7 19.7 29.6z" transform="matrix(.1 0 0 .1 1600 776)"/><path class="st1" d="M-15905.2-7625.1c3-1.7 4.8-5 4.8-9.7v-1.1l-11-1.7 6.2 12.5zm-8.9-21.7l11.5 2.5c-2.4-5.7-6.7-11.3-11.9-14.9l.4 12.4zm-8.2-4.1l.4-12c-5.2-1.5-9.5-.3-11.9 3l11.5 9zm-13.6-2.8v1.1c0 4.7 1.8 9.8 4.8 14.5l6.3-6.2-11.1-9.4zm17.7 17.6l-6.8 5.5c2.1 1.9 4.4 3.5 6.8 4.7 2.4 1.2 4.7 1.9 6.8 2l-6.8-12.2z" transform="matrix(.1 0 0 .1 1600 776)"/><path class="st4" d="M-15893-7631.1c0 13.9-11.3 19.6-25.2 12.6-13.9-7-25.2-23.9-25.2-37.8s11.3-19.6 25.2-12.6c14 7 25.2 23.9 25.2 37.8z" transform="matrix(.1 0 0 .1 1600 776)"/><path class="st5" d="M-15562.9-7639.6c-4.5-4.7-57.2-46.1-66.7-53.4-9.5-7.2-80.5-55.4-114.2-57.4s-40.5-.9-54.3-4.5c-13.8-3.6-44.5-11.3-91.3 4.1s-76.7 44.5-76.7 68.2c0 8 1.6 16.1 12.4 24.9 1.8 1.5 4.6 3.4 7.9 5.5-.2-1.5-.4-3-.4-4.5 0-10.6 6.2-17.4 15.8-17.4 3.8 0 7.9 1.1 12.1 3.2 14.5 7.2 26.2 24.9 26.2 39.4 0 3.2-.6 6.1-1.7 8.6l140.3 68.7c-.4-2-.6-3.9-.6-5.8 0-10.6 6.2-17.4 15.8-17.4 3.8 0 7.9 1.1 12.1 3.2 14.5 7.2 26.2 24.9 26.2 39.4 0 1.8-.2 3.5-.5 5.1 5.4 1.6 12.9 3.3 22 4.2 20.3 2 53.6-4.1 83.4-19.9 34-18 47.3-35.3 48.8-44.3 1.7-9-12.1-45.2-16.6-49.9z" transform="matrix(.1 0 0 .1 1600 776)"/><path class="st6" d="M-15813.9-7638.5c0 2.9-2.4 4.1-5.3 2.7-2.9-1.5-5.3-5-5.3-8 0-2.9 2.4-4.1 5.3-2.7 2.9 1.5 5.3 5 5.3 8z" transform="matrix(.1 0 0 .1 1600 776)"/><path class="st5" d="M-15813.9-7636l2.3-2.6s-16.7-10.9-18.2-8.7c-1.6 2.1 15.9 11.3 15.9 11.3z" transform="matrix(.1 0 0 .1 1600 776)"/><path class="st6" d="M-15739.7-7607c0 2.9-2.4 4.1-5.3 2.7-2.9-1.5-5.3-5-5.3-8s2.4-4.1 5.3-2.7c2.9 1.5 5.3 5.1 5.3 8z" transform="matrix(.1 0 0 .1 1600 776)"/><path class="st5" d="M-15739.7-7604.4l2.3-2.6s-16.7-10.9-18.2-8.7c-1.5 2.1 15.9 11.3 15.9 11.3z" transform="matrix(.1 0 0 .1 1600 776)"/><path class="st1" d="M-15883.6-7681.5l169.8 70.8s-16.5-60-71.2-82.1c-58.8-23.7-98.6 11.3-98.6 11.3z" transform="matrix(.1 0 0 .1 1600 776)"/><path class="st7" d="M-15865-7677.6l60.7 25.3 21.1-35.7c-1-.5-2.1-.9-3.2-1.3-13.1-5.3-26.3-8-39.3-8-13.1 0-24.3 2.8-33.2 6.2l-6.1 13.5zm73.1 30.4l66.9 27.9 1.8-5.8c-2.2-4.9-5.2-10.6-8.9-16.6-8.4-13.5-22.3-30.9-43.4-42.5l-16.4 37z" transform="matrix(.1 0 0 .1 1600 776)"/><path class="st1" d="M-15747.5-7748.2c1.5-2.4-46.1-2.4-58.6-.8-12.5 1.7-33.3 6.2-52.2 16.6-16 8.8-40.4 30-27.6 32.6 12.8 2.6 63-10.7 64.8-11.8 1.8-1.1 17.8-15.2 35.1-23.4s37.7-12 38.5-13.2z" transform="matrix(.1 0 0 .1 1600 776)"/><path class="st7" d="M-15755.2-7747.6c.2-.1.5-.1.7-.2-4.6-.3-11.7-.5-20.9-.5-5.8 0-11.5.1-16.4.3-18.8 4.8-39.3 12.1-51.4 17.9-15.5 7.4-30.2 16.4-37.5 28.8 17.1-.4 56.4-10.8 58.8-11.9.3-.2 1.4-1.1 2.6-2 5.6-4.5 18.7-14.9 32.7-21.4 11.2-5.3 23.8-8.9 31.4-11z" transform="matrix(.1 0 0 .1 1600 776)"/><path class="st1" d="M-15636-7690.8c8.6.6 22.6 13.6 28 17.9 5.4 4.4 23.1 15.8 11.2 29.7-11.9 13.9-31.4 22.6-49.4 27.3-18.1 4.7-33.5 7.2-44.2-1.8-10.7-9-17.6-23.4-19.4-26.8-1.8-3.4-4.7-7.7 4.4-15.1 10.5-8.6 48.9-32.6 69.4-31.2z" transform="matrix(.1 0 0 .1 1600 776)"/><path class="st7" d="M-15636-7689.1c8.2.5 21.5 12.9 26.7 17.1 5.2 4.2 22 15.1 10.6 28.3-11.3 13.2-29.8 21.5-47.1 26-17.2 4.4-31.9 6.9-42-1.7-10.1-8.6-16.8-22.2-18.5-25.5-1.7-3.3-4.5-7.3 4.2-14.3 10-8.3 46.5-31.1 66.1-29.9z" transform="matrix(.1 0 0 .1 1600 776)"/><path class="st6" d="M-15595-7654.7c-1.3-8.1-10.7-14.3-14.3-17.2-5.2-4.2-18.5-16.5-26.7-17.1-19.5-1.3-56.1 21.5-66.1 29.7-4.8 3.9-6.1 6.9-6 9.3a239.2 239.2 0 0 1 113.1-4.7z" transform="matrix(.1 0 0 .1 1600 776)"/><path d="M-15666.1-7554.7s5 2 8.7 1.1c3.8-.9 19.6-6.3 19.6-6.3s-6.6-23.2-13.9-29.2c-7.2-6-15.5-5.1-17.2-4.1-1.6 1 .7 35.6 2.8 38.5zm102.9-42.8s12.4-6.9 12.4-9.8-5.4-24.9-9.3-29.5c-3.9-4.6-7.2-7.2-8.7-6.3-1.6.8 5.5 44.2 5.6 45.6z" transform="matrix(.1 0 0 .1 1600 776)" fill="#cc291f"/><path class="st1" d="M-15621.1-7588.5c1.5-2.9 36.5-20.2 38.6-19.4 2.1.8 3 15.5.5 18.8-2.6 3.3-27.7 17.3-32.6 16.4-4.9-.9-7.8-13.2-6.5-15.8z" transform="matrix(.1 0 0 .1 1600 776)"/><path class="st3" d="M-15614.9-7590.1l2.7 13.7 25.8-13.3-2.7-13.5z" transform="matrix(.1 0 0 .1 1600 776)"/><path class="st1" d="M-15637.8-7560l2.9 5s19.9-6.3 38.4-16c18.5-9.6 33.9-21 33.9-21l-.6-5.6s-13.6 10.9-34.2 21.4c-19.6 10.1-40.4 16.2-40.4 16.2z" transform="matrix(.1 0 0 .1 1600 776)"/><path d="M-15944.6-7695.5l61 14 169.8 70.8 44.3 30.8s-72.8-24.2-137.5-54.3-137.6-61.3-137.6-61.3z" opacity=".3" fill="#fff" transform="matrix(.1 0 0 .1 1600 776)"/><path class="st6" d="M-15724.7-7615c-9.5 12.7-34.7 45.9-37.6 47.1-.8.1-6.9-1.6-44.4-19.4-1-1.5-3.1-14.4-1.7-30.5 1.4-17.5 9-28.2 9.1-28.3l-.7-.5c-.1.1-7.8 11-9.3 28.8-1.2 14.3.3 26.2 1.5 30-4.8-2.3-10.1-4.8-16-7.6-29.9-14.4-58.9-28.8-59.9-29.5-1.9-1.3-7.5-12.8-6.8-29.9.7-16.6 7.3-26.1 7.3-26.2l-.7-.5c-.1.1-6.8 9.8-7.5 26.7-.7 17.3 4.9 29.1 7.2 30.7 1.2.9 31.6 15.9 60.5 29.8 52.4 25.2 60 27.5 61.5 27.5.2 0 .3 0 .4-.1 3.7-1.6 36.5-45.5 37.9-47.4l-.8-.7z" transform="matrix(.1 0 0 .1 1600 776)"/><path class="st1" d="M-15711.5-7648.7c-9.2-21.2-67.9-69.4-112-62.3l-.2-1.3c26.7-4.3 55.5 11.2 70.2 20.8 20.1 13.1 38.2 30.8 43.2 42.3l-1.2.5zm80.6-39.2c-39.5-27-92.3-59.3-119.3-59.9v-1.4c27.3.6 80.4 33 120.1 60.1l-.8 1.2zm-238.1 13.7l2.9-11.5s-5.1-2.6-6.9-1.2-5.7 12.8-2.7 16.3 3.9 3.6 3.9 3.6l2.8-7.2z" transform="matrix(.1 0 0 .1 1600 776)"/><path class="st2" d="M-15546.2-7589.7c.4-2.3-.2-6.2-1.3-10.9-9.3 10.1-25.8 24.2-52.3 36.3-28.3 12.9-46.6 18-56.6 20.1.5 5 .3 13.4.5 18.2 18.4-2.2 40.4-8.5 60.8-19.3 34-18.1 47.3-35.3 48.9-44.4z" transform="matrix(.1 0 0 .1 1600 776)"/><path class="st3" d="M-15947.8-7696.4s-.5-8.8 1.8-12.4.8-8.9-1.9-8.3c-3.2.7-12.6 13.5-13.1 16.4-.3 3 13.2 4.3 13.2 4.3z" transform="matrix(.1 0 0 .1 1600 776)"/><path class="st6" d="M-15946.5-7710.8c0 2.5-2 5.6-4.5 6.8-2.5 1.3-4.5.2-4.5-2.3s2-5.6 4.5-6.8c2.5-1.2 4.5-.2 4.5 2.3z" transform="matrix(.1 0 0 .1 1600 776)"/><path d="M-15949.5-7709.3c0 1.3-1.1 3-2.4 3.6-1.3.7-2.4.1-2.4-1.2s1.1-3 2.4-3.6c1.3-.7 2.4-.2 2.4 1.2zm.3 6.3c0 1.3-1.1 3-2.4 3.6-1.3.6-2.4.1-2.4-1.2s1.1-3 2.4-3.6c1.3-.6 2.4-.1 2.4 1.2z" transform="matrix(.1 0 0 .1 1600 776)" opacity=".4" fill="#fff"/><path d="M-15665.5-7574.4l1.1 6.3 5.1.6 15.1-5.1-2.5-5.9-13.2 4.9zm100.5-45.1l9.2-6.3 1.9 5.3-9.7 7.5z" transform="matrix(.1 0 0 .1 1600 776)" opacity=".8" fill="#fff"/><path class="st1" d="M-15870-7648.6v10l10 5v-10zm20 0l-10-5v10l10 5zm-10 25l10 5v-10l-10-5zm10-15v10l10 5v-10zm20 0l-10-5v10l10 5zm-10 25l10 5v-10l-10-5zm10-15v10l10 5v-10zm20 0l-10-5v10l10 5zm-10 25l10 5v-10l-10-5zm10-15v10l10 5v-10zm20 10v10l10 5v-10zm0-10l-10-5v10l10 5zm-10 25l10 5v-10l-10-5zm30-5v10l10 5v-10zm0-10l-10-5v10l10 5zm-10 25l10 5v-10l-10-5zm36-115l48-24-18-9-47 24z" transform="matrix(.1 0 0 .1 1600 776)"/><path class="st3" d="M-15717.9-7741.2l-31 15.5c-1.4.7-2.5 1.8-3.2 3.3l-6 12.8 14 7 44-22-6.9-12.9c-.7-1.4-1.9-2.5-3.4-3.1l-1.8-.8c-1.7-.7-3.8-.7-5.7.2z" transform="matrix(.1 0 0 .1 1600 776)"/><path class="st4" d="M-15745.5-7722.3l-5-2.2c-.6.6-1.1 1.2-1.4 2l-6 12.8 14 7v-17.3c-.1-.9-.7-1.9-1.6-2.3z" transform="matrix(.1 0 0 .1 1600 776)"/><path class="st2" d="M-15706.9-7737.5c-.4-.7-.9-1.4-1.5-1.9l-32.8 16.4c-1.7.8-2.7 2.6-2.7 4.4v16l44-22-7-12.9z" transform="matrix(.1 0 0 .1 1600 776)"/><path class="st1" d="M-15708-7724.6l-30 15v-10l26-13z" transform="matrix(.1 0 0 .1 1600 776)"/><path class="st4" d="M-15663.4-7586.7c-2.3-8.1-20.5-12.8-35.3-26.7-13.5-12.6-30.3-58.9-80.9-80.2-51.5-21.6-85.8-.3-112.6 2.7-18.3 2-46.3-6.3-66.9-12.8-4.5 7.2-6.9 14.4-6.9 21.1 0 8 1.6 16.1 12.4 24.9 1.8 1.5 4.6 3.4 7.9 5.5-.2-1.5-.4-3-.4-4.5 0-10.6 6.2-17.4 15.8-17.4 3.8 0 7.9 1.1 12.1 3.2 14.5 7.2 26.2 24.9 26.2 39.4 0 3.2-.6 6.1-1.7 8.6l140.3 68.7c-.4-2-.6-3.9-.6-5.8 0-10.6 6.2-17.4 15.8-17.4 3.8 0 7.9 1.1 12.1 3.2 14.5 7.2 26.2 24.9 26.2 39.4 0 1.8-.2 3.5-.5 5.1 5.4 1.6 12.9 3.3 22 4.2 6.4.6 14 .5 22.4-.5-.8-39.8-5.7-54.9-7.4-60.7z" transform="matrix(.1 0 0 .1 1600 776)"/></g></svg>