<svg xmlns="http://www.w3.org/2000/svg" width="14.8" height="26.3"><style>.st0{fill:#fbd7c7}.st1{opacity:.2;enable-background:new}.st2{fill:#262626}.st3{fill:#fff}.st4{fill:#06547a}.st5{fill:#656565}.st6{fill:#762c07}.st7{fill:#2d3134}.st8{fill:#cc291f}</style><g id="i1756_1_"><path class="st0" d="M-13168.3-4996.7l12.7-7.7-3.1-8.7-6.4-7.4-9.6-1.3c-.1 4-1 10.7-6.9 13.6-1.1.6 13.3 11.5 13.3 11.5z" transform="matrix(.1 0 0 .1 1320 504)"/><path class="st1" d="M-13182.2-4832.9c-7-2.4-25-17.2-4.2-23 18.4-5.2 23.6-17.9 45.3-5.8 10.7 6 7.3 13.9-10.6 18.2-12.1 2.9-14.3 16.3-30.5 10.6z" transform="matrix(.1 0 0 .1 1320 504)"/><path class="st2" d="M-13170.9-4862.2c-.3 2.3 1.2 4.4 4.9 5.7 4.1 1.5 9.1 4.3 11.5 5.7 4 2.3 8.7 2.3 11.9 1 2.4-1 2.7-2.5 2.3-5-.4-2.6-3-2.7-7.2-4.3-3.8-1.5-10.1-7.2-10.1-7.2l-13.3 4.1z" transform="matrix(.1 0 0 .1 1320 504)"/><path class="st3" d="M-13169.5-4861.2c3 1 6.4 2 9.3 3.7 3 1.8 10.3 6.3 14.7 5.4 3.2-.7 4.6-1.9 4.4-3.4-.2-1.5-4.1-2.4-7.1-3.7-2-.8-9-6.8-9-6.8l-12.3 4.8z" transform="matrix(.1 0 0 .1 1320 504)"/><path class="st2" d="M-13190-4846.9c2.5 4.3 3.8 10 8.3 12.5s8.6 1.9 12.3.3c2.2-1 1.4-3.9.9-5-.5-1.1-2.4-2.3-4.8-4.8-3-3.1-4.5-7.7-4.5-7.7l-12.2 4.7z" transform="matrix(.1 0 0 .1 1320 504)"/><path class="st3" d="M-13187.7-4847.4s2.6 7.9 6.4 9.9c4 2.1 6.6 1.6 10 .6 3.4-1 3.2-1.8.7-3.9s-5.7-5.9-5.8-7.3c-.1-1.4-11.3.7-11.3.7z" transform="matrix(.1 0 0 .1 1320 504)"/><path class="st4" d="M-13150.7-4952.6c1.8 3.9 4.3 11.7 4.1 24.2-.2 12.5-.1 17.1 0 20.3.1 3.3-.8 5.5-2.7 11.2-1.6 5.1-6.6 23.6-6.3 27.4.1.9 2 1.6 2.4 3.6s.5 2.7-1.9 4c-2.4 1.3-9.4 5.2-14.4 3.2-2.1-.8-3-1-2.8-5.4.2-4.4.6-12.9 1.7-21.5s4.6-15.5 4.1-21.2-9-21.5-8.2-29.6 1-10.3 1-10.3l23-5.9z" transform="matrix(.1 0 0 .1 1320 504)"/><path class="st1" d="M-13150.7-4952.6c1.8 3.9 4.3 11.7 4.1 24.2-.2 12.5-.1 17.1 0 20.3.1 3.3-.8 5.5-2.7 11.2-1.6 5.1-6.6 23.6-6.3 27.4.1.9 2 1.6 2.4 3.6s.5 2.7-1.9 4c-2.4 1.3-9.4 5.2-14.4 3.2-2.1-.8-3-1-2.8-5.4.2-4.4.6-12.9 1.7-21.5s4.6-15.5 4.1-21.2-9-21.5-8.2-29.6 1-10.3 1-10.3l23-5.9z" transform="matrix(.1 0 0 .1 1320 504)"/><path class="st4" d="M-13160.6-4943.2s2 10.2.8 13.5c-1.2 3.3-3.8 3.5-4 6.7-.2 3.1-.6 12.1-1.8 17.3-1.2 5.2-3.5 16.2-5 20.2s-2.7 14.6-3.9 20.3c-.9 4.7-2.1 8.5-1.6 12s1.1 5.2.7 5.5c-.4.3-4.4.4-7.3 1.6-2.8 1.2-6.3 1-8.1-.5-1.8-1.5-2.7-4.5-1.7-6.9 1-2.4 1.3-3.5.2-7.4-1.1-3.8.7-5.2 1.3-7.5.6-2.3-.4-5.5.7-10.1.7-3.4 4-10 3.9-15.6-.1-5.6-3.3-27.2-2.4-36.3 1-9.1 3.3-14.2 3.3-14.2l24.9 1.4z" transform="matrix(.1 0 0 .1 1320 504)"/><path class="st0" d="M-13147.6-5003.5s-3.9 23.1-3.6 29.4c.3 6.3.8 20.6.8 20.6l-9.7-5.6s-1.5-12.7-1-16.1 5.5-16.3 5.5-16.3l8-12z" transform="matrix(.1 0 0 .1 1320 504)"/><path class="st5" d="M-13161.2-5013.4s7.9.4 11.5 4.3c3.6 3.9 2 6.5 1.2 8.4s-.3 3-.3 6.6c0 3.6-1.4 9.9-3.1 12.5-1.7 2.6-.7 5-.6 7.9.1 2.9 1 5.9 1.2 10.5.2 4.6 1.7 12.6 2 13.7.3 1.2-2.7 4.4-11.1 7.4-6.7 2.3-23.4 1.4-25.7-2.4-2.4-3.8 2.3-6.9 2-11.8-.3-4.9-5.4-21-5.4-21s-5.1-11.8-5.4-14.2c-.3-2.4-.3-8.9 2.7-11.3 2.9-2.4 12.1-6.4 12.1-6.4s6.6 11 14.8 8.9c9.2-2.4 4.1-13.1 4.1-13.1z" transform="matrix(.1 0 0 .1 1320 504)"/><path class="st0" d="M-13180.1-4935.4c.2-.9.9-1.2.9-2.7-.1-1.4.1-2.7-.6-3.5-.7-.8-1.6-.7-2.6-2.1s-3-7.2-4.5-13.7c-1.4-6.5-3.5-11.3-3.7-11.7-.3-.5 2-3.8 4.4-8.7 2.1-4.4 3.5-8.3 5.3-11-2.4.2-7.3.4-9.5-.2-1.7-.5-3.4-1.5-4.5-2.2-1.1 7.1-3.8 15.2-4.3 16.8-.5 1.8-1.7 4.9.3 10.5s9 19 8.9 21.3c-.1 2.3-.6 7.8-.5 9.6.1 1.8 1.8 1.7 2.6 2.5s2.6.7 2.9 1.7 1.8 1 2.5 1.6 2.2 1.2 2.9.7c.7-.5.3-1.8-.2-2.6-.4-.9-.5-5.4-.3-6.3zm11.6-104.3c-5.4.3-8.4 3.5-8.6 7.1-.2 3.5 0 6.2 0 6.2s-1-.4-1.3.8c-.3 1.3.7 4.6 2.5 6.2s2.7 4.7 4.8 6.9c2.1 2.2 6.7 5.4 9.9 5 3.2-.4 5.7-12.4 5.4-16.4-.2-4 0-16.5-12.7-15.8z" transform="matrix(.1 0 0 .1 1320 504)"/><path class="st6" d="M-13168.5-5040c-5.4.3-8.4 3.6-8.8 7.4-.3 2.8-.1 5.1.1 6.1.6.3 1.6.6 2.3 1.7 1 1.7 1 2.4 1 2.4l1.4-.5s1.5-7.5 3.7-8.3c2.2-.8 4.1 1.9 7 1.3 2.9-.6 2.5-2.9 3.7-3 .2 0 .6.1 1 .3-1.5-4-4.5-7.8-11.4-7.4z" transform="matrix(.1 0 0 .1 1320 504)"/><path class="st1" d="M-13151.7-4778.9c5.7.4 17.8-11.4 17.8-14.3s-3.6-6.2-12.4-5.9c-5.7.2-9.2-5.7-14.6-5.4-5.4.3-9.7 5.4-10.3 8.1-.5 2.7 2.7 5.9 8.6 10.3 6 4.2 2.5 6.7 10.9 7.2z" transform="matrix(.1 0 0 .1 1320 504)"/><path class="st3" d="M-13153.4-4784.1s.5 3.6 4.8 2.6 11.6-7.2 11.9-10c.3-2.8.7-5.7-3-5.8-3.8-.2-13.8 1.7-13.7 13.2z" transform="matrix(.1 0 0 .1 1320 504)"/><path class="st2" d="M-13148.6-4781.5c4.3-1 11.6-7.2 11.9-10 .1-1.1.2-2.2.1-3.2-.6 2.6-3.2 5.6-7.6 9.1-3.2 2.6-6.8 3-8.6 3.1.8.8 2 1.5 4.2 1z" transform="matrix(.1 0 0 .1 1320 504)"/><path class="st7" d="M-13165.2-4888.6s-4.5 9.1-3.1 16.5 8.4 22.7 7.2 27.2c-1.2 4.5-3.4 17.4-3.2 26.5.1 9.1-2.2 13.6-1.1 15.8 1.1 2.2 2.7 6.2 7.3 5.4 4.6-.8 6.2-2.6 6.2-2.6s2.3-41.6 2.3-45.8c0-4.2-2.3-40.9-2.3-40.9l-13.3-2.1z" transform="matrix(.1 0 0 .1 1320 504)"/><path class="st1" d="M-13165.2-4888.6s-4.5 9.1-3.1 16.5 8.4 22.7 7.2 27.2c-1.2 4.5-3.4 17.4-3.2 26.5.1 9.1-2.2 13.6-1.1 15.8 1.1 2.2 2.7 6.2 7.3 5.4 4.6-.8 6.2-2.6 6.2-2.6s2.3-41.6 2.3-45.8c0-4.2-2.3-40.9-2.3-40.9l-13.3-2.1z" transform="matrix(.1 0 0 .1 1320 504)"/><path class="st7" d="M-13158.8-4886.7s-6.4 8.1-4.2 16.9 5.5 10.9 7.2 17.2c1.6 6.2 4.2 12.7 3.2 17.3-.9 4.6-4.9 12.3-4.2 20.9.7 8.6.5 21.5-.3 25.3-.8 3.8 2.2 7.2 5.7 7.2s9.6-5 9.9-6.9-.4-3.6-1.2-5.5-2.2-10.5-.1-20.1c2-9.6 4.1-18.5 4.5-24.3.4-5.8 3.4-12.6 2.3-23.5s-3.9-21.1-3.9-21.1l-18.9-3.4z" transform="matrix(.1 0 0 .1 1320 504)"/><path class="st0" d="M-13175.6-4929.2s-.1 7.3-1.6 12.4-3.1 10.7-1.8 13.4c1.4 2.7 8.2 5.8 10.3 9.5 2 3.6 4.6 7.4 4.6 7.4l2.3-7.4s-5.5-8.2-7.2-10c-1.6-1.8-2.6-3.4-2.6-3.4l2.4-5.8-3.6-15.7-2.8-.4z" transform="matrix(.1 0 0 .1 1320 504)"/><path class="st8" d="M-13161.7-4935.2s-6.6-2.4-10.8-.8c-4.2 1.6-3.9 7.4-3.9 7.4l1.5 1.1s2 4.9 2 8c0 3.1 4.1 12.4 5 18.4.9 5.9 2.2 9.3.8 12.7-1.4 3.4-1.9 7.7-1.9 7.7s.7 2 7.4 4.2c8.5 2.7 23 3.6 23.5 2.4.5-1.1-1.1-10.4-1.7-15.3-.5-4.9-1.5-15.7-.7-16.9s3.9-4.3 3.6-7.3-1.9-5.1-4.7-7.3c-2.8-2.2-5.1-9.2-7.3-9.7s-12.8-4.6-12.8-4.6z" transform="matrix(.1 0 0 .1 1320 504)"/><path d="M-13151-4965.2c5.3 0 11.4.9 11.8 13.9s3.2 13.6 2.4 17.8c-.8 4.2-4.3 8.4-18.2 7.7-13.9-.7-15.3-6.6-14.6-9.7.7-3.1 4.6-8.8 5.4-15 .7-5.9 2.8-14.7 13.2-14.7z" fill="#825012" transform="matrix(.1 0 0 .1 1320 504)"/><path class="st0" d="M-13152.2-4912.7s1.8 1.3 4.3 1.8c2.4.5 6.1.3 6.1.3s-3.5 9.6-5.7 13c-2.2 3.4-3.1 6.6-3.1 6.6s2.2 2.2 4.5 6.1c2.3 3.9 6.2 10 7.3 10.3 1.1.3 1.9-.1 3.4 1.6 1.5 1.8 5.8 6.1 4.9 6.5-.9.4-3.2-1.3-3.2-1.3s1.8 3 1 3.6-3-1.8-3-1.8.9 1.6.2 2.1-.9.2-.9.2-.4.8-1.3.5c-.9-.3-3.9-4.3-4.8-6.1-.9-1.8-2.2-4.5-3.7-6.2-1.6-1.8-12.4-11-12.2-14.1.3-3.1 2-12.7 4-17.2 1.9-4.7 2.2-5.9 2.2-5.9zm38.5-82s1.5 13.1.2 18.2-2.3 8.4-2.9 14c-.6 5.6-.3 10.3-1.3 13-1 2.7-.8 7.1-.3 10 .3 2.2 1 6.4 2.1 6.2 1.1-.2.7-1.5.9-2.7.2-1.1.4-2.8.2-3.7-.1-.9-.1-.8.6-1.4.7-.6.2-3.4.1-4.7-.4-2.9 2-9.6 3-14.3 1-4.7 4.1-11.6 3.5-16.2-.6-4.5-.7-16.9-.7-16.9l-5.4-1.5z" transform="matrix(.1 0 0 .1 1320 504)"/><path class="st1" d="M-13135.3-4855.3c-6.2 7.5 4.4 11.2 19.8 12.5 15.4 1.3 29.8 8.1 40.2 2.8 10.5-5.2 4-15.3-16.3-16.6-20.3-1.3-19.7-6.1-28.8-4.1-9.1 2-12.7 2.7-14.9 5.4z" transform="matrix(.1 0 0 .1 1320 504)"/><path class="st2" d="M-13109.5-4857.6c2.4 0 4 4.7-.4 6-4.4 1.3-9.2 1.9-10.6 2.1-2.1.2-7.3.7-9.8 0-2.7-.7-2.2-3.4-1.5-4.6.7-1.1 15.1-4.3 17.7-4.3 2.6.1 4.2.8 4.6.8z" transform="matrix(.1 0 0 .1 1320 504)"/><path class="st3" d="M-13130.9-4851.4c1.5.5 6 .5 9.8 0 1.5-.2 13.2-2.5 13.9-3.9s-9.9-5.6-9.9-5.6-5.5 2.7-7.7 3.1c-2.2.4-5.4.8-7.1 2.7-1.1 1.3-.3 3.4 1 3.7z" transform="matrix(.1 0 0 .1 1320 504)"/><path class="st2" d="M-13087.1-4854.5c-.2 2-1.2 6.7.5 10.2 1 2.1 6.8 3 9.2.5 2.4-2.5-1.4-14.2-1.4-14.2l-8.3 3.5z" transform="matrix(.1 0 0 .1 1320 504)"/><path class="st3" d="M-13086.5-4855.2s-2.8 11.2 4.3 11.1c7.2-.1 5.1-5.1 4.5-8.5-.6-3.4-2-5.2-2-5.2l-6.8 2.6z" transform="matrix(.1 0 0 .1 1320 504)"/><path class="st8" d="M-13087.8-4853.6s2.9.1 6.7.3c3.8.2 4.1-1.6 4.1-1.6s-.8-6.5-.9-11.4c-.1-4.9.4-18.8-.2-25.2-.7-6.4-.8-11.7.4-23.3 1.1-11.6 2.5-18.7.2-24.7s-3.7-8.5-3.7-8.5l-31.9 3.4s-3.8 9-4.2 20c-.4 11 2.6 20.8 1.7 26.6-.9 5.9-1.3 18.7-1.9 24.7-.9 9.4-4.4 15.5-4.4 15.5s1 3 6.1 3.8c5.1.8 8.7-1.7 8.7-1.7s.2-6.5.9-14.7c.8-8.2 2.2-16.2 2.4-22.7.2-6.5.6-7.5 1-9.2.5-1.7 2.3-13.6 3.4-17.1 1.4-4.7 1.8-9.4 2.9-9.4 1.1.1.9 4.1 2.2 11.9 1.1 6.5 4.8 32.8 4.9 40.8.1 8 1.6 22.5 1.6 22.5z" transform="matrix(.1 0 0 .1 1320 504)"/><path class="st8" d="M-13113.2-4944.7s-3.8 9-4.2 20c-.4 11 2.6 20.8 1.7 26.6-.9 5.9-1.3 18.7-1.9 24.7-.9 9.4-4.4 15.5-4.4 15.5s1 3 6.1 3.8c5.1.8 8.7-1.7 8.7-1.7s.2-6.5.9-14.7c.8-8.2 2.2-16.2 2.4-22.7s.6-7.5 1-9.2c.5-1.7 2.3-13.6 3.4-17.1 1.4-4.7 1.8-9.4 2.9-9.4 0 0 1.1-10.4.5-17.5l-17.1 1.7z" transform="matrix(.1 0 0 .1 1320 504)"/><path class="st1" d="M-13113.2-4944.7s-3.8 9-4.2 20c-.4 11 2.6 20.8 1.7 26.6-.9 5.9-1.3 18.7-1.9 24.7-.9 9.4-4.4 15.5-4.4 15.5s1 3 6.1 3.8c5.1.8 8.7-1.7 8.7-1.7s.2-6.5.9-14.7c.8-8.2 2.2-16.2 2.4-22.7s.6-7.5 1-9.2c.5-1.7 2.3-13.6 3.4-17.1 1.4-4.7 1.8-9.4 2.9-9.4 0 0 1.1-10.4.5-17.5l-17.1 1.7z" transform="matrix(.1 0 0 .1 1320 504)"/><path class="st8" d="M-13094.3-4916.8c1.1 6.5 4.8 32.8 4.9 40.8.1 8 1.6 22.4 1.6 22.4s2.9.1 6.7.3c3.8.2 4.1-1.6 4.1-1.6s-.8-6.5-.9-11.4c-.2-4.9.4-18.8-.2-25.2-.7-6.4-.8-11.7.4-23.3 1.1-11.6 2.5-18.7.2-24.7s-3.7-8.5-3.7-8.5l-17.5 1.9c.6 7.1 2.3 17.5 2.3 17.5 1 0 .8 3.9 2.1 11.8z" transform="matrix(.1 0 0 .1 1320 504)"/><path class="st0" d="M-13081.3-4987.8s-2.6 15.5-2.1 20.6 1.3 11.2 2.3 14.8 1.7 6 .9 7.3c-.8 1.3-1.8 5.3-1.1 6 1.8 1.6 2.5 5.6 3 6.6.3.6.9 1.1 1.8.6.9-.5.2-4.7.3-5.7s.4-5.8.4-7.4c0-1.6.6-15.7 0-18.8-.5-3-1.4-8.2.4-14.7 1.8-6.4 2.8-7.3 2.8-10.2s-8.7.9-8.7.9zm-20.3-15.7s-12.3 13.3 1.7 14.9c14 1.6 16.5-7.7 13.9-12.8-2.6-5.2-6.9-7.9-6.9-7.9l-8.7 5.8z" transform="matrix(.1 0 0 .1 1320 504)"/><path d="M-13101.3-5002.6s-5.6-1.7-8.9.6c-3.3 2.4-3.8 7.7-3.8 7.7s.6.5 1.4.9c.8.4 1.3.4 1.3.4s0 1.7-.9 4.2c-.8 2.6-2.7 5-1.7 8.5.9 3.4 3.1 3.9 3.1 4.6 0 .8.6 12.2-.7 18.5-1.3 6.3-2.5 12.8-2.4 14.6 0 .3.4 5.5 13.1 5.8 12.7.3 20.7-8.8 20.7-8.8s-2.6-6.8-3.7-11c-1-3.9 2.4-17.8 2.4-21.4v-8.5s1.3 1.2 5.2 1.1c2.1-.1 3.7-1.4 3.7-1.4s.9-5.6-3.1-8.9c-4-3.3-8.6-3.4-8.6-3.4s-5.1 10.4-13.9 8.1c-9.4-2.6-3.2-11.6-3.2-11.6z" fill="#39c" transform="matrix(.1 0 0 .1 1320 504)"/><path class="st2" d="M-13093.7-5030.2c-8.1-.5-12 3-13.5 8.6-1.5 5.4 4 15.3-1.8 17.9.1 2.2 5.1 4.5 7.3 2.1 2.2-2.3 2.9-2.4 2.9-2.4l5.1-26.2z" transform="matrix(.1 0 0 .1 1320 504)"/><path class="st0" d="M-13104.4-5020c-1.5 3.1-1.9 15.6.6 17.6s7.6-1.3 12.5-3.5c4.9-2.3 5.5-19-1.9-19.2-7.3-.3-9.6 1.8-11.2 5.1z" transform="matrix(.1 0 0 .1 1320 504)"/><path class="st2" d="M-13095.2-5030c-3.3.8-7.1 5.2-6.4 10 1 6.2 13.2 18.3 4.6 22.2 1.4 4.6 9.5 4.3 14 2 4.3-2.3 4.7-4.5 4.6-5.3-.1-.8-3.8-4.9-3.8-10.9-.1-6-.5-21.1-13-18z" transform="matrix(.1 0 0 .1 1320 504)"/><path class="st1" d="M-13113.7-4980.4s1.1 4.3 13.6 5.1c12.5.9 18.6-4.8 18.6-4.8s-3.3 7.9-17.4 7.4c-14.2-.6-14.8-7.7-14.8-7.7z" transform="matrix(.1 0 0 .1 1320 504)"/><path class="st0" d="M-13107.2-4892.6s.5 4.7 2.1 7 3.4 3.5 3.4 3.5l-.1-8.3-1.1-4.3-4.3 2.1zm50.2-3.4s.7 6.3 1.1 7.5c.3 1.2-.7 3.3-2.1 4-3.1 1.6-5.5 1.1-6.3.8-1.2-.4 2.6-12.7 2.6-12.7l4.7.4z" transform="matrix(.1 0 0 .1 1320 504)"/><path class="st4" d="M-13062.8-4958.3s7 1.1 9.7 5.3c2.7 4.2.2 14.2.4 20.6s.2 17.5-.3 21.8c-.5 4.3-2.2 10.6-2.2 12.4 0 1.8.4 3.3-2.4 3.5-2.8.3-5.6-.6-5.6-.6s-2.7-23.8-2.3-28.9c.5-5 2.7-34.1 2.7-34.1z" transform="matrix(.1 0 0 .1 1320 504)"/><path class="st1" d="M-13059.1-4945s1.2 11.1-.1 16.2c-1.3 5-2.5 9.9-1.8 13.6.7 3.7 2 9.6 1.3 14.2s-2.2 7-2.2 7l-5.9-25.3 5.4-16.4 3.3-9.3z" transform="matrix(.1 0 0 .1 1320 504)"/><path d="M-13067.6-4794.7c3.1 3.1 9.5 10.6 2.8 14.2-6.7 3.5-13.8 3.5-20.9 3.2s-25.2-3.2-28-6.3c-2.8-3.2-3.9-7.9 2.8-9.1s11-5.9 20.1-5.5c9.1.4 22.4 2.7 23.2 3.5z" opacity=".3" fill="#262626" transform="matrix(.1 0 0 .1 1320 504)"/><path class="st2" d="M-13067-4790.8s-1.4 6.3-5.7 6.3-18.7-2.2-18.7-2.2l11.4-8.7 13 4.6z" transform="matrix(.1 0 0 .1 1320 504)"/><path class="st2" d="M-13073.9-4785.9s.8 6.5-2.4 6.9c-3.2.4-14.4-1-17.6-1s-14.8-2.4-15.8-5.1c-1-2.7.4-5.7 4.7-5.7s12.2.2 13.6-.2c1.4-.4 17.5 5.1 17.5 5.1z" transform="matrix(.1 0 0 .1 1320 504)"/><path class="st2" d="M-13109.8-4787.8c0 .5.1.9.3 1.4 1 2.8 13 5.3 16.2 5.3 3.2 0 14.8 1.4 18.1 1 .2 0 .5-.1.7-.2-.4.7-.9 1.3-1.8 1.4-3.2.4-14.4-1-17.6-1s-14.8-2.4-15.8-5.1c-.2-1-.3-2-.1-2.8z" transform="matrix(.1 0 0 .1 1320 504)"/><path class="st5" d="M-13061.9-4896.7c.8 2.6-3.5 29.6-3.5 32.7 0 3.1-1.8 17-1.4 21.5.4 4.5 1.4 27.2 1.8 34.5.4 7.3-.4 18.9-2.4 20.1-2 1.2-8.7 1.2-10.6.8-2-.4-3.9-105.5-3.9-105.5l20-4.1z" transform="matrix(.1 0 0 .1 1320 504)"/><path class="st1" d="M-13061.9-4896.7c.8 2.6-3.5 29.6-3.5 32.7 0 3.1-1.8 17-1.4 21.5.4 4.5 1.4 27.2 1.8 34.5.4 7.3-.4 18.9-2.4 20.1-2 1.2-8.7 1.2-10.6.8-2-.4-3.9-105.5-3.9-105.5l20-4.1z" transform="matrix(.1 0 0 .1 1320 504)"/><path class="st5" d="M-13075.3-4890.8s-1 11.8-1 17.2c0 5.3 2.8 45 3.4 52.7.6 7.7 1.4 33.9.2 36.5s-3.4 3.5-7.4 2.6c-3.9-1-9.1-2.4-12.1-6.1-.8-1-2.9-2.7-2.9-2.7s3.2-5 2.6-10.5c-.6-5.5-1.2-15.4-1-19.7s.2-10.6-1.4-16.4c-1.6-5.7-5.7-17.9-6.9-35.9-1.2-17.9-.8-21.5-.8-21.5l27.3 3.8z" transform="matrix(.1 0 0 .1 1320 504)"/><path class="st0" d="M-13070.1-4959.8s-4.9.4-4.9-3.7c0-4.1.1-6.7.1-6.7s2.6-1.1 2.4-4.7-1.3-2.8-1.3-2.8l-19.4 1.8s-1.3.4-.3 3.9c.4 1.3 1.4 3 1.4 3.5s1 3.5 1.7 3.9c.7.4 1.9 4.8 1.9 6.3s-.7 3.5-.7 3.5 8.1.1 12.8-1 6.3-4 6.3-4z" transform="matrix(.1 0 0 .1 1320 504)"/><path class="st6" d="M-13075.3-4965.8c.4-.2.6-4.3.9-6.6.3-2.3 2.8-10-1.2-14.9-3.9-4.9-15.2-4.5-17.3 2.4-1.9 6.2-.7 10 1 13.5s3.5 5.2 4.1 6c.6.7 6.2 1.5 7.5 1.4 1.2-.1 3.6-1.3 5-1.8z" transform="matrix(.1 0 0 .1 1320 504)"/><path class="st4" d="M-13089-4956.8c.6-.2 6 .6 10.5-.7 4.4-1.3 6.5-3.3 6.5-3.3s9.3 1.8 11.7 3c2.7 1.3 3.1 3.4 3.5 5.5.5 2.6.7 5.4.4 8.3-.9 9.1-4.1 11.7-5 14-.9 2.4-2.9 10.9-1.5 17.9 1.4 7 2 15.4 1.8 17.6-.2 2.2-2.4 7.7-14.7 8.3-14.5.7-26.8-4.6-26.8-4.6v-1.1s-.7 1.3-2.6 1.2-4-2.3-4-3c0-.7-.4-7.8-.7-9.4-.3-1.6-1.2-2.5 0-6.6s3.8-17.8 4.5-24.4c.7-6.5.9-8.8 4.1-12.6 3.2-3.8 12.3-10.1 12.3-10.1z" transform="matrix(.1 0 0 .1 1320 504)"/><path class="st1" d="M-13102.6-4891.9s2.1-3.1 2.4-5.1 1-9.3 1.6-10.9c.6-1.7.8-4.8 1.9-7.1 1.1-2.3 7.4-16.2 7.4-16.2s-.9 6.4-3 11.3c-.8 1.9-2.5 3.9-2.5 9.6 0 5.6-2.8 11.4-3.4 12.7-1.6 3.4-1.5 7-1.5 8-1.8-.6-2.9-1.1-2.9-1.1v-1.2s0 .1 0 0z" transform="matrix(.1 0 0 .1 1320 504)"/></g></svg>