<svg xmlns="http://www.w3.org/2000/svg" xmlns:xlink="http://www.w3.org/1999/xlink" width="100.5" height="246.1"><style>.st1{enable-background:new}.st2{fill:#6a7072}.st3{fill:#aaa}.st4{fill:#5b5f60}.st5{fill:#87b5c4}.st6{fill:#a9cfe0}.st7{fill:#5f8f9b}.st11{fill:#767676}.st15{fill:#626262}.st16{fill:#91c7d8}.st17{fill:#fff}.st19{fill:#adadad}.st20{fill:#c65c06}.st22{fill:#38260e}.st24{fill:#ffc050}.st26{fill:#ffac33}.st28{fill:#b26202}.st29{fill:#938548}.st30{fill:#4c4114}.st31{fill:#285b2e}.st32{fill:#487548}</style><g transform="translate(1248 746.945) scale(1.37671)" id="i1303_1_"><g id="XMLID_1_"><path id="XMLID_511_" d="M-867.4-363.8l33.9-20.2-27.4-12.5-17 32.7h10.5z" opacity=".25" fill="#231f20"/><g id="XMLID_502_"><g id="XMLID_503_"><g id="XMLID_504_" class="st1"><g id="XMLID_509_"><path id="XMLID_510_" class="st2" d="M-849.4-398v17.7l-28.6 16.5.1-17.6 28.5-16.6z"/></g><g id="XMLID_507_"><path id="XMLID_508_" class="st3" d="M-877.9-381.4l-.1 17.6-28.1-16.3.1-17.7 28.1 16.4z"/></g><g id="XMLID_505_"><path id="XMLID_506_" class="st4" d="M-849.4-398l-28.5 16.6-28.1-16.4 28.5-16.5 28.1 16.3z"/></g></g></g></g><g id="XMLID_485_"><g id="XMLID_494_"><g id="XMLID_495_" class="st1"><g id="XMLID_500_"><path id="XMLID_501_" class="st2" d="M-852.8-402v4l-24.8 14.4v-4l24.8-14.4z"/></g><g id="XMLID_498_"><path id="XMLID_499_" class="st3" d="M-877.6-387.6v4l-25-14.4.1-4 24.9 14.4z"/></g><g id="XMLID_496_"><path id="XMLID_497_" class="st4" d="M-852.8-402l-24.8 14.4-24.9-14.4 24.7-14.4 25 14.4z"/></g></g></g><g id="XMLID_486_"><g id="XMLID_487_" class="st1"><g id="XMLID_492_"><path id="XMLID_493_" class="st5" d="M-853.8-409.4v7.4l-23.9 13.6.1-8.1 23.8-12.9z"/></g><g id="XMLID_490_"><path id="XMLID_491_" class="st6" d="M-877.6-396.5l-.1 8.1-23.9-13.6.1-8.1 23.9 13.6z"/></g><g id="XMLID_488_"><path id="XMLID_489_" class="st7" d="M-855.8-410.5l-21.7 12.8-21.5-12.4 21.8-12.7 21.4 12.3z"/></g></g></g></g><g id="XMLID_468_"><g id="XMLID_477_"><g id="XMLID_478_" class="st1"><g id="XMLID_483_"><path id="XMLID_484_" class="st2" d="M-852.8-412v4l-24.8 14.4v-4l24.8-14.4z"/></g><g id="XMLID_481_"><path id="XMLID_482_" class="st3" d="M-877.6-397.6v4l-25-14.4.1-4 24.9 14.4z"/></g><g id="XMLID_479_"><path id="XMLID_480_" class="st4" d="M-852.8-412l-24.8 14.4-24.9-14.4 24.7-14.4 25 14.4z"/></g></g></g><g id="XMLID_469_"><g id="XMLID_470_" class="st1"><g id="XMLID_475_"><path id="XMLID_476_" class="st5" d="M-853.8-420.4v8.1l-23.8 13.9.1-8.1 23.7-13.9z"/></g><g id="XMLID_473_"><path id="XMLID_474_" class="st6" d="M-877.5-406.5l-.1 8.1-24-13.8v-9.1l24.1 14.8z"/></g><g id="XMLID_471_"><path id="XMLID_472_" class="st7" d="M-855.8-420.5l-21.7 12.7-21.5-12.3 21.8-12.8 21.4 12.4z"/></g></g></g></g><g id="XMLID_451_"><g id="XMLID_460_"><g id="XMLID_461_" class="st1"><g id="XMLID_466_"><path id="XMLID_467_" class="st2" d="M-852.8-422.2v4l-24.8 14.4v-4l24.8-14.4z"/></g><g id="XMLID_464_"><path id="XMLID_465_" class="st3" d="M-877.6-407.8v4l-25-14.4.1-4 24.9 14.4z"/></g><g id="XMLID_462_"><path id="XMLID_463_" class="st4" d="M-852.8-422.2l-24.8 14.4-24.9-14.4 24.7-14.4 25 14.4z"/></g></g></g><g id="XMLID_452_"><g id="XMLID_453_" class="st1"><g id="XMLID_458_"><path id="XMLID_459_" class="st5" d="M-853.8-430.5v8.1l-23.8 13.8.1-8.1 23.7-13.8z"/></g><g id="XMLID_456_"><path id="XMLID_457_" class="st6" d="M-877.5-416.7l-.1 8.1-23.9-13.6v-8.1l24 13.6z"/></g><g id="XMLID_454_"><path id="XMLID_455_" class="st7" d="M-855.8-430.7l-21.7 12.7-21.5-12.3 21.8-12.8 21.4 12.4z"/></g></g></g></g><g id="XMLID_434_"><g id="XMLID_443_"><g id="XMLID_444_" class="st1"><g id="XMLID_449_"><path id="XMLID_450_" class="st2" d="M-852.8-436.1v8.1l-24.8 14.4v-8.1l24.8-14.4z"/></g><g id="XMLID_447_"><path id="XMLID_448_" class="st3" d="M-877.6-421.7v8.1l-25-14.4.1-8.1 24.9 14.4z"/></g><g id="XMLID_445_"><path id="XMLID_446_" class="st4" d="M-852.8-436.1l-24.8 14.4-24.9-14.4 24.7-14.4 25 14.4z"/></g></g></g><g id="XMLID_435_"><g id="XMLID_436_" class="st1"><g id="XMLID_441_"><path id="XMLID_442_" class="st5" d="M-853.8-444.3v8.1l-23.9 14 .1-8.1 23.8-14z"/></g><g id="XMLID_439_"><path id="XMLID_440_" class="st6" d="M-877.6-430.3l-.1 8.1-23.8-13.8v-8l23.9 13.7z"/></g><g id="XMLID_437_"><path id="XMLID_438_" class="st7" d="M-855.8-444.6l-21.7 12.8-21.5-12.4 21.8-12.7 21.4 12.3z"/></g></g></g></g><g id="XMLID_365_"><g id="XMLID_417_"><g id="XMLID_426_"><g id="XMLID_427_" class="st1"><g id="XMLID_432_"><path id="XMLID_433_" class="st2" d="M-853-445.8v4l-24.8 14.4v-4l24.8-14.4z"/></g><g id="XMLID_430_"><path id="XMLID_431_" class="st3" d="M-877.8-431.4v4l-25-14.4.1-4 24.9 14.4z"/></g><g id="XMLID_428_"><path id="XMLID_429_" class="st4" d="M-853-445.8l-24.8 14.4-24.9-14.4 24.7-14.4 25 14.4z"/></g></g></g><g id="XMLID_418_"><g id="XMLID_419_" class="st1"><g id="XMLID_424_"><path id="XMLID_425_" class="st5" d="M-853.9-454v8.1l-23.9 13.9.1-8.1 23.8-13.9z"/></g><g id="XMLID_422_"><path id="XMLID_423_" class="st6" d="M-877.7-440.1l-.1 8.1-23.8-13.7.1-8.1 23.8 13.7z"/></g><g id="XMLID_420_"><path id="XMLID_421_" class="st7" d="M-856-454.3l-21.7 12.7-21.5-12.3 21.8-12.7 21.4 12.3z"/></g></g></g></g><g id="XMLID_400_"><g id="XMLID_409_"><g id="XMLID_410_" class="st1"><g id="XMLID_415_"><path id="XMLID_416_" class="st2" d="M-853-455.8v4l-24.8 14.4v-4l24.8-14.4z"/></g><g id="XMLID_413_"><path id="XMLID_414_" class="st3" d="M-877.8-441.4v4l-25-14.4.1-4 24.9 14.4z"/></g><g id="XMLID_411_"><path id="XMLID_412_" class="st4" d="M-853-455.8l-24.8 14.4-24.9-14.4 24.7-14.4 25 14.4z"/></g></g></g><g id="XMLID_401_"><g id="XMLID_402_" class="st1"><g id="XMLID_407_"><path id="XMLID_408_" class="st5" d="M-853.9-464l-.1 8.1-23.9 13.9.1-8.1 23.9-13.9z"/></g><g id="XMLID_405_"><path id="XMLID_406_" class="st6" d="M-877.8-450.1l-.1 8.1-23.7-13.6v-8.1l23.8 13.6z"/></g><g id="XMLID_403_"><path id="XMLID_404_" class="st7" d="M-856-464.4l-21.7 12.8-21.5-12.3 21.8-12.8 21.4 12.3z"/></g></g></g></g><g id="XMLID_383_"><g id="XMLID_392_"><g id="XMLID_393_" class="st1"><g id="XMLID_398_"><path id="XMLID_399_" class="st2" d="M-853-466v4l-24.8 14.4v-4L-853-466z"/></g><g id="XMLID_396_"><path id="XMLID_397_" class="st3" d="M-877.8-451.6v4l-25-14.4.1-4 24.9 14.4z"/></g><g id="XMLID_394_"><path id="XMLID_395_" class="st4" d="M-853-466l-24.8 14.4-24.9-14.4 24.7-14.4 25 14.4z"/></g></g></g><g id="XMLID_384_"><g id="XMLID_385_" class="st1"><g id="XMLID_390_"><path id="XMLID_391_" class="st5" d="M-853.8-474.3v8.1l-24.1 14 .1-8.1 24-14z"/></g><g id="XMLID_388_"><path id="XMLID_389_" class="st6" d="M-877.8-460.3l-.1 8.1-23.7-13.6.1-8.1 23.7 13.6z"/></g><g id="XMLID_386_"><path id="XMLID_387_" class="st7" d="M-856-474.5l-21.7 12.7-21.5-12.3 21.8-12.8 21.4 12.4z"/></g></g></g></g><g id="XMLID_366_"><g id="XMLID_375_"><g id="XMLID_376_" class="st1"><g id="XMLID_381_"><path id="XMLID_382_" class="st2" d="M-853-479.9v8.1l-24.8 14.4v-8.1l24.8-14.4z"/></g><g id="XMLID_379_"><path id="XMLID_380_" class="st3" d="M-877.8-465.5v8.1l-25-14.4.1-8.1 24.9 14.4z"/></g><g id="XMLID_377_"><path id="XMLID_378_" class="st4" d="M-853-479.9l-24.8 14.4-24.9-14.4 24.7-14.4 25 14.4z"/></g></g></g><g id="XMLID_367_"><g id="XMLID_368_" class="st1"><g id="XMLID_373_"><path id="XMLID_374_" class="st5" d="M-853.8-488.2v8.1l-24.1 14.1.1-8.1 24-14.1z"/></g><g id="XMLID_371_"><path id="XMLID_372_" class="st6" d="M-877.8-474.1l-.1 8.1-23.7-13.8v-8l23.8 13.7z"/></g><g id="XMLID_369_"><path id="XMLID_370_" class="st7" d="M-856-488.4l-21.7 12.7-21.5-12.3 21.8-12.7 21.4 12.3z"/></g></g></g></g></g><g id="XMLID_304_"><g id="XMLID_348_"><g id="XMLID_357_"><g id="XMLID_358_" class="st1"><g id="XMLID_363_"><path id="XMLID_364_" class="st2" d="M-853-490v4l-24.8 14.4v-4L-853-490z"/></g><g id="XMLID_361_"><path id="XMLID_362_" class="st3" d="M-877.8-475.6v4l-25-14.4.1-4 24.9 14.4z"/></g><g id="XMLID_359_"><path id="XMLID_360_" class="st4" d="M-853-490l-24.8 14.4-24.9-14.4 24.7-14.4 25 14.4z"/></g></g></g><g id="XMLID_349_"><g id="XMLID_350_" class="st1"><g id="XMLID_355_"><path id="XMLID_356_" class="st5" d="M-853.8-498.2v8.1l-24.1 13.9.1-8 24-14z"/></g><g id="XMLID_353_"><path id="XMLID_354_" class="st6" d="M-877.8-484.2l-.1 8-23.7-13.6v-8.1l23.8 13.7z"/></g><g id="XMLID_351_"><path id="XMLID_352_" class="st7" d="M-856-498.5l-21.7 12.7-21.5-12.3 21.8-12.8 21.4 12.4z"/></g></g></g></g><g id="XMLID_331_"><g id="XMLID_340_"><g id="XMLID_341_" class="st1"><g id="XMLID_346_"><path id="XMLID_347_" class="st2" d="M-853-500v4l-24.8 14.4v-4L-853-500z"/></g><g id="XMLID_344_"><path id="XMLID_345_" class="st3" d="M-877.8-485.6v4l-25-14.4.1-4 24.9 14.4z"/></g><g id="XMLID_342_"><path id="XMLID_343_" class="st4" d="M-853-500l-24.8 14.4-24.9-14.4 24.7-14.4 25 14.4z"/></g></g></g><g id="XMLID_332_"><g id="XMLID_333_" class="st1"><g id="XMLID_338_"><path id="XMLID_339_" class="st5" d="M-853.8-508.3v8.1l-24.1 14 .1-8.1 24-14z"/></g><g id="XMLID_336_"><path id="XMLID_337_" class="st6" d="M-877.8-494.3l-.1 8.1-23.7-13.8v-8.1l23.8 13.8z"/></g><g id="XMLID_334_"><path id="XMLID_335_" class="st7" d="M-856-508.6l-21.7 12.8-21.5-12.4 21.8-12.7 21.4 12.3z"/></g></g></g></g><g id="XMLID_314_"><g id="XMLID_323_"><g id="XMLID_324_" class="st1"><g id="XMLID_329_"><path id="XMLID_330_" class="st2" d="M-853-510.2v4l-24.8 14.4v-4l24.8-14.4z"/></g><g id="XMLID_327_"><path id="XMLID_328_" class="st3" d="M-877.8-495.8v4l-25-14.4.1-4 24.9 14.4z"/></g><g id="XMLID_325_"><path id="XMLID_326_" class="st4" d="M-853-510.2l-24.8 14.4-24.9-14.4 24.7-14.4 25 14.4z"/></g></g></g><g id="XMLID_315_"><g id="XMLID_316_" class="st1"><g id="XMLID_321_"><path id="XMLID_322_" class="st5" d="M-853.9-518.4v8.1l-24 13.9.1-8.1 23.9-13.9z"/></g><g id="XMLID_319_"><path id="XMLID_320_" class="st6" d="M-877.8-504.5l-.1 8.1-23.7-13.8v-8l23.8 13.7z"/></g><g id="XMLID_317_"><path id="XMLID_318_" class="st7" d="M-856-518.8l-21.7 12.8-21.5-12.4 21.8-12.7 21.4 12.3z"/></g></g></g></g><g id="XMLID_305_"><g id="XMLID_306_"><g id="XMLID_307_" class="st1"><g id="XMLID_312_"><path id="XMLID_313_" class="st2" d="M-853-524.1v8.1l-24.8 14.4v-8.1l24.8-14.4z"/></g><g id="XMLID_310_"><path id="XMLID_311_" class="st3" d="M-877.8-509.7v8.1l-25-14.4.1-8.1 24.9 14.4z"/></g><g id="XMLID_308_"><path id="XMLID_309_" d="M-853-524.1l-24.8 14.4-24.9-14.4 24.7-14.4 25 14.4z" fill="#c4c4c4"/></g></g></g></g></g><g id="XMLID_296_"><g id="XMLID_297_" class="st1"><g id="XMLID_302_"><path id="XMLID_303_" class="st4" d="M-879.8-504.3l.8-.5v-2.1l-.8.5v2.1z"/></g><g id="XMLID_300_"><path id="XMLID_301_" class="st4" d="M-879.8-506.4l.8-.5-22.4-13.1-.8.5 22.4 13.1z"/></g><g id="XMLID_298_"><path id="XMLID_299_" d="M-902.2-519.5v2.1l22.4 13.1v-2.1l-22.4-13.1z" fill="#d3d3d3"/></g></g></g><g id="XMLID_288_"><g id="XMLID_289_" class="st1"><g id="XMLID_294_"><path id="XMLID_295_" class="st4" d="M-875.6-504.5l-.8-.5v-2l.8.4v2.1z"/></g><g id="XMLID_292_"><path id="XMLID_293_" class="st4" d="M-875.6-506.6l-.8-.4 22.4-13.1.8.5-22.4 13z"/></g><g id="XMLID_290_"><path id="XMLID_291_" d="M-853.2-519.6v2l-22.4 13.1v-2.1l22.4-13z" fill="#999"/></g></g></g><g id="XMLID_276_"><g id="XMLID_277_" class="st1"><g id="XMLID_286_"><path id="XMLID_287_" class="st11" d="M-878.8-538.7v1.9l-20.4 11.9v-2l20.4-11.8z"/></g><g id="XMLID_284_"><path id="XMLID_285_" class="st11" d="M-857.4-526.4v2l-21.4-12.4v-1.9l21.4 12.3z"/></g><g id="XMLID_282_"><path id="XMLID_283_" class="st11" d="M-877.9-513.2v2l-23.6-13.7v-2l23.6 13.7z"/></g><g id="XMLID_280_"><path id="XMLID_281_" class="st11" d="M-855.2-526.4v2l-22.7 13.2v-2l22.7-13.2z"/></g><g id="XMLID_278_"><path id="XMLID_279_" d="M-878.8-540l23.6 13.6-22.7 13.2-23.6-13.7 22.7-13.1zm.9 25.5l20.5-11.9-21.4-12.3-20.4 11.8 21.3 12.4z" fill="#d8d8d8"/></g></g></g><g id="XMLID_252_"><g id="XMLID_266_"><g id="XMLID_267_"><g id="XMLID_268_"><g id="XMLID_269_" class="st1"><g id="XMLID_274_"><path id="XMLID_275_" class="st5" d="M-867.7-535.7v6.3l-16.9 9.9v-6.3l16.9-9.9z"/></g><g id="XMLID_272_"><path id="XMLID_273_" class="st6" d="M-884.6-525.8v6.3l-9-5.2v-6.3l9 5.2z"/></g><g id="XMLID_270_"><path id="XMLID_271_" class="st7" d="M-867.7-535.7l-16.9 9.9-9-5.2 16.9-9.9 9 5.2z"/></g></g></g></g></g><path id="XMLID_265_" class="st2" d="M-895.3-529.2l-.1 3.5 1.8 1 .1-3.4-1.8-1.1z"/><g id="XMLID_253_"><g id="XMLID_254_" class="st1"><g id="XMLID_262_" class="st1"><g id="XMLID_263_"><path id="XMLID_264_" class="st3" d="M-895-531.2l18.2-10.9c1.2-.7 2.8-.6 4.6.4l-18.2 10.9c-1.8-1-3.4-1.1-4.6-.4z"/></g></g><g id="XMLID_257_" class="st1"><g id="XMLID_258_"><path id="XMLID_261_" class="st3" d="M-890.4-530.8l18.1-10.8c1 .6 2 1.4 2.8 2.4l-18.2 10.8c-.8-1-1.7-1.8-2.7-2.4z"/><path id="XMLID_260_" d="M-887.7-528.4l18.2-10.9c1 1.1 1.9 2.5 2.5 3.9l-18.2 10.8c-.6-1.4-1.4-2.7-2.5-3.8z" fill="#ddd"/><path id="XMLID_259_" class="st3" d="M-885.2-524.6l18.2-10.8c.3.6.5 1.3.7 2l-18.2 10.8c-.1-.6-.4-1.3-.7-2z"/></g></g><g id="XMLID_255_"><path id="XMLID_256_" d="M-890.4-530.8c2.7 1.6 5.1 4.9 6 8.2l-12.1-6.9c1-2.3 3.3-2.9 6.1-1.3z" fill="#979ea0"/></g></g></g></g><g id="XMLID_143_"><g id="XMLID_205_"><g id="XMLID_246_"><g id="XMLID_247_"><g id="XMLID_248_" class="st1"><g id="XMLID_249_"><g id="XMLID_250_"><path id="XMLID_251_" class="st15" d="M-849.5-396.2l-.4-.2v15.1l.4.2v-15.1z"/></g></g></g></g></g><g id="XMLID_226_"><g id="XMLID_244_"><path id="XMLID_245_" class="st16" d="M-855.1-378.4l5.8-3.5V-396l-5.8 3.3v14.3z"/></g><g id="XMLID_227_"><g id="XMLID_228_" class="st1"><g id="XMLID_241_"><g id="XMLID_242_"><path id="XMLID_243_" class="st15" d="M-849.5-381.6l-.4-.2-5.1 2.9.4.3 5.1-3z"/></g></g><g id="XMLID_238_"><g id="XMLID_239_"><path id="XMLID_240_" class="st15" d="M-849.5-395.6l-.4-.2v14l.4.2v-14z"/></g></g><g id="XMLID_235_"><g id="XMLID_236_"><path id="XMLID_237_" class="st15" d="M-855.2-392.9l-.3-.1v15.1l.3.1v-15.1z"/></g></g><g id="XMLID_232_"><g id="XMLID_233_"><path id="XMLID_234_" class="st15" d="M-849.1-396.4l-.3-.2-6.1 3.6.3.1 6.1-3.5z"/></g></g><g id="XMLID_229_"><g id="XMLID_230_"><path id="XMLID_231_" class="st17" d="M-849.1-381.3l-6.1 3.6v-15.1l6.1-3.6v15.1zm-5.5 2.7l5.1-3v-14l-5.1 3v14z"/></g></g></g></g></g><g id="XMLID_206_"><g id="XMLID_224_"><path id="XMLID_225_" class="st16" d="M-860.7-375.1l5.9-3.5v-14.1l-5.9 3.2v14.4z"/></g><g id="XMLID_207_"><g id="XMLID_208_" class="st1"><g id="XMLID_221_"><g id="XMLID_222_"><path id="XMLID_223_" class="st15" d="M-855.1-378.4l-.3-.2-5.2 3 .4.2 5.1-3z"/></g></g><g id="XMLID_218_"><g id="XMLID_219_"><path id="XMLID_220_" class="st15" d="M-855.1-392.3l-.3-.2v13.9l.3.2v-13.9z"/></g></g><g id="XMLID_215_"><g id="XMLID_216_"><path id="XMLID_217_" class="st15" d="M-860.8-389.6l-.3-.2v15.1l.4.2-.1-15.1z"/></g></g><g id="XMLID_212_"><g id="XMLID_213_"><path id="XMLID_214_" class="st15" d="M-854.6-393.2l-.3-.2-6.2 3.6.3.2 6.2-3.6z"/></g></g><g id="XMLID_209_"><g id="XMLID_210_"><path id="XMLID_211_" class="st17" d="M-854.6-378.1l-6.1 3.6v-15.1l6.1-3.6v15.1zm-5.6 2.7l5.1-3v-14l-5.1 3v14z"/></g></g></g></g></g></g><g id="XMLID_144_"><g id="XMLID_185_"><g id="XMLID_203_"><path id="XMLID_204_" class="st16" d="M-866.3-371.8l5.8-3.5v-14.1l-5.8 3.2v14.4z"/></g><g id="XMLID_186_"><g id="XMLID_187_" class="st1"><g id="XMLID_200_"><g id="XMLID_201_"><path id="XMLID_202_" class="st15" d="M-860.7-375l-.4-.3-5.1 3 .4.2 5.1-2.9z"/></g></g><g id="XMLID_197_"><g id="XMLID_198_"><path id="XMLID_199_" class="st15" d="M-860.8-389l-.3-.2v14l.4.2-.1-14z"/></g></g><g id="XMLID_194_"><g id="XMLID_195_"><path id="XMLID_196_" class="st15" d="M-866.4-386.3l-.3-.2v15.1l.3.2v-15.1z"/></g></g><g id="XMLID_191_"><g id="XMLID_192_"><path id="XMLID_193_" class="st15" d="M-860.3-389.9l-.3-.1-6.1 3.5.3.2 6.1-3.6z"/></g></g><g id="XMLID_188_"><g id="XMLID_189_"><path id="XMLID_190_" class="st17" d="M-860.3-374.8l-6.1 3.6v-15.1l6.1-3.6v15.1zm-5.5 2.7l5.1-3v-14l-5.1 3v14z"/></g></g></g></g></g><g id="XMLID_165_"><g id="XMLID_183_"><path id="XMLID_184_" class="st16" d="M-872-368.5l5.9-3.5v-14.1l-5.9 3.3v14.3z"/></g><g id="XMLID_166_"><g id="XMLID_167_" class="st1"><g id="XMLID_180_"><g id="XMLID_181_"><path id="XMLID_182_" class="st15" d="M-866.4-371.7l-.4-.2-5.1 2.9.4.3 5.1-3z"/></g></g><g id="XMLID_177_"><g id="XMLID_178_"><path id="XMLID_179_" class="st15" d="M-866.4-385.7l-.4-.2v14l.4.2v-14z"/></g></g><g id="XMLID_174_"><g id="XMLID_175_"><path id="XMLID_176_" class="st15" d="M-872.1-382.9l-.3-.2v15.1l.4.2-.1-15.1z"/></g></g><g id="XMLID_171_"><g id="XMLID_172_"><path id="XMLID_173_" class="st15" d="M-865.9-386.5l-.4-.2-6.1 3.6.3.2 6.2-3.6z"/></g></g><g id="XMLID_168_"><g id="XMLID_169_"><path id="XMLID_170_" class="st17" d="M-865.9-371.4l-6.1 3.6v-15.1l6.1-3.6v15.1zm-5.6 2.7l5.1-3v-14l-5.1 3v14z"/></g></g></g></g></g><g id="XMLID_145_"><g id="XMLID_163_"><path id="XMLID_164_" class="st16" d="M-877.6-365.2l5.9-3.5v-14.1l-5.9 3.2v14.4z"/></g><g id="XMLID_146_"><g id="XMLID_147_" class="st1"><g id="XMLID_160_"><g id="XMLID_161_"><path id="XMLID_162_" class="st15" d="M-871.9-368.4l-.4-.3-5.1 3 .4.2 5.1-2.9z"/></g></g><g id="XMLID_157_"><g id="XMLID_158_"><path id="XMLID_159_" class="st15" d="M-872-382.4l-.3-.2v14l.4.2-.1-14z"/></g></g><g id="XMLID_154_"><g id="XMLID_155_"><path id="XMLID_156_" class="st15" d="M-877.6-379.7l-.4-.2v15.1l.4.2v-15.1z"/></g></g><g id="XMLID_151_"><g id="XMLID_152_"><path id="XMLID_153_" class="st15" d="M-871.5-383.3l-.3-.1-6.2 3.5.4.2 6.1-3.6z"/></g></g><g id="XMLID_148_"><g id="XMLID_149_"><path id="XMLID_150_" class="st17" d="M-871.5-368.2l-6.1 3.6v-15.1l6.1-3.6v15.1zm-5.5 2.7l5.1-3v-14l-5.1 3v14z"/></g></g></g></g></g></g></g><g id="XMLID_123_"><g id="XMLID_141_"><path id="XMLID_142_" class="st16" d="M-878-365.1l-5.9-3.4v-14.2l5.9 3.3v14.3z"/></g><g id="XMLID_124_"><g id="XMLID_125_" class="st1"><g id="XMLID_138_"><g id="XMLID_139_"><path id="XMLID_140_" class="st15" d="M-883.6-368.3l.3-.2 5.2 2.9-.4.3-5.1-3z"/></g></g><g id="XMLID_135_"><g id="XMLID_136_"><path id="XMLID_137_" class="st15" d="M-883.6-382.3l.3-.2v14l-.3.2v-14z"/></g></g><g id="XMLID_132_"><g id="XMLID_133_"><path id="XMLID_134_" class="st15" d="M-877.9-379.5l.3-.2v15.1l-.4.2.1-15.1z"/></g></g><g id="XMLID_129_"><g id="XMLID_130_"><path id="XMLID_131_" class="st15" d="M-884.1-383.1l.3-.2 6.2 3.6-.3.2-6.2-3.6z"/></g></g><g id="XMLID_126_"><g id="XMLID_127_"><path id="XMLID_128_" class="st17" d="M-884.1-383.1l6.1 3.6v15.1l-6.1-3.6v-15.1zm5.6 17.8v-14l-5.1-3v14l5.1 3z"/></g></g></g></g></g><g id="XMLID_103_"><g id="XMLID_121_"><path id="XMLID_122_" class="st16" d="M-900.4-378l-5.9-3.4v-14.2l5.9 3.3v14.3z"/></g><g id="XMLID_104_"><g id="XMLID_105_" class="st1"><g id="XMLID_118_"><g id="XMLID_119_"><path id="XMLID_120_" class="st15" d="M-906.1-381.2l.4-.2 5.2 3-.5.2-5.1-3z"/></g></g><g id="XMLID_115_"><g id="XMLID_116_"><path id="XMLID_117_" class="st15" d="M-906-395.1l.3-.2v13.9l-.4.2.1-13.9z"/></g></g><g id="XMLID_112_"><g id="XMLID_113_"><path id="XMLID_114_" class="st15" d="M-900.4-392.4l.4-.2v15.1l-.4.2v-15.1z"/></g></g><g id="XMLID_109_"><g id="XMLID_110_"><path id="XMLID_111_" class="st15" d="M-906.5-396l.3-.2 6.2 3.6-.4.2-6.1-3.6z"/></g></g><g id="XMLID_106_"><g id="XMLID_107_"><path id="XMLID_108_" class="st17" d="M-906.5-396l6.1 3.6v15.1l-6.1-3.6V-396zm5.5 17.8v-14l-5.1-3v14l5.1 3z"/></g></g></g></g></g><g id="XMLID_94_"><g id="XMLID_95_"><g id="XMLID_96_" class="st1"><g id="XMLID_101_"><path id="XMLID_102_" class="st2" d="M-884.2-382.4v14.9l-1.2.7.1-14.8 1.1-.8z"/></g><g id="XMLID_99_"><path id="XMLID_100_" d="M-885.3-381.6l-.1 14.8-15.9-9.2.1-14.8 15.9 9.2z" fill="#b9baba"/></g><g id="XMLID_97_"><path id="XMLID_98_" class="st4" d="M-884.2-382.4l-1.1.8-15.9-9.2 1.1-.8 15.9 9.2z"/></g></g></g></g><g id="XMLID_74_"><path id="XMLID_93_" class="st6" d="M-890.4-369.7v-9l-6.4-3.8-.1 9 6.5 3.8z"/><g id="XMLID_83_"><g id="XMLID_84_" class="st1"><g id="XMLID_91_"><path id="XMLID_92_" class="st15" d="M-896.9-373.2l.2-.2.2-8.9-.3.1-.1 9z"/></g><g id="XMLID_89_"><path id="XMLID_90_" class="st15" d="M-890.5-369.5l.2-.2.1-9.1-.2.1-.1 9.2z"/></g><g id="XMLID_87_"><path id="XMLID_88_" class="st15" d="M-890.4-378.7l.2-.1-6.6-4-.2.2 6.6 3.9z"/></g><g id="XMLID_85_"><path id="XMLID_86_" class="st17" d="M-897-382.6l-.1 9.2.2.2.1-9 6.1 3.7-.1 8.8.3.2.1-9.2-6.6-3.9z"/></g></g></g><g id="XMLID_79_"><g id="XMLID_81_"><path id="XMLID_82_" class="st15" d="M-890.8-376.4l.1-.3-5.9-3.6-.2.1 6 3.8z"/></g><path id="XMLID_80_" class="st15" d="M-893.8-371.8v.3l.2-.1v-6.7h-.2v6.5z"/></g><g id="XMLID_75_"><g id="XMLID_77_"><path id="XMLID_78_" class="st17" d="M-890.8-376.2l.1-.3-6.2-3.7v.2l6.1 3.8z"/></g><path id="XMLID_76_" class="st17" d="M-894-371.6l.2.1v-6.7h-.2v6.6z"/></g></g><g id="XMLID_38_"><g id="XMLID_51_"><g id="XMLID_71_"><g id="XMLID_72_"><path id="XMLID_73_" class="st19" d="M-884.2-364.8c.2.1.2.3 0 .4-.2.1-.6.1-.8 0s-.2-.3 0-.4.5-.1.8 0z"/></g></g><g id="XMLID_66_"><path id="XMLID_70_" class="st20" d="M-884.5-364.7c0-.1-.1-.1 0 0s.5.1.7 0h-.7z"/><defs><path id="SVGID_1_" d="M-884.5-364.7c0-.1-.1-.1 0 0s.5.1.7 0h-.7z"/></defs><clipPath id="SVGID_2_"><use xlink:href="#SVGID_1_" overflow="visible"/></clipPath><g id="XMLID_67_" clip-path="url(#SVGID_2_)"><g id="XMLID_68_"><path id="XMLID_69_" class="st20" d="M-885-364.4c.2.1.6.1.8-.1h-.1c-.2.2-.5.2-.7.1z"/></g></g></g><g id="XMLID_63_"><g id="XMLID_64_"><path id="XMLID_65_" class="st22" d="M-883.9-366.3c.4.2.4.6 0 .8-.4.2-1.1.2-1.5 0-.4-.2-.4-.6 0-.8.5-.2 1.1-.2 1.5 0z"/></g></g><g id="XMLID_60_" class="st1"><defs><path id="SVGID_3_" d="M-883.5-366.4c-.4-.2-1-.2-1.3 0-.4.2-.4.5 0 .7.3.2.9.2 1.3 0 .3-.2.3-.5 0-.7 0 0 .1 0 .1.1.1.1.2.2.2.3 0 .5-1.1.8-1.7.4-.2-.1-.3-.2-.3-.4.1-.6 1.1-.8 1.7-.4z"/></defs><clipPath id="SVGID_4_"><use xlink:href="#SVGID_3_" overflow="visible"/></clipPath><g id="XMLID_61_" clip-path="url(#SVGID_4_)"><path id="XMLID_62_" class="st24" d="M-885.7-365.8c0 .2.1.3.3.4.7.4 1.9.1 1.9-.4-.1-.9-2.2-.9-2.2 0zm1.8.4c-.4.2-1.1.2-1.5 0-.4-.2 0-.8 0-.8.3 0 1.8.6 1.5.8z"/></g></g><g id="XMLID_56_" class="st1"><defs><path id="SVGID_5_" d="M-885.1-366c0 .1.1.3.3.4.6.4 1.7.1 1.7-.4v.2c0 .5-1.1.8-1.7.4-.4-.2-.3-.3-.3-.6z"/></defs><clipPath id="SVGID_6_"><use xlink:href="#SVGID_5_" overflow="visible"/></clipPath><g id="XMLID_57_" clip-path="url(#SVGID_6_)"><g id="XMLID_58_"><path id="XMLID_59_" class="st26" d="M-885.7-365.5v-.3c0 .2.1.3.3.4.7.4 1.9.1 1.9-.4v.3c0 .6-1.2.9-1.9.4-.2-.1-.3-.3-.3-.4z"/></g></g></g><g id="XMLID_52_" class="st1"><defs><path id="SVGID_7_" d="M-885.1-365.8c0 .5 1 .7 1.6.4.2-.1.3-.3.3-.4 0 .9-.8 1.3-1.4 1-.3-.2-.5-.6-.5-1z"/></defs><clipPath id="SVGID_8_"><use xlink:href="#SVGID_7_" overflow="visible"/></clipPath><g id="XMLID_53_" clip-path="url(#SVGID_8_)"><g id="XMLID_54_"><path id="XMLID_55_" class="st28" d="M-885.1-364.4c-.3-.2-.6-.6-.6-1.1 0 .2.1.3.3.4.7.4 1.9.1 1.9-.4 0 .7-.4 1-.6 1.1-.3.1-.7.1-1 0z"/></g></g></g></g><g id="XMLID_49_"><path id="XMLID_50_" class="st29" d="M-884.8-365.6c0 .2.3.2.3 0v-3.1c0-.1-.1-.2-.2-.2s-.2.1-.2.2l.1 3.1z"/></g><g id="XMLID_47_"><path id="XMLID_48_" class="st30" d="M-883.6-369.9v-.6h-.2v.6c0 .2 0 .4.3.6l.3.2.1-.2-.3-.2c-.2-.1-.2-.2-.2-.4z"/></g><g id="XMLID_45_"><path id="XMLID_46_" class="st31" d="M-883.5-372.4s-.1-.1-.1-.5v-.7c0-.3-.2-.6-.4-.7-.1 0-.2-.3-.2-.5s-.1-.5-.1-.5c0-.2-.1-.4-.3-.4s-.3.1-.3.3c0 0-.1.4-.2.5-.2.1-.4.2-.4.5v.5c0 .4-.2.4-.2.4-.3 0-.4.3-.4.7l.1 1.2s0 .2-.2.2c-.3 0-.6.2-.5 1.4v1c0 1 .5 1.1.5 1.1l.1.6c0 .3.1.6.3.6s.2.2.2.2c0 .5.5.7.8.7.6 0 .7-.3.9-.6.4 0 .5-.5.6-1.2 0 0 .2 0 .3-.6.1-.5.2-2.5.2-2.5 0-.7-.1-1.7-.7-1.7z"/></g><g id="XMLID_43_"><path id="XMLID_44_" class="st32" d="M-883.8-372s-.1.4 0-1.6c0-.1.1-.7-.3-.6-.1 0-.1-.4-.1-.4 0-.2 0-.3-.1-.3s-.2.1-.2.2c0 0 0 .3-.2.4-.2 0-.3.2-.3.4v.4c0 .3-.2.3-.2.3-.2 0-.3.2-.3.6v.5c0-.2.1-.8.4-.7.1 0 .2-.3.2-.3 0-.1.1-.3.2-.3s.2.2.2.4c0 0 0 .5.1.4.4-.1.3.5.3.6 0 1.8.2 1.3.2 1.3.3-.4.5.4.5 1.1 0 0 0 .8-.1 1.4.1-.3.2-.6.2-.9 0-.4.1-2 .1-2 .1-.7-.3-1.3-.6-.9z"/></g><g id="XMLID_41_"><path id="XMLID_42_" class="st32" d="M-884.9-370.4c0-.3-.2-.9-.9-.7-.4.2-.4.4-.4.4s-.5 0-.4.7c0 .3.2.5.2.5s-.1-.1 0-.7c0-.5.6-.6.9-.6.3.1.4.5.4.5.1 1 .7-.2.8.9 0 0 .1.9.1.7 0-.3.1-.6.1-.8-.1-.9-.7-.4-.8-.9z"/></g><g id="XMLID_39_"><path id="XMLID_40_" class="st32" d="M-884.5-368.3s.2-.3.5 0c.2.3.2.9.2.9s.1-.9-.1-1.1c-.2-.3-.4-.1-.5 0l-.1.2z"/></g></g><g id="XMLID_2_"><g id="XMLID_15_"><g id="XMLID_35_"><g id="XMLID_36_"><path id="XMLID_37_" class="st19" d="M-902.1-376.1c.2.1.2.3 0 .4-.2.1-.6.1-.8 0-.2-.1-.2-.3 0-.4.2-.1.6-.1.8 0z"/></g></g><g id="XMLID_30_"><path id="XMLID_34_" class="st20" d="M-895.5-371.1c-.1 0-.1-.1 0 0 .2.1.5.1.7 0h-.1c-.2.1-.5.1-.6 0z"/><defs><path id="SVGID_9_" d="M-895.5-371.1c-.1 0-.1-.1 0 0 .2.1.5.1.7 0h-.1c-.2.1-.5.1-.6 0z"/></defs><clipPath id="SVGID_10_"><use xlink:href="#SVGID_9_" overflow="visible"/></clipPath><g id="XMLID_31_" clip-path="url(#SVGID_10_)"><g id="XMLID_32_"><path id="XMLID_33_" class="st20" d="M-902.9-375.7c.2.1.6.1.8-.1h-.1c-.2.3-.5.3-.7.1z"/></g></g></g><g id="XMLID_27_"><g id="XMLID_28_"><path id="XMLID_29_" class="st22" d="M-901.8-377.5c.4.2.4.6 0 .8-.4.2-1.1.2-1.5 0-.4-.2-.4-.6 0-.8.5-.3 1.1-.3 1.5 0z"/></g></g><g id="XMLID_24_" class="st1"><defs><path id="SVGID_11_" d="M-894.5-372.8s-.1 0 0 0c-.4-.2-.9-.2-1.3 0s-.4.5 0 .7c.3.2.9.2 1.3 0 .3-.2.3-.5 0-.7-.1 0 0 0 0 0s.1 0 .1.1c.1.1.2.2.2.3 0 .5-1.1.8-1.7.4-.2-.1-.3-.2-.3-.4 0-.5 1.1-.7 1.7-.4z"/></defs><clipPath id="SVGID_12_"><use xlink:href="#SVGID_11_" overflow="visible"/></clipPath><g id="XMLID_25_" clip-path="url(#SVGID_12_)"><path id="XMLID_26_" class="st24" d="M-903.6-377.1c0 .2.1.3.3.4.7.4 1.9.1 1.9-.4-.1-.9-2.2-.8-2.2 0zm1.8.4c-.4.2-1.1.2-1.5 0-.4-.2 0-.8 0-.8.3 0 1.9.6 1.5.8z"/></g></g><g id="XMLID_20_" class="st1"><defs><path id="SVGID_13_" d="M-896.2-372.4c0 .1.1.3.3.4.6.4 1.7.1 1.7-.4v.2c0 .5-1.1.8-1.7.4-.3-.1-.3-.3-.3-.6z"/></defs><clipPath id="SVGID_14_"><use xlink:href="#SVGID_13_" overflow="visible"/></clipPath><g id="XMLID_21_" clip-path="url(#SVGID_14_)"><g id="XMLID_22_"><path id="XMLID_23_" class="st26" d="M-903.6-376.8v-.3c0 .2.1.3.3.4.7.4 1.9.1 1.9-.4v.3c0 .6-1.2.9-1.9.4-.2-.1-.3-.2-.3-.4z"/></g></g></g><g id="XMLID_16_" class="st1"><defs><path id="SVGID_15_" d="M-896.2-372.1c0 .5 1 .7 1.6.4.2-.1.3-.3.3-.4 0 .9-.8 1.3-1.4 1-.3-.3-.5-.6-.5-1z"/></defs><clipPath id="SVGID_16_"><use xlink:href="#SVGID_15_" overflow="visible"/></clipPath><g id="XMLID_17_" clip-path="url(#SVGID_16_)"><g id="XMLID_18_"><path id="XMLID_19_" class="st28" d="M-903-375.7c-.3-.2-.6-.6-.6-1.1 0 .2.1.3.3.4.7.4 1.9.1 1.9-.4 0 .7-.4 1-.6 1.1-.3.1-.7.1-1 0z"/></g></g></g></g><g id="XMLID_13_"><path id="XMLID_14_" class="st29" d="M-902.7-376.9c0 .2.3.2.3 0v-3.1c0-.1-.1-.2-.2-.2s-.2.1-.2.2l.1 3.1z"/></g><g id="XMLID_11_"><path id="XMLID_12_" class="st30" d="M-901.5-381.2v-.6h-.2v.6c0 .2 0 .4.3.6l.3.2.1-.2-.3-.1c-.1-.2-.2-.3-.2-.5z"/></g><g id="XMLID_9_"><path id="XMLID_10_" class="st31" d="M-901.4-383.7s-.1-.1-.1-.5v-.7c0-.3-.2-.6-.4-.7-.1 0-.2-.3-.2-.5s-.1-.5-.1-.5c0-.2-.1-.4-.3-.4s-.3.1-.3.3c0 0-.1.4-.2.5-.2.1-.4.2-.4.5v.5c0 .4-.2.4-.2.4-.3 0-.4.3-.4.7l.1 1.2s0 .2-.2.2c-.3 0-.6.2-.5 1.4v1c0 1 .5 1.1.5 1.1l.1.6c0 .3.1.6.3.6.2 0 .2.2.2.2 0 .5.5.7.8.7.6 0 .7-.3.9-.6.4 0 .5-.5.6-1.2 0 0 .2 0 .3-.6.1-.5.2-2.5.2-2.5.1-.7 0-1.7-.7-1.7z"/></g><g id="XMLID_7_"><path id="XMLID_8_" class="st32" d="M-901.7-383.2s-.1.4 0-1.6c0-.1.1-.7-.3-.6-.1 0-.1-.4-.1-.4 0-.2 0-.3-.1-.3s-.2.1-.2.2c0 0 0 .3-.2.4-.2 0-.3.2-.3.4v.4c0 .3-.2.3-.2.3-.2 0-.3.2-.3.6v.5c0-.2.1-.8.4-.7.1 0 .2-.3.2-.3 0-.1.1-.3.2-.3s.2.2.2.4c0 0 0 .5.1.4.4-.1.3.5.3.6 0 1.8.2 1.3.2 1.3.3-.4.5.4.5 1.1 0 0 0 .8-.1 1.4.1-.3.2-.6.2-.9 0-.4.1-2 .1-2 .1-.8-.3-1.4-.6-.9z"/></g><g id="XMLID_5_"><path id="XMLID_6_" class="st32" d="M-902.7-381.7c0-.3-.2-.9-.9-.7-.4.2-.4.4-.4.4s-.5 0-.4.7c0 .3.2.5.2.5s-.1-.1 0-.7c0-.5.6-.6.9-.6.3.1.4.5.4.5.1 1 .7-.2.8.9 0 0 .1.9.1.7 0-.3.1-.6.1-.8-.2-.9-.8-.4-.8-.9z"/></g><g id="XMLID_3_"><path id="XMLID_4_" class="st32" d="M-902.3-379.6s.2-.3.5 0c.2.3.2.9.2.9s.1-.9-.1-1.1c-.2-.3-.4-.1-.5 0-.1.1-.1.2-.1.2z"/></g></g></g></g></svg>