<svg xmlns="http://www.w3.org/2000/svg" width="41.6" height="34.8"><style>.st1{fill:#2d3134}.st2,.st3{opacity:.29;enable-background:new}.st3{opacity:.1;fill:#fff}.st4{fill:#28896d}.st5,.st6{opacity:.11;enable-background:new}.st6{opacity:.15}.st8{fill:#656565}.st9{opacity:.1;enable-background:new}.st11{fill:#fff}.st12{opacity:.3;fill:#2d3134}.st12,.st13,.st16{enable-background:new}.st13{fill:#fff;opacity:.3}.st16{opacity:.2}</style><g id="i2110_1_"><path opacity=".3" fill="#262626" d="M2804-6212l156-78-260-130-156 78z" transform="matrix(-.1 0 0 .1 296 656)"/><path class="st1" d="M2652.2-6422.7c-14.9-7.4-28.3-8-37.9-2.9l-27.4 13.8c-9.2 4.9-15 15-15 29.3 0 29.2 23.7 64.6 52.8 79.2 16 8 30.4 8 40 1.6l22.3-11.1c11-4.2 18-14.9 18-30.7.1-29.1-23.6-64.6-52.8-79.2z" transform="matrix(-.1 0 0 .1 296 656)"/><path class="st2" d="M2677.6-6329.7c0 29.2-23.7 41-52.8 26.4-29.1-14.6-52.8-50.1-52.8-79.2s23.7-41 52.8-26.4c29.1 14.6 52.8 50.1 52.8 79.2z" transform="matrix(-.1 0 0 .1 296 656)"/><path class="st3" d="M2627.1-6410.2c-15.9-7.9-30.1-8-39.8-1.8 9.1-3 20.9-1.7 33.7 4.7 29.2 14.6 52.8 50.1 52.8 79.2 0 13.3-4.9 23-13 28.2 11.7-3.9 19.1-14.8 19.1-31.1.1-29.2-23.6-64.6-52.8-79.2z" transform="matrix(-.1 0 0 .1 296 656)"/><path class="st4" d="M2650.7-6343.1c0 14.3-11.6 20.1-25.9 12.9-14.3-7.2-25.9-24.5-25.9-38.8s11.6-20.1 25.9-12.9c14.3 7.2 25.9 24.5 25.9 38.8z" transform="matrix(-.1 0 0 .1 296 656)"/><path class="st4" d="M2648.5-6344.2c0 13.1-10.6 18.5-23.8 11.9-13.2-6.6-23.7-22.5-23.7-35.7 0-13.1 10.6-18.5 23.8-11.9s23.7 22.6 23.7 35.7z" transform="matrix(-.1 0 0 .1 296 656)"/><path class="st4" d="M2648.5-6344.2c0 13.1-10.6 18.5-23.8 11.9-13.2-6.6-23.7-22.5-23.7-35.7 0-13.1 10.6-18.5 23.8-11.9s23.7 22.6 23.7 35.7z" transform="matrix(-.1 0 0 .1 296 656)"/><path class="st5" d="M2648.5-6344.2c0 13.1-10.6 18.5-23.8 11.9-13.2-6.6-23.7-22.5-23.7-35.7 0-13.1 10.6-18.5 23.8-11.9s23.7 22.6 23.7 35.7z" transform="matrix(-.1 0 0 .1 296 656)"/><path class="st6" d="M2624.8-6379.8c-13.2-6.6-23.8-1.3-23.8 11.8 0 7.1 3.1 15 8.1 21.9l33.5-16.8c-4.4-7.1-10.7-13.4-17.8-16.9z" transform="matrix(-.1 0 0 .1 296 656)"/><path class="st4" d="M2629.3-6377.1l-6.2 3.3c-2.9 1.3-5.2 3.5-5.2 7.8 0 7.1 5.8 15.8 12.9 19.4 3.3 1.7 6.3 1.9 8.6 1l8.5-4.1c-2-10.2-9.3-21-18.6-27.4z" transform="matrix(-.1 0 0 .1 296 656)"/><path class="st5" d="M2629.3-6377.1l-6.2 3.3c-2.9 1.3-5.2 3.5-5.2 7.8 0 7.1 5.8 15.8 12.9 19.4 3.3 1.7 6.3 1.9 8.6 1l8.5-4.1c-2-10.2-9.3-21-18.6-27.4zm33.9 4c8.9 13.9 14.4 29.4 14.4 43.5 0 13.2-4.8 22.8-12.8 28l22.3-11.1c11-4.2 18-14.9 18-30.7 0-14-5.5-29.5-14.4-43.4l-27.5 13.7z" transform="matrix(-.1 0 0 .1 296 656)"/><path class="st4" d="M2643.8-6353.1c0 7.1-5.8 10-12.9 6.5-7.1-3.6-12.9-12.3-12.9-19.4s5.8-10 12.9-6.5c7.1 3.5 12.9 12.3 12.9 19.4z" transform="matrix(-.1 0 0 .1 296 656)"/><path d="M2633-6366.9c0 1.2-.9 1.6-2.1 1.1-1.2-.5-2.1-2-2.1-3.2s.9-1.6 2.1-1.1c1.2.5 2.1 2 2.1 3.2zm0 16.9c0 1.2-.9 1.6-2.1 1.1-1.2-.5-2.1-2-2.1-3.2 0-1.2.9-1.6 2.1-1.1 1.2.5 2.1 2 2.1 3.2zm-6.6-19.3c.8 1.2.8 2.6 0 3-.8.4-2.2-.3-3-1.5-.8-1.2-.8-2.6 0-3 .8-.4 2.1.3 3 1.5zm11.9 18c.8 1.2.8 2.6 0 3-.8.4-2.2-.3-3-1.5-.8-1.2-.8-2.6 0-3 .8-.4 2.2.2 3 1.5zm-15.9-14.6c1.2.6 2.1 2 2.1 3.2 0 1.2-.9 1.6-2.1 1.1-1.2-.6-2.1-2-2.1-3.2 0-1.2.9-1.7 2.1-1.1zm16.9 8.5c1.2.6 2.1 2 2.1 3.2 0 1.2-.9 1.6-2.1 1.1-1.2-.6-2.1-2-2.1-3.2 0-1.2.9-1.7 2.1-1.1zm-15.9-1.4c.8-.4 2.2.3 3 1.5.8 1.2.8 2.6 0 3-.8.4-2.2-.3-3-1.5-.9-1.3-.9-2.6 0-3zm11.9-6c.8-.4 2.2.3 3 1.5.8 1.2.8 2.6 0 3-.8.4-2.2-.3-3-1.5-.8-1.2-.8-2.6 0-3z" transform="matrix(-.1 0 0 .1 296 656)"/><path class="st3" d="M2624.8-6408.9c-29.2-14.6-52.8-2.8-52.8 26.4s23.7 64.6 52.8 79.2c29.1 14.6 52.8 2.8 52.8-26.4s-23.7-64.6-52.8-79.2zm0 99.3c-25.7-12.8-46.5-44-46.5-69.7 0-25.7 20.8-36.1 46.5-23.2 25.7 12.8 46.5 44 46.5 69.7 0 25.6-20.9 36-46.5 23.2z" transform="matrix(-.1 0 0 .1 296 656)"/><path d="M2620.9-6406.6l8.5 4.2-4.2-6.3c-.1-.1-.2-.1-.4-.2-2.6-1.3-5.1-2.3-7.6-3.2l3.7 5.5zm8.4 101.4l-8.5-4.2 3.2 5.8c.2.1.5.3.7.4 2.5 1.2 5 2.3 7.4 3.2l-2.8-5.2zm-32.2-104.9l7.3-.6-5.8-4.4h-.3c-2.2.2-4.3.6-6.3 1.1l5.1 3.9zm55.9 107.9l-7.3.6 4.8 4.5h.6c2.2-.2 4.2-.5 6.1-1.1l-4.2-4zm-72.3-96.9l4.2-5.2-5.8-1.3-.2.2c-1.3 1.6-2.4 3.3-3.3 5.2l5.1 1.1zm88.4 85.4l-4.2 5.2 5.2 2 .4-.4c1.2-1.5 2.3-3.2 3.2-5l-4.6-1.8zm-92.9-62.9v-8.4l-4.2 2.1v.4c0 2.6.2 5.2.5 7.8l3.7-1.9zm97.2 40.1v8.5l4.2-1.1v-.7c0-2.5-.2-5-.5-7.6l-3.7.9zm-88.8-12.1l-4.2-9.4-1.5 5c.1.1.1.3.2.4 1.3 2.9 2.7 5.7 4.2 8.4l1.3-4.4zm80-15.9l4.2 9.4 2.1-3.8c-.1-.3-.2-.5-.3-.8-1.2-2.8-2.6-5.5-4.1-8.2l-1.9 3.4zm-60.8 41.9l-7.3-7.9 1.5 6.5.3.3c2.2 2.4 4.5 4.6 6.8 6.7l-1.3-5.6zm41.3-67.7l7.3 7.9-.6-5.5c-.2-.2-.4-.5-.6-.7-2.2-2.3-4.4-4.5-6.6-6.5l.5 4.8z" transform="matrix(-.1 0 0 .1 296 656)"/><path d="M2616.4-6426.6c-.7.3-1.4.6-2.1 1l-6.9 3.4-.8 1.3-14.5 6.9c2-.6 4-.9 6.3-1.1h.3l14.7-6.3 3-5.2zm65.5 27.9c-1.6-1.9-3.3-3.7-5-5.5l-8.3 9.8-24.1-.8c2.3 2 4.5 4.2 6.6 6.5.2.2.4.5.6.7l21.2.5 9-11.2zm-57.1-10.2c.1.1.2.1.4.2l23.4-2.3 5.7-10.6c-.7-.4-1.3-.7-2-1-1.5-.7-3-1.4-4.4-2l-5.4 9.4-25.2 3.2c2.4.8 4.9 1.8 7.5 3.1zm67.1 83.6l11.4-5.5c.9-2.8 1.4-6 1.7-9.4l-12.2 6.4-15.6-3.6c.3 2.6.5 5.1.5 7.6v.7l14.2 3.8zm-18.2 13.4c-.9 1.8-2 3.5-3.2 5l-.4.4 3.4.5 9-4.5-8.8-1.4zm-2.8-47l20.4 4.3 10.4-9.1c-1-3.2-2.2-6.3-3.6-9.5l-10.4 8.7-21.2-3.4c1.5 2.7 2.9 5.4 4.1 8.2.1.2.2.5.3.8z" transform="matrix(-.1 0 0 .1 296 656)"/><path class="st8" d="M2642.8-6446.9l52.7 26.4-40.2 20.1-52.7-26.5z" transform="matrix(-.1 0 0 .1 296 656)"/><path class="st4" d="M2723-6376.1l-27.5-44.4-52.7-26.4-20.1 5.3-40.2 20 20.1-5.3 52.7 26.5 27.7 44.4v19l40.1-20.1v-19z" transform="matrix(-.1 0 0 .1 296 656)"/><path class="st5" d="M2642.8-6446.9l-20.1 5.3-40.2 20 20.1-5.3z" transform="matrix(-.1 0 0 .1 296 656)"/><path class="st4" d="M2832-6351v-40l-94 47v40z" transform="matrix(-.1 0 0 .1 296 656)"/><path class="st9" d="M2723-6376.1l-27.5-44.4-40.2 20.1 27.5 44.3z" transform="matrix(-.1 0 0 .1 296 656)"/><path class="st5" d="M2723.1-6376.1v19L2683-6337v-19z" transform="matrix(-.1 0 0 .1 296 656)"/><path class="st1" d="M2738-6551l-94 47v75l33.9 17 27.1 44v48l33 16 94-43v-157z" transform="matrix(-.1 0 0 .1 296 656)"/><path class="st8" d="M2715-6358.2v-12.5l-30-48.9-31-15.5v-52.9l80 40.1v98.9z" transform="matrix(-.1 0 0 .1 296 656)"/><path class="st1" d="M2684-6418l-6-3v-57l6 3z" transform="matrix(-.1 0 0 .1 296 656)"/><path class="st9" d="M2734-6440.5l-47.3 23.7 27.7 45 19.6-9.8z" transform="matrix(-.1 0 0 .1 296 656)"/><path class="st3" d="M2706.6-6461.7l-52.2 26.8 30.6 15.3 1.7 2.8 47.3-23.7v-7.4z" transform="matrix(-.1 0 0 .1 296 656)"/><path class="st2" d="M2644-6504v75l33.9 17 27.1 44v48l33 16v-153z" transform="matrix(-.1 0 0 .1 296 656)"/><path class="st8" d="M2828-6392v-99l-86 43v99z" transform="matrix(-.1 0 0 .1 296 656)"/><path opacity=".15" fill="#fff" d="M2738-6445.7l94 2.8v-54.1l-94 47z" transform="matrix(-.1 0 0 .1 296 656)"/><path class="st1" d="M2832-6493v-11l-94 47v11z" transform="matrix(-.1 0 0 .1 296 656)"/><path class="st4" d="M2711-6357l-10 5v52l4 2 4-2 6-55z" transform="matrix(-.1 0 0 .1 296 656)"/><path class="st2" d="M2701-6352l4 2v52l-4-2z" transform="matrix(-.1 0 0 .1 296 656)"/><path class="st5" d="M2715-6355l-10 5v52l4-2z" transform="matrix(-.1 0 0 .1 296 656)"/><path class="st4" d="M2713-6344l-8 4v4l18 9 4-10z" transform="matrix(-.1 0 0 .1 296 656)"/><path class="st2" d="M2705-6340v4l18 9v-4z" transform="matrix(-.1 0 0 .1 296 656)"/><path class="st4" d="M2711-6327l-6 3v4l18 9 2-9z" transform="matrix(-.1 0 0 .1 296 656)"/><path class="st2" d="M2705-6324v4l18 9v-4z" transform="matrix(-.1 0 0 .1 296 656)"/><path class="st4" d="M2709-6310l-4 2v4l18 9v-8z" transform="matrix(-.1 0 0 .1 296 656)"/><path class="st2" d="M2705-6308v4l18 9v-4z" transform="matrix(-.1 0 0 .1 296 656)"/><path class="st4" d="M2733-6346l-10 5v52l4 2 4-2 6-55z" transform="matrix(-.1 0 0 .1 296 656)"/><path class="st2" d="M2723-6341l4 2v52l-4-2z" transform="matrix(-.1 0 0 .1 296 656)"/><path class="st5" d="M2737-6344l-10 5v52l4-2z" transform="matrix(-.1 0 0 .1 296 656)"/><path class="st1" d="M2907.2-6389.8c-12.5-6.2-23.7-6.7-31.7-2.4l-22.9 11.5c-7.7 4.1-12.5 12.6-12.5 24.5 0 24.4 19.8 54.1 44.2 66.3 13.4 6.7 25.4 6.7 33.5 1.4l18.6-9.3c9.2-3.5 15-12.4 15-25.7 0-24.4-19.8-54.1-44.2-66.3z" transform="matrix(-.1 0 0 .1 296 656)"/><path class="st2" d="M2928.4-6311.9c0 24.4-19.8 34.3-44.2 22.1-24.4-12.2-44.2-41.9-44.2-66.3s19.8-34.3 44.2-22.1c24.4 12.2 44.2 41.8 44.2 66.3z" transform="matrix(-.1 0 0 .1 296 656)"/><path class="st3" d="M2886.2-6379.3c-13.3-6.6-25.2-6.7-33.3-1.5 7.7-2.5 17.5-1.4 28.2 3.9 24.4 12.2 44.2 41.9 44.2 66.3 0 11.1-4.1 19.2-10.9 23.6 9.8-3.2 16-12.3 16-26 0-24.5-19.8-54.1-44.2-66.3z" transform="matrix(-.1 0 0 .1 296 656)"/><path class="st4" d="M2905.9-6323.2c0 12-9.7 16.8-21.7 10.8s-21.7-20.5-21.7-32.5 9.7-16.8 21.7-10.8 21.7 20.5 21.7 32.5z" transform="matrix(-.1 0 0 .1 296 656)"/><path class="st4" d="M2904.1-6324.1c0 11-8.9 15.4-19.9 9.9s-19.9-18.8-19.9-29.8 8.9-15.4 19.9-9.9 19.9 18.8 19.9 29.8z" transform="matrix(-.1 0 0 .1 296 656)"/><path class="st4" d="M2904.1-6324.1c0 11-8.9 15.4-19.9 9.9s-19.9-18.8-19.9-29.8 8.9-15.4 19.9-9.9 19.9 18.8 19.9 29.8z" transform="matrix(-.1 0 0 .1 296 656)"/><path class="st5" d="M2904.1-6324.1c0 11-8.9 15.4-19.9 9.9s-19.9-18.8-19.9-29.8 8.9-15.4 19.9-9.9 19.9 18.8 19.9 29.8z" transform="matrix(-.1 0 0 .1 296 656)"/><path class="st6" d="M2884.2-6353.9c-11-5.5-19.9-1-19.9 9.9 0 5.9 2.6 12.6 6.7 18.3l28.1-14c-3.6-6-9-11.3-14.9-14.2z" transform="matrix(-.1 0 0 .1 296 656)"/><path class="st4" d="M2888-6351.6l-5.2 2.8c-2.4 1.1-4.4 2.9-4.4 6.5 0 6 4.8 13.3 10.8 16.2 2.8 1.4 5.3 1.6 7.2.8l7.1-3.4c-1.6-8.5-7.7-17.6-15.5-22.9z" transform="matrix(-.1 0 0 .1 296 656)"/><path class="st5" d="M2888-6351.6l-5.2 2.8c-2.4 1.1-4.4 2.9-4.4 6.5 0 6 4.8 13.3 10.8 16.2 2.8 1.4 5.3 1.6 7.2.8l7.1-3.4c-1.6-8.5-7.7-17.6-15.5-22.9zm27.9 3.7c7.5 11.7 12.1 24.6 12.1 36.4 0 11-4 19.1-10.7 23.5l18.6-9.3c9.2-3.5 15-12.4 15-25.7 0-11.7-4.6-24.7-12-36.3l-23 11.4z" transform="matrix(-.1 0 0 .1 296 656)"/><path class="st4" d="M2900.1-6331.5c0 6-4.8 8.4-10.8 5.4s-10.8-10.3-10.8-16.2c0-6 4.8-8.4 10.8-5.4s10.8 10.2 10.8 16.2z" transform="matrix(-.1 0 0 .1 296 656)"/><path d="M2891.1-6343.1c0 1-.8 1.4-1.8.9s-1.8-1.7-1.8-2.7.8-1.4 1.8-.9 1.8 1.7 1.8 2.7zm0 14.1c0 1-.8 1.4-1.8.9s-1.8-1.7-1.8-2.7.8-1.4 1.8-.9 1.8 1.7 1.8 2.7zm-5.6-16.1c.7 1 .7 2.2 0 2.5-.7.3-1.8-.2-2.5-1.2s-.7-2.2 0-2.5c.7-.4 1.8.2 2.5 1.2zm10 15c.7 1 .7 2.2 0 2.5-.7.3-1.8-.2-2.5-1.2s-.7-2.2 0-2.5c.7-.4 1.8.2 2.5 1.2zm-13.3-12.2c1 .5 1.8 1.7 1.8 2.7s-.8 1.4-1.8.9-1.8-1.7-1.8-2.7.8-1.3 1.8-.9zm14.2 7.1c1 .5 1.8 1.7 1.8 2.7s-.8 1.4-1.8.9-1.8-1.7-1.8-2.7.8-1.4 1.8-.9zm-13.4-1.1c.7-.3 1.8.2 2.5 1.2s.7 2.2 0 2.5c-.7.3-1.8-.2-2.5-1.2-.7-1.1-.7-2.2 0-2.5zm10-5c.7-.3 1.8.2 2.5 1.2s.7 2.2 0 2.5c-.7.3-1.8-.2-2.5-1.2-.7-1.1-.7-2.2 0-2.5z" transform="matrix(-.1 0 0 .1 296 656)"/><path class="st3" d="M2884.2-6378.2c-24.4-12.2-44.2-2.3-44.2 22.1s19.8 54.1 44.2 66.3c24.4 12.2 44.2 2.3 44.2-22.1s-19.8-54.1-44.2-66.3zm0 83.1c-21.5-10.7-38.9-36.9-38.9-58.3 0-21.5 17.4-30.2 38.9-19.5s38.9 36.9 38.9 58.3-17.4 30.2-38.9 19.5z" transform="matrix(-.1 0 0 .1 296 656)"/><path d="M2881-6376.3l7.1 3.5-3.5-5.3c-.1-.1-.2-.1-.3-.2-2.1-1.1-4.3-2-6.3-2.7l3 4.7zm7 84.8l-7-3.5 2.6 4.8.6.3c2.1 1 4.1 1.9 6.2 2.6l-2.4-4.2zm-26.9-87.8l6.1-.5-4.8-3.7h-.3c-1.9.1-3.6.5-5.2.9l4.2 3.3zm46.7 90.3l-6.1.5 4 3.8h.5c1.8-.1 3.5-.5 5.1-.9l-3.5-3.4zm-60.5-81.1l3.5-4.4-4.8-1.1-.2.2c-1.1 1.3-2 2.8-2.8 4.3l4.3 1zm74 71.5l-3.5 4.4 4.4 1.7c.1-.1.2-.2.3-.4 1-1.3 1.9-2.7 2.7-4.2l-3.9-1.5zm-77.7-52.6v-7.1l-3.5 1.8v.3c0 2.1.2 4.3.5 6.5l3-1.5zm81.3 33.6v7.1l3.5-.9v-.6c0-2.1-.2-4.2-.4-6.4l-3.1.8zm-74.3-10.2l-3.5-7.9-1.3 4.2c0 .1.1.2.1.3 1.1 2.4 2.3 4.7 3.6 7l1.1-3.6zm66.9-13.3l3.5 7.9 1.7-3.2c-.1-.2-.2-.4-.3-.7-1-2.3-2.2-4.6-3.5-6.8l-1.4 2.8zm-50.8 35.1l-6.1-6.6 1.3 5.5.3.3c1.9 2 3.8 3.9 5.7 5.6l-1.2-4.8zm34.5-56.7l6.1 6.6-.5-4.6c-.2-.2-.3-.4-.5-.6-1.8-1.9-3.7-3.8-5.5-5.5l.4 4.1z" transform="matrix(-.1 0 0 .1 296 656)"/><path d="M2877.2-6393c-.6.3-1.2.5-1.8.8l-5.7 2.9-.6 1.1-12.2 5.7c1.6-.5 3.4-.8 5.2-.9h.3l12.3-5.2 2.5-4.4zm54.8 23.3c-1.3-1.6-2.7-3.1-4.2-4.6l-6.9 8.2-20.2-.7c1.9 1.7 3.7 3.5 5.5 5.5.2.2.3.4.5.6l17.7.4 7.6-9.4zm-47.8-8.5c.1.1.2.1.3.2l19.6-1.9 4.8-8.9c-.6-.3-1.1-.6-1.7-.9-1.3-.6-2.5-1.2-3.7-1.7l-4.5 7.8-21 2.7c1.9.7 4.1 1.6 6.2 2.7zm56.1 69.9l9.6-4.6c.7-2.4 1.2-5 1.4-7.8l-10.2 5.3-13.1-3c.3 2.2.4 4.3.4 6.4v.6l11.9 3.1zm-15.2 11.2c-.8 1.5-1.7 2.9-2.7 4.2-.1.1-.2.2-.3.4l2.9.4 7.6-3.8-7.5-1.2zm-2.3-39.3l17.1 3.6 8.7-7.6c-.8-2.6-1.9-5.3-3-7.9l-8.7 7.3-17.8-2.9c1.2 2.2 2.4 4.5 3.5 6.8 0 .2.1.5.2.7z" transform="matrix(-.1 0 0 .1 296 656)"/><path class="st4" d="M2918-6287v-11l-56 28v11z" transform="matrix(-.1 0 0 .1 296 656)"/><path class="st5" d="M2918-6287v-11l-56 28v11z" transform="matrix(-.1 0 0 .1 296 656)"/><path class="st1" d="M2812-6362l122 61-56 28-122-61z" transform="matrix(-.1 0 0 .1 296 656)"/><path class="st4" d="M2934-6290v-11l-56 28v11z" transform="matrix(-.1 0 0 .1 296 656)"/><path class="st5" d="M2934-6290v-11l-56 28v11z" transform="matrix(-.1 0 0 .1 296 656)"/><path class="st4" d="M2756-6312v-22l122 61v11l-16-8v11z" transform="matrix(-.1 0 0 .1 296 656)"/><path class="st2" d="M2756-6312v-22l122 61v11l-16-8v11z" transform="matrix(-.1 0 0 .1 296 656)"/><path class="st5" d="M2832-6369v-135l-94 47v135z" transform="matrix(-.1 0 0 .1 296 656)"/><path class="st4" d="M2756-6405l56-28 82 50.5c14.9 9 24 25.1 24 42.5v31l-56 28-106-53v-71z" transform="matrix(-.1 0 0 .1 296 656)"/><path class="st1" d="M2854.6-6334.7l-7.6-3.8c-3.2-1.6-7 .7-7 4.3v25.6c0 5.3 3 10.1 7.7 12.4l10.8 5.4c2.2 1.1 4.9 1.1 7.1 0l52.4-26.2v-22.9c0-7.3-1.6-14.4-4.6-20.8l-51.9 26c-2.2 1.1-4.7 1.1-6.9 0zM2770-6377v2l32 16v-2zm0 5v2l32 16v-2zm0 5v2l32 16v-2zm0 5v2l32 16v-2zm0 5v2l32 16v-2z" transform="matrix(-.1 0 0 .1 296 656)"/><path class="st2" d="M2756-6334v-71l82 50.5c14.9 9 24 25.1 24 42.5v31l-106-53z" transform="matrix(-.1 0 0 .1 296 656)"/><path class="st2" d="M2756-6334v-71l82 50.5c14.9 9 24 25.1 24 42.5v31l-106-53z" transform="matrix(-.1 0 0 .1 296 656)"/><g transform="matrix(-.1 0 0 .1 296 656)"><path class="st11" d="M2882-6317.7v-5c0-2-2.1-3.3-3.9-2.4l-12.6 6.3c-.9.5-1.5 1.4-1.5 2.4v5c0 2 2.1 3.3 3.9 2.4l12.6-6.3c.9-.4 1.5-1.3 1.5-2.4z"/><ellipse transform="rotate(-39.144 2876.054 -6318.377)" class="st12" cx="2876.2" cy="-6318.7" rx="3.2" ry="-4.9"/><ellipse transform="rotate(-39.144 2869.792 -6315.348)" class="st12" cx="2869.9" cy="-6315.6" rx="3.2" ry="-4.9"/><path class="st13" d="M2881.4-6316.1l-16.9-1.9c-.3.5-.6 1-.6 1.6v5c0 2 2.1 3.3 3.9 2.4l12.6-6.3c.5-.1.8-.4 1-.8z"/></g><g transform="matrix(-.1 0 0 .1 296 656)"><path class="st11" d="M2916-6334.7v-5c0-2-2.1-3.3-3.9-2.4l-12.6 6.3c-.9.5-1.5 1.4-1.5 2.4v5c0 2 2.1 3.3 3.9 2.4l12.6-6.3c.9-.4 1.5-1.3 1.5-2.4z"/><ellipse transform="rotate(-39.144 2910.052 -6335.374)" class="st12" cx="2910.2" cy="-6335.6" rx="3.2" ry="-4.9"/><ellipse transform="rotate(-39.144 2903.79 -6332.346)" class="st12" cx="2903.9" cy="-6332.6" rx="3.2" ry="-4.9"/><path class="st13" d="M2915.4-6333.1l-16.9-1.9c-.3.5-.6 1-.6 1.6v5c0 2 2.1 3.3 3.9 2.4l12.6-6.3c.5-.1.8-.4 1-.8z"/></g><path class="st5" d="M2913.4-6360.7L2858-6333l-.9-.5c3.2 6.6 4.9 13.9 4.9 21.5v31l56-28v-30.9c0-7.3-1.6-14.4-4.6-20.8z" transform="matrix(-.1 0 0 .1 296 656)"/><path class="st3" d="M2904.5-6369.1l-49.3 23.9c-2.1 1-2.8 3.7-1.5 5.7v.1c1.1 1.6 3.2 2.1 4.9 1.3l49.3-23.9c2.1-1 2.9-3.7 1.6-5.7v-.1c-1.1-1.6-3.2-2.2-5-1.3z" transform="matrix(-.1 0 0 .1 296 656)"/><g transform="matrix(-.1 0 0 .1 296 656)"><path class="st4" d="M2736-6560l-94 47v15l98 49 94-47v-15z"/><path class="st2" d="M2642-6498v-15l98 49v15z"/><path class="st11" d="M2758.4-6465.3c0 2.9 2.4 4.1 5.3 2.7 2.9-1.5 5.3-5 5.3-8s-2.4-4.1-5.3-2.7c-2.9 1.5-5.3 5.1-5.3 8zm49-24.1c0 2.9 2.4 4.1 5.3 2.7 2.9-1.5 5.3-5 5.3-8s-2.4-4.1-5.3-2.7c-2.9 1.5-5.3 5-5.3 8z"/><path d="M2832-6500v-7l-12 6v7zm-78 39v-7l-12 6v7z" fill="#fc0"/><ellipse transform="rotate(-39.144 2814.05 -6493.257)" class="st12" cx="2814.2" cy="-6493.5" rx="2.1" ry="-3.1"/><ellipse transform="rotate(-39.144 2764.052 -6469.26)" class="st12" cx="2764.2" cy="-6469.5" rx="2.1" ry="-3.1"/><path class="st5" d="M2834-6496v-15l-94 47v15z"/></g><g transform="matrix(-.1 0 0 .1 296 656)"><path class="st1" d="M2755-6436c-4.4 0-8 1.8-8 4v78c0 2.2 3.6 4 8 4s8-1.8 8-4v-78c0-2.2-3.6-4-8-4z"/><ellipse cx="2755" cy="-6432" rx="6" ry="-2.5" opacity=".8"/><path class="st1" d="M2769.4-6333.7c0-1.3-1.1-3-2.4-3.7-.9-.4-1.6-.4-2 .1-1.5.5-3.1.3-4.5-.5-1.6-1-2.5-2.6-2.5-4.5V-6480h-6v137.7c0 3.9 2 7.5 5.4 9.6 1.8 1.1 3.9 1.7 5.9 1.7 1.7 0 3.5-.4 5.1-1.2-.1 0 1-.7 1-1.5z"/><path class="st1" d="M2758-6435.7v1.5c1.8.4 3 1.2 3 2.2 0 1.4-2.7 2.5-6 2.5s-6-1.1-6-2.5c0-.9 1.2-1.7 3-2.2v-1.5c-2.9.6-5 2-5 3.7v78c0 2.2 3.6 4 8 4s8-1.8 8-4v-78c0-1.7-2.1-3.1-5-3.7z"/><path class="st16" d="M2755-6428c-4.4 0-8-1.8-8-4v78c0 2.2 3.6 4 8 4s8-1.8 8-4v-78c0 2.2-3.6 4-8 4z"/><ellipse class="st1" cx="2755" cy="-6480" rx="3" ry="-2"/></g><path class="st1" d="M2795.2-6333.2c-12.5-6.2-23.7-6.7-31.7-2.4l-22.9 11.5c-7.7 4.1-12.5 12.6-12.5 24.5 0 24.4 19.8 54.1 44.2 66.3 13.4 6.7 25.4 6.7 33.5 1.4l18.6-9.3c9.2-3.5 15-12.4 15-25.7 0-24.4-19.8-54.1-44.2-66.3z" transform="matrix(-.1 0 0 .1 296 656)"/><path class="st2" d="M2816.4-6255.3c0 24.4-19.8 34.3-44.2 22.1-24.4-12.2-44.2-41.9-44.2-66.3s19.8-34.3 44.2-22.1c24.4 12.2 44.2 41.9 44.2 66.3z" transform="matrix(-.1 0 0 .1 296 656)"/><path class="st3" d="M2774.2-6322.7c-13.3-6.6-25.2-6.7-33.3-1.5 7.7-2.5 17.5-1.4 28.2 3.9 24.4 12.2 44.2 41.9 44.2 66.3 0 11.1-4.1 19.2-10.9 23.6 9.8-3.2 16-12.3 16-26 0-24.4-19.8-54.1-44.2-66.3z" transform="matrix(-.1 0 0 .1 296 656)"/><path class="st4" d="M2793.9-6266.6c0 12-9.7 16.8-21.7 10.8s-21.7-20.5-21.7-32.5 9.7-16.8 21.7-10.8 21.7 20.5 21.7 32.5z" transform="matrix(-.1 0 0 .1 296 656)"/><path class="st4" d="M2792.1-6267.5c0 11-8.9 15.4-19.9 9.9s-19.9-18.8-19.9-29.8 8.9-15.4 19.9-9.9 19.9 18.8 19.9 29.8z" transform="matrix(-.1 0 0 .1 296 656)"/><path class="st4" d="M2792.1-6267.5c0 11-8.9 15.4-19.9 9.9s-19.9-18.8-19.9-29.8 8.9-15.4 19.9-9.9 19.9 18.8 19.9 29.8z" transform="matrix(-.1 0 0 .1 296 656)"/><path class="st5" d="M2792.1-6267.5c0 11-8.9 15.4-19.9 9.9s-19.9-18.8-19.9-29.8 8.9-15.4 19.9-9.9 19.9 18.8 19.9 29.8z" transform="matrix(-.1 0 0 .1 296 656)"/><path class="st6" d="M2772.2-6297.3c-11-5.5-19.9-1-19.9 9.9 0 5.9 2.6 12.6 6.7 18.3l28.1-14c-3.6-6-9-11.2-14.9-14.2z" transform="matrix(-.1 0 0 .1 296 656)"/><path class="st4" d="M2776-6295l-5.2 2.8c-2.4 1.1-4.4 2.9-4.4 6.5 0 6 4.8 13.3 10.8 16.2 2.8 1.4 5.3 1.6 7.2.8l7.1-3.4c-1.6-8.5-7.7-17.6-15.5-22.9z" transform="matrix(-.1 0 0 .1 296 656)"/><path class="st5" d="M2776-6295l-5.2 2.8c-2.4 1.1-4.4 2.9-4.4 6.5 0 6 4.8 13.3 10.8 16.2 2.8 1.4 5.3 1.6 7.2.8l7.1-3.4c-1.6-8.5-7.7-17.6-15.5-22.9zm28.3 3.3c7.5 11.7 12.1 24.6 12.1 36.4 0 11-4 19.1-10.7 23.5l18.6-9.3c9.2-3.5 15-12.4 15-25.7 0-11.7-4.6-24.7-12-36.3l-23 11.4z" transform="matrix(-.1 0 0 .1 296 656)"/><path class="st4" d="M2788.1-6274.9c0 6-4.8 8.4-10.8 5.4s-10.8-10.3-10.8-16.2c0-5.9 4.8-8.4 10.8-5.4 6 2.9 10.8 10.2 10.8 16.2z" transform="matrix(-.1 0 0 .1 296 656)"/><path d="M2779.1-6286.5c0 1-.8 1.4-1.8.9s-1.8-1.7-1.8-2.7.8-1.4 1.8-.9 1.8 1.7 1.8 2.7zm0 14.1c0 1-.8 1.4-1.8.9s-1.8-1.7-1.8-2.7.8-1.4 1.8-.9c1 .6 1.8 1.7 1.8 2.7zm-5.6-16.1c.7 1 .7 2.2 0 2.5s-1.8-.2-2.5-1.2-.7-2.2 0-2.5c.7-.4 1.8.2 2.5 1.2zm10 15c.7 1 .7 2.2 0 2.5s-1.8-.2-2.5-1.2-.7-2.2 0-2.5c.7-.3 1.8.2 2.5 1.2zm-13.3-12.1c1 .5 1.8 1.7 1.8 2.7s-.8 1.4-1.8.9-1.8-1.7-1.8-2.7.8-1.4 1.8-.9zm14.2 7c1 .5 1.8 1.7 1.8 2.7s-.8 1.4-1.8.9-1.8-1.7-1.8-2.7.8-1.4 1.8-.9zm-13.4-1.1c.7-.3 1.8.2 2.5 1.2s.7 2.2 0 2.5-1.8-.2-2.5-1.2-.7-2.2 0-2.5zm10-5c.7-.3 1.8.2 2.5 1.2s.7 2.2 0 2.5-1.8-.2-2.5-1.2c-.7-1.1-.7-2.2 0-2.5z" transform="matrix(-.1 0 0 .1 296 656)"/><path class="st3" d="M2772.2-6321.6c-24.4-12.2-44.2-2.3-44.2 22.1s19.8 54.1 44.2 66.3c24.4 12.2 44.2 2.3 44.2-22.1 0-24.4-19.8-54.1-44.2-66.3zm0 83.1c-21.5-10.7-38.9-36.9-38.9-58.3 0-21.5 17.4-30.2 38.9-19.5s38.9 36.9 38.9 58.3-17.4 30.2-38.9 19.5z" transform="matrix(-.1 0 0 .1 296 656)"/><path d="M2769-6319.7l7.1 3.5-3.5-5.3c-.1-.1-.2-.1-.3-.2-2.1-1.1-4.3-2-6.3-2.7l3 4.7zm7 84.9l-7.1-3.5 2.6 4.8.6.3c2.1 1 4.1 1.9 6.2 2.6l-2.3-4.2zm-26.9-87.8l6.1-.5-4.8-3.7h-.3c-1.9.1-3.6.5-5.2.9l4.2 3.3zm46.7 90.3l-6.1.5 4 3.8h.5c1.8-.1 3.5-.5 5.1-.9l-3.5-3.4zm-60.5-81.2l3.5-4.4-4.8-1.1-.2.2c-1.1 1.3-2 2.8-2.8 4.3l4.3 1zm74 71.6l-3.5 4.4 4.4 1.7c.1-.1.2-.2.3-.4 1-1.3 1.9-2.7 2.7-4.2l-3.9-1.5zm-77.7-52.7v-7.1l-3.5 1.8v.3c0 2.1.2 4.3.5 6.5l3-1.5zm81.3 33.6v7.1l3.5-.9v-.6c0-2.1-.2-4.2-.4-6.4l-3.1.8zm-74.3-10.2l-3.5-7.9-1.3 4.2c0 .1.1.2.1.3 1.1 2.4 2.3 4.7 3.6 7l1.1-3.6zm66.9-13.3l3.5 7.9 1.7-3.2c-.1-.2-.2-.4-.3-.7-1-2.3-2.2-4.6-3.5-6.8l-1.4 2.8zm-50.8 35.1l-6.1-6.6 1.3 5.5.3.3c1.9 2 3.8 3.9 5.7 5.6l-1.2-4.8zm34.5-56.7l6.1 6.6-.5-4.6c-.2-.2-.3-.4-.5-.6-1.8-1.9-3.7-3.8-5.5-5.5l.4 4.1z" transform="matrix(-.1 0 0 .1 296 656)"/><path d="M2765.2-6336.4c-.6.3-1.2.5-1.8.8l-5.7 2.9-.6 1.1-12.2 5.7c1.6-.5 3.4-.8 5.2-.9h.3l12.3-5.2 2.5-4.4zm54.8 23.3c-1.3-1.6-2.7-3.1-4.2-4.6l-6.9 8.2-20.2-.7c1.9 1.7 3.7 3.5 5.5 5.5.2.2.3.4.5.6l17.7.4 7.6-9.4zm-47.8-8.5c.1.1.2.1.3.2l19.6-1.9 4.8-8.9c-.6-.3-1.1-.6-1.7-.9-1.3-.6-2.5-1.2-3.7-1.7l-4.5 7.8-21 2.7c1.9.7 4.1 1.6 6.2 2.7zm56.1 70l9.6-4.6c.7-2.4 1.2-5 1.4-7.8l-10.2 5.3-13.1-3c.3 2.2.4 4.3.4 6.4v.6l11.9 3.1zm-15.2 11.1c-.8 1.5-1.7 2.9-2.7 4.2-.1.1-.2.2-.3.4l2.9.4 7.6-3.8-7.5-1.2zm-2.3-39.3l17.1 3.6 8.7-7.6c-.8-2.6-1.9-5.3-3-7.9l-8.7 7.3-17.8-2.9c1.2 2.2 2.4 4.5 3.5 6.8 0 .2.1.5.2.7z" transform="matrix(-.1 0 0 .1 296 656)"/><path class="st16" d="M2734-6368l-19 10v-13l19-10z" transform="matrix(-.1 0 0 .1 296 656)"/><path class="st6" d="M2696-6467v29.1l16.8 8.5 21.2 34v-52.5z" transform="matrix(-.1 0 0 .1 296 656)"/></g></svg>