<svg xmlns="http://www.w3.org/2000/svg" width="38" height="92"><style>.st0{opacity:.3;enable-background:new}.st1{fill:#825012}.st2{fill:#539b00}.st3{opacity:.2;fill:#fff;enable-background:new}</style><g transform="translate(856 648)" id="i2173_1_"><ellipse class="st0" cx="-833.5" cy="-600" rx="7.5" ry="4"/><path class="st1" d="M-832-624v24c0 .6-.7 1-1.5 1s-1.5-.4-1.5-1v-24h3z"/><circle class="st2" cx="-824.5" cy="-625.5" r="6.5"/><circle class="st2" cx="-828" cy="-634" r="9"/><path class="st1" d="M-834-611.6c-2.6 0-3-.9-3-3.4v-8h-1v10c0 1.7 1.3 3 3 3h1v-1.6zm1 1.4c1.7 0 3-.4 3-2.1v-9.7h1v10c0 1.7-1.3 3-3 3h-1v-1.2z"/><path class="st1" d="M-837-613.2c-1.7 0-2-1.3-2-2.1v-9.7h-1v10c0 1.7 1.3 3 3 3v-1.2z"/><circle class="st2" cx="-838" cy="-624" r="9"/><circle class="st2" cx="-843" cy="-628" r="6"/><path class="st1" d="M-838-624.2c-1.7 0-3-.4-3-2.1v-2.7h-1v3c0 1.7 1.3 3 3 3h1v-1.2z"/><circle class="st2" cx="-839" cy="-636" r="8"/><circle class="st2" cx="-835" cy="-640" r="8"/><circle class="st2" cx="-828.5" cy="-642.5" r="4.5"/><path class="st3" d="M-842.9-634c2.2 0 4.1 1.3 4.9 3.1.3-.1.7-.1 1.1-.1 1.8 0 3.4.9 4.4 2.2-.4-1.8-2-3.2-3.9-3.2h-.1c-.5-2.3-2.5-4-4.9-4-2 0-3.7 1.2-4.5 2.9.8-.6 1.9-.9 3-.9z"/><path class="st1" d="M-835-636.6c.2.2.5.4.7.6h.3v-3c-.3 0-.7-.1-1-.2v2.6z"/><path class="st3" d="M-834.5-644c2.4 0 4.3 1.9 4.5 4.2.5-.1 1-.2 1.5-.2 2.5 0 4.6 1.6 5.3 3.9.1-.4.2-.9.2-1.4 0-2.5-2-4.5-4.5-4.5-.5 0-1 .1-1.5.3-.1-1.8-1.6-3.3-3.5-3.3-1 0-1.9.4-2.5 1h.5z"/><path class="st0" d="M-819.1-632.6c-1.7 1.9-4.1 3.1-6.8 3.1h-.6c1 1.1 1.6 2.4 1.7 3.9 2.9-1.1 5.2-3.8 5.7-7zm-2.4 10.3c.3.7.4 1.5.5 2.3 1.7-1.1 2.9-2.9 3-5-.8 1.3-2.1 2.2-3.5 2.7zm-21.8-11.7c-1.6-1.4-2.7-3.5-2.7-5.9-.6 1.1-1 2.5-1 3.9 0 1.1.2 2.1.6 3.1.9-.7 2-1 3.1-1.1z"/><path class="st1" d="M-828-632.4c0 1.7-1.3 2.1-3 2.1v1.3h1c1.7 0 3-1.3 3-3v-2c-.3 0-.7-.1-1-.2v1.8z"/><circle class="st2" cx="-830.2" cy="-621.2" r="9.3"/><path class="st3" d="M-834-624c1.2 0 2.3.3 3.3.8 1.2-1.1 2.9-1.8 4.7-1.8 1.6 0 3.1.5 4.2 1.4-1.1-2-3.3-3.4-5.7-3.4-1.6 0-3.1.6-4.2 1.6-.7-.4-1.5-.6-2.3-.6-2.4 0-4.4 1.7-4.9 4 1.3-1.2 3-2 4.9-2z"/><path class="st0" d="M-829.2-614c-3.8 0-7-2-8.8-5h-.9c-3.5 0-6.5-2-8-4.9 0 4.9 4 8.9 8.9 8.9h.9c1.7 1.9 4.1 3 6.8 3 3.6 0 6.6-2 8.2-4.9-1.8 1.8-4.4 2.9-7.1 2.9z"/></g><g transform="translate(848 688)" id="i2174_1_"><ellipse class="st0" cx="-834.5" cy="-600" rx="7.5" ry="4"/><path class="st1" d="M-836-627v27c0 .6.7 1 1.5 1s1.5-.4 1.5-1v-27h-3z"/><circle class="st2" cx="-841.5" cy="-631.5" r="6.5"/><circle class="st2" cx="-837" cy="-640" r="9"/><path class="st1" d="M-834-611.6c2.6 0 3-.9 3-3.4v-8h1v10c0 1.7-1.3 3-3 3h-1v-1.6zm0-.6c-1.7 0-3-.4-3-2.1v-9.7h-1v10c0 1.7 1.3 3 3 3h1v-1.2zm-2-21c-1.7 0-3-.4-3-2.1v-2.7h-1v3c0 1.7 1.3 3 3 3h1v-1.2z"/><circle class="st2" cx="-829.5" cy="-624.5" r="7.5"/><circle class="st2" cx="-825" cy="-628" r="6"/><path class="st1" d="M-830-625.2c1.7 0 3-.4 3-2.1v-2.7h1v3c0 1.7-1.3 3-3 3h-1v-1.2zm-7-15.4h1v9.6h-1z"/><circle class="st2" cx="-828" cy="-638" r="8"/><circle class="st2" cx="-833" cy="-647" r="8"/><path class="st3" d="M-827.5-639.5c-.9-.9-2.2-1.5-3.5-1.5-2 0-3.7 1.2-4.5 2.9.8-.6 1.9-.9 3-.9 2.2 0 4.1 1.3 4.9 3.1.3-.1.7-.1 1.1-.1 1.8 0 3.4.9 4.4 2.2-.4-1.8-2-3.2-3.9-3.2h-.1c-.2-1-.7-1.9-1.4-2.5"/><circle class="st2" cx="-842" cy="-639.6" r="3.6"/><path class="st3" d="M-842-639.5c0-2.5 1.7-4.6 4-5.3.2-2.9 2.6-5.2 5.5-5.2 1.7 0 3.3.8 4.3 2.1-.6-2.4-2.8-4.1-5.3-4.1-2.9 0-5.3 2.2-5.5 5.1-2.3.5-4 2.5-4 4.9 0 1.1.4 2.2 1 3v-.5z"/><path class="st2" d="M-827.4-624.2c0 5.1-4.2 9.3-9.3 9.3-5.1 0-9.3-4.2-9.3-9.3 0-5.1 4.2-9.3 9.3-9.3 5.1 0 9.3 4.2 9.3 9.3"/><circle class="st2" cx="-824.7" cy="-630.2" r="3.3"/><path class="st0" d="M-819-628c0-.4 0-.8-.1-1.2-.6 3.8-3.9 6.7-7.9 6.7h-.4c.7.3 1.6.5 2.4.5.7 0 1.3-.1 1.9-.3-1.4 1.4-3.3 2.3-5.4 2.3-1 0-2-.2-2.9-.6-1.6 1.6-3.9 2.6-6.3 2.6-3.5 0-6.6-2-8.1-4.8.7 4.4 4.5 7.8 9.1 7.8 2.2 0 4.3-.8 5.9-2.1.4.1.8.1 1.3.1 3.5 0 6.5-2.4 7.3-5.7 1.9-1 3.2-3 3.2-5.3z"/><path class="st3" d="M-839.5-629c.8 0 1.5.1 2.2.4.9-1.4 2.5-2.4 4.3-2.4 1 0 1.9.3 2.7.8-.7-1.7-2.3-2.8-4.2-2.8-1.6 0-3 .8-3.8 2h-.7c-2.9 0-5.4 2.1-5.9 4.9 1.2-1.8 3.2-2.9 5.4-2.9z"/><path class="st0" d="M-844-628.5c-1.9-.8-3.4-2.4-3.9-4.5 0 .5-.1 1-.1 1.5 0 2.4 1.3 4.4 3.2 5.6.1-.9.4-1.8.8-2.6z"/></g></svg>