<svg xmlns="http://www.w3.org/2000/svg" width="23.3" height="35.8"><style>.st0{fill:#39c}.st1{opacity:.2;enable-background:new}.st2{fill:#2d3134}.st3{opacity:.4;enable-background:new}.st4{fill:#06547a}.st5{fill:#9c3}.st6{fill:#fbd7c7}.st7{fill:#762c07}.st8{opacity:.3;enable-background:new}.st9{fill:#825012}.st10,.st11{opacity:.29;enable-background:new}.st11{opacity:.11}.st12{fill:#f90}.st14{opacity:6.000000e-02;enable-background:new}.st15{fill:#a9abb0}.st16{fill:#808285}.st17{opacity:.39;enable-background:new}</style><g id="i1446_1_"><path class="st0" d="M10846.1-4529.3l10.3-2.9 7.1 1.7 6.5 50.3-12.1 8.1zm20.7-4.5l7.5-14.1-15.8 2.6-2-7.6s21.6-7 25.6-7.1c4-.1 6.9 1.8 5.6 6.5-1.3 4.7-8.5 24-9.1 26.2-1.4 4.5-3.3 11-3.3 11l-8.5-17.5z" transform="matrix(-.1 0 0 .1 1096 456)"/><path class="st1" d="M10828-4353.1c-12.3-8.2.2-17 17.1-21.3 7.4-1.9 19.2-12.1 38.7-1.5 15.8 8.5-6.4 12.7-15.4 17.3-10.5 5.3-18.8 19.8-40.4 5.5z" transform="matrix(-.1 0 0 .1 1096 456)"/><path class="st2" d="M10862.4-4384.6l10.4 1.2s.2 1.8 2.1 3.8c1.9 2 10.1 6.4 11.7 7.6 2.8 2.1.9 5-1.5 5.3-2.6.4-6.1-.4-10.5-2-3.4-1.2-7.4-2.3-11.3-3.6-3.3-1.1-2.5-5.9-2-8 .6-2 1.1-4.3 1.1-4.3z" transform="matrix(-.1 0 0 .1 1096 456)"/><path class="st3" d="M10885.1-4368.1c-2.7.4-6.5-.5-11.2-2.2-3.7-1.3-7.9-2.5-12-3.9-.3-.1-.5-.2-.7-.3.3 1 1 1.9 2.2 2.3 3.8 1.3 7.8 2.4 11.3 3.6 4.4 1.6 7.9 2.4 10.5 2 1.8-.3 3.2-1.9 2.8-3.5-.6 1-1.6 1.8-2.9 2z" transform="matrix(-.1 0 0 .1 1096 456)"/><path class="st4" d="M10872.7-4483.5s6.1 23.2 5.7 34.4c-.4 11.2-2.4 23.6-2.9 33s-.4 30.7.1 34.9c.6 4.8-1.8 5.1-4.8 5.2-3.1.1-9.1-.9-10.1-1.9s-.9-8.7-.9-14.3-.5-14-.1-21.9c.3-6.8-2.2-16.2-3.6-21.4-1.4-5.2-7.4-22.6-7.8-27.4-.4-4.8-.1-15.2-.1-15.2l24.5-5.4z" transform="matrix(-.1 0 0 .1 1096 456)"/><path class="st1" d="M10872.7-4483.5s6.1 23.2 5.7 34.4c-.4 11.2-2.4 23.6-2.9 33s-.4 30.7.1 34.9c.6 4.8-1.8 5.1-4.8 5.2-3.1.1-9.1-.9-10.1-1.9s-.9-8.7-.9-14.3-.5-14-.1-21.9c.3-6.8-2.2-16.2-3.6-21.4-1.4-5.2-7.4-22.6-7.8-27.4-.4-4.8-.1-15.2-.1-15.2l24.5-5.4z" transform="matrix(-.1 0 0 .1 1096 456)"/><path class="st2" d="M10826.3-4368.8c.2.1 10.6 2.2 10.6 2.2s2.7 6 5.3 8.1c2.1 1.8 8 5.7 7.7 7.9-.3 2.2-6.3 4-11.9 1.1-2.6-1.3-12.9-6.6-13.4-10.1-.6-3.9 1.7-9.2 1.7-9.2z" transform="matrix(-.1 0 0 .1 1096 456)"/><path class="st3" d="M10838-4351.2c-2.6-1.3-12.9-6.6-13.4-10.1 0-.2 0-.3-.1-.5-.1.8-.1 1.6.1 2.3.5 3.5 10.8 8.8 13.4 10.1 5.6 2.9 11.6 1.1 11.9-1.1 0-.3-.1-.7-.3-1.2-1.2 1.9-6.6 3.1-11.6.5z" transform="matrix(-.1 0 0 .1 1096 456)"/><path class="st4" d="M10865.4-4478.1c-.3 6.5-5.2 33.2-8.9 45.3s-6.5 19.8-8.3 26.8-5.9 23.7-7 32c-.4 3.2-1 12-1.7 12.9-3.3 4.1-11.3 2-12.9.6-1.7-1.6-2.6-2.4-2.2-5.5.4-3.1 1.7-21.3 2.7-27.8 1.7-10.7 5-15 6.1-20.1 1.1-5.1-1.1-24.1 2.3-42s7.5-21.7 7.5-21.7l22.4-.5z" transform="matrix(-.1 0 0 .1 1096 456)"/><path class="st5" d="M10846.1-4529.3s-11.1 1.9-15.1 4c-7.4 3.9-.3 19.8 3.5 31.4 3.8 11.6-.8 35.1-.3 36 .8 1.6 24.1 5.1 29.2 1.7 2.4-1.6 1.3-22.3.2-30.9-1.1-8.6-4.1-17.2-6.2-22.3-1.9-4.5-11.3-19.9-11.3-19.9z" transform="matrix(-.1 0 0 .1 1096 456)"/><path class="st5" d="M10860.9-4532.5c.9-1.1 6.3-3.7 7.2-2.1 1.5 2.7 3.8 8.1 6.5 14.4 1 2.2.9 5.1 1 7.6.2 8.1-.6 16.3-.6 18.1 0 4.5.9 16.2 2.1 25.9.5 3.9 1.9 9.2 1.2 9.9-1 1.1-8.5 3.6-10 .5-1.2-2.5-5.5-26.5-5.7-32.3-.1-5.8-1.7-42-1.7-42z" transform="matrix(-.1 0 0 .1 1096 456)"/><path class="st6" d="M10846.4-4529.2s1-.8.8-2.7c-.2-1.9-7.3-7.9-3.8-15.5s15.5-8.7 18.9-2.5c3.4 6.2 6 18.8 4.7 20.4-1.7 2.1-5.3 2.1-5.3 2.1s-1.3 3.6-.7 5.3c.9 2.4-.7 3.9-3.4 3.3-4.1-.6-7.5-4-11.2-10.4z" transform="matrix(-.1 0 0 .1 1096 456)"/><path class="st7" d="M10846.1-4533.4l1.6.6s-4.9-4.5-2.5-6.1c2.4-1.6 4.2 1.4 4.2 1.4s1.3-3.7 4.2-4.6c2.9-.9 10.7-4.3 10-6.9-.3-1-5.2-9.1-14.6-5.6s-8.1 11.6-6.9 14.8c1.3 3.2 4 6.4 4 6.4z" transform="matrix(-.1 0 0 .1 1096 456)"/><path class="st6" d="M10839.3-4542.5s.9-4.3 1.8-6.2c1.7-3.7 4-3.6 4-3.6s-1.9 1.7-2.2 5.4c-.2 2.1 1.1 4.9 1.3 6.9.3 2 .8 4.1-.6 4.7-1.3.6-2.2.7-2.2.7l-2.1-7.9z" transform="matrix(-.1 0 0 .1 1096 456)"/><path class="st0" d="M10828.8-4512c-1.8-3.9-7.6-7.7-11.3-10.1-3.6-2.5-8.7-6.4-7.6-11.5 1.1-5.1 5.5-4.7 13-6 7.5-1.3 13.5-2.9 15.9-2.8 2.4.1 4.4 3.1 4.6 5.3.2 2.2-.3 2.5-1.6 2.9s-15.1 3.6-15.1 3.6 6 3.3 7.1 4.3c1.1 1.1 10.5 14.1 5.5 21.7-3.9 6.1-10.5-7.4-10.5-7.4z" transform="matrix(-.1 0 0 .1 1096 456)"/></g><g id="i1583_1_"><path class="st8" d="M10968.7-4324.1l20-10 36 18 40-20-36-18 24-12-82-41-84 42z" transform="matrix(-.1 0 0 .1 1112 464)"/><path class="st9" d="M10887.7-4370v4l10 5 80-40v-4l-10-5z" transform="matrix(-.1 0 0 .1 1112 464)"/><path class="st10" d="M10897.7-4361l-10-5v-4l10 5z" transform="matrix(-.1 0 0 .1 1112 464)"/><path class="st11" d="M10897.7-4361l80-40v-4l-80 40z" transform="matrix(-.1 0 0 .1 1112 464)"/><path class="st9" d="M10959.7-4416v10l10 5 10-5v-10l-10-5z" transform="matrix(-.1 0 0 .1 1112 464)"/><path class="st10" d="M10969.7-4401l-10-5v-10l10 5z" transform="matrix(-.1 0 0 .1 1112 464)"/><path class="st11" d="M10969.7-4401l10-5v-10l-10 5z" transform="matrix(-.1 0 0 .1 1112 464)"/><path class="st9" d="M10959.7-4334v4l10 5 82-41v-4l-10-5z" transform="matrix(-.1 0 0 .1 1112 464)"/><path class="st10" d="M10969.7-4325l-10-5v-4l10 5z" transform="matrix(-.1 0 0 .1 1112 464)"/><path class="st11" d="M10969.7-4325l82-41v-4l-82 41z" transform="matrix(-.1 0 0 .1 1112 464)"/><path class="st9" d="M10923.7-4352v4l10 5 80-40v-4l-10-5z" transform="matrix(-.1 0 0 .1 1112 464)"/><path class="st10" d="M10933.7-4343l-10-5v-4l10 5z" transform="matrix(-.1 0 0 .1 1112 464)"/><path class="st11" d="M10933.7-4343l80-40v-4l-80 40z" transform="matrix(-.1 0 0 .1 1112 464)"/><path class="st9" d="M11031.7-4380v10l10 5 10-5v-10l-10-5z" transform="matrix(-.1 0 0 .1 1112 464)"/><path class="st10" d="M11041.7-4365l-10-5v-10l10 5z" transform="matrix(-.1 0 0 .1 1112 464)"/><path class="st11" d="M11041.7-4365l10-5v-10l-10 5z" transform="matrix(-.1 0 0 .1 1112 464)"/><path class="st12" d="M11031.7-4354.1l10.5-5.2v-4.5l-102.5-51.2-10.5 5.2v1.5l13.5 9.8z" transform="matrix(-.1 0 0 .1 1112 464)"/><path class="st10" d="M10929.2-4409.8v1.5l13.5 9.8 89 44.4v-4.5z" transform="matrix(-.1 0 0 .1 1112 464)"/><path class="st12" d="M10997.7-4337.1l10.5-5.2v-4.5l-102.5-51.3-10.5 5.3v1.5l13.5 9.7z" transform="matrix(-.1 0 0 .1 1112 464)"/><path class="st10" d="M10895.2-4392.8v1.5l13.5 9.7 89 44.5v-4.5z" transform="matrix(-.1 0 0 .1 1112 464)"/><path class="st9" d="M10995.7-4362v10l10 5 10-5v-10l-10-5z" transform="matrix(-.1 0 0 .1 1112 464)"/><path class="st10" d="M11005.7-4347l-10-5v-10l10 5z" transform="matrix(-.1 0 0 .1 1112 464)"/><path class="st11" d="M11005.7-4347l10-5v-10l-10 5z" transform="matrix(-.1 0 0 .1 1112 464)"/><path class="st9" d="M11051.7-4384v4l-10 5-80-40v-4l10-5z" transform="matrix(-.1 0 0 .1 1112 464)"/><path class="st11" d="M11041.7-4375l10-5v-4l-10 5z" transform="matrix(-.1 0 0 .1 1112 464)"/><path class="st10" d="M11041.7-4375l-80-40v-4l80 40z" transform="matrix(-.1 0 0 .1 1112 464)"/><path class="st9" d="M10995.7-4398v10l10 5 10-5v-10l-10-5z" transform="matrix(-.1 0 0 .1 1112 464)"/><path class="st10" d="M11005.7-4383l-10-5v-10l10 5z" transform="matrix(-.1 0 0 .1 1112 464)"/><path class="st11" d="M11005.7-4383l10-5v-10l-10 5z" transform="matrix(-.1 0 0 .1 1112 464)"/><path class="st9" d="M10923.7-4362v10l10 5 10-5v-10l-10-5z" transform="matrix(-.1 0 0 .1 1112 464)"/><path class="st10" d="M10933.7-4347l-10-5v-10l10 5z" transform="matrix(-.1 0 0 .1 1112 464)"/><path class="st11" d="M10933.7-4347l10-5v-10l-10 5z" transform="matrix(-.1 0 0 .1 1112 464)"/><path class="st9" d="M10887.7-4380v10l10 5 10-5v-10l-10-5z" transform="matrix(-.1 0 0 .1 1112 464)"/><path class="st10" d="M10897.7-4365l-10-5v-10l10 5z" transform="matrix(-.1 0 0 .1 1112 464)"/><path class="st11" d="M10897.7-4365l10-5v-10l-10 5z" transform="matrix(-.1 0 0 .1 1112 464)"/><path class="st9" d="M10959.7-4344v10l10 5 10-5v-10l-10-5z" transform="matrix(-.1 0 0 .1 1112 464)"/><path class="st10" d="M10969.7-4329l-10-5v-10l10 5z" transform="matrix(-.1 0 0 .1 1112 464)"/><path class="st11" d="M10969.7-4329l10-5v-10l-10 5z" transform="matrix(-.1 0 0 .1 1112 464)"/><path class="st9" d="M10979.7-4348v4l-10 5-82-41v-4l10-5z" transform="matrix(-.1 0 0 .1 1112 464)"/><path class="st11" d="M10969.7-4339l10-5v-4l-10 5z" transform="matrix(-.1 0 0 .1 1112 464)"/><path class="st10" d="M10969.7-4339l-82-41v-4l82 41z" transform="matrix(-.1 0 0 .1 1112 464)"/><path class="st9" d="M10923.7-4398v10l10 5 10-5v-10l-10-5z" transform="matrix(-.1 0 0 .1 1112 464)"/><path class="st10" d="M10933.7-4383l-10-5v-10l10 5z" transform="matrix(-.1 0 0 .1 1112 464)"/><path class="st11" d="M10933.7-4383l10-5v-10l-10 5z" transform="matrix(-.1 0 0 .1 1112 464)"/><path class="st9" d="M11015.7-4366v4l-10 5-80-40v-4l10-5z" transform="matrix(-.1 0 0 .1 1112 464)"/><path class="st11" d="M11005.7-4357l10-5v-4l-10 5z" transform="matrix(-.1 0 0 .1 1112 464)"/><path class="st10" d="M11005.7-4357l-80-40v-4l80 40z" transform="matrix(-.1 0 0 .1 1112 464)"/><path class="st9" d="M10959.7-4352v4l10 5 82-41v-4l-10-5z" transform="matrix(-.1 0 0 .1 1112 464)"/><path class="st10" d="M10969.7-4343l-10-5v-4l10 5z" transform="matrix(-.1 0 0 .1 1112 464)"/><path class="st11" d="M10969.7-4343l82-41v-4l-82 41z" transform="matrix(-.1 0 0 .1 1112 464)"/><path class="st9" d="M10941.7-4361v4l10 5 82-41v-4l-10-5z" transform="matrix(-.1 0 0 .1 1112 464)"/><path class="st10" d="M10951.7-4352l-10-5v-4l10 5z" transform="matrix(-.1 0 0 .1 1112 464)"/><path class="st11" d="M10951.7-4352l82-41v-4l-82 41z" transform="matrix(-.1 0 0 .1 1112 464)"/><path class="st9" d="M10923.7-4370v4l10 5 82-41v-4l-10-5z" transform="matrix(-.1 0 0 .1 1112 464)"/><path class="st10" d="M10933.7-4361l-10-5v-4l10 5z" transform="matrix(-.1 0 0 .1 1112 464)"/><path class="st11" d="M10933.7-4361l82-41v-4l-82 41z" transform="matrix(-.1 0 0 .1 1112 464)"/><path class="st9" d="M10905.7-4379v4l10 5 82-41v-4l-10-5z" transform="matrix(-.1 0 0 .1 1112 464)"/><path class="st10" d="M10915.7-4370l-10-5v-4l10 5z" transform="matrix(-.1 0 0 .1 1112 464)"/><path class="st11" d="M10915.7-4370l82-41v-4l-82 41z" transform="matrix(-.1 0 0 .1 1112 464)"/><path class="st9" d="M10887.7-4388v4l10 5 82-41v-4l-10-5z" transform="matrix(-.1 0 0 .1 1112 464)"/><path class="st10" d="M10897.7-4379l-10-5v-4l10 5z" transform="matrix(-.1 0 0 .1 1112 464)"/><path class="st11" d="M10897.7-4379l82-41v-4l-82 41z" transform="matrix(-.1 0 0 .1 1112 464)"/><path fill="#fc0" d="M10889.7-4468v80l80 40 80-40v-80l-80-40z" transform="matrix(-.1 0 0 .1 1112 464)"/><path class="st10" d="M10969.7-4348l-80-40v-80l80 40z" transform="matrix(-.1 0 0 .1 1112 464)"/><path class="st8" d="M10939.7-4493l-20 10 80 40v40l20-10v-40z" transform="matrix(-.1 0 0 .1 1112 464)"/><path class="st11" d="M10969.7-4348l80-40v-80l-80 40z" transform="matrix(-.1 0 0 .1 1112 464)"/><path class="st12" d="M11011.7-4393.1l16-8 8 4 14 28v14l-44 22.1-8-4v-14z" transform="matrix(-.1 0 0 .1 1112 464)"/><path class="st10" d="M10997.7-4337l8 4v-14l14-42.1-8-4-14 42.1z" transform="matrix(-.1 0 0 .1 1112 464)"/><path class="st11" d="M11049.7-4355.1l-44 22.1v-14l14-42.1 16-8 14 28z" transform="matrix(-.1 0 0 .1 1112 464)"/><path class="st2" d="M11049.6-4355.9c-2.7-1.4-5.1-1.5-7-.7l-5.1 2.5c-1.9.9-3.2 2.9-3.2 5.8 0 5.6 4.5 12.4 10.1 15.2 2.8 1.4 5.3 1.5 7.1.6 0 0 5-2.5 5.5-2.8 1.6-1 2.6-2.9 2.6-5.5.1-5.5-4.4-12.3-10-15.1z" transform="matrix(-.1 0 0 .1 1112 464)"/><path class="st14" d="M11051.7-4332.5c.7-.4 5-2.5 5.3-2.7 1.6-1 2.6-2.9 2.6-5.5 0-2.3-.7-4.7-2-7l-5.1 2.5c1.2 2.3 2 4.7 2 7 .1 2.8-1 4.8-2.8 5.7z" transform="matrix(-.1 0 0 .1 1112 464)"/><path class="st15" d="M11052.1-4339.5c0 4.2-3.4 5.9-7.6 3.8s-7.6-7.2-7.6-11.4 3.4-5.9 7.6-3.8c4.2 2.1 7.6 7.2 7.6 11.4z" transform="matrix(-.1 0 0 .1 1112 464)"/><path class="st16" d="M11045.1-4336c-4.2-2.1-7.6-7.2-7.6-11.4 0-2.1.8-3.5 2.2-4.2-1.7.5-2.8 2.1-2.8 4.5 0 4.2 3.4 9.3 7.6 11.4 2.1 1.1 4.1 1.1 5.4.4-1.3.4-2.9.3-4.8-.7z" transform="matrix(-.1 0 0 .1 1112 464)"/><path class="st2" d="M11048.3-4342c0 1.8-1.4 2.5-3.2 1.6-1.7-.9-3.2-3-3.2-4.8s1.4-2.5 3.2-1.6c1.8 1 3.2 3.1 3.2 4.8z" transform="matrix(-.1 0 0 .1 1112 464)"/><path class="st14" d="M11048.3-4342c0 1.8-1.4 2.5-3.2 1.6-1.7-.9-3.2-3-3.2-4.8s1.4-2.5 3.2-1.6c1.8 1 3.2 3.1 3.2 4.8z" transform="matrix(-.1 0 0 .1 1112 464)"/><path class="st2" d="M11047.7-4341.7c0 1.8-1.4 2.5-3.2 1.6s-3.2-3-3.2-4.8c0-1.8 1.4-2.5 3.2-1.6 1.8.9 3.2 3.1 3.2 4.8z" transform="matrix(-.1 0 0 .1 1112 464)"/><path class="st17" d="M11054.6-4338.2c0 5.6-4.5 7.9-10.1 5.1-5.6-2.8-10.1-9.6-10.1-15.2s4.5-7.9 10.1-5.1c5.6 2.8 10.1 9.6 10.1 15.2z" transform="matrix(-.1 0 0 .1 1112 464)"/><path class="st12" d="M11018.7-4358.1v23l16 8 16-8v-16l-16-15z" transform="matrix(-.1 0 0 .1 1112 464)"/><path class="st10" d="M11034.7-4327.1l-16-8v-23l16 15z" transform="matrix(-.1 0 0 .1 1112 464)"/><path class="st11" d="M11034.7-4327.1l16-8v-16l-16 8z" transform="matrix(-.1 0 0 .1 1112 464)"/><path class="st2" d="M11025.2-4342.8c-2.7-1.4-5.1-1.5-7-.7l-5.1 2.5c-1.9.9-3.2 2.9-3.2 5.8 0 5.6 4.5 12.4 10.1 15.2 2.8 1.4 5.3 1.5 7.1.6 0 0 5-2.5 5.5-2.8 1.6-1 2.6-2.9 2.6-5.5.1-5.5-4.4-12.3-10-15.1z" transform="matrix(-.1 0 0 .1 1112 464)"/><path class="st14" d="M11027.3-4319.4c.7-.4 5-2.5 5.3-2.7 1.6-1 2.6-2.9 2.6-5.5 0-2.3-.7-4.7-2-7l-5.1 2.5c1.2 2.3 2 4.7 2 7 .1 2.8-1 4.7-2.8 5.7z" transform="matrix(-.1 0 0 .1 1112 464)"/><path class="st15" d="M11027.7-4326.4c0 4.2-3.4 5.9-7.6 3.8-4.2-2.1-7.6-7.2-7.6-11.4s3.4-5.9 7.6-3.8c4.2 2.1 7.6 7.2 7.6 11.4z" transform="matrix(-.1 0 0 .1 1112 464)"/><path class="st16" d="M11020.7-4322.9c-4.2-2.1-7.6-7.2-7.6-11.4 0-2.1.8-3.5 2.2-4.2-1.7.5-2.8 2.1-2.8 4.5 0 4.2 3.4 9.3 7.6 11.4 2.1 1.1 4.1 1.1 5.4.4-1.3.4-2.9.2-4.8-.7z" transform="matrix(-.1 0 0 .1 1112 464)"/><path class="st2" d="M11023.9-4328.9c0 1.8-1.4 2.5-3.2 1.6-1.7-.9-3.2-3-3.2-4.8 0-1.8 1.4-2.5 3.2-1.6s3.2 3 3.2 4.8z" transform="matrix(-.1 0 0 .1 1112 464)"/><path class="st14" d="M11023.9-4328.9c0 1.8-1.4 2.5-3.2 1.6-1.7-.9-3.2-3-3.2-4.8 0-1.8 1.4-2.5 3.2-1.6s3.2 3 3.2 4.8z" transform="matrix(-.1 0 0 .1 1112 464)"/><path class="st2" d="M11023.3-4328.6c0 1.8-1.4 2.5-3.2 1.6-1.8-.9-3.2-3-3.2-4.8 0-1.8 1.4-2.5 3.2-1.6 1.8.9 3.2 3 3.2 4.8z" transform="matrix(-.1 0 0 .1 1112 464)"/><path class="st17" d="M11030.2-4325.1c0 5.6-4.5 7.9-10.1 5.1-5.6-2.8-10.1-9.6-10.1-15.2s4.5-7.9 10.1-5.1c5.6 2.8 10.1 9.6 10.1 15.2z" transform="matrix(-.1 0 0 .1 1112 464)"/><path class="st12" d="M11029.7-4446.1c-2.2 0-4 .9-4 2v85c0 1.1 1.8 2 4 2s4-.9 4-2v-85c0-1.1-1.8-2-4-2z" transform="matrix(-.1 0 0 .1 1112 464)"/><path class="st1" d="M11029.7-4442.1c-2.2 0-4-.9-4-2v85c0 1.1 1.8 2 4 2s4-.9 4-2v-85c0 1.1-1.8 2-4 2z" transform="matrix(-.1 0 0 .1 1112 464)"/><path class="st12" d="M11029.7-4438.1c-.6 0-1.2-.2-1.8-.5l-22.7-13.3c-1.1-.7-1.8-1.9-1.7-3.1 0-1.3.8-2.4 1.9-3l41.7-20.7c1.4-.7 3-.4 4.1.7 1.1 1.1 1.3 2.8.5 4.1l-19 34c-.5.8-1.2 1.4-2.1 1.7-.3.1-.6.1-.9.1zm-15.3-16.6l14 8.2 11.7-21-25.7 12.8z" transform="matrix(-.1 0 0 .1 1112 464)"/><path class="st1" d="M11051.2-4478c-1.1-1.1-2.7-1.4-4.1-.7l-41.6 20.6c-1.2.6-1.9 1.7-1.9 3s.6 2.5 1.7 3.1l22.7 13.3c.5.3 1.2.5 1.8.5.3 0 .6 0 .9-.1.9-.2 1.7-.8 2.1-1.7l19-34c.7-1.2.5-2.9-.6-4zm-22.8 31.6l-14-8.2 25.8-12.8-11.8 21zm19.6-27.9l-41.7 20.7c-.2.1-.4.2-.7.2-.6 0-1.1-.3-1.3-.8-.4-.7-.1-1.6.7-2l41.7-20.7c.7-.4 1.6-.1 2 .7.4.8.1 1.6-.7 1.9z" transform="matrix(-.1 0 0 .1 1112 464)"/><path class="st6" d="M11020.4-4454.3s-1.9-1.2-4.8-2.9c-2.3-1.3-4.9-2.7-4.3-6 .3-1.4 5.8-5.4 8.8-4.3 1.9.8 2.8 2.2 3.7 3.8 1.3 2.2 2.2 3 2.2 3l-5.6 6.4z" transform="matrix(-.1 0 0 .1 1112 464)"/><path class="st1" d="M11115.4-4282.4c-17.9 6.8-84.5-34.6-72.7-42.6 14.9-10 97.3 33.2 72.7 42.6z" transform="matrix(-.1 0 0 .1 1112 464)"/><path class="st2" d="M11116.3-4299.4c.7 3 1.6 10.5.2 13.8-1.1 2.6-6.6 3.4-9.3 2.1-2.8-1.3-5.5-2.9-8-3.6-5.3-1.4-8.7-4.1-8.4-6.9.5-4.1 9.9-2.2 10.8-2.2.9 0 1.3-2.5 1.3-2.5l13.4-.7z" transform="matrix(-.1 0 0 .1 1112 464)"/><path class="st3" d="M11090.8-4293.9c.1-.5.3-1 .6-1.3-.1 2.7 3.3 5.3 8.4 6.7 2.5.7 5.2 2.2 8 3.6 2.6 1.2 7.5.6 9-1.6-.1.4-.2.7-.3 1-1.1 2.6-6.6 3.4-9.3 2.1-2.7-1.3-5.5-2.9-8-3.6-5.2-1.4-8.7-4.1-8.4-6.9z" transform="matrix(-.1 0 0 .1 1112 464)"/><path class="st2" d="M11069.6-4320.4c.2 1.4.4 7.6-.7 9.2-1.2 1.8-3.8 2.2-6.1 1.6s-11.7-5.5-14.2-6.5-4.4-3.1-4.5-4.5c-.2-3.1 3.1-5.8 6.9-4.9 3.9.9 5.5 2.3 6.5 2 1-.3 1.2-1.2 1.2-1.2l10.9 4.3z" transform="matrix(-.1 0 0 .1 1112 464)"/><path class="st3" d="M11045.5-4324.1c-.3.7-.5 1.4-.5 2.2.1 1.3 1.9 3.5 4.5 4.5 2.5 1 11.9 5.9 14.2 6.5 1.9.5 4 .3 5.4-.8l-.3.6c-1.2 1.8-3.8 2.2-6.1 1.6s-11.7-5.5-14.2-6.5-4.4-3.1-4.5-4.5c0-1.4.5-2.6 1.5-3.6z" transform="matrix(-.1 0 0 .1 1112 464)"/><path class="st4" d="M11101.8-4426.4s-10 1.6-17.5 1.6-20.7-2.4-20.7-2.4-5.1 19.4-5.7 26.8c-1.4 16.4 1.4 36.3 1.2 40.8-.2 4.5-1 23.2-1.2 28.1-.2 4.9-2.5 8.9-1.5 10.7 1 1.8 9.8 8.5 14.9 6.1 1.7-.8 3.7-27.4 3.7-37.1 0-9.8-.2-11.8 2-20.3s4.5-23.9 4.5-23.9 5.3 24.1 8.5 34.5 4.5 22.4 6.3 32.3 4.4 29.8 4.7 32.7c.2 2.1 4 4.7 7.9 6.1 3.7 1.3 8.3.7 9.2-.3.9-1-1.8-23.7-2-27.4-.2-3.7-2.8-22-4.5-30.5-1.7-8.5-.9-30.5-3.7-48.1-2.4-15.5-6.1-29.7-6.1-29.7z" transform="matrix(-.1 0 0 .1 1112 464)"/><path class="st0" d="M11065.6-4471.1c-1.2-1.2-4.3-.7-6.7 3.8-2.4 4.5-12.1 14.8-12.1 14.8s-19.8-8.9-21.3-9c-1.5-.1-8.7 6.6-5.4 8.1 3.4 1.5 23.1 14.5 26.3 14.8 3.4.3 11.8-1.3 21-9.5 5.5-4.9 4-5 4-5l-5.8-18z" transform="matrix(-.1 0 0 .1 1112 464)"/><path class="st6" d="M11044-4465.6s-2.2-.5-5.5-1c-2.6-.4-6.2-1.3-6.8-4.7-.3-1.4 4-5.8 7.3-5.7 2.1 0 3.5.3 5 1.5 2 1.6 3.1 2 3.1 2l-3.1 7.9z" transform="matrix(-.1 0 0 .1 1112 464)"/><path class="st0" d="M11078-4464.7s-29-9.7-30.5-9.5c-1.5.1-7.4 8.1-3.8 9 3.6.9 37.8 14.9 40.7 13.8 2.9-1.1 21.5-19.5 21.5-19.5l-27.9 6.2z" transform="matrix(-.1 0 0 .1 1112 464)"/><path class="st6" d="M11092.9-4482.1s-6.2 3.1-9.8 3.7c-3.6.6-10.6.4-10.6.4s-1-6.5-1.6-7.7c-.6-1.2-2.8-2.9-3.3-5.7-.4-2.7-1.8-14 0-16.3 1.8-2.2 11.5-7.8 17.1-1.2 5.6 6.6 2 17.7 2.4 20.3.4 2.6 5.8 6.5 5.8 6.5z" transform="matrix(-.1 0 0 .1 1112 464)"/><path class="st7" d="M11087.6-4487s-6.4 2.3-10.2 1.6c-3.8-.7-6.1-4.5-6.1-4.5s-.1-5.1-1.2-6.9c-1.1-1.8-1.6-.8-1.6-.8s-2.1-4.1-1.6-6.9c.5-2.8 3.4-9.9 13.4-7.3 7.9 2 9 10.3 8.9 13.8-.1 3.5-1.6 11-1.6 11z" transform="matrix(-.1 0 0 .1 1112 464)"/><path class="st5" d="M11092.9-4482.1s-4.1 1.2-8.5 2c-4.5.8-11.8 2-11.8 2s-5 3.2-6.5 4.1c-2 1.2-4.8 2.8-4 3.1 1.1.4 2.9 5.4 3.7 12.7s-4.9 16.5-4.9 16.5.1 11.5-.4 15.5c-.7 6.1-1.5 13.5-1.1 16 .3 1.9 16.8 3.1 24.6 2.9 7.8-.2 21.3-.5 22.3-5.1.5-2.5-2.7-17-2.2-22.6.4-4.2 6.6-29 3.8-40-1.7-6.4-15-7.1-15-7.1z" transform="matrix(-.1 0 0 .1 1112 464)"/></g></svg>