<svg xmlns="http://www.w3.org/2000/svg" width="128" height="65.7"><style>.st0{fill:#825012}.st1{opacity:.1}.st2{fill:#fff}.st3{opacity:.15}.st4{fill:#9c3}.st5{fill:#f90}.st6{fill:#539b00}</style><g id="i2076_1_"><path class="st0" d="M-160-718.3l16 8-16 8-16-8z" transform="translate(192 760)"/><path class="st0" d="M-160-718.3l16 8-16 8-16-8z" transform="translate(192 760)"/><g class="st1"><path class="st2" d="M-158-717.3l10 5-2 1-3 1-2 1.5-3 .5-1 1.5-3 .5v1l-2 1-10-5 2-1 3-1 1-1 3-1 3-2 2-2z" transform="translate(192 760)"/></g><g class="st3"><path class="st2" d="M-156-716.3l2 1-3 1-2 1.5-2 1.5-4 1.5-2 1.5-3 1-2-1 3-1 1-1 3-1.5 3-1.5 3-2z" transform="translate(192 760)"/></g></g><g id="i2079_1_"><path class="st0" d="M-160-718.3l16 8-16 8-16-8z" transform="translate(224 744)"/><path class="st0" d="M-160-718.3l16 8-16 8-16-8z" transform="translate(224 744)"/><g class="st1"><path class="st2" d="M-158-717.3l10 5-2 1-3 1-2 1.5-3 .5-1 1.5-3 .5v1l-2 1-10-5 2-1 3-1 1-1 3-1 3-2 2-2z" transform="translate(224 744)"/></g><g class="st3"><path class="st2" d="M-156-716.3l2 1-3 1-2 1.5-2 1.5-4 1.5-2 1.5-3 1-2-1 3-1 1-1 3-1.5 3-1.5 3-2z" transform="translate(224 744)"/></g></g><g id="i2095_1_"><path class="st0" d="M-160-710.3l16 8-16 8-16-8z" transform="translate(240 712)"/><path class="st0" d="M-160-710.3l16 8-16 8-16-8z" transform="translate(240 712)"/><path class="st4" d="M-167.5-704.2c.2-.8.2-1.8-.5-1.8-1 0-.9 1.9-.7 2.7 0 .1 0 .1.1.2h-.3c-.6.2-.3 1.1.1 1.7.4.6 1.2 1.4 1.2 1.4s.2-1.3.6-2.2c.4-.9 1.1-1.8.7-2.5-.4-.6-.9-.1-1.2.5zm5.1-2.6c-.3-.4-.8 0-1.1.6.2-.8.2-1.8-.5-1.8-1 0-.9 1.9-.7 2.7 0 .1 0 .1.1.2h-.3c-.6.2-.3 1.1.1 1.7.4.6 1.2 1.4 1.2 1.4s.2-1.3.6-2.2c.4-.9 1.1-2 .6-2.6zm4-2c-.3-.4-.8 0-1.1.6.2-.8.2-1.8-.5-1.8-1 0-.9 1.9-.7 2.7 0 .1 0 .1.1.2h-.3c-.6.2-.3 1.1.1 1.7.4.6 1.2 1.4 1.2 1.4s.2-1.3.6-2.2c.4-.9 1.1-2 .6-2.6zm4-2c-.3-.4-.8 0-1.1.6.2-.8.2-1.8-.5-1.8-1 0-.9 1.9-.7 2.7 0 .1 0 .1.1.2h-.3c-.6.2-.3 1.1.1 1.7.4.6 1.2 1.4 1.2 1.4s.2-1.3.6-2.2c.4-.9 1.1-2 .6-2.6zm-7.1 9.6c.2-.8.2-1.8-.5-1.8-1 0-.9 1.9-.7 2.7 0 .1 0 .1.1.2h-.3c-.6.2-.3 1.1.1 1.7.4.6 1.2 1.4 1.2 1.4s.2-1.3.6-2.2c.4-.9 1.1-1.8.7-2.5-.4-.6-.9-.1-1.2.5zm4-2c.2-.8.2-1.8-.5-1.8-1 0-.9 1.9-.7 2.7 0 .1 0 .1.1.2h-.3c-.6.2-.3 1.1.1 1.7.4.6 1.2 1.4 1.2 1.4s.2-1.3.6-2.2c.4-.9 1.1-1.8.7-2.5-.4-.6-.9-.1-1.2.5zm4-2c.2-.8.2-1.8-.5-1.8-1 0-.9 1.9-.7 2.7 0 .1 0 .1.1.2h-.3c-.6.2-.3 1.1.1 1.7.4.6 1.2 1.4 1.2 1.4s.2-1.3.6-2.2c.4-.9 1.1-1.8.7-2.5-.4-.6-.9-.1-1.2.5zm5.1-2.6c-.3-.4-.8 0-1.1.6.2-.8.2-1.8-.5-1.8-1 0-.9 1.9-.7 2.7 0 .1 0 .1.1.2h-.3c-.6.2-.3 1.1.1 1.7.4.6 1.2 1.4 1.2 1.4s.2-1.3.6-2.2c.4-.9 1.1-2 .6-2.6z" transform="translate(240 712)"/></g><g id="i2082_1_"><path class="st0" d="M-160-718.3l16 8-16 8-16-8z" transform="translate(240 736)"/><path class="st0" d="M-160-718.3l16 8-16 8-16-8z" transform="translate(240 736)"/><g class="st1"><path class="st2" d="M-158-717.3l10 5-2 1-3 1-2 1.5-3 .5-1 1.5-3 .5v1l-2 1-10-5 2-1 3-1 1-1 3-1 3-2 2-2z" transform="translate(240 736)"/></g><g class="st3"><path class="st2" d="M-156-716.3l2 1-3 1-2 1.5-2 1.5-4 1.5-2 1.5-3 1-2-1 3-1 1-1 3-1.5 3-1.5 3-2z" transform="translate(240 736)"/></g></g><g id="i2081_1_"><path class="st0" d="M-160-710.3l16 8-16 8-16-8z" transform="translate(224 720)"/><path class="st0" d="M-160-710.3l16 8-16 8-16-8z" transform="translate(224 720)"/><path class="st4" d="M-167.5-704.2c.2-.8.2-1.8-.5-1.8-1 0-.9 1.9-.7 2.7 0 .1 0 .1.1.2h-.3c-.6.2-.3 1.1.1 1.7.4.6 1.2 1.4 1.2 1.4s.2-1.3.6-2.2c.4-.9 1.1-1.8.7-2.5-.4-.6-.9-.1-1.2.5zm5.1-2.6c-.3-.4-.8 0-1.1.6.2-.8.2-1.8-.5-1.8-1 0-.9 1.9-.7 2.7 0 .1 0 .1.1.2h-.3c-.6.2-.3 1.1.1 1.7.4.6 1.2 1.4 1.2 1.4s.2-1.3.6-2.2c.4-.9 1.1-2 .6-2.6zm4-2c-.3-.4-.8 0-1.1.6.2-.8.2-1.8-.5-1.8-1 0-.9 1.9-.7 2.7 0 .1 0 .1.1.2h-.3c-.6.2-.3 1.1.1 1.7.4.6 1.2 1.4 1.2 1.4s.2-1.3.6-2.2c.4-.9 1.1-2 .6-2.6zm4-2c-.3-.4-.8 0-1.1.6.2-.8.2-1.8-.5-1.8-1 0-.9 1.9-.7 2.7 0 .1 0 .1.1.2h-.3c-.6.2-.3 1.1.1 1.7.4.6 1.2 1.4 1.2 1.4s.2-1.3.6-2.2c.4-.9 1.1-2 .6-2.6zm-7.1 9.6c.2-.8.2-1.8-.5-1.8-1 0-.9 1.9-.7 2.7 0 .1 0 .1.1.2h-.3c-.6.2-.3 1.1.1 1.7.4.6 1.2 1.4 1.2 1.4s.2-1.3.6-2.2c.4-.9 1.1-1.8.7-2.5-.4-.6-.9-.1-1.2.5zm4-2c.2-.8.2-1.8-.5-1.8-1 0-.9 1.9-.7 2.7 0 .1 0 .1.1.2h-.3c-.6.2-.3 1.1.1 1.7.4.6 1.2 1.4 1.2 1.4s.2-1.3.6-2.2c.4-.9 1.1-1.8.7-2.5-.4-.6-.9-.1-1.2.5zm4-2c.2-.8.2-1.8-.5-1.8-1 0-.9 1.9-.7 2.7 0 .1 0 .1.1.2h-.3c-.6.2-.3 1.1.1 1.7.4.6 1.2 1.4 1.2 1.4s.2-1.3.6-2.2c.4-.9 1.1-1.8.7-2.5-.4-.6-.9-.1-1.2.5zm5.1-2.6c-.3-.4-.8 0-1.1.6.2-.8.2-1.8-.5-1.8-1 0-.9 1.9-.7 2.7 0 .1 0 .1.1.2h-.3c-.6.2-.3 1.1.1 1.7.4.6 1.2 1.4 1.2 1.4s.2-1.3.6-2.2c.4-.9 1.1-2 .6-2.6z" transform="translate(224 720)"/></g><g id="i2085_1_"><path class="st0" d="M-160-718.3l16 8-16 8-16-8z" transform="translate(208 752)"/><path class="st0" d="M-160-718.3l16 8-16 8-16-8z" transform="translate(208 752)"/><g class="st1"><path class="st2" d="M-158-717.3l10 5-2 1-3 1-2 1.5-3 .5-1 1.5-3 .5v1l-2 1-10-5 2-1 3-1 1-1 3-1 3-2 2-2z" transform="translate(208 752)"/></g><g class="st3"><path class="st2" d="M-156-716.3l2 1-3 1-2 1.5-2 1.5-4 1.5-2 1.5-3 1-2-1 3-1 1-1 3-1.5 3-1.5 3-2z" transform="translate(208 752)"/></g></g><g id="i2090_1_"><path class="st0" d="M-160-718.3l16 8-16 8-16-8z" transform="translate(256 728)"/><path class="st0" d="M-160-718.3l16 8-16 8-16-8z" transform="translate(256 728)"/><g class="st1"><path class="st2" d="M-158-717.3l10 5-2 1-3 1-2 1.5-3 .5-1 1.5-3 .5v1l-2 1-10-5 2-1 3-1 1-1 3-1 3-2 2-2z" transform="translate(256 728)"/></g><g class="st3"><path class="st2" d="M-156-716.3l2 1-3 1-2 1.5-2 1.5-4 1.5-2 1.5-3 1-2-1 3-1 1-1 3-1.5 3-1.5 3-2z" transform="translate(256 728)"/></g></g><g id="i2093_1_"><path class="st0" d="M-160-710.3l16 8-16 8-16-8z" transform="translate(272 728)"/><path class="st0" d="M-160-710.3l16 8-16 8-16-8z" transform="translate(272 728)"/><path class="st5" d="M-163.6-697.1c.1.1.5.2 1 .2s.8-.1 1-.2c0-.1.1-.2.1-.3v-.1c0-.6-.5-1-1.1-1-.6 0-1 .4-1.1 1v.1c.1.1.1.3.1.3z" transform="translate(272 728)"/><path class="st6" d="M-163.1-698.3l-2.2-1.9 1.5.5-1.4-3.2 1.8 2.6-.6-4.3 1.2 4.6.8-5.3v4.6l1.7-2-1.4 3.6 1.7-1-2 1.8z" transform="translate(272 728)"/><path class="st5" d="M-159.6-699.1c.1.1.5.2 1 .2s.8-.1 1-.2c0-.1.1-.2.1-.3v-.1c0-.6-.5-1-1.1-1-.6 0-1 .4-1.1 1v.1c.1.1.1.3.1.3z" transform="translate(272 728)"/><path class="st6" d="M-159.1-700.3l-2.2-1.9 1.5.5-1.4-3.2 1.8 2.6-.6-4.3 1.2 4.6.8-5.3v4.6l1.7-2-1.4 3.6 1.7-1-2 1.8z" transform="translate(272 728)"/><path class="st5" d="M-155.6-701.1c.1.1.5.2 1 .2s.8-.1 1-.2c0-.1.1-.2.1-.3v-.1c0-.6-.5-1-1.1-1-.6 0-1 .4-1.1 1v.1c.1.1.1.3.1.3z" transform="translate(272 728)"/><path class="st6" d="M-155.1-702.3l-2.2-1.9 1.5.5-1.4-3.2 1.8 2.6-.6-4.3 1.2 4.6.8-5.3v4.6l1.7-2-1.4 3.6 1.7-1-2 1.8z" transform="translate(272 728)"/><path class="st5" d="M-151.6-703.1c.1.1.5.2 1 .2s.8-.1 1-.2c0-.1.1-.2.1-.3v-.1c0-.6-.5-1-1.1-1-.6 0-1 .4-1.1 1v.1c.1.1.1.3.1.3z" transform="translate(272 728)"/><path class="st6" d="M-151.1-704.3l-2.2-1.9 1.5.5-1.4-3.2 1.8 2.6-.6-4.3 1.2 4.6.8-5.3v4.6l1.7-2-1.4 3.6 1.7-1-2 1.8z" transform="translate(272 728)"/><path class="st5" d="M-169.6-700.1c.1.1.5.2 1 .2s.8-.1 1-.2c0-.1.1-.2.1-.3v-.1c0-.6-.5-1-1.1-1-.6 0-1 .4-1.1 1v.1c.1.1.1.3.1.3z" transform="translate(272 728)"/><path class="st6" d="M-169.1-701.3l-2.2-1.9 1.5.5-1.4-3.2 1.8 2.6-.6-4.3 1.2 4.6.8-5.3v4.6l1.7-2-1.4 3.6 1.7-1-2 1.8z" transform="translate(272 728)"/><path class="st5" d="M-165.6-702.1c.1.1.5.2 1 .2s.8-.1 1-.2c0-.1.1-.2.1-.3v-.1c0-.6-.5-1-1.1-1-.6 0-1 .4-1.1 1v.1c.1.1.1.3.1.3z" transform="translate(272 728)"/><path class="st6" d="M-165.1-703.3l-2.2-1.9 1.5.5-1.4-3.2 1.8 2.6-.6-4.3 1.2 4.6.8-5.3v4.6l1.7-2-1.4 3.6 1.7-1-2 1.8z" transform="translate(272 728)"/><path class="st5" d="M-161.6-704.1c.1.1.5.2 1 .2s.8-.1 1-.2c0-.1.1-.2.1-.3v-.1c0-.6-.5-1-1.1-1-.6 0-1 .4-1.1 1v.1c.1.1.1.3.1.3z" transform="translate(272 728)"/><path class="st6" d="M-161.1-705.3l-2.2-1.9 1.5.5-1.4-3.2 1.8 2.6-.6-4.3 1.2 4.6.8-5.3v4.6l1.7-2-1.4 3.6 1.7-1-2 1.8z" transform="translate(272 728)"/><path class="st5" d="M-157.6-706.1c.1.1.5.2 1 .2s.8-.1 1-.2c0-.1.1-.2.1-.3v-.1c0-.6-.5-1-1.1-1-.6 0-1 .4-1.1 1v.1c.1.1.1.3.1.3z" transform="translate(272 728)"/><path class="st6" d="M-157.1-707.3l-2.2-1.9 1.5.5-1.4-3.2 1.8 2.6-.6-4.3 1.2 4.6.8-5.3v4.6l1.7-2-1.4 3.6 1.7-1-2 1.8z" transform="translate(272 728)"/></g><g id="i2086_1_"><path class="st0" d="M-160-710.3l16 8-16 8-16-8z" transform="translate(256 736)"/><path class="st0" d="M-160-710.3l16 8-16 8-16-8z" transform="translate(256 736)"/><path class="st5" d="M-163.6-697.1c.1.1.5.2 1 .2s.8-.1 1-.2c0-.1.1-.2.1-.3v-.1c0-.6-.5-1-1.1-1-.6 0-1 .4-1.1 1v.1c.1.1.1.3.1.3z" transform="translate(256 736)"/><path class="st6" d="M-163.1-698.3l-2.2-1.9 1.5.5-1.4-3.2 1.8 2.6-.6-4.3 1.2 4.6.8-5.3v4.6l1.7-2-1.4 3.6 1.7-1-2 1.8z" transform="translate(256 736)"/><path class="st5" d="M-159.6-699.1c.1.1.5.2 1 .2s.8-.1 1-.2c0-.1.1-.2.1-.3v-.1c0-.6-.5-1-1.1-1-.6 0-1 .4-1.1 1v.1c.1.1.1.3.1.3z" transform="translate(256 736)"/><path class="st6" d="M-159.1-700.3l-2.2-1.9 1.5.5-1.4-3.2 1.8 2.6-.6-4.3 1.2 4.6.8-5.3v4.6l1.7-2-1.4 3.6 1.7-1-2 1.8z" transform="translate(256 736)"/><path class="st5" d="M-155.6-701.1c.1.1.5.2 1 .2s.8-.1 1-.2c0-.1.1-.2.1-.3v-.1c0-.6-.5-1-1.1-1-.6 0-1 .4-1.1 1v.1c.1.1.1.3.1.3z" transform="translate(256 736)"/><path class="st6" d="M-155.1-702.3l-2.2-1.9 1.5.5-1.4-3.2 1.8 2.6-.6-4.3 1.2 4.6.8-5.3v4.6l1.7-2-1.4 3.6 1.7-1-2 1.8z" transform="translate(256 736)"/><path class="st5" d="M-151.6-703.1c.1.1.5.2 1 .2s.8-.1 1-.2c0-.1.1-.2.1-.3v-.1c0-.6-.5-1-1.1-1-.6 0-1 .4-1.1 1v.1c.1.1.1.3.1.3z" transform="translate(256 736)"/><path class="st6" d="M-151.1-704.3l-2.2-1.9 1.5.5-1.4-3.2 1.8 2.6-.6-4.3 1.2 4.6.8-5.3v4.6l1.7-2-1.4 3.6 1.7-1-2 1.8z" transform="translate(256 736)"/><path class="st5" d="M-169.6-700.1c.1.1.5.2 1 .2s.8-.1 1-.2c0-.1.1-.2.1-.3v-.1c0-.6-.5-1-1.1-1-.6 0-1 .4-1.1 1v.1c.1.1.1.3.1.3z" transform="translate(256 736)"/><path class="st6" d="M-169.1-701.3l-2.2-1.9 1.5.5-1.4-3.2 1.8 2.6-.6-4.3 1.2 4.6.8-5.3v4.6l1.7-2-1.4 3.6 1.7-1-2 1.8z" transform="translate(256 736)"/><path class="st5" d="M-165.6-702.1c.1.1.5.2 1 .2s.8-.1 1-.2c0-.1.1-.2.1-.3v-.1c0-.6-.5-1-1.1-1-.6 0-1 .4-1.1 1v.1c.1.1.1.3.1.3z" transform="translate(256 736)"/><path class="st6" d="M-165.1-703.3l-2.2-1.9 1.5.5-1.4-3.2 1.8 2.6-.6-4.3 1.2 4.6.8-5.3v4.6l1.7-2-1.4 3.6 1.7-1-2 1.8z" transform="translate(256 736)"/><path class="st5" d="M-161.6-704.1c.1.1.5.2 1 .2s.8-.1 1-.2c0-.1.1-.2.1-.3v-.1c0-.6-.5-1-1.1-1-.6 0-1 .4-1.1 1v.1c.1.1.1.3.1.3z" transform="translate(256 736)"/><path class="st6" d="M-161.1-705.3l-2.2-1.9 1.5.5-1.4-3.2 1.8 2.6-.6-4.3 1.2 4.6.8-5.3v4.6l1.7-2-1.4 3.6 1.7-1-2 1.8z" transform="translate(256 736)"/><path class="st5" d="M-157.6-706.1c.1.1.5.2 1 .2s.8-.1 1-.2c0-.1.1-.2.1-.3v-.1c0-.6-.5-1-1.1-1-.6 0-1 .4-1.1 1v.1c.1.1.1.3.1.3z" transform="translate(256 736)"/><path class="st6" d="M-157.1-707.3l-2.2-1.9 1.5.5-1.4-3.2 1.8 2.6-.6-4.3 1.2 4.6.8-5.3v4.6l1.7-2-1.4 3.6 1.7-1-2 1.8z" transform="translate(256 736)"/></g><g id="i2096_1_"><path class="st0" d="M-160-710.3l16 8-16 8-16-8z" transform="translate(208 728)"/><path class="st0" d="M-160-710.3l16 8-16 8-16-8z" transform="translate(208 728)"/><path class="st4" d="M-167.5-704.2c.2-.8.2-1.8-.5-1.8-1 0-.9 1.9-.7 2.7 0 .1 0 .1.1.2h-.3c-.6.2-.3 1.1.1 1.7.4.6 1.2 1.4 1.2 1.4s.2-1.3.6-2.2c.4-.9 1.1-1.8.7-2.5-.4-.6-.9-.1-1.2.5zm5.1-2.6c-.3-.4-.8 0-1.1.6.2-.8.2-1.8-.5-1.8-1 0-.9 1.9-.7 2.7 0 .1 0 .1.1.2h-.3c-.6.2-.3 1.1.1 1.7.4.6 1.2 1.4 1.2 1.4s.2-1.3.6-2.2c.4-.9 1.1-2 .6-2.6zm4-2c-.3-.4-.8 0-1.1.6.2-.8.2-1.8-.5-1.8-1 0-.9 1.9-.7 2.7 0 .1 0 .1.1.2h-.3c-.6.2-.3 1.1.1 1.7.4.6 1.2 1.4 1.2 1.4s.2-1.3.6-2.2c.4-.9 1.1-2 .6-2.6zm4-2c-.3-.4-.8 0-1.1.6.2-.8.2-1.8-.5-1.8-1 0-.9 1.9-.7 2.7 0 .1 0 .1.1.2h-.3c-.6.2-.3 1.1.1 1.7.4.6 1.2 1.4 1.2 1.4s.2-1.3.6-2.2c.4-.9 1.1-2 .6-2.6zm-7.1 9.6c.2-.8.2-1.8-.5-1.8-1 0-.9 1.9-.7 2.7 0 .1 0 .1.1.2h-.3c-.6.2-.3 1.1.1 1.7.4.6 1.2 1.4 1.2 1.4s.2-1.3.6-2.2c.4-.9 1.1-1.8.7-2.5-.4-.6-.9-.1-1.2.5zm4-2c.2-.8.2-1.8-.5-1.8-1 0-.9 1.9-.7 2.7 0 .1 0 .1.1.2h-.3c-.6.2-.3 1.1.1 1.7.4.6 1.2 1.4 1.2 1.4s.2-1.3.6-2.2c.4-.9 1.1-1.8.7-2.5-.4-.6-.9-.1-1.2.5zm4-2c.2-.8.2-1.8-.5-1.8-1 0-.9 1.9-.7 2.7 0 .1 0 .1.1.2h-.3c-.6.2-.3 1.1.1 1.7.4.6 1.2 1.4 1.2 1.4s.2-1.3.6-2.2c.4-.9 1.1-1.8.7-2.5-.4-.6-.9-.1-1.2.5zm5.1-2.6c-.3-.4-.8 0-1.1.6.2-.8.2-1.8-.5-1.8-1 0-.9 1.9-.7 2.7 0 .1 0 .1.1.2h-.3c-.6.2-.3 1.1.1 1.7.4.6 1.2 1.4 1.2 1.4s.2-1.3.6-2.2c.4-.9 1.1-2 .6-2.6z" transform="translate(208 728)"/></g><g id="i2080_1_"><path class="st0" d="M-160-710.3l16 8-16 8-16-8z" transform="translate(192 736)"/><path class="st0" d="M-160-710.3l16 8-16 8-16-8z" transform="translate(192 736)"/><path class="st4" d="M-167.5-704.2c.2-.8.2-1.8-.5-1.8-1 0-.9 1.9-.7 2.7 0 .1 0 .1.1.2h-.3c-.6.2-.3 1.1.1 1.7.4.6 1.2 1.4 1.2 1.4s.2-1.3.6-2.2c.4-.9 1.1-1.8.7-2.5-.4-.6-.9-.1-1.2.5zm5.1-2.6c-.3-.4-.8 0-1.1.6.2-.8.2-1.8-.5-1.8-1 0-.9 1.9-.7 2.7 0 .1 0 .1.1.2h-.3c-.6.2-.3 1.1.1 1.7.4.6 1.2 1.4 1.2 1.4s.2-1.3.6-2.2c.4-.9 1.1-2 .6-2.6zm4-2c-.3-.4-.8 0-1.1.6.2-.8.2-1.8-.5-1.8-1 0-.9 1.9-.7 2.7 0 .1 0 .1.1.2h-.3c-.6.2-.3 1.1.1 1.7.4.6 1.2 1.4 1.2 1.4s.2-1.3.6-2.2c.4-.9 1.1-2 .6-2.6zm4-2c-.3-.4-.8 0-1.1.6.2-.8.2-1.8-.5-1.8-1 0-.9 1.9-.7 2.7 0 .1 0 .1.1.2h-.3c-.6.2-.3 1.1.1 1.7.4.6 1.2 1.4 1.2 1.4s.2-1.3.6-2.2c.4-.9 1.1-2 .6-2.6zm-7.1 9.6c.2-.8.2-1.8-.5-1.8-1 0-.9 1.9-.7 2.7 0 .1 0 .1.1.2h-.3c-.6.2-.3 1.1.1 1.7.4.6 1.2 1.4 1.2 1.4s.2-1.3.6-2.2c.4-.9 1.1-1.8.7-2.5-.4-.6-.9-.1-1.2.5zm4-2c.2-.8.2-1.8-.5-1.8-1 0-.9 1.9-.7 2.7 0 .1 0 .1.1.2h-.3c-.6.2-.3 1.1.1 1.7.4.6 1.2 1.4 1.2 1.4s.2-1.3.6-2.2c.4-.9 1.1-1.8.7-2.5-.4-.6-.9-.1-1.2.5zm4-2c.2-.8.2-1.8-.5-1.8-1 0-.9 1.9-.7 2.7 0 .1 0 .1.1.2h-.3c-.6.2-.3 1.1.1 1.7.4.6 1.2 1.4 1.2 1.4s.2-1.3.6-2.2c.4-.9 1.1-1.8.7-2.5-.4-.6-.9-.1-1.2.5zm5.1-2.6c-.3-.4-.8 0-1.1.6.2-.8.2-1.8-.5-1.8-1 0-.9 1.9-.7 2.7 0 .1 0 .1.1.2h-.3c-.6.2-.3 1.1.1 1.7.4.6 1.2 1.4 1.2 1.4s.2-1.3.6-2.2c.4-.9 1.1-2 .6-2.6z" transform="translate(192 736)"/></g><g id="i2094_1_"><path class="st0" d="M-160-710.3l16 8-16 8-16-8z" transform="translate(176 744)"/><path class="st0" d="M-160-710.3l16 8-16 8-16-8z" transform="translate(176 744)"/><path class="st4" d="M-167.5-704.2c.2-.8.2-1.8-.5-1.8-1 0-.9 1.9-.7 2.7 0 .1 0 .1.1.2h-.3c-.6.2-.3 1.1.1 1.7.4.6 1.2 1.4 1.2 1.4s.2-1.3.6-2.2c.4-.9 1.1-1.8.7-2.5-.4-.6-.9-.1-1.2.5zm5.1-2.6c-.3-.4-.8 0-1.1.6.2-.8.2-1.8-.5-1.8-1 0-.9 1.9-.7 2.7 0 .1 0 .1.1.2h-.3c-.6.2-.3 1.1.1 1.7.4.6 1.2 1.4 1.2 1.4s.2-1.3.6-2.2c.4-.9 1.1-2 .6-2.6zm4-2c-.3-.4-.8 0-1.1.6.2-.8.2-1.8-.5-1.8-1 0-.9 1.9-.7 2.7 0 .1 0 .1.1.2h-.3c-.6.2-.3 1.1.1 1.7.4.6 1.2 1.4 1.2 1.4s.2-1.3.6-2.2c.4-.9 1.1-2 .6-2.6zm4-2c-.3-.4-.8 0-1.1.6.2-.8.2-1.8-.5-1.8-1 0-.9 1.9-.7 2.7 0 .1 0 .1.1.2h-.3c-.6.2-.3 1.1.1 1.7.4.6 1.2 1.4 1.2 1.4s.2-1.3.6-2.2c.4-.9 1.1-2 .6-2.6zm-7.1 9.6c.2-.8.2-1.8-.5-1.8-1 0-.9 1.9-.7 2.7 0 .1 0 .1.1.2h-.3c-.6.2-.3 1.1.1 1.7.4.6 1.2 1.4 1.2 1.4s.2-1.3.6-2.2c.4-.9 1.1-1.8.7-2.5-.4-.6-.9-.1-1.2.5zm4-2c.2-.8.2-1.8-.5-1.8-1 0-.9 1.9-.7 2.7 0 .1 0 .1.1.2h-.3c-.6.2-.3 1.1.1 1.7.4.6 1.2 1.4 1.2 1.4s.2-1.3.6-2.2c.4-.9 1.1-1.8.7-2.5-.4-.6-.9-.1-1.2.5zm4-2c.2-.8.2-1.8-.5-1.8-1 0-.9 1.9-.7 2.7 0 .1 0 .1.1.2h-.3c-.6.2-.3 1.1.1 1.7.4.6 1.2 1.4 1.2 1.4s.2-1.3.6-2.2c.4-.9 1.1-1.8.7-2.5-.4-.6-.9-.1-1.2.5zm5.1-2.6c-.3-.4-.8 0-1.1.6.2-.8.2-1.8-.5-1.8-1 0-.9 1.9-.7 2.7 0 .1 0 .1.1.2h-.3c-.6.2-.3 1.1.1 1.7.4.6 1.2 1.4 1.2 1.4s.2-1.3.6-2.2c.4-.9 1.1-2 .6-2.6z" transform="translate(176 744)"/></g><g id="i2092_1_"><path class="st0" d="M-160-710.3l16 8-16 8-16-8z" transform="translate(240 744)"/><path class="st0" d="M-160-710.3l16 8-16 8-16-8z" transform="translate(240 744)"/><path class="st5" d="M-163.6-697.1c.1.1.5.2 1 .2s.8-.1 1-.2c0-.1.1-.2.1-.3v-.1c0-.6-.5-1-1.1-1-.6 0-1 .4-1.1 1v.1c.1.1.1.3.1.3z" transform="translate(240 744)"/><path class="st6" d="M-163.1-698.3l-2.2-1.9 1.5.5-1.4-3.2 1.8 2.6-.6-4.3 1.2 4.6.8-5.3v4.6l1.7-2-1.4 3.6 1.7-1-2 1.8z" transform="translate(240 744)"/><path class="st5" d="M-159.6-699.1c.1.1.5.2 1 .2s.8-.1 1-.2c0-.1.1-.2.1-.3v-.1c0-.6-.5-1-1.1-1-.6 0-1 .4-1.1 1v.1c.1.1.1.3.1.3z" transform="translate(240 744)"/><path class="st6" d="M-159.1-700.3l-2.2-1.9 1.5.5-1.4-3.2 1.8 2.6-.6-4.3 1.2 4.6.8-5.3v4.6l1.7-2-1.4 3.6 1.7-1-2 1.8z" transform="translate(240 744)"/><path class="st5" d="M-155.6-701.1c.1.1.5.2 1 .2s.8-.1 1-.2c0-.1.1-.2.1-.3v-.1c0-.6-.5-1-1.1-1-.6 0-1 .4-1.1 1v.1c.1.1.1.3.1.3z" transform="translate(240 744)"/><path class="st6" d="M-155.1-702.3l-2.2-1.9 1.5.5-1.4-3.2 1.8 2.6-.6-4.3 1.2 4.6.8-5.3v4.6l1.7-2-1.4 3.6 1.7-1-2 1.8z" transform="translate(240 744)"/><path class="st5" d="M-151.6-703.1c.1.1.5.2 1 .2s.8-.1 1-.2c0-.1.1-.2.1-.3v-.1c0-.6-.5-1-1.1-1-.6 0-1 .4-1.1 1v.1c.1.1.1.3.1.3z" transform="translate(240 744)"/><path class="st6" d="M-151.1-704.3l-2.2-1.9 1.5.5-1.4-3.2 1.8 2.6-.6-4.3 1.2 4.6.8-5.3v4.6l1.7-2-1.4 3.6 1.7-1-2 1.8z" transform="translate(240 744)"/><path class="st5" d="M-169.6-700.1c.1.1.5.2 1 .2s.8-.1 1-.2c0-.1.1-.2.1-.3v-.1c0-.6-.5-1-1.1-1-.6 0-1 .4-1.1 1v.1c.1.1.1.3.1.3z" transform="translate(240 744)"/><path class="st6" d="M-169.1-701.3l-2.2-1.9 1.5.5-1.4-3.2 1.8 2.6-.6-4.3 1.2 4.6.8-5.3v4.6l1.7-2-1.4 3.6 1.7-1-2 1.8z" transform="translate(240 744)"/><path class="st5" d="M-165.6-702.1c.1.1.5.2 1 .2s.8-.1 1-.2c0-.1.1-.2.1-.3v-.1c0-.6-.5-1-1.1-1-.6 0-1 .4-1.1 1v.1c.1.1.1.3.1.3z" transform="translate(240 744)"/><path class="st6" d="M-165.1-703.3l-2.2-1.9 1.5.5-1.4-3.2 1.8 2.6-.6-4.3 1.2 4.6.8-5.3v4.6l1.7-2-1.4 3.6 1.7-1-2 1.8z" transform="translate(240 744)"/><path class="st5" d="M-161.6-704.1c.1.1.5.2 1 .2s.8-.1 1-.2c0-.1.1-.2.1-.3v-.1c0-.6-.5-1-1.1-1-.6 0-1 .4-1.1 1v.1c.1.1.1.3.1.3z" transform="translate(240 744)"/><path class="st6" d="M-161.1-705.3l-2.2-1.9 1.5.5-1.4-3.2 1.8 2.6-.6-4.3 1.2 4.6.8-5.3v4.6l1.7-2-1.4 3.6 1.7-1-2 1.8z" transform="translate(240 744)"/><path class="st5" d="M-157.6-706.1c.1.1.5.2 1 .2s.8-.1 1-.2c0-.1.1-.2.1-.3v-.1c0-.6-.5-1-1.1-1-.6 0-1 .4-1.1 1v.1c.1.1.1.3.1.3z" transform="translate(240 744)"/><path class="st6" d="M-157.1-707.3l-2.2-1.9 1.5.5-1.4-3.2 1.8 2.6-.6-4.3 1.2 4.6.8-5.3v4.6l1.7-2-1.4 3.6 1.7-1-2 1.8z" transform="translate(240 744)"/></g><g id="i2084_1_"><path class="st0" d="M-160-710.3l16 8-16 8-16-8z" transform="translate(224 752)"/><path class="st0" d="M-160-710.3l16 8-16 8-16-8z" transform="translate(224 752)"/><path class="st5" d="M-163.6-697.1c.1.1.5.2 1 .2s.8-.1 1-.2c0-.1.1-.2.1-.3v-.1c0-.6-.5-1-1.1-1-.6 0-1 .4-1.1 1v.1c.1.1.1.3.1.3z" transform="translate(224 752)"/><path class="st6" d="M-163.1-698.3l-2.2-1.9 1.5.5-1.4-3.2 1.8 2.6-.6-4.3 1.2 4.6.8-5.3v4.6l1.7-2-1.4 3.6 1.7-1-2 1.8z" transform="translate(224 752)"/><path class="st5" d="M-159.6-699.1c.1.1.5.2 1 .2s.8-.1 1-.2c0-.1.1-.2.1-.3v-.1c0-.6-.5-1-1.1-1-.6 0-1 .4-1.1 1v.1c.1.1.1.3.1.3z" transform="translate(224 752)"/><path class="st6" d="M-159.1-700.3l-2.2-1.9 1.5.5-1.4-3.2 1.8 2.6-.6-4.3 1.2 4.6.8-5.3v4.6l1.7-2-1.4 3.6 1.7-1-2 1.8z" transform="translate(224 752)"/><path class="st5" d="M-155.6-701.1c.1.1.5.2 1 .2s.8-.1 1-.2c0-.1.1-.2.1-.3v-.1c0-.6-.5-1-1.1-1-.6 0-1 .4-1.1 1v.1c.1.1.1.3.1.3z" transform="translate(224 752)"/><path class="st6" d="M-155.1-702.3l-2.2-1.9 1.5.5-1.4-3.2 1.8 2.6-.6-4.3 1.2 4.6.8-5.3v4.6l1.7-2-1.4 3.6 1.7-1-2 1.8z" transform="translate(224 752)"/><path class="st5" d="M-151.6-703.1c.1.1.5.2 1 .2s.8-.1 1-.2c0-.1.1-.2.1-.3v-.1c0-.6-.5-1-1.1-1-.6 0-1 .4-1.1 1v.1c.1.1.1.3.1.3z" transform="translate(224 752)"/><path class="st6" d="M-151.1-704.3l-2.2-1.9 1.5.5-1.4-3.2 1.8 2.6-.6-4.3 1.2 4.6.8-5.3v4.6l1.7-2-1.4 3.6 1.7-1-2 1.8z" transform="translate(224 752)"/><path class="st5" d="M-169.6-700.1c.1.1.5.2 1 .2s.8-.1 1-.2c0-.1.1-.2.1-.3v-.1c0-.6-.5-1-1.1-1-.6 0-1 .4-1.1 1v.1c.1.1.1.3.1.3z" transform="translate(224 752)"/><path class="st6" d="M-169.1-701.3l-2.2-1.9 1.5.5-1.4-3.2 1.8 2.6-.6-4.3 1.2 4.6.8-5.3v4.6l1.7-2-1.4 3.6 1.7-1-2 1.8z" transform="translate(224 752)"/><path class="st5" d="M-165.6-702.1c.1.1.5.2 1 .2s.8-.1 1-.2c0-.1.1-.2.1-.3v-.1c0-.6-.5-1-1.1-1-.6 0-1 .4-1.1 1v.1c.1.1.1.3.1.3z" transform="translate(224 752)"/><path class="st6" d="M-165.1-703.3l-2.2-1.9 1.5.5-1.4-3.2 1.8 2.6-.6-4.3 1.2 4.6.8-5.3v4.6l1.7-2-1.4 3.6 1.7-1-2 1.8z" transform="translate(224 752)"/><path class="st5" d="M-161.6-704.1c.1.1.5.2 1 .2s.8-.1 1-.2c0-.1.1-.2.1-.3v-.1c0-.6-.5-1-1.1-1-.6 0-1 .4-1.1 1v.1c.1.1.1.3.1.3z" transform="translate(224 752)"/><path class="st6" d="M-161.1-705.3l-2.2-1.9 1.5.5-1.4-3.2 1.8 2.6-.6-4.3 1.2 4.6.8-5.3v4.6l1.7-2-1.4 3.6 1.7-1-2 1.8z" transform="translate(224 752)"/><path class="st5" d="M-157.6-706.1c.1.1.5.2 1 .2s.8-.1 1-.2c0-.1.1-.2.1-.3v-.1c0-.6-.5-1-1.1-1-.6 0-1 .4-1.1 1v.1c.1.1.1.3.1.3z" transform="translate(224 752)"/><path class="st6" d="M-157.1-707.3l-2.2-1.9 1.5.5-1.4-3.2 1.8 2.6-.6-4.3 1.2 4.6.8-5.3v4.6l1.7-2-1.4 3.6 1.7-1-2 1.8z" transform="translate(224 752)"/></g><g id="i2091_1_"><path class="st0" d="M-160-710.3l16 8-16 8-16-8z" transform="translate(208 760)"/><path class="st0" d="M-160-710.3l16 8-16 8-16-8z" transform="translate(208 760)"/><path class="st5" d="M-163.6-697.1c.1.1.5.2 1 .2s.8-.1 1-.2c0-.1.1-.2.1-.3v-.1c0-.6-.5-1-1.1-1-.6 0-1 .4-1.1 1v.1c.1.1.1.3.1.3z" transform="translate(208 760)"/><path class="st6" d="M-163.1-698.3l-2.2-1.9 1.5.5-1.4-3.2 1.8 2.6-.6-4.3 1.2 4.6.8-5.3v4.6l1.7-2-1.4 3.6 1.7-1-2 1.8z" transform="translate(208 760)"/><path class="st5" d="M-159.6-699.1c.1.1.5.2 1 .2s.8-.1 1-.2c0-.1.1-.2.1-.3v-.1c0-.6-.5-1-1.1-1-.6 0-1 .4-1.1 1v.1c.1.1.1.3.1.3z" transform="translate(208 760)"/><path class="st6" d="M-159.1-700.3l-2.2-1.9 1.5.5-1.4-3.2 1.8 2.6-.6-4.3 1.2 4.6.8-5.3v4.6l1.7-2-1.4 3.6 1.7-1-2 1.8z" transform="translate(208 760)"/><path class="st5" d="M-155.6-701.1c.1.1.5.2 1 .2s.8-.1 1-.2c0-.1.1-.2.1-.3v-.1c0-.6-.5-1-1.1-1-.6 0-1 .4-1.1 1v.1c.1.1.1.3.1.3z" transform="translate(208 760)"/><path class="st6" d="M-155.1-702.3l-2.2-1.9 1.5.5-1.4-3.2 1.8 2.6-.6-4.3 1.2 4.6.8-5.3v4.6l1.7-2-1.4 3.6 1.7-1-2 1.8z" transform="translate(208 760)"/><path class="st5" d="M-151.6-703.1c.1.1.5.2 1 .2s.8-.1 1-.2c0-.1.1-.2.1-.3v-.1c0-.6-.5-1-1.1-1-.6 0-1 .4-1.1 1v.1c.1.1.1.3.1.3z" transform="translate(208 760)"/><path class="st6" d="M-151.1-704.3l-2.2-1.9 1.5.5-1.4-3.2 1.8 2.6-.6-4.3 1.2 4.6.8-5.3v4.6l1.7-2-1.4 3.6 1.7-1-2 1.8z" transform="translate(208 760)"/><path class="st5" d="M-169.6-700.1c.1.1.5.2 1 .2s.8-.1 1-.2c0-.1.1-.2.1-.3v-.1c0-.6-.5-1-1.1-1-.6 0-1 .4-1.1 1v.1c.1.1.1.3.1.3z" transform="translate(208 760)"/><path class="st6" d="M-169.1-701.3l-2.2-1.9 1.5.5-1.4-3.2 1.8 2.6-.6-4.3 1.2 4.6.8-5.3v4.6l1.7-2-1.4 3.6 1.7-1-2 1.8z" transform="translate(208 760)"/><path class="st5" d="M-165.6-702.1c.1.1.5.2 1 .2s.8-.1 1-.2c0-.1.1-.2.1-.3v-.1c0-.6-.5-1-1.1-1-.6 0-1 .4-1.1 1v.1c.1.1.1.3.1.3z" transform="translate(208 760)"/><path class="st6" d="M-165.1-703.3l-2.2-1.9 1.5.5-1.4-3.2 1.8 2.6-.6-4.3 1.2 4.6.8-5.3v4.6l1.7-2-1.4 3.6 1.7-1-2 1.8z" transform="translate(208 760)"/><path class="st5" d="M-161.6-704.1c.1.1.5.2 1 .2s.8-.1 1-.2c0-.1.1-.2.1-.3v-.1c0-.6-.5-1-1.1-1-.6 0-1 .4-1.1 1v.1c.1.1.1.3.1.3z" transform="translate(208 760)"/><path class="st6" d="M-161.1-705.3l-2.2-1.9 1.5.5-1.4-3.2 1.8 2.6-.6-4.3 1.2 4.6.8-5.3v4.6l1.7-2-1.4 3.6 1.7-1-2 1.8z" transform="translate(208 760)"/><path class="st5" d="M-157.6-706.1c.1.1.5.2 1 .2s.8-.1 1-.2c0-.1.1-.2.1-.3v-.1c0-.6-.5-1-1.1-1-.6 0-1 .4-1.1 1v.1c.1.1.1.3.1.3z" transform="translate(208 760)"/><path class="st6" d="M-157.1-707.3l-2.2-1.9 1.5.5-1.4-3.2 1.8 2.6-.6-4.3 1.2 4.6.8-5.3v4.6l1.7-2-1.4 3.6 1.7-1-2 1.8z" transform="translate(208 760)"/></g></svg>