<svg style="width:100%;height:100%" id="el_zS6fOLfIny" xmlns="http://www.w3.org/2000/svg" viewBox="0 0 138 220"><style>@-webkit-keyframes el_SM6CDEPOH3g_h4oH1RxxP_Animation{0%{-webkit-transform:rotate(0deg);transform:rotate(0deg)}to{-webkit-transform:rotate(14375deg);transform:rotate(14375deg)}}@keyframes el_SM6CDEPOH3g_h4oH1RxxP_Animation{0%{-webkit-transform:rotate(0deg);transform:rotate(0deg)}to{-webkit-transform:rotate(14375deg);transform:rotate(14375deg)}}#el_zS6fOLfIny *{-webkit-animation-duration:30s;animation-duration:30s;-webkit-animation-iteration-count:infinite;animation-iteration-count:infinite;-webkit-animation-timing-function:cubic-bezier(0,0,1,1);animation-timing-function:cubic-bezier(0,0,1,1)}</style><g style="-webkit-transform:translate(1880px,576px) scale(-1,1);transform:translate(1880px,576px) scale(-1,1)"><g id="el_Gxk02Uzahj"><path d="M1824-368h-24 24z" opacity=".2"/><g id="el_lFVEiAxOFM"><g id="el_41EzhnWk99"><path d="M1807.8-494c-2.2 0-4 .9-4 2l-4 124c0 2.2 3.6 4 8 4s8-1.8 8-4l-4-124c0-1.1-1.8-2-4-2z" fill="#e5e5e5"/><path d="M1807.8-490c-2.2 0-4-.9-4-2l-4 124c0 2.2 3.6 4 8 4s8-1.8 8-4l-4-124c0 1.1-1.8 2-4 2z" opacity=".2"/></g><path fill="#e5e5e5" d="M1813.8-505h-4l-16 8v8l8 4 20-10v-6z"/><path fill="#e5e5e5" d="M1821.8-495l-20 10v-8l20-8z"/><path opacity=".06" d="M1821.8-495l-20 10v-8l16-8h4z"/><path fill="#e5e5e5" d="M1801.8-485l-8-4v-8l8 4z"/><path opacity=".39" d="M1801.8-485l-8-4v-8l8 4z"/><path d="M1798.8-489.1c0 1.7-1.3 2.3-3 1.5s-3-2.8-3-4.5 1.3-2.3 3-1.5c1.7.8 3 2.8 3 4.5z" fill="#e5e5e5"/><path d="M1766.9-411.9l14.4-56.3 5.4-14.4 7.4-6.6c.1-.5.2-.9.5-1.3-.3-.7-.3-1.6.1-2.3l-.3.2-56.7-57.4 1.6-1.4 44.8 36.2 10.5 10.6 2.2 9.9-.1.1c1.1-.4 2.3-.2 3.2.6l77.4-18 .4 1.9-49.8 19.9-15.9 3.8-11.3-4.6c-.1.2-.2.5-.4.7.5 1.1.2 2.5-.9 3.4-.7.7-1.6.9-2.5.9l-28 74.7-2-.6z" opacity=".47" data-animator-group="true" data-animator-type="1"/></g></g></g><script>(function(){var a=document.querySelector(&apos;#el_zS6fOLfIny&apos;),b=a.querySelectorAll(&apos;style&apos;),c=function(d){b.forEach(function(f){var g=f.textContent;g&amp;&amp;(f.textContent=g.replace(/transform-box:[^;\r\n]*/gi,&apos;transform-box: &apos;+d))})};c(&apos;initial&apos;),window.requestAnimationFrame(function(){return c(&apos;fill-box&apos;)})})();</script></svg>