<svg xmlns="http://www.w3.org/2000/svg" width="592" height="352" overflow="inherit"><style>.st0{fill:#656565}.st2{fill:#e5e5e5}.st3,.st4{opacity:.29;enable-background:new}.st4{opacity:.11}.st5{fill:#fff}.st6{fill:#39c}.st7,.st8{opacity:.15;enable-background:new}.st8{opacity:.25;fill:#fff}.st9{fill:#2d3134}.st10{fill:#999}.st11,.st12{opacity:.45;fill:#262626;enable-background:new}.st12{opacity:.5;fill:#e5e5e5}</style><g id="i1182_1_"><path class="st0" d="M1144 56l64 32-192 96-64-32z" transform="matrix(-1 0 0 1 1336 168)"/><path class="st0" d="M1144 56l64 32-192 96-64-32z" transform="matrix(-1 0 0 1 1336 168)"/><path d="M1170 104.5l-60-30-1 .5 60 30zm-20 10l-60-30-1 .5 60 30zm-76 38l-60-30-1 .5 60 30zm-20 10l-60-30-1 .5 60 30zm84-42l-60-30-1 .5 60 30zm-32 16l-60-30-1 .5 60 30zm-20 10l-60-30-1 .5 60 30zm32-16l-60-30-1 .5 60 30z" transform="matrix(-1 0 0 1 1336 168)" opacity=".7" fill="#fc0"/><path class="st2" d="M1144-8v64l64 32 128-64v-64z" transform="matrix(-1 0 0 1 1336 168)"/><path class="st3" d="M1208 88l-64-32V-8l64 32z" transform="matrix(-1 0 0 1 1336 168)"/><path class="st4" d="M1208 88l128-64v-64l-128 64z" transform="matrix(-1 0 0 1 1336 168)"/><path class="st2" d="M744 0v64l64 32 64-32V0z" transform="matrix(-1 0 0 1 1336 168)"/><path class="st4" d="M808 96l64-32V0l-64 32z" transform="matrix(-1 0 0 1 1336 168)"/><path class="st5" d="M781 35l18 9v-8l-18-9z" transform="matrix(-1 0 0 1 1336 168)"/><path class="st6" d="M782 34.5l16 8v-6l-16-8z" transform="matrix(-1 0 0 1 1336 168)"/><path class="st7" d="M782 31.5l16 8v-3l-16-8z" transform="matrix(-1 0 0 1 1336 168)"/><path class="st7" d="M782 29.5l16 8v-1l-16-8z" transform="matrix(-1 0 0 1 1336 168)"/><path class="st7" d="M782 34.5l16 2-16-8z" transform="matrix(-1 0 0 1 1336 168)"/><path class="st5" d="M749 19l18 9v-8l-18-9z" transform="matrix(-1 0 0 1 1336 168)"/><path class="st6" d="M750 18.5l16 8v-6l-16-8z" transform="matrix(-1 0 0 1 1336 168)"/><path class="st7" d="M750 15.5l16 8v-3l-16-8z" transform="matrix(-1 0 0 1 1336 168)"/><path class="st7" d="M750 13.5l16 8v-1l-16-8z" transform="matrix(-1 0 0 1 1336 168)"/><path class="st7" d="M750 18.5l16 2-16-8z" transform="matrix(-1 0 0 1 1336 168)"/><path class="st5" d="M781 67l18 9v-8l-18-9z" transform="matrix(-1 0 0 1 1336 168)"/><path class="st6" d="M782 66.5l16 8v-6l-16-8z" transform="matrix(-1 0 0 1 1336 168)"/><path class="st7" d="M782 63.5l16 8v-3l-16-8z" transform="matrix(-1 0 0 1 1336 168)"/><path class="st7" d="M782 61.5l16 8v-1l-16-8z" transform="matrix(-1 0 0 1 1336 168)"/><path class="st7" d="M782 66.5l16 2-16-8z" transform="matrix(-1 0 0 1 1336 168)"/><path class="st5" d="M749 51l18 9v-8l-18-9z" transform="matrix(-1 0 0 1 1336 168)"/><path class="st6" d="M750 50.5l16 8v-6l-16-8z" transform="matrix(-1 0 0 1 1336 168)"/><path class="st7" d="M750 47.5l16 8v-3l-16-8z" transform="matrix(-1 0 0 1 1336 168)"/><path class="st7" d="M750 45.5l16 8v-1l-16-8z" transform="matrix(-1 0 0 1 1336 168)"/><path class="st7" d="M750 50.5l16 2-16-8z" transform="matrix(-1 0 0 1 1336 168)"/><path class="st3" d="M808 96l-64-32V0l64 32z" transform="matrix(-1 0 0 1 1336 168)"/><path class="st2" d="M824 24v64l128 64 192-96V-8z" transform="matrix(-1 0 0 1 1336 168)"/><path class="st5" d="M1107 27l-18 9v-8l18-9z" transform="matrix(-1 0 0 1 1336 168)"/><path class="st6" d="M1106 26.5l-16 8v-6l16-8z" transform="matrix(-1 0 0 1 1336 168)"/><path class="st7" d="M1106 23.5l-16 8v-3l16-8z" transform="matrix(-1 0 0 1 1336 168)"/><path class="st7" d="M1106 21.5l-16 8v-1l16-8z" transform="matrix(-1 0 0 1 1336 168)"/><path class="st7" d="M1106 26.5l-16 2 16-8z" transform="matrix(-1 0 0 1 1336 168)"/><path class="st5" d="M1139 11l-18 9v-8l18-9z" transform="matrix(-1 0 0 1 1336 168)"/><path class="st6" d="M1138 10.5l-16 8v-6l16-8z" transform="matrix(-1 0 0 1 1336 168)"/><path class="st7" d="M1138 7.5l-16 8v-3l16-8z" transform="matrix(-1 0 0 1 1336 168)"/><path class="st7" d="M1138 5.5l-16 8v-1l16-8z" transform="matrix(-1 0 0 1 1336 168)"/><path class="st7" d="M1138 10.5l-16 2 16-8z" transform="matrix(-1 0 0 1 1336 168)"/><path class="st5" d="M1124 64l10-5V41l-10 5z" transform="matrix(-1 0 0 1 1336 168)"/><path class="st0" d="M1133 42.5l-8 4v17l8-4z" transform="matrix(-1 0 0 1 1336 168)"/><path class="st8" d="M1125 62.5l8-4v-1l-8 4zm0-2l8-4v-1l-8 4zm0-2l8-4v-1l-8 4zm0-2l8-4v-1l-8 4zm0-2l8-4v-1l-8 4zm0-2l8-4v-1l-8 4zm0-2l8-4v-1l-8 4zm0-2l8-4v-1l-8 4z" transform="matrix(-1 0 0 1 1336 168)"/><path class="st9" d="M1080-168L744 0l64 32 16-8 128 64 192-96 64 32 128-64z" transform="matrix(-1 0 0 1 1336 168)"/><path class="st9" d="M1080-168L744 0l64 32 16-8 128 64 192-96 64 32 128-64zm-85 297l-2 1v-22l18-9v22l-2 1v-17l-14 7z" transform="matrix(-1 0 0 1 1336 168)"/><path class="st0" d="M1009 105l-14 7v16l14-7z" transform="matrix(-1 0 0 1 1336 168)"/><path class="st8" d="M995 127l14-7v-1l-14 7zm0-2l14-7v-1l-14 7zm0-2l14-7v-1l-14 7zm0-2l14-7v-1l-14 7zm0-2l14-7v-1l-14 7zm0-2l14-7v-1l-14 7zm0-2l14-7v-1l-14 7zm0-2l14-7v-1l-14 7z" transform="matrix(-1 0 0 1 1336 168)"/><path class="st5" d="M1011 75l-18 9v-8l18-9z" transform="matrix(-1 0 0 1 1336 168)"/><path class="st6" d="M1010 74.5l-16 8v-6l16-8z" transform="matrix(-1 0 0 1 1336 168)"/><path class="st7" d="M1010 71.5l-16 8v-3l16-8z" transform="matrix(-1 0 0 1 1336 168)"/><path class="st7" d="M1010 69.5l-16 8v-1l16-8z" transform="matrix(-1 0 0 1 1336 168)"/><path class="st7" d="M1010 74.5l-16 2 16-8z" transform="matrix(-1 0 0 1 1336 168)"/><path class="st9" d="M1027 113l-2 1V92l18-9v22l-2 1V89l-14 7z" transform="matrix(-1 0 0 1 1336 168)"/><path class="st0" d="M1041 89l-14 7v16l14-7z" transform="matrix(-1 0 0 1 1336 168)"/><path class="st8" d="M1027 111l14-7v-1l-14 7zm0-2l14-7v-1l-14 7zm0-2l14-7v-1l-14 7zm0-2l14-7v-1l-14 7zm0-2l14-7v-1l-14 7zm0-2l14-7v-1l-14 7zm0-2l14-7v-1l-14 7zm0-2l14-7v-1l-14 7z" transform="matrix(-1 0 0 1 1336 168)"/><path class="st5" d="M1043 59l-18 9v-8l18-9z" transform="matrix(-1 0 0 1 1336 168)"/><path class="st6" d="M1042 58.5l-16 8v-6l16-8z" transform="matrix(-1 0 0 1 1336 168)"/><path class="st7" d="M1042 55.5l-16 8v-3l16-8z" transform="matrix(-1 0 0 1 1336 168)"/><path class="st7" d="M1042 53.5l-16 8v-1l16-8z" transform="matrix(-1 0 0 1 1336 168)"/><path class="st7" d="M1042 58.5l-16 2 16-8z" transform="matrix(-1 0 0 1 1336 168)"/><path class="st5" d="M979 91l-18 9v-8l18-9z" transform="matrix(-1 0 0 1 1336 168)"/><path class="st6" d="M978 90.5l-16 8v-6l16-8z" transform="matrix(-1 0 0 1 1336 168)"/><path class="st7" d="M978 87.5l-16 8v-3l16-8z" transform="matrix(-1 0 0 1 1336 168)"/><path class="st7" d="M978 85.5l-16 8v-1l16-8z" transform="matrix(-1 0 0 1 1336 168)"/><path class="st7" d="M978 90.5l-16 2 16-8z" transform="matrix(-1 0 0 1 1336 168)"/><path class="st9" d="M1059 97l-2 1V76l18-9v22l-2 1V73l-14 7z" transform="matrix(-1 0 0 1 1336 168)"/><path class="st0" d="M1073 73l-14 7v16l14-7z" transform="matrix(-1 0 0 1 1336 168)"/><path class="st8" d="M1059 95l14-7v-1l-14 7zm0-2l14-7v-1l-14 7zm0-2l14-7v-1l-14 7zm0-2l14-7v-1l-14 7zm0-2l14-7v-1l-14 7zm0-2l14-7v-1l-14 7zm0-2l14-7v-1l-14 7zm0-2l14-7v-1l-14 7z" transform="matrix(-1 0 0 1 1336 168)"/><path class="st5" d="M1075 43l-18 9v-8l18-9z" transform="matrix(-1 0 0 1 1336 168)"/><path class="st6" d="M1074 42.5l-16 8v-6l16-8z" transform="matrix(-1 0 0 1 1336 168)"/><path class="st7" d="M1074 39.5l-16 8v-3l16-8z" transform="matrix(-1 0 0 1 1336 168)"/><path class="st7" d="M1074 37.5l-16 8v-1l16-8z" transform="matrix(-1 0 0 1 1336 168)"/><path class="st7" d="M1074 42.5l-16 2 16-8z" transform="matrix(-1 0 0 1 1336 168)"/><path class="st9" d="M1091 81l-2 1V60l18-9v22l-2 1V57l-14 7z" transform="matrix(-1 0 0 1 1336 168)"/><path class="st0" d="M1105 57l-14 7v16l14-7z" transform="matrix(-1 0 0 1 1336 168)"/><path class="st8" d="M1091 79l14-7v-1l-14 7zm0-2l14-7v-1l-14 7zm0-2l14-7v-1l-14 7zm0-2l14-7v-1l-14 7zm0-2l14-7v-1l-14 7zm0-2l14-7v-1l-14 7zm0-2l14-7v-1l-14 7zm0-2l14-7v-1l-14 7z" transform="matrix(-1 0 0 1 1336 168)"/><path class="st5" d="M1107 27l-18 9v-8l18-9z" transform="matrix(-1 0 0 1 1336 168)"/><path class="st6" d="M1106 26.5l-16 8v-6l16-8z" transform="matrix(-1 0 0 1 1336 168)"/><path class="st7" d="M1106 23.5l-16 8v-3l16-8z" transform="matrix(-1 0 0 1 1336 168)"/><path class="st7" d="M1106 21.5l-16 8v-1l16-8z" transform="matrix(-1 0 0 1 1336 168)"/><path class="st7" d="M1106 26.5l-16 2 16-8z" transform="matrix(-1 0 0 1 1336 168)"/><path class="st5" d="M925 91l18 9v-8l-18-9z" transform="matrix(-1 0 0 1 1336 168)"/><path class="st6" d="M926 90.5l16 8v-6l-16-8z" transform="matrix(-1 0 0 1 1336 168)"/><path class="st7" d="M926 87.5l16 8v-3l-16-8z" transform="matrix(-1 0 0 1 1336 168)"/><path class="st7" d="M926 85.5l16 8v-1l-16-8z" transform="matrix(-1 0 0 1 1336 168)"/><path class="st7" d="M926 90.5l16 2-16-8z" transform="matrix(-1 0 0 1 1336 168)"/><path class="st5" d="M893 75l18 9v-8l-18-9z" transform="matrix(-1 0 0 1 1336 168)"/><path class="st6" d="M894 74.5l16 8v-6l-16-8z" transform="matrix(-1 0 0 1 1336 168)"/><path class="st7" d="M894 71.5l16 8v-3l-16-8z" transform="matrix(-1 0 0 1 1336 168)"/><path class="st7" d="M894 69.5l16 8v-1l-16-8z" transform="matrix(-1 0 0 1 1336 168)"/><path class="st7" d="M894 74.5l16 2-16-8z" transform="matrix(-1 0 0 1 1336 168)"/><path class="st5" d="M861 59l18 9v-8l-18-9z" transform="matrix(-1 0 0 1 1336 168)"/><path class="st6" d="M862 58.5l16 8v-6l-16-8z" transform="matrix(-1 0 0 1 1336 168)"/><path class="st7" d="M862 55.5l16 8v-3l-16-8z" transform="matrix(-1 0 0 1 1336 168)"/><path class="st7" d="M862 53.5l16 8v-1l-16-8z" transform="matrix(-1 0 0 1 1336 168)"/><path class="st7" d="M862 58.5l16 2-16-8z" transform="matrix(-1 0 0 1 1336 168)"/><path class="st5" d="M829 43l18 9v-8l-18-9z" transform="matrix(-1 0 0 1 1336 168)"/><path class="st6" d="M830 42.5l16 8v-6l-16-8z" transform="matrix(-1 0 0 1 1336 168)"/><path class="st7" d="M830 39.5l16 8v-3l-16-8z" transform="matrix(-1 0 0 1 1336 168)"/><path class="st7" d="M830 37.5l16 8v-1l-16-8z" transform="matrix(-1 0 0 1 1336 168)"/><path class="st7" d="M830 42.5l16 2-16-8z" transform="matrix(-1 0 0 1 1336 168)"/><path class="st3" d="M952 152L824 88V24l128 64z" transform="matrix(-1 0 0 1 1336 168)"/><path class="st5" d="M964 144l10-5v-18l-10 5z" transform="matrix(-1 0 0 1 1336 168)"/><path class="st0" d="M973 122.5l-8 4v17l8-4z" transform="matrix(-1 0 0 1 1336 168)"/><path class="st8" d="M965 142.5l8-4v-1l-8 4zm0-2l8-4v-1l-8 4zm0-2l8-4v-1l-8 4zm0-2l8-4v-1l-8 4zm0-2l8-4v-1l-8 4zm0-2l8-4v-1l-8 4zm0-2l8-4v-1l-8 4zm0-2l8-4v-1l-8 4z" transform="matrix(-1 0 0 1 1336 168)"/><path class="st4" d="M952 152l192-96V-8L952 88z" transform="matrix(-1 0 0 1 1336 168)"/><path class="st10" d="M1144 66l-10 5-10-5v-2l10-5 4 2z" transform="matrix(-1 0 0 1 1336 168)"/><path class="st3" d="M1134 71l-6-5-4-2v2z" transform="matrix(-1 0 0 1 1336 168)"/><path class="st7" d="M1138 61l-10 5 6 5 10-5z" transform="matrix(-1 0 0 1 1336 168)"/><path class="st10" d="M984 146l-10 5-10-5v-2l10-5 4 2z" transform="matrix(-1 0 0 1 1336 168)"/><path class="st3" d="M974 151l-6-5-4-2v2z" transform="matrix(-1 0 0 1 1336 168)"/><path class="st7" d="M978 141l-10 5 6 5 10-5z" transform="matrix(-1 0 0 1 1336 168)"/><path class="st2" d="M808 64v32l64 32 16-8V88z" transform="matrix(-1 0 0 1 1336 168)"/><path class="st6" d="M885 92.5v29l-11 5.5V98z" transform="matrix(-1 0 0 1 1336 168)"/><path class="st11" d="M884 121V92.9l1-.4v29l-11 5.5v-.9z" transform="matrix(-1 0 0 1 1336 168)"/><path class="st12" d="M886 100v1l-12 6v-1zm0 9v1l-12 6v-1z" transform="matrix(-1 0 0 1 1336 168)"/><path class="st2" d="M880 124l-1 .5V95.2l1-.5z" transform="matrix(-1 0 0 1 1336 168)"/><path class="st11" d="M864 123l-52-26V70.5l-1-.5v27.5l53 26.5z" transform="matrix(-1 0 0 1 1336 168)"/><path class="st6" d="M864 95.5L811 70v27.5l53 26.5z" transform="matrix(-1 0 0 1 1336 168)"/><path class="st12" d="M811 76v1l59 30v-1zm0 9v1l59 30v-1z" transform="matrix(-1 0 0 1 1336 168)"/><path class="st2" d="M834 109l1 .5v-28l-1-.5zm-6-3l1 .5V78.9l-1-.5zm-6-3l1 .5V75.9l-1-.5zm-6-3l1 .5V72.9l-1-.5zm30 15l1 .5V87.6l-1-.5zm-6-3l1 .5V84.6l-1-.5zm12 6l1 .5V90.4l-1-.5zm6 3l1 .5V93.2l-1-.5z" transform="matrix(-1 0 0 1 1336 168)"/><path opacity=".2" fill="#fff" d="M864 96l-20 15 20-9z" transform="matrix(-1 0 0 1 1336 168)"/><path opacity=".1" fill="#fff" d="M829 106.5l.4.2L853 97l-32 5.5z" transform="matrix(-1 0 0 1 1336 168)"/><path opacity=".15" fill="#fff" d="M832.1 80.5l-12.7 9.1 17.2-7z" transform="matrix(-1 0 0 1 1336 168)"/><path fill="#f90" d="M870 127l-4-2V93l4 2z" transform="matrix(-1 0 0 1 1336 168)"/><path class="st4" d="M888 120l-16 8V96l16-8z" transform="matrix(-1 0 0 1 1336 168)"/><path class="st3" d="M808 96l64 32V96l-64-32z" transform="matrix(-1 0 0 1 1336 168)"/><path class="st9" d="M872 96l16-8-64-32-16 8z" transform="matrix(-1 0 0 1 1336 168)"/><path class="st9" d="M872 96l16-8-64-32-16 8z" transform="matrix(-1 0 0 1 1336 168)"/><path class="st10" d="M1274-56l24 12v2l-12 6-24-12v-2z" transform="matrix(-1 0 0 1 1336 168)"/><path class="st3" d="M1262-48l24 12v-2l-24-12z" transform="matrix(-1 0 0 1 1336 168)"/><path class="st4" d="M1298-42l-12 6v-2l12-6z" transform="matrix(-1 0 0 1 1336 168)"/><path class="st0" d="M1270-49.5c0 1.4 2.2 2.5 5 2.5s5-1.1 5-2.5-2.2-2.5-5-2.5-5 1.1-5 2.5zm2 0c0-.8 1.3-1.5 3-1.5s3 .7 3 1.5-1.3 1.5-3 1.5-3-.7-3-1.5zm8 5c0 1.4 2.2 2.5 5 2.5s5-1.1 5-2.5-2.2-2.5-5-2.5-5 1.1-5 2.5zm2 0c0-.8 1.3-1.5 3-1.5s3 .7 3 1.5-1.3 1.5-3 1.5-3-.7-3-1.5z" transform="matrix(-1 0 0 1 1336 168)"/><path class="st10" d="M1256-47l24 12v2l-12 6-24-12v-2z" transform="matrix(-1 0 0 1 1336 168)"/><path class="st3" d="M1244-39l24 12v-2l-24-12z" transform="matrix(-1 0 0 1 1336 168)"/><path class="st4" d="M1280-33l-12 6v-2l12-6z" transform="matrix(-1 0 0 1 1336 168)"/><path class="st0" d="M1252-40.5c0 1.4 2.2 2.5 5 2.5s5-1.1 5-2.5-2.2-2.5-5-2.5-5 1.1-5 2.5zm2 0c0-.8 1.3-1.5 3-1.5s3 .7 3 1.5-1.3 1.5-3 1.5-3-.7-3-1.5zm8 5c0 1.4 2.2 2.5 5 2.5s5-1.1 5-2.5-2.2-2.5-5-2.5-5 1.1-5 2.5zm2 0c0-.8 1.3-1.5 3-1.5s3 .7 3 1.5-1.3 1.5-3 1.5-3-.7-3-1.5z" transform="matrix(-1 0 0 1 1336 168)"/><path class="st10" d="M1210-24l24 12v2l-12 6-24-12v-2z" transform="matrix(-1 0 0 1 1336 168)"/><path class="st3" d="M1198-16l24 12v-2l-24-12z" transform="matrix(-1 0 0 1 1336 168)"/><path class="st4" d="M1234-10l-12 6v-2l12-6z" transform="matrix(-1 0 0 1 1336 168)"/><path class="st0" d="M1206-17.5c0 1.4 2.2 2.5 5 2.5s5-1.1 5-2.5-2.2-2.5-5-2.5-5 1.1-5 2.5zm2 0c0-.8 1.3-1.5 3-1.5s3 .7 3 1.5-1.3 1.5-3 1.5-3-.7-3-1.5zm8 5c0 1.4 2.2 2.5 5 2.5s5-1.1 5-2.5-2.2-2.5-5-2.5-5 1.1-5 2.5zm2 0c0-.8 1.3-1.5 3-1.5s3 .7 3 1.5-1.3 1.5-3 1.5-3-.7-3-1.5z" transform="matrix(-1 0 0 1 1336 168)"/><path class="st10" d="M1192-15l24 12v2l-12 6-24-12v-2z" transform="matrix(-1 0 0 1 1336 168)"/><path class="st3" d="M1180-7l24 12V3l-24-12z" transform="matrix(-1 0 0 1 1336 168)"/><path class="st4" d="M1216-1l-12 6V3l12-6z" transform="matrix(-1 0 0 1 1336 168)"/><path class="st0" d="M1188-8.5c0 1.4 2.2 2.5 5 2.5s5-1.1 5-2.5-2.2-2.5-5-2.5-5 1.1-5 2.5zm2 0c0-.8 1.3-1.5 3-1.5s3 .7 3 1.5-1.3 1.5-3 1.5-3-.7-3-1.5zm8 5c0 1.4 2.2 2.5 5 2.5s5-1.1 5-2.5-2.2-2.5-5-2.5-5 1.1-5 2.5zm2 0c0-.8 1.3-1.5 3-1.5s3 .7 3 1.5-1.3 1.5-3 1.5-3-.7-3-1.5z" transform="matrix(-1 0 0 1 1336 168)"/></g></svg>