<svg xmlns="http://www.w3.org/2000/svg" width="46" height="28.5"><style>.st1{fill:#2d3134}.st2{opacity:.11;enable-background:new}.st3{fill:#e5e5e5}.st4{opacity:.29;enable-background:new}.st5{fill:#f8ebcb}.st7{fill:#656565}.st8{fill:#fff}.st10,.st8,.st9{enable-background:new}.st8,.st9{opacity:.2}.st10{opacity:.3}.st11,.st12{fill:#fff}.st12{opacity:.4;enable-background:new}</style><g id="i2037_1_"><path opacity=".3" fill="#262626" d="M6020-5954.8l140-70-320-160-140 70z" transform="matrix(-.1 0 0 .1 616 624)"/><path class="st1" d="M5759.3-6113.4l50.2-14-34.6-19.9-17.5 16.9zm192.4 99.8l50.2-14-34.7-19.9-17.5 16.9z" transform="matrix(-.1 0 0 .1 616 624)"/><path class="st2" d="M5759.3-6113.4l50.2-14-34.6-19.9-17.5 16.9zm192.4 99.8l50.2-14-34.7-19.9-17.5 16.9z" transform="matrix(-.1 0 0 .1 616 624)"/><path class="st1" d="M5988.4-6033.5c-6.7-3.4-12.8-3.8-17.3-1.7l-9.5 5.1c-4.8 2.2-7.9 7.1-7.9 14.3 0 13.9 11.3 30.9 25.2 37.8 6.9 3.4 13.1 3.8 17.7 1.6 0 0 9.4-5 10.4-5.6 4.1-2.4 6.6-7.1 6.6-13.6 0-14-11.3-30.9-25.2-37.9z" transform="matrix(-.1 0 0 .1 616 624)"/><path class="st2" d="M5996.9-5976.5c1.8-.9 9.2-4.9 10.1-5.5 4.1-2.4 6.6-7.1 6.6-13.6 0-5.6-1.8-11.7-4.9-17.4l-9.5 5.1c3.1 5.7 4.9 11.8 4.9 17.4.1 6.8-2.7 11.7-7.2 14z" transform="matrix(-.1 0 0 .1 616 624)"/><path class="st1" d="M6004.2-5990.5c0 13.9-11.3 19.6-25.2 12.6s-25.2-23.9-25.2-37.8 11.3-19.6 25.2-12.6c13.9 6.9 25.2 23.9 25.2 37.8z" transform="matrix(-.1 0 0 .1 616 624)"/><path class="st3" d="M5998.6-5993.3c0 10.9-8.8 15.3-19.7 9.9-10.9-5.4-19.7-18.7-19.7-29.6s8.8-15.3 19.7-9.9c10.9 5.5 19.7 18.7 19.7 29.6z" transform="matrix(-.1 0 0 .1 616 624)"/><path class="st1" d="M5991.9-5984.5c3-1.7 4.8-5 4.8-9.7v-1.1l-11-1.7 6.2 12.5zm-8.8-21.7l11.5 2.5c-2.4-5.7-6.7-11.3-11.9-14.9l.4 12.4zm-8.3-4.1l.4-12c-5.2-1.5-9.5-.3-11.9 3l11.5 9zm-13.6-2.8v1.1c0 4.7 1.8 9.8 4.8 14.5l6.3-6.2-11.1-9.4zm17.7 17.5l-6.8 5.5c2.1 1.9 4.4 3.5 6.8 4.7 2.4 1.2 4.7 1.9 6.8 2l-6.8-12.2z" transform="matrix(-.1 0 0 .1 616 624)"/><path class="st4" d="M6004.2-5990.5c0 13.9-11.3 19.6-25.2 12.6s-25.2-23.9-25.2-37.8 11.3-19.6 25.2-12.6c13.9 6.9 25.2 23.9 25.2 37.8z" transform="matrix(-.1 0 0 .1 616 624)"/><path class="st1" d="M5796.2-6130.2c-6.7-3.4-12.8-3.8-17.3-1.7l-9.5 5.1c-4.8 2.2-7.9 7.1-7.9 14.3 0 13.9 11.3 30.9 25.2 37.8 6.9 3.4 13.1 3.8 17.7 1.6 0 0 9.4-5 10.4-5.6 4.1-2.4 6.6-7.1 6.6-13.6.1-14-11.2-30.9-25.2-37.9z" transform="matrix(-.1 0 0 .1 616 624)"/><path class="st2" d="M5804.8-6073.2c1.8-.9 9.2-4.9 10.1-5.5 4.1-2.4 6.6-7.1 6.6-13.6 0-5.6-1.8-11.7-4.9-17.4l-9.5 5.1c3.1 5.7 4.9 11.8 4.9 17.4 0 6.8-2.8 11.6-7.2 14z" transform="matrix(-.1 0 0 .1 616 624)"/><path class="st1" d="M5812-6087.3c0 13.9-11.3 19.6-25.2 12.6-13.9-7-25.2-23.9-25.2-37.8s11.3-19.6 25.2-12.6c13.9 7 25.2 23.9 25.2 37.8z" transform="matrix(-.1 0 0 .1 616 624)"/><path class="st3" d="M5806.5-6090c0 10.9-8.8 15.3-19.7 9.9-10.9-5.4-19.7-18.7-19.7-29.6s8.8-15.3 19.7-9.9c10.9 5.4 19.7 18.7 19.7 29.6z" transform="matrix(-.1 0 0 .1 616 624)"/><path class="st1" d="M5799.8-6081.3c3-1.7 4.8-5 4.8-9.7v-1.1l-11-1.7 6.2 12.5zm-8.9-21.7l11.5 2.5c-2.4-5.7-6.7-11.3-11.9-14.9l.4 12.4zm-8.2-4.1l.4-12c-5.2-1.5-9.5-.3-11.9 3l11.5 9zm-13.6-2.8v1.1c0 4.7 1.8 9.8 4.8 14.5l6.3-6.2-11.1-9.4zm17.7 17.6l-6.8 5.5c2.1 1.9 4.4 3.5 6.8 4.7 2.4 1.2 4.7 1.9 6.8 2l-6.8-12.2z" transform="matrix(-.1 0 0 .1 616 624)"/><path class="st4" d="M5812-6087.3c0 13.9-11.3 19.6-25.2 12.6-13.9-7-25.2-23.9-25.2-37.8s11.3-19.6 25.2-12.6c13.9 7 25.2 23.9 25.2 37.8z" transform="matrix(-.1 0 0 .1 616 624)"/><path class="st5" d="M6131-6088.8c-19.3-17.2-102.5-82.6-116.4-92.9-13.9-10.3-64.2-41.9-98-50.6-33.8-8.7-38-3.6-44.9-5.1-6.9-1.5-27.4-6.3-57.6 3-12.9 4-28.2 8.4-40.7 19.6-16.6 14.8-29.4 37.8-35.6 50.3l-1.3 4.2c-2.3 7.5-1.3 15.7 2.7 22.4 3.4 5.7 7.7 12.3 10.9 15.9 2.8 3.1 6.2 6.4 9.1 9.2v-.7c0-10.6 6.2-17.4 15.8-17.4 3.8 0 7.9 1.1 12.1 3.2 14.5 7.2 26.2 24.9 26.2 39.4 0 1.9-.2 3.7-.6 5.4l138.9 69.4c-.1-1.1-.2-2.2-.2-3.2 0-10.6 6.2-17.4 15.8-17.4 3.8 0 7.9 1.1 12.1 3.2 14.5 7.2 26.2 24.9 26.2 39.4 0 1.7-.2 3.2-.5 4.7l11.1 5.5s20.8 5.4 34.1 4.2c13.3-1.2 40.7-10.2 62.7-21.1s40.6-30.1 41-40.1c.2-3.8-3.6-33.3-22.9-50.5z" transform="matrix(-.1 0 0 .1 616 624)"/><path class="st5" d="M6053.8-6147.3s-1.2-8.4 0-10.6c1.2-2.1 3.3-5.4 6-3 2.7 2.4 5.7 9.3 3 15.7-2.7 6.4-9-2.1-9-2.1z" transform="matrix(-.1 0 0 .1 616 624)"/><path d="M5748.8-6180.1s64.4 44.5 138.4 84.3 112.9 62.4 112.9 62.4l-45.7-39.2-163.9-95.6-41.7-11.9z" opacity=".3" fill="#fff" transform="matrix(-.1 0 0 .1 616 624)"/><path class="st1" d="M5792.1-6167.2l162.2 94.7s-15.7-69-71.1-96.8c-55.4-27.8-91.1 2.1-91.1 2.1zm67.6-51.2c21.6-10.2 39.2-13.3 39.2-15.4 0-2.1-55.5-4.8-89.8 12.4s-32.6 32-19.6 30.4 30.4-3 35.9-5.7 15.9-13 34.3-21.7z" transform="matrix(-.1 0 0 .1 616 624)"/><path class="st7" d="M5788.9-6193.3c-1.3 0-4.4-.3-4.9-2.6-.8-3.4 3.8-12.9 27.1-24.5 25.5-12.7 61.4-13.7 71.8-13.7 5.3 0 9.3.2 12 .5-1.4.5-2.9 1-4.5 1.5-7.2 2.3-18.1 5.8-30.2 11.6-12.3 5.8-21.3 12.5-27.2 16.8-3.1 2.2-5.5 4-7.2 4.9-4.2 2.1-17.2 3.5-28.6 4.8-2.3.3-4.6.5-6.7.7h-1.6z" transform="matrix(-.1 0 0 .1 616 624)"/><path class="st1" d="M5934.4-6140.3c-2 5.5 30.1 59.7 40.1 62.4 9.9 2.7 39.8 1.8 69.3-14.5s35-28.9 33.5-33.5c-1.5-4.5-58.2-52.2-67.5-53.1-9.3-.9-73 32-75.4 38.7z" transform="matrix(-.1 0 0 .1 616 624)"/><path class="st8" d="M6013.1-6022.8s4.2-5.6 15.5-6.9c11.3-1.2 25.1-.1 35.4 9.1 7.7 6.9 10.5 9.8 10.5 9.8s-21.8 7.1-32.6 5.6c-10.7-1.5-28.8-17.6-28.8-17.6z" transform="matrix(-.1 0 0 .1 616 624)"/><path class="st3" d="M6015.2-6024.7s3.9-5.2 14.3-6.3 23.2-.1 32.7 8.4c7.1 6.3 9.7 9 9.7 9s-20.1 6.6-30.1 5.2-26.6-16.3-26.6-16.3z" transform="matrix(-.1 0 0 .1 616 624)"/><path class="st8" d="M6134.4-6042.4s15.2-14.2 14.4-18.2c-.8-4.1-12.5-24.3-14-21.3s-4.7 7.8-3.5 11.9c1.2 4.1 3.4 24 3.1 27.6z" transform="matrix(-.1 0 0 .1 616 624)"/><path class="st3" d="M6134.3-6045.2s14.3-14.2 13.6-18.2c-.8-4.1-12.5-24.3-14-21.3s-4.7 7.8-3.5 11.9c1.2 4 4.2 23.9 3.9 27.6z" transform="matrix(-.1 0 0 .1 616 624)"/><path class="st1" d="M6043.7-5985.3l-.5 4.4s44.7-5.7 72.8-23c28-17.3 34.8-30.8 34.8-30.8s-21.6 23.4-48 34.2c-27.7 11.2-59.1 15.2-59.1 15.2z" transform="matrix(-.1 0 0 .1 616 624)"/><path class="st7" d="M6070.9-6129.6c-5.1-4.9-14.8-13.5-27.1-23.4-20-16.2-31.7-23.7-34.5-23.9h-.1c-4.1 0-20.4 6.8-38.6 16.2-20.9 10.7-32.1 18.3-33.7 20.6.2 2.8 5.7 14.7 15.9 31.1 11.3 18.1 19.5 27.1 22.2 27.9 1.5.4 3.4.7 5.6.9 13.2-2 36-7.1 58.2-20.2 18.8-11.1 27.8-21.8 32.1-29.2zm-265.1-41.4l-2.1 6.3 62.4 36.4 10-40.2-.3-.4c-13.2-5.8-26.2-8.7-38.9-8.7-13.3.1-23.9 3.4-31.1 6.6zm131.5 84.3l2.5-15.3c-1.1-2.3-2.2-4.6-3.5-7-9.4-17.8-26-41.7-52.3-55.8l-6.2 43.3 59.5 34.8z" transform="matrix(-.1 0 0 .1 616 624)"/><path class="st9" d="M5816.2-6140.2c0 2.9-2.4 4.1-5.3 2.7-2.9-1.5-5.3-5-5.3-8s2.4-4.1 5.3-2.7c2.9 1.5 5.3 5 5.3 8z" transform="matrix(-.1 0 0 .1 616 624)"/><path class="st5" d="M5802.4-6149.2l-2.3 2.6s16.7 10.9 18.2 8.7c1.6-2.1-15.9-11.3-15.9-11.3z" transform="matrix(-.1 0 0 .1 616 624)"/><path class="st9" d="M5887.4-6099.7c0 2.9-2.4 4.1-5.3 2.7-2.9-1.5-5.3-5-5.3-8 0-2.9 2.4-4.1 5.3-2.7 2.9 1.5 5.3 5 5.3 8z" transform="matrix(-.1 0 0 .1 616 624)"/><path class="st5" d="M5873.6-6108.8l-2.3 2.6s16.7 10.9 18.2 8.7c1.6-2.1-15.9-11.3-15.9-11.3z" transform="matrix(-.1 0 0 .1 616 624)"/><path class="st9" d="M5953.9-6072.6c0 .1-1.8 7-3.3 15.4-1.4 7.6-2.2 32.8-2.4 37.3l-79.6-40.3c-.1-1.6-1.2-16.5-1.2-30.1 0-14.3 3.6-30.2 3.6-30.3l-.9-.2c0 .2-3.6 16.2-3.6 30.5 0 12.6.9 26.4 1.2 29.6l-39.6-20c-.9-1.2-10.5-14.3-19.9-34.2-9.7-20.5-7.4-46.5-7.3-46.8l-.9-.1c0 .3-2.4 26.5 7.4 47.3 9.9 20.8 20 34.3 20.1 34.4l.1.1 121.4 61.6v-.7c0-.3.9-29.6 2.4-37.9 1.5-8.3 3.3-15.3 3.3-15.3l-.8-.3z" transform="matrix(-.1 0 0 .1 616 624)"/><path class="st10" d="M6049.1-6023.6c0 3.6-2.9 7.9-6.5 9.7-3.6 1.8-6.5.3-6.5-3.2 0-3.6 2.9-7.9 6.5-9.7 3.6-1.8 6.5-.4 6.5 3.2zm10 2.6c0 2.5-2 5.5-4.5 6.8-2.5 1.2-4.5.2-4.5-2.3s2-5.5 4.5-6.8c2.5-1.2 4.5-.2 4.5 2.3z" transform="matrix(-.1 0 0 .1 616 624)"/><path class="st11" d="M6034.7-6017.7c0 1.3-1.1 3-2.4 3.6-1.3.7-2.4.1-2.4-1.2s1.1-3 2.4-3.6c1.3-.7 2.4-.2 2.4 1.2z" transform="matrix(-.1 0 0 .1 616 624)"/><path class="st12" d="M6046.4-6020.9c0 1.8-1.5 4-3.2 4.9-1.8.9-3.2.2-3.2-1.6s1.5-4 3.2-4.9c1.7-.9 3.2-.2 3.2 1.6zm11 1.7c0 1.3-1.1 3-2.4 3.6-1.3.7-2.4.1-2.4-1.2s1.1-3 2.4-3.6c1.3-.7 2.4-.1 2.4 1.2z" transform="matrix(-.1 0 0 .1 616 624)"/><path class="st11" d="M6031.1-6025.8c0 1.3-1.1 3-2.4 3.6-1.3.7-2.4.1-2.4-1.2s1.1-3 2.4-3.6c1.3-.7 2.4-.1 2.4 1.2zm106.9-52.6c0 1.3-1.1 3-2.4 3.6-1.3.7-2.4.1-2.4-1.2s1.1-3 2.4-3.6c1.3-.7 2.4-.2 2.4 1.2zm4.5 6.3c0 1.3-1.1 3-2.4 3.6-1.3.7-2.4.1-2.4-1.2s1.1-3 2.4-3.6c1.3-.7 2.4-.1 2.4 1.2z" transform="matrix(-.1 0 0 .1 616 624)"/><path class="st10" d="M6143.9-6067.9c0 3.1-2.5 6.8-5.6 8.3-3.1 1.5-5.6.3-5.6-2.8 0-3.1 2.5-6.8 5.6-8.3 3.1-1.5 5.6-.2 5.6 2.8z" transform="matrix(-.1 0 0 .1 616 624)"/><path class="st12" d="M6140.6-6064.6c0 1.6-1.3 3.5-2.8 4.3-1.6.8-2.8.1-2.8-1.4s1.3-3.5 2.8-4.3c1.5-.8 2.8-.2 2.8 1.4z" transform="matrix(-.1 0 0 .1 616 624)"/><path class="st10" d="M6139.4-6059.5c0-2.5-2-3.5-4.5-2.3-.8.4-1.5.9-2.1 1.6.4 2.7.8 5.5 1.1 7.9.3-.1.7-.2 1.1-.4 2.4-1.2 4.4-4.3 4.4-6.8zm-124.2 34.7c4.9-.4 18.7-1.1 27.4 1s23.8 7.9 29.2 10.1c-.6-.6-3.4-3.4-9.6-8.9-9.5-8.5-22.3-9.5-32.7-8.4-9.5 1-13.6 5.4-14.3 6.2z" transform="matrix(-.1 0 0 .1 616 624)"/><path class="st5" d="M5931.7-6096.9s7.5 3.6 10.9 8.1c3.3 4.5 3.3 6.9 3.3 6.9s-20.8 4.5-31.1-2.1c-10.9-7.1 16.9-12.9 16.9-12.9z" transform="matrix(-.1 0 0 .1 616 624)"/><path class="st1" d="M5986.4-6079.5l3.8-.3 35-17 1.9-3.5 21.3-9.9-.9-1.7-40.7 18.1 1.2 1.5 15.8-7-.9 1-34.2 16.4z" transform="matrix(-.1 0 0 .1 616 624)"/><path class="st1" d="M6023.4-6088.9h3.3l27.9-20.7 3.4-8 10.7-13.6-.7-1-20.1 22.9.8 1.2 5.4-4.8-1.5 2.7-28.3 19.6zm42.2 66l11.6 10.4s16.8-3.2 31.8-10.9 24-18.1 24-18.1l-1.2-15.2s-6.8 12.3-26.4 22c-17.4 8.7-39.8 11.8-39.8 11.8z" transform="matrix(-.1 0 0 .1 616 624)"/><path class="st2" d="M6112.2-6000.9c21.9-11 40.6-29.6 41-39.6.1-1.7.2-4.5-2.2-12.4-.2-.7-1.1-.8-1.5-.2-7.7 11-20.8 25.3-41.2 35.1-21.2 10.2-47.2 18.9-67.2 17.9-4.7-.2-5.5 4.5-5.9 11.9-.2 4.8 3.8 8.8 8.6 8.3 17.2-1.7 44.8-9.2 68.4-21z" transform="matrix(-.1 0 0 .1 616 624)"/><path class="st4" d="M6018.2-6014c-7-7.9-47-49.9-57.4-66.3-13.6-21.3-35.8-73.4-76.7-92.9-41-19.5-87.4-11.2-101.4-10.2-8.5.5-21.7-2.6-30.9-5.2-6 9.1-10.7 17.9-13.8 24.2l-1.3 4.2c-2.3 7.5-1.3 15.7 2.7 22.4 3.4 5.7 7.7 12.3 10.9 15.9 2.8 3.1 6.2 6.4 9.1 9.2v-.7c0-10.6 6.2-17.4 15.8-17.4 3.8 0 7.9 1.1 12.1 3.2 14.5 7.2 26.2 24.9 26.2 39.4 0 1.9-.2 3.7-.6 5.4l138.9 69.4c-.1-1.1-.2-2.2-.2-3.2 0-10.6 6.2-17.4 15.8-17.4 3.8 0 7.9 1.1 12.1 3.2 14.5 7.2 26.2 24.9 26.2 39.4 0 1.7-.2 3.2-.5 4.7l11.1 5.5s5.8 1.5 13.2 2.8c-1.8-14.7-5.5-29-11.3-35.6z" transform="matrix(-.1 0 0 .1 616 624)"/><path d="M5739.4-6161.3s6.3-16.1 9.8-21.1 7.4-9.5 7.4-9.5l-1.1-3s-7.4 2.6-8.7 4.8c-1.4 2.3-8.9 25.6-8.9 25.6l1.5 3.2z" fill="#cc291f" transform="matrix(-.1 0 0 .1 616 624)"/><path class="st9" d="M6069-6126.7c.7-1 1.3-2 1.8-2.9-5.1-4.9-14.8-13.5-27.1-23.4-20-16.2-31.7-23.7-34.5-23.9h-.1c-4.1 0-20.4 6.8-38.6 16.2-20.9 10.7-32.1 18.3-33.7 20.6.1.9.7 2.9 1.9 5.6 42.7-13.8 89.4-11.1 130.3 7.8z" transform="matrix(-.1 0 0 .1 616 624)"/><path class="st3" d="M6098.4-6006.6v14.6l26.3-13.1v-14.5z" transform="matrix(-.1 0 0 .1 616 624)"/><path class="st9" d="M6134.3-6045.2s14.3-14.2 13.6-18.2c-.8-4.1-12.5-24.3-14-21.3s-4.7 7.8-3.5 11.9c1.2 4 4.2 23.9 3.9 27.6z" transform="matrix(-.1 0 0 .1 616 624)"/><path class="st1" d="M5935.8-6135.9c-3.2-7.9-25.4-33.1-50-45.2-31-15.2-58-15.2-63.5-14.4l-.2-1.3c5.6-.8 33-.8 64.3 14.5 10.9 5.3 22.7 14 33.4 24.4 8.5 8.2 15.4 16.9 17.3 21.5l-1.3.5zm79.3-38.9l-.1-.1c-10-7.3-36.7-26.7-61.3-38.7-30.9-15.1-55-19.8-60.3-19.8v-1.4c5.4 0 29.8 4.7 60.9 20 24.7 12.1 51.4 31.5 61.5 38.8l.1.1-.8 1.1z" transform="matrix(-.1 0 0 .1 616 624)"/></g></svg>