<svg xmlns="http://www.w3.org/2000/svg" width="128" height="71.4"><style>.st0{fill:#9c3}.st1{opacity:.2;enable-background:new}.st2{fill:#825012}.st3{fill:#539b00}.st4{fill:#939}</style><g id="i2098_1_"><path class="st0" d="M-200-664.6l64 32-64 32-64-32z" transform="translate(264 672)"/><path class="st0" d="M-200-664.6l64 32-64 32-64-32z" transform="translate(264 672)"/><path class="st0" d="M-200-664.6l64 32-64 32-64-32z" transform="translate(264 672)"/><path class="st0" d="M-200-664.6l64 32-64 32-64-32z" transform="translate(264 672)"/><g transform="translate(264 672)"><ellipse class="st1" cx="-208" cy="-652.6" rx="6" ry="2"/><path class="st2" d="M-207-664.6v11.5c0 .4-.4.7-1 .7s-1-.3-1-.7v-12.5l2 1z"/><path class="st2" d="M-208-660.2c-2.6 0-3-.9-3-3.4v-3l-1-1v6c0 1.7 1.3 3 3 3h1v-1.6zm1 1.4c1.7 0 3-.4 3-2.1v-1.7h1v2c0 1.7-1.3 3-3 3h-1v-1.2z"/><path class="st2" d="M-211-661.8c-1.7 0-2-1.3-2-2.1v-3.7l-1-1v5c0 1.7 1.3 3 3 3v-1.2z"/><path class="st2" d="M-218-670.6l22 11v1l-22-11z"/><path class="st3" d="M-192.1-656.7s-.4-1.9-.5-2.3c-.1-.5-1.6-1-1.6-1s.3 0 1.1.1c.7.1 1.2-.4 1.2-.4s-.4-.6-.7-1.2c-.3-.6-1.5-.7-1.5-.7l.8-.3s-1.1-1.1-2.6-.7c-1.3.3-1.4 1.2-1.4 1.4-.2 0-1.1.1-1.4 1.4-.3 1.5.7 2.6.7 2.6l.3-.8s.1 1.1.7 1.5c.6.3 1.2.7 1.2.7s.6-.4.4-1.2c-.1-.7-.1-1.1-.1-1.1s.5 1.5 1 1.6c.5.1 2.4.4 2.4.4z"/><path class="st4" d="M-197-660.3c0-.5-.3-.8-.7-1 0-.1.1-.2.1-.4 0-.6-.4-1-1-1-.3 0-.5.1-.7.3-.2-.1-.4-.2-.7-.2s-.5.1-.7.3c-.2-.2-.4-.3-.7-.3-.6 0-1 .4-1 1 0 .1 0 .3.1.4-.4.1-.7.5-.7 1s.3.8.7 1c0 .1-.1.2-.1.4 0 .5.3.8.7 1 0 .1-.1.2-.1.4 0 .5.3.8.7 1 0 .1-.1.2-.1.4 0 .6.4 1 1 1s1-.4 1-1c0-.1 0-.3-.1-.4.4-.1.7-.5.7-1 0-.1 0-.3-.1-.4.4-.1.7-.5.7-1 0-.1 0-.3-.1-.4.8-.2 1.1-.6 1.1-1.1z"/><path class="st3" d="M-198.8-665.4s-1.8-.5-2.3-.7c-.5-.1-1.6 1-1.6 1l.6-.9c.4-.6.2-1.2.2-1.2s-.7.1-1.4.1-1.3 1-1.3 1l.1-.9s-1.5.5-1.9 1.9c-.4 1.3.5 1.8.6 1.9-.1.2-.5 1 .6 1.9 1.1 1 2.6.5 2.6.5l-.6-.6s1.1.4 1.6 0c.6-.4 1.2-.7 1.2-.7s-.1-.7-.8-.9c-.7-.2-1-.4-1-.4s1.6.3 1.9-.1 1.5-1.9 1.5-1.9z"/><path class="st3" d="M-204.7-658.6s-.1-1.9-.1-2.4-1.4-1.2-1.4-1.2.3.1 1 .3c.7.2 1.2-.2 1.2-.2s-.3-.6-.5-1.3c-.2-.7-1.3-.9-1.3-.9l.8-.3s-1-1.2-2.4-1.1c-1.4.1-1.6 1-1.6 1.2-.2 0-1.1-.1-1.6 1.1-.5 1.4.3 2.7.3 2.7l.4-.8s-.1 1.1.5 1.6c.6.4 1.1.9 1.1.9s.6-.4.6-1.1v-1.1s.3 1.6.7 1.7c.5.2 2.3.9 2.3.9z"/><path class="st3" d="M-214.7-665.4s1.6 1 2 1.3c.4.3 1.8-.4 1.8-.4s-.2.2-.8.7c-.6.4-.5 1.1-.5 1.1s.7.1 1.4.3c.7.2 1.5-.5 1.5-.5l-.4.8s1.6-.1 2.4-1.3c.7-1.1.1-1.8 0-2 .1-.1.8-.8 0-2-.8-1.3-2.4-1.3-2.4-1.3l.4.8s-.9-.7-1.6-.5c-.7.2-1.4.3-1.4.3s-.1.7.5 1.1c.6.4.8.6.8.6s-1.5-.7-1.8-.4-1.9 1.4-1.9 1.4z"/><path class="st3" d="M-218.6-671.2s.7 1.8.9 2.2 1.8.7 1.8.7-.3.1-1.1.1-1 .6-1 .6.5.5.9 1.1c.4.6 1.6.4 1.6.4l-.8.4s1.3.8 2.7.2c1.2-.5 1.1-1.5 1.1-1.6.2 0 1.1-.3 1.1-1.6 0-1.5-1.2-2.4-1.2-2.4l-.1.9s-.3-1.1-1-1.3-1.3-.5-1.3-.5-.5.5-.2 1.2.3 1 .3 1-.8-1.4-1.3-1.4h-2.4z"/><path class="st4" d="M-206-664.6c0-.5-.3-.8-.7-1 0-.1.1-.2.1-.4 0-.6-.4-1-1-1-.3 0-.5.1-.7.3-.2-.2-.4-.3-.7-.3-.3 0-.5.1-.7.3-.2-.2-.4-.3-.7-.3-.6 0-1 .4-1 1 0 .1 0 .3.1.4-.4.2-.7.5-.7 1s.3.8.7 1c0 .1-.1.2-.1.4 0 .5.3.8.7 1 0 .1-.1.2-.1.4 0 .5.3.8.7 1 0 .1-.1.2-.1.4 0 .6.4 1 1 1s1-.4 1-1c0-.1 0-.3-.1-.4.4-.1.7-.5.7-1 0-.1 0-.3-.1-.4.4-.1.7-.5.7-1 0-.1 0-.3-.1-.4.8-.2 1.1-.5 1.1-1zm-8-2.7c0-.5-.3-.8-.7-1 0-.1.1-.2.1-.4 0-.6-.4-1-1-1-.3 0-.5.1-.7.3-.2-.1-.4-.2-.7-.2s-.5.1-.7.3c-.1-.2-.4-.3-.6-.3-.6 0-1 .4-1 1 0 .1 0 .3.1.4-.4.1-.7.5-.7 1s.3.8.7 1c0 .1-.1.2-.1.4 0 .5.3.8.7 1 0 .1-.1.2-.1.4 0 .5.3.8.7 1v.1c0 .6.4 1 1 1s1-.4 1-1c0-.1 0-.3-.1-.4.4-.1.7-.5.7-1 0-.1 0-.3-.1-.4.4-.1.7-.5.7-1 0-.1 0-.3-.1-.4.6.1.9-.3.9-.8z"/><path class="st3" d="M-223.5-665s1.8-.5 2.3-.7c.5-.1.9-1.7.9-1.7v1.1c0 .8.5 1.1.5 1.1s.5-.5 1.2-.8c.6-.4.6-1.5.6-1.5l.3.8s1-1.2.5-2.6c-.4-1.3-1.4-1.3-1.5-1.3 0-.2-.1-1.1-1.5-1.3-1.5-.2-2.5.9-2.5.9l.8.2s-1.1.2-1.4.8c-.3.8-.6 1.4-.6 1.4s.5.5 1.2.3 1-.2 1-.2-1.5.6-1.5 1.1-.3 2.4-.3 2.4z"/></g><g transform="translate(264 672)"><ellipse class="st1" cx="-192" cy="-644.6" rx="6" ry="2"/><path class="st2" d="M-191-656.6v11.5c0 .4-.4.7-1 .7s-1-.3-1-.7v-12.5l2 1z"/><path class="st2" d="M-192-652.2c-2.6 0-3-.9-3-3.4v-3l-1-1v6c0 1.7 1.3 3 3 3h1v-1.6zm1 1.4c1.7 0 3-.4 3-2.1v-1.7h1v2c0 1.7-1.3 3-3 3h-1v-1.2z"/><path class="st2" d="M-195-653.8c-1.7 0-2-1.3-2-2.1v-3.7l-1-1v5c0 1.7 1.3 3 3 3v-1.2z"/><path class="st2" d="M-202-662.6l22 11v1l-22-11z"/><path class="st3" d="M-176.1-648.7s-.4-1.9-.5-2.3c-.1-.5-1.6-1-1.6-1s.3 0 1.1.1c.7.1 1.2-.4 1.2-.4s-.4-.6-.7-1.2c-.3-.6-1.5-.7-1.5-.7l.8-.3s-1.1-1.1-2.6-.7c-1.3.3-1.4 1.2-1.4 1.4-.2 0-1.1.1-1.4 1.4-.3 1.5.7 2.6.7 2.6l.3-.8s.1 1.1.7 1.5c.6.3 1.2.7 1.2.7s.6-.4.4-1.2c-.1-.7-.1-1.1-.1-1.1s.5 1.5 1 1.6c.5 0 2.4.4 2.4.4z"/><path class="st4" d="M-181-652.3c0-.5-.3-.8-.7-1 0-.1.1-.2.1-.4 0-.6-.4-1-1-1-.3 0-.5.1-.7.3-.2-.1-.4-.2-.7-.2s-.5.1-.7.3c-.2-.2-.4-.3-.7-.3-.6 0-1 .4-1 1 0 .1 0 .3.1.4-.4.1-.7.5-.7 1s.3.8.7 1c0 .1-.1.2-.1.4 0 .5.3.8.7 1 0 .1-.1.2-.1.4 0 .5.3.8.7 1 0 .1-.1.2-.1.4 0 .6.4 1 1 1s1-.4 1-1c0-.1 0-.3-.1-.4.4-.1.7-.5.7-1 0-.1 0-.3-.1-.4.4-.1.7-.5.7-1 0-.1 0-.3-.1-.4.8-.2 1.1-.6 1.1-1.1z"/><path class="st3" d="M-182.8-657.4s-1.8-.5-2.3-.7c-.5-.1-1.6 1-1.6 1l.6-.9c.4-.6.2-1.2.2-1.2s-.7.1-1.4.1-1.3 1-1.3 1l.1-.9s-1.5.5-1.9 1.9c-.4 1.3.5 1.8.6 1.9-.1.2-.5 1 .6 1.9 1.1 1 2.6.5 2.6.5l-.6-.6s1.1.4 1.6 0c.6-.4 1.2-.7 1.2-.7s-.1-.7-.8-.9-1-.4-1-.4 1.6.3 1.9-.1 1.5-1.9 1.5-1.9z"/><path class="st3" d="M-188.7-650.6s-.1-1.9-.1-2.4-1.4-1.2-1.4-1.2.3.1 1 .3c.7.2 1.2-.2 1.2-.2s-.3-.6-.5-1.3c-.2-.7-1.3-.9-1.3-.9l.8-.3s-1-1.2-2.4-1.1c-1.3.1-1.5 1-1.6 1.2-.2 0-1.1-.1-1.6 1.1-.5 1.4.3 2.7.3 2.7l.4-.8s-.1 1.1.5 1.6c.6.4 1.1.9 1.1.9s.6-.4.6-1.1v-1.1s.3 1.6.7 1.7c.5.2 2.3.9 2.3.9z"/><path class="st3" d="M-198.7-657.4s1.6 1 2 1.3c.4.3 1.8-.4 1.8-.4s-.2.2-.8.7-.5 1.1-.5 1.1.7.1 1.4.3c.7.2 1.5-.5 1.5-.5l-.4.8s1.6-.1 2.4-1.3c.7-1.1.1-1.8 0-2 .1-.1.8-.8 0-2-.8-1.3-2.4-1.3-2.4-1.3l.4.8s-.9-.7-1.6-.5c-.7.2-1.4.3-1.4.3s-.1.7.5 1.1c.6.4.8.6.8.6s-1.5-.7-1.8-.4c-.3.3-1.9 1.4-1.9 1.4z"/><path class="st3" d="M-202.6-663.2s.7 1.8.9 2.2 1.8.7 1.8.7-.3.1-1.1.1c-.7 0-1 .6-1 .6s.5.5.9 1.1c.4.6 1.6.4 1.6.4l-.8.4s1.3.8 2.7.2c1.2-.5 1.1-1.5 1.1-1.6.2 0 1.1-.3 1.1-1.6 0-1.5-1.2-2.4-1.2-2.4l-.1.9s-.3-1.1-1-1.3-1.3-.5-1.3-.5-.5.5-.2 1.2.3 1 .3 1-.8-1.4-1.3-1.4h-2.4z"/><path class="st4" d="M-190-656.6c0-.5-.3-.8-.7-1 0-.1.1-.2.1-.4 0-.6-.4-1-1-1-.3 0-.5.1-.7.3-.2-.2-.4-.3-.7-.3-.3 0-.5.1-.7.3-.2-.2-.4-.3-.7-.3-.6 0-1 .4-1 1 0 .1 0 .3.1.4-.4.1-.7.5-.7 1s.3.8.7 1c0 .1-.1.2-.1.4 0 .5.3.8.7 1 0 .1-.1.2-.1.4 0 .5.3.8.7 1 0 .1-.1.2-.1.4 0 .6.4 1 1 1s1-.4 1-1c0-.1 0-.3-.1-.4.4-.1.7-.5.7-1 0-.1 0-.3-.1-.4.4-.1.7-.5.7-1 0-.1 0-.3-.1-.4.8-.2 1.1-.5 1.1-1zm-8-2.7c0-.5-.3-.8-.7-1 0-.1.1-.2.1-.4 0-.6-.4-1-1-1-.3 0-.5.1-.7.3-.2-.1-.4-.2-.7-.2s-.5.1-.7.3c-.2-.2-.4-.3-.7-.3-.6 0-1 .4-1 1 0 .1 0 .3.1.4-.4.1-.7.5-.7 1s.3.8.7 1c0 .1-.1.2-.1.4 0 .5.3.8.7 1 0 .1-.1.2-.1.4 0 .5.3.8.7 1 0 .1-.1.2-.1.4 0 .6.4 1 1 1s1-.4 1-1c0-.1 0-.3-.1-.4.4-.1.7-.5.7-1 0-.1 0-.3-.1-.4.4-.1.7-.5.7-1 0-.1 0-.3-.1-.4.8-.2 1.1-.6 1.1-1.1z"/><path class="st3" d="M-207.5-657s1.8-.5 2.3-.7c.5-.1.9-1.7.9-1.7v1.1c-.1.7.5 1.1.5 1.1s.5-.5 1.2-.8c.6-.4.6-1.5.6-1.5l.3.8s1-1.2.5-2.6c-.4-1.3-1.4-1.3-1.5-1.3 0-.2-.1-1.1-1.5-1.3-1.5-.2-2.5.9-2.5.9l.8.2s-1.1.2-1.4.8c-.3.7-.6 1.3-.6 1.3s.5.5 1.2.3 1-.2 1-.2-1.5.6-1.5 1.1c0 .6-.3 2.5-.3 2.5z"/></g><g transform="translate(264 672)"><ellipse class="st1" cx="-176" cy="-636.6" rx="6" ry="2"/><path class="st2" d="M-175-648.6v11.5c0 .4-.4.7-1 .7s-1-.3-1-.7v-12.5l2 1z"/><path class="st2" d="M-176-644.2c-2.6 0-3-.9-3-3.4v-3l-1-1v6c0 1.7 1.3 3 3 3h1v-1.6zm1 1.4c1.7 0 3-.4 3-2.1v-1.7h1v2c0 1.7-1.3 3-3 3h-1v-1.2z"/><path class="st2" d="M-179-645.8c-1.7 0-2-1.3-2-2.1v-3.7l-1-1v5c0 1.7 1.3 3 3 3v-1.2z"/><path class="st2" d="M-186-654.6l22 11v1l-22-11z"/><path class="st3" d="M-160.1-640.7s-.4-1.9-.5-2.3c-.1-.5-1.6-1-1.6-1s.3 0 1.1.1c.7.1 1.2-.4 1.2-.4s-.4-.6-.7-1.2c-.3-.6-1.5-.7-1.5-.7l.8-.3s-1.1-1.1-2.6-.7c-1.3.3-1.4 1.2-1.4 1.4-.2 0-1.1.1-1.4 1.4-.3 1.5.7 2.6.7 2.6l.3-.8s.1 1.1.7 1.5c.6.3 1.2.7 1.2.7s.6-.4.4-1.2c-.1-.7-.1-1.1-.1-1.1s.5 1.5 1 1.6c.5 0 2.4.4 2.4.4z"/><path class="st4" d="M-165-644.3c0-.5-.3-.8-.7-1 0-.1.1-.2.1-.4 0-.6-.4-1-1-1-.3 0-.5.1-.7.3-.2-.1-.4-.2-.7-.2s-.5.1-.7.3c-.2-.2-.4-.3-.7-.3-.6 0-1 .4-1 1 0 .1 0 .3.1.4-.4.1-.7.5-.7 1s.3.8.7 1c0 .1-.1.2-.1.4 0 .5.3.8.7 1 0 .1-.1.2-.1.4 0 .5.3.8.7 1 0 .1-.1.2-.1.4 0 .6.4 1 1 1s1-.4 1-1c0-.1 0-.3-.1-.4.4-.1.7-.5.7-1 0-.1 0-.3-.1-.4.4-.1.7-.5.7-1 0-.1 0-.3-.1-.4.8-.2 1.1-.6 1.1-1.1z"/><path class="st3" d="M-166.8-649.4s-1.8-.5-2.3-.7c-.5-.1-1.6 1-1.6 1l.6-.9c.4-.6.2-1.2.2-1.2s-.7.1-1.4.1-1.3 1-1.3 1l.1-.9s-1.5.5-1.9 1.9c-.4 1.3.5 1.8.6 1.9-.1.2-.5 1 .6 1.9 1.1 1 2.6.5 2.6.5l-.6-.6s1.1.4 1.6 0c.6-.4 1.2-.7 1.2-.7s-.1-.7-.8-.9-1-.4-1-.4 1.6.3 1.9-.1 1.5-1.9 1.5-1.9z"/><path class="st3" d="M-172.7-642.6s-.1-1.9-.1-2.4-1.4-1.2-1.4-1.2.3.1 1 .3c.7.2 1.2-.2 1.2-.2s-.3-.6-.5-1.3c-.2-.7-1.3-.9-1.3-.9l.8-.3s-1-1.2-2.4-1.1c-1.3.1-1.5 1-1.6 1.2-.2 0-1.1-.1-1.6 1.1-.5 1.4.3 2.7.3 2.7l.4-.8s-.1 1.1.5 1.6c.6.4 1.1.9 1.1.9s.6-.4.6-1.1v-1.1s.3 1.6.7 1.7c.5.2 2.3.9 2.3.9z"/><path class="st3" d="M-182.7-649.4s1.6 1 2 1.3c.4.3 1.8-.4 1.8-.4s-.2.2-.8.7-.5 1.1-.5 1.1.7.1 1.4.3c.7.2 1.5-.5 1.5-.5l-.4.8s1.6-.1 2.4-1.3c.7-1.1.1-1.8 0-2 .1-.1.8-.8 0-2-.8-1.3-2.4-1.3-2.4-1.3l.4.8s-.9-.7-1.6-.5c-.7.2-1.4.3-1.4.3s-.1.7.5 1.1c.6.4.8.6.8.6s-1.5-.7-1.8-.4c-.3.3-1.9 1.4-1.9 1.4z"/><path class="st3" d="M-186.6-655.2s.7 1.8.9 2.2 1.8.7 1.8.7-.3.1-1.1.1-1 .6-1 .6.5.5.9 1.1c.4.6 1.6.4 1.6.4l-.8.4s1.3.8 2.7.2c1.2-.5 1.1-1.5 1.1-1.6.2 0 1.1-.3 1.1-1.6 0-1.5-1.2-2.4-1.2-2.4l-.1.9s-.3-1.1-1-1.3c-.7-.2-1.3-.5-1.3-.5s-.5.5-.2 1.2.3 1 .3 1-.8-1.4-1.3-1.4h-2.4z"/><path class="st4" d="M-174-648.6c0-.5-.3-.8-.7-1 0-.1.1-.2.1-.4 0-.6-.4-1-1-1-.3 0-.5.1-.7.3-.2-.2-.4-.3-.7-.3-.3 0-.5.1-.7.3-.2-.2-.4-.3-.7-.3-.6 0-1 .4-1 1 0 .1 0 .3.1.4-.4.1-.7.5-.7 1s.3.8.7 1c0 .1-.1.2-.1.4 0 .5.3.8.7 1 0 .1-.1.2-.1.4 0 .5.3.8.7 1 0 .1-.1.2-.1.4 0 .6.4 1 1 1s1-.4 1-1c0-.1 0-.3-.1-.4.4-.1.7-.5.7-1 0-.1 0-.3-.1-.4.4-.1.7-.5.7-1 0-.1 0-.3-.1-.4.8-.2 1.1-.5 1.1-1zm-8-2.7c0-.5-.3-.8-.7-1 0-.1.1-.2.1-.4 0-.6-.4-1-1-1-.3 0-.5.1-.7.3-.2-.1-.4-.2-.7-.2s-.5.1-.7.3c-.2-.2-.4-.3-.7-.3-.6 0-1 .4-1 1 0 .1 0 .3.1.4-.4.1-.7.5-.7 1s.3.8.7 1c0 .1-.1.2-.1.4 0 .5.3.8.7 1 0 .1-.1.2-.1.4 0 .5.3.8.7 1 0 .1-.1.2-.1.4 0 .6.4 1 1 1s1-.4 1-1c0-.1 0-.3-.1-.4.4-.1.7-.5.7-1 0-.1 0-.3-.1-.4.4-.1.7-.5.7-1 0-.1 0-.3-.1-.4.8-.2 1.1-.6 1.1-1.1z"/><path class="st3" d="M-191.5-649s1.8-.5 2.3-.7c.5-.1.9-1.7.9-1.7v1.1c-.1.7.5 1.1.5 1.1s.5-.5 1.2-.8c.6-.4.6-1.5.6-1.5l.3.8s1-1.2.5-2.6c-.4-1.3-1.4-1.3-1.5-1.3 0-.2-.1-1.1-1.5-1.3-1.5-.2-2.5.9-2.5.9l.8.2s-1.1.2-1.4.8c-.3.7-.6 1.3-.6 1.3s.5.5 1.2.3 1-.2 1-.2-1.5.6-1.5 1.1c0 .6-.3 2.5-.3 2.5z"/></g><g transform="translate(264 672)"><ellipse class="st1" cx="-160" cy="-628.6" rx="6" ry="2"/><path class="st2" d="M-159-640.6v11.5c0 .4-.4.7-1 .7s-1-.3-1-.7v-12.5l2 1z"/><path class="st2" d="M-160-636.2c-2.6 0-3-.9-3-3.4v-3l-1-1v6c0 1.7 1.3 3 3 3h1v-1.6zm1 1.4c1.7 0 3-.4 3-2.1v-1.7h1v2c0 1.7-1.3 3-3 3h-1v-1.2z"/><path class="st2" d="M-163-637.8c-1.7 0-2-1.3-2-2.1v-3.7l-1-1v5c0 1.7 1.3 3 3 3v-1.2z"/><path class="st2" d="M-170-646.6l22 11v1l-22-11z"/><path class="st3" d="M-144.1-632.7s-.4-1.9-.5-2.3c-.1-.5-1.6-1-1.6-1s.3 0 1.1.1c.7.1 1.2-.4 1.2-.4s-.4-.6-.7-1.2c-.3-.6-1.5-.7-1.5-.7l.8-.3s-1.1-1.1-2.6-.7c-1.3.3-1.4 1.2-1.4 1.4-.2 0-1.1.1-1.4 1.4-.3 1.5.7 2.6.7 2.6l.3-.8s.1 1.1.7 1.5c.6.3 1.2.7 1.2.7s.6-.4.4-1.2c-.1-.7-.1-1.1-.1-1.1s.5 1.5 1 1.6c.5.1 2.4.4 2.4.4z"/><path class="st4" d="M-149-636.3c0-.5-.3-.8-.7-1 0-.1.1-.2.1-.4 0-.6-.4-1-1-1-.3 0-.5.1-.7.3-.2-.2-.4-.3-.7-.3-.3 0-.5.1-.7.3-.2-.2-.4-.3-.7-.3-.6 0-1 .4-1 1 0 .1 0 .3.1.4-.4.1-.7.5-.7 1s.3.8.7 1c0 .1-.1.2-.1.4 0 .5.3.8.7 1 0 .1-.1.2-.1.4 0 .5.3.8.7 1 0 .1-.1.2-.1.4 0 .6.4 1 1 1s1-.4 1-1c0-.1 0-.3-.1-.4.4-.1.7-.5.7-1 0-.1 0-.3-.1-.4.4-.1.7-.5.7-1 0-.1 0-.3-.1-.4.8-.1 1.1-.5 1.1-1z"/><path class="st3" d="M-150.8-641.4s-1.8-.5-2.3-.7c-.5-.1-1.6 1-1.6 1l.6-.9c.4-.6.2-1.2.2-1.2s-.7.1-1.4.1-1.3 1-1.3 1l.1-.9s-1.5.5-1.9 1.9c-.4 1.3.5 1.8.6 1.9-.1.2-.5 1 .6 1.9 1.1 1 2.6.5 2.6.5l-.6-.6s1.1.4 1.6 0c.6-.4 1.2-.7 1.2-.7s-.1-.7-.8-.9-1-.4-1-.4 1.6.3 1.9-.1 1.5-1.9 1.5-1.9z"/><path class="st3" d="M-156.7-634.6s-.1-1.9-.1-2.4-1.4-1.2-1.4-1.2.3.1 1 .3c.7.2 1.2-.2 1.2-.2s-.3-.6-.5-1.3c-.2-.7-1.3-.9-1.3-.9l.8-.3s-1-1.2-2.4-1.1c-1.3.1-1.5 1-1.6 1.2-.2 0-1.1-.1-1.6 1.1-.5 1.4.3 2.7.3 2.7l.4-.8s-.1 1.1.5 1.6c.6.4 1.1.9 1.1.9s.6-.4.6-1.1v-1.1s.3 1.6.7 1.7c.5.2 2.3.9 2.3.9z"/><path class="st3" d="M-166.7-641.4s1.6 1 2 1.3c.4.3 1.8-.4 1.8-.4s-.2.2-.8.7-.5 1.1-.5 1.1.7.1 1.4.3c.7.2 1.5-.5 1.5-.5l-.4.8s1.6-.1 2.4-1.3c.7-1.1.1-1.8 0-2 .1-.1.8-.8 0-2-.8-1.3-2.4-1.3-2.4-1.3l.4.8s-.9-.7-1.6-.5c-.7.2-1.4.3-1.4.3s-.1.7.5 1.1c.6.4.8.6.8.6s-1.5-.7-1.8-.4c-.3.3-1.9 1.4-1.9 1.4z"/><path class="st3" d="M-170.6-647.2s.7 1.8.9 2.2 1.8.7 1.8.7-.3.1-1.1.1-1 .6-1 .6.5.5.9 1.1c.4.6 1.6.4 1.6.4l-.8.4s1.3.8 2.7.2c1.2-.5 1.1-1.5 1.1-1.6.2 0 1.1-.3 1.1-1.6 0-1.5-1.2-2.4-1.2-2.4l-.1.9s-.3-1.1-1-1.3c-.7-.2-1.3-.5-1.3-.5s-.5.5-.2 1.2.3 1 .3 1-.8-1.4-1.3-1.4h-2.4z"/><path class="st4" d="M-158-640.6c0-.5-.3-.8-.7-1 0-.1.1-.2.1-.4 0-.6-.4-1-1-1-.3 0-.5.1-.7.3-.2-.2-.4-.3-.7-.3-.3 0-.5.1-.7.3-.2-.2-.4-.3-.7-.3-.6 0-1 .4-1 1 0 .1 0 .3.1.4-.4.1-.7.5-.7 1s.3.8.7 1c0 .1-.1.2-.1.4 0 .5.3.8.7 1 0 .1-.1.2-.1.4 0 .5.3.8.7 1 0 .1-.1.2-.1.4 0 .6.4 1 1 1s1-.4 1-1c0-.1 0-.3-.1-.4.4-.1.7-.5.7-1 0-.1 0-.3-.1-.4.4-.1.7-.5.7-1 0-.1 0-.3-.1-.4.8-.2 1.1-.5 1.1-1zm-8-2.7c0-.5-.3-.8-.7-1 0-.1.1-.2.1-.4 0-.6-.4-1-1-1-.3 0-.5.1-.7.3-.2-.1-.4-.2-.7-.2s-.5.1-.7.3c-.2-.2-.4-.3-.7-.3-.6 0-1 .4-1 1 0 .1 0 .3.1.4-.4.1-.7.5-.7 1s.3.8.7 1c0 .1-.1.2-.1.4 0 .5.3.8.7 1 0 .1-.1.2-.1.4 0 .5.3.8.7 1 0 .1-.1.2-.1.4 0 .6.4 1 1 1s1-.4 1-1c0-.1 0-.3-.1-.4.4-.1.7-.5.7-1 0-.1 0-.3-.1-.4.4-.1.7-.5.7-1 0-.1 0-.3-.1-.4.8-.2 1.1-.6 1.1-1.1z"/><path class="st3" d="M-175.5-641s1.8-.5 2.3-.7c.5-.1.9-1.7.9-1.7v1.1c-.1.7.5 1.1.5 1.1s.5-.5 1.2-.8c.6-.4.6-1.5.6-1.5l.3.8s1-1.2.5-2.6c-.4-1.3-1.4-1.3-1.5-1.3 0-.2-.1-1.1-1.5-1.3-1.5-.2-2.5.9-2.5.9l.8.2s-1.1.2-1.4.8c-.3.7-.6 1.3-.6 1.3s.5.5 1.2.3 1-.2 1-.2-1.5.6-1.5 1.1c0 .6-.3 2.5-.3 2.5z"/></g><g transform="translate(264 672)"><ellipse class="st1" cx="-240" cy="-636.6" rx="6" ry="2"/><path class="st2" d="M-239-648.6v11.5c0 .4-.4.7-1 .7s-1-.3-1-.7v-12.5l2 1z"/><path class="st2" d="M-240-644.2c-2.6 0-3-.9-3-3.4v-3l-1-1v6c0 1.7 1.3 3 3 3h1v-1.6zm1 1.4c1.7 0 3-.4 3-2.1v-1.7h1v2c0 1.7-1.3 3-3 3h-1v-1.2z"/><path class="st2" d="M-243-645.8c-1.7 0-2-1.3-2-2.1v-3.7l-1-1v5c0 1.7 1.3 3 3 3v-1.2z"/><path class="st2" d="M-250-654.6l22 11v1l-22-11z"/><path class="st3" d="M-224.1-640.7s-.4-1.9-.5-2.3c-.1-.5-1.6-1-1.6-1s.3 0 1.1.1c.7.1 1.2-.4 1.2-.4s-.4-.6-.7-1.2c-.3-.6-1.5-.7-1.5-.7l.8-.3s-1.1-1.1-2.6-.7c-1.3.3-1.4 1.2-1.4 1.4-.2 0-1.1.1-1.4 1.4-.3 1.5.7 2.6.7 2.6l.3-.8s.1 1.1.7 1.5c.6.3 1.2.7 1.2.7s.6-.4.4-1.2c-.1-.7-.1-1.1-.1-1.1s.5 1.5 1 1.6c.5 0 2.4.4 2.4.4z"/><path class="st4" d="M-229-644.3c0-.5-.3-.8-.7-1 0-.1.1-.2.1-.4 0-.6-.4-1-1-1-.3 0-.5.1-.7.3-.2-.1-.4-.2-.7-.2s-.5.1-.7.3c-.2-.2-.4-.3-.7-.3-.6 0-1 .4-1 1 0 .1 0 .3.1.4-.4.1-.7.5-.7 1s.3.8.7 1c0 .1-.1.2-.1.4 0 .5.3.8.7 1 0 .1-.1.2-.1.4 0 .5.3.8.7 1 0 .1-.1.2-.1.4 0 .6.4 1 1 1s1-.4 1-1c0-.1 0-.3-.1-.4.4-.1.7-.5.7-1 0-.1 0-.3-.1-.4.4-.1.7-.5.7-1 0-.1 0-.3-.1-.4.8-.2 1.1-.6 1.1-1.1z"/><path class="st3" d="M-230.8-649.4s-1.8-.5-2.3-.7c-.5-.1-1.6 1-1.6 1l.6-.9c.4-.6.2-1.2.2-1.2s-.7.1-1.4.1-1.3 1-1.3 1l.1-.9s-1.5.5-1.9 1.9c-.4 1.3.5 1.8.6 1.9-.1.2-.5 1 .6 1.9 1.1 1 2.6.5 2.6.5l-.6-.6s1.1.4 1.6 0c.6-.4 1.2-.7 1.2-.7s-.1-.7-.8-.9-1-.4-1-.4 1.6.3 1.9-.1c.3-.4 1.5-1.9 1.5-1.9z"/><path class="st3" d="M-236.7-642.6s-.1-1.9-.1-2.4-1.4-1.2-1.4-1.2.3.1 1 .3c.7.2 1.2-.2 1.2-.2s-.3-.6-.5-1.3c-.2-.7-1.3-.9-1.3-.9l.8-.3s-1-1.2-2.4-1.1c-1.3.1-1.5 1-1.6 1.2-.2 0-1.1-.1-1.6 1.1-.5 1.4.3 2.7.3 2.7l.4-.8s-.1 1.1.5 1.6c.6.4 1.1.9 1.1.9s.6-.4.6-1.1v-1.1s.3 1.6.7 1.7c.5.2 2.3.9 2.3.9z"/><path class="st3" d="M-246.7-649.4s1.6 1 2 1.3c.4.3 1.8-.4 1.8-.4s-.2.2-.8.7c-.6.5-.5 1.1-.5 1.1s.7.1 1.4.3c.7.2 1.5-.5 1.5-.5l-.4.8s1.6-.1 2.4-1.3c.7-1.1.1-1.8 0-2 .1-.1.8-.8 0-2-.8-1.3-2.4-1.3-2.4-1.3l.4.8s-.9-.7-1.6-.5c-.7.2-1.4.3-1.4.3s-.1.7.5 1.1c.6.4.8.6.8.6s-1.5-.7-1.8-.4-1.9 1.4-1.9 1.4z"/><path class="st3" d="M-250.6-655.2s.7 1.8.9 2.2 1.8.7 1.8.7-.3.1-1.1.1c-.7 0-1 .6-1 .6s.5.5.9 1.1c.4.6 1.6.4 1.6.4l-.8.4s1.3.8 2.7.2c1.2-.5 1.1-1.5 1.1-1.6.2 0 1.1-.3 1.1-1.6 0-1.5-1.2-2.4-1.2-2.4l-.1.9s-.3-1.1-1-1.3-1.3-.5-1.3-.5-.5.5-.2 1.2.3 1 .3 1-.8-1.4-1.3-1.4h-2.4z"/><path class="st4" d="M-238-648.6c0-.5-.3-.8-.7-1 0-.1.1-.2.1-.4 0-.6-.4-1-1-1-.3 0-.5.1-.7.3-.2-.2-.4-.3-.7-.3s-.5.1-.7.3c-.2-.2-.4-.3-.7-.3-.6 0-1 .4-1 1 0 .1 0 .3.1.4-.4.1-.7.5-.7 1s.3.8.7 1c0 .1-.1.2-.1.4 0 .5.3.8.7 1 0 .1-.1.2-.1.4 0 .5.3.8.7 1 0 .1-.1.2-.1.4 0 .6.4 1 1 1s1-.4 1-1c0-.1 0-.3-.1-.4.4-.1.7-.5.7-1 0-.1 0-.3-.1-.4.4-.1.7-.5.7-1 0-.1 0-.3-.1-.4.8-.2 1.1-.5 1.1-1zm-8-2.7c0-.5-.3-.8-.7-1 0-.1.1-.2.1-.4 0-.6-.4-1-1-1-.3 0-.5.1-.7.3-.2-.1-.4-.2-.7-.2s-.5.1-.7.3c-.2-.2-.4-.3-.7-.3-.6 0-1 .4-1 1 0 .1 0 .3.1.4-.4.1-.7.5-.7 1s.3.8.7 1c0 .1-.1.2-.1.4 0 .5.3.8.7 1 0 .1-.1.2-.1.4 0 .5.3.8.7 1 0 .1-.1.2-.1.4 0 .6.4 1 1 1s1-.4 1-1c0-.1 0-.3-.1-.4.4-.1.7-.5.7-1 0-.1 0-.3-.1-.4.4-.1.7-.5.7-1 0-.1 0-.3-.1-.4.8-.2 1.1-.6 1.1-1.1z"/><path class="st3" d="M-255.5-649s1.8-.5 2.3-.7c.5-.1.9-1.7.9-1.7v1.1c-.1.7.5 1.1.5 1.1s.5-.5 1.2-.8c.6-.4.6-1.5.6-1.5l.3.8s1-1.2.5-2.6c-.4-1.3-1.4-1.3-1.5-1.3 0-.2-.1-1.1-1.5-1.3-1.5-.2-2.5.9-2.5.9l.8.2s-1.1.2-1.4.8c-.3.8-.6 1.4-.6 1.4s.5.5 1.2.3 1-.2 1-.2-1.5.6-1.5 1.1-.3 2.4-.3 2.4z"/></g><g transform="translate(264 672)"><ellipse class="st1" cx="-224" cy="-628.6" rx="6" ry="2"/><path class="st2" d="M-223-640.6v11.5c0 .4-.4.7-1 .7s-1-.3-1-.7v-12.5l2 1z"/><path class="st2" d="M-224-636.2c-2.6 0-3-.9-3-3.4v-3l-1-1v6c0 1.7 1.3 3 3 3h1v-1.6zm1 1.4c1.7 0 3-.4 3-2.1v-1.7h1v2c0 1.7-1.3 3-3 3h-1v-1.2z"/><path class="st2" d="M-227-637.8c-1.7 0-2-1.3-2-2.1v-3.7l-1-1v5c0 1.7 1.3 3 3 3v-1.2z"/><path class="st2" d="M-234-646.6l22 11v1l-22-11z"/><path class="st3" d="M-208.1-632.7s-.4-1.9-.5-2.3c-.1-.5-1.6-1-1.6-1s.3 0 1.1.1c.7.1 1.2-.4 1.2-.4s-.4-.6-.7-1.2c-.3-.6-1.5-.7-1.5-.7l.8-.3s-1.1-1.1-2.6-.7c-1.3.3-1.4 1.2-1.4 1.4-.2 0-1.1.1-1.4 1.4-.3 1.5.7 2.6.7 2.6l.3-.8s.1 1.1.7 1.5c.6.3 1.2.7 1.2.7s.6-.4.4-1.2c-.1-.7-.1-1.1-.1-1.1s.5 1.5 1 1.6c.5.1 2.4.4 2.4.4z"/><path class="st4" d="M-213-636.3c0-.5-.3-.8-.7-1 0-.1.1-.2.1-.4 0-.6-.4-1-1-1-.3 0-.5.1-.7.3-.2-.1-.4-.2-.7-.2s-.5.1-.7.3c-.2-.2-.4-.3-.7-.3-.6 0-1 .4-1 1 0 .1 0 .3.1.4-.4.1-.7.5-.7 1s.3.8.7 1c0 .1-.1.2-.1.4 0 .5.3.8.7 1 0 .1-.1.2-.1.4 0 .5.3.8.7 1 0 .1-.1.2-.1.4 0 .6.4 1 1 1s1-.4 1-1c0-.1 0-.3-.1-.4.4-.1.7-.5.7-1 0-.1 0-.3-.1-.4.4-.1.7-.5.7-1 0-.1 0-.3-.1-.4.8-.2 1.1-.6 1.1-1.1z"/><path class="st3" d="M-214.8-641.4s-1.8-.5-2.3-.7c-.5-.1-1.6 1-1.6 1l.6-.9c.4-.6.2-1.2.2-1.2s-.7.1-1.4.1-1.3 1-1.3 1l.1-.9s-1.5.5-1.9 1.9c-.4 1.3.5 1.8.6 1.9-.1.2-.5 1 .6 1.9 1.1 1 2.6.5 2.6.5l-.6-.6s1.1.4 1.6 0c.6-.4 1.2-.7 1.2-.7s-.1-.7-.8-.9c-.7-.2-1-.4-1-.4s1.6.3 1.9-.1 1.5-1.9 1.5-1.9z"/><path class="st3" d="M-220.7-634.6s-.1-1.9-.1-2.4-1.4-1.2-1.4-1.2.3.1 1 .3c.7.2 1.2-.2 1.2-.2s-.3-.6-.5-1.3c-.2-.7-1.3-.9-1.3-.9l.8-.3s-1-1.2-2.4-1.1c-1.3.1-1.5 1-1.6 1.2-.2 0-1.1-.1-1.6 1.1-.5 1.4.3 2.7.3 2.7l.4-.8s-.1 1.1.5 1.6c.6.4 1.1.9 1.1.9s.6-.4.6-1.1v-1.1s.3 1.6.7 1.7c.5.2 2.3.9 2.3.9z"/><path class="st3" d="M-230.7-641.4s1.6 1 2 1.3c.4.3 1.8-.4 1.8-.4s-.2.2-.8.7c-.6.4-.5 1.1-.5 1.1s.7.1 1.4.3c.7.2 1.5-.5 1.5-.5l-.4.8s1.6-.1 2.4-1.3c.7-1.1.1-1.8 0-2 .1-.1.8-.8 0-2-.8-1.3-2.4-1.3-2.4-1.3l.4.8s-.9-.7-1.6-.5c-.7.2-1.4.3-1.4.3s-.1.7.5 1.1c.6.4.8.6.8.6s-1.5-.7-1.8-.4-1.9 1.4-1.9 1.4z"/><path class="st3" d="M-234.6-647.2s.7 1.8.9 2.2 1.8.7 1.8.7-.3.1-1.1.1-1 .6-1 .6.5.5.9 1.1c.4.6 1.6.4 1.6.4l-.8.4s1.3.8 2.7.2c1.2-.5 1.1-1.5 1.1-1.6.2 0 1.1-.3 1.1-1.6 0-1.5-1.2-2.4-1.2-2.4l-.1.9s-.3-1.1-1-1.3-1.3-.5-1.3-.5-.5.5-.2 1.2.3 1 .3 1-.8-1.4-1.3-1.4h-2.4z"/><path class="st4" d="M-222-640.6c0-.5-.3-.8-.7-1 0-.1.1-.2.1-.4 0-.6-.4-1-1-1-.3 0-.5.1-.7.3-.2-.2-.4-.3-.7-.3-.3 0-.5.1-.7.3-.2-.2-.4-.3-.7-.3-.6 0-1 .4-1 1 0 .1 0 .3.1.4-.4.1-.7.5-.7 1s.3.8.7 1c0 .1-.1.2-.1.4 0 .5.3.8.7 1 0 .1-.1.2-.1.4 0 .5.3.8.7 1 0 .1-.1.2-.1.4 0 .6.4 1 1 1s1-.4 1-1c0-.1 0-.3-.1-.4.4-.1.7-.5.7-1 0-.1 0-.3-.1-.4.4-.1.7-.5.7-1 0-.1 0-.3-.1-.4.8-.2 1.1-.5 1.1-1zm-8-2.7c0-.5-.3-.8-.7-1 0-.1.1-.2.1-.4 0-.6-.4-1-1-1-.3 0-.5.1-.7.3-.2-.1-.4-.2-.7-.2s-.5.1-.7.3c-.2-.2-.4-.3-.7-.3-.6 0-1 .4-1 1 0 .1 0 .3.1.4-.4.1-.7.5-.7 1s.3.8.7 1c0 .1-.1.2-.1.4 0 .5.3.8.7 1 0 .1-.1.2-.1.4 0 .5.3.8.7 1 0 .1-.1.2-.1.4 0 .6.4 1 1 1s1-.4 1-1c0-.1 0-.3-.1-.4.4-.1.7-.5.7-1 0-.1 0-.3-.1-.4.4-.1.7-.5.7-1 0-.1 0-.3-.1-.4.8-.2 1.1-.6 1.1-1.1z"/><path class="st3" d="M-239.5-641s1.8-.5 2.3-.7c.5-.1.9-1.7.9-1.7v1.1c-.1.7.5 1.1.5 1.1s.5-.5 1.2-.8c.6-.4.6-1.5.6-1.5l.3.8s1-1.2.5-2.6c-.4-1.3-1.4-1.3-1.5-1.3 0-.2-.1-1.1-1.5-1.3-1.5-.2-2.5.9-2.5.9l.8.2s-1.1.2-1.4.8c-.3.7-.6 1.3-.6 1.3s.5.5 1.2.3 1-.2 1-.2-1.5.6-1.5 1.1c0 .6-.3 2.5-.3 2.5z"/></g><g transform="translate(264 672)"><ellipse class="st1" cx="-208" cy="-620.6" rx="6" ry="2"/><path class="st2" d="M-207-632.6v11.5c0 .4-.4.7-1 .7s-1-.3-1-.7v-12.5l2 1z"/><path class="st2" d="M-208-628.2c-2.6 0-3-.9-3-3.4v-3l-1-1v6c0 1.7 1.3 3 3 3h1v-1.6zm1 1.4c1.7 0 3-.4 3-2.1v-1.7h1v2c0 1.7-1.3 3-3 3h-1v-1.2z"/><path class="st2" d="M-211-629.8c-1.7 0-2-1.3-2-2.1v-3.7l-1-1v5c0 1.7 1.3 3 3 3v-1.2z"/><path class="st2" d="M-218-638.6l22 11v1l-22-11z"/><path class="st3" d="M-192.1-624.7s-.4-1.9-.5-2.3c-.1-.5-1.6-1-1.6-1s.3 0 1.1.1c.7.1 1.2-.4 1.2-.4s-.4-.6-.7-1.2c-.3-.6-1.5-.7-1.5-.7l.8-.3s-1.1-1.1-2.6-.7c-1.3.3-1.4 1.2-1.4 1.4-.2 0-1.1.1-1.4 1.4-.3 1.5.7 2.6.7 2.6l.3-.8s.1 1.1.7 1.5c.6.3 1.2.7 1.2.7s.6-.4.4-1.2c-.1-.7-.1-1.1-.1-1.1s.5 1.5 1 1.6c.5.1 2.4.4 2.4.4z"/><path class="st4" d="M-197-628.3c0-.5-.3-.8-.7-1 0-.1.1-.2.1-.4 0-.6-.4-1-1-1-.3 0-.5.1-.7.3-.2-.1-.4-.2-.7-.2s-.5.1-.7.3c-.2-.2-.4-.3-.7-.3-.6 0-1 .4-1 1 0 .1 0 .3.1.4-.4.1-.7.5-.7 1s.3.8.7 1c0 .1-.1.2-.1.4 0 .5.3.8.7 1 0 .1-.1.2-.1.4 0 .5.3.8.7 1 0 .1-.1.2-.1.4 0 .6.4 1 1 1s1-.4 1-1c0-.1 0-.3-.1-.4.4-.1.7-.5.7-1 0-.1 0-.3-.1-.4.4-.1.7-.5.7-1 0-.1 0-.3-.1-.4.8-.2 1.1-.6 1.1-1.1z"/><path class="st3" d="M-198.8-633.4s-1.8-.5-2.3-.7c-.5-.1-1.6 1-1.6 1l.6-.9c.4-.6.2-1.2.2-1.2s-.7.1-1.4.1-1.3 1-1.3 1l.1-.9s-1.5.5-1.9 1.9c-.4 1.3.5 1.8.6 1.9-.1.2-.5 1 .6 1.9 1.1 1 2.6.5 2.6.5l-.6-.6s1.1.4 1.6 0c.6-.4 1.2-.7 1.2-.7s-.1-.7-.8-.9c-.7-.2-1-.4-1-.4s1.6.3 1.9-.1 1.5-1.9 1.5-1.9z"/><path class="st3" d="M-204.7-626.6s-.1-1.9-.1-2.4-1.4-1.2-1.4-1.2.3.1 1 .3c.7.2 1.2-.2 1.2-.2s-.3-.6-.5-1.3c-.2-.7-1.3-.9-1.3-.9l.8-.3s-1-1.2-2.4-1.1c-1.3.1-1.5 1-1.6 1.2-.2 0-1.1-.1-1.6 1.1-.5 1.4.3 2.7.3 2.7l.4-.8s-.1 1.1.5 1.6c.6.4 1.1.9 1.1.9s.6-.4.6-1.1v-1.1s.3 1.6.7 1.7c.5.2 2.3.9 2.3.9z"/><path class="st3" d="M-214.7-633.4s1.6 1 2 1.3c.4.3 1.8-.4 1.8-.4s-.2.2-.8.7c-.6.4-.5 1.1-.5 1.1s.7.1 1.4.3c.7.2 1.5-.5 1.5-.5l-.4.8s1.6-.1 2.4-1.3c.7-1.1.1-1.8 0-2 .1-.1.8-.8 0-2-.8-1.3-2.4-1.3-2.4-1.3l.4.8s-.9-.7-1.6-.5c-.7.2-1.4.3-1.4.3s-.1.7.5 1.1c.6.4.8.6.8.6s-1.5-.7-1.8-.4c-.3.3-1.9 1.4-1.9 1.4z"/><path class="st3" d="M-218.6-639.2s.7 1.8.9 2.2 1.8.7 1.8.7-.3.1-1.1.1c-.7 0-1 .6-1 .6s.5.5.9 1.1c.4.6 1.6.4 1.6.4l-.8.4s1.3.8 2.7.2c1.2-.5 1.1-1.5 1.1-1.6.2 0 1.1-.3 1.1-1.6 0-1.5-1.2-2.4-1.2-2.4l-.1.9s-.3-1.1-1-1.3-1.3-.5-1.3-.5-.5.5-.2 1.2.3 1 .3 1-.8-1.4-1.3-1.4h-2.4z"/><path class="st4" d="M-206-632.6c0-.5-.3-.8-.7-1 0-.1.1-.2.1-.4 0-.6-.4-1-1-1-.3 0-.5.1-.7.3-.2-.2-.4-.3-.7-.3-.3 0-.5.1-.7.3-.2-.2-.4-.3-.7-.3-.6 0-1 .4-1 1 0 .1 0 .3.1.4-.4.1-.7.5-.7 1s.3.8.7 1c0 .1-.1.2-.1.4 0 .5.3.8.7 1 0 .1-.1.2-.1.4 0 .5.3.8.7 1 0 .1-.1.2-.1.4 0 .6.4 1 1 1s1-.4 1-1c0-.1 0-.3-.1-.4.4-.1.7-.5.7-1 0-.1 0-.3-.1-.4.4-.1.7-.5.7-1 0-.1 0-.3-.1-.4.8-.2 1.1-.5 1.1-1zm-8-2.7c0-.5-.3-.8-.7-1 0-.1.1-.2.1-.4 0-.6-.4-1-1-1-.3 0-.5.1-.7.3-.2-.1-.4-.2-.7-.2s-.5.1-.7.3c-.2-.2-.4-.3-.7-.3-.6 0-1 .4-1 1 0 .1 0 .3.1.4-.4.1-.7.5-.7 1s.3.8.7 1c0 .1-.1.2-.1.4 0 .5.3.8.7 1 0 .1-.1.2-.1.4 0 .5.3.8.7 1 0 .1-.1.2-.1.4 0 .6.4 1 1 1s1-.4 1-1c0-.1 0-.3-.1-.4.4-.1.7-.5.7-1 0-.1 0-.3-.1-.4.4-.1.7-.5.7-1 0-.1 0-.3-.1-.4.8-.2 1.1-.6 1.1-1.1z"/><path class="st3" d="M-223.5-633s1.8-.5 2.3-.7c.5-.1.9-1.7.9-1.7v1.1c0 .8.5 1.1.5 1.1s.5-.5 1.2-.8c.6-.4.6-1.5.6-1.5l.3.8s1-1.2.5-2.6c-.4-1.3-1.4-1.3-1.5-1.3 0-.2-.1-1.1-1.5-1.3-1.5-.2-2.5.9-2.5.9l.8.2s-1.1.2-1.4.8c-.3.7-.6 1.3-.6 1.3s.5.5 1.2.3 1-.2 1-.2-1.5.6-1.5 1.1c0 .6-.3 2.5-.3 2.5z"/></g><g transform="translate(264 672)"><ellipse class="st1" cx="-192" cy="-612.6" rx="6" ry="2"/><path class="st2" d="M-191-624.6v11.5c0 .4-.4.7-1 .7s-1-.3-1-.7v-12.5l2 1z"/><path class="st2" d="M-192-620.2c-2.6 0-3-.9-3-3.4v-3l-1-1v6c0 1.7 1.3 3 3 3h1v-1.6zm1 1.4c1.7 0 3-.4 3-2.1v-1.7h1v2c0 1.7-1.3 3-3 3h-1v-1.2z"/><path class="st2" d="M-195-621.8c-1.7 0-2-1.3-2-2.1v-3.7l-1-1v5c0 1.7 1.3 3 3 3v-1.2z"/><path class="st2" d="M-202-630.6l22 11v1l-22-11z"/><path class="st3" d="M-176.1-616.7s-.4-1.9-.5-2.3c-.1-.5-1.6-1-1.6-1s.3 0 1.1.1c.7.1 1.2-.4 1.2-.4s-.4-.6-.7-1.2c-.3-.6-1.5-.7-1.5-.7l.8-.3s-1.1-1.1-2.6-.7c-1.3.3-1.4 1.2-1.4 1.4-.2 0-1.1.1-1.4 1.4-.3 1.5.7 2.6.7 2.6l.3-.8s.1 1.1.7 1.5c.6.3 1.2.7 1.2.7s.6-.4.4-1.2c-.1-.7-.1-1.1-.1-1.1s.5 1.5 1 1.6c.5.1 2.4.4 2.4.4z"/><path class="st4" d="M-181-620.3c0-.5-.3-.8-.7-1 0-.1.1-.2.1-.4 0-.6-.4-1-1-1-.3 0-.5.1-.7.3-.2-.1-.4-.2-.7-.2s-.5.1-.7.3c-.2-.2-.4-.3-.7-.3-.6 0-1 .4-1 1 0 .1 0 .3.1.4-.4.1-.7.5-.7 1s.3.8.7 1c0 .1-.1.2-.1.4 0 .5.3.8.7 1 0 .1-.1.2-.1.4 0 .5.3.8.7 1 0 .1-.1.2-.1.4 0 .6.4 1 1 1s1-.4 1-1c0-.1 0-.3-.1-.4.4-.1.7-.5.7-1 0-.1 0-.3-.1-.4.4-.1.7-.5.7-1 0-.1 0-.3-.1-.4.8-.2 1.1-.6 1.1-1.1z"/><path class="st3" d="M-182.8-625.4s-1.8-.5-2.3-.7c-.5-.1-1.6 1-1.6 1l.6-.9c.4-.6.2-1.2.2-1.2s-.7.1-1.4.1-1.3 1-1.3 1l.1-.9s-1.5.5-1.9 1.9c-.4 1.3.5 1.8.6 1.9-.1.2-.5 1 .6 1.9 1.1 1 2.6.5 2.6.5l-.6-.6s1.1.4 1.6 0c.6-.4 1.2-.7 1.2-.7s-.1-.7-.8-.9-1-.4-1-.4 1.6.3 1.9-.1 1.5-1.9 1.5-1.9z"/><path class="st3" d="M-188.7-618.6s-.1-1.9-.1-2.4-1.4-1.2-1.4-1.2.3.1 1 .3c.7.2 1.2-.2 1.2-.2s-.3-.6-.5-1.3c-.2-.7-1.3-.9-1.3-.9l.8-.3s-1-1.2-2.4-1.1c-1.3.1-1.5 1-1.6 1.2-.2 0-1.1-.1-1.6 1.1-.5 1.4.3 2.7.3 2.7l.4-.8s-.1 1.1.5 1.6c.6.4 1.1.9 1.1.9s.6-.4.6-1.1v-1.1s.3 1.6.7 1.7c.5.2 2.3.9 2.3.9z"/><path class="st3" d="M-198.7-625.4s1.6 1 2 1.3c.4.3 1.8-.4 1.8-.4s-.2.2-.8.7-.5 1.1-.5 1.1.7.1 1.4.3c.7.2 1.5-.5 1.5-.5l-.4.8s1.6-.1 2.4-1.3c.7-1.1.1-1.8 0-2 .1-.1.8-.8 0-2-.8-1.3-2.4-1.3-2.4-1.3l.4.8s-.9-.7-1.6-.5c-.7.2-1.4.3-1.4.3s-.1.7.5 1.1c.6.4.8.6.8.6s-1.5-.7-1.8-.4c-.3.3-1.9 1.4-1.9 1.4z"/><path class="st3" d="M-202.6-631.2s.7 1.8.9 2.2 1.8.7 1.8.7-.3.1-1.1.1c-.7 0-1 .6-1 .6s.5.5.9 1.1c.4.6 1.6.4 1.6.4l-.8.4s1.3.8 2.7.2c1.2-.5 1.1-1.5 1.1-1.6.2 0 1.1-.3 1.1-1.6 0-1.5-1.2-2.4-1.2-2.4l-.1.9s-.3-1.1-1-1.3-1.3-.5-1.3-.5-.5.5-.2 1.2.3 1 .3 1-.8-1.4-1.3-1.4h-2.4z"/><path class="st4" d="M-190-624.6c0-.5-.3-.8-.7-1 0-.1.1-.2.1-.4 0-.6-.4-1-1-1-.3 0-.5.1-.7.3-.2-.2-.4-.3-.7-.3-.3 0-.5.1-.7.3-.2-.2-.4-.3-.7-.3-.6 0-1 .4-1 1 0 .1 0 .3.1.4-.4.1-.7.5-.7 1s.3.8.7 1c0 .1-.1.2-.1.4 0 .5.3.8.7 1 0 .1-.1.2-.1.4 0 .5.3.8.7 1 0 .1-.1.2-.1.4 0 .6.4 1 1 1s1-.4 1-1c0-.1 0-.3-.1-.4.4-.1.7-.5.7-1 0-.1 0-.3-.1-.4.4-.1.7-.5.7-1 0-.1 0-.3-.1-.4.8-.2 1.1-.5 1.1-1zm-8-2.7c0-.5-.3-.8-.7-1 0-.1.1-.2.1-.4 0-.6-.4-1-1-1-.3 0-.5.1-.7.3-.2-.1-.4-.2-.7-.2s-.5.1-.7.3c-.2-.2-.4-.3-.7-.3-.6 0-1 .4-1 1 0 .1 0 .3.1.4-.4.1-.7.5-.7 1s.3.8.7 1c0 .1-.1.2-.1.4 0 .5.3.8.7 1 0 .1-.1.2-.1.4 0 .5.3.8.7 1 0 .1-.1.2-.1.4 0 .6.4 1 1 1s1-.4 1-1c0-.1 0-.3-.1-.4.4-.1.7-.5.7-1 0-.1 0-.3-.1-.4.4-.1.7-.5.7-1 0-.1 0-.3-.1-.4.8-.2 1.1-.6 1.1-1.1z"/><path class="st3" d="M-207.5-625s1.8-.5 2.3-.7c.5-.1.9-1.7.9-1.7v1.1c0 .8.5 1.1.5 1.1s.5-.5 1.2-.8c.6-.4.6-1.5.6-1.5l.3.8s1-1.2.5-2.6c-.4-1.3-1.4-1.3-1.5-1.3 0-.2-.1-1.1-1.5-1.3-1.5-.2-2.5.9-2.5.9l.8.2s-1.1.2-1.4.8c-.3.7-.6 1.3-.6 1.3s.5.5 1.2.3 1-.2 1-.2-1.5.6-1.5 1.1c0 .6-.3 2.5-.3 2.5z"/></g></g></svg>