<svg xmlns="http://www.w3.org/2000/svg" width="292" height="164"><style>.st0{fill:#baa794}.st1,.st2{opacity:.29;enable-background:new}.st2{opacity:.11}.st3{fill:#2d3134}</style><g id="i1731_1_"><path class="st0" d="M-396-503l-2-1-2 1v18l2 1 2-1z" transform="translate(464 536)"/><path class="st1" d="M-398-484l2-1v-18l-2 1z" transform="translate(464 536)"/><path class="st2" d="M-398-484l-2-1v-18l2 1z" transform="translate(464 536)"/><path class="st3" d="M-337-466.5l3 1.5 1-.5-4-2v-.5l-.5-3-.5 2.5v.5l-1-.5v-.5l-.5-3-.5 2.5v.5l-1-.5v-.5l-.5-3-.5 2.5v.5l-1-.5v-.5l-.5-3-.5 2.5v.5l-1-.5v-.5l-.5-3-.5 2.5v.5l-1-.5v-.5l-.5-3-.5 2.5v.5l-1-.5v-.5l-.5-3-.5 2.5v.5l-1-.5v-.5l-.5-3-.5 2.5v.5l-1-.5v-.5l-.5-3-.5 2.5v.5l-1-.5v-.5l-.5-3-.5 2.5v.5l-1-.5v-.5l-.5-3-.5 2.5v.5l-1-.5v-.5l-.5-3-.5 2.5v.5l-1-.5v-.5l-.5-3-.5 2.5v.5l-1-.5v-.5l-.5-3-.5 2.5v.5l-1-.5v-.5l-.5-3-.5 2.5v.5l-1-.5v-.5l-.5-3-.5 2.5v.5l-1-.5v-.5l-.5-3-.5 2.5v.5l-1-.5v-.5l-.5-3-.5 2.5v.5l-1-.5v-.5l-.5-3-.5 2.5v.5l-1-.5v-.5l-.5-3-.5 2.5v.5l-1-.5v-.5l-.5-3-.5 2.5v.5l-1-.5v-.5l-.5-3-.5 2.5v.5l-1-.5v-.5l-.5-3-.5 2.5v.5l-1-.5v-.5l-.5-3-.5 2.5v.5l-1-.5v-.5l-.5-3-.5 2.5v.5l-1-.5v-.5l-.5-3-.5 2.5v.5l-1-.5v-.5l-.5-3-.5 2.5v.5l-1-.5v-.5l-.5-3-.5 2.5v.5l-1-.5v-.5l-.5-3-.5 2.5v.5l-1-.5v-.5l-.5-3-.5 2.5v.5l-1 .5 1 .5v2l-1 .5 1 .5v9.5l1 .5v-9.5l1 .5v9.5l1 .5v-9.5l1 .5v9.5l1 .5v-9.5l1 .5v9.5l1 .5v-9.5l1 .5v9.5l1 .5v-9.5l1 .5v9.5l1 .5v-9.5l1 .5v9.5l1 .5v-9.5l1 .5v9.5l1 .5v-9.5l1 .5v9.5l1 .5v-9.5l1 .5v9.5l1 .5v-9.5l1 .5v9.5l1 .5v-9.5l1 .5v9.5l1 .5v-9.5l1 .5v9.5l1 .5v-9.5l1 .5v9.5l1 .5v-9.5l1 .5v9.5l1 .5v-9.5l1 .5v9.5l1 .5v-9.5l1 .5v9.5l1 .5v-9.5l1 .5v9.5l1 .5v-9.5l1 .5v9.5l1 .5v-9.5l1 .5v9.5l1 .5v-9.5l1 .5v9.5l1 .5v-9.5l1 .5v9.5l1 .5v-9.5l1 .5v9.5l1 .5v-9.5l1 .5v9.5l1 .5v-9.5l1 .5v9.5l1 .5v-9.5l1 .5v9.5l1 .5v-9.5l1 .5v9.5l1 .5v-9.5l1 .5v9.5l1 .5v-9.5l1 .5v9.5l1 .5v-9.5l1 .5v9.5l1 .5v-9.5l3 1.5 1-.5-4-2v-2zm-58-27v-2l1 .5v2l-1-.5zm2 1v-2l1 .5v2l-1-.5zm2 1v-2l1 .5v2l-1-.5zm2 1v-2l1 .5v2l-1-.5zm2 1v-2l1 .5v2l-1-.5zm2 1v-2l1 .5v2l-1-.5zm2 1v-2l1 .5v2l-1-.5zm2 1v-2l1 .5v2l-1-.5zm2 1v-2l1 .5v2l-1-.5zm2 1v-2l1 .5v2l-1-.5zm2 1v-2l1 .5v2l-1-.5zm2 1v-2l1 .5v2l-1-.5zm2 1v-2l1 .5v2l-1-.5zm2 1v-2l1 .5v2l-1-.5zm2 1v-2l1 .5v2l-1-.5zm2 1v-2l1 .5v2l-1-.5zm2 1v-2l1 .5v2l-1-.5zm2 1v-2l1 .5v2l-1-.5zm2 1v-2l1 .5v2l-1-.5zm2 1v-2l1 .5v2l-1-.5zm2 1v-2l1 .5v2l-1-.5zm2 1v-2l1 .5v2l-1-.5zm2 1v-2l1 .5v2l-1-.5zm2 1v-2l1 .5v2l-1-.5zm2 1v-2l1 .5v2l-1-.5zm2 1v-2l1 .5v2l-1-.5zm2 1v-2l1 .5v2l-1-.5zm2 1v-2l1 .5v2l-1-.5zm2 1v-2l1 .5v2l-1-.5z" transform="translate(464 536)"/><path class="st0" d="M-332-471l-2-1-2 1v18l2 1 2-1z" transform="translate(464 536)"/><path class="st1" d="M-334-452l2-1v-18l-2 1z" transform="translate(464 536)"/><path class="st2" d="M-334-452l-2-1v-18l2 1z" transform="translate(464 536)"/><path class="st0" d="M-396-503l-2-1-2 1v18l2 1 2-1z" transform="translate(400 504)"/><path class="st1" d="M-398-484l2-1v-18l-2 1z" transform="translate(400 504)"/><path class="st2" d="M-398-484l-2-1v-18l2 1z" transform="translate(400 504)"/><path class="st3" d="M-337-466.5l3 1.5 1-.5-4-2v-.5l-.5-3-.5 2.5v.5l-1-.5v-.5l-.5-3-.5 2.5v.5l-1-.5v-.5l-.5-3-.5 2.5v.5l-1-.5v-.5l-.5-3-.5 2.5v.5l-1-.5v-.5l-.5-3-.5 2.5v.5l-1-.5v-.5l-.5-3-.5 2.5v.5l-1-.5v-.5l-.5-3-.5 2.5v.5l-1-.5v-.5l-.5-3-.5 2.5v.5l-1-.5v-.5l-.5-3-.5 2.5v.5l-1-.5v-.5l-.5-3-.5 2.5v.5l-1-.5v-.5l-.5-3-.5 2.5v.5l-1-.5v-.5l-.5-3-.5 2.5v.5l-1-.5v-.5l-.5-3-.5 2.5v.5l-1-.5v-.5l-.5-3-.5 2.5v.5l-1-.5v-.5l-.5-3-.5 2.5v.5l-1-.5v-.5l-.5-3-.5 2.5v.5l-1-.5v-.5l-.5-3-.5 2.5v.5l-1-.5v-.5l-.5-3-.5 2.5v.5l-1-.5v-.5l-.5-3-.5 2.5v.5l-1-.5v-.5l-.5-3-.5 2.5v.5l-1-.5v-.5l-.5-3-.5 2.5v.5l-1-.5v-.5l-.5-3-.5 2.5v.5l-1-.5v-.5l-.5-3-.5 2.5v.5l-1-.5v-.5l-.5-3-.5 2.5v.5l-1-.5v-.5l-.5-3-.5 2.5v.5l-1-.5v-.5l-.5-3-.5 2.5v.5l-1-.5v-.5l-.5-3-.5 2.5v.5l-1-.5v-.5l-.5-3-.5 2.5v.5l-1-.5v-.5l-.5-3-.5 2.5v.5l-1-.5v-.5l-.5-3-.5 2.5v.5l-1 .5 1 .5v2l-1 .5 1 .5v9.5l1 .5v-9.5l1 .5v9.5l1 .5v-9.5l1 .5v9.5l1 .5v-9.5l1 .5v9.5l1 .5v-9.5l1 .5v9.5l1 .5v-9.5l1 .5v9.5l1 .5v-9.5l1 .5v9.5l1 .5v-9.5l1 .5v9.5l1 .5v-9.5l1 .5v9.5l1 .5v-9.5l1 .5v9.5l1 .5v-9.5l1 .5v9.5l1 .5v-9.5l1 .5v9.5l1 .5v-9.5l1 .5v9.5l1 .5v-9.5l1 .5v9.5l1 .5v-9.5l1 .5v9.5l1 .5v-9.5l1 .5v9.5l1 .5v-9.5l1 .5v9.5l1 .5v-9.5l1 .5v9.5l1 .5v-9.5l1 .5v9.5l1 .5v-9.5l1 .5v9.5l1 .5v-9.5l1 .5v9.5l1 .5v-9.5l1 .5v9.5l1 .5v-9.5l1 .5v9.5l1 .5v-9.5l1 .5v9.5l1 .5v-9.5l1 .5v9.5l1 .5v-9.5l1 .5v9.5l1 .5v-9.5l1 .5v9.5l1 .5v-9.5l1 .5v9.5l1 .5v-9.5l1 .5v9.5l1 .5v-9.5l1 .5v9.5l1 .5v-9.5l3 1.5 1-.5-4-2v-2zm-58-27v-2l1 .5v2l-1-.5zm2 1v-2l1 .5v2l-1-.5zm2 1v-2l1 .5v2l-1-.5zm2 1v-2l1 .5v2l-1-.5zm2 1v-2l1 .5v2l-1-.5zm2 1v-2l1 .5v2l-1-.5zm2 1v-2l1 .5v2l-1-.5zm2 1v-2l1 .5v2l-1-.5zm2 1v-2l1 .5v2l-1-.5zm2 1v-2l1 .5v2l-1-.5zm2 1v-2l1 .5v2l-1-.5zm2 1v-2l1 .5v2l-1-.5zm2 1v-2l1 .5v2l-1-.5zm2 1v-2l1 .5v2l-1-.5zm2 1v-2l1 .5v2l-1-.5zm2 1v-2l1 .5v2l-1-.5zm2 1v-2l1 .5v2l-1-.5zm2 1v-2l1 .5v2l-1-.5zm2 1v-2l1 .5v2l-1-.5zm2 1v-2l1 .5v2l-1-.5zm2 1v-2l1 .5v2l-1-.5zm2 1v-2l1 .5v2l-1-.5zm2 1v-2l1 .5v2l-1-.5zm2 1v-2l1 .5v2l-1-.5zm2 1v-2l1 .5v2l-1-.5zm2 1v-2l1 .5v2l-1-.5zm2 1v-2l1 .5v2l-1-.5zm2 1v-2l1 .5v2l-1-.5zm2 1v-2l1 .5v2l-1-.5z" transform="translate(400 504)"/><path class="st0" d="M-332-471l-2-1-2 1v18l2 1 2-1z" transform="translate(400 504)"/><path class="st1" d="M-334-452l2-1v-18l-2 1z" transform="translate(400 504)"/><path class="st2" d="M-334-452l-2-1v-18l2 1z" transform="translate(400 504)"/><path class="st0" d="M-396-503l-2-1-2 1v18l2 1 2-1z" transform="translate(592 600)"/><path class="st1" d="M-398-484l2-1v-18l-2 1z" transform="translate(592 600)"/><path class="st2" d="M-398-484l-2-1v-18l2 1z" transform="translate(592 600)"/><path class="st3" d="M-337-466.5l3 1.5 1-.5-4-2v-.5l-.5-3-.5 2.5v.5l-1-.5v-.5l-.5-3-.5 2.5v.5l-1-.5v-.5l-.5-3-.5 2.5v.5l-1-.5v-.5l-.5-3-.5 2.5v.5l-1-.5v-.5l-.5-3-.5 2.5v.5l-1-.5v-.5l-.5-3-.5 2.5v.5l-1-.5v-.5l-.5-3-.5 2.5v.5l-1-.5v-.5l-.5-3-.5 2.5v.5l-1-.5v-.5l-.5-3-.5 2.5v.5l-1-.5v-.5l-.5-3-.5 2.5v.5l-1-.5v-.5l-.5-3-.5 2.5v.5l-1-.5v-.5l-.5-3-.5 2.5v.5l-1-.5v-.5l-.5-3-.5 2.5v.5l-1-.5v-.5l-.5-3-.5 2.5v.5l-1-.5v-.5l-.5-3-.5 2.5v.5l-1-.5v-.5l-.5-3-.5 2.5v.5l-1-.5v-.5l-.5-3-.5 2.5v.5l-1-.5v-.5l-.5-3-.5 2.5v.5l-1-.5v-.5l-.5-3-.5 2.5v.5l-1-.5v-.5l-.5-3-.5 2.5v.5l-1-.5v-.5l-.5-3-.5 2.5v.5l-1-.5v-.5l-.5-3-.5 2.5v.5l-1-.5v-.5l-.5-3-.5 2.5v.5l-1-.5v-.5l-.5-3-.5 2.5v.5l-1-.5v-.5l-.5-3-.5 2.5v.5l-1-.5v-.5l-.5-3-.5 2.5v.5l-1-.5v-.5l-.5-3-.5 2.5v.5l-1-.5v-.5l-.5-3-.5 2.5v.5l-1-.5v-.5l-.5-3-.5 2.5v.5l-1-.5v-.5l-.5-3-.5 2.5v.5l-1 .5 1 .5v2l-1 .5 1 .5v9.5l1 .5v-9.5l1 .5v9.5l1 .5v-9.5l1 .5v9.5l1 .5v-9.5l1 .5v9.5l1 .5v-9.5l1 .5v9.5l1 .5v-9.5l1 .5v9.5l1 .5v-9.5l1 .5v9.5l1 .5v-9.5l1 .5v9.5l1 .5v-9.5l1 .5v9.5l1 .5v-9.5l1 .5v9.5l1 .5v-9.5l1 .5v9.5l1 .5v-9.5l1 .5v9.5l1 .5v-9.5l1 .5v9.5l1 .5v-9.5l1 .5v9.5l1 .5v-9.5l1 .5v9.5l1 .5v-9.5l1 .5v9.5l1 .5v-9.5l1 .5v9.5l1 .5v-9.5l1 .5v9.5l1 .5v-9.5l1 .5v9.5l1 .5v-9.5l1 .5v9.5l1 .5v-9.5l1 .5v9.5l1 .5v-9.5l1 .5v9.5l1 .5v-9.5l1 .5v9.5l1 .5v-9.5l1 .5v9.5l1 .5v-9.5l1 .5v9.5l1 .5v-9.5l1 .5v9.5l1 .5v-9.5l1 .5v9.5l1 .5v-9.5l1 .5v9.5l1 .5v-9.5l1 .5v9.5l1 .5v-9.5l1 .5v9.5l1 .5v-9.5l3 1.5 1-.5-4-2v-2zm-58-27v-2l1 .5v2l-1-.5zm2 1v-2l1 .5v2l-1-.5zm2 1v-2l1 .5v2l-1-.5zm2 1v-2l1 .5v2l-1-.5zm2 1v-2l1 .5v2l-1-.5zm2 1v-2l1 .5v2l-1-.5zm2 1v-2l1 .5v2l-1-.5zm2 1v-2l1 .5v2l-1-.5zm2 1v-2l1 .5v2l-1-.5zm2 1v-2l1 .5v2l-1-.5zm2 1v-2l1 .5v2l-1-.5zm2 1v-2l1 .5v2l-1-.5zm2 1v-2l1 .5v2l-1-.5zm2 1v-2l1 .5v2l-1-.5zm2 1v-2l1 .5v2l-1-.5zm2 1v-2l1 .5v2l-1-.5zm2 1v-2l1 .5v2l-1-.5zm2 1v-2l1 .5v2l-1-.5zm2 1v-2l1 .5v2l-1-.5zm2 1v-2l1 .5v2l-1-.5zm2 1v-2l1 .5v2l-1-.5zm2 1v-2l1 .5v2l-1-.5zm2 1v-2l1 .5v2l-1-.5zm2 1v-2l1 .5v2l-1-.5zm2 1v-2l1 .5v2l-1-.5zm2 1v-2l1 .5v2l-1-.5zm2 1v-2l1 .5v2l-1-.5zm2 1v-2l1 .5v2l-1-.5zm2 1v-2l1 .5v2l-1-.5z" transform="translate(592 600)"/><path class="st0" d="M-332-471l-2-1-2 1v18l2 1 2-1z" transform="translate(592 600)"/><path class="st1" d="M-334-452l2-1v-18l-2 1z" transform="translate(592 600)"/><path class="st2" d="M-334-452l-2-1v-18l2 1z" transform="translate(592 600)"/><path class="st0" d="M-396-503l-2-1-2 1v18l2 1 2-1z" transform="translate(528 568)"/><path class="st1" d="M-398-484l2-1v-18l-2 1z" transform="translate(528 568)"/><path class="st2" d="M-398-484l-2-1v-18l2 1z" transform="translate(528 568)"/><path class="st3" d="M-337-466.5l3 1.5 1-.5-4-2v-.5l-.5-3-.5 2.5v.5l-1-.5v-.5l-.5-3-.5 2.5v.5l-1-.5v-.5l-.5-3-.5 2.5v.5l-1-.5v-.5l-.5-3-.5 2.5v.5l-1-.5v-.5l-.5-3-.5 2.5v.5l-1-.5v-.5l-.5-3-.5 2.5v.5l-1-.5v-.5l-.5-3-.5 2.5v.5l-1-.5v-.5l-.5-3-.5 2.5v.5l-1-.5v-.5l-.5-3-.5 2.5v.5l-1-.5v-.5l-.5-3-.5 2.5v.5l-1-.5v-.5l-.5-3-.5 2.5v.5l-1-.5v-.5l-.5-3-.5 2.5v.5l-1-.5v-.5l-.5-3-.5 2.5v.5l-1-.5v-.5l-.5-3-.5 2.5v.5l-1-.5v-.5l-.5-3-.5 2.5v.5l-1-.5v-.5l-.5-3-.5 2.5v.5l-1-.5v-.5l-.5-3-.5 2.5v.5l-1-.5v-.5l-.5-3-.5 2.5v.5l-1-.5v-.5l-.5-3-.5 2.5v.5l-1-.5v-.5l-.5-3-.5 2.5v.5l-1-.5v-.5l-.5-3-.5 2.5v.5l-1-.5v-.5l-.5-3-.5 2.5v.5l-1-.5v-.5l-.5-3-.5 2.5v.5l-1-.5v-.5l-.5-3-.5 2.5v.5l-1-.5v-.5l-.5-3-.5 2.5v.5l-1-.5v-.5l-.5-3-.5 2.5v.5l-1-.5v-.5l-.5-3-.5 2.5v.5l-1-.5v-.5l-.5-3-.5 2.5v.5l-1-.5v-.5l-.5-3-.5 2.5v.5l-1-.5v-.5l-.5-3-.5 2.5v.5l-1 .5 1 .5v2l-1 .5 1 .5v9.5l1 .5v-9.5l1 .5v9.5l1 .5v-9.5l1 .5v9.5l1 .5v-9.5l1 .5v9.5l1 .5v-9.5l1 .5v9.5l1 .5v-9.5l1 .5v9.5l1 .5v-9.5l1 .5v9.5l1 .5v-9.5l1 .5v9.5l1 .5v-9.5l1 .5v9.5l1 .5v-9.5l1 .5v9.5l1 .5v-9.5l1 .5v9.5l1 .5v-9.5l1 .5v9.5l1 .5v-9.5l1 .5v9.5l1 .5v-9.5l1 .5v9.5l1 .5v-9.5l1 .5v9.5l1 .5v-9.5l1 .5v9.5l1 .5v-9.5l1 .5v9.5l1 .5v-9.5l1 .5v9.5l1 .5v-9.5l1 .5v9.5l1 .5v-9.5l1 .5v9.5l1 .5v-9.5l1 .5v9.5l1 .5v-9.5l1 .5v9.5l1 .5v-9.5l1 .5v9.5l1 .5v-9.5l1 .5v9.5l1 .5v-9.5l1 .5v9.5l1 .5v-9.5l1 .5v9.5l1 .5v-9.5l1 .5v9.5l1 .5v-9.5l1 .5v9.5l1 .5v-9.5l1 .5v9.5l1 .5v-9.5l1 .5v9.5l1 .5v-9.5l3 1.5 1-.5-4-2v-2zm-58-27v-2l1 .5v2l-1-.5zm2 1v-2l1 .5v2l-1-.5zm2 1v-2l1 .5v2l-1-.5zm2 1v-2l1 .5v2l-1-.5zm2 1v-2l1 .5v2l-1-.5zm2 1v-2l1 .5v2l-1-.5zm2 1v-2l1 .5v2l-1-.5zm2 1v-2l1 .5v2l-1-.5zm2 1v-2l1 .5v2l-1-.5zm2 1v-2l1 .5v2l-1-.5zm2 1v-2l1 .5v2l-1-.5zm2 1v-2l1 .5v2l-1-.5zm2 1v-2l1 .5v2l-1-.5zm2 1v-2l1 .5v2l-1-.5zm2 1v-2l1 .5v2l-1-.5zm2 1v-2l1 .5v2l-1-.5zm2 1v-2l1 .5v2l-1-.5zm2 1v-2l1 .5v2l-1-.5zm2 1v-2l1 .5v2l-1-.5zm2 1v-2l1 .5v2l-1-.5zm2 1v-2l1 .5v2l-1-.5zm2 1v-2l1 .5v2l-1-.5zm2 1v-2l1 .5v2l-1-.5zm2 1v-2l1 .5v2l-1-.5zm2 1v-2l1 .5v2l-1-.5zm2 1v-2l1 .5v2l-1-.5zm2 1v-2l1 .5v2l-1-.5zm2 1v-2l1 .5v2l-1-.5zm2 1v-2l1 .5v2l-1-.5z" transform="translate(528 568)"/><path class="st0" d="M-332-471l-2-1-2 1v18l2 1 2-1z" transform="translate(528 568)"/><path class="st1" d="M-334-452l2-1v-18l-2 1z" transform="translate(528 568)"/><path class="st2" d="M-334-452l-2-1v-18l2 1z" transform="translate(528 568)"/><path class="st0" d="M-396-503l-2-1-2 1v18l2 1 2-1z" transform="translate(672 640)"/><path class="st1" d="M-398-484l2-1v-18l-2 1z" transform="translate(672 640)"/><path class="st2" d="M-398-484l-2-1v-18l2 1z" transform="translate(672 640)"/><path class="st3" d="M-385-490.5l3 1.5 1-.5-4-2v-.5l-.5-3-.5 2.5v.5l-1-.5v-.5l-.5-3-.5 2.5v.5l-1-.5v-.5l-.5-3-.5 2.5v.5l-1-.5v-.5l-.5-3-.5 2.5v.5l-1-.5v-.5l-.5-3-.5 2.5v.5l-1-.5v-.5l-.5-3-.5 2.5v.5l-1 .5 1 .5v2l-1 .5 1 .5v9.5l1 .5v-9.5l1 .5v9.5l1 .5v-9.5l1 .5v9.5l1 .5v-9.5l1 .5v9.5l1 .5v-9.5l1 .5v9.5l1 .5v-9.5l1 .5v9.5l1 .5v-9.5l3 1.5 1-.5-4-2v-2zm-10-3v-2l1 .5v2l-1-.5zm2 1v-2l1 .5v2l-1-.5zm2 1v-2l1 .5v2l-1-.5zm2 1v-2l1 .5v2l-1-.5zm2 1v-2l1 .5v2l-1-.5z" transform="translate(672 640)"/><path class="st0" d="M-380-495l-2-1-2 1v18l2 1 2-1z" transform="translate(672 640)"/><path class="st1" d="M-382-476l2-1v-18l-2 1z" transform="translate(672 640)"/><path class="st2" d="M-382-476l-2-1v-18l2 1z" transform="translate(672 640)"/><path class="st0" d="M-396-503l-2-1-2 1v18l2 1 2-1z" transform="translate(656 632)"/><path class="st1" d="M-398-484l2-1v-18l-2 1z" transform="translate(656 632)"/><path class="st2" d="M-398-484l-2-1v-18l2 1z" transform="translate(656 632)"/><path class="st3" d="M-385-490.5l3 1.5 1-.5-4-2v-.5l-.5-3-.5 2.5v.5l-1-.5v-.5l-.5-3-.5 2.5v.5l-1-.5v-.5l-.5-3-.5 2.5v.5l-1-.5v-.5l-.5-3-.5 2.5v.5l-1-.5v-.5l-.5-3-.5 2.5v.5l-1-.5v-.5l-.5-3-.5 2.5v.5l-1 .5 1 .5v2l-1 .5 1 .5v9.5l1 .5v-9.5l1 .5v9.5l1 .5v-9.5l1 .5v9.5l1 .5v-9.5l1 .5v9.5l1 .5v-9.5l1 .5v9.5l1 .5v-9.5l1 .5v9.5l1 .5v-9.5l3 1.5 1-.5-4-2v-2zm-10-3v-2l1 .5v2l-1-.5zm2 1v-2l1 .5v2l-1-.5zm2 1v-2l1 .5v2l-1-.5zm2 1v-2l1 .5v2l-1-.5zm2 1v-2l1 .5v2l-1-.5z" transform="translate(656 632)"/><path class="st0" d="M-380-495l-2-1-2 1v18l2 1 2-1z" transform="translate(656 632)"/><path class="st1" d="M-382-476l2-1v-18l-2 1z" transform="translate(656 632)"/><path class="st2" d="M-382-476l-2-1v-18l2 1z" transform="translate(656 632)"/></g></svg>