<svg xmlns="http://www.w3.org/2000/svg" width="132" height="84" overflow="scroll"><style>.st0{fill:#baa794}.st1,.st2{opacity:.29;enable-background:new}.st2{opacity:.11}.st3{fill:#2d3134}</style><g id="i1735_1_"><path class="st0" d="M-524-439l-2-1-2 1v18l2 1 2-1z" transform="translate(592 472)"/><path class="st1" d="M-526-420l2-1v-18l-2 1z" transform="translate(592 472)"/><path class="st2" d="M-526-420l-2-1v-18l2 1z" transform="translate(592 472)"/><path class="st3" d="M-465-402.5l3 1.5 1-.5-4-2v-.5l-.5-3-.5 2.5v.5l-1-.5v-.5l-.5-3-.5 2.5v.5l-1-.5v-.5l-.5-3-.5 2.5v.5l-1-.5v-.5l-.5-3-.5 2.5v.5l-1-.5v-.5l-.5-3-.5 2.5v.5l-1-.5v-.5l-.5-3-.5 2.5v.5l-1-.5v-.5l-.5-3-.5 2.5v.5l-1-.5v-.5l-.5-3-.5 2.5v.5l-1-.5v-.5l-.5-3-.5 2.5v.5l-1-.5v-.5l-.5-3-.5 2.5v.5l-1-.5v-.5l-.5-3-.5 2.5v.5l-1-.5v-.5l-.5-3-.5 2.5v.5l-1-.5v-.5l-.5-3-.5 2.5v.5l-1-.5v-.5l-.5-3-.5 2.5v.5l-1-.5v-.5l-.5-3-.5 2.5v.5l-1-.5v-.5l-.5-3-.5 2.5v.5l-1-.5v-.5l-.5-3-.5 2.5v.5l-1-.5v-.5l-.5-3-.5 2.5v.5l-1-.5v-.5l-.5-3-.5 2.5v.5l-1-.5v-.5l-.5-3-.5 2.5v.5l-1-.5v-.5l-.5-3-.5 2.5v.5l-1-.5v-.5l-.5-3-.5 2.5v.5l-1-.5v-.5l-.5-3-.5 2.5v.5l-1-.5v-.5l-.5-3-.5 2.5v.5l-1-.5v-.5l-.5-3-.5 2.5v.5l-1-.5v-.5l-.5-3-.5 2.5v.5l-1-.5v-.5l-.5-3-.5 2.5v.5l-1-.5v-.5l-.5-3-.5 2.5v.5l-1-.5v-.5l-.5-3-.5 2.5v.5l-1-.5v-.5l-.5-3-.5 2.5v.5l-1 .5 1 .5v2l-1 .5 1 .5v9.5l1 .5v-9.5l1 .5v9.5l1 .5v-9.5l1 .5v9.5l1 .5v-9.5l1 .5v9.5l1 .5v-9.5l1 .5v9.5l1 .5v-9.5l1 .5v9.5l1 .5v-9.5l1 .5v9.5l1 .5v-9.5l1 .5v9.5l1 .5v-9.5l1 .5v9.5l1 .5v-9.5l1 .5v9.5l1 .5v-9.5l1 .5v9.5l1 .5v-9.5l1 .5v9.5l1 .5v-9.5l1 .5v9.5l1 .5v-9.5l1 .5v9.5l1 .5v-9.5l1 .5v9.5l1 .5v-9.5l1 .5v9.5l1 .5v-9.5l1 .5v9.5l1 .5v-9.5l1 .5v9.5l1 .5v-9.5l1 .5v9.5l1 .5v-9.5l1 .5v9.5l1 .5v-9.5l1 .5v9.5l1 .5v-9.5l1 .5v9.5l1 .5v-9.5l1 .5v9.5l1 .5v-9.5l1 .5v9.5l1 .5v-9.5l1 .5v9.5l1 .5v-9.5l1 .5v9.5l1 .5v-9.5l1 .5v9.5l1 .5v-9.5l1 .5v9.5l1 .5v-9.5l1 .5v9.5l1 .5v-9.5l1 .5v9.5l1 .5v-9.5l3 1.5 1-.5-4-2v-2zm-58-27v-2l1 .5v2l-1-.5zm2 1v-2l1 .5v2l-1-.5zm2 1v-2l1 .5v2l-1-.5zm2 1v-2l1 .5v2l-1-.5zm2 1v-2l1 .5v2l-1-.5zm2 1v-2l1 .5v2l-1-.5zm2 1v-2l1 .5v2l-1-.5zm2 1v-2l1 .5v2l-1-.5zm2 1v-2l1 .5v2l-1-.5zm2 1v-2l1 .5v2l-1-.5zm2 1v-2l1 .5v2l-1-.5zm2 1v-2l1 .5v2l-1-.5zm2 1v-2l1 .5v2l-1-.5zm2 1v-2l1 .5v2l-1-.5zm2 1v-2l1 .5v2l-1-.5zm2 1v-2l1 .5v2l-1-.5zm2 1v-2l1 .5v2l-1-.5zm2 1v-2l1 .5v2l-1-.5zm2 1v-2l1 .5v2l-1-.5zm2 1v-2l1 .5v2l-1-.5zm2 1v-2l1 .5v2l-1-.5zm2 1v-2l1 .5v2l-1-.5zm2 1v-2l1 .5v2l-1-.5zm2 1v-2l1 .5v2l-1-.5zm2 1v-2l1 .5v2l-1-.5zm2 1v-2l1 .5v2l-1-.5zm2 1v-2l1 .5v2l-1-.5zm2 1v-2l1 .5v2l-1-.5zm2 1v-2l1 .5v2l-1-.5z" transform="translate(592 472)"/><path class="st0" d="M-460-407l-2-1-2 1v18l2 1 2-1z" transform="translate(592 472)"/><path class="st1" d="M-462-388l2-1v-18l-2 1z" transform="translate(592 472)"/><path class="st2" d="M-462-388l-2-1v-18l2 1z" transform="translate(592 472)"/><path class="st0" d="M-524-439l-2-1-2 1v18l2 1 2-1z" transform="translate(528 440)"/><path class="st1" d="M-526-420l2-1v-18l-2 1z" transform="translate(528 440)"/><path class="st2" d="M-526-420l-2-1v-18l2 1z" transform="translate(528 440)"/><path class="st3" d="M-465-402.5l3 1.5 1-.5-4-2v-.5l-.5-3-.5 2.5v.5l-1-.5v-.5l-.5-3-.5 2.5v.5l-1-.5v-.5l-.5-3-.5 2.5v.5l-1-.5v-.5l-.5-3-.5 2.5v.5l-1-.5v-.5l-.5-3-.5 2.5v.5l-1-.5v-.5l-.5-3-.5 2.5v.5l-1-.5v-.5l-.5-3-.5 2.5v.5l-1-.5v-.5l-.5-3-.5 2.5v.5l-1-.5v-.5l-.5-3-.5 2.5v.5l-1-.5v-.5l-.5-3-.5 2.5v.5l-1-.5v-.5l-.5-3-.5 2.5v.5l-1-.5v-.5l-.5-3-.5 2.5v.5l-1-.5v-.5l-.5-3-.5 2.5v.5l-1-.5v-.5l-.5-3-.5 2.5v.5l-1-.5v-.5l-.5-3-.5 2.5v.5l-1-.5v-.5l-.5-3-.5 2.5v.5l-1-.5v-.5l-.5-3-.5 2.5v.5l-1-.5v-.5l-.5-3-.5 2.5v.5l-1-.5v-.5l-.5-3-.5 2.5v.5l-1-.5v-.5l-.5-3-.5 2.5v.5l-1-.5v-.5l-.5-3-.5 2.5v.5l-1-.5v-.5l-.5-3-.5 2.5v.5l-1-.5v-.5l-.5-3-.5 2.5v.5l-1-.5v-.5l-.5-3-.5 2.5v.5l-1-.5v-.5l-.5-3-.5 2.5v.5l-1-.5v-.5l-.5-3-.5 2.5v.5l-1-.5v-.5l-.5-3-.5 2.5v.5l-1-.5v-.5l-.5-3-.5 2.5v.5l-1-.5v-.5l-.5-3-.5 2.5v.5l-1-.5v-.5l-.5-3-.5 2.5v.5l-1 .5 1 .5v2l-1 .5 1 .5v9.5l1 .5v-9.5l1 .5v9.5l1 .5v-9.5l1 .5v9.5l1 .5v-9.5l1 .5v9.5l1 .5v-9.5l1 .5v9.5l1 .5v-9.5l1 .5v9.5l1 .5v-9.5l1 .5v9.5l1 .5v-9.5l1 .5v9.5l1 .5v-9.5l1 .5v9.5l1 .5v-9.5l1 .5v9.5l1 .5v-9.5l1 .5v9.5l1 .5v-9.5l1 .5v9.5l1 .5v-9.5l1 .5v9.5l1 .5v-9.5l1 .5v9.5l1 .5v-9.5l1 .5v9.5l1 .5v-9.5l1 .5v9.5l1 .5v-9.5l1 .5v9.5l1 .5v-9.5l1 .5v9.5l1 .5v-9.5l1 .5v9.5l1 .5v-9.5l1 .5v9.5l1 .5v-9.5l1 .5v9.5l1 .5v-9.5l1 .5v9.5l1 .5v-9.5l1 .5v9.5l1 .5v-9.5l1 .5v9.5l1 .5v-9.5l1 .5v9.5l1 .5v-9.5l1 .5v9.5l1 .5v-9.5l1 .5v9.5l1 .5v-9.5l1 .5v9.5l1 .5v-9.5l1 .5v9.5l1 .5v-9.5l1 .5v9.5l1 .5v-9.5l3 1.5 1-.5-4-2v-2zm-58-27v-2l1 .5v2l-1-.5zm2 1v-2l1 .5v2l-1-.5zm2 1v-2l1 .5v2l-1-.5zm2 1v-2l1 .5v2l-1-.5zm2 1v-2l1 .5v2l-1-.5zm2 1v-2l1 .5v2l-1-.5zm2 1v-2l1 .5v2l-1-.5zm2 1v-2l1 .5v2l-1-.5zm2 1v-2l1 .5v2l-1-.5zm2 1v-2l1 .5v2l-1-.5zm2 1v-2l1 .5v2l-1-.5zm2 1v-2l1 .5v2l-1-.5zm2 1v-2l1 .5v2l-1-.5zm2 1v-2l1 .5v2l-1-.5zm2 1v-2l1 .5v2l-1-.5zm2 1v-2l1 .5v2l-1-.5zm2 1v-2l1 .5v2l-1-.5zm2 1v-2l1 .5v2l-1-.5zm2 1v-2l1 .5v2l-1-.5zm2 1v-2l1 .5v2l-1-.5zm2 1v-2l1 .5v2l-1-.5zm2 1v-2l1 .5v2l-1-.5zm2 1v-2l1 .5v2l-1-.5zm2 1v-2l1 .5v2l-1-.5zm2 1v-2l1 .5v2l-1-.5zm2 1v-2l1 .5v2l-1-.5zm2 1v-2l1 .5v2l-1-.5zm2 1v-2l1 .5v2l-1-.5zm2 1v-2l1 .5v2l-1-.5z" transform="translate(528 440)"/><path class="st0" d="M-460-407l-2-1-2 1v18l2 1 2-1z" transform="translate(528 440)"/><path class="st1" d="M-462-388l2-1v-18l-2 1z" transform="translate(528 440)"/><path class="st2" d="M-462-388l-2-1v-18l2 1z" transform="translate(528 440)"/></g></svg>